<?xml version="1.0" encoding="utf-8"?>
<!-- Generated by IcoMoon.io -->
<svg version="1.1" xmlns="http://www.w3.org/2000/svg" xmlns:xlink="http://www.w3.org/1999/xlink" width="752" height="128" viewBox="0 0 752 128">
<svg id="b-pivotaltracker" width="32" height="32" viewBox="0 0 32 32" x="0" y="0">
<path d="M12.374 7.746l3.469 6.023c0.57-0.052 1.137-0.002 1.702 0.169l1.832-3.16-3.104-5.348-3.9 2.316z"></path>
<path d="M16.286 5.384c0.007 0.003 0.015 0.004 0.029 0.022l3.104 5.349c0.006 0.016 0.007 0.031 0 0.047l-1.832 3.16c-0.067 0.087-0.524-0.109-0.895-0.145-0.281-0.027-0.563-0.025-0.844-0.001 0 0-0.029-0.002-0.045-0.024-1.156-2.008-2.313-4.015-3.469-6.023-0.002-0.004 0.017-0.064 0.017-0.064s3.924-2.323 3.924-2.323c0.004 0 0.008 0.001 0.012 0.002zM12.438 7.763l3.431 5.956c0.55-0.047 1.106 0.008 1.637 0.158 0 0 1.817-3.099 1.817-3.099l-3.066-5.283c-1.273 0.756-2.546 1.512-3.819 2.268z"></path>
<path d="M21.819 8.531l-3.587 5.953c0.322 0.473 0.553 0.994 0.677 1.571l3.652 0.071 3.175-5.307-3.916-2.289z"></path>
<path d="M21.824 8.484c0.005 0 0.009 0.002 0.014 0.004 1.297 0.781 2.614 1.527 3.921 2.291 0.034 0.026 0.027 0.043 0.017 0.065l-3.175 5.307c-0.011 0.014-0.024 0.021-0.042 0.023l-3.652-0.071c-0.105-0.014-0.158-0.511-0.307-0.853-0.112-0.259-0.251-0.505-0.408-0.739 0 0-0.012-0.026-0.001-0.051 1.196-1.984 2.391-3.969 3.587-5.953 0.010-0.017 0.029-0.025 0.046-0.022zM18.288 14.482c0.225 0.335 0.513 0.902 0.655 1.508l3.591 0.088 3.136-5.242-3.835-2.241c-1.183 1.962-2.365 3.925-3.547 5.887z"></path>
<path d="M25.734 16.922l-6.95-0.065c-0.244 0.518-0.575 0.981-1.009 1.381l1.794 3.182 6.184 0.038-0.018-4.536z"></path>
<path d="M25.735 16.874c0.024 0.003 0.041 0.019 0.047 0.042-0.014 1.514 0.012 3.027 0.019 4.541-0.003 0.024-0.005 0.043-0.048 0.048l-6.184-0.038c-0.017-0.002-0.031-0.010-0.041-0.024l-1.794-3.182c-0.041-0.098 0.36-0.396 0.579-0.698 0.166-0.228 0.307-0.473 0.429-0.727 0 0 0.013-0.024 0.043-0.027 2.317 0.022 4.633 0.043 6.95 0.065zM18.804 16.926c-0.24 0.488-0.562 0.933-0.956 1.309 0 0 1.749 3.138 1.749 3.138l6.108 0.037-0.018-4.442-6.873-0.064c-0.003 0.007-0.007 0.014-0.010 0.021z"></path>
<path d="M20.536 24.538l-3.504-6.003c-0.57 0.056-1.137 0.009-1.703-0.16l-1.814 3.171 3.135 5.33 3.887-2.339z"></path>
<path d="M15.342 18.33c0.105 0.030 0.105 0.030 0.21 0.057 0.483 0.115 0.982 0.146 1.475 0.101 0 0 0.027-0.001 0.045 0.023 1.168 2.001 2.336 4.002 3.504 6.003 0.002 0.004-0.017 0.064-0.017 0.064s-3.898 2.344-3.898 2.344c-0.021 0.003-0.040-0.004-0.054-0.022l-3.135-5.331c-0.007-0.016-0.007-0.031-0-0.047l1.814-3.171c0.013-0.017 0.031-0.025 0.054-0.022zM13.57 21.546l3.097 5.266 3.806-2.29-3.465-5.936c-0.552 0.051-1.106-0.001-1.637-0.148l-0.018-0.005c-0.594 1.038-1.188 2.076-1.782 3.114z"></path>
<path d="M10.996 23.744l3.623-5.931c-0.319-0.475-0.547-0.997-0.667-1.575l-3.652-0.093-3.207 5.287 3.902 2.313z"></path>
<path d="M13.953 16.19c0.105 0.015 0.155 0.512 0.302 0.855 0.111 0.26 0.248 0.506 0.404 0.741 0 0 0.014 0.023 0.001 0.051-1.208 1.977-2.415 3.954-3.623 5.931-0.012 0.020-0.042 0.029-0.062 0.017-1.385-0.609-2.603-1.542-3.905-2.314-0.034-0.026-0.026-0.044-0.016-0.065l3.207-5.288c0.011-0.014 0.025-0.021 0.042-0.023 1.217 0.031 2.434 0.062 3.652 0.093zM7.159 21.415l3.821 2.264 3.583-5.866c-0.223-0.337-0.508-0.905-0.646-1.512 0 0-3.591-0.11-3.591-0.11-1.056 1.741-2.112 3.482-3.168 5.223z"></path>
<path d="M7.117 15.514l6.95-0.031c0.237-0.521 0.562-0.989 0.99-1.395l-1.838-3.157-6.184 0.048 0.081 4.535z"></path>
<path d="M13.229 10.885c0.014 0.005 0.023 0.011 0.031 0.023l1.838 3.157c0.043 0.097-0.354 0.401-0.569 0.706-0.163 0.231-0.301 0.477-0.419 0.733 0 0-0.016 0.024-0.043 0.028-2.317 0.010-4.634 0.021-6.95 0.031-0.024 0-0.047-0.021-0.047-0.044-0.209-1.498-0.054-3.025-0.081-4.538 0.004-0.043 0.023-0.045 0.047-0.048 2.065-0.016 4.139-0.247 6.194-0.047zM7.084 11.026l0.080 4.441 6.873-0.031c0.169-0.367 0.504-0.907 0.948-1.344 0 0-1.792-3.114-1.792-3.114-2.036 0.016-4.072 0.031-6.108 0.047z"></path>
<path d="M16.162 1.616c-8.028 0-14.545 6.518-14.545 14.545s6.518 14.545 14.545 14.545c8.028 0 14.545-6.518 14.545-14.545s-6.518-14.545-14.545-14.545zM16.21 4.060c6.773 0 12.271 5.498 12.271 12.271 0 6.772-5.498 12.271-12.271 12.271-6.772 0-12.271-5.499-12.271-12.271 0-6.773 5.499-12.271 12.271-12.271z"></path>
</svg>
<svg id="b-statuscake" width="32" height="32" viewBox="0 0 32 32" x="48" y="0">
<path d="M22.666 11.104c0.229-1.486 1.85-2.64 3.814-2.64 2.12 0 3.842 1.345 3.842 3.002s-1.721 3.002-3.842 3.002c-0.759 0-1.467-0.172-2.063-0.47-0.315-1.094-0.925-2.082-1.75-2.894z"></path>
<path d="M11.539 10.859c-0.372-1.933 0.343-3.735 1.769-4.215 1.404-0.473 3.035 0.493 3.918 2.209-0.084-0.002-0.169-0.004-0.253-0.004-2.121 0-4.042 0.768-5.433 2.009z"></path>
<path d="M9.553 13.91c-0.14 0.026-0.285 0.040-0.434 0.040-1.288 0-2.334-1.046-2.334-2.334s1.046-2.334 2.334-2.334c1.079 0 1.987 0.733 2.254 1.728-0.851 0.807-1.486 1.799-1.821 2.899z"></path>
<path d="M2.28 14.837c0.010-0.928 1.58-1.681 3.512-1.681 1.905 0 3.458 0.732 3.511 1.642-0.080 0.869-0.089 0.909-0.089 1.892 0 2.375 0.929 3.464 1.596 5.040 1.313 1.321 1.624 1.739 2.95 2.323 1.462 0.644 1.878 0.679 3.517 0.679 1.778 0 1.868-0.241 3.305-0.802 1.229-0.882 1.688-0.903 2.879-2.47 0.264-0.806 1.030-1.439 1.419-1.946s1.165-0.553 2.026-0.553c0.736 0 1.55 0.279 2.078 0.793s1.472 1.574 1.472 2.338c-0.312 0.679-0.115 2.064-1.322 3.158-0.479 1.132-1.599 1.885-2.627 2.975s-2.34 1.976-3.938 2.656-3.458 1.021-5.583 1.021c-1.611 0-3.109-0.403-4.428-0.709s-2.41-0.966-3.486-1.612c-1.076-0.646-1.947-1.346-2.85-2.401-0.806-0.958-1.687-1.746-2.256-2.934s-0.996-2.455-1.281-3.802c-0.285-1.347-0.427-2.778-0.427-4.292 0-0.887-0.023-0.492 0.025-1.317v0z"></path>
<path d="M7.718 14.191c0 1.241-1.006 2.247-2.247 2.247s-2.247-1.006-2.247-2.247c0-1.241 1.006-2.247 2.247-2.247s2.247 1.006 2.247 2.247z"></path>
<path d="M6.369 10.633c0 0.407-0.315 0.737-0.702 0.737s-0.702-0.33-0.702-0.737c0-0.407 0.315-0.737 0.702-0.737s0.702 0.33 0.702 0.737z"></path>
<path d="M5.080 8.358c0 0.52-0.421 0.941-0.941 0.941s-0.941-0.421-0.941-0.941c0-0.52 0.421-0.941 0.941-0.941s0.941 0.421 0.941 0.941z"></path>
<path d="M10.013 5.853c0 0.688-0.557 1.245-1.245 1.245s-1.245-0.557-1.245-1.245c0-0.688 0.557-1.245 1.245-1.245s1.245 0.557 1.245 1.245z"></path>
<path d="M11.717 6.938c0 0.262-0.212 0.474-0.474 0.474s-0.474-0.212-0.474-0.474c0-0.262 0.212-0.474 0.474-0.474s0.474 0.212 0.474 0.474z"></path>
<path d="M16.15 6.906c0 0.617-0.5 1.117-1.117 1.117s-1.117-0.5-1.117-1.117c0-0.617 0.5-1.117 1.117-1.117s1.117 0.5 1.117 1.117z"></path>
<path d="M17.46 2.455c0 0.556-0.451 1.006-1.006 1.006s-1.006-0.45-1.006-1.006c0-0.556 0.45-1.006 1.006-1.006s1.006 0.451 1.006 1.006z"></path>
<path d="M13.153 0.811c0 0.253-0.205 0.458-0.458 0.458s-0.458-0.205-0.458-0.458c0-0.253 0.205-0.458 0.458-0.458s0.458 0.205 0.458 0.458z"></path>
<path d="M25.624 9.663c0 0.843-0.683 1.526-1.526 1.526s-1.526-0.683-1.526-1.526c0-0.843 0.683-1.526 1.526-1.526s1.526 0.683 1.526 1.526z"></path>
<path d="M27.419 5.152c0 0.518-0.42 0.937-0.937 0.937s-0.937-0.42-0.937-0.937c0-0.518 0.42-0.937 0.937-0.937s0.937 0.42 0.937 0.937z"></path>
<path d="M24.59 4.251c0 0.744-0.585 1.346-1.307 1.346s-1.307-0.603-1.307-1.346c0-0.744 0.585-1.346 1.307-1.346s1.307 0.603 1.307 1.346z"></path>
<path d="M22.377 7.522c0 1.062-0.854 1.922-1.908 1.922s-1.908-0.861-1.908-1.922c0-1.062 0.854-1.922 1.908-1.922s1.908 0.861 1.908 1.922z"></path>
<path d="M25.216 7.36c0 0.232-0.188 0.42-0.42 0.42s-0.42-0.188-0.42-0.42c0-0.232 0.188-0.42 0.42-0.42s0.42 0.188 0.42 0.42z"></path>
<path d="M30.176 9.442c0 0.891-0.631 1.613-1.409 1.613s-1.409-0.722-1.409-1.613c0-0.891 0.631-1.613 1.409-1.613s1.409 0.722 1.409 1.613z"></path>
</svg>
<svg id="b-splunk" width="33" height="32" viewBox="0 0 33 32" x="96" y="0">
<path d="M23.221 1.654h-14.042c-3.875 0-7.021 3.146-7.021 7.021v14.042c0 3.875 3.146 7.021 7.021 7.021h14.042c3.875 0 7.021-3.146 7.021-7.021v-14.042c0-3.875-3.146-7.021-7.021-7.021zM9.766 23.391v-4.052l10.051-3.952-10.051-3.909v-4.023l14.403 6.228v3.436l-14.403 6.271z"></path>
</svg>
<svg id="b-redhat" width="32" height="32" viewBox="0 0 32 32" x="144" y="0">
<path d="M15.869 0.988c8.096 0 14.668 6.573 14.668 14.668s-6.573 14.668-14.668 14.668c-8.096 0-14.668-6.573-14.668-14.668s6.573-14.668 14.668-14.668zM27.342 24.112c-0.631-0.176-1.228-0.060-1.842-0.141-0.713-0.095-1.376-0.047-1.903-0.108-0.249-0.038-0.341 0.042-0.368 0.248l0.101 0.31c0.036 0.193-0.045 0.313-0.231 0.368l-1.381 0.63-1.26 1.225c-0.305 0.22-0.641 0.37-1.028 0.405 0.149-0.683 1.313-2.17 2.419-3.612 0.051-0.655 0.158-1.191 0.325-1.602 0.146-0.653 0.247-1.208 0.114-1.249-0.261-0.004-0.577 0.127-0.892 0.254-0.399 0.019-0.71-0.004-0.93-0.069l-0.777-0.147c-0.372 0.007-0.714 0.097-1.035 0.233-0.262-0.060-0.493-0.098-0.703-0.246-0.801-0.034-1.668 0.041-2.571 0.162-0.948 0.037-1.657-0.148-2.052-0.628-0.421-0.401-0.792-0.87-1.168-1.333-0.285-0.235-0.571-0.474-0.791-0.355l-0.221 0.212c-0.155 0.042-0.303 0.041-0.455-0.086-0.358-0.393-0.674-0.871-0.99-1.349-1.361-0.845-2.224-0.144-2.227 1.034 0.266 0.739 0.686 1.283 1.13 1.796l0.352 0.295c0.411 0.316 0.413 0.564 0.087 0.758-0.705 0.043-1.262-0.252-1.661-0.91-0.308-0.481-0.798-0.681-1.477-0.728-0.94 0.067-1.863 0.094-2.759 0.018-0.214-0.007-0.297 0.046-0.273 0.185l0.116 0.399c0.051 0.276 0.008 0.444-0.167 0.432l-0.25 0.059c2.197 5.043 5.927 7.904 9.896 8.784 5.175 1.148 10.713-0.295 14.872-5.244zM17.057 22.628l0.798 0.309c0.118 0.019 0.23 0.020 0.327-0.020 0.193-0.055 0.339-0.142 0.42-0.274 0.066-0.032 0.118-0.026 0.156 0.015 0.142 0.152 0.147 0.32 0.028 0.504-0.065 0.162-0.236 0.267-0.465 0.338-0.204 0.059-0.416 0.061-0.638-0.007l-0.969-0.301c-0.179-0.005-0.238-0.097-0.183-0.271 0.048-0.116 0.095-0.208 0.137-0.24 0.103-0.094 0.242-0.084 0.388-0.051zM11.412 4.465c-0.289 0.169-0.504 0.402-0.668 0.678l-0.411 0.885c-0.176 0.452-0.31 0.927-0.417 1.415-0.117 0.53-0.157 1.039-0.17 1.541-0.016 0.364 0.058 0.653 0.194 0.887 0.344 0.43 0.816 0.749 1.362 1.005l3.592 1.087c0.42 0.085 0.791 0.248 1.122 0.476 0.244 0.284 0.392 0.598 0.369 0.967 0.036 0.323 0.143 0.553 0.328 0.678l0.274 0.329c0.12 0.124 0.145 0.209 0.013 0.231-0.152 0.024-0.302 0.016-0.475-0.022-0.692-0.052-1.289-0.248-1.888-0.461l-1.72-0.708-1.739-0.809c-0.642-0.193-1.173-0.523-1.59-0.993-0.325-0.288-0.403-0.711-0.308-1.226 0.041-0.266 0.135-0.494 0.255-0.704l-2.401-0.054c-0.635 0.035-1.201 0.194-1.713 0.451-0.482 0.291-0.823 0.67-1.008 1.147-0.187 0.568-0.033 1.064 0.338 1.513 0.090 0.201 0.632 0.836 1.58 1.7 0.36 0.328 0.786 0.657 1.243 1.055 3.772 2.433 7.601 4.128 11.454 4.383 2.231 0.020 4.231-0.096 5.589-0.758 1.531-0.716 2.57-1.831 3.062-3.306 0.24-1.033-0.1-1.942-1.059-2.718-0.74-0.47-1.621-0.881-2.584-1.259-0.204 0.708-0.467 1.25-0.865 1.406-0.086-0.308 0.157-1.179 0.322-1.932-0.087-0.79-0.289-1.58-0.573-2.38l-0.538-1.271-0.552-1.427c-0.19-0.395-0.426-0.753-0.711-1.073-0.615-0.72-1.503-1.038-2.558-1.111-0.664-0.016-1.306 0.047-1.929 0.176-0.833 0.196-1.496 0.22-2.043 0.076l-1.46-0.212c-0.713-0.043-1.261 0.097-1.721 0.335z"></path>
</svg>
<svg id="b-googlecloud" width="37" height="32" viewBox="0 0 37 32" x="192" y="0">
<path d="M8.553 16.866c0.977 1.674 3.021 5.177 4.004 6.861 0.341 0.584 0.969 0.942 1.646 0.938 1.925-0.012 5.894-0.038 7.803-0.050 0.665-0.004 1.278-0.357 1.616-0.929 0.994-1.682 3.092-5.235 4.11-6.957 0.355-0.601 0.35-1.35-0.013-1.946-1.039-1.705-3.18-5.218-4.194-6.883-0.346-0.567-0.962-0.913-1.627-0.912-1.908 0.002-5.88 0.007-7.813 0.009-0.683 0.001-1.311 0.371-1.643 0.968-0.96 1.727-2.958 5.321-3.908 7.029-0.324 0.584-0.317 1.295 0.020 1.872zM18.105 11.442c2.596 0 4.704 2.108 4.704 4.704s-2.108 4.704-4.704 4.704-4.704-2.108-4.704-4.704c0-2.596 2.108-4.704 4.704-4.704z"></path>
<path d="M21.93 6.92c0.654 0.015 1.281 0.366 1.635 0.917 1.428 2.302 2.839 4.614 4.229 6.939 0.342 0.595 0.348 1.356 0.013 1.957-1.361 2.35-2.743 4.687-4.144 7.014-0.347 0.557-0.97 0.914-1.625 0.934-2.622 0.038-5.245 0.056-7.868 0.051-0.666-0.012-1.303-0.373-1.655-0.943-1.365-2.295-2.711-4.601-4.037-6.918-0.318-0.577-0.325-1.3-0.020-1.882 1.294-2.373 2.606-4.736 3.94-7.087 0.341-0.579 0.977-0.955 1.652-0.973 2.626-0.025 5.253-0.028 7.879-0.009zM14.085 7.064c-0.637 0.006-1.245 0.357-1.569 0.906-1.332 2.35-2.644 4.711-3.938 7.083-0.285 0.544-0.277 1.216 0.018 1.753 1.326 2.316 2.671 4.621 4.035 6.914 0.327 0.53 0.92 0.867 1.541 0.878 2.621 0.005 5.242-0.012 7.863-0.051 0.609-0.019 1.19-0.352 1.513-0.87 1.4-2.325 2.781-4.661 4.141-7.010 0.311-0.559 0.308-1.265-0.013-1.822-1.389-2.324-2.799-4.635-4.226-6.935-0.331-0.514-0.913-0.84-1.523-0.854-2.614-0.018-5.229 0.006-7.843 0.009zM18.167 11.375c2.177 0.041 4.21 1.71 4.624 3.868 0.411 2.142-0.858 4.493-2.883 5.321-2.217 0.907-5.050-0.166-6.103-2.35-1.088-2.256-0.036-5.309 2.285-6.393 0.61-0.285 1.279-0.433 1.954-0.446 0.062-0 0.062-0 0.123 0zM18.045 11.51c-2.122 0.040-4.092 1.669-4.493 3.758-0.399 2.082 0.834 4.366 2.801 5.17 2.154 0.881 4.907-0.162 5.93-2.284 1.058-2.194 0.035-5.158-2.22-6.212-0.592-0.277-1.243-0.42-1.898-0.433-0.060-0-0.060-0-0.12 0z"></path>
<path d="M20.103 31.165l3.203-6.22c0.232-0.061 0.434-0.213 0.555-0.428 1.059-1.872 5.001-8.841 5.001-8.841l-5.129-8.671c3.63-0.126 6.376-0.241 6.887-0.263l4.481 7.575c0.492 0.832 0.502 1.864 0.026 2.706-1.66 2.935-5.562 9.833-7.23 12.781-0.48 0.849-1.382 1.374-2.357 1.372l-5.438-0.011z"></path>
<path d="M30.641 6.678c0.021 0.012 0.021 0.012 0.037 0.030 1.502 2.538 3.024 5.064 4.505 7.615 0.461 0.825 0.47 1.86 0.026 2.693-2.389 4.307-4.814 8.595-7.275 12.862-0.497 0.829-1.423 1.359-2.393 1.365l-5.438-0.011c-0.063-0.011-0.075-0.051-0.060-0.098l3.203-6.22c0.042-0.060 0.065-0.040 0.102-0.052 0.19-0.068 0.352-0.203 0.454-0.378l4.981-8.806-5.118-8.659c-0.001-0.041 0.009-0.069 0.064-0.080 2.195-0.077 4.394-0.16 6.593-0.251l0.294-0.012c0.008 0.001 0.016 0.002 0.024 0.003zM30.329 6.822c-2.16 0.089-4.32 0.171-6.48 0.247l5.072 8.573c0.014 0.038 0.006 0.053 0.001 0.068-1.671 2.954-3.304 5.93-5.013 8.862-0.127 0.205-0.325 0.36-0.555 0.43l-3.139 6.096c1.791 0.004 3.581 0.022 5.371 0.011 0.322-0.008 0.437-0.034 0.65-0.091 0.656-0.178 1.229-0.619 1.582-1.207 2.46-4.266 4.885-8.552 7.273-12.858 0.43-0.806 0.411-1.81-0.047-2.6l-4.46-7.54c-0.085 0.004-0.169 0.007-0.254 0.011z"></path>
<path d="M30.515 6.442l-6.99 0.291c-0.168-0.172-0.4-0.272-0.646-0.271-2.151 0.005-10.157 0.025-10.157 0.025l-5.001 8.746c-1.904-3.092-3.362-5.423-3.634-5.857l4.369-7.641c0.48-0.839 1.372-1.358 2.339-1.361 3.372-0.008 11.297-0.027 14.684-0.035 0.976-0.002 1.877 0.522 2.358 1.371l2.679 4.732z"></path>
<path d="M25.525 0.272c0.968 0.022 1.885 0.566 2.37 1.405l2.679 4.732c0.022 0.060-0.007 0.090-0.056 0.101l-6.991 0.291c-0.080-0.008-0.326-0.268-0.649-0.271l-10.117 0.024-4.996 8.73c-0.035 0.021-0.064 0.026-0.101-0.016-1.152-1.87-2.311-3.74-3.478-5.607l-0.156-0.249c-0.016-0.039-0.007-0.054-0.001-0.069 1.464-2.56 2.907-5.133 4.392-7.681 0.489-0.808 1.385-1.328 2.328-1.354 4.926-0.053 9.852-0.065 14.777-0.036zM10.795 0.442c-0.927 0.010-1.814 0.526-2.281 1.327l-4.349 7.605c1.093 1.746 2.18 3.499 3.262 5.252l0.292 0.474c0 0 4.959-8.665 4.959-8.665 0.020-0.012 0.020-0.012 0.043-0.016 3.394-0.008 6.788-0.059 10.182-0.024 0.241 0.009 0.474 0.104 0.648 0.269l6.851-0.286c-0.882-1.558-1.751-3.124-2.647-4.674-0.166-0.276-0.245-0.363-0.401-0.52-0.479-0.482-1.146-0.762-1.831-0.778-4.909-0.030-9.819 0.023-14.728 0.035z"></path>
<path d="M3.86 9.747l3.761 5.9c-0.064 0.231-0.034 0.482 0.090 0.695 1.084 1.858 5.12 8.772 5.12 8.772l10.074-0.065c-1.719 3.199-3.002 5.63-3.241 6.083l-8.801 0.057c-0.967 0.006-1.864-0.505-2.351-1.34-1.7-2.912-5.694-9.757-7.401-12.682-0.492-0.843-0.491-1.885 0.002-2.727l2.748-4.692z"></path>
<path d="M3.881 9.683c0.020 0.011 0.020 0.011 0.036 0.028l3.761 5.9c0.034 0.073-0.068 0.416 0.091 0.697l5.1 8.738c0 0 10.058-0.061 10.058-0.061 0.036 0.020 0.055 0.042 0.037 0.096-1.039 1.935-2.075 3.877-3.103 5.822 0 0-0.072 0.273-0.197 0.296-2.949 0.019-5.898 0.062-8.848 0.057-0.942-0.017-1.842-0.528-2.34-1.333-2.518-4.233-5.002-8.488-7.448-12.763-0.467-0.849-0.457-1.915 0.025-2.755l2.748-4.692c0.036-0.043 0.053-0.034 0.080-0.030zM1.171 14.473c-0.459 0.798-0.468 1.814-0.024 2.621 2.446 4.274 4.929 8.527 7.446 12.759 0.48 0.777 1.356 1.267 2.27 1.269l8.761-0.057c0.961-1.822 1.932-3.642 2.905-5.457l0.263-0.49c0 0-9.984 0.060-9.984 0.060-0.020-0.012-0.020-0.012-0.036-0.030-1.711-2.931-3.459-5.841-5.132-8.794-0.114-0.213-0.148-0.462-0.092-0.696l-3.686-5.782c-0.897 1.532-1.794 3.064-2.692 4.597z"></path>
</svg>
<svg id="b-mailchimp" width="30" height="32" viewBox="0 0 30 32" x="240" y="0">
<path d="M30.011 20.745c-0.216-0.462-0.628-0.78-1.145-0.902-0.173-0.79-0.412-1.177-0.434-1.235 0.091-0.104 0.179-0.208 0.199-0.233 0.73-0.906 0.254-2.232-0.994-2.545-0.702-0.675-1.337-0.993-1.859-1.254-0.5-0.25-0.301-0.152-0.77-0.364-0.125-0.61-0.166-2.030-0.364-3.026-0.178-0.896-0.537-1.546-1.090-1.972-0.221-0.479-0.532-0.963-0.906-1.318 1.74-2.668 2.199-5.303 0.924-6.683-0.567-0.614-1.41-0.906-2.419-0.906-1.419 0-3.165 0.579-4.928 1.649 0 0-1.148-0.923-1.172-0.943-4.91-3.867-18.796 13.221-13.895 16.955l1.265 0.967c-0.794 2.21 0.31 4.844 2.613 5.69 0.509 0.187 1.061 0.278 1.633 0.246 0 0 3.72 6.821 11.567 6.823 9.079 0.003 11.389-8.878 11.413-8.958 0 0.001 0.736-1.087 0.362-1.99zM1.535 16.837c-0.995-1.679 0.736-5.128 1.968-7.088 3.044-4.845 8.111-8.668 10.412-8.122l0.633-0.242c0.002 0.002 1.728 1.461 1.731 1.462 1.189-0.714 2.703-1.441 4.12-1.586-0.862 0.194-1.912 0.641-3.156 1.402-0.030 0.018-2.944 1.984-4.724 3.75-0.97 0.962-4.866 5.634-4.862 5.629 0.712-1.347 1.181-2.009 2.308-3.426 0.638-0.801 1.318-1.581 2.014-2.301 0.323-0.334 0.65-0.656 0.977-0.961 0.225-0.209 0.451-0.411 0.676-0.604 0.104-0.089 0.207-0.175 0.31-0.26l0.001-0.001-2.283-1.885 0.121 0.845 1.66 1.462s-1.468 0.989-2.199 1.612c-2.928 2.498-5.801 6.334-6.87 10.067l0.051-0.002c-0.532 0.294-1.061 0.764-1.522 1.405-0.011-0.003-1.194-0.871-1.362-1.156zM6.377 23.85c-1.754 0-3.176-1.497-3.176-3.343s1.422-3.343 3.176-3.343c0.455 0 0.887 0.101 1.278 0.282 0 0 0.675 0.34 0.865 1.948 0.198-0.502 0.297-0.915 0.297-0.915 0.226 0.692 0.342 1.419 0.296 2.155 0.188-0.249 0.389-0.72 0.389-0.72 0.35 2.055-1.149 3.936-3.125 3.936zM10.287 12.042s1.366-2.596 4.367-4.314c-0.223-0.036-0.77 0.034-0.866 0.045 0.545-0.469 1.558-0.782 2.258-0.924-0.205-0.13-0.693-0.163-0.935-0.17-0.071-0.002-0.071-0.001-0.156 0.002 0.659-0.368 1.879-0.584 2.988-0.389-0.139-0.185-0.455-0.32-0.677-0.386-0.020-0.006-0.107-0.027-0.107-0.027l0.083-0.020c0.668-0.129 1.45 0.011 2.067 0.259-0.070-0.163-0.242-0.352-0.371-0.472-0.013-0.013-0.090-0.068-0.090-0.068 0.646 0.134 1.265 0.416 1.731 0.736-0.063-0.123-0.22-0.329-0.329-0.441 0.617 0.177 1.311 0.617 1.608 1.248 0.007 0.014 0.026 0.066 0.028 0.072-1.17-0.9-4.585-0.645-8.004 1.571-1.564 1.014-2.712 2.124-3.597 3.277zM28.735 22.295c-0.041 0.081-0.472 2.41-2.933 4.345-3.109 2.442-7.192 2.195-8.735 0.827-0.824-0.771-1.181-1.873-1.181-1.873s-0.093 0.621-0.109 0.865c-0.621-1.057-0.569-2.348-0.569-2.348s-0.331 0.619-0.483 0.965c-0.457-1.164-0.221-2.367-0.221-2.367l-0.362 0.539s-0.17-1.318 0.247-2.415c0.446-1.173 1.309-2.025 1.479-2.131-0.655-0.208-1.41-0.805-1.411-0.806 0 0 0.3 0.020 0.509-0.028 0 0-1.324-0.949-1.557-2.4 0.192 0.237 0.595 0.505 0.595 0.505-0.13-0.38-0.209-1.225-0.088-2.057l0.001-0.001c0.251-1.589 1.56-2.624 3.043-2.611 1.579 0.014 2.638 0.345 3.962-0.876 0.28-0.259 0.504-0.481 0.897-0.568 0.041-0.009 0.144-0.053 0.355-0.053 0.214 0 0.419 0.048 0.607 0.16 0.718 0.427 0.873 1.542 0.95 2.36 0.285 3.032 0.17 2.492 1.397 3.117 0.586 0.298 1.243 0.581 1.992 1.382 0.002 0.002 0.006 0.006 0.006 0.006h0.009c0.631 0.015 0.956 0.512 0.666 0.874-2.118 2.529-5.077 3.741-8.373 3.842-0.136 0.003-0.443 0.011-0.444 0.011-1.332 0.041-1.765 1.763-0.93 2.799 0.528 0.655 1.543 0.87 2.38 0.873l0.012-0.004c3.605 0.073 7.226-2.478 7.852-3.884 0.004-0.011 0.043-0.099 0.043-0.099-0.145 0.17-3.656 3.476-7.923 3.356 0 0-0.467-0.010-0.906-0.112-0.579-0.134-1.019-0.39-1.188-0.967 0.354 0.071 0.802 0.116 1.322 0.116 3.080 0 5.299-1.4 5.068-1.419-0.009 0-0.018 0.002-0.034 0.006-0.359 0.083-4.061 1.518-6.402 0.782 0.006-0.071 0.017-0.141 0.034-0.203 0.208-0.697 0.578-0.6 1.176-0.626 2.135-0.071 3.858-0.608 5.15-1.221 1.377-0.654 2.426-1.496 2.805-1.921 0.49 0.826 0.488 1.886 0.488 1.886s0.192-0.067 0.447-0.067c0.797 0.001 0.962 0.717 0.357 1.443zM18.276 23.255c0-0.003-0.001-0.007-0.001-0.011 0.001 0.003 0.001 0.007 0.001 0.011zM18.275 23.24c-0.001-0.009-0.001-0.018-0.001-0.027-0.001-0.046-0.002-0.093 0-0.142-0.001 0.052-0.001 0.099 0 0.142 0.001 0.009 0.001 0.019 0.001 0.027zM18.283 23.342c0 0.001 0 0.003 0.001 0.004 0-0.001 0-0.003-0.001-0.004zM18.285 23.351c0.014 0.111 0.036 0.162 0.039 0.168-0.016-0.034-0.029-0.094-0.039-0.168zM13.715 2.246l0.201-0.619 0.342 1.242-0.422-0.137-0.121-0.486zM15.283 3.487l-0.254-0.882 0.699 0.586c-0.157 0.101-0.305 0.2-0.445 0.296zM18.275 23.24c-0.001-0.009-0.001-0.018-0.001-0.027 0.001 0.009 0.001 0.019 0.001 0.027zM18.274 23.213c-0.001-0.046-0.002-0.093 0-0.142-0.002 0.053-0.002 0.099 0 0.142zM18.276 23.255c0-0.003-0.001-0.007-0.001-0.011zM18.284 23.347c0-0.001 0-0.003-0.001-0.004zM18.285 23.351c0.014 0.111 0.036 0.162 0.039 0.168-0.016-0.034-0.029-0.094-0.039-0.168zM21.935 13.64c-0.005-0.235 0.033-0.625 0.254-0.697h0.001c0.379-0.132 0.881 0.839 0.904 1.701-0.3-0.15-0.652-0.214-1.014-0.182-0.091-0.278-0.134-0.539-0.146-0.822zM14.515 4.038l-0.952-0.797 1.441 0.44c-0.186 0.132-0.35 0.252-0.489 0.357zM16.455 15.734c-0.239 0.091-0.408 0.162-0.49 0.15-0.132-0.020-0.004-0.263 0.286-0.498 0.584-0.465 1.384-0.61 2.069-0.355 0.3 0.11 0.636 0.331 0.813 0.588 0.067 0.097 0.085 0.171 0.057 0.202-0.054 0.063-0.246-0.022-0.529-0.132-0.725-0.27-1.26-0.312-2.206 0.046zM17.475 16.752c-0.162 0.066-0.267 0.116-0.31 0.082s-0.001-0.17 0.151-0.316c0.132-0.127 0.268-0.198 0.425-0.264 0.025-0.011 0.050-0.020 0.077-0.027 0.073-0.020 0.146-0.044 0.226-0.056 0.639-0.109 1.107 0.246 1.046 0.349-0.027 0.048-0.146 0.037-0.322 0.025-0.366-0.025-0.75-0.019-1.293 0.207zM6.092 18.896c-0.13 0.027-0.057 0.012-0.185 0.048-0.022 0.006-0.040 0.012-0.057 0.019l0.003-0.001c-0.041 0.019-0.078 0.032-0.114 0.051-0.030 0.017-0.285 0.13-0.493 0.384-0.28 0.347-0.381 0.801-0.364 1.238 0.017 0.425 0.142 0.659 0.165 0.717 0.097 0.207-0.13 0.25-0.336 0.027l-0.001-0.001c-0.165-0.174-0.27-0.441-0.322-0.677-0.209-0.977 0.227-1.96 1.234-2.352 0.056-0.022 0.122-0.036 0.175-0.051h-0.001c0.103-0.031 0.471-0.105 0.846-0.047 0.411 0.064 0.774 0.27 1.004 0.537l0.001 0.001c0.177 0.201 0.31 0.485 0.287 0.738v0.001c-0.009 0.105-0.055 0.256-0.15 0.295-0.035 0.015-0.071 0.007-0.095-0.017-0.069-0.067-0.015-0.205-0.182-0.441-0.222-0.313-0.722-0.614-1.415-0.467zM8.213 21.080c0.132 0.758-0.42 1.436-1.087 1.45-0.467 0.011-0.722-0.282-0.677-0.345 0.021-0.030 0.093-0.017 0.202-0.001 0.596 0.093 0.957-0.27 1.044-0.651 0.001-0.006 0.025-0.108 0.024-0.178 0.005-0.062-0.002-0.123-0.011-0.179-0.070-0.394-0.522-0.468-0.813-0.781-0.261-0.283-0.209-0.646-0.046-0.82 0.197-0.194 0.479-0.123 0.475-0.055 0 0.036-0.068 0.064-0.152 0.122-0.109 0.077-0.124 0.151-0.096 0.279 0.018 0.070 0.050 0.116 0.118 0.17 0.244 0.193 0.9 0.329 1.019 0.99zM23.127 15.372c0.181 0.028 0.296 0.252 0.257 0.5s-0.216 0.426-0.397 0.397c-0.181-0.028-0.296-0.252-0.257-0.5s0.216-0.425 0.397-0.397zM21.143 16.095c0.099-0.181 0.381-0.218 0.63-0.081s0.369 0.394 0.27 0.575c-0.099 0.181-0.381 0.218-0.63 0.081s-0.37-0.393-0.27-0.575z"></path>
</svg>
<svg id="b-jira" width="31" height="32" viewBox="0 0 31 32" x="288" y="0">
<path d="M15.39 20.125c2.454 3.114 2.386 6.169 0.153 9.171l-14.039-13.923 13.355-13.467 0.028 0.028c-2.277 3.24-2.321 6.418 0.192 9.504l-4.181 4.216 4.432 4.396 0.059 0.074zM28.902 15.833l-0.171 0.173 0.002-0.34 0.169 0.168z"></path>
<path d="M15.284 11.352c-2.455-3.114-2.388-6.168-0.156-9.171l14.043 13.918-13.351 13.471-0.028-0.028c2.276-3.241 2.319-6.419-0.195-9.504l4.18-4.218-4.434-4.394-0.059-0.074zM1.774 15.649l0.171-0.173-0.002 0.34-0.169-0.168z"></path>
</svg>
<svg id="b-pma" width="32" height="32" viewBox="0 0 32 32" x="336" y="0">
<path d="M2.013 24.037c6.311-17.549 6.478-17.614 6.478-17.614l-0.829 17.218-5.649 0.395"></path>
<path d="M8.175 23.071c4.577-7.241 7.452-14.246 9.387-21.123l-1.086 20.87-8.301 0.253"></path>
<path d="M18.963 22.494l5.59-0.747c-2.386-3.898-4.655-8.142-6.842-12.629 1.053 4.293 1.194 8.824 1.253 13.376"></path>
<path d="M18.043 2.146l11.923 19.317-7.442-4.072c-0.659-0.36-2.181-2.73-2.146-3.632-0.117-3.954-0.768-7.841-2.335-11.612"></path>
<path d="M1.974 25.186l29.354-3.593c-4.535 1.139-7.616 3.241-9.872 5.889-7.059-0.915-13.174-1.233-16.832 1.308-1.537-0.684-2.462-1.852-2.65-3.604"></path>
<path d="M23.227 27.751c0.337 0.003 0.309-0.009 0.383 0.145 0.072 0.152-0.047 0.351-0.23 0.357-1.009-0.015-2.052 0.102-2.88 0.667-0.030 0.020-0.395 0.346-0.845 0.57-0.869 0.433-1.878 0.495-2.855 0.386 0 0-0.215-0.067-0.222-0.238-0.014-0.329 0.574-0.206 1.101-0.212 0.87-0.009 1.755-0.247 2.43-0.839 0 0 0.369-0.263 0.728-0.421 0.744-0.328 1.576-0.415 2.39-0.413z"></path>
<path d="M10.324 28.698c0.133 0.002 0.265 0.006 0.398 0.016s0.277 0.041 0.326 0.168c0.068 0.175 0.027 0.364-0.309 0.335-1.098-0.084-2.197 0.178-3.146 0.736-0.253 0.145-0.298 0.163-0.445 0.229-0.923 0.418-1.964 0.535-2.989 0.45 0 0-0.181-0.041-0.22-0.182-0.103-0.366 0.661-0.265 1.241-0.301 1.704-0.105 3.010-1.389 4.92-1.45 0.075-0.002 0.149-0.003 0.224-0.002z"></path>
<path d="M7.207 28.566c0.141 0.029 0.152 0.073 0.181 0.125 0.214 0.384-0.848 0.596-1.427 0.788-1.647 0.534-3.474-0.45-5.123 0.424 0 0-0.156 0.059-0.264-0.018-0.137-0.099-0.128-0.329 0.029-0.424 0.235-0.125 0.259-0.129 0.378-0.177 1-0.404 2.133-0.293 3.166-0.125 0.292 0.043 0.335 0.041 0.492 0.043 0.853 0.012 1.649-0.417 2.468-0.631 0 0 0.032-0.012 0.101-0.006z"></path>
</svg>
<svg id="b-monyog" width="32" height="32" viewBox="0 0 32 32" x="384" y="0">
<path d="M13.449 21.949l2.767 3.213 2.734-3.223c1.248 0.78 2.721 1.23 4.299 1.23 4.486 0 8.128-3.642 8.128-8.128s-3.642-8.128-8.128-8.128c-3.007 0-5.636 1.637-7.041 4.068-1.406-2.431-4.034-4.068-7.041-4.068-4.486 0-8.128 3.642-8.128 8.128s3.642 8.128 8.128 8.128c1.571 0 3.038-0.447 4.282-1.22zM9.167 9.092c3.283 0 5.948 2.666 5.948 5.949s-2.665 5.949-5.948 5.949c-3.283 0-5.949-2.666-5.949-5.949s2.665-5.949 5.949-5.949zM23.249 9.092c3.283 0 5.949 2.666 5.949 5.949s-2.666 5.949-5.949 5.949c-3.283 0-5.949-2.666-5.949-5.949s2.666-5.949 5.949-5.949z"></path>
<path d="M13.476 15.121c0 2.365-1.917 4.283-4.283 4.283s-4.283-1.917-4.283-4.283c0-2.365 1.917-4.283 4.283-4.283s4.283 1.917 4.283 4.283z"></path>
<path d="M27.681 15.043c0 2.365-1.917 4.283-4.283 4.283s-4.283-1.917-4.283-4.283c0-2.365 1.917-4.283 4.283-4.283s4.283 1.917 4.283 4.283z"></path>
</svg>
<svg id="b-oracle" width="32" height="32" viewBox="0 0 32 32" x="432" y="0">
<path d="M10.447 6.19c-3.467-0.075-8.765 3.788-8.753 8.624 0.010 3.769 1.493 8.494 8.207 9.762 0 0 12.978-0.098 13.070-0.109 4.394-0.54 7.605-5.060 7.736-9.206 0.133-4.228-3.592-8.535-8.216-9.034l-12.043-0.036zM10.378 9.385h11.573c3.408 0.476 5.382 3.274 5.359 5.946-0.024 2.72-2.011 5.627-5.359 5.981-0.070 0.007-11.427 0-11.427 0-4.554-0.935-5.287-3.851-5.32-6.274-0.040-3 3.415-5.578 5.174-5.653z"></path>
</svg>
<svg id="b-solr" width="32" height="32" viewBox="0 0 32 32" x="480" y="0">
<path d="M17.353 30.702c-1.764-0.995-2.677-1.466-3.76-2.109 2.394 0.277 5.867 0.682 8.26 0.965-1.27 0.663-3.055 0.994-4.5 1.144zM24.209 28.222c-3.377-0.647-6.856-1.31-10.219-2.027 4.909-1.020 9.935-1.986 14.856-2.942-0.448 1.28-3.053 4.209-4.545 4.982l-0.092-0.013zM13.583 23.838c5.629-3.168 11.634-6.527 17.021-9.56 0.297 2.69-0.045 5.338-1.076 7.628-5.211 0.641-10.732 1.301-15.945 1.932zM12.556 21.604c4.709-5.144 9.456-10.254 14.185-15.379 1.884 1.945 3.131 4.458 3.685 7.1-5.92 2.82-11.911 5.529-17.87 8.279zM10.826 19.894c2.494-5.917 5.872-12.791 8.264-17.977 2.65 0.521 5.157 1.836 7.077 3.737-5.035 4.727-10.28 9.54-15.341 14.239zM3.81 18.763c-0.754-1.285-1.463-2.597-2.193-3.896 0.135-1.583 0.531-3.153 1.198-4.596 0.342 2.829 0.687 5.659 0.995 8.492zM8.632 18.788c0.625-5.364 1.246-10.733 1.913-16.093 1.977-0.798 4.361-1.326 7.637-0.962-1.62 2.894-7.815 13.972-9.55 17.055zM6.252 18.422c-0.539-2.572-1.792-8.852-2.127-10.541 1.331-1.86 3.051-3.45 5.075-4.53-0.872 4.64-2.038 10.437-2.948 15.070z"></path>
</svg>
<svg id="b-nutch" width="32" height="32" viewBox="0 0 32 32" x="528" y="0">
<path d="M17.687 27.735h-3.995l1.593-8.227 0.611 0.318 0.153-3.529 4.632-1.647-3.866-0.906c0 0 11.416 0.034 11.468 0.033 1.244-0.017 2.628 0.679 2.39 2.065l-2.33 11.844c0 0-4.471 0.012-4.471 0s2.164-9.027 2.164-9.027c0.33-0.999 0.208-1.228-0.634-1.24 0 0-5.857-0.093-5.857 0s-1.916 10.571-1.859 10.316z"></path>
<path d="M28.404 13.611c0.134 0.003 0.268 0.014 0.401 0.032 0.113 0.015 0.225 0.036 0.335 0.063 0.774 0.187 1.573 0.696 1.707 1.567 0.031 0.199 0.023 0.4-0.010 0.599l-2.331 11.846c-0.022 0.073-0.044 0.122-0.163 0.134-1.494 0.004-2.994 0.077-4.482 0-0.25-0.027-0.119-0.346-0.059-0.596 0.575-2.404 1.155-4.817 1.733-7.227l0.339-1.416c0.020-0.060 0.039-0.121 0.058-0.181 0.115-0.386 0.416-0.82-0.496-0.846-1.91-0.037-3.831-0.127-5.736-0.023 0 0-0.073 0.364-0.117 0.608-0.572 3.194-1.169 6.379-1.733 9.582-0.038 0.216-0.132 0.164-0.202 0.148h-3.958c-0.151-0.015-0.177-0.060-0.164-0.198l1.593-8.227c0.044-0.151 0.105-0.171 0.24-0.116l0.379 0.198 0.146-3.3c0.019-0.053 0.054-0.093 0.106-0.117l4.098-1.457-3.345-0.787c-0.142-0.082-0.11-0.301 0.069-0.318 3.821 0.011 7.629 0.026 11.467 0.033 0.040 0 0.081-0 0.121 0.001zM18.274 13.915l2.476 0.584c0.186 0.108 0.084 0.263-0.013 0.309l-4.527 1.609-0.153 3.45c-0.053 0.146-0.107 0.16-0.239 0.107l-0.413-0.215-1.512 7.81h3.652c0.597-3.395 1.281-6.81 1.839-10.19 0 0-0.137-0.132 0.407-0.153 1.896-0.076 3.797-0.025 5.694 0.029 0.3 0.011 0.64 0.045 0.801 0.301 0.206 0.327 0.041 0.737-0.061 1.063l-0.028 0.087c-0.69 2.876-1.381 5.752-2.069 8.629l-0.045 0.19c1.189 0.005 2.375 0 3.562-0.002l0.562-0.001 2.303-11.707c0.053-0.323 0.013-0.658-0.151-0.938-0.408-0.698-1.301-0.931-2.045-0.931-3.337 0.030-6.692-0.019-10.039-0.028zM19.71 17.448c0.003-0.013 0-0.003 0 0z"></path>
<path d="M21.951 27.675l1.88 0.008 2.289-9.55c0.051-0.409-0.11-0.65-0.543-0.671h-6.012l-0.135 0.681h4.187c0.253 0.005 0.365 0.123 0.327 0.359l-1.993 9.173z"></path>
<path d="M25.608 17.297c0.23 0.017 0.464 0.103 0.586 0.3 0.137 0.22 0.088 0.575 0.088 0.575l-2.289 9.549c-0.035 0.11-0.056 0.12-0.163 0.128l-1.881-0.008c-0.156-0.012-0.174-0.114-0.162-0.202l1.992-9.167c0.003-0.018 0.005-0.036 0.005-0.054 0-0.066-0.073-0.105-0.171-0.109h-4.184c-0.109-0.008-0.18-0.064-0.163-0.199l0.135-0.681c0.032-0.114 0.055-0.126 0.164-0.134 2.014 0 4.032-0.114 6.043 0.002zM19.702 17.629l-0.069 0.347h3.987c0.295 0.010 0.533 0.247 0.488 0.556l-1.951 8.977 1.543 0.007 2.256-9.412c0.002-0.019 0.004-0.037 0.005-0.056 0.012-0.195-0.125-0.4-0.375-0.418-1.958-0.112-3.923-0.001-5.884-0.001z"></path>
<path d="M11.249 27.735l2.446 0.002 1.475-7.85-3.459 4.035-0.462 3.813z"></path>
<path d="M15.201 19.724c0.137 0.035 0.142 0.12 0.133 0.194l-1.475 7.85c-0.032 0.127-0.102 0.132-0.164 0.136l-2.446-0.002c-0.101-0.007-0.171-0.085-0.165-0.187l0.462-3.813c0.005-0.027 0.001-0.039 0.039-0.088l3.459-4.035c0.037-0.038 0.060-0.067 0.157-0.055zM11.871 23.992l-0.434 3.576 2.12 0.002 1.335-7.102c-1.007 1.175-2.014 2.349-3.021 3.524z"></path>
<path d="M13.571 2.756c0.121 0.027 0.2 0.048 0.273 0.232l3.196 10.421 3.43 1.008c0.229 0.135 0.245 0.483-0.029 0.612l-4.090 1.522-0.181 3.295c-0.169 0.53-0.756 0.068-0.756 0.068l-7.010 8.122c-0.229 0.223-0.649 0.015-0.569-0.322l3.159-9.576-9.275-4.225c-0.227-0.183-0.14-0.576 0.181-0.609 3.444-0.062 6.912-0.243 10.368-0.052 0 0 0.106-0.728 0.149-1.207 0.264-2.998 0.52-5.992 0.777-8.987 0 0 0.038-0.32 0.377-0.301zM13.566 6.507c-0.206 2.386-0.363 4.775-0.628 7.16-0.099 0.703-0.425 0.296-0.485 0.27-1.036-0.138-2.141-0.058-3.232-0.054-1.88 0.007-3.758 0.032-5.638 0.060l-0.196 0.003 8.202 3.736c0.182 0.144 0.18 0.181 0.131 0.381l-2.729 8.273c0 0 6.043-7.042 6.043-7.042 0.242-0.271 0.087-0.256 0.506-0.062l0.157-2.934c0.029-0.21 0.1-0.24 0.217-0.294l3.354-1.248-2.638-0.776c-0.080-0.047-0.139-0.115-0.174-0.203l-2.745-8.95c-0.048 0.56-0.097 1.12-0.145 1.681zM12.343 13.847c0 0-0.002-0.003 0 0zM12.273 13.682c0 0-0.003-0.051 0 0z"></path>
</svg>
<svg id="b-java" width="32" height="32" viewBox="0 0 32 32" x="576" y="0">
<path d="M11.996 23.699c0 0-1.103 0.641 0.785 0.858 2.286 0.261 3.455 0.223 5.975-0.253 0 0 0.662 0.415 1.588 0.775-5.649 2.421-12.784-0.14-8.347-1.38z"></path>
<path d="M11.306 20.54c0 0-1.237 0.915 0.652 1.111 2.442 0.252 4.371 0.273 7.709-0.37 0 0 0.462 0.468 1.188 0.724-6.829 1.997-14.436 0.157-9.549-1.465z"></path>
<path d="M17.125 15.181c1.392 1.602-0.366 3.044-0.366 3.044s3.534-1.824 1.911-4.109c-1.516-2.13-2.678-3.189 3.615-6.839 0 0-9.878 2.467-5.16 7.903z"></path>
<path d="M24.596 26.036c0 0 0.816 0.672-0.899 1.192-3.26 0.988-13.57 1.286-16.434 0.039-1.030-0.448 0.901-1.069 1.508-1.2 0.633-0.137 0.995-0.112 0.995-0.112-1.145-0.807-7.401 1.584-3.178 2.268 11.517 1.868 20.994-0.841 18.007-2.189z"></path>
<path d="M12.527 17.267c0 0-5.244 1.246-1.857 1.698 1.43 0.191 4.281 0.148 6.937-0.074 2.17-0.183 4.349-0.572 4.349-0.572s-0.765 0.328-1.319 0.706c-5.325 1.401-15.613 0.749-12.651-0.684 2.505-1.211 4.541-1.073 4.541-1.073z"></path>
<path d="M21.934 22.526c5.413-2.813 2.91-5.516 1.163-5.152-0.428 0.089-0.619 0.166-0.619 0.166s0.159-0.249 0.463-0.357c3.456-1.215 6.114 3.584-1.116 5.484 0 0 0.084-0.075 0.109-0.142z"></path>
<path d="M18.67 1.385c0 0 2.998 2.999-2.844 7.611-4.684 3.699-1.068 5.809-0.002 8.219-2.734-2.467-4.741-4.639-3.395-6.66 1.976-2.967 7.45-4.406 6.24-9.169z"></path>
<path d="M13.059 30.148c5.196 0.333 13.176-0.184 13.365-2.643 0 0-0.363 0.932-4.294 1.672-4.435 0.835-9.905 0.737-13.15 0.202 0 0 0.664 0.55 4.079 0.769z"></path>
</svg>
<svg id="b-apache" width="32" height="32" viewBox="0 0 32 32" x="624" y="0">
<path d="M9.375 17.391c-0.389 0.748-0.732 1.506-1.018 2.275-0.010 0.027-0.021 0.053-0.031 0.081-0.209-0.743-1.080-1.662-1.079-1.656 0.434 1.309 0.688 2.557 0.464 3.644-0.427-0.035-0.943-0.315-1.512-0.735 0.486 0.804 0.936 1.118 1.116 1.22-0.621-0.14-1.379 0.094-2.16 0.39 1.048-0.109 1.848-0.039 2.354 0.242-1.569 2.182-3.214 4.615-4.907 7.215 0.287-0.001 0.496-0.132 0.655-0.347 0.304-0.471 2.311-3.561 5.206-7.547 0.082-0.113 0.165-0.227 0.249-0.342 0.023-0.032 0.047-0.064 0.070-0.095 0.305-0.418 0.619-0.843 0.941-1.276 0.074-0.099 0.147-0.197 0.221-0.296 0.002-0.002 0.003-0.004 0.004-0.006l-0.532-2.849c-0.014 0.026-0.028 0.056-0.042 0.083l0-0z"></path>
<path d="M26.674 0.782c-0.735 0.218-1.393 0.628-2.045 1.019-0.381 0.236-0.755 0.482-1.124 0.735 0.144 0.698 0.288 1.396 0.432 2.094 0.924-0.741 1.886-1.439 2.908-2.038-0.997 0.61-1.903 1.356-2.793 2.111 1.276 0.291 2.573 0.475 3.872 0.63 0.436-0.889 0.742-1.901 0.569-2.897-0.142-0.579-0.418-1.171-0.923-1.517-0.262-0.174-0.593-0.218-0.895-0.136l-0 0z"></path>
<path d="M19.004 15.070c-0.129-0.013-0.262-0.029-0.398-0.044-0.001-0-0.002 0-0.003 0 0.068 0.009 0.135 0.019 0.202 0.026s0.132 0.014 0.198 0.018v0z"></path>
<path d="M19.004 15.070c-0.129-0.013-0.262-0.029-0.398-0.044-0.001-0-0.002 0-0.003 0 0.068 0.009 0.135 0.019 0.202 0.026s0.132 0.014 0.198 0.018v0z"></path>
<path d="M19.788 13.578c0 0-0.001-0-0.001 0.001-0.001-0-0.001 0.001-0.002 0 0.021 0.004 0.042 0.005 0.063 0.009 0.085 0.012 0.17 0.021 0.253 0.027-0.102-0.013-0.207-0.024-0.313-0.037v0z"></path>
<path d="M19.788 13.578c0 0-0.001-0-0.001 0.001-0.001-0-0.001 0.001-0.002 0 0.021 0.004 0.042 0.005 0.063 0.009 0.085 0.012 0.17 0.021 0.253 0.027-0.102-0.013-0.207-0.024-0.313-0.037v0z"></path>
<path d="M19.737 8.49c0.451-0.46 0.903-0.908 1.353-1.34 0.468-0.449 0.934-0.88 1.399-1.292 0.027-0.024 0.055-0.049 0.082-0.074 0.458-0.405 0.914-0.79 1.366-1.153l-0.432-2.094c-0.098 0.067-0.197 0.136-0.297 0.206-0.378 0.264-0.774 0.552-1.184 0.859-0.462 0.347-0.942 0.721-1.435 1.117-0.455 0.366-0.92 0.753-1.391 1.156-0.401 0.343-0.806 0.699-1.213 1.066-0.015 0.014-0.030 0.027-0.045 0.040 0.105 0.967 0.353 1.89 0.53 2.834 0.422-0.451 0.844-0.893 1.267-1.325l0 0z"></path>
<path d="M11.114 18.616c0.383-0.501 0.775-1.006 1.174-1.516 0.382-0.487 0.772-0.976 1.167-1.467s0.796-0.98 1.202-1.469c0.413-0.497 0.831-0.993 1.252-1.483 0.417-0.485 0.838-0.966 1.261-1.441 0.153-0.171 0.306-0.341 0.459-0.511 0.265-0.293 0.531-0.582 0.797-0.868 0.014-0.016 0.029-0.030 0.044-0.046l-0.53-2.834c-0.030 0.027-0.060 0.055-0.090 0.082-0.43 0.391-0.862 0.793-1.292 1.207-0.434 0.418-0.866 0.847-1.293 1.285-0.361 0.37-0.717 0.744-1.068 1.125-0.071 0.078-0.141 0.154-0.211 0.231-0.436 0.481-0.84 0.951-1.215 1.407-0.424 0.517-0.811 1.016-1.161 1.494-0.231 0.314-0.446 0.62-0.648 0.915-0.169 0.253-0.334 0.508-0.493 0.762-0.378 0.6-0.729 1.206-1.051 1.818 0.165 0.942 0.327 1.903 0.532 2.849 0.296-0.395 0.598-0.797 0.905-1.201 0.085-0.112 0.172-0.226 0.259-0.339l0-0z"></path>
<path d="M18.603 10.081c-0.057 0.063-0.114 0.126-0.173 0.19-0.173 0.192-0.35 0.387-0.529 0.588-0.194 0.217-0.39 0.44-0.589 0.668-0.101 0.115-0.201 0.23-0.304 0.348-0.306 0.352-0.617 0.717-0.936 1.094-0.392 0.464-0.794 0.947-1.206 1.451-0.393 0.48-0.795 0.978-1.205 1.495-0.39 0.49-0.788 0.998-1.194 1.523-0.362 0.468-0.729 0.95-1.104 1.446-0.018 0.024-0.036 0.048-0.054 0.072-0.372 0.493-0.749 1.001-1.133 1.522-0.009 0.012-0.018 0.024-0.026 0.036l1.043 0.184c-0.019-0.010-0.039-0.018-0.057-0.028 1.253 0.202 3.123-0.232 4.487-1.044 0.629-0.374 1.24-0.854 1.849-1.446 0.453-0.441 0.905-0.944 1.361-1.514 0.399-0.498 0.802-1.046 1.213-1.648-0.32 0.065-0.67 0.080-1.042 0.052-0.065-0.005-0.132-0.011-0.198-0.018s-0.134-0.016-0.202-0.026c0.001 0 0.002-0 0.003-0 1.254-0.105 2.209-0.735 3.025-1.609-0.356 0.115-0.915 0.24-1.53 0.198-0.084-0.005-0.168-0.015-0.253-0.027-0.022-0.003-0.042-0.005-0.063-0.009 0.001 0 0.001-0.001 0.002-0s0.001 0 0.001-0.001c0.439-0.050 0.823-0.136 1.172-0.269 0.075-0.028 0.148-0.059 0.22-0.092 0.11-0.050 0.216-0.105 0.319-0.166 0.066-0.038 0.132-0.079 0.196-0.122 0.151-0.101 0.298-0.214 0.442-0.342 0.044-0.039 0.088-0.079 0.132-0.12 0.059-0.062 0.115-0.122 0.17-0.182 0.25-0.271 0.458-0.516 0.631-0.735 0.086-0.11 0.163-0.211 0.232-0.307 0.027-0.038 0.054-0.075 0.079-0.111 0.075-0.108 0.138-0.204 0.191-0.29 0.079-0.128 0.134-0.232 0.17-0.308-0.047 0.019-0.099 0.037-0.157 0.052-0.4 0.104-1.037 0.118-1.534 0.068v0c-0.008-0-0.015-0.002-0.023-0.002-0.049-0.006-0.099-0.013-0.149-0.018 0.010-0.001 0.017-0.005 0.027-0.005l-3.276-0.577c-0.009 0.009-0.018 0.019-0.027 0.029l0-0z"></path>
<path d="M24.052 4.704c-0.409 0.351-0.861 0.753-1.356 1.214-0.026 0.024-0.052 0.049-0.078 0.073-0.427 0.399-0.886 0.84-1.376 1.327-0.423 0.42-0.868 0.874-1.336 1.365-0.408 0.427-0.834 0.884-1.276 1.368l3.249 0.583c1.049-0.156 1.604-0.424 2.168-0.864 0.151-0.122 0.306-0.252 0.461-0.387 0.475-0.414 0.958-0.881 1.407-1.355 0.433-0.458 0.832-0.921 1.16-1.347 0.208-0.272 0.386-0.528 0.525-0.759 0.122-0.203 0.229-0.399 0.322-0.589-1.298-0.15-2.872-0.39-3.871-0.629l0-0z"></path>
<path d="M18.805 15.052c-0.067-0.007-0.134-0.016-0.202-0.026 0.068 0.010 0.135 0.019 0.202 0.026z"></path>
<path d="M18.805 15.052c-0.067-0.007-0.134-0.016-0.202-0.026 0.068 0.010 0.135 0.019 0.202 0.026z"></path>
<path d="M18.805 15.052c-0.067-0.007-0.134-0.016-0.202-0.026 0.068 0.010 0.135 0.019 0.202 0.026z"></path>
<path d="M19.784 13.579c0.021 0.004 0.042 0.005 0.063 0.009-0.021-0.003-0.041-0.006-0.063-0.009z"></path>
<path d="M19.784 13.579c0.021 0.004 0.042 0.005 0.063 0.009-0.021-0.003-0.041-0.006-0.063-0.009z"></path>
<path d="M19.784 13.579c0.021 0.004 0.042 0.005 0.063 0.009-0.021-0.003-0.041-0.006-0.063-0.009z"></path>
<path d="M19.786 13.579c0 0 0.001 0 0.001-0.001s-0.001-0-0.001 0.001z"></path>
<path d="M19.786 13.579c0 0 0.001 0 0.001-0.001s-0.001-0-0.001 0.001z"></path>
<path d="M19.786 13.579c0 0 0.001 0 0.001-0.001s-0.001-0-0.001 0.001z"></path>
<path d="M9.982 20.743c-0.298 0.407-0.6 0.821-0.905 1.246-0.004 0.007-0.009 0.012-0.013 0.019-0.043 0.060-0.086 0.12-0.129 0.18-0.205 0.286-0.387 0.545-0.801 1.133 0.319 0.275 0.486 0.804 0.62 1.387 0.122-0.528 0.049-1.079-0.249-1.576 1.792 0.612 3.49 0.609 4.687-0.482 0.107-0.097 0.209-0.202 0.308-0.318-0.504 0.359-1.017 0.424-1.861 0.125-0.002 0-0.004 0-0.006 0.001 0.002-0 0.004-0 0.006-0.001 1.428-0.197 2.22-0.554 3.043-1.291 0.195-0.174 0.392-0.37 0.599-0.59-1.436 0.812-2.81 0.761-4.087 0.123l-0.057-0.027-0.986-0.157c-0.057 0.076-0.112 0.152-0.169 0.229l0 0z"></path>
</svg>
<svg id="b-tomcat" width="32" height="32" viewBox="0 0 32 32" x="672" y="0">
<path d="M6.293 19.216c0.341 0.416 0.721 0.838 1.139 1.262-1.216 0.361-2.013 1.033-2.51 1.625-0.787 0.938-1.203 2.177-1.107 3.24h-2.094c0.42-0.9 2.096-3.501 4.573-6.127z"></path>
<path d="M30.549 25.908h-2.546c-5.841-3.011-10.968-5.134-16.416-5.598 0.012-0.749 0.147-1.596 0.406-2.541l-0.502-0.133c-0.267 0.971-0.406 1.85-0.422 2.636-0.568-0.037-1.139-0.056-1.716-0.056-0.488 0-0.933 0.044-1.339 0.122-0.53-0.522-0.98-1.021-1.364-1.494 0.683-0.703 1.487-1.388 2.367-2.030l1.21 0.825-0.395-1.393c0.372-0.247 0.753-0.487 1.142-0.716l1.793 0.9-0.842-1.434c0.248-0.132 0.498-0.26 0.749-0.383l2.509 1.663-0.824-2.412c0.858-0.341 1.715-0.621 2.542-0.823 1.014 3.331 3.191 5.612 5.833 7.148 0.194-0.109 0.384-0.223 0.571-0.344l0.452 0.48-0.762 1.159 1.3-0.587 0.757 0.806-1.273 0.959 1.753-0.448 2.382 2.533 0.202-0.017c1.259-0.107 1.974 0.568 2.163 0.778 0.14 0.153 0.223 0.293 0.269 0.403z"></path>
<path d="M27.557 13.921c-0.929 2.438-2.653 4.367-4.77 5.562-2.661-1.309-4.286-3.582-5.154-6.002l0.656-0.181-0.826-0.327c-0.083-0.265-0.157-0.531-0.223-0.797l1.269-0.085-1.451-0.761c-0.353-1.931-0.281-3.804 0.078-5.215 0.263 1.42 0.742 2.31 1.775 2.747 0.917-0.26 1.975-0.421 3.061-0.481l0.896 1.943 0.575-1.959c1.097 0.035 2.172 0.177 3.109 0.432 0.952-0.684 1.321-1.729 1.523-2.642 0.252 1.062 0.223 3.357 0.224 3.357 0.018 0.853-0.051 1.674-0.196 2.456l-1.030 0.433 0.91 0.136c-0.072 0.3-0.155 0.595-0.249 0.882l-0.88 0.252 0.703 0.25z"></path>
<path d="M16.467 15.718h3.028v0.369h-3.028v-0.369z"></path>
<path d="M16.467 14.831h3.028v0.369h-3.028v-0.369z"></path>
<path d="M25.712 15.718h3.027v0.369h-3.027v-0.369z"></path>
<path d="M25.712 14.831h3.027v0.369h-3.027v-0.369z"></path>
<path d="M24.645 12.642h-4.934v-0.332h1.535c0.189-0.8 0.226-1.564-0.002-1.952-0.097-0.165-0.232-0.242-0.424-0.242-0.878 0-1.24 0.917-1.256 0.956l0-0-0.315-0.117c0.018-0.048 0.457-1.172 1.57-1.172 0.311 0 0.558 0.141 0.714 0.407 0.278 0.472 0.245 1.288 0.057 2.119h2.694c0.358-1.039 1.105-1.529 2.354-1.529v0.332c-1.353 0-1.732 0.567-2.003 1.197h1.47l-0.003 0.331-1.459 0.002z"></path>
<path d="M24.866 14.284l0.002-0c-0.399-0.581-0.525-1.078-0.359-1.643l-0.343 0.002c-0.119 0.376-0.072 0.943 0.223 1.429h-3.423c0.208-0.412 0.401-0.915 0.542-1.429h-0.349c-0.155 0.546-0.374 1.086-0.62 1.513l-0.079 0.138 1.921 1.195-1.081 0.704 0.185 0.278 1.209-0.787 1.305 0.841 0.179-0.281-1.21-0.739c0 0 1.809-1.161 1.899-1.218-0.001-0.001-0.001-0.001-0.002-0.002zM22.691 15.287l-1.421-0.884 2.777 0.001-1.356 0.883z"></path>
<path d="M28.865 9.111c-0.002-0.578-0.184-3.020-0.519-3.693-0.908 0.341-2.56 1.445-2.934 2.574-1.792-0.264-3.812-0.233-5.581 0.069-0.296-1.215-1.779-2.145-2.899-2.669-0.472 0.787-0.681 2.612-0.628 3.907-0.002 0.001-0.004 0.003-0.006 0.004 0.208 5.437 2.907 8.822 6.437 10.873 3.632-2.050 6.226-6.047 6.126-11.069 0.002 0.001 0.003 0.001 0.004 0.002zM25.843 8.063c0.013 0.002 0.026 0.005 0.040 0.007-0.013-0.002-0.026-0.005-0.040-0.007zM25.617 8.024c0.032 0.005 0.064 0.011 0.096 0.016-0.032-0.005-0.064-0.011-0.096-0.016zM28.3 9.503c0.093 4.524-2.243 8.124-5.513 9.971-5.551-2.733-6.597-9.655-5.65-13.368 0.263 1.42 0.741 2.31 1.776 2.747 2.253-0.637 5.355-0.688 7.64-0.065 0.952-0.684 1.322-1.729 1.523-2.642 0.252 1.062 0.223 3.357 0.224 3.358z"></path>
<path d="M30.667 25.153c-0.57-0.63-1.687-0.928-2.619-0.906-0.662-0.778-4.499-4.771-4.499-4.771l-0.266 0.331 4.633 4.928 0.201-0.017c1.259-0.107 1.974 0.568 2.164 0.777 0.139 0.154 0.223 0.293 0.268 0.403h-2.547c-5.84-3.011-10.968-5.134-16.415-5.597 0.012-0.749 0.147-1.597 0.406-2.541l-0.501-0.134c-0.266 0.971-0.406 1.85-0.422 2.637-0.568-0.037-1.139-0.056-1.715-0.056-0.489 0-0.934 0.045-1.34 0.123-0.529-0.523-0.981-1.021-1.364-1.494 2.53-2.604 6.708-4.958 10.328-5.823l-0.117-0.501c-3.898 0.929-8.165 3.457-10.543 5.899-1.103-1.471-1.541-2.679-1.671-3.594-0.164-1.156 0.115-2.216 0.807-3.066 1.084-1.331 2.624-1.424 4.208-1.161-0.031 0.247 0.002 0.483 0.102 0.629 0.419 0.611 2.67 0.826 4.013 0.234-0.992-1.373-3-2.043-3.556-1.774-0.184 0.089-0.323 0.252-0.419 0.443-0.547-0.097-1.091-0.169-1.488-0.166-1.397 0.010-2.464 0.492-3.264 1.474-0.785 0.963-1.102 2.159-0.917 3.459 0.175 1.231 0.792 2.54 1.826 3.898-0.172 0.182-0.338 0.362-0.498 0.538-2.52 2.786-4.362 5.773-4.362 6.268v0.256h3.324l-0.058-0.304c-0.188-0.98 0.187-2.206 0.955-3.121 0.482-0.575 1.28-1.231 2.534-1.534 1.115 1.075 2.535 2.216 4.116 3.318h2.47v-0.256c0-0.289-0.145-0.543-0.409-0.713-0.39-0.252-0.993-0.287-1.546-0.1-0.528-0.58-0.823-1.356-0.887-2.319 5.361 0.469 10.489 2.608 16.275 5.594h3.184l0.042-0.206c0.060-0.293-0.102-0.687-0.433-1.052zM4.922 22.095c-0.786 0.938-1.203 2.176-1.108 3.24h-2.094c0.421-0.9 2.097-3.5 4.573-6.127 0.341 0.417 0.721 0.838 1.139 1.262-1.216 0.361-2.013 1.033-2.51 1.626z"></path>
<path d="M14.337 13.795l0.847 2.48-2.572-1.705 1.725-0.775z"></path>
<path d="M11.859 14.879l0.91 1.55-1.914-0.961 1.004-0.589z"></path>
<path d="M9.789 16.088l0.439 1.55-1.318-0.899 0.878-0.651z"></path>
<path d="M23.811 20.241l-0.816 1.24 1.443-0.651-0.627-0.589z"></path>
<path d="M25.097 21.667l-1.317 0.992 1.82-0.465-0.502-0.527z"></path>
<path d="M21.898 8.216l0.973 2.108 0.627-2.139-1.6 0.031z"></path>
<path d="M16.973 11.284l1.537 0.806-1.38 0.093-0.157-0.899z"></path>
<path d="M17.349 12.927l0.941 0.372-0.784 0.217-0.157-0.589z"></path>
<path d="M28.329 11.873l-1.255 0.527 1.035 0.155 0.22-0.682z"></path>
<path d="M27.827 13.392l-0.972 0.279 0.784 0.279 0.188-0.558z"></path>
</svg>
<svg id="b-elastic" width="32" height="32" viewBox="0 0 32 32" x="720" y="0">
<path d="M12.294 13.605l7.589 3.46 7.657-6.709c0.111-0.553 0.165-1.105 0.165-1.683 0-4.72-3.84-8.561-8.56-8.561-2.824 0-5.458 1.39-7.059 3.722l-1.274 6.608 1.482 3.163z"></path>
<path d="M4.439 21.642c-0.111 0.553-0.168 1.128-0.168 1.708 0 4.733 3.851 8.583 8.584 8.583 2.847 0 5.494-1.403 7.092-3.759l1.264-6.585-1.687-3.223-7.619-3.473-7.467 6.748z"></path>
<path d="M4.391 8.508l5.201 1.228 1.14-5.913c-0.711-0.543-1.588-0.84-2.49-0.84-2.26 0-4.098 1.839-4.098 4.099 0 0.499 0.083 0.978 0.248 1.427z"></path>
<path d="M3.939 9.747c-2.324 0.77-3.939 2.997-3.939 5.447 0 2.386 1.476 4.516 3.69 5.359l7.297-6.595-1.34-2.862-5.708-1.348z"></path>
<path d="M21.282 28.174c0.713 0.548 1.586 0.847 2.478 0.847 2.26 0 4.098-1.838 4.098-4.098 0-0.498-0.083-0.977-0.248-1.426l-5.197-1.216-1.131 5.893z"></path>
<path d="M22.339 20.92l5.721 1.338c2.325-0.768 3.94-2.997 3.94-5.447 0-2.381-1.479-4.509-3.698-5.349l-7.482 6.555 1.519 2.904z"></path>
</svg>
<svg id="b-elasticsearch" width="32" height="32" viewBox="0 0 32 32" x="0" y="48">
<path d="M22.84 11.2h-8.36c0.040 0.2 0.12 0.4 0.16 0.56 0.28 0.96 0.44 1.96 0.52 3 0.040 0.4 0.040 0.84 0.040 1.24s0 0.84-0.040 1.24c-0.080 1.040-0.24 2.040-0.52 3-0.040 0.2-0.12 0.4-0.16 0.56h8.36c2.64 0 4.76-2.16 4.76-4.8s-2.12-4.8-4.76-4.8z"></path>
<path d="M15.16 17.24c0.040-0.4 0.040-0.84 0.040-1.24s0-0.84-0.040-1.24c-0.080-1.040-0.24-2.040-0.52-3-0.040-0.2-0.12-0.4-0.16-0.56h-12.96c-0.48 1.52-0.72 3.12-0.72 4.8s0.24 3.28 0.72 4.8h12.92c0.040-0.2 0.12-0.4 0.16-0.56 0.28-0.96 0.48-1.96 0.56-3z"></path>
<path d="M24.28 22.4h-10.4c-0.32 0.72-0.68 1.4-1.080 2.040-0.6 1-1.32 1.88-2.12 2.72-0.28 0.28-0.56 0.52-0.84 0.8-0.56 0.52-1.2 0.96-1.84 1.4 2.52 1.68 5.56 2.64 8.8 2.64 5.56 0 10.44-2.84 13.32-7.12-1.48-1.52-3.56-2.48-5.84-2.48z"></path>
<path d="M12.8 24.44c0.4-0.64 0.76-1.32 1.080-2.040h-11.76c1.24 2.84 3.28 5.28 5.88 6.96 0.64-0.44 1.24-0.88 1.84-1.4 0.28-0.24 0.56-0.52 0.84-0.8 0.76-0.8 1.48-1.72 2.12-2.72z"></path>
<path d="M10.64 4.84c-0.28-0.28-0.56-0.52-0.84-0.8-0.56-0.52-1.2-0.96-1.84-1.4-2.52 1.68-4.56 4.12-5.84 6.96h11.72c-0.32-0.72-0.68-1.4-1.080-2.040-0.6-1-1.32-1.92-2.12-2.72z"></path>
<path d="M16.8 0c-3.24 0-6.28 0.96-8.8 2.64 0.64 0.44 1.24 0.88 1.84 1.4 0.28 0.24 0.56 0.52 0.84 0.8 0.8 0.84 1.52 1.72 2.12 2.72 0.4 0.64 0.76 1.32 1.080 2.040h10.4c2.28 0 4.36-0.96 5.84-2.48-2.88-4.28-7.76-7.12-13.32-7.12z"></path>
</svg>
<svg id="b-artifactory" width="32" height="32" viewBox="0 0 32 32" x="48" y="48">
<path d="M6.012 28.48l-0.141-0.96h20.369v1.92h-20.087zM13.807 22.712c-2.891-0.602-5.845-3.083-7.163-6.018-0.991-2.207-0.985-6.361 0.012-8.534 2.266-4.937 7.87-7.403 12.688-5.585 7.516 2.837 9.187 12.743 3.037 18.007-2.16 1.849-5.699 2.728-8.574 2.13zM18.549 20.934c2.319-0.689 4.807-3.152 5.602-5.548 1.479-4.453-0.536-9.133-4.785-11.111-4.629-2.156-10.336 0.647-11.718 5.755-0.49 1.81-0.196 4.91 0.615 6.501 1.345 2.637 4.743 4.822 7.598 4.887 0.54 0.012 1.749-0.206 2.687-0.484z"></path>
</svg>
<svg id="b-windows" width="28" height="32" viewBox="0 0 28 32" x="96" y="48">
<path d="M0 5.856l11.475-1.581v11.088h-11.475v-9.506zM0 26.144l11.475 1.581v-10.95h-11.475v9.369zM12.738 27.894l15.262 2.106v-13.225h-15.262v11.119zM12.738 4.106v11.256h15.262v-13.363l-15.262 2.106z"></path>
</svg>
<svg id="b-wordpress" width="32" height="32" viewBox="0 0 32 32" x="144" y="48">
<path d="M3.856 10.588l6.344 17.375c-4.438-2.15-7.494-6.7-7.494-11.963 0-1.931 0.413-3.756 1.15-5.412zM24.975 15.331c0-1.644-0.587-2.781-1.094-3.669-0.675-1.094-1.306-2.025-1.306-3.119 0-1.225 0.925-2.362 2.231-2.362 0.056 0 0.113 0.006 0.175 0.013-2.369-2.169-5.519-3.494-8.981-3.494-4.644 0-8.731 2.381-11.113 5.994 0.313 0.012 0.606 0.019 0.856 0.019 1.388 0 3.544-0.169 3.544-0.169 0.719-0.044 0.8 1.012 0.088 1.094 0 0-0.719 0.081-1.519 0.125l4.844 14.4 2.912-8.725-2.069-5.675c-0.719-0.044-1.394-0.125-1.394-0.125-0.719-0.044-0.631-1.137 0.081-1.094 0 0 2.194 0.169 3.5 0.169 1.387 0 3.544-0.169 3.544-0.169 0.719-0.044 0.8 1.012 0.087 1.094 0 0-0.719 0.081-1.519 0.125l4.806 14.294 1.325-4.431c0.563-1.837 1-3.156 1-4.294zM16.231 17.163l-3.988 11.594c1.194 0.35 2.45 0.544 3.756 0.544 1.55 0 3.031-0.269 4.412-0.756-0.038-0.056-0.069-0.119-0.094-0.181l-4.088-11.2zM27.669 9.619c0.056 0.425 0.087 0.875 0.087 1.369 0 1.35-0.25 2.863-1.012 4.762l-4.063 11.744c3.956-2.306 6.613-6.587 6.613-11.494 0-2.313-0.587-4.487-1.625-6.381zM31.5 16c0 8.55-6.956 15.5-15.5 15.5-8.55 0-15.5-6.956-15.5-15.5 0-8.55 6.95-15.5 15.5-15.5 8.544 0 15.5 6.95 15.5 15.5zM30.788 16c0-8.156-6.637-14.787-14.788-14.787-8.156 0-14.787 6.631-14.787 14.787s6.638 14.788 14.787 14.788c8.156 0 14.788-6.631 14.788-14.788z"></path>
</svg>
<svg id="b-kibana" width="32" height="32" viewBox="0 0 32 32" x="192" y="48">
<path d="M27.96 31.84h-22.52l13.2-15.84c5.64 3.68 9.32 9.4 9.32 15.84zM27.96-0.16h-24v28.8l24-28.8z"></path>
</svg>
<svg id="b-monit" width="40" height="32" viewBox="0 0 40 32" x="240" y="48">
<path d="M5.291 7.199c0.186 3.163 0.811 5.93 2.121 8.082-0.272 2.187-0.331 4.246-0.072 6.116 0.384 2.564 1.786 5.017 3.219 6.208 0.737-3.719 0.128-8.252 0.041-12.283 0.86 0.715 1.693 0.914 2.51 0.828-0.274-1.168-0.903-2.003-1.905-2.487-0.282-0.818 0.102-1.29 0.94-1.525 1.094 0.233 2.201 0.746 3.33 1.761 1.366 0.587 2.583 0.55 3.678 0.014 0.22-0.813 0.63-1.343 1.138-1.731 0.795 0.591 1.235 1.15 1.373 1.681 1.126 0.418 2.165 0.397 3.133 0.010 1.193-0.882 2.482-1.528 3.838-2.013 1.318 0.233 1.87 0.858 1.898 1.752-1.189 0.203-2.179 0.96-2.993 2.203 0.952 0.279 1.873 0.184 2.762-0.285-0.295 3.968-0.286 7.96-0.094 11.967 1.788-1.050 2.59-3.074 3.219-5.27 0.189-2.692 0.214-5.292 0.096-7.816 0.628-0.302 1.106-1.268 1.289-3.548l0.413-3.072c0.135-0.506 0.411-0.816 0.856-0.892 0.361 0.055 0.573 0.281 0.637 0.679l0.144 2.602c-0.032 1 0.22 1.646 0.952 1.69 0.604-0.25 0.831-0.788 0.787-1.533 0.398-1.247 0.495-2.431 0.205-3.537 0.011-0.579-0.523-1.157-2.995-1.731-1.364-0.33-2.705-0.421-4.013-0.162l-1.087-0.138c-2.165-1.586-4.041-2.528-5.681-2.948-1.176-0.224-2.27-0.239-3.273-0.012-0.601 0.295-1.242 0.508-1.925 0.628-0.463-0.155-0.925-0.356-1.387-0.645-1.119-0.145-2.187-0.133-3.204 0.037-1.846 0.621-3.554 1.582-5.084 2.982l-0.96 0.905-0.987-1.063c-0.634-0.29-1.328-0.331-2.076-0.146-0.397 0.168-0.815 0.513-1.26 1.067l-1.428 0.252c-0.523 0.211-0.825 0.547-0.977 0.967-0.606 1.011-0.623 2.431-0.51 3.94-0.062 0.766 0.272 1.138 0.912 1.206 0.538 0.025 0.746-0.495 0.674-1.478l0.188-3.056 0.821-0.478 0.737 0.273z"></path>
<path d="M39.199 6.814c0.276 1.174 0.139 2.416-0.218 3.57 0.032 0.73-0.285 1.504-0.988 1.819 0 0-0.697 0.083-1.096-0.378-0.378-0.437-0.425-1.059-0.414-1.61l-0.141-2.597c-0.051-0.291-0.271-0.38-0.453-0.246-0.158 0.115-0.241 0.31-0.292 0.492l-0.409 3.037c-0.008 0.103-0.017 0.205-0.027 0.307s-0.021 0.202-0.032 0.302c-0.139 1.163-0.319 2.436-1.211 3.101 0 0 0.088 2.544 0.032 4.632-0.026 1.003-0.077 2.005-0.145 3.006 0 0-0.277 1.018-0.577 1.808-0.559 1.469-1.402 2.879-2.738 3.709 0 0-0.105 0.082-0.22 0.101-0.207 0.034-0.393-0.035-0.438-0.356-0.176-3.773-0.197-7.52 0.042-11.264 0 0 0.257-0.184-0.271-0.036-0.693 0.184-1.428 0.168-2.12-0.023 0 0-0.56-0.148-0.137-0.764 0.683-0.976 1.618-1.795 2.762-2.109 0 0-0.042-0.226-0.168-0.404-0.287-0.402-0.798-0.565-1.257-0.661l-0.015-0.003c-1.296 0.469-2.53 1.112-3.646 1.927 0 0-0.683 0.279-1.253 0.343-0.715 0.080-1.441-0.025-2.122-0.263-0.38-0.132-0.449-0.661-0.753-1.022-0.218-0.259-0.591-0.568-0.591-0.568-0.367 0.343-0.62 0.793-0.763 1.276 0 0-0.088 0.256-0.387 0.388-1.174 0.518-2.547 0.442-3.759-0.056 0 0-0.934-0.785-1.77-1.213-0.463-0.237-0.954-0.414-1.461-0.532 0 0-0.818 0.149-0.642 0.871 0.984 0.517 1.665 1.503 1.943 2.606 0 0 0.123 0.521-0.613 0.54-0.641 0.017-1.278-0.158-1.839-0.475l-0.013-0.007c0.132 3.868 0.653 7.789-0.052 11.525 0 0-0.041 0.273-0.23 0.359-0.337 0.156-0.617-0.226-0.898-0.514-1.964-2.018-2.895-4.933-3.008-7.735-0.058-1.42 0.034-2.841 0.199-4.258 0 0 0.035-0.013-0.228-0.497-1.199-2.267-1.67-4.85-1.852-7.424l-0.343-0.177-0.491 0.286-0.174 2.83c0.005 0.070 0.009 0.141 0.011 0.211 0.002 0.075 0.002 0.149 0.001 0.224-0.009 0.418-0.075 0.892-0.401 1.189-0.686 0.627-2.028-0.083-1.956-1.34 0 0-0.015-0.245-0.025-0.412-0.008-0.143-0.008-0.141-0.014-0.284-0.044-1.186 0.005-2.427 0.587-3.419 0.203-0.542 0.664-1.039 1.253-1.177l1.29-0.228c0.457-0.541 0.984-1.043 1.752-1.162 0.711-0.111 1.533-0.168 2.065 0.333l0.728 0.784 0.685-0.645c1.487-1.353 3.238-2.378 5.132-3.034 0 0 1.919-0.271 3.354-0.097 0.214 0.026 0.834 0.418 1.475 0.645 0.069-0.013 0.138-0.028 0.206-0.043 0.527-0.12 1.038-0.3 1.524-0.536 0 0 1.935-0.29 3.283-0.060 0.209 0.035 1.288 0.333 2.172 0.728 1.345 0.6 2.595 1.392 3.786 2.252l0.953 0.135c1.855-0.359 3.836-0.043 5.667 0.62 0.847 0.307 1.69 0.753 1.732 1.624 0 0.006-0.017-0.083 0.015 0.047zM4.685 6.571l0.803 0.305c0.212 0.16 0.19 0.465 0.209 0.738 0.196 2.606 0.696 5.236 2.039 7.472 0 0-0.032 0.886-0.094 1.642-0.295 3.606 0.175 7.456 2.658 10.114l0.007 0.008c0.574-3.728 0.013-7.676-0.080-11.328-0.004-0.151-0.014-0.335 0.094-0.453 0.402-0.444 1.165 0.644 2.274 0.717 0 0-0.505-1.267-1.556-1.784 0 0-0.592-0.93-0.026-1.627 0.314-0.387 1.029-0.6 1.029-0.6 0.261-0.053 0.271 0.012 0.4 0.043 1.206 0.301 2.315 0.933 3.24 1.757 1.005 0.425 2.16 0.5 3.159 0.067 0.020-0.063 0.041-0.125 0.064-0.186 0.239-0.64 0.619-1.304 1.217-1.611 0.245-0.125 0.495 0.094 0.764 0.323 0.44 0.373 0.847 0.815 1.067 1.355 0 0 0.811 0.284 1.428 0.268 0.516-0.014 1.236-0.252 1.236-0.252 0.202-0.148 0.203-0.148 0.423-0.299 1.040-0.697 2.175-1.262 3.341-1.689 0.888-0.326 2.434 0.591 2.528 1.952 0.034 0.48-0.757 0.542-1.259 0.797-0.575 0.292-1.054 0.744-1.456 1.252l-0.011 0.013c0.667 0.086 1.349-0.060 1.947-0.371 0 0 0.54-0.111 0.552 0.363-0.273 3.736-0.278 7.452-0.126 11.172l0.003 0.068c1.358-1.086 1.983-2.86 2.498-4.638 0.165-2.414 0.205-4.837 0.113-7.26l-0.017-0.544c0.078-0.316 0.473-0.427 0.659-0.748 0.468-0.805 0.546-1.809 0.627-2.785l0.414-3.082c0.117-0.57 0.542-1.080 1.113-1.204 0 0 0.514-0.015 0.824 0.314 0.179 0.191 0.279 0.448 0.309 0.706l0.145 2.617c-0.004 0.128-0.004 0.256 0.004 0.384 0.004 0.060 0.009 0.12 0.015 0.179 0.005 0.043 0.011 0.086 0.019 0.129 0.047 0.258 0.181 0.561 0.469 0.617 0 0 0.133-0.072 0.206-0.143 0.382-0.369 0.285-1.117 0.285-1.117 0.339-1.074 0.481-2.236 0.199-3.328 0 0-0.104-0.448-0.407-0.646-1.11-0.726-2.534-0.95-3.845-1.074-0.773-0.073-1.556-0.045-2.318 0.103l-0.12 0.004-1.087-0.138c-0.11-0.024-0.367-0.21-0.574-0.356-1.585-1.116-3.281-2.113-5.142-2.598-0.1-0.019-0.1-0.018-0.201-0.036-1.028-0.169-2.147-0.311-3.063 0.107-0.723 0.321-1.65 0.648-2.064 0.504-0.448-0.156-0.878-0.354-1.285-0.596l-0.019-0.011c-0.938-0.118-1.892-0.117-2.829 0.016 0 0-0.775 0.234-1.368 0.495-1.355 0.598-2.609 1.424-3.706 2.421l-0.957 0.902c-0.254 0.197-0.325 0.169-0.537-0.017l-0.933-1.005c-0.546-0.227-1.165-0.244-1.732-0.101-0.333 0.084-0.756 0.536-1.086 0.945 0 0-0.017 0.077-0.228 0.134l-1.387 0.245c-0.431 0.18-0.758 0.794-0.758 0.794-0.625 1.065-0.553 2.427-0.459 3.721 0 0-0.156 0.73 0.484 0.844 0.306 0.054 0.38-0.572 0.348-1.065l0.188-3.104c0 0 0.040-0.197 0.187-0.303l0.821-0.478c0.099-0.047 0.208-0.058 0.322-0.028z"></path>
<path d="M10.844 29.986l0.007-3.895c0.292-2.415 1.020-4.637 2.054-6.468 0.841-2.041 2.132-3.702 4.433-4.512l2.901-0.265 2.549 0.461c2.327 0.549 3.888 1.884 4.694 3.903 1.292 2.081 1.886 4.441 2.387 6.932l0.102 3.597c-1.904 0.863-4.13 0.565-6.412 0.064-0.655 0.173-1.168 0.509-1.564 0.98-0.97 0.361-1.927 0.356-2.869-0.034-0.42-0.353-0.979-0.621-1.703-0.788-0.766 0.49-5.406 0.772-6.58 0.023zM15.118 30.278c0.903-2.297 2.027-4.417 3.491-6.265l3.509 0.015c1.625 1.784 2.713 3.865 3.566 6.075 0.327-0.489 0.437-1.086 0.355-1.78-0.38-1.824-1.338-3.59-2.729-5.313-0.773-0.404-1.533-0.614-2.28-0.639l-0.035-3.19c0.074-0.277 0.207-0.292 0.387-0.092l0.121 0.418 1.938-0.065c-0.609-0.414-0.933-1.098-1.127-1.902-0.444-0.288-0.939-0.493-1.525-0.56l-0.899-0.036c-0.611 0.077-1.12 0.267-1.486 0.613-0.147 0.735-0.397 1.42-1.082 1.893l2.043 0.025 0.053-0.467c0.177-0.145 0.331-0.145 0.437 0.145l-0.008 3.138c-0.892 0.072-1.648 0.324-2.273 0.748-1.304 1.541-2.246 3.373-2.867 5.463-0.028 0.831 0.141 1.375 0.412 1.774z"></path>
<path d="M20.307 14.474l2.56 0.463c0.117 0.028 0.117 0.028 0.234 0.058 2.103 0.566 3.908 2.049 4.72 4.044 0.053 0.087 0.053 0.087 0.106 0.174 1.223 2.076 1.831 4.475 2.313 6.855l0.007 0.064 0.102 3.597c-0.011 0.296-0.129 0.32-0.414 0.438-1.927 0.783-4.141 0.495-6.242 0.053l-0.123-0.026c-0.499 0.146-0.948 0.439-1.289 0.837 0 0-1.11 0.484-2.13 0.373-0.494-0.054-1.168-0.302-1.168-0.302-0.148-0.069-0.145-0.099-0.207-0.145-0.459-0.341-1.192-0.633-1.407-0.55-1.836 0.675-4.048 0.675-5.983 0.192-0.188-0.047-0.374-0.105-0.55-0.186-0.184-0.086-0.357-0.207-0.371-0.427l0.010-3.941c0.284-2.288 0.946-4.517 2.050-6.518 0 0 0.587-1.467 1.497-2.565 0.824-0.993 1.919-1.744 3.133-2.186 0 0 0.042-0.024 0.148-0.040l2.952-0.267c0.017 0.002 0.034 0.004 0.051 0.006zM18.772 24.419c-1.28 1.663-2.282 3.528-3.089 5.469l-0.035 0.084c0.559-0.061 1.142-0.101 1.621-0.354 0 0 1.246 0.162 2.052 0.805 0.762 0.299 1.618 0.316 2.416 0.052 0 0 0.997-1.18 1.901-1.040 0.487 0.105 0.976 0.205 1.468 0.286l0.019 0.003c-0.788-1.923-1.798-3.768-3.177-5.318l-3.157-0.013c-0.007 0.009-0.014 0.017-0.021 0.026zM17.42 15.484c-1.926 0.686-3.363 2.36-4.165 4.285 0 0-0.451 0.82-0.758 1.541-0.639 1.5-1.046 3.096-1.255 4.715l-0.011 0.089-0.006 3.64c1.010 0.41 2.198 0.346 3.345 0.295-0.613-1.422 0.218-3.271 1.121-4.92 0.453-0.828 0.988-1.61 1.596-2.333 0 0 0.548-0.374 0.98-0.54 0.387-0.15 0.792-0.245 1.204-0.304 0 0-0.006-2.111-0.006-2.111-0.050 0.009-0.049 0.009-0.1 0.012l-2.043-0.025c-0.397-0.032-0.442-0.465-0.011-0.847 0.422-0.385 0.614-0.949 0.727-1.5 0 0 0.175-0.282 0.424-0.445 0.414-0.271 0.898-0.401 1.383-0.466l0.98 0.034c0.809 0.099 1.737 0.453 1.861 0.846 0.157 0.634 0.417 1.296 0.975 1.683 0 0 0.14 0.109 0.16 0.261 0.028 0.21-0.141 0.404-0.362 0.427l-1.938 0.065c-0.028-0.001-0.043 0.007-0.135-0.021l0.024 2.154c0.581 0.060 1.663 0.175 2.2 0.755 1.304 1.622 2.373 3.45 2.805 5.471 0 0 0.104 0.916-0.169 1.614l-0.002 0.006c1.125 0.096 2.278 0.041 3.327-0.364l-0.072-3.315c-0.474-2.339-1.063-4.713-2.332-6.777 0 0-0.686-1.622-1.836-2.524-0.759-0.596-1.669-0.979-2.613-1.207l-2.488-0.45c-0.935 0.085-1.869 0.171-2.803 0.256zM21.215 18.58c0.38 0.047 0.57 0.542 0.57 0.542l0.777-0.026c-0.278-0.391-0.449-0.843-0.576-1.307 0 0-0.558-0.338-1.191-0.425l-0.888-0.038c-0.398 0.053-0.803 0.168-1.129 0.412 0 0-0.149 0.738-0.559 1.345 0 0 0.808 0.013 0.808 0.013s0.017-0.292 0.227-0.435c0.358-0.242 0.946-0.060 0.978 0.496l-0.008 3.138c-0.015 0.224 0.021 0.337-0.504 0.391-0.666 0.076-1.319 0.273-1.882 0.634l-0.011 0.007c-1.264 1.505-2.151 3.3-2.73 5.19 0 0-0.020 0.44 0.028 0.746 0.824-1.921 1.838-3.752 3.117-5.395 0 0 0.095-0.215 0.367-0.232l3.509 0.015c0.21 0.015 0.369 0.223 0.509 0.382 1.277 1.479 2.258 3.198 3.029 4.999 0 0 0.040-0.516-0.044-0.875-0.435-1.785-1.396-3.396-2.534-4.827l-0.014-0.017c-0.639-0.32-1.335-0.532-2.050-0.561 0 0-0.337-0.053-0.363-0.374l-0.035-3.19c0.026-0.694 0.498-0.615 0.598-0.607z"></path>
</svg>
<svg id="b-jenkins" width="32" height="32" viewBox="0 0 32 32" x="288" y="48">
<path d="M16.696 0.021c-2.366 0.154-3.575 0.328-5.071 0.726-1.308 0.348-2.695 0.96-3.53 1.561-0.805 0.572-1.551 1.427-1.954 2.232-0.099 0.199-0.268 0.676-0.408 1.153-0.010 0.030-0.139 0.134-0.283 0.229-0.572 0.363-1.119 1.129-1.377 1.924-0.323 1.004-0.333 2.426-0.025 4.002l0.075 0.403-0.388 0.393c-0.8 0.815-1.168 1.73-1.173 2.908-0.005 0.86 0.134 1.447 0.517 2.188 0.587 1.138 1.954 2.108 3.147 2.232l0.288 0.030 0.119 0.472c0.204 0.8 0.467 1.541 0.895 2.501 0.119 0.264 0.219 0.512 0.219 0.547s-0.239 0.194-0.532 0.358c-2.366 1.303-5.782 3.341-6.443 3.843-0.323 0.244-0.378 0.343-0.428 0.781l-0.040 0.293 0.626 1.546c0.343 0.845 0.646 1.571 0.666 1.601 0.035 0.050 2.908 0.065 14.104 0.065 8.288 0 14.075-0.020 14.089-0.045 0.055-0.085 0.398-1.969 0.676-3.709 0.060-0.358 0.119-0.95 0.134-1.327 0.030-0.671 0.030-0.681-0.104-0.905-0.254-0.433-1.352-1.208-3.346-2.361-0.199-0.114-0.363-0.219-0.363-0.229s0.099-0.174 0.219-0.358c1.079-1.68 1.969-4.231 2.342-6.727 0.229-1.541 0.303-3.808 0.179-5.369-0.348-4.295-1.864-7.333-4.574-9.153-1.342-0.905-2.879-1.452-4.803-1.715-0.522-0.070-2.829-0.129-3.455-0.089zM19.982 1.513c1.874 0.229 3.435 0.845 4.723 1.864 0.835 0.661 1.646 1.67 2.178 2.715 0.174 0.343 0.154 0.368-0.204 0.259-0.174-0.055-0.572-0.114-0.885-0.139-0.552-0.040-1.417-0.010-1.521 0.060-0.040 0.020-0.015 0.239 0.075 0.691l0.134 0.656 0.621-0.015c0.915-0.020 1.536 0.114 2.018 0.447 0.423 0.293 0.706 0.845 0.835 1.646 0.085 0.537 0.089 0.651 0.030 0.616-0.025-0.015-0.229-0.358-0.452-0.761-0.224-0.408-0.433-0.761-0.462-0.795-0.045-0.045-0.189 0.015-0.597 0.254-0.293 0.169-0.557 0.333-0.587 0.363-0.035 0.035 0.089 0.288 0.393 0.815 0.244 0.423 0.492 0.86 0.552 0.979l0.104 0.209h-0.323c-0.184 0-0.552-0.045-0.83-0.104-0.273-0.055-0.517-0.085-0.537-0.060-0.065 0.065-0.388 1.228-0.353 1.268 0.099 0.109 1.472 0.338 2.033 0.338 0.348 0 0.93-0.119 1.084-0.224 0.065-0.040 0.129-0.075 0.144-0.075 0.055 0 0.020 1.496-0.050 2.312-0.209 2.366-0.721 4.355-1.626 6.284-0.467 1.004-0.805 1.501-1.482 2.192-0.517 0.527-0.706 0.681-1.129 0.93-0.865 0.507-1.994 0.81-3.023 0.81-0.557 0-1.725-0.129-2.287-0.254-0.95-0.209-1.844-0.517-2.734-0.94-1.835-0.865-2.754-1.834-3.207-3.381-0.060-0.204-0.119-0.383-0.124-0.388-0.025-0.030-1.134 0.139-1.253 0.189-0.104 0.045-0.104 0.055-0.040 0.333 0.174 0.751 0.602 1.67 1.069 2.297 0.487 0.651 1.288 1.337 2.128 1.825 0.085 0.050 0.159 0.104 0.159 0.119-0.005 0.015-0.119 0.080-0.264 0.144-0.283 0.134-0.661 0.457-0.706 0.607-0.040 0.119-0.283 0.124-0.9 0.020-1.059-0.189-2.014-0.636-2.744-1.293-0.661-0.592-1.327-1.944-1.815-3.679-0.263-0.92-0.268-0.79 0.055-1.138 0.383-0.403 0.756-0.94 0.756-1.074 0-0.030-0.273-0.184-0.607-0.353-0.557-0.278-0.612-0.298-0.661-0.219-0.025 0.050-0.139 0.224-0.249 0.388-0.234 0.353-0.348 0.403-0.825 0.363-0.646-0.055-1.283-0.373-1.81-0.9-0.353-0.353-0.577-0.751-0.726-1.293-0.089-0.343-0.104-0.482-0.080-0.994 0.025-0.646 0.104-0.935 0.388-1.472 0.089-0.164 0.263-0.393 0.393-0.507 0.244-0.219 0.925-0.582 1.268-0.676 0.283-0.075 0.701-0.070 0.87 0.020 0.452 0.234 0.746 1.148 0.746 2.317 0 0.363 0.020 0.592 0.050 0.592s0.656-0.303 1.397-0.676l1.352-0.671-0.030-0.482c-0.030-0.487-0.094-0.82-0.313-1.516-0.254-0.82-0.119-1.531 0.621-3.336 0.323-0.786 0.428-1.223 0.428-1.795-0.005-0.507-0.040-0.676-0.264-1.183l-0.124-0.283 0.239-0.363c0.994-1.496 2.272-2.58 3.853-3.251 0.95-0.403 1.795-0.597 3.207-0.731 0.308-0.030 1.283 0.020 1.919 0.099zM25.391 25.958c0.323 0.214 0.363 0.363 0.393 1.352 0.025 0.89-0.040 1.422-0.219 1.795-0.214 0.447-1.561 0.552-2.819 0.219-0.303-0.085-0.537-0.099-1.566-0.099-1.173 0-1.213 0.005-1.442 0.119-0.925 0.467-2.665 1.029-3.689 1.198-0.676 0.109-0.91 0.099-1.064-0.040-0.254-0.229-0.293-0.507-0.313-2.297-0.015-1.283-0.005-1.666 0.045-1.765 0.104-0.204 0.363-0.298 0.79-0.298 0.646 0 1.158 0.169 2.903 0.969l1.586 0.721h1.114l0.447-0.338c0.607-0.452 1.66-1.114 2.292-1.442l0.522-0.268 0.403 0.020c0.343 0.010 0.438 0.035 0.616 0.154zM12.361 26.933c0.239 0.055 0.532 0.119 0.656 0.139l0.224 0.045 0.015 0.383c0.010 0.308 0 0.383-0.060 0.383-0.080 0-1.198-0.825-1.347-0.994-0.089-0.104-0.089-0.114-0.010-0.085 0.045 0.020 0.283 0.075 0.522 0.129z"></path>
<path d="M15.553 6.166c-0.447 0.065-1.009 0.259-1.397 0.487-0.626 0.368-1.233 1.134-1.521 1.909-0.119 0.323-0.114 0.378 0.045 0.378 0.055 0 0.283 0.045 0.507 0.094 0.711 0.169 0.666 0.184 0.885-0.254 0.338-0.666 0.86-1.089 1.521-1.228 0.348-0.075 0.905-0.065 1.288 0.015 0.313 0.070 0.413 0.040 0.413-0.109 0-0.040 0.060-0.308 0.129-0.597 0.149-0.636 0.164-0.616-0.467-0.701-0.502-0.065-0.94-0.065-1.402 0.005z"></path>
<path d="M18.038 9.050c-0.288 0.104-0.542 0.214-0.562 0.234-0.055 0.055 0.522 1.586 0.94 2.481 0.094 0.204 0.169 0.388 0.169 0.413 0 0.109-0.86-0.015-1.332-0.194l-0.259-0.099-0.075 0.139c-0.149 0.288-0.472 1.049-0.472 1.114 0 0.094 1.039 0.418 1.576 0.487 0.771 0.099 1.442-0.055 1.8-0.413 0.224-0.219 0.303-0.428 0.303-0.781 0-0.244-0.035-0.363-0.219-0.741-0.209-0.428-0.86-2.018-1.054-2.59-0.114-0.313-0.114-0.313-0.815-0.050z"></path>
<path d="M22.219 9.726l-0.666 0.015 0.035 0.308c0.070 0.602 0.388 1.651 0.681 2.237 0.457 0.9 0.781 1.308 2.048 2.57 1.044 1.044 1.138 1.183 0.925 1.347-0.249 0.184-1.138 0.597-1.71 0.785-0.666 0.219-1.173 0.333-1.715 0.383l-0.363 0.035 0.030-0.224 0.030-0.229-0.621-0.254c-0.343-0.139-0.641-0.244-0.666-0.229-0.149 0.094-0.214 0.94-0.104 1.332 0.085 0.298 0.388 0.646 0.721 0.82 0.239 0.129 0.288 0.134 0.925 0.129 0.751-0.005 1.253-0.104 2.262-0.447 1.168-0.393 1.854-0.761 2.297-1.228 0.313-0.333 0.413-0.522 0.447-0.86 0.070-0.681-0.164-1.054-1.496-2.381-1.079-1.069-1.402-1.477-1.765-2.202-0.204-0.408-0.423-1.084-0.502-1.536-0.030-0.199-0.075-0.368-0.089-0.373-0.020-0.010-0.333-0.010-0.701 0z"></path>
<path d="M5.57 14.339c-0.547 0.611-0.86 1.616-0.726 2.307l0.035 0.159 0.254-0.030c0.139-0.020 0.442-0.075 0.676-0.119l0.423-0.089-0.015-0.229c-0.025-0.303 0.099-0.716 0.288-0.974 0.080-0.114 0.149-0.224 0.149-0.239 0-0.025-0.631-0.84-0.795-1.029-0.020-0.025-0.149 0.085-0.288 0.244z"></path>
<path d="M18.103 18.754c-0.229 0.283-0.413 0.542-0.413 0.572 0 0.070 0.537 0.442 0.994 0.691 0.815 0.442 1.815 0.746 2.819 0.855 0.537 0.060 1.472 0.055 1.531-0.010 0.035-0.030-0.030-0.552-0.129-1.084l-0.055-0.273-0.626-0.005c-0.661-0.005-1.293-0.099-1.849-0.278-0.457-0.144-1.268-0.547-1.581-0.785-0.144-0.109-0.264-0.199-0.273-0.199-0.005 0-0.194 0.234-0.418 0.517z"></path>
<path d="M25.67 18.565c-0.318 0.278-1.124 0.681-1.641 0.815-0.219 0.060-0.408 0.114-0.418 0.129-0.035 0.035 0.094 1.283 0.139 1.327 0.020 0.020 0.214 0.005 0.428-0.040 0.666-0.139 1.402-0.442 1.914-0.785 0.323-0.219 0.845-0.681 0.845-0.746 0-0.050-0.81-0.795-0.964-0.89-0.030-0.015-0.164 0.070-0.303 0.189z"></path>
<path d="M17.864 20.723c-0.055 0.025-0.328 0.104-0.607 0.184-0.368 0.094-0.512 0.159-0.512 0.214 0 0.214 0.318 0.731 0.666 1.079 0.418 0.418 0.89 0.666 1.621 0.87 0.393 0.104 0.512 0.114 1.666 0.109 1.069 0 1.322-0.015 1.81-0.109 0.313-0.060 0.577-0.119 0.592-0.134 0.025-0.025-0.234-1.153-0.293-1.273-0.040-0.075-0.075-0.075-0.353-0.020-0.626 0.134-1.357 0.189-2.103 0.159-0.616-0.020-0.815-0.045-1.153-0.154-0.547-0.179-0.85-0.388-1.024-0.716-0.149-0.273-0.154-0.278-0.308-0.209z"></path>
</svg>
<svg id="b-ansible" width="32" height="32" viewBox="0 0 32 32" x="336" y="48">
<path d="M12.428 0.373c-5.753 1.228-10.607 6.009-11.999 11.816-0.458 1.905-0.495 5.056-0.073 7.072 1.173 5.716 5.716 10.424 11.615 12.055 1.704 0.476 6.009 0.476 7.786 0 7.474-1.979 12.421-8.775 11.945-16.396-0.146-2.217-0.531-3.719-1.429-5.661-2.125-4.58-6.247-7.896-11.157-8.922-1.649-0.348-4.983-0.33-6.687 0.037zM16.989 6.694c0.256 0.421 6.375 15.077 6.614 15.847 0.146 0.495-0.605 1.337-1.191 1.337-0.201 0-2.162-1.429-4.543-3.352-2.29-1.85-4.25-3.407-4.378-3.481-0.128-0.091-0.641 0.989-1.557 3.261l-1.337 3.389h-2.473l0.293-0.678c0.146-0.385 1.722-4.177 3.499-8.445s3.334-7.878 3.481-8.024c0.421-0.403 1.283-0.33 1.594 0.146z"></path>
<path d="M15.121 12.336c-0.531 1.319-0.953 2.455-0.953 2.546 0 0.183 5.679 4.672 5.789 4.562 0.073-0.091-3.536-9.123-3.756-9.361-0.073-0.073-0.568 0.934-1.081 2.253z"></path>
</svg>
<svg id="b-mysql" width="32" height="32" viewBox="0 0 32 32" x="384" y="48">
<path d="M3.046 4.93c0 0-1.094-1.499-1.296-2.466-0.066-0.505 0.165-0.748 0.694-0.729 0.973 0.088 2.196 0.708 3.5 1.502 0.874 0.403 1.574 0.614 2.12 0.657 1.155 0.082 2.427 0.528 3.805 1.31 2.984 1.655 5.42 3.948 7.222 6.98l4.010 8.153c0.666 1.163 1.493 1.806 2.482 1.931 2.118 0.771 3.993 1.889 5.62 3.364 0.188 0.196 0.196 0.355-0.029 0.468-0.512 0.32-1.914 0.341-3.281 0.375-0.359 0.084-0.693 0.222-1.008 0.403-0.497 0.201-0.566 0.513-0.328 0.903 1.45 1.655 3.292 3.020 5.459 4.146l-3.695 0.083c-3.58-1.256-7.139-2.614-10.673-4.095-1.942-0.767-3.365-1.901-4.279-3.395-1.055-1.632-1.99-3.314-2.937-4.992-0.427-0.501-0.728-0.559-0.901-0.164l-0.975 3.638c-0.282 0.393-0.552 0.348-0.811-0.037-1.337-1.893-1.581-4.538-0.861-7.845l0.341-1.129-0.361-1.295-1.092-1.986-2.726-5.782zM7.912 6.847c-0.083 0.044 0.228 0.86 0.729 1.137 0.237 0.11 0.352-0.003 0.385-0.27 0.075-0.442-0.155-0.82-0.609-1.149-0.313-0.135-0.49-0.056-0.505 0.282z"></path>
</svg>
<svg id="b-mariadb" width="32" height="32" viewBox="0 0 32 32" x="432" y="48">
<path d="M7.612 19.347c1.312-1.613 3.203-2.995 5.369-3.493l2.922-0.676c2.22-0.577 3.739-1.433 4.652-2.531 0.952-1.49 1.933-2.896 2.917-4.29 0.463-0.701 1.006-1.325 1.743-1.761 0.676-0.504 1.501-0.738 2.4-0.826l1.137-0.121c0.652-0.14 1.233-0.274 1.7-0.471 0.62-0.137 0.911 0.055 0.991 0.456 0.073 0.977-0.244 1.818-1.005 2.502l-1.245 1.021c-0.757 0.595-1.3 1.37-1.565 2.378-0.466 2.319-1.020 4.594-1.73 6.791l-0.121 1.5c0.081 1.115 0.479 1.818 1.12 2.203-1.546 1.016-2.886 0.835-4.019-0.545-0.786 0.432-1.373 1.13-1.871 1.947-1.301 1.613-2.721 2.034-4.814 1.782 0.709-0.932 1.435-1.916 1.841-2.964l-4.297-0.568-2.381-0.059c-1.197-0.023-2.455 0.456-3.77 1.416-1.411 1.133-3.061 1.7-4.997 1.587-0.304-0.041-0.6-0.119-0.883-0.256-0.338-0.123-0.406-0.332-0.155-0.642 0.373-0.254 0.709-0.51 0.995-0.769-0.64 0.16-1.173 0.075-1.506-0.467 0.463-0.6 1.273-0.891 2.322-0.967l1.331-0.081c1.89-0.075 2.995-2.010 2.919-2.094zM29.118 8.237c0.018 0.139 0.053 0.141 0.113-0.045 0.008-0.322 0.088-0.623 0.237-0.902l0.399-0.687c0.038-0.086 0.013-0.109-0.049-0.095-0.15 0.233-0.296 0.477-0.432 0.745-0.162 0.298-0.26 0.622-0.268 0.984zM29.495 8.225c0.051 0.093 0.089 0.104 0.106-0.024-0.016-0.321 0.051-0.638 0.193-0.909 0.040-0.18 0.117-0.349 0.217-0.51 0.030-0.088 0.006-0.118-0.055-0.105-0.127 0.145-0.22 0.335-0.297 0.546-0.12 0.312-0.195 0.654-0.164 1.002zM28.689 8.126c0.012 0.158 0.041 0.185 0.102-0.008 0.049-0.355 0.201-0.676 0.452-0.964l0.506-0.681c0.030-0.098 0.016-0.138-0.084-0.064l-0.501 0.658c-0.282 0.343-0.431 0.711-0.474 1.060zM28.277 8.083c0.126-0.375 0.318-0.716 0.569-1.027 0.221-0.331 0.461-0.637 0.746-0.866 0.040-0.010 0.064 0.007 0.054 0.079l-0.667 0.809c-0.292 0.316-0.468 0.662-0.575 1.025-0.091 0.122-0.131 0.108-0.128-0.019zM26.24 7.821l0.274 0.1c0.629 0.182 1.035-0.008 1.167-0.655l0.008-0.263c-0.784-0.040-1.29 0.209-1.448 0.818z"></path>
</svg>
<svg id="b-nginx" width="32" height="32" viewBox="0 0 32 32" x="480" y="48">
<path d="M29 7.396l-12.050-6.957c-0.589-0.339-1.313-0.339-1.902 0l-12.050 6.957c-0.587 0.341-0.949 0.968-0.95 1.647v13.916c0.001 0.679 0.363 1.307 0.951 1.647l12.050 6.956c0.589 0.339 1.313 0.339 1.902 0l12.050-6.956c0.587-0.341 0.949-0.968 0.95-1.647v-13.916c-0.001-0.679-0.363-1.307-0.951-1.647zM8.995 21.559l-0.039-10.949c0.212-1.096 0.999-1.434 1.825-1.529 0.861-0.099 1.603 0.252 2.141 0.977l6.952 8.352-0.003-8.041c0.222-0.89 0.935-1.283 1.54-1.283 0.601-0.001 1.32 0.373 1.569 1.322l0.025 11.090c-0.254 0.98-0.962 1.413-2.084 1.349-0.704-0.028-1.323-0.344-1.851-0.964l-6.936-8.264-0.034 7.963c-0.214 0.952-1.051 1.349-1.598 1.355-0.53 0.006-1.189-0.392-1.507-1.378z"></path>
</svg>
<svg id="b-matomo" width="32" height="32" viewBox="0 0 32 32" x="528" y="48">
<path d="M21.705 19.585l2.058 3.415c3.732 3.659 9.214 0.332 7.638-4.677l-5.7-8.575c0.658 1.784 0.487 3.404-0.685 4.825l-3.311 5.011z"></path>
<path d="M9.419 20.315c0 2.451-1.987 4.437-4.437 4.437s-4.437-1.987-4.437-4.437c0-2.451 1.987-4.437 4.437-4.437s4.437 1.987 4.437 4.437z"></path>
<path d="M25.898 11.211c0 2.451-1.987 4.437-4.437 4.437s-4.437-1.987-4.437-4.437c0-2.451 1.987-4.437 4.437-4.437s4.437 1.987 4.437 4.437z"></path>
<path d="M1.695 16.925l5.343-8.344c2.184-2.233 4.691-2.301 6.892-0.148l4.267 6.023c2.183 1.98 4.36 1.846 6.62-0.036l-5.431 8.319c-2.139 2.208-4.443 2.253-6.938-0.221l-4.527-5.916c-1.971-1.445-4.008-1.327-6.224 0.322z"></path>
</svg>
<svg id="b-centos" width="32" height="32" viewBox="0 0 32 32" x="576" y="48">
<path d="M12.78 14.956h-7.789v-2.937l2.426-2.426 5.363 5.363zM4.991 11.032v-5.837h5.837l-2.426 2.426 6.349 6.349v0.986h-0.986l-6.349-6.349-2.426 2.426zM14.752 12.984l-5.363-5.363 2.426-2.426h2.937v7.789z"></path>
<path d="M26.604 11.032l-2.426-2.426-6.349 6.349h-0.986v-0.986l6.349-6.349-2.426-2.426h5.837v5.837zM26.604 12.018v2.937h-7.789l5.363-5.363 2.426 2.426zM22.207 7.621l-5.363 5.363v-7.789h2.937l2.426 2.426z"></path>
<path d="M19.781 26.808h-2.937v-7.789l5.363 5.363-2.426 2.426zM24.178 23.396l2.426-2.426v5.837h-5.837l2.426-2.426-6.349-6.349v-0.986h0.986l6.349 6.349zM26.604 19.985l-2.426 2.426-5.363-5.363h7.789v2.937z"></path>
<path d="M13.766 17.047h0.986v0.986l-6.349 6.349 2.426 2.426h-5.837v-5.837l2.426 2.426 6.349-6.349zM14.752 26.808h-2.937l-2.426-2.426 5.363-5.363v7.789zM7.417 22.41l-2.426-2.426v-2.937h7.789l-5.363 5.363z"></path>
<path d="M5.189 20.344c-0.036 0.283-0.399 0.445-0.632 0.23l-4.421-4.491c-0.135-0.15-0.134-0.376 0.006-0.525l4.554-4.415c0.289-0.255 0.877 0.145 0.515 0.531l-4.286 4.155 4.183 4.252c0.050 0.068 0.087 0.104 0.082 0.262z"></path>
<path d="M14.809 16.112c-0.009 0.102-0.058 0.196-0.136 0.263-0.494 0.38-1.006 0.737-1.51 1.105-0.302 0.209-0.875-0.26-0.437-0.597l1.104-0.808c0 0-1.092-0.866-1.092-0.866-0.274-0.252 0.061-0.849 0.459-0.579 0.501 0.377 0.982 0.778 1.474 1.167 0.094 0.078 0.146 0.152 0.139 0.315z"></path>
<path d="M11.383 5.514c-0.283-0.035-0.447-0.397-0.233-0.631l4.471-4.441c0.15-0.135 0.376-0.136 0.525 0.004l4.435 4.533c0.256 0.288-0.141 0.878-0.529 0.517l-4.175-4.267-4.232 4.202c-0.068 0.051-0.104 0.087-0.262 0.083z"></path>
<path d="M15.659 15.114c-0.103-0.009-0.196-0.057-0.263-0.135-0.383-0.493-0.742-1.003-1.112-1.505-0.211-0.301 0.256-0.876 0.595-0.44l0.812 1.1c0 0 0.861-1.096 0.861-1.096 0.251-0.275 0.849 0.058 0.581 0.456-0.375 0.502-0.773 0.986-1.16 1.479-0.078 0.095-0.152 0.147-0.314 0.141z"></path>
<path d="M26.22 11.447c0.032-0.283 0.393-0.451 0.629-0.24l4.487 4.425c0.137 0.148 0.139 0.374 0.002 0.525l-4.488 4.482c-0.285 0.259-0.879-0.132-0.523-0.524l4.224-4.218-4.245-4.189c-0.051-0.067-0.088-0.103-0.086-0.261z"></path>
<path d="M16.664 15.822c0.008-0.103 0.055-0.197 0.133-0.265 0.489-0.388 0.995-0.752 1.493-1.127 0.299-0.214 0.879 0.247 0.446 0.591l-1.092 0.824c0 0 1.105 0.85 1.105 0.85 0.278 0.248-0.049 0.85-0.45 0.586-0.506-0.369-0.994-0.763-1.491-1.145-0.095-0.077-0.149-0.15-0.144-0.313z"></path>
<path d="M20.243 26.424c0.283 0.032 0.452 0.392 0.24 0.629l-4.422 4.49c-0.148 0.137-0.374 0.14-0.525 0.002l-4.485-4.485c-0.26-0.285 0.131-0.879 0.523-0.523l4.221 4.221 4.186-4.248c0.067-0.051 0.103-0.088 0.261-0.086z"></path>
<path d="M15.863 16.871c0.103 0.008 0.197 0.055 0.265 0.132 0.388 0.488 0.752 0.995 1.129 1.493 0.214 0.298-0.246 0.879-0.59 0.446l-0.824-1.091c0 0-0.849 1.106-0.849 1.106-0.248 0.278-0.85-0.048-0.586-0.45 0.369-0.506 0.763-0.994 1.144-1.491 0.077-0.096 0.15-0.149 0.313-0.144z"></path>
</svg>
<svg id="b-slack" width="32" height="32" viewBox="0 0 32 32" x="624" y="48">
<path d="M11.742 0c-1.764 0-3.193 1.433-3.193 3.2 0 0.001 0 0.002 0 0.003 0 1.753 1.441 3.195 3.193 3.197h3.194v-3.2c0.002-1.754-1.44-3.198-3.194-3.2zM11.742 8.533h-8.516c-1.764 0-3.193 1.433-3.193 3.2s1.43 3.2 3.193 3.2h8.517c1.763 0 3.193-1.433 3.193-3.2s-1.43-3.2-3.194-3.2z"></path>
<path d="M31.968 11.733c0-1.768-1.43-3.2-3.194-3.2s-3.193 1.433-3.193 3.2v3.2h3.193c1.754-0.002 3.196-1.446 3.194-3.2zM23.452 11.733v-8.534c0.002-1.754-1.44-3.198-3.194-3.2-1.764 0-3.193 1.433-3.193 3.2v8.533c0 1.768 1.43 3.201 3.193 3.201 1.754-0.002 3.196-1.446 3.194-3.2z"></path>
<path d="M20.258 32c1.754-0.002 3.196-1.446 3.194-3.2 0.002-1.754-1.44-3.198-3.194-3.2h-3.193v3.2c0 1.767 1.43 3.2 3.193 3.2zM20.258 23.467h8.517c1.763 0 3.193-1.433 3.193-3.2 0.002-1.754-1.44-3.198-3.194-3.2h-8.516c-1.764 0-3.193 1.433-3.193 3.2 0 0.001 0 0.002 0 0.003 0 1.753 1.441 3.195 3.193 3.197z"></path>
<path d="M0.032 20.267c0 0.001 0 0.002 0 0.003 0 1.753 1.441 3.195 3.193 3.197 1.754-0.002 3.196-1.446 3.194-3.2v-3.2h-3.194c-1.764 0-3.193 1.433-3.193 3.2zM8.548 20.267v8.533c0 1.768 1.43 3.2 3.193 3.2 1.754-0.002 3.196-1.446 3.194-3.2v-8.534c0-0.001 0-0.002 0-0.003 0-1.753-1.441-3.195-3.194-3.197-1.764 0-3.193 1.433-3.193 3.2z"></path>
</svg>
<svg id="b-tierpoint" width="32" height="32" viewBox="0 0 32 32" x="672" y="48">
<path d="M16 4.133c-6.571 0-11.925 5.323-11.925 11.861s5.355 11.872 11.925 11.872c6.571 0 11.925-5.323 11.925-11.872s-5.355-11.861-11.925-11.861zM16 31.504c-8.587 0-15.573-6.955-15.573-15.509s6.987-15.499 15.573-15.499c8.587 0 15.573 6.955 15.573 15.499s-6.987 15.509-15.573 15.509z"></path>
<path d="M13.141 13.541c0 1.035-0.832 1.867-1.856 1.877-1.035 0-1.867-0.832-1.877-1.856 0-1.035 0.832-1.867 1.856-1.877h0.011c1.035-0.011 1.867 0.821 1.867 1.856z"></path>
<path d="M20.096 24.304c-3.595 0.384-5.493-1.771-5.493-5.12v-10.155h3.136v3.104h2.208v2.773h-2.208v4.309c0 1.707 0.789 2.347 2.357 2.251v2.837z"></path>
</svg>
<svg id="b-rlang" width="41" height="32" viewBox="0 0 41 32" x="0" y="96">
<path d="M20.618 27.718c-11.358 0-20.566-6.167-20.566-13.774s9.208-13.774 20.566-13.774c11.358 0 20.566 6.167 20.566 13.774s-9.208 13.774-20.566 13.774zM23.766 5.556c-8.633 0-15.632 4.216-15.632 9.416s6.999 9.416 15.632 9.416c8.633 0 15.004-2.882 15.004-9.416 0-6.532-6.371-9.416-15.004-9.416z"></path>
<path d="M31.373 21.504c0 0 1.245 0.376 1.968 0.742 0.251 0.127 0.685 0.38 0.998 0.713 0.307 0.326 0.456 0.656 0.456 0.656l4.906 8.271-7.929 0.004-3.708-6.963c0 0-0.759-1.304-1.226-1.683-0.39-0.316-0.556-0.428-0.941-0.428-0.268 0-1.884 0-1.884 0l0.001 9.068-7.016 0.003v-23.164h14.089c0 0 6.417 0.116 6.417 6.221s-6.132 6.56-6.132 6.56zM28.321 13.748l-4.247-0.003-0.002 3.939 4.25-0.001c0 0 1.968-0.006 1.968-2.004 0-2.038-1.968-1.931-1.968-1.931z"></path>
</svg>
</svg>
