<!-- Generated by IcoMoon.io -->
<svg version="1.1" xmlns="http://www.w3.org/2000/svg" width="32" height="32" viewBox="0 0 32 32">
<title>accellion</title>
<path d="M19.867 30.744c-0.274-0.302-0.304-1.222-0.304-9.386v-9.050c0 0 10.562-10.496 12.133-12.041 0.784 0.252 0.138 2.135-3.062 10.596-2.191 5.794-4.684 12.92-7.061 19.438-0.286 0.66-0.419 0.78-0.87 0.78-0.293 0-0.669-0.151-0.836-0.335v-0.001z"></path>
<path d="M28.168 1.073c-7.812 2.815-14.784 4.943-24.379 8.416-3.025 1.039-3.269 1.917-2.088 2.483 6.734 0.174 14.208 0.338 17.862 0.335 1.737-1.6 10.747-10.588 12.133-12.041 0.017 0 0 0 0 0-0.375-0.687-1.494 0.074-3.528 0.806l-0.001 0z"></path>
</svg>
