<!-- Generated by IcoMoon.io -->
<svg version="1.1" xmlns="http://www.w3.org/2000/svg" width="32" height="32" viewBox="0 0 32 32">
<title>artifactory</title>
<path d="M6.012 28.48l-0.141-0.96h20.369v1.92h-20.087zM13.807 22.712c-2.891-0.602-5.845-3.083-7.163-6.018-0.991-2.207-0.985-6.361 0.012-8.534 2.266-4.937 7.87-7.403 12.688-5.585 7.516 2.837 9.187 12.743 3.037 18.007-2.16 1.849-5.699 2.728-8.574 2.13zM18.549 20.934c2.319-0.689 4.807-3.152 5.602-5.548 1.479-4.453-0.536-9.133-4.785-11.111-4.629-2.156-10.336 0.647-11.718 5.755-0.49 1.81-0.196 4.91 0.615 6.501 1.345 2.637 4.743 4.822 7.598 4.887 0.54 0.012 1.749-0.206 2.687-0.484z"></path>
</svg>
