<!-- Generated by IcoMoon.io -->
<svg version="1.1" xmlns="http://www.w3.org/2000/svg" width="32" height="32" viewBox="0 0 32 32">
<title>aws</title>
<path d="M9.122 13.434c0 0.386 0.042 0.699 0.115 0.928 0.083 0.229 0.188 0.48 0.334 0.751 0.052 0.083 0.073 0.167 0.073 0.24 0 0.104-0.063 0.209-0.198 0.313l-0.657 0.438c-0.094 0.063-0.188 0.094-0.271 0.094-0.104 0-0.209-0.052-0.313-0.146-0.146-0.156-0.271-0.323-0.375-0.49-0.104-0.177-0.209-0.375-0.323-0.615-0.814 0.96-1.836 1.439-3.066 1.439-0.876 0-1.575-0.25-2.086-0.751s-0.772-1.168-0.772-2.002c0-0.886 0.313-1.606 0.949-2.148s1.481-0.813 2.555-0.813c0.355 0 0.72 0.031 1.106 0.083s0.782 0.136 1.199 0.229v-0.761c0-0.793-0.167-1.345-0.49-1.669-0.334-0.323-0.897-0.48-1.7-0.48-0.365 0-0.74 0.042-1.126 0.136s-0.761 0.209-1.126 0.355c-0.167 0.073-0.292 0.115-0.365 0.136s-0.125 0.031-0.167 0.031c-0.146 0-0.219-0.104-0.219-0.323v-0.511c0-0.167 0.021-0.292 0.073-0.365s0.146-0.146 0.292-0.219c0.365-0.188 0.803-0.344 1.314-0.469 0.511-0.136 1.053-0.198 1.627-0.198 1.241 0 2.148 0.282 2.732 0.845 0.574 0.563 0.866 1.418 0.866 2.566v3.379h0.021zM4.888 15.020c0.344 0 0.699-0.063 1.074-0.188s0.709-0.355 0.991-0.667c0.167-0.198 0.292-0.417 0.355-0.667s0.104-0.553 0.104-0.907v-0.438c-0.302-0.073-0.626-0.136-0.96-0.177s-0.657-0.063-0.98-0.063c-0.699 0-1.21 0.136-1.554 0.417s-0.511 0.678-0.511 1.199c0 0.49 0.125 0.855 0.386 1.105 0.25 0.261 0.615 0.386 1.095 0.386zM13.262 16.146c-0.188 0-0.313-0.031-0.396-0.104-0.083-0.063-0.156-0.209-0.219-0.407l-2.451-8.062c-0.063-0.209-0.094-0.344-0.094-0.417 0-0.167 0.083-0.261 0.25-0.261h1.022c0.198 0 0.334 0.031 0.407 0.104 0.083 0.063 0.146 0.209 0.209 0.407l1.752 6.904 1.627-6.904c0.052-0.209 0.115-0.344 0.198-0.407s0.229-0.104 0.417-0.104h0.834c0.198 0 0.334 0.031 0.417 0.104 0.083 0.063 0.156 0.209 0.198 0.407l1.648 6.988 1.804-6.988c0.063-0.209 0.136-0.344 0.209-0.407 0.083-0.063 0.219-0.104 0.407-0.104h0.97c0.167 0 0.261 0.083 0.261 0.261 0 0.052-0.010 0.104-0.021 0.167s-0.031 0.146-0.073 0.261l-2.514 8.062c-0.063 0.209-0.136 0.344-0.219 0.407s-0.219 0.104-0.396 0.104h-0.897c-0.198 0-0.334-0.031-0.417-0.104s-0.156-0.209-0.198-0.417l-1.617-6.727-1.606 6.716c-0.052 0.209-0.115 0.344-0.198 0.417s-0.229 0.104-0.417 0.104h-0.897zM26.664 16.428c-0.542 0-1.085-0.063-1.606-0.188s-0.928-0.261-1.199-0.417c-0.167-0.094-0.282-0.198-0.323-0.292s-0.063-0.198-0.063-0.292v-0.532c0-0.219 0.083-0.323 0.24-0.323 0.063 0 0.125 0.010 0.188 0.031s0.156 0.063 0.261 0.104c0.355 0.156 0.741 0.282 1.147 0.365 0.417 0.083 0.824 0.125 1.241 0.125 0.657 0 1.168-0.115 1.523-0.344s0.542-0.563 0.542-0.991c0-0.292-0.094-0.532-0.282-0.73s-0.542-0.375-1.053-0.542l-1.512-0.469c-0.761-0.24-1.325-0.594-1.669-1.064-0.344-0.459-0.521-0.97-0.521-1.512 0-0.438 0.094-0.824 0.282-1.158s0.438-0.626 0.751-0.855c0.313-0.24 0.667-0.417 1.085-0.542s0.855-0.177 1.314-0.177c0.229 0 0.469 0.010 0.699 0.042 0.24 0.031 0.459 0.073 0.678 0.115 0.209 0.052 0.407 0.104 0.594 0.167s0.334 0.125 0.438 0.188c0.146 0.083 0.25 0.167 0.313 0.261 0.063 0.083 0.094 0.198 0.094 0.344v0.49c0 0.219-0.083 0.334-0.24 0.334-0.083 0-0.219-0.042-0.396-0.125-0.594-0.271-1.262-0.407-2.002-0.407-0.594 0-1.064 0.094-1.387 0.292s-0.49 0.501-0.49 0.928c0 0.292 0.104 0.542 0.313 0.741s0.594 0.396 1.147 0.574l1.481 0.469c0.751 0.24 1.293 0.574 1.617 1.001s0.48 0.918 0.48 1.46c0 0.448-0.094 0.855-0.271 1.21-0.188 0.355-0.438 0.667-0.761 0.918-0.323 0.261-0.709 0.448-1.158 0.584-0.469 0.146-0.959 0.219-1.491 0.219z"></path>
<path d="M28.635 21.496c-3.431 2.534-8.416 3.88-12.703 3.88-6.007 0-11.42-2.221-15.508-5.913-0.323-0.292-0.031-0.688 0.355-0.459 4.422 2.566 9.877 4.12 15.519 4.12 3.807 0 7.989-0.793 11.837-2.42 0.574-0.261 1.064 0.375 0.501 0.793z"></path>
<path d="M30.064 19.869c-0.438-0.563-2.899-0.271-4.015-0.136-0.334 0.042-0.386-0.25-0.083-0.469 1.961-1.377 5.183-0.98 5.559-0.521 0.375 0.469-0.104 3.692-1.94 5.236-0.282 0.24-0.553 0.115-0.428-0.198 0.417-1.032 1.345-3.358 0.907-3.911z"></path>
</svg>
