<!-- Generated by IcoMoon.io -->
<svg version="1.1" xmlns="http://www.w3.org/2000/svg" width="32" height="32" viewBox="0 0 32 32">
<title>daybreak</title>
<path d="M25.114 7.856c2.168 2.256 3.501 5.319 3.501 8.692 0 6.925-5.622 12.548-12.548 12.548s-12.548-5.622-12.548-12.548c0-6.925 5.622-12.548 12.548-12.548 2.147 0 4.169 0.54 5.937 1.492l-2.231 11.924c-0.388 1.43-1.219 2.3-2.465 2.645-0.924 0.082-1.873 0-2.862-0.022-1.238-0.028-1.983-1.008-2.326-2.548l-0.086-2.557-3.060-0.809-0.042 4.103c0.252 3.187 2.412 5.029 5.019 5.143 1.52 0.218 2.964 0.211 4.323-0.049 2.517-0.763 4.078-2.301 4.661-4.633l2.179-10.832z"></path>
<path d="M24.796 0.014c1.646 0.031 3.076 1.636 2.841 3.312-0.192 1.369-1.486 2.5-2.878 2.5-1.922 0-3.549-2.296-2.604-4.198 0.474-0.952 1.482-1.594 2.566-1.614 0.038-0 0.037-0 0.075 0zM24.729 0.614c-1.514 0.029-2.753 1.799-2.061 3.28 0.607 1.3 2.57 1.73 3.662 0.714 0.727-0.677 0.94-1.846 0.483-2.738-0.39-0.761-1.22-1.262-2.084-1.257z"></path>
<path d="M25.882 2.915c0 0.618-0.501 1.12-1.12 1.12s-1.12-0.501-1.12-1.12c0-0.618 0.501-1.12 1.12-1.12s1.12 0.501 1.12 1.12z"></path>
</svg>
