<!-- Generated by IcoMoon.io -->
<svg version="1.1" xmlns="http://www.w3.org/2000/svg" width="32" height="32" viewBox="0 0 32 32">
<title>docker</title>
<path d="M27.872 12.355c0.221-1.717-1.064-3.065-1.86-3.705-0.918 1.061-1.061 3.843 0.379 5.014-0.804 0.714-2.497 1.361-4.232 1.361h-21.109c-0.168 1.81 0.149 3.477 0.875 4.904l0.24 0.439c0.152 0.258 0.318 0.507 0.498 0.747 0.868 0.056 1.668 0.075 2.4 0.059h0c1.439-0.032 2.612-0.202 3.502-0.51 0.024-0.008 0.050-0.011 0.075-0.011 0.139 0 0.254 0.115 0.254 0.254 0 0.105-0.065 0.199-0.163 0.237-0.118 0.041-0.242 0.079-0.369 0.116h-0c-0.7 0.2-1.452 0.335-2.421 0.394 0.058 0.001-0.060 0.009-0.060 0.009-0.033 0.002-0.074 0.007-0.108 0.009-0.381 0.021-0.793 0.026-1.214 0.026-0.46 0-0.914-0.009-1.421-0.035l-0.013 0.009c1.759 1.977 4.509 3.162 7.956 3.162 7.296 0 13.484-3.234 16.224-10.495 1.944 0.2 3.813-0.296 4.662-1.955-1.354-0.781-3.094-0.532-4.097-0.028z"></path>
<path d="M27.872 12.355c0.221-1.717-1.064-3.065-1.86-3.705-0.918 1.061-1.061 3.843 0.379 5.014-0.804 0.714-2.497 1.361-4.232 1.361h-19.859c-0.086 2.772 0.943 4.877 2.763 6.149h0c1.439-0.032 2.612-0.202 3.502-0.51 0.024-0.008 0.050-0.011 0.075-0.011 0.139 0 0.254 0.115 0.254 0.254 0 0.105-0.065 0.199-0.163 0.237-0.118 0.041-0.242 0.079-0.369 0.116h-0c-0.7 0.2-1.516 0.352-2.485 0.412-0 0-0.023-0.022-0.024-0.022 2.483 1.274 6.083 1.269 10.21-0.316 4.628-1.778 8.935-5.165 11.94-9.040-0.045 0.021-0.089 0.041-0.132 0.063z"></path>
<path d="M1.090 17.225c0.131 0.97 0.415 1.878 0.835 2.705l0.24 0.439c0.152 0.258 0.318 0.507 0.498 0.747 0.868 0.056 1.668 0.075 2.4 0.059 1.439-0.032 2.612-0.202 3.502-0.51 0.024-0.008 0.050-0.011 0.075-0.011 0.139 0 0.254 0.115 0.254 0.254 0 0.105-0.065 0.199-0.163 0.237-0.118 0.041-0.242 0.079-0.369 0.116h-0c-0.7 0.2-1.512 0.343-2.481 0.403-0.033 0.002-0.091 0.002-0.125 0.004-0.381 0.021-0.789 0.034-1.21 0.034-0.46 0-0.931-0.009-1.438-0.035 1.759 1.977 4.526 3.167 7.973 3.167 6.246 0 11.68-2.371 14.833-7.609h-24.826z"></path>
<path d="M2.491 17.225c0.373 1.703 1.271 3.039 2.573 3.949 1.439-0.032 2.612-0.202 3.502-0.51 0.024-0.008 0.050-0.011 0.075-0.011 0.139 0 0.254 0.115 0.254 0.254 0 0.105-0.065 0.199-0.163 0.237-0.118 0.041-0.242 0.079-0.369 0.116h-0c-0.7 0.2-1.529 0.343-2.498 0.403 2.483 1.273 6.072 1.255 10.2-0.33 2.497-0.959 4.9-2.387 7.056-4.107h-20.629z"></path>
<path d="M3.916 11.659v2.855h2.855v-2.855h-2.855zM4.153 11.897h0.225v2.379h-0.225v-2.379zM4.577 11.897h0.234v2.379h-0.234v-2.379h-0zM5.009 11.897h0.234v2.379h-0.234v-2.379zM5.442 11.897h0.234v2.379h-0.234v-2.379zM5.875 11.897h0.234v2.379h-0.234v-2.379zM6.307 11.897h0.226v2.379h-0.226v-2.379zM7.209 8.365v2.855h2.855v-2.855h-2.855zM7.447 8.603h0.225v2.379h-0.225v-2.379zM7.871 8.603h0.234v2.379h-0.234v-2.379h-0zM8.303 8.603h0.234v2.379h-0.234v-2.379zM8.736 8.603h0.234v2.379h-0.234v-2.379zM9.168 8.603h0.234v2.379h-0.234v-2.379zM9.601 8.603h0.226v2.379h-0.226v-2.379z"></path>
<path d="M7.209 11.659v2.855h2.855v-2.855h-2.855zM7.447 11.897h0.225v2.379h-0.225v-2.379zM7.871 11.897h0.234v2.379h-0.234v-2.379h-0zM8.303 11.897h0.234v2.379h-0.234v-2.379zM8.736 11.897h0.234v2.379h-0.234v-2.379zM9.168 11.897h0.234v2.379h-0.234v-2.379zM9.601 11.897h0.226v2.379h-0.226v-2.379z"></path>
<path d="M10.503 11.659v2.855h2.855v-2.855h-2.855zM10.741 11.897h0.225v2.379h-0.225v-2.379zM11.164 11.897h0.234v2.379h-0.234v-2.379zM11.597 11.897h0.234v2.379h-0.234v-2.379zM12.030 11.897h0.234v2.379h-0.234v-2.379zM12.462 11.897h0.235v2.379h-0.235v-2.379zM12.895 11.897h0.225v2.379h-0.225v-2.379z"></path>
<path d="M10.503 8.365v2.855h2.855v-2.855h-2.855zM10.741 8.603h0.225v2.379h-0.225v-2.379zM11.164 8.603h0.234v2.379h-0.234v-2.379zM11.597 8.603h0.234v2.379h-0.234v-2.379zM12.030 8.603h0.234v2.379h-0.234v-2.379zM12.462 8.603h0.235v2.379h-0.235v-2.379zM12.895 8.603h0.225v2.379h-0.225v-2.379zM13.797 11.659v2.855h2.855v-2.855h-2.855zM14.035 11.897h0.225v2.379h-0.225v-2.379zM14.458 11.897h0.234v2.379h-0.234v-2.379zM14.891 11.897h0.234v2.379h-0.234v-2.379zM15.323 11.897h0.234v2.379h-0.234v-2.379zM15.756 11.897h0.234v2.379h-0.234v-2.379zM16.189 11.897h0.225v2.379h-0.225v-2.379z"></path>
<path d="M13.797 8.365v2.855h2.855v-2.855h-2.855zM14.035 8.603h0.225v2.379h-0.225v-2.379zM14.458 8.603h0.234v2.379h-0.234v-2.379zM14.891 8.603h0.234v2.379h-0.234v-2.379zM15.323 8.603h0.234v2.379h-0.234v-2.379zM15.756 8.603h0.234v2.379h-0.234v-2.379zM16.189 8.603h0.225v2.379h-0.225v-2.379z"></path>
<path d="M13.797 5.071v2.855h2.855v-2.855h-2.855zM14.035 5.309h0.225v2.379h-0.225v-2.379zM14.458 5.309h0.234v2.379h-0.234v-2.379zM14.891 5.309h0.234v2.379h-0.234v-2.379zM15.323 5.309h0.234v2.379h-0.234v-2.379zM15.756 5.309h0.234v2.379h-0.234v-2.379zM16.189 5.309h0.225v2.379h-0.225v-2.379z"></path>
<path d="M17.091 11.659v2.855h2.855v-2.855h-2.855zM17.328 11.897h0.225v2.379h-0.225v-2.379zM17.752 11.897h0.234v2.379h-0.234v-2.379zM18.184 11.897h0.234v2.379h-0.234v-2.379zM18.617 11.897h0.234v2.379h-0.234v-2.379zM19.050 11.897h0.234v2.379h-0.234v-2.379zM19.482 11.897h0.225v2.379h-0.225v-2.379z"></path>
<path d="M9.885 19.141c0.004-0 0.007-0 0.011-0 0.432 0 0.788 0.356 0.788 0.788s-0.356 0.788-0.788 0.788c-0.004 0-0.007 0-0.011 0-0.428-0.006-0.777-0.36-0.777-0.788s0.349-0.782 0.777-0.788z"></path>
<path d="M9.885 19.365c0.072 0 0.141 0.013 0.204 0.038-0.071 0.041-0.115 0.117-0.115 0.199 0 0.126 0.104 0.23 0.23 0.23 0.087 0 0.163-0.048 0.202-0.12 0.028 0.068 0.043 0.142 0.043 0.216 0 0.309-0.255 0.564-0.564 0.564s-0.564-0.255-0.564-0.564c0-0.309 0.254-0.564 0.564-0.564zM-4.044 17.509h36.634c-0.798-0.202-2.524-0.476-2.239-1.521-1.45 1.678-4.948 1.177-5.831 0.35-0.983 1.426-6.706 0.884-7.105-0.227-1.232 1.446-5.051 1.446-6.284 0-0.399 1.111-6.122 1.653-7.105 0.227-0.883 0.828-4.38 1.329-5.831-0.35 0.285 1.045-1.441 1.319-2.239 1.521z"></path>
<path d="M11.979 24.817c-1.95-0.925-3.021-2.184-3.616-3.557-0.725 0.207-1.595 0.339-2.607 0.396-0.381 0.021-0.782 0.032-1.203 0.032-0.485 0-0.996-0.015-1.533-0.043 1.789 1.788 3.989 3.164 8.063 3.189 0.301 0 0.599-0.006 0.896-0.017z"></path>
<path d="M9.087 22.527c-0.27-0.366-0.531-0.827-0.724-1.268-0.725 0.207-1.596 0.339-2.608 0.396 0.695 0.377 1.689 0.727 3.332 0.872z"></path>
</svg>
