<!-- Generated by IcoMoon.io -->
<svg version="1.1" xmlns="http://www.w3.org/2000/svg" width="32" height="32" viewBox="0 0 32 32">
<title>elastic</title>
<path d="M12.294 13.605l7.589 3.46 7.657-6.709c0.111-0.553 0.165-1.105 0.165-1.683 0-4.72-3.84-8.561-8.56-8.561-2.824 0-5.458 1.39-7.059 3.722l-1.274 6.608 1.482 3.163z"></path>
<path d="M4.439 21.642c-0.111 0.553-0.168 1.128-0.168 1.708 0 4.733 3.851 8.583 8.584 8.583 2.847 0 5.494-1.403 7.092-3.759l1.264-6.585-1.687-3.223-7.619-3.473-7.467 6.748z"></path>
<path d="M4.391 8.508l5.201 1.228 1.14-5.913c-0.711-0.543-1.588-0.84-2.49-0.84-2.26 0-4.098 1.839-4.098 4.099 0 0.499 0.083 0.978 0.248 1.427z"></path>
<path d="M3.939 9.747c-2.324 0.77-3.939 2.997-3.939 5.447 0 2.386 1.476 4.516 3.69 5.359l7.297-6.595-1.34-2.862-5.708-1.348z"></path>
<path d="M21.282 28.174c0.713 0.548 1.586 0.847 2.478 0.847 2.26 0 4.098-1.838 4.098-4.098 0-0.498-0.083-0.977-0.248-1.426l-5.197-1.216-1.131 5.893z"></path>
<path d="M22.339 20.92l5.721 1.338c2.325-0.768 3.94-2.997 3.94-5.447 0-2.381-1.479-4.509-3.698-5.349l-7.482 6.555 1.519 2.904z"></path>
</svg>
