<!-- Generated by IcoMoon.io -->
<svg version="1.1" xmlns="http://www.w3.org/2000/svg" width="32" height="32" viewBox="0 0 32 32">
<title>elasticsearch</title>
<path d="M22.84 11.2h-8.36c0.040 0.2 0.12 0.4 0.16 0.56 0.28 0.96 0.44 1.96 0.52 3 0.040 0.4 0.040 0.84 0.040 1.24s0 0.84-0.040 1.24c-0.080 1.040-0.24 2.040-0.52 3-0.040 0.2-0.12 0.4-0.16 0.56h8.36c2.64 0 4.76-2.16 4.76-4.8s-2.12-4.8-4.76-4.8z"></path>
<path d="M15.16 17.24c0.040-0.4 0.040-0.84 0.040-1.24s0-0.84-0.040-1.24c-0.080-1.040-0.24-2.040-0.52-3-0.040-0.2-0.12-0.4-0.16-0.56h-12.96c-0.48 1.52-0.72 3.12-0.72 4.8s0.24 3.28 0.72 4.8h12.92c0.040-0.2 0.12-0.4 0.16-0.56 0.28-0.96 0.48-1.96 0.56-3z"></path>
<path d="M24.28 22.4h-10.4c-0.32 0.72-0.68 1.4-1.080 2.040-0.6 1-1.32 1.88-2.12 2.72-0.28 0.28-0.56 0.52-0.84 0.8-0.56 0.52-1.2 0.96-1.84 1.4 2.52 1.68 5.56 2.64 8.8 2.64 5.56 0 10.44-2.84 13.32-7.12-1.48-1.52-3.56-2.48-5.84-2.48z"></path>
<path d="M12.8 24.44c0.4-0.64 0.76-1.32 1.080-2.040h-11.76c1.24 2.84 3.28 5.28 5.88 6.96 0.64-0.44 1.24-0.88 1.84-1.4 0.28-0.24 0.56-0.52 0.84-0.8 0.76-0.8 1.48-1.72 2.12-2.72z"></path>
<path d="M10.64 4.84c-0.28-0.28-0.56-0.52-0.84-0.8-0.56-0.52-1.2-0.96-1.84-1.4-2.52 1.68-4.56 4.12-5.84 6.96h11.72c-0.32-0.72-0.68-1.4-1.080-2.040-0.6-1-1.32-1.92-2.12-2.72z"></path>
<path d="M16.8 0c-3.24 0-6.28 0.96-8.8 2.64 0.64 0.44 1.24 0.88 1.84 1.4 0.28 0.24 0.56 0.52 0.84 0.8 0.8 0.84 1.52 1.72 2.12 2.72 0.4 0.64 0.76 1.32 1.080 2.040h10.4c2.28 0 4.36-0.96 5.84-2.48-2.88-4.28-7.76-7.12-13.32-7.12z"></path>
</svg>
