<!-- Generated by IcoMoon.io -->
<svg version="1.1" xmlns="http://www.w3.org/2000/svg" width="37" height="32" viewBox="0 0 37 32">
<title>googlecloud</title>
<path d="M8.553 16.866c0.977 1.674 3.021 5.177 4.004 6.861 0.341 0.584 0.969 0.942 1.646 0.938 1.925-0.012 5.894-0.038 7.803-0.050 0.665-0.004 1.278-0.357 1.616-0.929 0.994-1.682 3.092-5.235 4.11-6.957 0.355-0.601 0.35-1.35-0.013-1.946-1.039-1.705-3.18-5.218-4.194-6.883-0.346-0.567-0.962-0.913-1.627-0.912-1.908 0.002-5.88 0.007-7.813 0.009-0.683 0.001-1.311 0.371-1.643 0.968-0.96 1.727-2.958 5.321-3.908 7.029-0.324 0.584-0.317 1.295 0.020 1.872zM18.105 11.442c2.596 0 4.704 2.108 4.704 4.704s-2.108 4.704-4.704 4.704-4.704-2.108-4.704-4.704c0-2.596 2.108-4.704 4.704-4.704z"></path>
<path d="M21.93 6.92c0.654 0.015 1.281 0.366 1.635 0.917 1.428 2.302 2.839 4.614 4.229 6.939 0.342 0.595 0.348 1.356 0.013 1.957-1.361 2.35-2.743 4.687-4.144 7.014-0.347 0.557-0.97 0.914-1.625 0.934-2.622 0.038-5.245 0.056-7.868 0.051-0.666-0.012-1.303-0.373-1.655-0.943-1.365-2.295-2.711-4.601-4.037-6.918-0.318-0.577-0.325-1.3-0.020-1.882 1.294-2.373 2.606-4.736 3.94-7.087 0.341-0.579 0.977-0.955 1.652-0.973 2.626-0.025 5.253-0.028 7.879-0.009zM14.085 7.064c-0.637 0.006-1.245 0.357-1.569 0.906-1.332 2.35-2.644 4.711-3.938 7.083-0.285 0.544-0.277 1.216 0.018 1.753 1.326 2.316 2.671 4.621 4.035 6.914 0.327 0.53 0.92 0.867 1.541 0.878 2.621 0.005 5.242-0.012 7.863-0.051 0.609-0.019 1.19-0.352 1.513-0.87 1.4-2.325 2.781-4.661 4.141-7.010 0.311-0.559 0.308-1.265-0.013-1.822-1.389-2.324-2.799-4.635-4.226-6.935-0.331-0.514-0.913-0.84-1.523-0.854-2.614-0.018-5.229 0.006-7.843 0.009zM18.167 11.375c2.177 0.041 4.21 1.71 4.624 3.868 0.411 2.142-0.858 4.493-2.883 5.321-2.217 0.907-5.050-0.166-6.103-2.35-1.088-2.256-0.036-5.309 2.285-6.393 0.61-0.285 1.279-0.433 1.954-0.446 0.062-0 0.062-0 0.123 0zM18.045 11.51c-2.122 0.040-4.092 1.669-4.493 3.758-0.399 2.082 0.834 4.366 2.801 5.17 2.154 0.881 4.907-0.162 5.93-2.284 1.058-2.194 0.035-5.158-2.22-6.212-0.592-0.277-1.243-0.42-1.898-0.433-0.060-0-0.060-0-0.12 0z"></path>
<path d="M20.103 31.165l3.203-6.22c0.232-0.061 0.434-0.213 0.555-0.428 1.059-1.872 5.001-8.841 5.001-8.841l-5.129-8.671c3.63-0.126 6.376-0.241 6.887-0.263l4.481 7.575c0.492 0.832 0.502 1.864 0.026 2.706-1.66 2.935-5.562 9.833-7.23 12.781-0.48 0.849-1.382 1.374-2.357 1.372l-5.438-0.011z"></path>
<path d="M30.641 6.678c0.021 0.012 0.021 0.012 0.037 0.030 1.502 2.538 3.024 5.064 4.505 7.615 0.461 0.825 0.47 1.86 0.026 2.693-2.389 4.307-4.814 8.595-7.275 12.862-0.497 0.829-1.423 1.359-2.393 1.365l-5.438-0.011c-0.063-0.011-0.075-0.051-0.060-0.098l3.203-6.22c0.042-0.060 0.065-0.040 0.102-0.052 0.19-0.068 0.352-0.203 0.454-0.378l4.981-8.806-5.118-8.659c-0.001-0.041 0.009-0.069 0.064-0.080 2.195-0.077 4.394-0.16 6.593-0.251l0.294-0.012c0.008 0.001 0.016 0.002 0.024 0.003zM30.329 6.822c-2.16 0.089-4.32 0.171-6.48 0.247l5.072 8.573c0.014 0.038 0.006 0.053 0.001 0.068-1.671 2.954-3.304 5.93-5.013 8.862-0.127 0.205-0.325 0.36-0.555 0.43l-3.139 6.096c1.791 0.004 3.581 0.022 5.371 0.011 0.322-0.008 0.437-0.034 0.65-0.091 0.656-0.178 1.229-0.619 1.582-1.207 2.46-4.266 4.885-8.552 7.273-12.858 0.43-0.806 0.411-1.81-0.047-2.6l-4.46-7.54c-0.085 0.004-0.169 0.007-0.254 0.011z"></path>
<path d="M30.515 6.442l-6.99 0.291c-0.168-0.172-0.4-0.272-0.646-0.271-2.151 0.005-10.157 0.025-10.157 0.025l-5.001 8.746c-1.904-3.092-3.362-5.423-3.634-5.857l4.369-7.641c0.48-0.839 1.372-1.358 2.339-1.361 3.372-0.008 11.297-0.027 14.684-0.035 0.976-0.002 1.877 0.522 2.358 1.371l2.679 4.732z"></path>
<path d="M25.525 0.272c0.968 0.022 1.885 0.566 2.37 1.405l2.679 4.732c0.022 0.060-0.007 0.090-0.056 0.101l-6.991 0.291c-0.080-0.008-0.326-0.268-0.649-0.271l-10.117 0.024-4.996 8.73c-0.035 0.021-0.064 0.026-0.101-0.016-1.152-1.87-2.311-3.74-3.478-5.607l-0.156-0.249c-0.016-0.039-0.007-0.054-0.001-0.069 1.464-2.56 2.907-5.133 4.392-7.681 0.489-0.808 1.385-1.328 2.328-1.354 4.926-0.053 9.852-0.065 14.777-0.036zM10.795 0.442c-0.927 0.010-1.814 0.526-2.281 1.327l-4.349 7.605c1.093 1.746 2.18 3.499 3.262 5.252l0.292 0.474c0 0 4.959-8.665 4.959-8.665 0.020-0.012 0.020-0.012 0.043-0.016 3.394-0.008 6.788-0.059 10.182-0.024 0.241 0.009 0.474 0.104 0.648 0.269l6.851-0.286c-0.882-1.558-1.751-3.124-2.647-4.674-0.166-0.276-0.245-0.363-0.401-0.52-0.479-0.482-1.146-0.762-1.831-0.778-4.909-0.030-9.819 0.023-14.728 0.035z"></path>
<path d="M3.86 9.747l3.761 5.9c-0.064 0.231-0.034 0.482 0.090 0.695 1.084 1.858 5.12 8.772 5.12 8.772l10.074-0.065c-1.719 3.199-3.002 5.63-3.241 6.083l-8.801 0.057c-0.967 0.006-1.864-0.505-2.351-1.34-1.7-2.912-5.694-9.757-7.401-12.682-0.492-0.843-0.491-1.885 0.002-2.727l2.748-4.692z"></path>
<path d="M3.881 9.683c0.020 0.011 0.020 0.011 0.036 0.028l3.761 5.9c0.034 0.073-0.068 0.416 0.091 0.697l5.1 8.738c0 0 10.058-0.061 10.058-0.061 0.036 0.020 0.055 0.042 0.037 0.096-1.039 1.935-2.075 3.877-3.103 5.822 0 0-0.072 0.273-0.197 0.296-2.949 0.019-5.898 0.062-8.848 0.057-0.942-0.017-1.842-0.528-2.34-1.333-2.518-4.233-5.002-8.488-7.448-12.763-0.467-0.849-0.457-1.915 0.025-2.755l2.748-4.692c0.036-0.043 0.053-0.034 0.080-0.030zM1.171 14.473c-0.459 0.798-0.468 1.814-0.024 2.621 2.446 4.274 4.929 8.527 7.446 12.759 0.48 0.777 1.356 1.267 2.27 1.269l8.761-0.057c0.961-1.822 1.932-3.642 2.905-5.457l0.263-0.49c0 0-9.984 0.060-9.984 0.060-0.020-0.012-0.020-0.012-0.036-0.030-1.711-2.931-3.459-5.841-5.132-8.794-0.114-0.213-0.148-0.462-0.092-0.696l-3.686-5.782c-0.897 1.532-1.794 3.064-2.692 4.597z"></path>
</svg>
