<!-- Generated by IcoMoon.io -->
<svg version="1.1" xmlns="http://www.w3.org/2000/svg" width="30" height="32" viewBox="0 0 30 32">
<title>mailchimp</title>
<path d="M30.011 20.745c-0.216-0.462-0.628-0.78-1.145-0.902-0.173-0.79-0.412-1.177-0.434-1.235 0.091-0.104 0.179-0.208 0.199-0.233 0.73-0.906 0.254-2.232-0.994-2.545-0.702-0.675-1.337-0.993-1.859-1.254-0.5-0.25-0.301-0.152-0.77-0.364-0.125-0.61-0.166-2.030-0.364-3.026-0.178-0.896-0.537-1.546-1.090-1.972-0.221-0.479-0.532-0.963-0.906-1.318 1.74-2.668 2.199-5.303 0.924-6.683-0.567-0.614-1.41-0.906-2.419-0.906-1.419 0-3.165 0.579-4.928 1.649 0 0-1.148-0.923-1.172-0.943-4.91-3.867-18.796 13.221-13.895 16.955l1.265 0.967c-0.794 2.21 0.31 4.844 2.613 5.69 0.509 0.187 1.061 0.278 1.633 0.246 0 0 3.72 6.821 11.567 6.823 9.079 0.003 11.389-8.878 11.413-8.958 0 0.001 0.736-1.087 0.362-1.99zM1.535 16.837c-0.995-1.679 0.736-5.128 1.968-7.088 3.044-4.845 8.111-8.668 10.412-8.122l0.633-0.242c0.002 0.002 1.728 1.461 1.731 1.462 1.189-0.714 2.703-1.441 4.12-1.586-0.862 0.194-1.912 0.641-3.156 1.402-0.030 0.018-2.944 1.984-4.724 3.75-0.97 0.962-4.866 5.634-4.862 5.629 0.712-1.347 1.181-2.009 2.308-3.426 0.638-0.801 1.318-1.581 2.014-2.301 0.323-0.334 0.65-0.656 0.977-0.961 0.225-0.209 0.451-0.411 0.676-0.604 0.104-0.089 0.207-0.175 0.31-0.26l0.001-0.001-2.283-1.885 0.121 0.845 1.66 1.462s-1.468 0.989-2.199 1.612c-2.928 2.498-5.801 6.334-6.87 10.067l0.051-0.002c-0.532 0.294-1.061 0.764-1.522 1.405-0.011-0.003-1.194-0.871-1.362-1.156zM6.377 23.85c-1.754 0-3.176-1.497-3.176-3.343s1.422-3.343 3.176-3.343c0.455 0 0.887 0.101 1.278 0.282 0 0 0.675 0.34 0.865 1.948 0.198-0.502 0.297-0.915 0.297-0.915 0.226 0.692 0.342 1.419 0.296 2.155 0.188-0.249 0.389-0.72 0.389-0.72 0.35 2.055-1.149 3.936-3.125 3.936zM10.287 12.042s1.366-2.596 4.367-4.314c-0.223-0.036-0.77 0.034-0.866 0.045 0.545-0.469 1.558-0.782 2.258-0.924-0.205-0.13-0.693-0.163-0.935-0.17-0.071-0.002-0.071-0.001-0.156 0.002 0.659-0.368 1.879-0.584 2.988-0.389-0.139-0.185-0.455-0.32-0.677-0.386-0.020-0.006-0.107-0.027-0.107-0.027l0.083-0.020c0.668-0.129 1.45 0.011 2.067 0.259-0.070-0.163-0.242-0.352-0.371-0.472-0.013-0.013-0.090-0.068-0.090-0.068 0.646 0.134 1.265 0.416 1.731 0.736-0.063-0.123-0.22-0.329-0.329-0.441 0.617 0.177 1.311 0.617 1.608 1.248 0.007 0.014 0.026 0.066 0.028 0.072-1.17-0.9-4.585-0.645-8.004 1.571-1.564 1.014-2.712 2.124-3.597 3.277zM28.735 22.295c-0.041 0.081-0.472 2.41-2.933 4.345-3.109 2.442-7.192 2.195-8.735 0.827-0.824-0.771-1.181-1.873-1.181-1.873s-0.093 0.621-0.109 0.865c-0.621-1.057-0.569-2.348-0.569-2.348s-0.331 0.619-0.483 0.965c-0.457-1.164-0.221-2.367-0.221-2.367l-0.362 0.539s-0.17-1.318 0.247-2.415c0.446-1.173 1.309-2.025 1.479-2.131-0.655-0.208-1.41-0.805-1.411-0.806 0 0 0.3 0.020 0.509-0.028 0 0-1.324-0.949-1.557-2.4 0.192 0.237 0.595 0.505 0.595 0.505-0.13-0.38-0.209-1.225-0.088-2.057l0.001-0.001c0.251-1.589 1.56-2.624 3.043-2.611 1.579 0.014 2.638 0.345 3.962-0.876 0.28-0.259 0.504-0.481 0.897-0.568 0.041-0.009 0.144-0.053 0.355-0.053 0.214 0 0.419 0.048 0.607 0.16 0.718 0.427 0.873 1.542 0.95 2.36 0.285 3.032 0.17 2.492 1.397 3.117 0.586 0.298 1.243 0.581 1.992 1.382 0.002 0.002 0.006 0.006 0.006 0.006h0.009c0.631 0.015 0.956 0.512 0.666 0.874-2.118 2.529-5.077 3.741-8.373 3.842-0.136 0.003-0.443 0.011-0.444 0.011-1.332 0.041-1.765 1.763-0.93 2.799 0.528 0.655 1.543 0.87 2.38 0.873l0.012-0.004c3.605 0.073 7.226-2.478 7.852-3.884 0.004-0.011 0.043-0.099 0.043-0.099-0.145 0.17-3.656 3.476-7.923 3.356 0 0-0.467-0.010-0.906-0.112-0.579-0.134-1.019-0.39-1.188-0.967 0.354 0.071 0.802 0.116 1.322 0.116 3.080 0 5.299-1.4 5.068-1.419-0.009 0-0.018 0.002-0.034 0.006-0.359 0.083-4.061 1.518-6.402 0.782 0.006-0.071 0.017-0.141 0.034-0.203 0.208-0.697 0.578-0.6 1.176-0.626 2.135-0.071 3.858-0.608 5.15-1.221 1.377-0.654 2.426-1.496 2.805-1.921 0.49 0.826 0.488 1.886 0.488 1.886s0.192-0.067 0.447-0.067c0.797 0.001 0.962 0.717 0.357 1.443zM18.276 23.255c0-0.003-0.001-0.007-0.001-0.011 0.001 0.003 0.001 0.007 0.001 0.011zM18.275 23.24c-0.001-0.009-0.001-0.018-0.001-0.027-0.001-0.046-0.002-0.093 0-0.142-0.001 0.052-0.001 0.099 0 0.142 0.001 0.009 0.001 0.019 0.001 0.027zM18.283 23.342c0 0.001 0 0.003 0.001 0.004 0-0.001 0-0.003-0.001-0.004zM18.285 23.351c0.014 0.111 0.036 0.162 0.039 0.168-0.016-0.034-0.029-0.094-0.039-0.168zM13.715 2.246l0.201-0.619 0.342 1.242-0.422-0.137-0.121-0.486zM15.283 3.487l-0.254-0.882 0.699 0.586c-0.157 0.101-0.305 0.2-0.445 0.296zM18.275 23.24c-0.001-0.009-0.001-0.018-0.001-0.027 0.001 0.009 0.001 0.019 0.001 0.027zM18.274 23.213c-0.001-0.046-0.002-0.093 0-0.142-0.002 0.053-0.002 0.099 0 0.142zM18.276 23.255c0-0.003-0.001-0.007-0.001-0.011zM18.284 23.347c0-0.001 0-0.003-0.001-0.004zM18.285 23.351c0.014 0.111 0.036 0.162 0.039 0.168-0.016-0.034-0.029-0.094-0.039-0.168zM21.935 13.64c-0.005-0.235 0.033-0.625 0.254-0.697h0.001c0.379-0.132 0.881 0.839 0.904 1.701-0.3-0.15-0.652-0.214-1.014-0.182-0.091-0.278-0.134-0.539-0.146-0.822zM14.515 4.038l-0.952-0.797 1.441 0.44c-0.186 0.132-0.35 0.252-0.489 0.357zM16.455 15.734c-0.239 0.091-0.408 0.162-0.49 0.15-0.132-0.020-0.004-0.263 0.286-0.498 0.584-0.465 1.384-0.61 2.069-0.355 0.3 0.11 0.636 0.331 0.813 0.588 0.067 0.097 0.085 0.171 0.057 0.202-0.054 0.063-0.246-0.022-0.529-0.132-0.725-0.27-1.26-0.312-2.206 0.046zM17.475 16.752c-0.162 0.066-0.267 0.116-0.31 0.082s-0.001-0.17 0.151-0.316c0.132-0.127 0.268-0.198 0.425-0.264 0.025-0.011 0.050-0.020 0.077-0.027 0.073-0.020 0.146-0.044 0.226-0.056 0.639-0.109 1.107 0.246 1.046 0.349-0.027 0.048-0.146 0.037-0.322 0.025-0.366-0.025-0.75-0.019-1.293 0.207zM6.092 18.896c-0.13 0.027-0.057 0.012-0.185 0.048-0.022 0.006-0.040 0.012-0.057 0.019l0.003-0.001c-0.041 0.019-0.078 0.032-0.114 0.051-0.030 0.017-0.285 0.13-0.493 0.384-0.28 0.347-0.381 0.801-0.364 1.238 0.017 0.425 0.142 0.659 0.165 0.717 0.097 0.207-0.13 0.25-0.336 0.027l-0.001-0.001c-0.165-0.174-0.27-0.441-0.322-0.677-0.209-0.977 0.227-1.96 1.234-2.352 0.056-0.022 0.122-0.036 0.175-0.051h-0.001c0.103-0.031 0.471-0.105 0.846-0.047 0.411 0.064 0.774 0.27 1.004 0.537l0.001 0.001c0.177 0.201 0.31 0.485 0.287 0.738v0.001c-0.009 0.105-0.055 0.256-0.15 0.295-0.035 0.015-0.071 0.007-0.095-0.017-0.069-0.067-0.015-0.205-0.182-0.441-0.222-0.313-0.722-0.614-1.415-0.467zM8.213 21.080c0.132 0.758-0.42 1.436-1.087 1.45-0.467 0.011-0.722-0.282-0.677-0.345 0.021-0.030 0.093-0.017 0.202-0.001 0.596 0.093 0.957-0.27 1.044-0.651 0.001-0.006 0.025-0.108 0.024-0.178 0.005-0.062-0.002-0.123-0.011-0.179-0.070-0.394-0.522-0.468-0.813-0.781-0.261-0.283-0.209-0.646-0.046-0.82 0.197-0.194 0.479-0.123 0.475-0.055 0 0.036-0.068 0.064-0.152 0.122-0.109 0.077-0.124 0.151-0.096 0.279 0.018 0.070 0.050 0.116 0.118 0.17 0.244 0.193 0.9 0.329 1.019 0.99zM23.127 15.372c0.181 0.028 0.296 0.252 0.257 0.5s-0.216 0.426-0.397 0.397c-0.181-0.028-0.296-0.252-0.257-0.5s0.216-0.425 0.397-0.397zM21.143 16.095c0.099-0.181 0.381-0.218 0.63-0.081s0.369 0.394 0.27 0.575c-0.099 0.181-0.381 0.218-0.63 0.081s-0.37-0.393-0.27-0.575z"></path>
</svg>
