<!-- Generated by IcoMoon.io -->
<svg version="1.1" xmlns="http://www.w3.org/2000/svg" width="32" height="32" viewBox="0 0 32 32">
<title>matomo</title>
<path d="M21.705 19.585l2.058 3.415c3.732 3.659 9.214 0.332 7.638-4.677l-5.7-8.575c0.658 1.784 0.487 3.404-0.685 4.825l-3.311 5.011z"></path>
<path d="M9.419 20.315c0 2.451-1.987 4.437-4.437 4.437s-4.437-1.987-4.437-4.437c0-2.451 1.987-4.437 4.437-4.437s4.437 1.987 4.437 4.437z"></path>
<path d="M25.898 11.211c0 2.451-1.987 4.437-4.437 4.437s-4.437-1.987-4.437-4.437c0-2.451 1.987-4.437 4.437-4.437s4.437 1.987 4.437 4.437z"></path>
<path d="M1.695 16.925l5.343-8.344c2.184-2.233 4.691-2.301 6.892-0.148l4.267 6.023c2.183 1.98 4.36 1.846 6.62-0.036l-5.431 8.319c-2.139 2.208-4.443 2.253-6.938-0.221l-4.527-5.916c-1.971-1.445-4.008-1.327-6.224 0.322z"></path>
</svg>
