<!-- Generated by IcoMoon.io -->
<svg version="1.1" xmlns="http://www.w3.org/2000/svg" width="40" height="32" viewBox="0 0 40 32">
<title>monit</title>
<path d="M5.291 7.199c0.186 3.163 0.811 5.93 2.121 8.082-0.272 2.187-0.331 4.246-0.072 6.116 0.384 2.564 1.786 5.017 3.219 6.208 0.737-3.719 0.128-8.252 0.041-12.283 0.86 0.715 1.693 0.914 2.51 0.828-0.274-1.168-0.903-2.003-1.905-2.487-0.282-0.818 0.102-1.29 0.94-1.525 1.094 0.233 2.201 0.746 3.33 1.761 1.366 0.587 2.583 0.55 3.678 0.014 0.22-0.813 0.63-1.343 1.138-1.731 0.795 0.591 1.235 1.15 1.373 1.681 1.126 0.418 2.165 0.397 3.133 0.010 1.193-0.882 2.482-1.528 3.838-2.013 1.318 0.233 1.87 0.858 1.898 1.752-1.189 0.203-2.179 0.96-2.993 2.203 0.952 0.279 1.873 0.184 2.762-0.285-0.295 3.968-0.286 7.96-0.094 11.967 1.788-1.050 2.59-3.074 3.219-5.27 0.189-2.692 0.214-5.292 0.096-7.816 0.628-0.302 1.106-1.268 1.289-3.548l0.413-3.072c0.135-0.506 0.411-0.816 0.856-0.892 0.361 0.055 0.573 0.281 0.637 0.679l0.144 2.602c-0.032 1 0.22 1.646 0.952 1.69 0.604-0.25 0.831-0.788 0.787-1.533 0.398-1.247 0.495-2.431 0.205-3.537 0.011-0.579-0.523-1.157-2.995-1.731-1.364-0.33-2.705-0.421-4.013-0.162l-1.087-0.138c-2.165-1.586-4.041-2.528-5.681-2.948-1.176-0.224-2.27-0.239-3.273-0.012-0.601 0.295-1.242 0.508-1.925 0.628-0.463-0.155-0.925-0.356-1.387-0.645-1.119-0.145-2.187-0.133-3.204 0.037-1.846 0.621-3.554 1.582-5.084 2.982l-0.96 0.905-0.987-1.063c-0.634-0.29-1.328-0.331-2.076-0.146-0.397 0.168-0.815 0.513-1.26 1.067l-1.428 0.252c-0.523 0.211-0.825 0.547-0.977 0.967-0.606 1.011-0.623 2.431-0.51 3.94-0.062 0.766 0.272 1.138 0.912 1.206 0.538 0.025 0.746-0.495 0.674-1.478l0.188-3.056 0.821-0.478 0.737 0.273z"></path>
<path d="M39.199 6.814c0.276 1.174 0.139 2.416-0.218 3.57 0.032 0.73-0.285 1.504-0.988 1.819 0 0-0.697 0.083-1.096-0.378-0.378-0.437-0.425-1.059-0.414-1.61l-0.141-2.597c-0.051-0.291-0.271-0.38-0.453-0.246-0.158 0.115-0.241 0.31-0.292 0.492l-0.409 3.037c-0.008 0.103-0.017 0.205-0.027 0.307s-0.021 0.202-0.032 0.302c-0.139 1.163-0.319 2.436-1.211 3.101 0 0 0.088 2.544 0.032 4.632-0.026 1.003-0.077 2.005-0.145 3.006 0 0-0.277 1.018-0.577 1.808-0.559 1.469-1.402 2.879-2.738 3.709 0 0-0.105 0.082-0.22 0.101-0.207 0.034-0.393-0.035-0.438-0.356-0.176-3.773-0.197-7.52 0.042-11.264 0 0 0.257-0.184-0.271-0.036-0.693 0.184-1.428 0.168-2.12-0.023 0 0-0.56-0.148-0.137-0.764 0.683-0.976 1.618-1.795 2.762-2.109 0 0-0.042-0.226-0.168-0.404-0.287-0.402-0.798-0.565-1.257-0.661l-0.015-0.003c-1.296 0.469-2.53 1.112-3.646 1.927 0 0-0.683 0.279-1.253 0.343-0.715 0.080-1.441-0.025-2.122-0.263-0.38-0.132-0.449-0.661-0.753-1.022-0.218-0.259-0.591-0.568-0.591-0.568-0.367 0.343-0.62 0.793-0.763 1.276 0 0-0.088 0.256-0.387 0.388-1.174 0.518-2.547 0.442-3.759-0.056 0 0-0.934-0.785-1.77-1.213-0.463-0.237-0.954-0.414-1.461-0.532 0 0-0.818 0.149-0.642 0.871 0.984 0.517 1.665 1.503 1.943 2.606 0 0 0.123 0.521-0.613 0.54-0.641 0.017-1.278-0.158-1.839-0.475l-0.013-0.007c0.132 3.868 0.653 7.789-0.052 11.525 0 0-0.041 0.273-0.23 0.359-0.337 0.156-0.617-0.226-0.898-0.514-1.964-2.018-2.895-4.933-3.008-7.735-0.058-1.42 0.034-2.841 0.199-4.258 0 0 0.035-0.013-0.228-0.497-1.199-2.267-1.67-4.85-1.852-7.424l-0.343-0.177-0.491 0.286-0.174 2.83c0.005 0.070 0.009 0.141 0.011 0.211 0.002 0.075 0.002 0.149 0.001 0.224-0.009 0.418-0.075 0.892-0.401 1.189-0.686 0.627-2.028-0.083-1.956-1.34 0 0-0.015-0.245-0.025-0.412-0.008-0.143-0.008-0.141-0.014-0.284-0.044-1.186 0.005-2.427 0.587-3.419 0.203-0.542 0.664-1.039 1.253-1.177l1.29-0.228c0.457-0.541 0.984-1.043 1.752-1.162 0.711-0.111 1.533-0.168 2.065 0.333l0.728 0.784 0.685-0.645c1.487-1.353 3.238-2.378 5.132-3.034 0 0 1.919-0.271 3.354-0.097 0.214 0.026 0.834 0.418 1.475 0.645 0.069-0.013 0.138-0.028 0.206-0.043 0.527-0.12 1.038-0.3 1.524-0.536 0 0 1.935-0.29 3.283-0.060 0.209 0.035 1.288 0.333 2.172 0.728 1.345 0.6 2.595 1.392 3.786 2.252l0.953 0.135c1.855-0.359 3.836-0.043 5.667 0.62 0.847 0.307 1.69 0.753 1.732 1.624 0 0.006-0.017-0.083 0.015 0.047zM4.685 6.571l0.803 0.305c0.212 0.16 0.19 0.465 0.209 0.738 0.196 2.606 0.696 5.236 2.039 7.472 0 0-0.032 0.886-0.094 1.642-0.295 3.606 0.175 7.456 2.658 10.114l0.007 0.008c0.574-3.728 0.013-7.676-0.080-11.328-0.004-0.151-0.014-0.335 0.094-0.453 0.402-0.444 1.165 0.644 2.274 0.717 0 0-0.505-1.267-1.556-1.784 0 0-0.592-0.93-0.026-1.627 0.314-0.387 1.029-0.6 1.029-0.6 0.261-0.053 0.271 0.012 0.4 0.043 1.206 0.301 2.315 0.933 3.24 1.757 1.005 0.425 2.16 0.5 3.159 0.067 0.020-0.063 0.041-0.125 0.064-0.186 0.239-0.64 0.619-1.304 1.217-1.611 0.245-0.125 0.495 0.094 0.764 0.323 0.44 0.373 0.847 0.815 1.067 1.355 0 0 0.811 0.284 1.428 0.268 0.516-0.014 1.236-0.252 1.236-0.252 0.202-0.148 0.203-0.148 0.423-0.299 1.040-0.697 2.175-1.262 3.341-1.689 0.888-0.326 2.434 0.591 2.528 1.952 0.034 0.48-0.757 0.542-1.259 0.797-0.575 0.292-1.054 0.744-1.456 1.252l-0.011 0.013c0.667 0.086 1.349-0.060 1.947-0.371 0 0 0.54-0.111 0.552 0.363-0.273 3.736-0.278 7.452-0.126 11.172l0.003 0.068c1.358-1.086 1.983-2.86 2.498-4.638 0.165-2.414 0.205-4.837 0.113-7.26l-0.017-0.544c0.078-0.316 0.473-0.427 0.659-0.748 0.468-0.805 0.546-1.809 0.627-2.785l0.414-3.082c0.117-0.57 0.542-1.080 1.113-1.204 0 0 0.514-0.015 0.824 0.314 0.179 0.191 0.279 0.448 0.309 0.706l0.145 2.617c-0.004 0.128-0.004 0.256 0.004 0.384 0.004 0.060 0.009 0.12 0.015 0.179 0.005 0.043 0.011 0.086 0.019 0.129 0.047 0.258 0.181 0.561 0.469 0.617 0 0 0.133-0.072 0.206-0.143 0.382-0.369 0.285-1.117 0.285-1.117 0.339-1.074 0.481-2.236 0.199-3.328 0 0-0.104-0.448-0.407-0.646-1.11-0.726-2.534-0.95-3.845-1.074-0.773-0.073-1.556-0.045-2.318 0.103l-0.12 0.004-1.087-0.138c-0.11-0.024-0.367-0.21-0.574-0.356-1.585-1.116-3.281-2.113-5.142-2.598-0.1-0.019-0.1-0.018-0.201-0.036-1.028-0.169-2.147-0.311-3.063 0.107-0.723 0.321-1.65 0.648-2.064 0.504-0.448-0.156-0.878-0.354-1.285-0.596l-0.019-0.011c-0.938-0.118-1.892-0.117-2.829 0.016 0 0-0.775 0.234-1.368 0.495-1.355 0.598-2.609 1.424-3.706 2.421l-0.957 0.902c-0.254 0.197-0.325 0.169-0.537-0.017l-0.933-1.005c-0.546-0.227-1.165-0.244-1.732-0.101-0.333 0.084-0.756 0.536-1.086 0.945 0 0-0.017 0.077-0.228 0.134l-1.387 0.245c-0.431 0.18-0.758 0.794-0.758 0.794-0.625 1.065-0.553 2.427-0.459 3.721 0 0-0.156 0.73 0.484 0.844 0.306 0.054 0.38-0.572 0.348-1.065l0.188-3.104c0 0 0.040-0.197 0.187-0.303l0.821-0.478c0.099-0.047 0.208-0.058 0.322-0.028z"></path>
<path d="M10.844 29.986l0.007-3.895c0.292-2.415 1.020-4.637 2.054-6.468 0.841-2.041 2.132-3.702 4.433-4.512l2.901-0.265 2.549 0.461c2.327 0.549 3.888 1.884 4.694 3.903 1.292 2.081 1.886 4.441 2.387 6.932l0.102 3.597c-1.904 0.863-4.13 0.565-6.412 0.064-0.655 0.173-1.168 0.509-1.564 0.98-0.97 0.361-1.927 0.356-2.869-0.034-0.42-0.353-0.979-0.621-1.703-0.788-0.766 0.49-5.406 0.772-6.58 0.023zM15.118 30.278c0.903-2.297 2.027-4.417 3.491-6.265l3.509 0.015c1.625 1.784 2.713 3.865 3.566 6.075 0.327-0.489 0.437-1.086 0.355-1.78-0.38-1.824-1.338-3.59-2.729-5.313-0.773-0.404-1.533-0.614-2.28-0.639l-0.035-3.19c0.074-0.277 0.207-0.292 0.387-0.092l0.121 0.418 1.938-0.065c-0.609-0.414-0.933-1.098-1.127-1.902-0.444-0.288-0.939-0.493-1.525-0.56l-0.899-0.036c-0.611 0.077-1.12 0.267-1.486 0.613-0.147 0.735-0.397 1.42-1.082 1.893l2.043 0.025 0.053-0.467c0.177-0.145 0.331-0.145 0.437 0.145l-0.008 3.138c-0.892 0.072-1.648 0.324-2.273 0.748-1.304 1.541-2.246 3.373-2.867 5.463-0.028 0.831 0.141 1.375 0.412 1.774z"></path>
<path d="M20.307 14.474l2.56 0.463c0.117 0.028 0.117 0.028 0.234 0.058 2.103 0.566 3.908 2.049 4.72 4.044 0.053 0.087 0.053 0.087 0.106 0.174 1.223 2.076 1.831 4.475 2.313 6.855l0.007 0.064 0.102 3.597c-0.011 0.296-0.129 0.32-0.414 0.438-1.927 0.783-4.141 0.495-6.242 0.053l-0.123-0.026c-0.499 0.146-0.948 0.439-1.289 0.837 0 0-1.11 0.484-2.13 0.373-0.494-0.054-1.168-0.302-1.168-0.302-0.148-0.069-0.145-0.099-0.207-0.145-0.459-0.341-1.192-0.633-1.407-0.55-1.836 0.675-4.048 0.675-5.983 0.192-0.188-0.047-0.374-0.105-0.55-0.186-0.184-0.086-0.357-0.207-0.371-0.427l0.010-3.941c0.284-2.288 0.946-4.517 2.050-6.518 0 0 0.587-1.467 1.497-2.565 0.824-0.993 1.919-1.744 3.133-2.186 0 0 0.042-0.024 0.148-0.040l2.952-0.267c0.017 0.002 0.034 0.004 0.051 0.006zM18.772 24.419c-1.28 1.663-2.282 3.528-3.089 5.469l-0.035 0.084c0.559-0.061 1.142-0.101 1.621-0.354 0 0 1.246 0.162 2.052 0.805 0.762 0.299 1.618 0.316 2.416 0.052 0 0 0.997-1.18 1.901-1.040 0.487 0.105 0.976 0.205 1.468 0.286l0.019 0.003c-0.788-1.923-1.798-3.768-3.177-5.318l-3.157-0.013c-0.007 0.009-0.014 0.017-0.021 0.026zM17.42 15.484c-1.926 0.686-3.363 2.36-4.165 4.285 0 0-0.451 0.82-0.758 1.541-0.639 1.5-1.046 3.096-1.255 4.715l-0.011 0.089-0.006 3.64c1.010 0.41 2.198 0.346 3.345 0.295-0.613-1.422 0.218-3.271 1.121-4.92 0.453-0.828 0.988-1.61 1.596-2.333 0 0 0.548-0.374 0.98-0.54 0.387-0.15 0.792-0.245 1.204-0.304 0 0-0.006-2.111-0.006-2.111-0.050 0.009-0.049 0.009-0.1 0.012l-2.043-0.025c-0.397-0.032-0.442-0.465-0.011-0.847 0.422-0.385 0.614-0.949 0.727-1.5 0 0 0.175-0.282 0.424-0.445 0.414-0.271 0.898-0.401 1.383-0.466l0.98 0.034c0.809 0.099 1.737 0.453 1.861 0.846 0.157 0.634 0.417 1.296 0.975 1.683 0 0 0.14 0.109 0.16 0.261 0.028 0.21-0.141 0.404-0.362 0.427l-1.938 0.065c-0.028-0.001-0.043 0.007-0.135-0.021l0.024 2.154c0.581 0.060 1.663 0.175 2.2 0.755 1.304 1.622 2.373 3.45 2.805 5.471 0 0 0.104 0.916-0.169 1.614l-0.002 0.006c1.125 0.096 2.278 0.041 3.327-0.364l-0.072-3.315c-0.474-2.339-1.063-4.713-2.332-6.777 0 0-0.686-1.622-1.836-2.524-0.759-0.596-1.669-0.979-2.613-1.207l-2.488-0.45c-0.935 0.085-1.869 0.171-2.803 0.256zM21.215 18.58c0.38 0.047 0.57 0.542 0.57 0.542l0.777-0.026c-0.278-0.391-0.449-0.843-0.576-1.307 0 0-0.558-0.338-1.191-0.425l-0.888-0.038c-0.398 0.053-0.803 0.168-1.129 0.412 0 0-0.149 0.738-0.559 1.345 0 0 0.808 0.013 0.808 0.013s0.017-0.292 0.227-0.435c0.358-0.242 0.946-0.060 0.978 0.496l-0.008 3.138c-0.015 0.224 0.021 0.337-0.504 0.391-0.666 0.076-1.319 0.273-1.882 0.634l-0.011 0.007c-1.264 1.505-2.151 3.3-2.73 5.19 0 0-0.020 0.44 0.028 0.746 0.824-1.921 1.838-3.752 3.117-5.395 0 0 0.095-0.215 0.367-0.232l3.509 0.015c0.21 0.015 0.369 0.223 0.509 0.382 1.277 1.479 2.258 3.198 3.029 4.999 0 0 0.040-0.516-0.044-0.875-0.435-1.785-1.396-3.396-2.534-4.827l-0.014-0.017c-0.639-0.32-1.335-0.532-2.050-0.561 0 0-0.337-0.053-0.363-0.374l-0.035-3.19c0.026-0.694 0.498-0.615 0.598-0.607z"></path>
</svg>
