<!-- Generated by IcoMoon.io -->
<svg version="1.1" xmlns="http://www.w3.org/2000/svg" width="32" height="32" viewBox="0 0 32 32">
<title>monyog</title>
<path d="M13.449 21.949l2.767 3.213 2.734-3.223c1.248 0.78 2.721 1.23 4.299 1.23 4.486 0 8.128-3.642 8.128-8.128s-3.642-8.128-8.128-8.128c-3.007 0-5.636 1.637-7.041 4.068-1.406-2.431-4.034-4.068-7.041-4.068-4.486 0-8.128 3.642-8.128 8.128s3.642 8.128 8.128 8.128c1.571 0 3.038-0.447 4.282-1.22zM9.167 9.092c3.283 0 5.948 2.666 5.948 5.949s-2.665 5.949-5.948 5.949c-3.283 0-5.949-2.666-5.949-5.949s2.665-5.949 5.949-5.949zM23.249 9.092c3.283 0 5.949 2.666 5.949 5.949s-2.666 5.949-5.949 5.949c-3.283 0-5.949-2.666-5.949-5.949s2.666-5.949 5.949-5.949z"></path>
<path d="M13.476 15.121c0 2.365-1.917 4.283-4.283 4.283s-4.283-1.917-4.283-4.283c0-2.365 1.917-4.283 4.283-4.283s4.283 1.917 4.283 4.283z"></path>
<path d="M27.681 15.043c0 2.365-1.917 4.283-4.283 4.283s-4.283-1.917-4.283-4.283c0-2.365 1.917-4.283 4.283-4.283s4.283 1.917 4.283 4.283z"></path>
</svg>
