<!-- Generated by IcoMoon.io -->
<svg version="1.1" xmlns="http://www.w3.org/2000/svg" width="32" height="32" viewBox="0 0 32 32">
<title>mysql</title>
<path d="M3.046 4.93c0 0-1.094-1.499-1.296-2.466-0.066-0.505 0.165-0.748 0.694-0.729 0.973 0.088 2.196 0.708 3.5 1.502 0.874 0.403 1.574 0.614 2.12 0.657 1.155 0.082 2.427 0.528 3.805 1.31 2.984 1.655 5.42 3.948 7.222 6.98l4.010 8.153c0.666 1.163 1.493 1.806 2.482 1.931 2.118 0.771 3.993 1.889 5.62 3.364 0.188 0.196 0.196 0.355-0.029 0.468-0.512 0.32-1.914 0.341-3.281 0.375-0.359 0.084-0.693 0.222-1.008 0.403-0.497 0.201-0.566 0.513-0.328 0.903 1.45 1.655 3.292 3.020 5.459 4.146l-3.695 0.083c-3.58-1.256-7.139-2.614-10.673-4.095-1.942-0.767-3.365-1.901-4.279-3.395-1.055-1.632-1.99-3.314-2.937-4.992-0.427-0.501-0.728-0.559-0.901-0.164l-0.975 3.638c-0.282 0.393-0.552 0.348-0.811-0.037-1.337-1.893-1.581-4.538-0.861-7.845l0.341-1.129-0.361-1.295-1.092-1.986-2.726-5.782zM7.912 6.847c-0.083 0.044 0.228 0.86 0.729 1.137 0.237 0.11 0.352-0.003 0.385-0.27 0.075-0.442-0.155-0.82-0.609-1.149-0.313-0.135-0.49-0.056-0.505 0.282z"></path>
</svg>
