<!-- Generated by IcoMoon.io -->
<svg version="1.1" xmlns="http://www.w3.org/2000/svg" width="32" height="32" viewBox="0 0 32 32">
<title>oracle</title>
<path d="M10.447 6.19c-3.467-0.075-8.765 3.788-8.753 8.624 0.010 3.769 1.493 8.494 8.207 9.762 0 0 12.978-0.098 13.070-0.109 4.394-0.54 7.605-5.060 7.736-9.206 0.133-4.228-3.592-8.535-8.216-9.034l-12.043-0.036zM10.378 9.385h11.573c3.408 0.476 5.382 3.274 5.359 5.946-0.024 2.72-2.011 5.627-5.359 5.981-0.070 0.007-11.427 0-11.427 0-4.554-0.935-5.287-3.851-5.32-6.274-0.040-3 3.415-5.578 5.174-5.653z"></path>
</svg>
