<!-- Generated by IcoMoon.io -->
<svg version="1.1" xmlns="http://www.w3.org/2000/svg" width="32" height="32" viewBox="0 0 32 32">
<title>outlook</title>
<path d="M9.772 11.548v-7.625c0-0.739 0.608-1.346 1.346-1.346h16.484c0.739 0 1.346 0.608 1.346 1.346v10.614l1.598 0.911c0.197 0.114 0.319 0.325 0.319 0.552-0.014 0.079-0.030 0.159-0.046 0.238 0.030-0.075 0.046-0.155 0.046-0.238v11.985c0 0.443-0.205 0.861-0.553 1.133l-0.042 0.031c0 0 0-0.004 0-0.004l-0.002 0.004c-0.009 0.016-0.019 0.016-0.036 0.025-0.068 0.051-0.142 0.093-0.22 0.125-0.018 0.011-0.037 0.017-0.058 0.019-0.054 0.028-0.113 0.047-0.173 0.058-0.116 0.031-0.235 0.047-0.355 0.048l-20.135-0c-0.001 0-0.001 0-0.002 0-0.788 0-1.436-0.649-1.436-1.436v-7.192c0.829 0.013 1.647-0.198 2.366-0.611 0.683-0.407 1.231-1.005 1.577-1.72 0.381-0.797 0.571-1.673 0.553-2.556 0.016-0.846-0.168-1.684-0.537-2.445-0.339-0.691-0.871-1.268-1.532-1.662-0.165-0.095-0.335-0.18-0.51-0.253zM9.772 13.651c0.183 0.231 0.325 0.493 0.419 0.775 0.177 0.52 0.265 1.067 0.259 1.617 0.007 0.544-0.085 1.085-0.274 1.596-0.168 0.458-0.467 0.857-0.86 1.148-0.428 0.297-0.941 0.448-1.461 0.431v-3.228c0.004-0.224 0.125-0.431 0.319-0.543l0.012-0.007 0.005-0.002 1.582-0.902v-0.885z"></path>
<path d="M1.461 8.33h12.785c0.701 0 1.278 0.577 1.278 1.278v12.785c0 0.701-0.577 1.278-1.278 1.278h-12.785c-0.701 0-1.278-0.577-1.278-1.278v-12.785c0-0.701 0.577-1.278 1.278-1.278zM3.891 13.572c-0.368 0.796-0.55 1.665-0.534 2.541-0.015 0.837 0.172 1.665 0.544 2.415 0.347 0.692 0.885 1.27 1.551 1.665 0.719 0.413 1.537 0.621 2.366 0.601 0.841 0.020 1.672-0.191 2.402-0.611 0.683-0.407 1.231-1.005 1.577-1.72 0.381-0.797 0.571-1.673 0.553-2.556 0.016-0.846-0.168-1.684-0.537-2.445-0.339-0.691-0.871-1.268-1.532-1.662-0.702-0.406-1.503-0.612-2.314-0.594-0.876-0.025-1.742 0.192-2.502 0.627-0.686 0.41-1.235 1.016-1.574 1.739zM5.569 17.655l-0.001 0.001c-0.407-1.062-0.405-2.238 0.007-3.299 0.186-0.462 0.5-0.862 0.905-1.153 0.416-0.286 0.911-0.434 1.416-0.421 0.525-0.022 1.043 0.139 1.464 0.453 0.386 0.308 0.674 0.721 0.83 1.189 0.177 0.52 0.265 1.067 0.259 1.617 0.007 0.544-0.085 1.085-0.274 1.596-0.168 0.458-0.467 0.857-0.86 1.148-0.433 0.3-0.952 0.451-1.478 0.43-0.494 0.012-0.979-0.134-1.383-0.417-0.397-0.29-0.704-0.687-0.885-1.145z"></path>
</svg>
