<!-- Generated by IcoMoon.io -->
<svg version="1.1" xmlns="http://www.w3.org/2000/svg" width="32" height="32" viewBox="0 0 32 32">
<title>redhat</title>
<path d="M9.456 5.51c-0.812 1.864-1.519 3.829-2.187 5.831 1.692 2.407 4.1 4.094 6.994 5.28 1.125 0.461 2.78 0.946 4.957 1.22 1.557 0.106 3.123 0.029 4.7-0.299 1.414-0.338 2.212-1.151 2.341-2.478-0.367-2.057-0.786-4.085-1.429-5.98-0.087-0.683-0.381-1.217-0.825-1.642-2.020-1.354-4.242-2.311-6.595-3.013-0.681-0.203-1.318-0.167-1.902 0.155-0.15 0.272-0.437 0.489-0.874 0.644-0.312 0.133-0.713 0.157-1.288 0.080-0.503 0.051-1.053-0.186-1.652-0.726-0.995-0.096-1.731 0.23-2.239 0.927"></path>
<path d="M6.6 12.556c-2.354 0.025-4.29 0.572-5.562 1.95-0.62 0.913-0.677 1.96-0.156 3.144 1.275 2.725 3.587 4.602 6.538 5.954 3.188 1.783 6.518 3.264 10.204 3.658 3.153 0.576 6.187 0.628 9.035-0.143 2.505-0.62 4.021-1.902 4.569-3.83 0.369-1.2 0.33-2.346-0.191-3.426-1.219-1.618-2.705-2.966-4.461-4.040 0.27 0.848 0.331 1.666 0.122 2.443-0.334 1.295-1.156 2.141-2.529 2.393-2.15 0.702-3.845 0.906-6.163 0.493-2.154-0.385-4.32-0.924-6.53-2.152-1.67-0.842-3.113-1.946-4.218-3.44-0.686-0.843-0.854-1.861-0.659-3.003"></path>
</svg>
