<!-- Generated by IcoMoon.io -->
<svg version="1.1" xmlns="http://www.w3.org/2000/svg" width="32" height="32" viewBox="0 0 32 32">
<title>redhat</title>
<path d="M15.869 0.988c8.096 0 14.668 6.573 14.668 14.668s-6.573 14.668-14.668 14.668c-8.096 0-14.668-6.573-14.668-14.668s6.573-14.668 14.668-14.668zM27.342 24.112c-0.631-0.176-1.228-0.060-1.842-0.141-0.713-0.095-1.376-0.047-1.903-0.108-0.249-0.038-0.341 0.042-0.368 0.248l0.101 0.31c0.036 0.193-0.045 0.313-0.231 0.368l-1.381 0.63-1.26 1.225c-0.305 0.22-0.641 0.37-1.028 0.405 0.149-0.683 1.313-2.17 2.419-3.612 0.051-0.655 0.158-1.191 0.325-1.602 0.146-0.653 0.247-1.208 0.114-1.249-0.261-0.004-0.577 0.127-0.892 0.254-0.399 0.019-0.71-0.004-0.93-0.069l-0.777-0.147c-0.372 0.007-0.714 0.097-1.035 0.233-0.262-0.060-0.493-0.098-0.703-0.246-0.801-0.034-1.668 0.041-2.571 0.162-0.948 0.037-1.657-0.148-2.052-0.628-0.421-0.401-0.792-0.87-1.168-1.333-0.285-0.235-0.571-0.474-0.791-0.355l-0.221 0.212c-0.155 0.042-0.303 0.041-0.455-0.086-0.358-0.393-0.674-0.871-0.99-1.349-1.361-0.845-2.224-0.144-2.227 1.034 0.266 0.739 0.686 1.283 1.13 1.796l0.352 0.295c0.411 0.316 0.413 0.564 0.087 0.758-0.705 0.043-1.262-0.252-1.661-0.91-0.308-0.481-0.798-0.681-1.477-0.728-0.94 0.067-1.863 0.094-2.759 0.018-0.214-0.007-0.297 0.046-0.273 0.185l0.116 0.399c0.051 0.276 0.008 0.444-0.167 0.432l-0.25 0.059c2.197 5.043 5.927 7.904 9.896 8.784 5.175 1.148 10.713-0.295 14.872-5.244zM17.057 22.628l0.798 0.309c0.118 0.019 0.23 0.020 0.327-0.020 0.193-0.055 0.339-0.142 0.42-0.274 0.066-0.032 0.118-0.026 0.156 0.015 0.142 0.152 0.147 0.32 0.028 0.504-0.065 0.162-0.236 0.267-0.465 0.338-0.204 0.059-0.416 0.061-0.638-0.007l-0.969-0.301c-0.179-0.005-0.238-0.097-0.183-0.271 0.048-0.116 0.095-0.208 0.137-0.24 0.103-0.094 0.242-0.084 0.388-0.051zM11.412 4.465c-0.289 0.169-0.504 0.402-0.668 0.678l-0.411 0.885c-0.176 0.452-0.31 0.927-0.417 1.415-0.117 0.53-0.157 1.039-0.17 1.541-0.016 0.364 0.058 0.653 0.194 0.887 0.344 0.43 0.816 0.749 1.362 1.005l3.592 1.087c0.42 0.085 0.791 0.248 1.122 0.476 0.244 0.284 0.392 0.598 0.369 0.967 0.036 0.323 0.143 0.553 0.328 0.678l0.274 0.329c0.12 0.124 0.145 0.209 0.013 0.231-0.152 0.024-0.302 0.016-0.475-0.022-0.692-0.052-1.289-0.248-1.888-0.461l-1.72-0.708-1.739-0.809c-0.642-0.193-1.173-0.523-1.59-0.993-0.325-0.288-0.403-0.711-0.308-1.226 0.041-0.266 0.135-0.494 0.255-0.704l-2.401-0.054c-0.635 0.035-1.201 0.194-1.713 0.451-0.482 0.291-0.823 0.67-1.008 1.147-0.187 0.568-0.033 1.064 0.338 1.513 0.090 0.201 0.632 0.836 1.58 1.7 0.36 0.328 0.786 0.657 1.243 1.055 3.772 2.433 7.601 4.128 11.454 4.383 2.231 0.020 4.231-0.096 5.589-0.758 1.531-0.716 2.57-1.831 3.062-3.306 0.24-1.033-0.1-1.942-1.059-2.718-0.74-0.47-1.621-0.881-2.584-1.259-0.204 0.708-0.467 1.25-0.865 1.406-0.086-0.308 0.157-1.179 0.322-1.932-0.087-0.79-0.289-1.58-0.573-2.38l-0.538-1.271-0.552-1.427c-0.19-0.395-0.426-0.753-0.711-1.073-0.615-0.72-1.503-1.038-2.558-1.111-0.664-0.016-1.306 0.047-1.929 0.176-0.833 0.196-1.496 0.22-2.043 0.076l-1.46-0.212c-0.713-0.043-1.261 0.097-1.721 0.335z"></path>
</svg>
