<!-- Generated by IcoMoon.io -->
<svg version="1.1" xmlns="http://www.w3.org/2000/svg" width="41" height="32" viewBox="0 0 41 32">
<title>rlang</title>
<path d="M20.618 27.718c-11.358 0-20.566-6.167-20.566-13.774s9.208-13.774 20.566-13.774c11.358 0 20.566 6.167 20.566 13.774s-9.208 13.774-20.566 13.774zM23.766 5.556c-8.633 0-15.632 4.216-15.632 9.416s6.999 9.416 15.632 9.416c8.633 0 15.004-2.882 15.004-9.416 0-6.532-6.371-9.416-15.004-9.416z"></path>
<path d="M31.373 21.504c0 0 1.245 0.376 1.968 0.742 0.251 0.127 0.685 0.38 0.998 0.713 0.307 0.326 0.456 0.656 0.456 0.656l4.906 8.271-7.929 0.004-3.708-6.963c0 0-0.759-1.304-1.226-1.683-0.39-0.316-0.556-0.428-0.941-0.428-0.268 0-1.884 0-1.884 0l0.001 9.068-7.016 0.003v-23.164h14.089c0 0 6.417 0.116 6.417 6.221s-6.132 6.56-6.132 6.56zM28.321 13.748l-4.247-0.003-0.002 3.939 4.25-0.001c0 0 1.968-0.006 1.968-2.004 0-2.038-1.968-1.931-1.968-1.931z"></path>
</svg>
