<!-- Generated by IcoMoon.io -->
<svg version="1.1" xmlns="http://www.w3.org/2000/svg" width="32" height="32" viewBox="0 0 32 32">
<title>slack</title>
<path d="M11.742 0c-1.764 0-3.193 1.433-3.193 3.2 0 0.001 0 0.002 0 0.003 0 1.753 1.441 3.195 3.193 3.197h3.194v-3.2c0.002-1.754-1.44-3.198-3.194-3.2zM11.742 8.533h-8.516c-1.764 0-3.193 1.433-3.193 3.2s1.43 3.2 3.193 3.2h8.517c1.763 0 3.193-1.433 3.193-3.2s-1.43-3.2-3.194-3.2z"></path>
<path d="M31.968 11.733c0-1.768-1.43-3.2-3.194-3.2s-3.193 1.433-3.193 3.2v3.2h3.193c1.754-0.002 3.196-1.446 3.194-3.2zM23.452 11.733v-8.534c0.002-1.754-1.44-3.198-3.194-3.2-1.764 0-3.193 1.433-3.193 3.2v8.533c0 1.768 1.43 3.201 3.193 3.201 1.754-0.002 3.196-1.446 3.194-3.2z"></path>
<path d="M20.258 32c1.754-0.002 3.196-1.446 3.194-3.2 0.002-1.754-1.44-3.198-3.194-3.2h-3.193v3.2c0 1.767 1.43 3.2 3.193 3.2zM20.258 23.467h8.517c1.763 0 3.193-1.433 3.193-3.2 0.002-1.754-1.44-3.198-3.194-3.2h-8.516c-1.764 0-3.193 1.433-3.193 3.2 0 0.001 0 0.002 0 0.003 0 1.753 1.441 3.195 3.193 3.197z"></path>
<path d="M0.032 20.267c0 0.001 0 0.002 0 0.003 0 1.753 1.441 3.195 3.193 3.197 1.754-0.002 3.196-1.446 3.194-3.2v-3.2h-3.194c-1.764 0-3.193 1.433-3.193 3.2zM8.548 20.267v8.533c0 1.768 1.43 3.2 3.193 3.2 1.754-0.002 3.196-1.446 3.194-3.2v-8.534c0-0.001 0-0.002 0-0.003 0-1.753-1.441-3.195-3.194-3.197-1.764 0-3.193 1.433-3.193 3.2z"></path>
</svg>
