<!-- Generated by IcoMoon.io -->
<svg version="1.1" xmlns="http://www.w3.org/2000/svg" width="32" height="32" viewBox="0 0 32 32">
<title>thousandeyes</title>
<path d="M17.344 20.096c1.664-0.928 3.616-2.144 5.216-4.16-1.6-1.984-3.808-3.136-5.44-4.032 3.936-0.864 7.392 3.040 7.392 3.040l0.928 1.024-0.896 0.992c-3.616 3.904-7.2 3.136-7.2 3.136z"></path>
<path d="M17.664 16c0 1.025-0.831 1.856-1.856 1.856s-1.856-0.831-1.856-1.856c0-1.025 0.831-1.856 1.856-1.856s1.856 0.831 1.856 1.856z"></path>
<path d="M18.336 24c-6.848 0-11.424-7.104-11.616-7.392l-0.448-0.672 0.448-0.672c0.192-0.32 4.8-7.264 11.616-7.264 4.032 0 7.904 2.4 11.488 7.168l0.576 0.768-0.544 0.768c-3.616 4.832-7.456 7.296-11.52 7.296zM9.344 15.936c1.216 1.632 4.64 5.536 8.992 5.536 2.976 0 5.984-1.856 8.864-5.536-2.88-3.584-5.856-5.408-8.864-5.408-4.32 0-7.744 3.808-8.992 5.408z"></path>
<path d="M13.12 24c-6.656-0.224-10.976-7.168-11.168-7.456l-0.352-0.704 0.416-0.672c0.192-0.288 4.416-6.912 11.072-7.168-5.184 2.368-8.768 7.968-8.768 7.968s3.008 5.056 8.8 8.032z"></path>
</svg>
