<!-- Generated by IcoMoon.io -->
<svg version="1.1" xmlns="http://www.w3.org/2000/svg" width="32" height="32" viewBox="0 0 32 32">
<title>tierpoint</title>
<path d="M16 4.133c-6.571 0-11.925 5.323-11.925 11.861s5.355 11.872 11.925 11.872c6.571 0 11.925-5.323 11.925-11.872s-5.355-11.861-11.925-11.861zM16 31.504c-8.587 0-15.573-6.955-15.573-15.509s6.987-15.499 15.573-15.499c8.587 0 15.573 6.955 15.573 15.499s-6.987 15.509-15.573 15.509z"></path>
<path d="M13.141 13.541c0 1.035-0.832 1.867-1.856 1.877-1.035 0-1.867-0.832-1.877-1.856 0-1.035 0.832-1.867 1.856-1.877h0.011c1.035-0.011 1.867 0.821 1.867 1.856z"></path>
<path d="M20.096 24.304c-3.595 0.384-5.493-1.771-5.493-5.12v-10.155h3.136v3.104h2.208v2.773h-2.208v4.309c0 1.707 0.789 2.347 2.357 2.251v2.837z"></path>
</svg>
