<svg style="position: absolute; width: 0; height: 0; overflow: hidden;" version="1.1" xmlns="http://www.w3.org/2000/svg" xmlns:xlink="http://www.w3.org/1999/xlink">
<defs>
<symbol id="b-pivotaltracker" viewBox="0 0 32 32">
<title>pivotaltracker</title>
<path d="M15.968 29.523c-0.294-0.313-3.66-5.603-3.991-6.271-0.198-0.401-0.128-0.569 0.966-2.304 0.649-1.029 1.275-1.964 1.391-2.077 0.157-0.153 0.395-0.168 0.925-0.059 0.393 0.080 0.896 0.117 1.12 0.083s0.492-0.008 0.598 0.059c0.364 0.233 4.951 7.647 4.861 7.857-0.078 0.181-5.259 2.99-5.515 2.99-0.052 0-0.212-0.125-0.355-0.278zM5.667 24.62c-1.673-0.886-2.572-1.455-2.572-1.625 0-0.144 0.926-1.728 2.059-3.519l2.059-3.257 5.387-0.080 1.143 2.223-2.293 3.615c-2.585 4.076-2.539 4.013-2.926 4.009-0.156-0.002-1.441-0.616-2.856-1.366zM20.309 22.583c-0.35-0.319-2.39-3.642-2.39-3.893 0-0.111 0.177-0.399 0.392-0.641s0.527-0.664 0.691-0.939l0.299-0.499 9.867 0.084v6.037l-4.301 0.042c-3.598 0.036-4.343 0.004-4.558-0.191zM19.21 15.384c-0.143-0.328-0.411-0.851-0.596-1.164l-0.336-0.568 2.409-3.801c1.423-2.245 2.529-3.822 2.702-3.853 0.442-0.079 5.516 2.648 5.516 2.964 0 0.265-3.676 6.229-4.154 6.739-0.226 0.241-0.595 0.278-2.771 0.278h-2.511zM2.824 15.143c-0.048-0.114-0.065-1.491-0.039-3.061l0.048-2.854 4.251-0.043c2.944-0.030 4.323 0.012 4.486 0.135 0.305 0.231 2.511 3.729 2.511 3.982 0 0.107-0.149 0.341-0.332 0.522s-0.484 0.578-0.669 0.884l-0.337 0.556-4.916 0.042c-3.905 0.034-4.934-0-5.003-0.164zM16.527 13.117c-0.333-0.071-0.671-0.093-0.751-0.048s-0.325 0.040-0.546-0.010c-0.304-0.069-0.976-1.005-2.787-3.879-1.319-2.094-2.343-3.889-2.289-4.014 0.15-0.349 5.12-2.874 5.546-2.817 0.277 0.037 0.886 0.861 2.427 3.28 1.132 1.777 2.058 3.334 2.058 3.46 0 0.241-1.969 3.436-2.412 3.914-0.28 0.302-0.346 0.309-1.246 0.116z"></path>
<path d="M16.044 29.444c-0.382-0.437-4.055-6.347-4.054-6.523 0-0.104 0.54-1.047 1.199-2.095l1.198-1.906 1.199 0.051c0.913 0.039 1.267 0.123 1.484 0.352 0.157 0.166 1.288 1.887 2.514 3.827l2.229 3.526-0.399 0.294c-0.423 0.312-4.924 2.674-5.096 2.674-0.056 0-0.179-0.089-0.275-0.199zM5.754 24.525c-1.615-0.85-2.485-1.4-2.485-1.571 0-0.144 0.911-1.702 2.024-3.461 1.444-2.282 2.131-3.223 2.398-3.283 0.206-0.046 1.349-0.064 2.541-0.039l2.167 0.046 1.188 2.139-2.346 3.697c-1.617 2.547-2.448 3.709-2.674 3.738-0.18 0.023-1.446-0.547-2.813-1.267zM20.329 22.374c-0.499-0.535-2.236-3.397-2.236-3.683 0-0.159 0.123-0.383 0.274-0.497s0.427-0.48 0.614-0.814l0.34-0.606h4.861c4.272 0 4.874 0.030 4.967 0.251 0.138 0.327 0.138 5.048 0 5.376-0.093 0.22-0.639 0.251-4.333 0.251-3.811 0-4.253-0.027-4.486-0.278zM19.39 15.547c-0.050-0.155-0.281-0.631-0.513-1.058-0.339-0.622-0.385-0.843-0.232-1.112 1.149-2.032 4.614-7.247 4.815-7.247 0.141 0 1.385 0.587 2.764 1.304 1.672 0.87 2.507 1.393 2.507 1.572 0 0.148-0.923 1.723-2.052 3.502l-2.052 3.234-2.573 0.044c-2.339 0.040-2.581 0.018-2.664-0.238zM3.020 15.095c-0.227-0.207-0.274-0.693-0.271-2.82 0.001-1.414 0.066-2.661 0.143-2.772 0.108-0.156 1.108-0.192 4.397-0.159l4.257 0.043 1.18 1.827c0.649 1.005 1.18 1.943 1.181 2.086s-0.123 0.352-0.273 0.466c-0.151 0.114-0.422 0.471-0.603 0.794s-0.456 0.631-0.612 0.686c-0.156 0.054-2.272 0.099-4.704 0.099-3.786 0-4.46-0.036-4.694-0.25zM16.058 12.978c-0.592-0.053-1.11-0.132-1.153-0.176s-1.115-1.723-2.384-3.733c-1.654-2.619-2.263-3.718-2.15-3.881 0.24-0.346 4.79-2.708 5.222-2.711 0.309-0.002 0.747 0.581 2.398 3.186 1.111 1.754 2.017 3.309 2.012 3.455-0.012 0.427-2.326 3.915-2.611 3.936-0.142 0.010-0.743-0.025-1.335-0.078z"></path>
<path d="M16.042 29.285c-0.236-0.268-3.795-5.887-3.927-6.199-0.088-0.208 1.848-3.557 2.295-3.972 0.073-0.068 0.684-0.076 1.358-0.019l1.226 0.104 2.293 3.625c1.261 1.994 2.293 3.721 2.293 3.839 0 0.202-4.818 2.821-5.189 2.821-0.096 0-0.253-0.089-0.349-0.199zM5.889 24.503c-1.383-0.73-2.542-1.399-2.574-1.488s0.867-1.619 1.999-3.4l2.059-3.238 5.052-0.083 0.48 0.942c0.264 0.518 0.48 1.021 0.48 1.118 0 0.179-3.79 6.244-4.398 7.038-0.184 0.24-0.39 0.437-0.458 0.437s-1.255-0.597-2.639-1.326zM20.588 22.527c-0.224-0.13-2.495-3.619-2.495-3.833 0-0.071 0.23-0.406 0.512-0.746 1.061-1.279 0.567-1.174 5.49-1.174 2.438 0 4.557 0.043 4.709 0.096 0.237 0.083 0.276 0.485 0.276 2.843s-0.039 2.76-0.276 2.843c-0.402 0.14-7.97 0.114-8.216-0.029zM19.134 14.778c-0.313-0.598-0.499-1.156-0.435-1.307 0.206-0.49 4.485-7.182 4.651-7.276 0.19-0.107 5.206 2.467 5.321 2.73 0.075 0.172-3.575 6.079-4.089 6.618-0.228 0.239-0.593 0.278-2.584 0.278h-2.318zM3.036 15.080c-0.064-0.058-0.116-1.337-0.116-2.843 0-2.349 0.039-2.75 0.276-2.833 0.152-0.053 2.031-0.096 4.177-0.096h3.901l0.418 0.516c0.23 0.284 0.826 1.174 1.325 1.977l0.906 1.461-1.441 1.924h-4.664c-2.565 0-4.717-0.048-4.781-0.106zM15.771 12.821l-0.839-0.098-2.256-3.571c-1.241-1.964-2.256-3.683-2.256-3.82 0-0.36 5.027-2.952 5.357-2.761 0.246 0.142 4.238 6.308 4.233 6.537-0.002 0.066-0.534 0.942-1.183 1.947-1.306 2.021-1.231 1.978-3.054 1.766z"></path>
<path d="M16.136 29.205c-0.359-0.375-3.973-6.13-3.97-6.321 0.002-0.084 0.535-0.974 1.185-1.979l1.182-1.827 0.951 0.050c0.523 0.027 1.069 0.081 1.213 0.12 0.291 0.078 4.709 7 4.709 7.377-0 0.134-0.704 0.602-1.613 1.072-0.887 0.459-2.013 1.048-2.502 1.31-0.839 0.449-0.904 0.46-1.155 0.198zM5.887 24.399c-1.294-0.692-2.38-1.333-2.413-1.425-0.081-0.221 3.578-6.040 4.023-6.398 0.287-0.231 0.691-0.278 2.404-0.278 2.165 0 2.611 0.067 2.611 0.39 0 0.109 0.191 0.526 0.425 0.927l0.425 0.729-2.183 3.464c-2.354 3.735-2.448 3.867-2.744 3.856-0.108-0.004-1.255-0.573-2.549-1.265zM19.819 21.342c-0.402-0.634-0.916-1.444-1.141-1.801-0.505-0.799-0.512-1.044-0.044-1.431 0.202-0.166 0.478-0.499 0.615-0.74l0.248-0.437h4.686c4.112 0 4.699 0.031 4.791 0.251 0.138 0.327 0.138 4.73 0 5.058-0.092 0.219-0.633 0.251-4.265 0.251h-4.159zM19.532 15.322c-0.054-0.187-0.273-0.641-0.488-1.009l-0.391-0.669 2.304-3.628c1.267-1.996 2.392-3.655 2.5-3.688 0.258-0.078 5.099 2.486 5.099 2.701 0 0.197-3.605 5.952-3.981 6.355-0.223 0.239-0.586 0.278-2.603 0.278-2.248 0-2.348-0.014-2.441-0.34zM3.129 14.995c-0.221-0.201-0.31-4.786-0.103-5.277 0.092-0.219 0.624-0.251 4.159-0.251 3.642 0 4.080 0.028 4.318 0.278 0.408 0.427 2.23 3.374 2.23 3.607 0 0.113-0.128 0.303-0.285 0.422s-0.472 0.485-0.7 0.814l-0.414 0.598h-4.497c-3.265 0-4.555-0.052-4.707-0.191zM16.094 12.816l-1.039-0.092-2.315-3.654c-1.273-2.010-2.316-3.702-2.318-3.761-0.005-0.19 4.932-2.688 5.215-2.638 0.27 0.047 4.196 6.060 4.198 6.429 0.001 0.212-1.832 3.151-2.236 3.583-0.143 0.153-0.306 0.266-0.363 0.251s-0.571-0.068-1.143-0.119z"></path>
<path d="M15.932 28.731c-0.878-1.236-3.595-5.629-3.593-5.811 0.001-0.104 0.494-0.975 1.095-1.936 0.749-1.196 1.189-1.743 1.394-1.734 0.165 0.007 0.677 0.025 1.138 0.040l0.839 0.026 2.32 3.662c1.276 2.014 2.289 3.691 2.251 3.725-0.094 0.086-3.891 2.094-4.516 2.388-0.496 0.234-0.51 0.228-0.928-0.361zM5.929 24.299c-1.528-0.798-2.306-1.295-2.297-1.466 0.008-0.143 0.89-1.618 1.962-3.278l1.948-3.018 4.709-0.083 0.977 1.92-2.239 3.529c-1.232 1.941-2.354 3.546-2.494 3.566s-1.295-0.506-2.566-1.17zM19.438 20.547c-1.048-1.64-1.122-1.814-0.89-2.105 0.139-0.175 0.415-0.55 0.613-0.834l0.36-0.516h9.383v5.243h-8.325zM19.276 14.591l-0.473-0.915 2.217-3.549c1.22-1.952 2.312-3.585 2.427-3.628 0.34-0.128 4.937 2.328 4.922 2.629-0.008 0.143-0.89 1.618-1.962 3.278l-1.948 3.018-4.709 0.083zM3.211 14.921c-0.064-0.058-0.116-1.274-0.116-2.701v-2.595l8.284 0.005 1.090 1.725c1.090 1.724 1.249 2.133 0.909 2.325-0.1 0.056-0.375 0.382-0.613 0.724l-0.431 0.622h-4.503c-2.477 0-4.555-0.048-4.619-0.106zM16.030 12.658l-0.929-0.093-2.254-3.544c-1.24-1.949-2.254-3.599-2.254-3.665 0-0.208 4.687-2.588 4.989-2.534s4.080 5.852 4.080 6.261c0 0.437-2.169 3.718-2.442 3.693-0.144-0.013-0.68-0.066-1.19-0.117z"></path>
<path d="M14.295 26.043l-1.967-3.117 0.952-1.527c1.403-2.25 1.248-2.125 2.481-1.998l1.056 0.109 2.207 3.479c1.214 1.913 2.207 3.534 2.207 3.601 0 0.137-4.564 2.577-4.812 2.573-0.087-0.002-1.043-1.406-2.125-3.12zM6.059 24.261c-1.295-0.685-2.354-1.31-2.354-1.388s0.863-1.515 1.918-3.195l1.918-3.053 4.709-0.005 0.422 0.889c0.305 0.641 0.375 0.961 0.252 1.149-0.094 0.143-1.106 1.744-2.249 3.557s-2.119 3.296-2.17 3.294c-0.050-0.001-1.151-0.563-2.446-1.248zM20.474 21.977c-1.239-1.822-2.042-3.242-1.917-3.391 0.081-0.096 0.363-0.472 0.628-0.835l0.482-0.659h9.064v5.243h-4.007c-3.967 0-4.010-0.004-4.25-0.357zM19.413 14.61c-0.247-0.491-0.449-0.931-0.449-0.979 0-0.138 4.379-7.017 4.516-7.094 0.23-0.129 4.817 2.412 4.758 2.635-0.031 0.118-0.924 1.59-1.986 3.272l-1.93 3.058h-4.461zM3.269 12.247v-2.621h7.993l2.313 3.67-0.432 0.468c-0.238 0.257-0.482 0.611-0.543 0.787-0.107 0.308-0.26 0.319-4.721 0.319h-4.61zM14.871 12.008c-0.866-1.248-4.103-6.459-4.103-6.605 0-0.16 4.524-2.611 4.812-2.607 0.123 0.002 3.808 5.65 4.050 6.207 0.030 0.069-0.441 0.913-1.046 1.875l-1.101 1.749-1.113-0.031c-1.068-0.030-1.129-0.054-1.499-0.587z"></path>
<path d="M14.548 26.256c-1.016-1.6-1.897-3.027-1.958-3.172-0.070-0.166 0.296-0.901 0.995-2l1.105-1.738 0.96 0.084c0.528 0.046 1.013 0.129 1.078 0.183s1.099 1.651 2.3 3.548l2.182 3.449-0.556 0.303c-0.306 0.167-1.144 0.608-1.864 0.981s-1.553 0.811-1.851 0.974l-0.543 0.296zM6.147 24.221c-1.151-0.616-2.161-1.179-2.244-1.251s0.725-1.52 1.813-3.243l1.965-3.111h4.492l0.171 0.437c0.094 0.24 0.288 0.626 0.431 0.857 0.253 0.409 0.2 0.515-1.963 3.931-1.223 1.931-2.301 3.508-2.397 3.505s-1.116-0.509-2.267-1.125zM19.759 20.687c-1.263-1.954-1.248-1.902-0.722-2.53 0.248-0.297 0.451-0.622 0.451-0.723 0-0.134 1.242-0.184 4.622-0.184h4.622v4.925h-8.011zM19.657 14.908c-0.094-0.24-0.282-0.617-0.418-0.838-0.236-0.383-0.152-0.552 1.892-3.78 1.177-1.858 2.222-3.454 2.324-3.547 0.13-0.119 0.821 0.169 2.338 0.973 1.184 0.628 2.222 1.201 2.305 1.274s-0.724 1.518-1.813 3.243l-1.965 3.111h-4.492zM3.269 12.326v-2.542h7.994l1.061 1.684c0.583 0.926 1.061 1.74 1.061 1.808s-0.111 0.207-0.246 0.309c-0.135 0.102-0.374 0.433-0.531 0.734l-0.286 0.549h-9.052zM16.087 12.524l-0.872-0.061-2.174-3.464c-1.196-1.905-2.159-3.527-2.14-3.603 0.042-0.173 4.358-2.444 4.635-2.439 0.253 0.005 3.999 5.955 3.922 6.229-0.143 0.504-2.121 3.454-2.299 3.428-0.11-0.016-0.592-0.057-1.072-0.091z"></path>
</symbol>
<symbol id="b-statuscake" viewBox="0 0 32 32">
<title>statuscake</title>
<path d="M15.292 31.759c-1.927-0.305-3.247-0.703-4.638-1.398-1.736-0.867-2.565-1.503-3.777-2.898-0.258-0.297-0.53-0.539-0.604-0.539-0.188 0-0.881-0.808-1.538-1.791-1.627-2.436-2.389-5.096-2.384-8.322l0.002-1.526 0.441-0.45c0.301-0.306 0.497-0.636 0.615-1.033 0.294-0.989 1.222-1.714 2.176-1.7 0.234 0.004 0.65 0.129 1.173 0.355 0.134 0.058 0.16-0.064 0.16-0.767 0-0.731 0.036-0.89 0.291-1.275 0.647-0.977 1.965-1.315 2.971-0.761 0.532 0.293 1.164 1.143 1.164 1.565 0 0.152-0.184 0.51-0.419 0.815-0.23 0.299-0.58 0.831-0.777 1.183l-0.359 0.64-0.603 0.032c-0.451 0.024-0.716-0.025-1.046-0.194-0.244-0.124-0.463-0.205-0.488-0.18-0.115 0.115 0.125 0.411 0.529 0.653 0.244 0.146 0.588 0.384 0.764 0.528l0.32 0.262 0.007 1.69c0.008 1.936 0.121 2.48 0.794 3.823 0.973 1.942 2.789 3.473 4.851 4.089 0.664 0.198 1.129 0.259 2.081 0.27 3.143 0.038 5.026-0.996 6.886-3.781 0.803-1.202 1.295-1.609 2.249-1.857 1.157-0.301 2.504 0.141 3.458 1.137 0.751 0.783 0.899 1.149 0.899 2.223 0.001 0.81-0.036 0.979-0.342 1.583-1.892 3.73-6.292 6.817-10.747 7.54-0.874 0.142-3.421 0.195-4.11 0.086zM25.705 14.5c-0.672-0.239-1.141-0.697-1.969-1.923-0.596-0.882-0.77-1.221-0.731-1.425 0.031-0.164-0.028-0.375-0.154-0.545-0.681-0.921-0.025-2.242 1.113-2.243 0.223-0 0.559 0.082 0.747 0.183 0.255 0.137 0.535 0.175 1.108 0.149 0.421-0.019 0.937 0.022 1.146 0.091 0.365 0.12 0.394 0.11 0.74-0.256 0.311-0.33 0.426-0.381 0.85-0.381 0.398 0 0.563 0.063 0.873 0.336 0.21 0.185 0.452 0.47 0.537 0.635 0.224 0.434 0.196 1.082-0.063 1.41l-0.217 0.276 0.33 0.653c0.303 0.6 0.319 0.685 0.2 1.045-0.201 0.609-1.302 1.643-2.046 1.921-0.719 0.269-1.823 0.302-2.462 0.074zM5.265 11.137c-0.117-0.117-0.213-0.309-0.213-0.427 0-0.289 0.371-0.64 0.677-0.64 0.53 0 0.805 0.744 0.408 1.103-0.262 0.237-0.612 0.223-0.872-0.037zM11.711 10.806c-0.172-0.278-0.173-1.454-0.001-2.124 0.292-1.143 0.889-1.77 1.875-1.971 0.205-0.042 0.498-0.193 0.65-0.336s0.451-0.288 0.664-0.322c0.341-0.055 0.432-0.018 0.763 0.313 0.245 0.245 0.376 0.477 0.376 0.665 0 0.179 0.157 0.478 0.411 0.784 0.437 0.526 0.702 0.964 0.628 1.038-0.025 0.025-0.449 0.095-0.942 0.157-1.458 0.182-2.604 0.65-3.768 1.538-0.549 0.419-0.554 0.421-0.656 0.257zM19.825 9.377c-0.561-0.198-0.851-0.551-1.014-1.231-0.177-0.737 0.006-1.617 0.424-2.034 1.056-1.056 3.097 0.167 3.097 1.856 0 0.401-0.062 0.567-0.325 0.866-0.488 0.556-1.46 0.798-2.181 0.543zM3.55 9.119c-0.402-0.402-0.413-0.838-0.031-1.22s0.819-0.371 1.22 0.031c0.188 0.188 0.312 0.424 0.312 0.595 0 0.374-0.532 0.907-0.907 0.907-0.171 0-0.407-0.124-0.595-0.312zM24.618 7.678c-0.257-0.188-0.123-0.488 0.217-0.488 0.214 0 0.27 0.053 0.27 0.255 0 0.309-0.231 0.42-0.487 0.233zM10.928 7.256c-0.172-0.207 0.024-0.599 0.301-0.599 0.293 0 0.503 0.296 0.366 0.516-0.148 0.236-0.503 0.28-0.666 0.083zM8.114 6.869c-0.15-0.118-0.329-0.383-0.396-0.587-0.103-0.313-0.092-0.436 0.072-0.772 0.699-1.43 2.701-0.458 2.041 0.99-0.259 0.568-1.206 0.771-1.717 0.369zM26.16 6.073c-0.582-0.322-0.623-1.103-0.078-1.485 0.582-0.408 1.37 0.046 1.37 0.788 0 0.277-0.423 0.728-0.747 0.795-0.147 0.031-0.392-0.014-0.545-0.098zM22.684 5.589c-0.756-0.305-0.865-1.798-0.171-2.344 0.332-0.261 0.678-0.273 1.168-0.040 0.806 0.382 1.176 1.546 0.65 2.039-0.443 0.415-1.12 0.557-1.647 0.345zM15.964 3.19c-0.753-0.528-0.048-1.8 0.802-1.448 0.568 0.235 0.716 0.92 0.29 1.346-0.299 0.299-0.75 0.341-1.093 0.102zM12.381 1.151c-0.263-0.263 0.089-0.744 0.458-0.627 0.34 0.108 0.253 0.629-0.112 0.671-0.149 0.017-0.305-0.003-0.347-0.044z"></path>
<path d="M15.292 31.759c-1.927-0.305-3.247-0.703-4.638-1.398-1.736-0.867-2.565-1.503-3.777-2.898-0.258-0.297-0.53-0.539-0.604-0.539-0.188 0-0.881-0.808-1.538-1.791-1.627-2.436-2.389-5.096-2.384-8.322l0.002-1.526 0.441-0.45c0.301-0.306 0.497-0.636 0.615-1.033 0.326-1.099 1.385-1.824 2.422-1.659 0.852 0.136 1.645 0.775 1.816 1.463 0.044 0.179 0.238 0.383 0.524 0.555 0.25 0.149 0.598 0.39 0.774 0.534l0.32 0.262 0.007 1.69c0.008 1.936 0.121 2.48 0.794 3.823 1.537 3.068 4.896 4.828 8.212 4.303 1.306-0.207 2.38-0.167 3.112 0.113 1.741 0.668 2.546 2.735 2.043 5.247-0.054 0.27-0.167 0.37-0.663 0.591-0.834 0.37-2.229 0.763-3.369 0.948-0.874 0.142-3.421 0.195-4.11 0.086zM26.681 27.59c-0.745-0.849-0.745-2.199-0.001-3.589 0.345-0.644 1.881-2.226 2.638-2.717l0.533-0.346 0.18 0.222c0.29 0.358 0.442 1.306 0.309 1.927-0.218 1.016-1.014 2.304-2.386 3.861-0.745 0.846-0.987 0.967-1.274 0.64zM8.131 13.486c-0.813-0.435-1.129-1.091-1.029-2.137 0.115-1.194 1.353-2.024 2.544-1.703 0.718 0.193 1.485 1.020 1.485 1.599 0 0.124-0.156 0.419-0.347 0.656s-0.517 0.726-0.725 1.087l-0.379 0.656-0.581 0.024c-0.409 0.017-0.696-0.037-0.969-0.183zM5.265 11.137c-0.117-0.117-0.213-0.309-0.213-0.427 0-0.289 0.371-0.64 0.677-0.64 0.53 0 0.805 0.744 0.408 1.103-0.262 0.237-0.612 0.223-0.872-0.037zM23.324 11.035c-1.271-0.775-0.812-2.67 0.646-2.671 0.591-0.001 1.16 0.355 1.379 0.861 0.226 0.522 0.225 0.581-0.027 1.136-0.367 0.809-1.275 1.115-1.998 0.674zM27.843 10.819c-0.438-0.385-0.714-1.189-0.515-1.506 0.068-0.109 0.124-0.275 0.124-0.368s0.14-0.31 0.312-0.481c0.453-0.453 1.132-0.443 1.663 0.024 0.486 0.427 0.692 0.826 0.692 1.342 0 0.482-0.188 0.783-0.679 1.087-0.539 0.333-1.148 0.297-1.596-0.096zM11.711 10.806c-0.172-0.278-0.173-1.454-0.001-2.124 0.292-1.143 0.889-1.77 1.875-1.971 0.205-0.042 0.498-0.193 0.65-0.336s0.451-0.288 0.664-0.322c0.341-0.055 0.432-0.018 0.763 0.313 0.245 0.245 0.376 0.477 0.376 0.665 0 0.179 0.157 0.478 0.411 0.784 0.437 0.526 0.702 0.964 0.628 1.038-0.025 0.025-0.449 0.095-0.942 0.157-1.458 0.182-2.604 0.65-3.768 1.538-0.549 0.419-0.554 0.421-0.656 0.257zM19.825 9.377c-0.561-0.198-0.851-0.551-1.014-1.231-0.177-0.737 0.006-1.617 0.424-2.034 1.056-1.056 3.097 0.167 3.097 1.856 0 0.401-0.062 0.567-0.325 0.866-0.488 0.556-1.46 0.798-2.181 0.543zM3.55 9.119c-0.402-0.402-0.413-0.838-0.031-1.22s0.819-0.371 1.22 0.031c0.188 0.188 0.312 0.424 0.312 0.595 0 0.374-0.532 0.907-0.907 0.907-0.171 0-0.407-0.124-0.595-0.312zM24.618 7.678c-0.257-0.188-0.123-0.488 0.217-0.488 0.214 0 0.27 0.053 0.27 0.255 0 0.309-0.231 0.42-0.487 0.233zM10.928 7.256c-0.172-0.207 0.024-0.599 0.301-0.599 0.293 0 0.503 0.296 0.366 0.516-0.148 0.236-0.503 0.28-0.666 0.083zM8.114 6.869c-0.15-0.118-0.329-0.383-0.396-0.587-0.103-0.313-0.092-0.436 0.072-0.772 0.699-1.43 2.701-0.458 2.041 0.99-0.259 0.568-1.206 0.771-1.717 0.369zM26.16 6.073c-0.582-0.322-0.623-1.103-0.078-1.485 0.582-0.408 1.37 0.046 1.37 0.788 0 0.277-0.423 0.728-0.747 0.795-0.147 0.031-0.392-0.014-0.545-0.098zM22.684 5.589c-0.756-0.305-0.865-1.798-0.171-2.344 0.332-0.261 0.678-0.273 1.168-0.040 0.806 0.382 1.176 1.546 0.65 2.039-0.443 0.415-1.12 0.557-1.647 0.345zM15.964 3.19c-0.753-0.528-0.048-1.8 0.802-1.448 0.568 0.235 0.716 0.92 0.29 1.346-0.299 0.299-0.75 0.341-1.093 0.102zM12.381 1.151c-0.263-0.263 0.089-0.744 0.458-0.627 0.34 0.108 0.253 0.629-0.112 0.671-0.149 0.017-0.305-0.003-0.347-0.044z"></path>
<path d="M15.292 31.759c-2.582-0.409-4.506-1.133-6.345-2.386-1.446-0.986-1.48-1.029-1.528-1.927-0.023-0.434-0.081-0.83-0.128-0.88s-0.338-0.008-0.65 0.095l-0.563 0.187-0.357-0.415c-0.997-1.16-2.125-3.161-2.624-4.653-0.563-1.684-0.872-4.018-0.75-5.659l0.070-0.938 0.544-0.492c0.299-0.271 0.856-0.641 1.238-0.822 0.631-0.301 0.785-0.33 1.707-0.322 0.9 0.008 1.091 0.045 1.707 0.336 0.381 0.18 0.909 0.494 1.173 0.697l0.48 0.37 0.007 1.694c0.008 1.94 0.121 2.484 0.794 3.828 1.537 3.068 4.896 4.828 8.212 4.303 1.306-0.207 2.38-0.167 3.112 0.113 1.741 0.668 2.546 2.735 2.043 5.247-0.054 0.27-0.167 0.37-0.663 0.591-0.834 0.37-2.229 0.763-3.369 0.948-0.874 0.142-3.421 0.195-4.11 0.086zM26.681 27.59c-0.745-0.849-0.745-2.199-0.001-3.589 0.345-0.644 1.881-2.226 2.638-2.717l0.533-0.346 0.18 0.222c0.29 0.358 0.442 1.306 0.309 1.927-0.218 1.016-1.014 2.304-2.386 3.861-0.745 0.846-0.987 0.967-1.274 0.64zM8.131 13.486c-0.813-0.435-1.129-1.091-1.029-2.137 0.115-1.194 1.353-2.024 2.544-1.703 0.718 0.193 1.485 1.020 1.485 1.599 0 0.124-0.156 0.419-0.347 0.656s-0.517 0.726-0.725 1.087l-0.379 0.656-0.581 0.024c-0.409 0.017-0.696-0.037-0.969-0.183zM23.62 11.205c0.024-0.022 0.279-0.064 0.566-0.095 0.319-0.034 0.464-0.020 0.373 0.037-0.138 0.088-1.035 0.143-0.939 0.058zM28.128 11.055c-0.068-0.043 0.18-0.078 0.55-0.078s0.618 0.035 0.55 0.078c-0.068 0.043-0.315 0.078-0.55 0.078s-0.482-0.035-0.55-0.078zM24.945 10.817c0.106-0.117 0.217-0.213 0.246-0.213s-0.034 0.096-0.14 0.213c-0.106 0.117-0.217 0.213-0.246 0.213s0.034-0.096 0.14-0.213zM11.72 10.82c-0.276-0.447-0.12-2.128 0.269-2.89 0.264-0.516 0.862-1.027 1.355-1.154 0.969-0.251 1.991 0.057 2.865 0.862 0.452 0.416 0.965 1.12 0.88 1.205-0.023 0.023-0.424 0.090-0.892 0.15-1.525 0.195-2.813 0.719-3.855 1.568-0.485 0.396-0.525 0.412-0.62 0.258zM27.501 10.49c-0.039-0.063-0.047-0.137-0.019-0.165s0.079 0.023 0.114 0.114c0.072 0.188 0.011 0.221-0.095 0.051zM27.283 9.796c-0.039-0.21-0.030-0.423 0.022-0.473 0.053-0.052 0.099 0.112 0.107 0.381 0.016 0.572-0.032 0.607-0.128 0.092zM25.442 9.75c0-0.147 0.024-0.207 0.054-0.133s0.030 0.193 0 0.267c-0.030 0.073-0.054 0.013-0.054-0.133zM19.472 9.214c-0.455-0.277-0.693-0.843-0.697-1.659-0.009-1.657 1.337-2.376 2.615-1.398 0.876 0.67 1.222 1.927 0.709 2.579-0.522 0.664-1.91 0.916-2.628 0.478zM22.494 5.336c-0.492-0.492-0.483-1.588 0.016-1.981 0.596-0.468 1.496-0.132 1.863 0.697 0.159 0.36 0.189 0.555 0.118 0.771-0.236 0.713-1.478 1.032-1.997 0.514z"></path>
<path d="M15.638 31.757c0.103-0.027 0.271-0.027 0.373 0s0.019 0.049-0.187 0.049c-0.205 0-0.289-0.022-0.187-0.049zM18.198 31.757c0.103-0.027 0.271-0.027 0.373 0s0.019 0.049-0.187 0.049c-0.205 0-0.289-0.022-0.187-0.049zM13.958 31.522c-2.196-0.478-4.525-1.607-6.129-2.973-0.349-0.297-0.371-0.357-0.411-1.103-0.023-0.434-0.081-0.83-0.128-0.88s-0.338-0.008-0.65 0.095l-0.563 0.187-0.357-0.415c-0.997-1.16-2.125-3.161-2.624-4.653-0.563-1.684-0.872-4.018-0.75-5.659l0.070-0.938 0.544-0.492c0.299-0.271 0.856-0.641 1.238-0.822 0.631-0.301 0.785-0.33 1.707-0.322 0.9 0.008 1.091 0.045 1.707 0.336 0.381 0.18 0.909 0.494 1.173 0.697l0.48 0.37 0.007 1.694c0.005 1.246 0.055 1.863 0.187 2.334 0.259 0.924 0.962 2.269 1.515 2.901l0.478 0.546-0.442 0.78c-0.491 0.867-0.493 0.638 0.022 2.279 0.336 1.068 0.342 3.015 0.014 4-0.271 0.813-0.276 0.855-0.1 0.85 0.073-0.002 0.325-0.321 0.56-0.708 0.542-0.896 1.796-2.187 2.827-2.91 0.798-0.561 2.578-1.497 2.846-1.497 0.246 0 0.152-0.213-0.099-0.225-0.559-0.028 2.075-0.344 2.853-0.343 2.717 0.006 4.149 2.249 3.502 5.486-0.054 0.269-0.166 0.37-0.65 0.584-0.6 0.265-0.84 0.332-0.562 0.156 0.086-0.055 0.134-0.117 0.107-0.138s-0.302-0.197-0.61-0.39c-1.442-0.905-2.342-2.599-2.546-4.792-0.066-0.707-0.091-0.771-0.296-0.742-0.207 0.029-0.229 0.12-0.29 1.152-0.077 1.316-0.347 2.087-1.1 3.141-0.557 0.78-1.24 1.411-2.113 1.95-0.649 0.4-0.732 0.516-0.428 0.596 0.506 0.132-0.226 0.037-0.987-0.128zM19.218 31.651c0.077-0.031 0.169-0.027 0.204 0.008s-0.028 0.061-0.14 0.056c-0.124-0.005-0.15-0.030-0.064-0.064zM26.681 27.59c-0.745-0.849-0.745-2.199-0.001-3.589 0.345-0.644 1.881-2.226 2.638-2.717l0.533-0.346 0.18 0.222c0.29 0.358 0.442 1.306 0.309 1.927-0.218 1.016-1.014 2.304-2.386 3.861-0.745 0.846-0.987 0.967-1.274 0.64zM16.067 24.823c0.104-0.027 0.248-0.025 0.32 0.004s-0.013 0.051-0.189 0.049c-0.176-0.002-0.235-0.026-0.131-0.053zM15.378 24.718c0.077-0.031 0.169-0.027 0.204 0.008s-0.028 0.061-0.14 0.056c-0.124-0.005-0.15-0.030-0.064-0.064zM14.952 24.611c0.077-0.031 0.169-0.027 0.204 0.008s-0.028 0.061-0.14 0.056c-0.124-0.005-0.15-0.030-0.064-0.064zM11.925 22.95l-0.313-0.347 0.347 0.313c0.191 0.172 0.347 0.328 0.347 0.347 0 0.082-0.088 0.010-0.38-0.313zM8.131 13.486c-0.813-0.435-1.129-1.091-1.029-2.137 0.115-1.194 1.353-2.024 2.544-1.703 0.718 0.193 1.485 1.020 1.485 1.599 0 0.124-0.156 0.419-0.347 0.656s-0.517 0.726-0.725 1.087l-0.379 0.656-0.581 0.024c-0.409 0.017-0.696-0.037-0.969-0.183zM23.62 11.205c0.024-0.022 0.279-0.064 0.566-0.095 0.319-0.034 0.464-0.020 0.373 0.037-0.138 0.088-1.035 0.143-0.939 0.058zM28.128 11.055c-0.068-0.043 0.18-0.078 0.55-0.078s0.618 0.035 0.55 0.078c-0.068 0.043-0.315 0.078-0.55 0.078s-0.482-0.035-0.55-0.078zM24.945 10.817c0.106-0.117 0.217-0.213 0.246-0.213s-0.034 0.096-0.14 0.213c-0.106 0.117-0.217 0.213-0.246 0.213s0.034-0.096 0.14-0.213zM11.72 10.82c-0.276-0.447-0.12-2.128 0.269-2.89 0.264-0.516 0.862-1.027 1.355-1.154 0.969-0.251 1.991 0.057 2.865 0.862 0.452 0.416 0.965 1.12 0.88 1.205-0.023 0.023-0.424 0.090-0.892 0.15-1.525 0.195-2.813 0.719-3.855 1.568-0.485 0.396-0.525 0.412-0.62 0.258zM27.501 10.49c-0.039-0.063-0.047-0.137-0.019-0.165s0.079 0.023 0.114 0.114c0.072 0.188 0.011 0.221-0.095 0.051zM27.283 9.796c-0.039-0.21-0.030-0.423 0.022-0.473 0.053-0.052 0.099 0.112 0.107 0.381 0.016 0.572-0.032 0.607-0.128 0.092zM25.442 9.75c0-0.147 0.024-0.207 0.054-0.133s0.030 0.193 0 0.267c-0.030 0.073-0.054 0.013-0.054-0.133zM19.472 9.214c-0.455-0.277-0.693-0.843-0.697-1.659-0.009-1.657 1.337-2.376 2.615-1.398 0.876 0.67 1.222 1.927 0.709 2.579-0.522 0.664-1.91 0.916-2.628 0.478zM22.494 5.336c-0.492-0.492-0.483-1.588 0.016-1.981 0.596-0.468 1.496-0.132 1.863 0.697 0.159 0.36 0.189 0.555 0.118 0.771-0.236 0.713-1.478 1.032-1.997 0.514z"></path>
<path d="M15.638 31.757c0.103-0.027 0.271-0.027 0.373 0s0.019 0.049-0.187 0.049c-0.205 0-0.289-0.022-0.187-0.049zM18.198 31.757c0.103-0.027 0.271-0.027 0.373 0s0.019 0.049-0.187 0.049c-0.205 0-0.289-0.022-0.187-0.049zM14.845 31.651c0.077-0.031 0.169-0.027 0.204 0.008s-0.028 0.061-0.14 0.056c-0.124-0.005-0.15-0.030-0.064-0.064zM19.218 31.651c0.077-0.031 0.169-0.027 0.204 0.008s-0.028 0.061-0.14 0.056c-0.124-0.005-0.15-0.030-0.064-0.064zM22.222 30.875c0.086-0.055 0.134-0.117 0.107-0.138s-0.302-0.197-0.61-0.39c-1.441-0.904-2.342-2.599-2.546-4.787-0.063-0.683-0.096-0.77-0.296-0.779-0.124-0.006-0.033-0.058 0.202-0.115 0.578-0.141 1.593-0.040 2.319 0.231 1.729 0.647 2.538 2.729 2.036 5.239-0.054 0.269-0.166 0.37-0.65 0.584-0.6 0.265-0.84 0.332-0.562 0.156zM26.681 27.59c-0.745-0.849-0.745-2.199-0.001-3.589 0.345-0.644 1.881-2.226 2.638-2.717l0.533-0.346 0.18 0.222c0.29 0.358 0.442 1.306 0.309 1.927-0.218 1.016-1.014 2.304-2.386 3.861-0.745 0.846-0.987 0.967-1.274 0.64zM7.398 25.864c0-1.16 0.96-4.060 1.344-4.060 0.311 0 1.536 1.73 1.536 2.169 0 0.181-0.205 0.451-0.681 0.897-0.656 0.614-1.833 1.414-2.080 1.414-0.068 0-0.119-0.181-0.119-0.42zM16.118 24.826c0.073-0.030 0.193-0.030 0.267 0s0.013 0.054-0.133 0.054c-0.147 0-0.207-0.024-0.133-0.054zM17.932 24.826c0.073-0.030 0.193-0.030 0.267 0s0.013 0.054-0.133 0.054c-0.147 0-0.207-0.024-0.133-0.054zM11.87 22.897l-0.259-0.293 0.293 0.259c0.274 0.242 0.342 0.328 0.259 0.328-0.019 0-0.151-0.132-0.293-0.293zM11.225 22.257c-0.133-0.169-0.129-0.173 0.040-0.040 0.103 0.081 0.187 0.165 0.187 0.187 0 0.088-0.088 0.031-0.227-0.146zM8.358 21.261c-0.695-0.569-1.604-1.085-2.271-1.287-0.942-0.286-2.263-0.244-2.945 0.093-0.309 0.153-0.465 0.185-0.493 0.1-0.158-0.479-0.3-2.071-0.299-3.356l0.001-1.526 0.83-0.85 0.148 0.457c0.186 0.575 0.581 1.109 1.013 1.373 0.551 0.336 0.577 0.231 0.028-0.117-0.389-0.246-0.57-0.459-0.775-0.907-0.147-0.322-0.252-0.669-0.233-0.771 0.020-0.108 0.349-0.344 0.779-0.56 0.686-0.344 0.819-0.373 1.71-0.373 0.729 0 1.079 0.051 1.427 0.208l0.461 0.208-0.047 0.569c-0.058 0.695-0.484 1.357-1.1 1.706-0.46 0.261-0.43 0.336 0.036 0.092 0.669-0.35 1.195-1.197 1.195-1.926 0-0.207 0.043-0.377 0.095-0.377s0.389 0.216 0.748 0.481l0.653 0.481-0.064 1.306c-0.068 1.391 0.066 2.41 0.452 3.418l0.196 0.512-0.597 0.634c-0.329 0.349-0.617 0.633-0.64 0.632s-0.163-0.101-0.309-0.221zM5.88 16.501c-0.16-0.024-0.448-0.025-0.64-0.001s-0.061 0.044 0.291 0.044c0.352 0.001 0.509-0.019 0.349-0.043zM8.131 13.486c-0.813-0.435-1.129-1.091-1.029-2.137 0.115-1.194 1.353-2.024 2.544-1.703 0.718 0.193 1.485 1.020 1.485 1.599 0 0.124-0.156 0.419-0.347 0.656s-0.517 0.726-0.725 1.087l-0.379 0.656-0.581 0.024c-0.409 0.017-0.696-0.037-0.969-0.183zM23.62 11.205c0.024-0.022 0.279-0.064 0.566-0.095 0.319-0.034 0.464-0.020 0.373 0.037-0.138 0.088-1.035 0.143-0.939 0.058zM28.128 11.055c-0.068-0.043 0.18-0.078 0.55-0.078s0.618 0.035 0.55 0.078c-0.068 0.043-0.315 0.078-0.55 0.078s-0.482-0.035-0.55-0.078zM24.945 10.817c0.106-0.117 0.217-0.213 0.246-0.213s-0.034 0.096-0.14 0.213c-0.106 0.117-0.217 0.213-0.246 0.213s0.034-0.096 0.14-0.213zM27.501 10.49c-0.039-0.063-0.047-0.137-0.019-0.165s0.079 0.023 0.114 0.114c0.072 0.188 0.011 0.221-0.095 0.051zM27.283 9.796c-0.039-0.21-0.030-0.423 0.022-0.473 0.053-0.052 0.099 0.112 0.107 0.381 0.016 0.572-0.032 0.607-0.128 0.092zM25.442 9.75c0-0.147 0.024-0.207 0.054-0.133s0.030 0.193 0 0.267c-0.030 0.073-0.054 0.013-0.054-0.133zM14.413 8.090c-0.317-0.172-0.615-0.655-0.615-0.997 0-0.318 0.341-0.456 0.846-0.343 0.541 0.122 1.394 0.616 1.394 0.809 0 0.080-0.148 0.27-0.328 0.422-0.373 0.314-0.846 0.354-1.297 0.109zM22.796 5.485c-0.388-0.157-0.571-0.534-0.571-1.178 0-0.656 0.215-1.006 0.692-1.126 0.626-0.157 1.548 0.686 1.548 1.417 0 0.696-0.924 1.187-1.669 0.887z"></path>
<path d="M26.681 27.59c-0.745-0.849-0.745-2.199-0.001-3.589 0.345-0.644 1.881-2.226 2.638-2.717l0.533-0.346 0.18 0.222c0.29 0.358 0.442 1.306 0.309 1.927-0.218 1.016-1.014 2.304-2.386 3.861-0.745 0.846-0.987 0.967-1.274 0.64zM7.398 25.864c0-1.16 0.96-4.060 1.344-4.060 0.311 0 1.536 1.73 1.536 2.169 0 0.181-0.205 0.451-0.681 0.897-0.656 0.614-1.833 1.414-2.080 1.414-0.068 0-0.119-0.181-0.119-0.42zM4.372 16.148c-0.389-0.246-0.57-0.459-0.775-0.907-0.147-0.322-0.252-0.669-0.233-0.771 0.020-0.108 0.349-0.344 0.779-0.56 0.686-0.344 0.819-0.373 1.71-0.373 0.729 0 1.079 0.051 1.427 0.208l0.461 0.208-0.047 0.569c-0.095 1.141-0.988 1.943-2.168 1.946-0.537 0.001-0.731-0.052-1.153-0.32zM8.131 13.486c-0.813-0.435-1.129-1.091-1.029-2.137 0.115-1.194 1.353-2.024 2.544-1.703 0.718 0.193 1.485 1.020 1.485 1.599 0 0.124-0.156 0.419-0.347 0.656s-0.517 0.726-0.725 1.087l-0.379 0.656-0.581 0.024c-0.409 0.017-0.696-0.037-0.969-0.183zM23.62 11.205c0.024-0.022 0.279-0.064 0.566-0.095 0.319-0.034 0.464-0.020 0.373 0.037-0.138 0.088-1.035 0.143-0.939 0.058zM28.128 11.055c-0.068-0.043 0.18-0.078 0.55-0.078s0.618 0.035 0.55 0.078c-0.068 0.043-0.315 0.078-0.55 0.078s-0.482-0.035-0.55-0.078zM24.945 10.817c0.106-0.117 0.217-0.213 0.246-0.213s-0.034 0.096-0.14 0.213c-0.106 0.117-0.217 0.213-0.246 0.213s0.034-0.096 0.14-0.213zM27.501 10.49c-0.039-0.063-0.047-0.137-0.019-0.165s0.079 0.023 0.114 0.114c0.072 0.188 0.011 0.221-0.095 0.051zM27.283 9.796c-0.039-0.21-0.030-0.423 0.022-0.473 0.053-0.052 0.099 0.112 0.107 0.381 0.016 0.572-0.032 0.607-0.128 0.092zM25.442 9.75c0-0.147 0.024-0.207 0.054-0.133s0.030 0.193 0 0.267c-0.030 0.073-0.054 0.013-0.054-0.133zM14.413 8.090c-0.317-0.172-0.615-0.655-0.615-0.997 0-0.318 0.341-0.456 0.846-0.343 0.541 0.122 1.394 0.616 1.394 0.809 0 0.080-0.148 0.27-0.328 0.422-0.373 0.314-0.846 0.354-1.297 0.109zM22.796 5.485c-0.388-0.157-0.571-0.534-0.571-1.178 0-0.656 0.215-1.006 0.692-1.126 0.626-0.157 1.548 0.686 1.548 1.417 0 0.696-0.924 1.187-1.669 0.887z"></path>
<path d="M7.398 25.864c0-1.16 0.96-4.060 1.344-4.060 0.311 0 1.536 1.73 1.536 2.169 0 0.181-0.205 0.451-0.681 0.897-0.656 0.614-1.833 1.414-2.080 1.414-0.068 0-0.119-0.181-0.119-0.42zM4.372 16.148c-0.389-0.246-0.57-0.459-0.775-0.907-0.147-0.322-0.252-0.669-0.233-0.771 0.020-0.108 0.349-0.344 0.779-0.56 0.686-0.344 0.819-0.373 1.71-0.373 0.729 0 1.079 0.051 1.427 0.208l0.461 0.208-0.047 0.569c-0.095 1.141-0.988 1.943-2.168 1.946-0.537 0.001-0.731-0.052-1.153-0.32zM14.413 8.090c-0.317-0.172-0.615-0.655-0.615-0.997 0-0.318 0.341-0.456 0.846-0.343 0.541 0.122 1.394 0.616 1.394 0.809 0 0.080-0.148 0.27-0.328 0.422-0.373 0.314-0.846 0.354-1.297 0.109zM22.796 5.485c-0.388-0.157-0.571-0.534-0.571-1.178 0-0.656 0.215-1.006 0.692-1.126 0.626-0.157 1.548 0.686 1.548 1.417 0 0.696-0.924 1.187-1.669 0.887z"></path>
</symbol>
<symbol id="b-splunk" viewBox="0 0 33 32">
<title>splunk</title>
<path d="M5.622 1.589c-1.94 0.427-3.332 1.94-3.649 3.956-0.077 0.504-0.11 4.088-0.088 11.003l0.033 10.247 0.252 0.658c0.57 1.49 1.479 2.389 2.981 2.926l0.712 0.252 10.247 0.022c5.819 0.011 10.51-0.022 10.849-0.077 1.205-0.208 1.863-0.537 2.685-1.37 0.603-0.603 0.822-0.921 1.041-1.479l0.274-0.712v-22.027l-0.252-0.603c-0.669-1.578-1.973-2.564-3.748-2.86-0.329-0.055-5.096-0.099-10.63-0.088-8.011 0-10.17 0.033-10.707 0.153zM23.869 15.638l0.022 1.786-6.904 3.452c-3.803 1.896-6.959 3.452-7.014 3.452-0.066 0-0.11-0.69-0.11-1.786v-1.775l5.118-2.564 5.129-2.553-10.247-5.129v-1.732c0-0.953 0.033-1.764 0.066-1.808 0.033-0.033 3.178 1.501 6.992 3.408l6.915 3.474 0.033 1.775z"></path>
</symbol>
<symbol id="b-redhat" viewBox="0 0 32 32">
<title>redhat</title>
<path d="M14.489 31.951c-2.393-0.149-5.125-1.113-7.324-2.585-1.627-1.088-3.17-2.599-4.276-4.187-1.327-1.905-2.279-4.218-2.64-6.419-0.044-0.266-0.090-0.547-0.103-0.625-0.054-0.325-0.094-2.316-0.064-3.209 0.036-1.059 0.124-1.691 0.382-2.734 1.122-4.547 4.182-8.416 8.316-10.515 1.803-0.915 3.985-1.53 5.771-1.625 1.506-0.080 3.502-0.013 4.373 0.148 2.701 0.498 5.155 1.627 7.275 3.347 2.974 2.414 5.013 5.857 5.679 9.59 0.192 1.078 0.222 1.455 0.223 2.841 0.002 1.418-0.033 1.851-0.242 2.986-0.911 4.964-4.226 9.293-8.804 11.498-1.452 0.699-3.002 1.186-4.433 1.391-0.949 0.136-2.799 0.18-4.131 0.097zM17.955 31.582c2.488-0.336 4.57-1.087 6.61-2.383 1.417-0.901 2.708-2.083 3.906-3.576l0.153-0.191-0.115-0.050c-0.082-0.035-0.35-0.047-0.927-0.040-0.447 0.006-0.891-0.007-0.987-0.029-0.368-0.081-1.002-0.118-1.586-0.092l-0.605 0.027 0.007 0.161c0.004 0.089 0.019 0.253 0.035 0.365 0.026 0.191 0.020 0.212-0.095 0.327-0.079 0.079-0.307 0.198-0.639 0.332-0.992 0.401-1.048 0.438-1.743 1.132-0.832 0.832-1.248 1.099-1.799 1.157-0.287 0.030-0.298-0.032-0.078-0.451 0.351-0.67 0.871-1.414 1.933-2.762 0.584-0.741 0.613-0.808 0.749-1.733 0.024-0.166 0.108-0.511 0.186-0.766 0.182-0.599 0.258-0.96 0.258-1.232 0-0.215-0.002-0.219-0.118-0.219-0.065 0-0.269 0.056-0.453 0.124-0.299 0.111-0.383 0.124-0.779 0.124-0.305-0-0.569-0.028-0.846-0.088-0.646-0.141-0.921-0.146-1.35-0.023-0.453 0.13-0.603 0.131-0.982 0.007-0.47-0.153-0.965-0.168-2.081-0.063-0.72 0.068-1.092 0.084-1.552 0.067-1.186-0.045-1.606-0.273-2.457-1.335-0.546-0.681-0.812-0.951-1.094-1.113-0.254-0.145-0.352-0.148-0.527-0.014-0.191 0.146-0.335 0.18-0.488 0.115-0.218-0.092-0.53-0.422-0.854-0.904-0.369-0.549-0.63-0.805-0.999-0.98-0.235-0.111-0.314-0.128-0.593-0.128-0.391 0.001-0.59 0.089-0.875 0.389-0.251 0.264-0.365 0.562-0.367 0.96-0.001 0.26 0.017 0.34 0.13 0.578 0.336 0.702 1.065 1.599 1.505 1.85 0.228 0.13 0.352 0.316 0.352 0.527 0 0.289-0.117 0.413-0.428 0.452-0.262 0.034-0.574-0.031-0.905-0.187-0.372-0.176-0.493-0.281-0.801-0.695-0.392-0.527-0.562-0.665-1.010-0.817-0.205-0.070-0.358-0.075-2.074-0.068-2.118 0.008-1.944-0.029-1.852 0.396 0.073 0.339 0.070 0.544-0.010 0.632-0.037 0.041-0.081 0.074-0.098 0.074s-0.076 0.017-0.131 0.038l-0.1 0.038 0.12 0.315c0.188 0.493 0.798 1.717 1.119 2.249 2.018 3.34 5.185 5.809 8.889 6.932 1.073 0.325 2.221 0.541 3.406 0.641 0.439 0.037 2.622-0.014 3.043-0.071zM17.914 24.723c-0.155-0.055-0.454-0.147-0.665-0.204-0.418-0.113-0.524-0.179-0.524-0.324 0-0.132 0.093-0.34 0.191-0.427 0.159-0.142 0.332-0.131 0.791 0.048 0.234 0.091 0.504 0.177 0.599 0.19 0.243 0.033 0.492-0.045 0.678-0.213s0.303-0.163 0.412 0.021c0.203 0.344-0.061 0.808-0.541 0.951-0.302 0.090-0.611 0.076-0.94-0.041zM22.69 20.577c0.688-0.081 1.48-0.209 1.793-0.29 1.252-0.321 2.388-0.97 3.305-1.889 1.556-1.558 1.894-3.261 0.9-4.54-0.349-0.449-0.977-0.904-1.75-1.268-0.427-0.201-1.713-0.743-1.764-0.743-0.011 0-0.050 0.095-0.088 0.212-0.212 0.653-0.685 1.38-0.88 1.352-0.139-0.020-0.126-0.253 0.051-0.971 0.28-1.131 0.288-1.278 0.12-2.156-0.115-0.602-0.389-1.415-0.847-2.515-0.222-0.532-0.475-1.178-0.564-1.437-0.534-1.562-1.382-2.549-2.494-2.902-1.114-0.354-2.155-0.361-3.811-0.025-0.961 0.195-1.27 0.187-2.658-0.071-0.902-0.167-1.716-0.182-2.209-0.041-0.416 0.12-0.732 0.283-0.983 0.509-0.257 0.231-0.413 0.473-0.645 1-0.525 1.194-0.797 2.338-0.844 3.558-0.022 0.557-0.017 0.623 0.065 0.836 0.244 0.642 0.913 1.133 2.098 1.541 0.299 0.103 1.151 0.357 1.894 0.564 2.214 0.619 2.526 0.738 2.929 1.121 0.222 0.211 0.357 0.524 0.434 1.009 0.035 0.218 0.089 0.445 0.119 0.504s0.185 0.252 0.342 0.428c0.441 0.494 0.394 0.614-0.222 0.571-1.164-0.082-2.271-0.442-4.409-1.436-0.344-0.16-0.996-0.453-1.451-0.652-1.083-0.474-1.455-0.673-1.791-0.958-0.686-0.581-0.859-1.219-0.567-2.089 0.062-0.183 0.102-0.344 0.089-0.357s-0.383-0.041-0.822-0.063c-1.607-0.079-2.686 0.052-3.411 0.416-0.322 0.161-0.754 0.52-0.956 0.793-0.293 0.397-0.372 0.634-0.352 1.055 0.015 0.3 0.038 0.386 0.183 0.689 0.425 0.884 1.645 2.136 3.255 3.342 1.608 1.204 3.797 2.371 6.528 3.478 2.012 0.816 3.8 1.272 5.622 1.435 0.277 0.025 0.567 0.052 0.645 0.061 0.359 0.040 2.633-0.014 3.144-0.074zM11.979 8.082c-0.489-0.227-0.953-0.875-0.953-1.328 0-0.255 0.15-0.577 0.31-0.667 0.105-0.059 0.111-0.056 0.341 0.185 0.323 0.338 0.565 0.456 1.16 0.562 0.271 0.049 0.448 0.050 1.109 0.010 0.878-0.054 1.203-0.025 1.523 0.136 0.522 0.262 0.258 0.413-0.899 0.517-0.845 0.075-1.544 0.278-1.902 0.552-0.214 0.164-0.389 0.172-0.688 0.033zM19.023 5.45c0-0.051 0.072-0.143 0.182-0.233 0.223-0.183 0.251-0.28 0.149-0.511-0.084-0.19-0.223-0.283-0.501-0.334-0.082-0.015-0.17-0.053-0.196-0.083-0.086-0.103 0.145-0.147 0.668-0.126 0.603 0.024 0.836 0.094 1.099 0.33 0.359 0.323 0.377 0.548 0.058 0.749-0.268 0.17-0.527 0.237-1.027 0.266-0.42 0.024-0.433 0.023-0.433-0.059z"></path>
<path d="M14.489 31.937c-2.588-0.205-5.328-1.21-7.588-2.785-0.965-0.673-2.137-1.725-2.91-2.613-2.142-2.462-3.465-5.452-3.851-8.705-0.088-0.744-0.089-3.033-0.001-3.734 0.378-3.018 1.544-5.762 3.482-8.195 0.467-0.587 1.763-1.894 2.344-2.364 2.143-1.736 4.661-2.868 7.43-3.341 0.558-0.095 1.912-0.197 2.626-0.198 0.778-0.001 2.169 0.107 2.811 0.219 3.426 0.593 6.609 2.324 8.985 4.886 2.943 3.173 4.474 7.357 4.263 11.65-0.161 3.267-1.237 6.261-3.183 8.859-2.463 3.288-6.102 5.505-10.181 6.202-0.988 0.169-2.917 0.224-4.226 0.12zM17.233 31.677c1.384-0.11 2.525-0.339 3.804-0.764 2.929-0.974 5.528-2.805 7.429-5.235l0.195-0.249-0.137-0.057c-0.155-0.065-0.418-0.079-1.2-0.065-0.349 0.006-0.682-0.013-0.928-0.054-0.433-0.071-1.859-0.086-1.982-0.020-0.088 0.047-0.092 0.154-0.013 0.414 0.054 0.177 0.053 0.21-0.006 0.335-0.076 0.161-0.217 0.24-0.947 0.532-0.274 0.11-0.588 0.25-0.699 0.312-0.115 0.065-0.46 0.373-0.806 0.72-0.651 0.653-1.022 0.931-1.419 1.065-0.266 0.089-0.515 0.11-0.554 0.046-0.049-0.079 0.425-0.917 0.873-1.546 0.155-0.217 0.582-0.78 0.949-1.249s0.719-0.964 0.782-1.098c0.081-0.172 0.135-0.381 0.18-0.705 0.035-0.254 0.143-0.733 0.239-1.066 0.199-0.687 0.273-1.063 0.254-1.292-0.017-0.214-0.107-0.222-0.573-0.051-0.342 0.125-0.399 0.134-0.831 0.129-0.312-0.004-0.595-0.034-0.866-0.094-0.666-0.147-0.793-0.147-1.355-0.004l-0.498 0.127-0.403-0.125c-0.372-0.116-0.448-0.125-0.987-0.126-0.321-0-0.875 0.030-1.229 0.067-0.861 0.091-1.718 0.092-2.131 0.002-0.765-0.167-1.082-0.415-1.975-1.546-0.434-0.55-0.956-0.976-1.196-0.976-0.034 0-0.16 0.063-0.28 0.141-0.254 0.164-0.276 0.167-0.475 0.064-0.215-0.111-0.481-0.405-0.805-0.89-0.441-0.66-0.778-0.938-1.295-1.070-0.59-0.151-1.127 0.116-1.442 0.716-0.1 0.191-0.112 0.254-0.112 0.616-0 0.378 0.008 0.419 0.134 0.665 0.378 0.736 1.033 1.541 1.439 1.771 0.122 0.069 0.258 0.184 0.301 0.255 0.112 0.184 0.105 0.438-0.016 0.579-0.084 0.098-0.13 0.113-0.375 0.127-0.22 0.012-0.338-0.005-0.559-0.082-0.461-0.16-0.704-0.343-1.019-0.766-0.357-0.479-0.491-0.604-0.812-0.753-0.385-0.179-0.745-0.222-1.511-0.18-0.355 0.019-1.107 0.035-1.673 0.035h-1.028l-0.014 0.121c-0.008 0.067 0.018 0.26 0.056 0.431 0.065 0.286 0.065 0.318 0.006 0.409-0.036 0.055-0.137 0.123-0.224 0.153l-0.159 0.054 0.159 0.403c0.253 0.642 0.847 1.804 1.246 2.436 1.871 2.966 4.605 5.191 7.872 6.407 1.343 0.5 2.795 0.809 4.44 0.944 0.388 0.032 1.705 0.023 2.181-0.014zM17.673 24.625c-0.266-0.087-0.564-0.181-0.661-0.21s-0.195-0.081-0.217-0.116c-0.063-0.102 0.007-0.36 0.133-0.486 0.155-0.155 0.323-0.15 0.738 0.022 0.661 0.273 0.994 0.273 1.315-0.003 0.186-0.159 0.262-0.16 0.378-0.005 0.141 0.189 0.078 0.504-0.14 0.702-0.189 0.172-0.364 0.231-0.719 0.242-0.306 0.010-0.394-0.006-0.826-0.146zM22.65 20.617c1.856-0.219 2.777-0.495 3.858-1.157 1.004-0.614 1.951-1.61 2.391-2.513 0.28-0.575 0.376-0.951 0.377-1.471 0.003-1.219-0.718-2.139-2.255-2.88-0.597-0.288-1.716-0.747-1.819-0.747-0.068 0-0.104 0.059-0.194 0.312-0.216 0.613-0.608 1.219-0.788 1.219-0.154 0-0.148-0.040 0.183-1.411 0.146-0.602 0.147-1.011 0.006-1.693-0.141-0.68-0.389-1.418-0.831-2.474-0.203-0.485-0.461-1.137-0.573-1.449-0.267-0.743-0.34-0.904-0.609-1.337-0.436-0.7-0.892-1.139-1.5-1.446-0.533-0.268-1.389-0.438-2.217-0.441-0.653-0.002-1.071 0.048-1.995 0.238-0.954 0.196-1.323 0.186-2.72-0.074-0.571-0.106-0.783-0.127-1.27-0.126-0.52 0.001-0.624 0.013-0.946 0.111-0.837 0.255-1.228 0.622-1.615 1.518-0.514 1.19-0.795 2.364-0.851 3.546-0.021 0.46-0.014 0.581 0.046 0.766 0.14 0.433 0.45 0.802 0.932 1.111 0.544 0.348 1.226 0.59 3.26 1.159 1.726 0.482 2.073 0.596 2.398 0.79 0.494 0.294 0.685 0.602 0.792 1.279 0.071 0.452 0.126 0.559 0.49 0.955 0.198 0.216 0.252 0.301 0.242 0.383l-0.012 0.105-0.391-0.005c-1.095-0.014-2.159-0.356-4.587-1.477-0.454-0.21-1.153-0.523-1.552-0.695-1.336-0.578-1.767-0.891-2.109-1.531-0.098-0.184-0.107-0.239-0.105-0.645 0.002-0.361 0.019-0.488 0.095-0.685 0.051-0.133 0.095-0.287 0.099-0.342 0.006-0.090-0.014-0.103-0.195-0.132-0.111-0.018-0.709-0.036-1.33-0.040-0.917-0.006-1.204 0.006-1.53 0.063-1.040 0.182-1.759 0.577-2.22 1.22-0.664 0.926-0.378 1.808 1.069 3.295 1.742 1.79 4.080 3.305 7.255 4.701 3.031 1.333 4.867 1.832 7.617 2.070 0.441 0.038 2.588-0.012 3.103-0.073zM12.209 8.124c-0.579-0.148-1.137-0.808-1.143-1.353-0.003-0.266 0.138-0.588 0.288-0.656 0.090-0.041 0.115-0.028 0.287 0.16 0.234 0.255 0.388 0.359 0.682 0.463 0.448 0.158 0.839 0.2 1.427 0.155 0.296-0.023 0.683-0.041 0.861-0.041 0.497-0 1.027 0.166 1.059 0.332 0.025 0.132-0.23 0.199-1.040 0.271-0.838 0.075-1.62 0.292-1.946 0.541-0.228 0.174-0.261 0.183-0.475 0.128zM19.063 5.431c0-0.034 0.085-0.134 0.189-0.222 0.162-0.137 0.189-0.18 0.186-0.3-0.008-0.298-0.115-0.404-0.596-0.595-0.224-0.089-0.018-0.133 0.518-0.111 0.573 0.023 0.789 0.088 1.045 0.314 0.415 0.366 0.339 0.623-0.253 0.848-0.289 0.11-1.089 0.159-1.089 0.067z"></path>
<path d="M14.811 31.956c-1.804-0.146-3.483-0.56-5.098-1.257-2.649-1.144-4.948-3.001-6.667-5.383-0.49-0.68-0.908-1.383-1.332-2.243-0.813-1.65-1.251-3.078-1.52-4.954-0.105-0.736-0.149-2.84-0.075-3.605 0.525-5.436 3.775-10.262 8.572-12.73 2.558-1.316 5.299-1.902 8.174-1.748 0.51 0.027 1.181 0.086 1.491 0.129 5.625 0.794 10.49 4.625 12.587 9.914 0.543 1.368 0.853 2.605 1.043 4.147 0.1 0.818 0.101 2.724 0.001 3.547-0.465 3.822-2.081 7.106-4.791 9.735-2.642 2.563-6.097 4.137-9.731 4.431-0.788 0.064-1.979 0.072-2.655 0.017zM16.786 31.718c1.079-0.055 1.732-0.14 2.68-0.348 3.137-0.69 6.083-2.391 8.213-4.743 0.556-0.614 0.984-1.152 0.964-1.212-0.035-0.108-0.404-0.151-1.077-0.125-0.543 0.021-0.736 0.012-1.048-0.045-0.426-0.079-1.818-0.112-2.041-0.048-0.171 0.049-0.187 0.114-0.107 0.416 0.115 0.43 0.068 0.477-0.85 0.848-0.313 0.127-0.65 0.276-0.75 0.331s-0.462 0.377-0.806 0.713c-0.344 0.337-0.699 0.669-0.791 0.739-0.356 0.272-1.052 0.519-1.158 0.412-0.12-0.12 0.657-1.335 1.754-2.744 0.91-1.169 0.919-1.186 1.019-1.932 0.031-0.233 0.124-0.65 0.206-0.927 0.205-0.692 0.256-0.943 0.258-1.255 0.001-0.191-0.014-0.274-0.054-0.289-0.073-0.028-0.26 0.017-0.622 0.148-0.403 0.146-0.909 0.147-1.615 0.003-0.637-0.13-0.897-0.13-1.346 0.001-0.439 0.128-0.515 0.128-0.905-0-0.47-0.155-1.015-0.169-2.228-0.057-1.827 0.168-2.541 0.048-3.211-0.543-0.115-0.101-0.426-0.452-0.691-0.779-0.533-0.659-0.828-0.95-1.103-1.086-0.241-0.12-0.34-0.114-0.557 0.030-0.229 0.152-0.342 0.152-0.577-0.003-0.215-0.142-0.306-0.252-0.711-0.852-0.336-0.499-0.588-0.743-0.954-0.923-0.712-0.351-1.459-0.087-1.796 0.633-0.208 0.444-0.187 0.932 0.057 1.348 0.542 0.924 1.004 1.477 1.456 1.741 0.208 0.122 0.348 0.318 0.348 0.488 0 0.167-0.107 0.346-0.222 0.37-0.055 0.011-0.146 0.030-0.203 0.042-0.162 0.034-0.57-0.056-0.846-0.187-0.324-0.153-0.521-0.333-0.856-0.782-0.293-0.392-0.509-0.565-0.885-0.705-0.312-0.117-0.879-0.158-1.519-0.112-0.29 0.021-0.977 0.028-1.526 0.014l-0.998-0.025-0.045 0.099c-0.034 0.076-0.030 0.166 0.021 0.389 0.092 0.407 0.085 0.501-0.041 0.6-0.058 0.046-0.149 0.084-0.202 0.084s-0.095 0.024-0.095 0.053c0 0.175 0.695 1.674 1.097 2.366 2.69 4.632 7.526 7.595 12.823 7.857 0.335 0.017 0.646 0.033 0.691 0.036s0.425-0.012 0.846-0.033zM17.955 24.686c-0.155-0.057-0.454-0.15-0.665-0.207-0.543-0.148-0.591-0.205-0.446-0.527 0.1-0.22 0.299-0.293 0.546-0.201 0.868 0.325 1.008 0.353 1.312 0.269 0.079-0.022 0.219-0.104 0.311-0.183 0.192-0.164 0.284-0.149 0.37 0.060 0.112 0.27-0.048 0.586-0.38 0.749s-0.68 0.175-1.050 0.041zM22.11 20.674c2.205-0.174 3.386-0.519 4.651-1.36 0.349-0.232 0.603-0.448 1.029-0.874 0.619-0.619 0.9-0.996 1.168-1.564 0.266-0.565 0.321-0.807 0.319-1.42-0.002-0.459-0.015-0.56-0.107-0.82-0.152-0.428-0.332-0.709-0.68-1.061-0.539-0.546-1.137-0.89-2.592-1.493-0.466-0.194-0.701-0.272-0.74-0.247-0.031 0.020-0.107 0.172-0.167 0.337-0.227 0.619-0.589 1.168-0.771 1.168-0.113 0-0.101-0.132 0.082-0.869 0.087-0.353 0.18-0.767 0.207-0.92 0.131-0.761-0.186-2.050-0.946-3.846-0.191-0.451-0.428-1.050-0.526-1.333-0.361-1.033-0.686-1.596-1.248-2.162-0.555-0.559-1.051-0.81-1.937-0.982-0.915-0.178-1.848-0.145-3.043 0.108-0.933 0.197-1.419 0.2-2.479 0.011-1.070-0.191-1.281-0.213-1.814-0.189-1.132 0.049-1.826 0.459-2.252 1.329-0.41 0.837-0.735 1.865-0.896 2.829-0.043 0.256-0.069 0.661-0.072 1.108-0.005 0.69-0.002 0.71 0.105 0.927 0.060 0.122 0.212 0.327 0.338 0.456 0.596 0.61 1.253 0.89 3.603 1.541 1.952 0.54 2.342 0.672 2.692 0.913 0.4 0.275 0.546 0.536 0.659 1.173 0.043 0.243 0.094 0.473 0.114 0.51s0.173 0.228 0.341 0.423c0.168 0.196 0.305 0.38 0.305 0.409 0 0.161-0.36 0.165-1.211 0.013-0.892-0.159-1.861-0.511-3.562-1.295-0.575-0.265-1.373-0.623-1.773-0.796-1.345-0.582-1.798-0.914-2.094-1.533-0.112-0.234-0.125-0.3-0.124-0.625 0.001-0.302 0.023-0.423 0.129-0.725 0.079-0.224 0.113-0.377 0.090-0.4-0.021-0.021-0.46-0.055-0.976-0.077-2.279-0.096-3.332 0.173-4.155 1.062-0.378 0.409-0.488 0.649-0.505 1.112-0.013 0.333-0.002 0.395 0.11 0.675 0.225 0.562 0.635 1.105 1.435 1.9 2.019 2.005 4.623 3.577 8.544 5.156 2.045 0.824 3.868 1.27 5.844 1.43 0.596 0.048 2.31 0.050 2.906 0.003zM12.171 8.103c-0.211-0.064-0.44-0.207-0.619-0.386-0.241-0.241-0.483-0.726-0.48-0.96 0.004-0.283 0.183-0.632 0.324-0.632 0.033 0 0.182 0.116 0.332 0.258 0.301 0.284 0.529 0.392 1.047 0.495 0.259 0.051 0.418 0.053 1.112 0.011 0.882-0.053 1.189-0.027 1.554 0.129 0.476 0.205 0.198 0.333-0.95 0.439-0.536 0.049-1.284 0.223-1.557 0.362-0.098 0.050-0.245 0.143-0.326 0.206-0.148 0.116-0.251 0.135-0.438 0.078zM19.089 5.453c-0.015-0.015 0.066-0.123 0.18-0.239 0.195-0.198 0.207-0.221 0.183-0.364-0.036-0.221-0.14-0.341-0.412-0.475l-0.24-0.118 0.161-0.036c0.207-0.047 0.748-0.010 1.008 0.068 0.273 0.082 0.512 0.266 0.626 0.481 0.090 0.169 0.091 0.183 0.027 0.28-0.102 0.156-0.523 0.34-0.888 0.389s-0.607 0.054-0.646 0.014z"></path>
<path d="M14.892 31.957c-3.303-0.263-6.298-1.444-8.846-3.489-2.941-2.36-4.937-5.664-5.682-9.404-0.21-1.056-0.26-1.633-0.261-3.063-0.002-1.408 0.020-1.704 0.2-2.741 0.265-1.526 0.694-2.831 1.411-4.292 0.568-1.158 1.114-2.018 1.931-3.043 0.518-0.65 1.795-1.926 2.451-2.449 3.592-2.867 8.295-4.029 12.91-3.192 6.004 1.089 10.97 5.695 12.53 11.622 0.67 2.546 0.707 5.278 0.104 7.803-0.725 3.041-2.395 5.906-4.657 7.992-2.149 1.981-4.647 3.297-7.436 3.916-1.479 0.328-3.215 0.456-4.655 0.341zM17.13 31.716c2.105-0.163 3.913-0.635 5.712-1.493 1.082-0.516 2.149-1.187 3.112-1.957 0.862-0.689 2.306-2.179 2.674-2.759l0.074-0.117-0.115-0.051c-0.080-0.035-0.378-0.052-0.981-0.054-0.608-0.002-0.981-0.023-1.249-0.070-0.504-0.087-1.828-0.089-1.965-0.002-0.107 0.067-0.115 0.179-0.030 0.418 0.081 0.228 0.078 0.256-0.043 0.399-0.11 0.13-0.262 0.209-0.826 0.427-0.753 0.291-0.883 0.379-1.578 1.070-0.811 0.808-1.132 1.026-1.639 1.118-0.312 0.057-0.32 0.026-0.101-0.399 0.339-0.657 0.906-1.455 2.085-2.938 0.346-0.435 0.455-0.693 0.528-1.25 0.034-0.263 0.139-0.732 0.242-1.082 0.295-1.007 0.329-1.497 0.104-1.497-0.044 0-0.271 0.063-0.502 0.141-0.578 0.194-1 0.187-1.906-0.028-0.421-0.1-0.629-0.085-1.265 0.090l-0.347 0.096-0.338-0.116c-0.296-0.102-0.41-0.118-0.915-0.133-0.382-0.011-0.818 0.008-1.29 0.056-0.392 0.040-0.985 0.072-1.317 0.071-1.295-0.004-1.765-0.252-2.691-1.421-0.491-0.62-0.783-0.9-1.104-1.058l-0.265-0.13-0.126 0.075c-0.358 0.212-0.414 0.235-0.516 0.21-0.183-0.046-0.517-0.392-0.839-0.871-0.36-0.534-0.505-0.699-0.782-0.888-0.787-0.537-1.684-0.314-2.073 0.515-0.091 0.195-0.107 0.283-0.107 0.593-0 0.341 0.010 0.384 0.155 0.678 0.358 0.724 1.030 1.555 1.452 1.792 0.263 0.148 0.355 0.282 0.359 0.521 0.002 0.152-0.016 0.2-0.107 0.278-0.092 0.079-0.154 0.094-0.385 0.094-0.329 0-0.613-0.085-0.945-0.284-0.198-0.119-0.312-0.234-0.59-0.599-0.364-0.479-0.545-0.631-0.915-0.77-0.389-0.145-0.795-0.177-1.593-0.123-0.461 0.031-1.026 0.038-1.581 0.020-0.939-0.031-0.987-0.022-0.988 0.179-0 0.058 0.030 0.237 0.067 0.397 0.086 0.366 0.051 0.462-0.195 0.545-0.132 0.045-0.171 0.077-0.161 0.133 0.008 0.041 0.121 0.326 0.253 0.633 2.115 4.945 6.582 8.464 11.874 9.355 0.508 0.086 0.937 0.134 1.763 0.2 0.392 0.031 1.42 0.023 1.916-0.015zM18.156 24.734c-0.089-0.027-0.324-0.101-0.524-0.164s-0.462-0.145-0.584-0.181c-0.195-0.058-0.223-0.080-0.235-0.182-0.017-0.147 0.061-0.335 0.169-0.41 0.136-0.095 0.347-0.069 0.732 0.090 0.604 0.249 1.006 0.232 1.314-0.057 0.135-0.126 0.23-0.108 0.33 0.062 0.068 0.116 0.072 0.155 0.031 0.29-0.026 0.086-0.091 0.209-0.146 0.274-0.2 0.238-0.755 0.38-1.088 0.278zM22.73 20.638c1.17-0.138 1.804-0.268 2.44-0.498 1.98-0.716 3.711-2.422 4.060-4.001 0.11-0.498 0.119-0.674 0.051-1.071-0.183-1.077-0.881-1.841-2.3-2.518-0.746-0.356-1.709-0.748-1.802-0.733-0.059 0.009-0.109 0.093-0.192 0.322-0.166 0.456-0.342 0.794-0.527 1.010-0.166 0.194-0.263 0.237-0.303 0.134-0.012-0.031 0.061-0.399 0.162-0.816 0.252-1.040 0.272-1.215 0.203-1.709-0.125-0.893-0.35-1.614-0.946-3.040-0.204-0.488-0.443-1.095-0.53-1.35-0.588-1.707-1.448-2.677-2.693-3.036-0.771-0.223-1.714-0.293-2.539-0.191-0.211 0.026-0.7 0.112-1.088 0.191-0.67 0.136-0.735 0.142-1.29 0.122-0.395-0.015-0.8-0.061-1.249-0.144-0.366-0.067-0.837-0.143-1.048-0.168-0.969-0.117-1.943 0.17-2.478 0.73-0.174 0.183-0.283 0.355-0.463 0.733-0.607 1.276-0.94 2.656-0.946 3.92-0.002 0.508 0.001 0.532 0.126 0.795 0.412 0.87 1.225 1.285 4.043 2.065 2.051 0.568 2.493 0.735 2.853 1.082 0.195 0.188 0.314 0.476 0.404 0.985 0.089 0.498 0.122 0.563 0.498 0.97 0.161 0.174 0.234 0.286 0.234 0.359v0.105l-0.433-0.024c-1.145-0.063-2.248-0.423-4.484-1.461-0.321-0.149-1.006-0.458-1.522-0.685s-1.069-0.496-1.229-0.597c-0.379-0.237-0.753-0.613-0.9-0.904-0.108-0.214-0.117-0.264-0.116-0.674 0.001-0.384 0.016-0.486 0.116-0.763 0.106-0.296 0.11-0.323 0.047-0.369-0.152-0.111-2.24-0.155-2.884-0.062-1.069 0.156-1.887 0.558-2.35 1.154-0.768 0.989-0.505 1.895 1 3.439 1.558 1.6 3.432 2.879 6.121 4.177 3.371 1.628 5.757 2.347 8.61 2.597 0.702 0.061 2.538 0.020 3.345-0.075zM12.134 8.075c-0.389-0.136-0.696-0.421-0.912-0.847-0.156-0.309-0.164-0.637-0.020-0.89 0.145-0.256 0.219-0.259 0.432-0.016 0.296 0.339 0.915 0.588 1.525 0.615 0.111 0.005 0.546-0.006 0.967-0.024 0.802-0.034 1.060-0.009 1.35 0.132 0.077 0.038 0.146 0.098 0.153 0.134 0.022 0.114-0.189 0.159-1.279 0.278-0.762 0.083-1.459 0.312-1.789 0.589-0.132 0.111-0.184 0.114-0.427 0.029zM19.121 5.437c-0.015-0.025 0.057-0.122 0.164-0.22 0.185-0.17 0.191-0.182 0.171-0.358-0.028-0.248-0.121-0.375-0.355-0.483-0.109-0.050-0.186-0.103-0.172-0.118s0.191-0.026 0.392-0.026c0.359 0 0.675 0.058 0.872 0.16 0.228 0.117 0.441 0.389 0.441 0.56 0 0.093-0.194 0.267-0.391 0.349-0.258 0.108-1.078 0.207-1.122 0.136z"></path>
<path d="M14.972 31.959c-5.086-0.413-9.482-2.985-12.261-7.173-1.79-2.699-2.701-5.901-2.619-9.205 0.032-1.3 0.157-2.236 0.456-3.43 1.317-5.251 5.221-9.533 10.252-11.246 2.638-0.898 5.255-1.109 7.992-0.646 3.887 0.659 7.435 2.785 9.89 5.926 2.034 2.603 3.228 5.849 3.35 9.108 0.1 2.672-0.373 5.081-1.46 7.437-0.786 1.702-1.817 3.168-3.205 4.556-1.341 1.341-2.737 2.339-4.362 3.118-1.657 0.795-3.33 1.272-5.233 1.493-0.659 0.076-2.192 0.109-2.801 0.060zM17.925 31.66c3.388-0.428 6.406-1.826 8.876-4.112 0.727-0.673 1.918-2.025 1.882-2.136-0.038-0.116-0.333-0.156-1.098-0.148-0.552 0.006-0.881-0.011-1.169-0.058-0.281-0.046-0.634-0.064-1.184-0.061-0.897 0.005-0.954 0.023-0.916 0.285 0.080 0.538 0.079 0.54-0.025 0.637-0.054 0.051-0.387 0.21-0.739 0.355s-0.722 0.309-0.822 0.366c-0.1 0.057-0.472 0.389-0.826 0.737-0.673 0.661-0.885 0.829-1.248 0.989-0.276 0.122-0.627 0.175-0.626 0.095 0.001-0.097 0.396-0.806 0.705-1.265 0.164-0.244 0.633-0.874 1.043-1.401s0.792-1.057 0.849-1.179c0.070-0.148 0.125-0.372 0.166-0.675 0.034-0.249 0.152-0.771 0.263-1.159 0.216-0.756 0.291-1.278 0.198-1.389-0.077-0.093-0.243-0.075-0.613 0.067-0.309 0.118-0.371 0.128-0.799 0.126-0.353-0.002-0.579-0.029-0.947-0.113-0.555-0.126-0.868-0.122-1.31 0.020-0.348 0.111-0.563 0.106-0.927-0.024-0.28-0.1-0.351-0.108-0.947-0.108-0.355-0-0.924 0.029-1.265 0.066-0.756 0.080-1.607 0.083-2.038 0.006-0.404-0.072-0.815-0.273-1.124-0.549-0.13-0.116-0.449-0.476-0.709-0.799-0.531-0.66-0.793-0.915-1.098-1.067-0.265-0.132-0.342-0.131-0.538 0.012-0.243 0.177-0.318 0.187-0.518 0.070-0.224-0.131-0.345-0.272-0.749-0.867-0.38-0.56-0.582-0.754-1.002-0.961-0.266-0.131-0.336-0.149-0.607-0.15-0.247-0.001-0.349 0.019-0.528 0.104-0.7 0.33-1.010 1.187-0.69 1.909 0.12 0.271 0.538 0.917 0.805 1.244 0.283 0.347 0.473 0.52 0.687 0.63 0.241 0.123 0.367 0.297 0.367 0.509 0 0.123-0.024 0.203-0.078 0.257-0.187 0.187-0.674 0.155-1.151-0.077-0.361-0.175-0.476-0.281-0.861-0.794-0.546-0.726-1.091-0.892-2.605-0.79-0.31 0.021-0.936 0.027-1.39 0.013s-0.867-0.011-0.917 0.006c-0.113 0.038-0.121 0.221-0.028 0.622 0.060 0.258 0.059 0.277-0.014 0.374-0.042 0.057-0.135 0.115-0.206 0.129s-0.139 0.036-0.151 0.049c-0.028 0.028 0.164 0.526 0.423 1.096 0.895 1.968 2.27 3.827 3.875 5.238 2.598 2.285 5.666 3.602 9.149 3.929 0.568 0.053 2.589 0.018 3.174-0.056zM17.753 24.604c-0.222-0.076-0.51-0.17-0.641-0.21-0.293-0.088-0.338-0.149-0.272-0.37 0.052-0.175 0.2-0.286 0.378-0.286 0.052 0 0.253 0.065 0.447 0.144 0.67 0.273 0.974 0.272 1.336-0.004 0.101-0.077 0.201-0.14 0.222-0.14 0.090 0 0.172 0.204 0.152 0.38-0.043 0.386-0.357 0.601-0.897 0.615-0.276 0.007-0.381-0.011-0.725-0.13zM22.69 20.658c1.555-0.184 2.261-0.362 3.186-0.803 1.343-0.641 2.668-1.933 3.159-3.081 0.227-0.531 0.28-0.777 0.28-1.297 0-0.498-0.058-0.77-0.247-1.149-0.46-0.923-1.263-1.492-3.248-2.303-0.493-0.202-0.65-0.25-0.693-0.215-0.030 0.025-0.086 0.14-0.124 0.254-0.12 0.363-0.295 0.718-0.483 0.981-0.1 0.14-0.189 0.255-0.197 0.255s-0.044 0.011-0.079 0.024c-0.104 0.040-0.080-0.187 0.095-0.894 0.277-1.116 0.285-1.268 0.118-2.145-0.115-0.602-0.389-1.415-0.847-2.515-0.222-0.532-0.476-1.178-0.565-1.437-0.548-1.594-1.406-2.599-2.531-2.967-1.135-0.371-2.172-0.382-3.853-0.041-0.961 0.195-1.27 0.187-2.658-0.071-0.906-0.168-1.715-0.182-2.215-0.039-0.636 0.183-1.151 0.545-1.414 0.993-0.059 0.101-0.19 0.37-0.289 0.596-0.552 1.254-0.825 2.445-0.833 3.637-0.004 0.622-0.001 0.653 0.105 0.878 0.060 0.128 0.214 0.343 0.343 0.478 0.593 0.623 1.279 0.921 3.607 1.565 1.803 0.499 2.377 0.693 2.712 0.919 0.426 0.287 0.546 0.519 0.667 1.29 0.050 0.318 0.121 0.443 0.514 0.899 0.298 0.346 0.28 0.382-0.189 0.372-0.862-0.018-2.080-0.364-3.491-0.991-0.222-0.098-0.757-0.342-1.189-0.542s-1.049-0.476-1.37-0.615c-0.786-0.34-1.102-0.501-1.395-0.709-0.768-0.545-1.018-1.212-0.76-2.032 0.059-0.188 0.111-0.397 0.114-0.463 0.006-0.113-0.005-0.122-0.175-0.146-0.1-0.014-0.571-0.039-1.048-0.055-2.073-0.068-3.157 0.231-3.94 1.086-0.358 0.391-0.509 0.715-0.527 1.128-0.016 0.376 0.082 0.692 0.361 1.162 0.437 0.737 1.791 2.081 3.038 3.017 1.664 1.248 3.858 2.42 6.65 3.552 2.013 0.816 3.8 1.272 5.622 1.435 0.277 0.025 0.567 0.052 0.645 0.061 0.359 0.040 2.633-0.014 3.144-0.074zM12.030 8.024c-0.402-0.187-0.742-0.576-0.889-1.018-0.058-0.176-0.062-0.24-0.023-0.411 0.045-0.195 0.212-0.469 0.286-0.469 0.020 0 0.123 0.092 0.23 0.205 0.313 0.331 0.613 0.477 1.202 0.584 0.27 0.049 0.433 0.051 1.008 0.012 0.377-0.026 0.823-0.036 0.991-0.023 0.297 0.023 0.735 0.153 0.785 0.233 0.080 0.129-0.201 0.203-1.071 0.281-0.835 0.075-1.579 0.298-1.958 0.587-0.151 0.115-0.339 0.121-0.56 0.018zM19.123 5.402c0.018-0.029 0.101-0.114 0.186-0.191 0.188-0.17 0.214-0.244 0.159-0.45-0.044-0.163-0.246-0.378-0.402-0.428-0.318-0.101 0.363-0.142 0.769-0.047 0.425 0.1 0.8 0.409 0.8 0.66 0 0.118-0.267 0.314-0.539 0.395-0.287 0.085-1.016 0.131-0.973 0.061z"></path>
<path d="M15.214 31.958c-3.943-0.26-7.505-1.825-10.272-4.511-2.941-2.856-4.658-6.703-4.814-10.789-0.079-2.060 0.165-3.804 0.794-5.687 0.811-2.425 2.085-4.476 3.911-6.296 0.855-0.852 1.447-1.343 2.344-1.944 2.090-1.401 4.595-2.319 7.009-2.569 0.233-0.024 0.516-0.062 0.63-0.084 0.267-0.052 2.121-0.053 2.423-0.001 0.128 0.022 0.44 0.061 0.695 0.086 1.678 0.169 3.645 0.752 5.256 1.558 3.086 1.545 5.609 4.057 7.136 7.104 1.917 3.825 2.234 8.195 0.888 12.233-1.725 5.175-6.004 9.127-11.299 10.437-1.588 0.393-3.264 0.558-4.702 0.463zM16.987 31.758c2.126-0.134 4.009-0.618 5.896-1.514 2.064-0.981 4.010-2.519 5.464-4.32 0.326-0.403 0.389-0.503 0.35-0.551-0.093-0.112-0.474-0.155-1.139-0.128-0.525 0.021-0.718 0.012-1.128-0.054-0.38-0.061-0.667-0.078-1.238-0.073-0.703 0.006-0.748 0.012-0.846 0.096l-0.104 0.089 0.073 0.283c0.111 0.431 0.074 0.472-0.718 0.793-0.921 0.373-0.97 0.406-1.774 1.188-0.623 0.606-0.768 0.727-1.028 0.853-0.292 0.142-0.669 0.25-0.734 0.209-0.051-0.031 0.318-0.712 0.674-1.243 0.178-0.266 0.647-0.899 1.043-1.405s0.753-0.978 0.794-1.049c0.128-0.218 0.2-0.47 0.258-0.911 0.031-0.233 0.14-0.714 0.243-1.069s0.206-0.794 0.23-0.976c0.038-0.292 0.035-0.344-0.026-0.437s-0.088-0.102-0.217-0.079c-0.081 0.014-0.275 0.075-0.43 0.135-0.257 0.099-0.329 0.108-0.806 0.106-0.422-0.003-0.618-0.025-1.006-0.115-0.548-0.127-0.665-0.123-1.268 0.047l-0.38 0.107-0.265-0.073c-0.146-0.040-0.355-0.098-0.465-0.128-0.288-0.080-1.029-0.069-2.059 0.029-1.322 0.126-2.068 0.063-2.634-0.224-0.282-0.143-0.707-0.555-1.143-1.108-0.497-0.63-0.809-0.931-1.131-1.090l-0.264-0.13-0.153 0.082c-0.084 0.045-0.21 0.113-0.28 0.151-0.076 0.042-0.166 0.059-0.225 0.044-0.175-0.044-0.475-0.352-0.767-0.789-0.396-0.592-0.534-0.753-0.809-0.939-0.321-0.218-0.609-0.314-0.943-0.314-0.507 0-0.97 0.32-1.214 0.839-0.091 0.195-0.107 0.283-0.107 0.594 0 0.339 0.010 0.386 0.149 0.665 0.363 0.732 1.076 1.614 1.487 1.837 0.242 0.132 0.331 0.261 0.335 0.49 0.005 0.255-0.101 0.331-0.465 0.331-0.319 0-0.622-0.093-0.954-0.292-0.169-0.101-0.297-0.235-0.555-0.58-0.618-0.825-1.105-0.998-2.535-0.9-0.434 0.030-1.011 0.036-1.575 0.018-0.804-0.026-0.896-0.022-0.957 0.039-0.085 0.085-0.086 0.236-0.003 0.567 0.036 0.142 0.054 0.302 0.041 0.354-0.025 0.099-0.173 0.189-0.31 0.189-0.115 0-0.1 0.105 0.079 0.556 1.036 2.601 2.892 4.989 5.233 6.734 1.048 0.781 2.645 1.652 3.852 2.1 2.072 0.77 4.3 1.104 6.456 0.968zM17.793 24.588c-0.266-0.088-0.59-0.189-0.72-0.225l-0.237-0.065 0.021-0.187c0.041-0.367 0.281-0.419 0.854-0.185 0.592 0.241 1.057 0.225 1.312-0.047 0.126-0.134 0.225-0.126 0.303 0.024 0.187 0.361-0.22 0.781-0.8 0.826-0.214 0.017-0.319-0.003-0.733-0.14zM21.582 20.755c1.566-0.084 2.761-0.277 3.607-0.582 2.014-0.726 3.767-2.482 4.095-4.103 0.077-0.381 0.058-1.060-0.039-1.363-0.29-0.909-0.996-1.593-2.272-2.199-0.655-0.311-1.688-0.739-1.785-0.739-0.095 0-0.137 0.062-0.221 0.322-0.169 0.526-0.556 1.171-0.722 1.203-0.093 0.018-0.084-0.044 0.149-0.961 0.156-0.616 0.168-0.704 0.167-1.189-0.003-0.882-0.221-1.684-0.908-3.331-0.222-0.532-0.476-1.179-0.565-1.438-0.481-1.4-1.144-2.305-2.052-2.803-0.346-0.189-0.637-0.287-1.161-0.39-0.896-0.175-1.898-0.146-3.028 0.088-1.083 0.224-1.445 0.223-2.7-0.010-0.925-0.172-1.764-0.201-2.272-0.080-0.721 0.172-1.282 0.575-1.573 1.13-0.442 0.842-0.774 1.828-0.95 2.824-0.098 0.558-0.162 1.517-0.121 1.821 0.059 0.431 0.402 0.914 0.885 1.242 0.592 0.403 1.275 0.66 3.109 1.169 2.233 0.62 2.595 0.751 2.972 1.074 0.229 0.196 0.361 0.495 0.449 1.021 0.082 0.488 0.114 0.552 0.469 0.94 0.274 0.299 0.321 0.384 0.233 0.418-0.113 0.043-0.826-0.017-1.245-0.105-0.939-0.197-1.874-0.545-3.529-1.314-0.321-0.149-1.007-0.458-1.525-0.686-1.143-0.505-1.435-0.673-1.803-1.042-0.564-0.564-0.655-1.062-0.354-1.928 0.080-0.231 0.097-0.325 0.064-0.358-0.072-0.072-1.16-0.123-2.126-0.101-0.995 0.023-1.463 0.098-1.99 0.317-0.837 0.348-1.498 1.044-1.62 1.704-0.090 0.484 0.123 1.098 0.607 1.753 0.345 0.467 1.596 1.704 2.249 2.224 1.858 1.48 4.123 2.73 7.244 3.995 2.35 0.953 4.353 1.397 6.73 1.492 0.653 0.026 0.801 0.025 1.532-0.014zM12.131 8.038c-0.497-0.156-1.008-0.817-1.008-1.306 0-0.162 0.145-0.478 0.249-0.541 0.055-0.033 0.103-0.001 0.255 0.168 0.247 0.274 0.644 0.472 1.128 0.561 0.318 0.058 0.46 0.061 1.149 0.022 0.814-0.047 1.087-0.030 1.449 0.091 0.217 0.072 0.276 0.125 0.213 0.189-0.062 0.062-0.298 0.104-0.977 0.175-0.971 0.101-1.672 0.312-2.028 0.61-0.13 0.109-0.177 0.112-0.43 0.033zM19.174 5.417c-0.013-0.013 0.059-0.103 0.16-0.2 0.176-0.168 0.183-0.184 0.163-0.359-0.025-0.225-0.114-0.366-0.299-0.475-0.126-0.074-0.134-0.088-0.070-0.124 0.114-0.064 0.765 0.037 1.013 0.157s0.454 0.351 0.454 0.507c0 0.222-0.357 0.4-0.952 0.473-0.416 0.051-0.438 0.052-0.469 0.020z"></path>
<path d="M15.436 31.964c-0.277-0.013-0.467-0.036-0.423-0.050 0.047-0.015-0.006-0.027-0.129-0.030-0.598-0.013-1.879-0.227-2.853-0.475-5.398-1.378-9.825-5.729-11.3-11.107-0.422-1.539-0.578-2.739-0.576-4.422 0.004-3.13 0.923-6.112 2.701-8.766 2.42-3.611 6.13-6.031 10.404-6.785 0.555-0.098 1.458-0.205 1.793-0.212 0.211-0.005 0.224-0.009 0.101-0.035-0.078-0.016 0.321-0.030 0.887-0.031s0.982 0.012 0.927 0.028c-0.066 0.019 0.054 0.039 0.343 0.058 2.978 0.198 6.104 1.4 8.504 3.271 2.473 1.928 4.317 4.503 5.341 7.455 0.855 2.467 1.066 5.381 0.579 8.040-0.569 3.11-2.047 5.95-4.287 8.236-2.252 2.298-5.043 3.824-8.162 4.463-0.624 0.128-1.696 0.275-2.054 0.282-0.163 0.003-0.183 0.011-0.103 0.036 0.065 0.021-0.058 0.034-0.343 0.037-0.244 0.002-0.534 0.011-0.645 0.018s-0.428 0.003-0.705-0.010zM16.866 31.797c1.146-0.063 2.102-0.205 3.094-0.459 2.782-0.714 5.242-2.108 7.259-4.116 0.76-0.756 1.583-1.744 1.542-1.851-0.046-0.121-0.351-0.162-1.215-0.163-0.601-0.001-0.964-0.021-1.25-0.069-0.304-0.051-0.583-0.064-1.128-0.054-0.399 0.008-0.755 0.026-0.792 0.042-0.135 0.057-0.168 0.236-0.089 0.485 0.118 0.375 0.047 0.444-0.791 0.77-0.794 0.308-0.891 0.374-1.612 1.082-0.366 0.359-0.753 0.713-0.86 0.785-0.33 0.224-0.915 0.424-0.913 0.314 0.001-0.088 0.36-0.724 0.665-1.178 0.164-0.244 0.637-0.879 1.051-1.411s0.796-1.058 0.848-1.169c0.101-0.216 0.146-0.409 0.217-0.941 0.025-0.185 0.107-0.54 0.182-0.788 0.207-0.684 0.259-0.941 0.26-1.285 0.001-0.293-0.006-0.316-0.095-0.35-0.111-0.042-0.251-0.015-0.677 0.133-0.477 0.165-0.928 0.148-1.96-0.074-0.34-0.073-0.559-0.055-1.032 0.086-0.402 0.119-0.465 0.119-0.832-0.010-0.424-0.149-1.111-0.173-2.055-0.071-0.932 0.1-2.004 0.099-2.395-0.002-0.605-0.156-0.966-0.433-1.601-1.229-0.544-0.681-0.81-0.95-1.103-1.115-0.311-0.175-0.472-0.179-0.684-0.019-0.347 0.263-0.578 0.107-1.186-0.802-0.324-0.484-0.506-0.681-0.796-0.858-0.658-0.402-1.328-0.356-1.807 0.123-0.329 0.329-0.499 0.819-0.442 1.273 0.047 0.374 0.427 1.051 0.954 1.7 0.271 0.333 0.463 0.51 0.672 0.617 0.277 0.142 0.401 0.343 0.351 0.57-0.036 0.162-0.146 0.212-0.464 0.21-0.206-0.001-0.338-0.031-0.571-0.128-0.383-0.159-0.569-0.319-0.916-0.787-0.307-0.415-0.446-0.537-0.771-0.679-0.464-0.203-0.432-0.201-2.818-0.181l-1.469 0.013-0.061 0.108c-0.052 0.093-0.053 0.141-0.009 0.343 0.105 0.472 0.105 0.559 0.001 0.632-0.052 0.036-0.143 0.066-0.202 0.066s-0.117 0.025-0.129 0.056c-0.043 0.111 0.509 1.381 0.939 2.161 2.361 4.284 6.523 7.243 11.306 8.036 0.572 0.095 1.082 0.149 1.713 0.183 0.851 0.045 0.88 0.045 1.673 0.002zM17.955 24.603c-0.155-0.056-0.445-0.148-0.645-0.205-0.453-0.129-0.476-0.149-0.414-0.353 0.036-0.117 0.081-0.17 0.18-0.211 0.118-0.049 0.157-0.046 0.364 0.030 0.128 0.047 0.35 0.128 0.494 0.181 0.436 0.16 0.792 0.12 1.114-0.125 0.167-0.128 0.196-0.125 0.256 0.021 0.147 0.356-0.246 0.723-0.806 0.752-0.203 0.011-0.325-0.009-0.544-0.088zM22.811 20.697c1.431-0.181 2.102-0.345 2.913-0.711 0.869-0.392 1.442-0.795 2.166-1.524 0.966-0.973 1.428-1.855 1.477-2.825 0.056-1.104-0.406-1.931-1.498-2.681-0.51-0.35-2.505-1.245-2.719-1.22-0.075 0.009-0.114 0.051-0.157 0.173-0.185 0.518-0.343 0.856-0.508 1.088-0.18 0.252-0.263 0.319-0.263 0.212 0-0.028 0.082-0.386 0.182-0.796 0.225-0.925 0.254-1.247 0.163-1.828-0.132-0.839-0.33-1.468-0.872-2.768-0.219-0.525-0.473-1.17-0.564-1.433-0.48-1.381-1.157-2.326-2.013-2.808-1.068-0.601-2.626-0.703-4.513-0.295-0.875 0.189-1.191 0.18-2.519-0.067-0.595-0.111-0.775-0.128-1.37-0.129-0.608-0.001-0.719 0.009-0.987 0.093-0.72 0.225-1.183 0.587-1.478 1.156-0.67 1.291-1.034 2.731-1.038 4.11l-0.002 0.685 0.132 0.268c0.192 0.391 0.645 0.806 1.181 1.081 0.551 0.283 1.094 0.471 2.456 0.852 2.526 0.706 2.903 0.843 3.249 1.188 0.199 0.198 0.313 0.48 0.393 0.976 0.070 0.434 0.117 0.531 0.432 0.883 0.304 0.34 0.344 0.408 0.261 0.44-0.085 0.033-0.807-0.054-1.271-0.152-0.815-0.173-1.957-0.603-3.466-1.305-0.321-0.15-1.007-0.459-1.525-0.687s-1.070-0.492-1.229-0.586c-0.378-0.224-0.786-0.634-0.935-0.94-0.101-0.207-0.116-0.285-0.116-0.584 0-0.284 0.024-0.415 0.134-0.737 0.073-0.216 0.123-0.418 0.111-0.45-0.034-0.089-0.443-0.118-1.74-0.121-0.932-0.002-1.247 0.011-1.557 0.066-0.471 0.084-0.928 0.241-1.305 0.45-0.364 0.202-0.878 0.717-1.068 1.071-0.138 0.256-0.141 0.273-0.141 0.725v0.463l0.19 0.383c0.255 0.514 0.502 0.831 1.22 1.567 1.621 1.66 3.427 2.899 6.092 4.182 3.378 1.626 5.771 2.361 8.438 2.592 0.654 0.057 3.069 0.020 3.668-0.056zM12.101 7.988c-0.502-0.201-0.94-0.786-0.937-1.252 0.001-0.17 0.131-0.48 0.215-0.512 0.036-0.014 0.132 0.057 0.249 0.182 0.26 0.277 0.633 0.459 1.128 0.548 0.351 0.063 0.465 0.065 1.133 0.021 0.409-0.027 0.838-0.037 0.953-0.023 0.263 0.033 0.596 0.135 0.669 0.204 0.047 0.044 0.031 0.059-0.101 0.094-0.086 0.023-0.347 0.061-0.58 0.086-1.269 0.134-1.835 0.291-2.281 0.631-0.146 0.111-0.218 0.115-0.449 0.022zM19.38 5.22c0.119-0.129 0.166-0.215 0.166-0.304 0-0.179-0.092-0.371-0.236-0.493-0.070-0.059-0.126-0.119-0.126-0.135 0-0.043 0.518 0.014 0.75 0.083 0.271 0.080 0.509 0.259 0.599 0.448l0.073 0.154-0.134 0.112c-0.161 0.135-0.403 0.219-0.784 0.273-0.498 0.071-0.5 0.070-0.307-0.139z"></path>
</symbol>
<symbol id="b-googlecloud" viewBox="0 0 37 32">
<title>googlecloud</title>
<path d="M9.532 30.383c-0.495-0.465-6.446-10.465-7.801-13.108-0.686-1.338-0.66-1.403 3.563-8.701 3.019-5.219 4.024-6.817 4.483-7.126l0.591-0.399h15.984l0.576 0.393c0.59 0.403 0.874 0.862 5.966 9.658 2.643 4.565 2.753 4.89 2.095 6.174-1.355 2.643-7.306 12.643-7.801 13.108l-0.605 0.568h-16.447zM19.853 20.342c0.536-0.183 1.157-0.593 1.663-1.099 1.922-1.922 1.82-4.776-0.235-6.585-1.311-1.154-3.133-1.448-4.669-0.754-2.898 1.31-3.695 4.881-1.606 7.194 1.284 1.421 3.020 1.867 4.847 1.244z"></path>
<path d="M10.022 30.695c-0.685-0.298-0.628-0.209-4.97-7.7-3.154-5.441-3.548-6.208-3.555-6.907-0.006-0.67 0.199-1.149 1.38-3.217 0.804-1.407 1.521-2.465 1.703-2.512 0.173-0.045 0.315-0.184 0.315-0.308s1.032-2.006 2.294-4.183c1.693-2.921 2.424-4.024 2.789-4.213 0.413-0.214 1.798-0.256 8.364-0.256 5.596 0 7.998 0.059 8.314 0.203 0.472 0.215 0.848 0.758 2.461 3.557 0.554 0.962 1.149 1.906 1.321 2.098s1.302 2.073 2.51 4.178c1.902 3.314 2.197 3.932 2.197 4.599 0 0.685-0.414 1.488-3.699 7.188-2.034 3.529-3.864 6.604-4.066 6.833-0.776 0.88-0.939 0.896-9.148 0.889-6.128-0.005-7.767-0.055-8.213-0.249zM25.776 20.559c1.308-2.253 2.424-4.215 2.479-4.359 0.059-0.154-0.878-1.952-2.266-4.348-1.302-2.247-2.418-4.22-2.481-4.384-0.104-0.271-0.566-0.298-5.14-0.298-4.569 0-5.049 0.028-5.287 0.306-0.144 0.168-1.305 2.114-2.579 4.325-1.704 2.956-2.275 4.089-2.158 4.284 0.088 0.146 1.243 2.135 2.567 4.419l2.408 4.153h10.078z"></path>
<path d="M15.125 30.645c-4.777-0.048-4.908-0.059-5.363-0.44-0.256-0.215-2.169-3.342-4.25-6.948-4.511-7.818-4.317-6.97-2.366-10.317 0.701-1.202 1.381-2.31 1.512-2.462s0.238-0.361 0.238-0.464c0-0.104 1.032-1.969 2.294-4.146 1.693-2.921 2.424-4.024 2.789-4.213 0.721-0.373 16.025-0.381 16.744-0.010 0.309 0.16 0.873 0.928 1.609 2.192 0.623 1.070 1.398 2.356 1.723 2.858s1.581 2.603 2.791 4.671c2.013 3.439 2.201 3.834 2.206 4.634 0.005 0.818-0.19 1.212-3.033 6.12-4.512 7.792-4.71 8.106-5.269 8.396-0.4 0.207-1.142 0.252-3.615 0.219-1.712-0.022-5.316-0.063-8.009-0.090zM23.202 24.868c0.37-0.235 5.15-8.615 5.093-8.929-0.030-0.168-1.156-2.209-2.503-4.535l-2.448-4.229-5-0.003c-4.548-0.003-5.024 0.025-5.263 0.303-0.144 0.168-1.343 2.18-2.664 4.471l-2.401 4.165 2.396 4.141c1.318 2.278 2.517 4.279 2.664 4.447 0.243 0.278 0.713 0.306 5.093 0.303 2.654-0.001 4.919-0.062 5.033-0.134z"></path>
<path d="M9.763 30.207c-0.257-0.216-2.169-3.343-4.25-6.95-4.513-7.821-4.318-6.959-2.346-10.357 0.71-1.224 1.37-2.227 1.467-2.227 0.171-0.001 0.722 0.914 5.734 9.524 1.344 2.308 2.563 4.334 2.709 4.503 0.242 0.278 0.723 0.306 5.283 0.306 4.563 0 5.040-0.028 5.276-0.306 0.143-0.168 1.337-2.175 2.655-4.459 2.365-4.1 2.392-4.159 2.135-4.657-0.143-0.277-1.249-2.209-2.458-4.293s-2.151-3.864-2.094-3.955c0.064-0.104-1.896-0.166-5.219-0.166-4.681 0-5.35 0.034-5.556 0.282-0.129 0.155-1.264 2.063-2.524 4.24s-2.364 3.953-2.454 3.945c-0.222-0.018-3.221-5.156-3.223-5.522-0.001-0.159 1.031-2.070 2.293-4.247 1.693-2.921 2.424-4.024 2.789-4.213 0.413-0.214 1.798-0.256 8.364-0.256 5.596 0 7.998 0.059 8.314 0.203 0.245 0.112 0.672 0.564 0.949 1.005 1.246 1.985 2.494 4.246 2.397 4.343-0.058 0.058 0.041 0.269 0.221 0.469 0.305 0.338 3.801 6.27 4.481 7.604 0.194 0.382 0.273 0.823 0.218 1.224-0.112 0.818-7.124 13.016-7.924 13.786l-0.591 0.568-16.18-0.002-0.466-0.393z"></path>
<path d="M9.763 30.207c-0.257-0.216-2.169-3.343-4.25-6.95-4.513-7.821-4.318-6.959-2.346-10.357 0.71-1.224 1.37-2.227 1.467-2.227 0.171-0.001 0.722 0.914 5.734 9.524 1.344 2.308 2.563 4.334 2.709 4.503 0.242 0.278 0.723 0.306 5.283 0.306 4.563 0 5.040-0.028 5.276-0.306 0.143-0.168 1.337-2.175 2.655-4.459 2.365-4.1 2.392-4.159 2.135-4.657-0.143-0.277-1.249-2.209-2.458-4.293s-2.151-3.864-2.094-3.955c0.059-0.095 1.401-0.166 3.126-0.166 2.661 0 3.054 0.037 3.288 0.306 0.265 0.305 3.843 6.416 4.419 7.548 0.194 0.382 0.273 0.823 0.218 1.224-0.112 0.818-7.124 13.016-7.924 13.786l-0.591 0.568-16.18-0.002-0.466-0.393z"></path>
<path d="M20.284 30.494c0-0.171 3-5.364 3.322-5.751 0.16-0.192 1.369-2.219 2.686-4.503 2.364-4.1 2.391-4.159 2.134-4.657-0.143-0.277-1.249-2.209-2.458-4.293s-2.151-3.864-2.094-3.955c0.059-0.095 1.401-0.166 3.126-0.166 2.661 0 3.054 0.037 3.288 0.306 0.265 0.305 3.843 6.416 4.419 7.548 0.194 0.382 0.273 0.823 0.218 1.224-0.112 0.818-7.124 13.016-7.924 13.786l-0.591 0.568h-3.063c-1.684 0-3.063-0.048-3.063-0.107z"></path>
<path d="M20.511 30.295c1.021-1.84 2.871-4.939 3.105-5.202 0.445-0.5 5.237-8.777 5.237-9.046 0-0.123-1.063-2.073-2.362-4.332l-2.362-4.108 2.919-0.048c2.189-0.036 2.973 0.008 3.134 0.175 0.118 0.123 1.182 1.875 2.365 3.895 1.766 3.016 2.151 3.797 2.155 4.372 0.004 0.597-0.553 1.663-3.814 7.303-2.1 3.632-3.986 6.72-4.19 6.863-0.293 0.205-0.992 0.26-3.316 0.26-1.619 0-2.911-0.059-2.871-0.131z"></path>
</symbol>
<symbol id="b-mailchimp" viewBox="0 0 30 32">
<title>mailchimp</title>
<path d="M14.624 31.552c-0.925-0.203-2.022-0.546-2.438-0.762-1.505-0.782-3.628-2.566-4.604-3.868-0.691-0.922-1.341-1.423-2.116-1.632-2.3-0.619-3.637-2.459-3.637-5.003 0-0.988-0.14-1.465-0.469-1.591-0.584-0.224-1.36-2.031-1.36-3.166 0-3.379 2.592-8.072 6.519-11.802 2.505-2.379 3.267-2.852 5.463-3.389 1.226-0.3 1.729-0.276 3.057 0.143 1.468 0.463 1.737 0.464 3.51 0.009 2.37-0.607 3.325-0.617 4.686-0.048 1.909 0.798 2.238 3.219 0.816 6.007l-0.619 1.213 0.913 1.425c0.556 0.868 0.996 2.055 1.125 3.036 0.201 1.525 0.298 1.668 1.819 2.678 2.116 1.404 2.376 1.757 2.178 2.947-0.113 0.677 0.043 1.4 0.489 2.272 0.573 1.119 0.608 1.407 0.282 2.307-0.204 0.566-0.372 1.264-0.372 1.552 0 0.708-1.012 2.645-1.989 3.806-0.543 0.646-0.737 1.145-0.604 1.562 0.285 0.897-0.063 1.295-0.79 0.906-0.474-0.254-0.836-0.179-1.689 0.348-2.196 1.357-6.663 1.818-10.171 1.049zM24.911 26.932c1.305-0.803 3.657-3.647 3.306-3.998-0.076-0.076-0.62 0.228-1.208 0.676-1.23 0.939-3.427 1.824-5.289 2.132-2.392 0.396-4.349-0.775-4.349-2.602 0-1.233 0.984-1.889 3.24-2.16 2.144-0.258 4.577-1.256 6.046-2.479 0.8-0.666 0.856-0.814 0.478-1.269-0.235-0.284-0.972-0.793-1.638-1.133-1.091-0.556-1.237-0.569-1.483-0.13-0.15 0.268-0.513 0.487-0.806 0.487s-0.689 0.155-0.879 0.345c-0.446 0.446-1.3 0.119-1.3-0.498 0-0.262 0.206-0.541 0.457-0.619 1.56-0.487 1.518-0.44 0.815-0.933-0.769-0.538-0.86-1.409-0.205-1.953 0.365-0.303 0.55-0.303 0.914 0 0.381 0.316 0.457 0.275 0.457-0.248 0-1.051-0.566-2.191-1.088-2.191-0.272 0-0.905 0.293-1.408 0.651-0.65 0.463-1.5 0.685-2.942 0.769-2.559 0.149-3.331 0.802-3.596 3.038-0.168 1.419-0.107 1.619 0.812 2.666l0.994 1.132-0.825 1.631c-0.743 1.469-0.792 1.756-0.489 2.882 0.185 0.688 0.469 1.251 0.63 1.251s0.293 0.184 0.293 0.408c0 0.551 1.815 2.644 2.583 2.979 0.339 0.148 1.61 0.221 2.823 0.163 1.793-0.086 2.478-0.273 3.657-0.999zM17.067 16.61c0-0.254-0.271-0.457-0.61-0.457-0.682 0-0.813-0.671-0.227-1.157 1.397-1.159 3.554-0.301 3.162 1.258-0.172 0.686-0.37 0.813-1.265 0.813-0.74 0-1.061-0.138-1.061-0.457zM7.010 23.162c0-0.168-0.137-0.305-0.305-0.305-0.44 0-0.376-0.838 0.076-1.001 0.305-0.11 0.305-0.267 0-0.783-0.21-0.355-0.381-0.864-0.381-1.132 0-0.914-0.762-0.239-0.86 0.762-0.086 0.875-0.19 0.981-0.838 0.857-0.943-0.18-0.941 0.211 0.008 1.159 0.737 0.737 2.3 1.038 2.3 0.443zM26.411 22.387c1.212-0.71 1.66-1.528 1.13-2.059-0.106-0.106-0.826 0.17-1.6 0.613s-1.436 0.821-1.472 0.841c-0.134 0.074 0.296 1.38 0.454 1.38 0.091 0 0.761-0.349 1.488-0.775zM8.838 20.419c-0.195-0.364-0.423-0.593-0.507-0.509s0.007 0.45 0.202 0.814c0.195 0.364 0.423 0.593 0.507 0.509s-0.007-0.45-0.202-0.814zM4.914 14.101c1.66-3.314 4.188-6.562 6.338-8.14l1.538-1.129-0.833-1.044c-0.458-0.574-0.909-1.044-1.002-1.044s-1.063 0.737-2.155 1.638c-2.381 1.964-4.553 4.758-5.947 7.649-1.379 2.86-1.377 5.174 0.005 4.977 0.477-0.068 1.018-0.833 2.056-2.906zM13.405 2.43c-0.182-0.34-0.468-0.533-0.635-0.43-0.196 0.121-0.178 0.341 0.053 0.618 0.54 0.65 0.959 0.515 0.582-0.188z"></path>
<path d="M15.23 31.568c-2.486-0.546-4.667-1.871-6.797-4.129-1.298-1.376-2.346-2.18-3.331-2.556-0.791-0.302-1.711-0.897-2.046-1.322-0.755-0.959-1.265-2.732-1.042-3.62 0.12-0.477-0.097-0.94-0.756-1.614-1.204-1.232-1.438-2.593-0.846-4.927 1-3.939 5.285-9.467 9.308-12.007 1.723-1.088 4.088-1.361 5.594-0.646 1 0.474 1.202 0.478 2.487 0.041 3.127-1.062 5.449-0.872 6.427 0.523 0.658 0.94 0.553 2.844-0.268 4.838l-0.711 1.729 0.864 1.328c0.505 0.776 0.962 2.010 1.1 2.969 0.226 1.571 0.314 1.696 2.064 2.927 1.758 1.236 1.828 1.336 1.833 2.621 0.003 0.907 0.235 1.658 0.72 2.34 0.669 0.939 0.69 1.096 0.328 2.433-0.54 1.992-1.57 3.972-2.892 5.561-2.718 3.268-7.195 4.574-12.036 3.511zM24.229 27.573c1.717-0.829 3.624-2.838 4.251-4.479 0.518-1.355 0.516-1.412-0.069-1.997-0.331-0.331-0.654-0.76-0.719-0.954-0.076-0.227-0.878 0.036-2.248 0.736-1.243 0.635-2.987 1.229-4.187 1.426-2.347 0.385-2.873 1.043-0.61 0.762 0.796-0.099 1.928-0.265 2.514-0.369 1.003-0.178 1.032-0.161 0.48 0.285-0.322 0.261-1.077 0.554-1.676 0.651-2.165 0.35-2.417 0.756-0.406 0.652 1.469-0.075 2.402-0.354 4.090-1.22 2.37-1.216 3.082-1.217 1.626-0.003-2.589 2.16-6.773 3.107-8.61 1.949-0.809-0.51-0.99-0.819-0.99-1.688 0-1.353 0.749-1.853 3.176-2.118 0.992-0.108 2.409-0.465 3.148-0.791 1.605-0.71 3.733-2.339 3.733-2.857 0-0.204-0.557-0.706-1.239-1.117-2.37-1.429-2.488-1.584-2.769-3.636-0.394-2.879-1.014-3.338-2.796-2.069-0.699 0.498-1.505 0.711-3.011 0.796-2.642 0.149-3.443 0.84-3.681 3.175-0.166 1.63 0.066 2.295 1.192 3.422 0.515 0.515 0.509 0.59-0.131 1.703-0.844 1.466-0.854 3.141-0.030 4.705 0.745 1.414 2.295 3.139 3.17 3.527 1.001 0.445 4.457 0.151 5.79-0.493zM17.676 16.305c0-0.284-0.288-0.457-0.762-0.457-0.907 0-0.996-0.463-0.172-0.904 1.263-0.676 2.68 0.029 2.323 1.155-0.238 0.749-1.388 0.919-1.388 0.205zM21.333 16.305c0-0.251 0.206-0.457 0.457-0.457s0.457 0.206 0.457 0.457c0 0.251-0.206 0.457-0.457 0.457s-0.457-0.206-0.457-0.457zM22.857 15.848c0-0.168 0.137-0.305 0.305-0.305s0.305 0.137 0.305 0.305c0 0.168-0.137 0.305-0.305 0.305s-0.305-0.137-0.305-0.305zM22.053 14.171c-0.216-0.562 0.067-1.371 0.479-1.371 0.415 0 1.006 1.162 0.778 1.53-0.281 0.454-1.060 0.356-1.257-0.159zM8.143 23.106c0.939-0.779 1.302-1.944 0.921-2.953-0.198-0.524-0.459-0.953-0.58-0.953-0.487 0-0.599 0.696-0.248 1.542 0.293 0.708 0.292 0.992-0.008 1.353-0.658 0.792-1.224 0.561-1.028-0.42 0.1-0.499 0.031-0.967-0.16-1.085-0.184-0.114-0.335-0.474-0.335-0.799s-0.178-0.592-0.396-0.592c-0.617 0-1.128 0.66-1.128 1.458 0 0.446-0.147 0.677-0.381 0.599-0.21-0.070-0.381-0.581-0.381-1.135 0-1.455 1.307-2.414 2.616-1.92 0.71 0.268 0.899 0.265 0.807-0.012-0.066-0.199-0.463-0.483-0.882-0.631-1.102-0.389-2.428 0.345-3.098 1.715-0.474 0.969-0.503 1.306-0.197 2.233 0.637 1.93 3.044 2.79 4.479 1.599zM3.712 16.838c0.25-0.293 0.934-1.563 1.522-2.823 1.67-3.58 4.968-7.425 7.224-8.42l1.028-0.454-0.8-0.835c-0.738-0.77-1.051-1.563-0.618-1.563 0.1 0 0.546 0.215 0.991 0.478 1.019 0.602 2.59 0.144 2.426-0.707-0.173-0.899-2.734-0.825-4.624 0.133-3.948 2.001-9.337 9.374-9.337 12.776 0 1.742 1.232 2.54 2.188 1.416zM17.219 6.838l2.133-0.752-1.512 0.185c-0.831 0.102-1.844 0.447-2.251 0.766s-0.686 0.575-0.622 0.567c0.065-0.008 1.077-0.353 2.251-0.766z"></path>
<path d="M15.543 31.576c-3.037-0.675-6.166-2.701-7.835-5.072-0.575-0.817-1.208-1.308-1.954-1.515-2.253-0.625-3.621-2.42-3.621-4.749 0-0.8-0.255-1.403-0.91-2.149-0.5-0.57-0.999-1.391-1.108-1.825-0.492-1.961 1.698-6.756 4.662-10.208 4.104-4.779 8.365-6.859 10.544-5.145 0.816 0.642 1.6 0.787 1.872 0.347 0.302-0.488 3.893-1.319 4.892-1.131 0.539 0.101 1.302 0.527 1.696 0.946 0.926 0.986 0.937 3.131 0.027 5.016-0.809 1.675-0.808 1.717 0.123 3.060 0.435 0.627 0.913 1.933 1.103 3.007 0.309 1.757 0.428 1.956 1.594 2.679 2.325 1.441 2.686 1.916 2.462 3.238-0.172 1.020-0.084 1.298 0.654 2.069l0.853 0.89-0.683 1.899c-1.796 4.991-4.724 7.79-9.127 8.724-1.975 0.419-3.069 0.402-5.242-0.081zM24.232 27.7c1.816-0.853 3.45-2.564 4.332-4.533l0.748-1.671-0.637-0.423c-0.35-0.233-0.637-0.604-0.637-0.825 0-0.771-0.607-0.767-1.747 0.013-1.348 0.921-4.588 1.988-6.039 1.988-1.092 0-1.622 0.466-1.111 0.978 0.173 0.173 0.245 0.499 0.159 0.723-0.212 0.552 1.137 0.861 2.681 0.614 0.676-0.108 2.075-0.533 3.109-0.945l1.88-0.748-0.848 0.699c-1.215 1.001-3.466 1.73-5.337 1.728-1.306-0.001-1.757-0.144-2.362-0.75-1.585-1.585-0.725-2.654 2.554-3.177 1.23-0.196 2.807-0.642 3.505-0.992 1.456-0.729 3.25-2.333 3.25-2.907 0-0.214-0.789-0.91-1.752-1.546-1.847-1.219-1.868-1.265-2.481-5.325-0.018-0.12-0.324-0.373-0.679-0.564-0.535-0.286-0.811-0.223-1.6 0.365-0.71 0.529-1.524 0.758-3.185 0.897-2.914 0.243-3.745 0.971-3.952 3.46-0.123 1.479-0.039 1.827 0.659 2.742 0.961 1.261 0.961 1.259 0.17 2.777-1.082 2.076-0.556 3.892 1.952 6.732 1.505 1.705 4.592 1.993 7.366 0.689zM17.524 15.555c-0.729-0.176-0.81-0.267-0.399-0.447 0.68-0.298 1.536-0.117 1.694 0.359 0.138 0.413 0.070 0.418-1.295 0.088zM22.079 13.992c-0.113-0.182-0.064-0.472 0.108-0.644 0.384-0.384 0.975-0.060 0.975 0.536 0 0.513-0.784 0.591-1.083 0.108zM8.593 22.793c1.091-1.167 1.042-2.216-0.191-4.17-0.683-1.083-0.936-1.252-1.873-1.252-1.402 0-2.146 0.416-2.716 1.518-1.204 2.328 0.195 4.861 2.694 4.875 0.932 0.005 1.361-0.194 2.087-0.971zM7.44 21.562c-0.014-0.377-0.141-0.96-0.28-1.295-0.252-0.605-0.249-0.605 0.421-0.017 0.371 0.326 0.634 0.864 0.585 1.195-0.127 0.851-0.694 0.942-0.725 0.117zM4.4 20.624c-0.552-1.418 2.24-3.060 3.212-1.889 0.53 0.639 0.129 0.993-0.605 0.535-0.803-0.501-1.515-0.156-1.99 0.966-0.343 0.809-0.432 0.865-0.617 0.388zM3.339 17.379c0.306-0.164 1.178-1.569 1.938-3.124 1.752-3.583 4.259-6.641 6.466-7.886 0.917-0.518 1.742-1.062 1.833-1.209s-0.286-0.679-0.838-1.181c-0.732-0.666-0.865-0.915-0.493-0.922 0.281-0.005 0.781 0.334 1.111 0.753 0.744 0.946 0.771 0.945 2.041-0.068l1.040-0.83-0.652-0.694c-2.533-2.697-9.968 2.681-13.277 9.603-1.225 2.563-1.405 4.274-0.549 5.22 0.664 0.733 0.648 0.73 1.381 0.338zM16.061 7.466c0.504-0.252 1.794-0.639 2.866-0.86 1.609-0.333 1.824-0.444 1.233-0.639-1.495-0.494-5.532 0.73-5.532 1.677 0 0.396 0.377 0.349 1.433-0.177z"></path>
<path d="M15.683 31.592c-2.743-0.697-4.48-1.75-6.89-4.175-1.282-1.29-2.702-2.439-3.156-2.553-1.372-0.344-2.221-1.075-2.914-2.506-0.444-0.917-0.6-1.659-0.478-2.269 0.147-0.737 0.004-1.092-0.761-1.889-1.795-1.869-1.815-3.155-0.104-6.772 2.609-5.515 8.634-11.124 11.949-11.124 0.563 0 1.413 0.291 1.899 0.651 0.936 0.692 0.968 0.689 3.801-0.342 2.127-0.774 3.529-0.635 4.624 0.46 0.869 0.869 0.961 2.671 0.233 4.565-0.823 2.14-0.82 2.458 0.032 3.746 0.487 0.736 0.906 1.911 1.044 2.932 0.127 0.937 0.288 1.752 0.358 1.811s0.916 0.606 1.88 1.216c1.863 1.177 1.87 1.19 1.768 3.148-0.052 1.004 0.063 1.34 0.548 1.6 1.129 0.604 1.062 1.391-0.377 4.388-2.254 4.697-5.359 6.979-10 7.351-1.1 0.088-2.577-0.013-3.457-0.237zM24.581 27.634c1.838-0.931 3.484-2.743 4.203-4.626l0.515-1.349-0.859-1.077c-0.997-1.25-1.1-1.273-2.201-0.488-1.216 0.866-2.957 1.495-5.363 1.938-1.995 0.367-2.128 0.442-2.054 1.143 0.167 1.571 0.222 1.598 2.897 1.452 2.509-0.137 2.509-0.137 1.137 0.283-2.611 0.799-4.876-0.029-4.876-1.784 0-1.055 0.532-1.352 2.82-1.576 0.964-0.095 2.479-0.504 3.366-0.91 1.78-0.815 3.871-2.499 3.871-3.118 0-0.218-0.651-0.811-1.448-1.317-2.238-1.423-2.403-1.647-2.629-3.572-0.21-1.789-0.825-2.879-1.625-2.879-0.234 0-0.931 0.343-1.547 0.762-0.849 0.577-1.515 0.762-2.742 0.762-2.794 0-3.741 0.874-4.151 3.832-0.146 1.053-0.033 1.431 0.745 2.489l0.917 1.247-0.658 1.262c-0.986 1.892-0.673 3.831 0.952 5.89 0.687 0.871 1.755 1.828 2.374 2.128 1.569 0.759 4.303 0.548 6.354-0.492zM22.248 13.841c0-0.538 0.656-0.444 0.844 0.121 0.066 0.199-0.096 0.362-0.362 0.362s-0.483-0.217-0.483-0.483zM8.61 22.823c0.959-1.018 1.055-2.006 0.342-3.509-1.136-2.394-3.124-2.822-4.761-1.024-1.552 1.703-0.984 4.448 1.106 5.341 1.252 0.535 2.286 0.283 3.313-0.808zM4.571 20.003c0-0.596 1.056-1.717 1.618-1.717 0.219 0 0.665 0.203 0.99 0.452 0.554 0.423 0.532 0.441-0.354 0.276-0.78-0.145-1.060-0.031-1.6 0.656-0.47 0.597-0.655 0.691-0.655 0.334zM3.74 17.143c0.265-0.293 1.1-1.769 1.856-3.279 1.281-2.559 4.397-6.55 5.114-6.55 0.163 0 0.196 0.163 0.073 0.363s0.982-0.692 2.457-1.981c1.475-1.289 2.802-2.344 2.949-2.344 0.496 0 0.273-0.66-0.418-1.236-0.99-0.826-2.973-0.756-4.798 0.168-4.221 2.139-9.755 9.628-9.755 13.202 0 1.789 1.506 2.779 2.521 1.656zM12.489 3.802c-0.589-0.71-0.169-0.843 0.462-0.147 0.304 0.336 0.412 0.611 0.239 0.611s-0.488-0.209-0.7-0.465zM16.83 7.341c0.96-0.35 2.297-0.636 2.971-0.636s1.227-0.135 1.227-0.299c0-0.491-1.423-0.698-3.238-0.471-1.376 0.172-1.917 0.418-2.814 1.28-1.232 1.185-1.078 1.195 1.854 0.127z"></path>
<path d="M16.762 31.788c-3.102-0.523-7.287-3.092-9.029-5.541-0.569-0.801-1.196-1.3-1.79-1.427-2.133-0.454-3.502-2.168-3.504-4.389-0.001-1.158-0.17-1.532-1.144-2.529-0.973-0.997-1.138-1.361-1.11-2.451 0.036-1.426 1.381-4.612 2.844-6.739 3.958-5.753 9.991-9.888 11.6-7.951 0.325 0.391 0.228 0.457-0.676 0.457-3.528 0-9.809 5.888-12.029 11.276-0.941 2.283-0.925 3.954 0.046 4.866 0.723 0.679 0.78 0.686 1.543 0.186 0.436-0.286 1.063-1.162 1.393-1.947 1.143-2.716 1.957-4.062 3.413-5.637 0.804-0.87 1.307-1.261 1.118-0.87-0.64 1.327-0.082 0.986 1.691-1.035 0.972-1.107 2.728-2.78 3.901-3.716 2.047-1.633 2.104-1.714 1.4-1.977-0.672-0.251-0.555-0.352 1.399-1.203 1.173-0.511 2.727-0.947 3.453-0.969 1.132-0.035 1.447 0.101 2.21 0.954 1.111 1.243 1.135 2.248 0.117 4.793l-0.772 1.93 0.907 1.429c0.565 0.891 0.984 2.050 1.112 3.076 0.2 1.597 0.262 1.686 2.075 2.953 1.839 1.285 1.869 1.33 1.869 2.738 0 1.17 0.153 1.574 0.838 2.209 0.461 0.428 0.838 0.894 0.838 1.036 0 0.602-2.589 5.437-3.516 6.565-2.253 2.744-6.794 4.486-10.198 3.911zM24.229 27.929c1.738-0.813 3.867-2.976 4.559-4.631 0.585-1.4 0.59-1.934 0.027-2.548-1.729-1.884-1.666-1.753-1.178-2.45 0.631-0.902 0.408-1.272-1.549-2.571-1.733-1.15-1.851-1.361-2.117-3.779-0.079-0.719-0.31-1.508-0.513-1.752-0.532-0.642-1.705-0.548-2.742 0.219-0.648 0.479-1.418 0.687-2.76 0.746-2.184 0.096-3.204 0.66-3.809 2.108-0.689 1.648-0.535 3.18 0.45 4.481l0.865 1.142-0.737 1.448c-0.554 1.088-0.689 1.713-0.543 2.515 0.338 1.853 1.957 4.17 3.648 5.22 1.358 0.843 4.432 0.772 6.4-0.149zM18.171 23.825c-0.135-0.39-0.164-0.79-0.065-0.889 0.316-0.316 0.538 0.15 0.422 0.886l-0.112 0.712zM22.248 13.714c0-0.168 0.137-0.305 0.305-0.305s0.305 0.137 0.305 0.305c0 0.168-0.137 0.305-0.305 0.305s-0.305-0.137-0.305-0.305zM7.934 23.614c0.492-0.254 1.117-0.893 1.389-1.42 0.42-0.812 0.438-1.131 0.116-2.105-0.539-1.632-1.894-3.022-2.946-3.021-3.286 0.004-4.616 4.713-1.814 6.421 1.158 0.706 2.064 0.741 3.255 0.125zM17.655 7.187c0.91-0.265 2.196-0.482 2.856-0.482 0.993 0 1.14-0.074 0.848-0.425-0.554-0.668-2.383-0.871-4.031-0.449-1.049 0.269-1.959 0.811-3.015 1.798-0.832 0.777-1.513 1.505-1.513 1.618s0.72-0.196 1.6-0.686c0.88-0.49 2.345-1.109 3.255-1.374z"></path>
<path d="M16.838 31.791c-0.545-0.074-0.99-0.262-0.99-0.419s-0.24-0.287-0.533-0.288c-0.87-0.005-3.763-1.472-5.158-2.615-0.713-0.585-1.737-1.675-2.274-2.423s-1.193-1.369-1.458-1.381c-0.265-0.012 0.058-0.219 0.717-0.461 1.534-0.562 2.203-1.178 2.606-2.398 0.367-1.113-0.074-2.463-1.276-3.901-1.399-1.673-4.035-1.17-5.17 0.985-0.313 0.595-0.559 0.834-0.559 0.544 0-0.536-1.982-2.722-2.236-2.467-0.079 0.079-0.236-0.275-0.348-0.787-0.25-1.138 1.578-5.213 3.624-8.081 1.786-2.503 5.509-5.982 7.19-6.719 0.754-0.331 1.455-0.719 1.557-0.863s0.582-0.21 1.067-0.147l0.881 0.114-0.762 0.346c-0.419 0.191-1.108 0.419-1.53 0.508-1.166 0.245-3.596 1.962-5.571 3.936-3.138 3.135-5.699 7.79-5.699 10.36 0 1.158 1.028 2.346 2.030 2.346 0.842 0 1.4-0.7 2.494-3.13 1.173-2.605 2.133-3.963 2.658-3.762 0.503 0.193 1.074-0.312 3.323-2.938 0.97-1.132 3.048-3.038 4.62-4.234s2.857-2.362 2.857-2.589c0-0.227 0.214-0.413 0.475-0.413s0.401-0.12 0.31-0.268c-0.214-0.346 1.514-0.693 2.373-0.478 0.936 0.235 2.024 1.959 2.020 3.202-0.002 0.576-0.35 1.793-0.773 2.703l-0.77 1.655 0.926 1.489c0.509 0.819 0.925 1.72 0.925 2.002s-0.24 0.033-0.533-0.554c-0.665-1.332-1.644-1.526-2.922-0.581-0.689 0.51-1.527 0.739-3.193 0.876-2.021 0.165-2.346 0.283-3.090 1.115-0.594 0.665-0.888 1.401-1.031 2.579-0.182 1.502-0.118 1.765 0.708 2.946l0.908 1.297-0.603 0.989c-1.219 1.999-0.575 4.833 1.635 7.197 1.225 1.311 2.539 1.868 4.401 1.868 2.507 0 4.269-0.805 6.388-2.919 1.048-1.045 1.905-1.792 1.905-1.659s-0.55 1.065-1.221 2.071c-1.372 2.054-2.575 3.080-4.756 4.054-0.819 0.366-1.709 0.773-1.978 0.905-0.68 0.334-2.972 0.546-4.159 0.386zM13.452 9.468c2.389-1.596 4.785-2.458 6.826-2.458 1.289 0 1.665-0.105 1.665-0.465 0-0.905-2.293-1.303-4.967-0.861-0.875 0.145-1.711 0.709-3.429 2.312-2.044 1.909-2.638 2.671-2.081 2.671 0.105 0 0.998-0.539 1.985-1.199zM3.618 23.238c-0.379-0.483-0.368-0.494 0.115-0.115 0.293 0.23 0.533 0.47 0.533 0.533 0 0.251-0.25 0.089-0.648-0.418zM29.562 21.629c0-0.34-0.206-0.698-0.459-0.795-0.719-0.276-1.532-2.203-1.108-2.627 0.703-0.703 0.303-1.345-1.633-2.618-1.938-1.274-1.98-1.33-1.938-2.579l0.043-1.277 0.185 1.196c0.16 1.035 0.432 1.369 2.014 2.478 1.796 1.259 1.829 1.307 1.829 2.723 0 1.255 0.129 1.548 0.999 2.275 0.678 0.566 0.937 0.996 0.805 1.338-0.27 0.703-0.738 0.63-0.738-0.115z"></path>
<path d="M17.067 31.695c-0.645-0.206-0.668-0.251-0.152-0.292 0.335-0.026-0.282-0.281-1.371-0.566s-2.612-0.888-3.383-1.34c-1.293-0.758-4.861-4.267-4.834-4.753 0.006-0.116 0.452-0.485 0.99-0.821s1.23-1.124 1.537-1.753c0.533-1.090 0.534-1.206 0.035-2.514-0.288-0.754-0.633-1.371-0.767-1.371s-0.327-0.266-0.43-0.591c-0.225-0.708-2.021-1.365-2.938-1.074-0.595 0.189-0.636 0.127-0.442-0.664 0.407-1.66 1.867-3.88 2.699-4.102 0.435-0.116 1.245-0.74 1.8-1.386 3.505-4.082 6.442-6.688 9.009-7.994 0.712-0.362 1.295-0.85 1.295-1.084s0.171-0.495 0.381-0.579c0.211-0.085 0.109-0.176-0.229-0.204-0.479-0.039-0.431-0.104 0.224-0.301 1.025-0.309 2.322-0.049 1.706 0.341-0.304 0.193-0.311 0.259-0.026 0.262 0.758 0.009 1.6 1.212 1.6 2.284 0 0.997-0.807 3.511-1.127 3.511-0.081 0-0.378-0.285-0.66-0.634s-0.99-0.734-1.573-0.857c-1.407-0.296-4.696 0.334-5.547 1.062-2.13 1.823-4.503 4.454-4.503 4.993 0 0.339 0.104 0.617 0.23 0.617s1.216-0.741 2.42-1.648c2.671-2.009 4.981-2.924 7.383-2.924 1.422 0 1.82 0.108 1.97 0.533 0.103 0.293 0.268 0.705 0.366 0.914 0.107 0.23-0.044 0.385-0.381 0.39-0.307 0.005-1.107 0.347-1.778 0.76-0.892 0.549-1.653 0.751-2.834 0.752-2.896 0.003-4.053 1.092-4.448 4.184-0.179 1.405-0.107 1.737 0.612 2.824l0.815 1.232-0.544 1.207c-0.644 1.427-0.484 4.311 0.285 5.162 0.262 0.289 0.476 0.629 0.476 0.754 0 0.512 2.513 2.596 3.537 2.934 1.786 0.59 4.405 0.238 6.577-0.882l1.913-0.986-0.909 0.956c-1.243 1.308-3.273 2.456-5.14 2.909-0.858 0.208-1.285 0.406-0.95 0.44 0.439 0.045 0.353 0.127-0.305 0.295-1.176 0.299-1.656 0.299-2.59 0zM29.871 21.41c0.003-0.61 0.079-0.721 0.277-0.409 0.15 0.236 0.201 0.613 0.115 0.838-0.247 0.644-0.397 0.481-0.392-0.43zM0.209 16.123c-0.092-0.352-0.048-0.934 0.098-1.295 0.213-0.529 0.268-0.404 0.284 0.639 0.021 1.413-0.12 1.655-0.382 0.656z"></path>
</symbol>
<symbol id="b-jira" viewBox="0 0 31 32">
<title>jira</title>
<path d="M8.1 24.877c-3.804-3.782-7.196-7.263-7.538-7.736-0.443-0.611-0.563-1.1-0.416-1.692 0.197-0.798 12.467-13.482 14.388-14.874l0.841-0.609 1.313 1.171c3.623 3.23 13.485 13.241 13.804 14.012 0.286 0.69 0.281 1.040-0.021 1.604-0.652 1.219-13.962 14.593-14.732 14.803-0.629 0.172-1.623-0.698-7.639-6.679zM17.541 17.997l1.985-2.003-4.142-4.142-4.142 4.142 1.985 2.003c1.092 1.102 2.062 2.003 2.157 2.003s1.065-0.901 2.157-2.003z"></path>
<path d="M7.613 24.075c-4.187-4.19-7.613-7.808-7.613-8.040 0-0.457 13.539-14.589 14.716-15.36 0.703-0.461 0.857-0.328 8.385 7.195 4.218 4.215 7.665 7.873 7.661 8.128-0.008 0.498-14.774 15.695-15.25 15.695-0.157 0-3.711-3.428-7.898-7.618zM17.695 18.151l2.14-2.157-4.451-4.451-4.451 4.451 2.14 2.157c1.177 1.186 2.217 2.157 2.31 2.157s1.133-0.971 2.31-2.157z"></path>
<path d="M7.613 24.075c-4.187-4.19-7.613-7.825-7.613-8.079s3.462-3.921 7.692-8.149l7.692-7.688 7.692 7.688c4.231 4.228 7.692 7.89 7.692 8.137 0 0.404-14.983 15.709-15.379 15.709-0.090 0-3.59-3.428-7.777-7.618zM17.615 18.426c1.142-1.031 2.077-2.098 2.077-2.372 0-0.605-3.659-4.361-4.248-4.361-0.594 0-4.367 3.69-4.367 4.271 0 0.533 3.642 4.347 4.145 4.34 0.174-0.002 1.251-0.847 2.393-1.878z"></path>
<path d="M7.695 23.958c-4.145-4.199-7.571-7.743-7.613-7.874s3.351-3.736 7.541-8.011l7.618-7.773 7.685 7.69c4.227 4.23 7.719 7.797 7.759 7.927 0.075 0.242-15.106 15.814-15.33 15.725-0.068-0.027-3.516-3.485-7.66-7.685zM18.108 18.059c1.638-1.664 1.904-2.078 1.644-2.563-0.382-0.713-3.916-4.112-4.276-4.112-0.144 0-1.276 1.021-2.516 2.27-2.617 2.635-2.624 2.484 0.233 5.209 2.184 2.083 2.050 2.105 4.914-0.804z"></path>
<path d="M7.748 23.649c-4.174-4.122-7.621-7.502-7.659-7.511s3.304-3.452 7.428-7.651c4.124-4.199 7.647-7.585 7.829-7.523 0.656 0.223 15.115 14.863 15.115 15.303 0 0.248-0.078 0.373-0.174 0.277s-2.943 2.704-6.328 6.221c-3.385 3.517-6.71 6.841-7.388 7.386l-1.233 0.991zM18.262 18.213c2.465-2.5 2.481-2.339-0.533-5.233-1.439-1.381-2.152-1.87-2.469-1.692-0.838 0.469-4.798 4.47-4.798 4.847 0 0.207 1.032 1.377 2.294 2.6 2.674 2.593 2.411 2.617 5.507-0.522z"></path>
<path d="M16.799 29.054c0.153-0.495 0.276-1.871 0.274-3.056-0.003-1.781-0.148-2.401-0.832-3.569l-0.828-1.413 0.986-0.914c0.542-0.503 1.458-1.295 2.034-1.76l1.049-0.846 4.502 4.472-0.54 0.853c-0.816 1.289-4.861 5.666-5.957 6.447l-0.965 0.687zM8.965 11.999c-1.449-1.618-1.881-2.306-1.737-2.761 0.257-0.81 6.519-7.285 6.787-7.018 0.115 0.115 0.055 0.653-0.134 1.194-0.633 1.817-0.426 4.058 0.548 5.909l0.891 1.694-0.968 0.901c-1.407 1.309-2.691 2.235-3.101 2.235-0.197 0-1.226-0.97-2.287-2.155z"></path>
<path d="M17.65 26.549c0.031-2.106-0.080-2.656-0.827-4.096-0.81-1.562-0.83-1.687-0.323-2.058 0.297-0.217 0.621-0.395 0.72-0.395s1.137 0.964 2.307 2.143c2.476 2.495 2.476 2.504-0.294 5.239l-1.62 1.599zM11.242 9.857c-2.474-2.493-2.474-2.506 0.277-5.223l1.603-1.583-0.020 2.403c-0.017 1.99 0.117 2.679 0.775 4.009 0.739 1.493 0.759 1.639 0.281 2.071-0.283 0.256-0.576 0.465-0.652 0.465s-1.095-0.964-2.264-2.143z"></path>
</symbol>
</defs>
</svg>
