<!-- Generated by IcoMoon.io -->
<svg version="1.1" xmlns="http://www.w3.org/2000/svg" width="1024" height="1024" viewBox="0 0 1024 1024">
<title></title>
<g id="icomoon-ignore">
</g>
<path d="M397.68 11.936c-184.080 39.28-339.432 192.288-383.984 378.128-14.656 60.968-15.832 161.8-2.344 226.288 37.52 182.904 182.904 333.568 371.672 385.744 54.52 15.24 192.288 15.24 249.152 0 239.184-63.312 397.472-280.808 382.232-524.688-4.688-70.936-17-119.008-45.728-181.152-68-146.56-199.904-252.672-357.016-285.496-52.76-11.136-159.456-10.552-213.976 1.176zM543.656 214.192c8.208 13.48 204.008 482.472 211.632 507.096 4.688 15.832-19.344 42.792-38.104 42.792-6.448 0-69.176-45.728-145.384-107.28-73.28-59.208-136.008-109.040-140.112-111.384-4.104-2.928-20.52 31.656-49.832 104.352l-42.792 108.456h-79.144l9.376-21.688c4.688-12.312 55.104-133.664 111.968-270.256s106.696-252.080 111.384-256.776c13.48-12.896 41.040-10.552 51 4.688z"></path>
<path d="M483.864 394.752c-17 42.208-30.488 78.56-30.488 81.488 0 5.864 181.736 149.488 185.248 145.976 2.344-2.928-113.144-291.944-120.176-299.568-2.344-2.344-18.176 29.896-34.592 72.104z"></path>
</svg>
