<!-- Generated by IcoMoon.io -->
<svg version="1.1" xmlns="http://www.w3.org/2000/svg" width="1024" height="1024" viewBox="0 0 1024 1024">
<title></title>
<g id="icomoon-ignore">
</g>
<path d="M192.376 911.36l-4.509-30.72h651.813v61.44h-642.796zM441.823 726.784c-92.518-19.254-187.031-98.656-229.215-192.567-31.718-70.611-31.528-203.56 0.391-273.097 72.514-157.977 251.829-236.909 406.004-178.716 240.522 90.785 293.978 407.777 97.173 576.234-69.109 59.155-182.372 87.288-274.353 68.145zM593.576 669.874c74.196-22.034 153.809-100.873 179.269-177.525 47.328-142.491-17.164-292.26-153.11-355.566-148.138-68.983-330.737 20.699-374.977 184.167-15.674 57.915-6.283 157.105 19.694 208.025 43.046 84.378 151.778 154.319 243.13 156.393 17.282 0.392 55.979-6.58 85.994-15.493z"></path>
</svg>
