<!-- Generated by IcoMoon.io -->
<svg version="1.1" xmlns="http://www.w3.org/2000/svg" width="1024" height="1024" viewBox="0 0 1024 1024">
<title></title>
<g id="icomoon-ignore">
</g>
<path d="M730.88 358.4h-267.52c1.28 6.4 3.84 12.8 5.12 17.92 8.96 30.72 14.080 62.72 16.64 96 1.28 12.8 1.28 26.88 1.28 39.68s0 26.88-1.28 39.68c-2.56 33.28-7.68 65.28-16.64 96-1.28 6.4-3.84 12.8-5.12 17.92h267.52c84.48 0 152.32-69.12 152.32-153.6s-67.84-153.6-152.32-153.6z"></path>
<path d="M485.12 551.68c1.28-12.8 1.28-26.88 1.28-39.68s0-26.88-1.28-39.68c-2.56-33.28-7.68-65.28-16.64-96-1.28-6.4-3.84-12.8-5.12-17.92h-414.72c-15.36 48.64-23.040 99.84-23.040 153.6s7.68 104.96 23.040 153.6h413.44c1.28-6.4 3.84-12.8 5.12-17.92 8.96-30.72 15.36-62.72 17.92-96z"></path>
<path d="M776.96 716.8h-332.8c-10.24 23.040-21.76 44.8-34.56 65.28-19.2 32-42.24 60.16-67.84 87.040-8.96 8.96-17.92 16.64-26.88 25.6-17.92 16.64-38.4 30.72-58.88 44.8 80.64 53.76 177.92 84.48 281.6 84.48 177.92 0 334.080-90.88 426.24-227.84-47.36-48.64-113.92-79.36-186.88-79.36z"></path>
<path d="M409.6 782.080c12.8-20.48 24.32-42.24 34.56-65.28h-376.32c39.68 90.88 104.96 168.96 188.16 222.72 20.48-14.080 39.68-28.16 58.88-44.8 8.96-7.68 17.92-16.64 26.88-25.6 24.32-25.6 47.36-55.040 67.84-87.040z"></path>
<path d="M340.48 154.88c-8.96-8.96-17.92-16.64-26.88-25.6-17.92-16.64-38.4-30.72-58.88-44.8-80.64 53.76-145.92 131.84-186.88 222.72h375.040c-10.24-23.040-21.76-44.8-34.56-65.28-19.2-32-42.24-61.44-67.84-87.040z"></path>
<path d="M537.6 0c-103.68 0-200.96 30.72-281.6 84.48 20.48 14.080 39.68 28.16 58.88 44.8 8.96 7.68 17.92 16.64 26.88 25.6 25.6 26.88 48.64 55.040 67.84 87.040 12.8 20.48 24.32 42.24 34.56 65.28h332.8c72.96 0 139.52-30.72 186.88-79.36-92.16-136.96-248.32-227.84-426.24-227.84z"></path>
</svg>
