<!-- Generated by IcoMoon.io -->
<svg version="1.1" xmlns="http://www.w3.org/2000/svg" width="1024" height="1024" viewBox="0 0 1024 1024">
<title></title>
<g id="icomoon-ignore">
</g>
<path d="M393.414 435.364l242.85 110.712 245.021-214.686c3.549-17.707 5.283-35.365 5.283-53.843 0-151.053-122.869-273.949-273.922-273.949-90.363 0-174.65 44.492-225.885 119.101l-40.752 211.443 47.408 101.223z"></path>
<path d="M142.039 692.529c-3.549 17.707-5.365 36.082-5.365 54.669 0 151.442 123.224 274.666 274.692 274.666 91.107 0 175.804-44.908 226.957-120.282l40.451-210.732-53.985-103.149-243.812-111.122-238.939 215.949z"></path>
<path d="M140.503 272.268l166.425 39.297 36.465-189.224c-22.744-17.38-50.819-26.895-79.694-26.895-72.323 0-131.142 58.847-131.142 131.17 0 15.979 2.664 31.297 7.946 45.652z"></path>
<path d="M126.054 311.905c-74.361 24.641-126.056 95.919-126.056 174.317 0 76.336 47.216 144.508 118.078 171.484l233.499-211.055-42.868-91.599-182.651-43.147z"></path>
<path d="M681.013 901.572c22.825 17.548 50.765 27.119 79.283 27.119 72.323 0 131.142-58.821 131.142-131.148 0-15.947-2.669-31.264-7.946-45.619l-166.289-38.914-36.191 188.563z"></path>
<path d="M714.847 669.425l183.067 42.814c74.384-24.587 126.084-95.892 126.084-174.317 0-76.199-47.325-144.289-118.33-171.183l-239.437 209.764 48.616 92.923z"></path>
</svg>
