<!-- Generated by IcoMoon.io -->
<svg version="1.1" xmlns="http://www.w3.org/2000/svg" width="1175" height="1024" viewBox="0 0 1175 1024">
<title></title>
<g id="icomoon-ignore">
</g>
<path d="M273.696 539.705c31.269 53.58 96.675 165.65 128.132 219.564 10.922 18.702 31.003 30.15 52.664 30.012 61.602-0.398 188.612-1.216 249.691-1.614 21.268-0.139 40.898-11.425 51.718-29.734 31.805-53.839 98.958-167.512 131.518-222.618 11.367-19.246 11.204-43.187-0.426-62.278-33.246-54.56-101.753-166.97-134.214-220.251-11.061-18.149-30.794-29.216-52.052-29.193-61.060 0.075-188.151 0.224-250.024 0.294-21.846 0.029-41.96 11.878-52.577 30.969-30.716 55.257-94.652 170.262-125.056 224.942-10.381 18.681-10.143 41.453 0.629 59.909zM579.359 366.148c83.072 0 150.514 67.441 150.514 150.514 0 83.067-67.441 150.514-150.514 150.514s-150.514-67.447-150.514-150.514c0-83.072 67.441-150.514 150.514-150.514z"></path>
<path d="M701.752 221.437c20.939 0.489 40.987 11.723 52.329 29.35 45.707 73.649 90.848 147.65 135.315 222.053 10.945 19.056 11.129 43.401 0.426 62.636-43.551 75.194-87.781 149.99-132.594 224.44-11.119 17.81-31.049 29.251-52 29.903-83.915 1.228-167.846 1.781-251.772 1.626-21.314-0.398-41.689-11.947-52.952-30.185-43.679-73.425-86.739-147.222-129.188-221.363-10.179-18.472-10.409-41.585-0.629-60.236 41.395-75.937 83.407-151.541 126.071-226.774 10.916-18.518 31.279-30.571 52.876-31.148 84.036-0.807 168.082-0.882 252.118-0.3zM450.712 226.048c-20.386 0.203-39.856 11.44-50.213 28.997-42.633 75.194-84.623 150.756-126.001 226.646-9.118 17.394-8.876 38.91 0.588 56.086 42.428 74.099 85.459 147.857 129.114 221.237 10.46 16.946 29.429 27.736 49.304 28.104 83.873 0.155 167.759-0.398 251.627-1.626 19.499-0.605 38.075-11.28 48.415-27.839 44.785-74.405 88.992-149.166 132.52-224.313 9.949-17.886 9.849-40.473-0.403-58.311-44.437-74.365-89.558-148.325-135.235-221.932-10.576-16.439-29.229-26.882-48.738-27.338-83.655-0.582-167.321 0.19-250.977 0.288zM581.329 363.998c69.656 1.327 134.722 54.704 147.971 123.777 13.148 68.553-27.458 143.771-92.254 170.267-70.946 29.009-161.603-5.326-195.299-75.211-34.808-72.197-1.158-169.875 73.113-204.571 19.504-9.112 40.941-13.85 62.526-14.26 1.977-0.012 1.971-0.012 3.941 0zM577.439 368.32c-67.909 1.29-130.952 53.413-143.776 120.271-12.779 66.618 26.675 139.702 89.643 165.447 68.934 28.189 157.021-5.177 189.765-73.090 33.851-70.197 1.13-165.056-71.050-198.78-18.945-8.853-39.771-13.452-60.743-13.85-1.926-0.012-1.92-0.012-3.839 0z"></path>
<path d="M643.31 997.266l102.502-199.045c7.425-1.948 13.877-6.821 17.763-13.682 33.883-59.906 160.019-282.9 160.019-282.9l-164.142-277.47c116.148-4.043 204.025-7.724 220.397-8.422l143.402 242.404c15.753 26.636 16.075 59.659 0.843 86.589-53.127 93.918-177.993 314.659-231.353 408.992-15.372 27.181-44.209 43.954-75.435 43.891l-174-0.358z"></path>
<path d="M980.526 213.692c0.677 0.372 0.677 0.372 1.186 0.958 48.054 81.229 96.776 162.059 144.146 243.691 14.74 26.399 15.034 59.533 0.837 86.166-76.456 137.838-154.063 275.047-232.815 411.587-15.899 26.518-45.538 43.494-76.564 43.694l-174.005-0.359c-2.004-0.346-2.4-1.623-1.922-3.148l102.506-199.049c1.341-1.91 2.092-1.286 3.279-1.677 6.093-2.184 11.258-6.481 14.529-12.091l159.395-281.797-163.766-277.089c-0.024-1.3 0.279-2.198 2.046-2.568 70.244-2.47 140.607-5.115 210.979-8.029l9.405-0.392c0.253 0.032 0.509 0.071 0.767 0.1zM970.532 218.304c-69.111 2.857-138.237 5.471-207.367 7.898l162.289 274.339c0.462 1.225 0.186 1.693 0.021 2.163-53.471 94.531-105.738 189.751-160.423 283.582-4.055 6.573-10.403 11.534-17.751 13.762l-100.451 195.068c57.297 0.119 114.594 0.708 171.887 0.341 10.302-0.24 13.981-1.079 20.803-2.927 20.987-5.689 39.335-19.824 50.611-38.626 78.728-136.5 156.309-273.665 232.74-411.463 13.749-25.787 13.164-57.914-1.506-83.195l-142.736-241.285c-2.706 0.117-5.409 0.23-8.119 0.342z"></path>
<path d="M976.476 206.139l-223.693 9.321c-5.363-5.491-12.791-8.689-20.677-8.675-68.824 0.167-325.020 0.787-325.020 0.787l-160.022 279.865c-60.941-98.959-107.593-173.522-116.292-187.408l139.797-244.501c15.363-26.863 43.909-43.47 74.848-43.547 107.904-0.259 361.512-0.866 469.89-1.129 31.226-0.077 60.064 16.694 75.448 43.867l85.72 151.419z"></path>
<path d="M816.796 8.7c30.983 0.71 60.334 18.103 75.836 44.946l85.722 151.427c0.689 1.912-0.223 2.888-1.787 3.228l-223.698 9.318c-2.552-0.241-10.424-8.563-20.772-8.67l-323.751 0.783-159.875 279.349c-1.118 0.664-2.049 0.843-3.244-0.51-36.879-59.836-73.968-119.688-111.295-179.416l-4.991-7.98c-0.499-1.242-0.216-1.73-0.044-2.218 46.844-81.931 93.018-164.245 140.549-245.785 15.657-25.866 44.313-42.501 74.484-43.331 157.618-1.694 315.251-2.084 472.868-1.14zM345.432 14.15c-29.67 0.313-58.045 16.821-72.991 42.459l-139.154 243.369c34.975 55.872 69.748 111.974 104.369 168.065l9.338 15.162c0 0 158.698-277.288 158.698-277.288 0.651-0.375 0.651-0.375 1.388-0.507 108.604-0.264 217.214-1.898 325.813-0.774 7.718 0.275 15.168 3.339 20.739 8.624l219.221-9.138c-28.226-49.863-56.045-99.955-84.692-149.575-5.301-8.835-7.849-11.621-12.829-16.636-15.317-15.427-36.68-24.388-58.599-24.893-157.098-0.945-314.201 0.748-471.302 1.129z"></path>
<path d="M123.528 311.895l120.347 188.791c-2.058 7.395-1.094 15.424 2.877 22.235 34.691 59.441 163.83 280.711 163.83 280.711l322.377-2.079c-54.998 102.382-96.069 180.157-103.712 194.653l-281.639 1.822c-30.945 0.197-59.637-16.155-75.235-42.876-54.387-93.194-182.215-312.234-236.843-405.836-15.741-26.969-15.712-60.329 0.070-87.274l87.932-150.145z"></path>
<path d="M124.207 309.843c0.646 0.346 0.646 0.346 1.141 0.888l120.347 188.797c1.073 2.328-2.173 13.314 2.928 22.318l163.188 279.616c0 0 321.859-1.949 321.859-1.949 1.137 0.634 1.758 1.348 1.187 3.061-33.24 61.932-66.386 124.052-99.309 186.319 0 0-2.317 8.726-6.293 9.475-94.376 0.611-188.745 1.994-283.125 1.816-30.133-0.559-58.939-16.888-74.865-42.669-80.582-135.471-160.048-271.603-238.349-408.408-14.939-27.153-14.629-61.269 0.807-88.15l87.938-150.151c1.158-1.377 1.705-1.089 2.547-0.961zM37.464 463.128c-14.68 25.551-14.985 58.041-0.777 83.862 78.276 136.755 157.719 272.856 238.279 408.28 15.354 24.865 43.407 40.536 72.634 40.594l280.336-1.81c30.767-58.295 61.834-116.531 92.969-174.629l8.426-15.689c0 0-319.484 1.932-319.484 1.932-0.651-0.375-0.651-0.375-1.137-0.946-54.744-93.799-110.681-186.912-164.213-281.402-3.636-6.813-4.726-14.795-2.951-22.266l-117.944-185.017c-28.715 49.026-57.424 98.058-86.14 147.091z"></path>
</svg>
