<!-- Generated by IcoMoon.io -->
<svg version="1.1" xmlns="http://www.w3.org/2000/svg" width="1175" height="1024" viewBox="0 0 1175 1024">
<title>jira</title>
<g id="icomoon-ignore">
</g>
<path d="M305.032 972.24c-15.83-14.877-206.269-334.876-249.624-419.449-21.954-42.825-21.105-44.898 114.006-278.444 96.611-166.996 128.782-218.13 143.461-228.022l18.922-12.752h511.488l18.431 12.59c18.891 12.904 27.968 27.598 190.915 309.044 84.583 146.093 88.11 156.488 67.043 197.583-43.355 84.573-233.794 404.572-249.624 419.449l-19.35 18.186h-526.318zM635.309 650.955c17.15-5.844 37.033-18.983 53.22-35.17 61.501-61.501 58.241-152.843-7.522-210.73-41.955-36.931-100.263-46.34-149.422-24.114-92.735 41.929-118.245 156.202-51.389 230.203 41.093 45.485 96.627 59.738 155.113 39.81z"></path>
<path d="M320.707 982.234c-21.922-9.534-20.083-6.685-159.032-246.409-100.913-174.102-113.544-198.643-113.762-221.027-0.208-21.426 6.379-36.774 44.174-102.933 25.714-45.012 48.666-78.864 54.504-80.39 5.547-1.451 10.085-5.883 10.085-9.851s33.037-64.198 73.415-133.846c54.186-93.465 77.563-128.778 89.252-134.822 13.214-6.833 57.545-8.19 267.655-8.19 179.081 0 255.932 1.874 266.060 6.489 15.107 6.883 27.124 24.249 78.755 113.817 17.741 30.776 36.758 60.992 42.261 67.148s41.649 66.324 80.325 133.709c60.865 106.044 70.32 125.834 70.32 147.183 0 21.908-13.234 47.626-118.356 230.007-65.096 112.938-123.64 211.331-130.098 218.653-24.847 28.168-30.035 28.672-292.742 28.437-196.106-0.175-248.546-1.766-262.817-7.973zM824.833 657.878c41.863-72.108 77.564-134.883 79.335-139.501 1.889-4.923-28.101-62.474-72.504-139.136-41.649-71.907-77.373-135.034-79.386-140.281-3.332-8.684-18.099-9.54-164.468-9.54-146.223 0-161.568 0.888-169.198 9.792-4.615 5.386-41.76 67.659-82.544 138.384-54.539 94.578-72.804 130.84-69.052 137.093 2.805 4.676 39.776 68.305 82.158 141.397l77.057 132.896h322.489z"></path>
<path d="M484.007 980.64c-152.861-1.536-157.057-1.88-171.604-14.080-8.202-6.878-69.398-106.932-135.993-222.341-144.351-250.164-138.131-223.042-75.714-330.142 22.42-38.47 44.187-73.921 48.372-78.779s7.609-11.546 7.609-14.861c0-3.315 33.037-63.011 73.415-132.659 54.186-93.465 77.563-128.778 89.252-134.822 23.063-11.927 512.787-12.207 535.799-0.307 9.9 5.12 27.945 29.708 51.482 70.15 19.931 34.247 44.739 75.395 55.13 91.44s50.581 83.31 89.313 149.479c64.417 110.048 70.436 122.692 70.586 148.284 0.154 26.178-6.091 38.781-97.050 195.847-144.399 249.345-150.713 259.406-168.615 268.664-12.785 6.612-36.542 8.051-115.689 7.012-54.78-0.719-170.112-2.017-256.292-2.883zM742.457 795.786c11.849-7.535 164.791-275.667 162.987-285.743-0.963-5.378-37.003-70.678-80.089-145.112l-78.339-135.334-160.007-0.088c-145.525-0.080-160.767 0.798-168.401 9.704-4.617 5.386-42.974 69.762-85.239 143.058l-76.845 133.266 76.685 132.527c42.176 72.89 80.534 136.933 85.239 142.319 7.763 8.887 22.832 9.784 162.966 9.707 84.926-0.045 157.396-1.983 161.044-4.303z"></path>
<path d="M312.418 966.617c-8.21-6.909-69.413-106.989-136.007-222.398-144.413-250.272-138.165-222.681-75.059-331.437 22.735-39.182 43.855-71.252 46.933-71.266 5.467-0.025 23.098 29.258 183.502 304.78 43.001 73.862 82.016 138.702 86.7 144.087 7.741 8.901 23.136 9.792 169.055 9.792 146 0 161.291-0.887 168.843-9.792 4.567-5.386 42.792-69.596 84.945-142.69 75.666-131.208 76.535-133.102 68.307-149.013-4.584-8.864-39.974-70.677-78.645-137.362s-68.83-123.642-67.020-126.571c2.055-3.325-60.667-5.325-167.020-5.325-149.808 0-171.213 1.086-177.796 9.018-4.117 4.96-40.459 66.022-80.76 135.694s-75.642 126.48-78.534 126.242c-7.105-0.586-103.070-165.006-103.132-176.7-0.027-5.096 32.987-66.25 73.365-135.898 54.186-93.465 77.563-128.778 89.252-134.822 13.214-6.833 57.545-8.19 267.655-8.19 179.081 0 255.932 1.874 266.060 6.489 7.833 3.569 21.5 18.048 30.371 32.175 39.878 63.509 79.822 135.861 76.719 138.963-1.87 1.87 1.319 8.623 7.086 15.006 9.757 10.8 121.623 200.646 143.385 243.337 6.224 12.21 8.74 26.335 6.977 39.169-3.598 26.191-227.967 416.519-253.579 441.144l-18.914 18.186-517.76-0.056-14.926-12.562z"></path>
<path d="M312.418 966.617c-8.21-6.909-69.413-106.989-136.007-222.398-144.413-250.272-138.165-222.681-75.059-331.437 22.735-39.182 43.855-71.252 46.933-71.266 5.467-0.025 23.098 29.258 183.502 304.78 43.001 73.862 82.016 138.702 86.7 144.087 7.741 8.901 23.136 9.792 169.055 9.792 146 0 161.291-0.887 168.843-9.792 4.567-5.386 42.792-69.596 84.945-142.69 75.666-131.208 76.535-133.102 68.307-149.013-4.584-8.864-39.974-70.677-78.645-137.362s-68.83-123.642-67.020-126.571c1.877-3.038 44.842-5.325 100.017-5.325 85.157 0 97.741 1.171 105.21 9.792 8.465 9.77 122.962 205.31 141.422 241.523 6.224 12.21 8.74 26.335 6.977 39.169-3.598 26.191-227.967 416.519-253.579 441.144l-18.914 18.186-517.76-0.056-14.926-12.562z"></path>
<path d="M649.093 975.805c0-5.46 96.007-171.646 106.312-184.024 5.124-6.155 43.798-70.995 85.941-144.089 75.649-131.206 76.518-133.102 68.29-149.013-4.584-8.864-39.974-70.677-78.645-137.362s-68.83-123.642-67.020-126.571c1.877-3.038 44.842-5.325 100.017-5.325 85.157 0 97.741 1.171 105.21 9.792 8.465 9.77 122.962 205.31 141.422 241.523 6.224 12.21 8.74 26.335 6.977 39.169-3.598 26.191-227.967 416.519-253.579 441.144l-18.914 18.186h-98.006c-53.903 0-98.006-1.543-98.006-3.43z"></path>
<path d="M656.357 969.443c32.675-58.892 91.86-158.064 99.348-166.47 14.245-15.991 167.574-280.854 167.574-289.469 0-3.947-34.007-66.333-75.57-138.635l-75.57-131.458 93.416-1.539c70.058-1.154 95.134 0.245 100.285 5.596 3.778 3.924 37.831 60.013 75.673 124.643 56.506 96.505 68.832 121.509 68.962 139.891 0.135 19.115-17.683 53.23-122.047 233.685-67.212 116.216-127.553 215.049-134.091 219.628-9.381 6.57-31.751 8.326-106.098 8.326-51.816 0-93.163-1.889-91.882-4.197z"></path>
</svg>
