<!-- Generated by IcoMoon.io -->
<svg version="1.1" xmlns="http://www.w3.org/2000/svg" width="985" height="1024" viewBox="0 0 985 1024">
<title>jira</title>
<g id="icomoon-ignore">
</g>
<path d="M259.198 796.052c-121.715-121.029-230.26-232.422-241.213-247.541-14.166-19.555-18.011-35.186-13.324-54.154 6.308-25.524 398.947-431.433 460.402-475.962l26.91-19.498 42.013 37.462c115.933 103.374 431.506 423.706 441.732 448.394 9.146 22.080 9.002 33.269-0.662 51.325-20.873 39.001-446.795 466.992-471.423 473.712-20.123 5.491-51.949-22.337-244.435-213.739zM561.327 575.903l63.527-64.097-132.547-132.547-132.547 132.547 63.527 64.097c34.94 35.253 65.999 64.097 69.019 64.097s34.079-28.844 69.019-64.097z"></path>
<path d="M243.618 770.389c-133.99-134.071-243.618-249.84-243.618-257.265 0-14.63 433.258-466.852 470.91-491.523 22.493-14.738 27.427-10.505 268.31 230.234 134.967 134.886 245.283 251.927 245.146 260.091-0.268 15.951-472.767 502.228-487.998 502.228-5.022 0-118.76-109.694-252.75-243.765zM566.243 580.833l68.484-69.013-142.42-142.42-142.42 142.42 68.484 69.013c37.666 37.957 70.937 69.013 73.935 69.013s36.269-31.056 73.935-69.013z"></path>
<path d="M243.618 770.389c-133.99-134.071-243.618-250.412-243.618-258.535s110.769-125.473 246.154-260.777l246.154-246.006 246.154 246.006c135.385 135.303 246.154 252.482 246.154 260.397 0 12.932-479.46 502.68-492.12 502.68-2.892 0-114.887-109.694-248.877-243.765zM563.692 589.62c36.554-32.983 66.462-67.144 66.462-75.914 0-19.374-117.078-139.552-135.952-139.552-19.017 0-139.74 118.080-139.74 136.68 0 17.052 116.549 139.088 132.639 138.883 5.572-0.071 40.038-27.115 76.592-60.097z"></path>
<path d="M246.235 766.664c-132.632-134.383-242.262-247.764-243.622-251.96s107.23-119.557 241.311-256.359l243.783-248.731 245.934 246.094c135.264 135.351 246.994 249.496 248.29 253.654 2.415 7.748-483.379 506.064-490.567 503.212-2.189-0.868-112.497-111.528-245.13-245.911zM579.45 577.904c52.429-53.25 60.927-66.494 52.623-82.010-12.212-22.819-125.305-131.586-136.819-131.586-4.599 0-40.825 32.681-80.501 72.624-83.754 84.317-83.971 79.478 7.465 166.693 69.873 66.647 65.599 67.346 157.232-25.72z"></path>
<path d="M247.945 756.755c-133.58-131.907-243.874-240.061-245.099-240.342s105.74-110.461 237.698-244.845c131.958-134.384 244.701-242.708 250.539-240.721 20.982 7.144 483.685 475.602 483.685 489.701 0 7.934-2.5 11.926-5.555 8.87s-94.183 86.534-202.506 199.088c-108.323 112.554-214.712 218.916-236.42 236.361l-39.469 31.718zM584.38 582.831c78.874-79.986 79.396-74.857-17.051-167.442-46.032-44.188-68.866-59.838-79.014-54.154-26.814 15.021-153.546 143.030-153.546 155.093 0 6.619 33.030 44.063 73.4 83.207 85.558 82.961 77.143 83.759 176.21-16.705z"></path>
<path d="M537.572 929.742c4.889-15.85 8.836-59.861 8.771-97.801-0.097-56.994-4.724-76.841-26.62-114.204l-26.502-45.222 31.543-29.247c17.349-16.086 46.642-41.427 65.097-56.314l33.554-27.067 144.050 143.089-17.29 27.308c-26.114 41.244-155.545 181.318-190.618 206.292l-30.874 21.984zM286.892 383.968c-46.359-51.779-60.203-73.787-55.58-88.354 8.224-25.91 208.62-233.118 217.178-224.56 3.691 3.691 1.767 20.89-4.274 38.221-20.272 58.153-13.623 129.864 17.533 189.092l28.517 54.212-30.979 28.829c-45.020 41.896-86.117 71.516-99.223 71.516-6.289 0-39.216-31.030-73.172-68.955z"></path>
<path d="M564.802 849.556c0.997-67.38-2.56-84.996-26.459-131.061-25.932-49.983-26.56-53.986-10.325-65.857 9.507-6.951 19.88-12.639 23.052-12.639s36.389 30.858 73.815 68.574c79.235 79.847 79.22 80.117-9.406 167.642l-51.827 51.184zM359.731 315.426c-79.18-79.791-79.159-80.177 8.878-167.12l51.299-50.662-0.643 76.901c-0.532 63.683 3.729 85.736 24.792 128.296 23.644 47.775 24.277 52.442 8.99 66.276-9.045 8.185-18.43 14.882-20.856 14.882s-35.034-30.858-72.46-68.574z"></path>
</svg>
