<!-- Generated by IcoMoon.io -->
<svg version="1.1" xmlns="http://www.w3.org/2000/svg" width="985" height="1024" viewBox="0 0 985 1024">
<title></title>
<g id="icomoon-ignore">
</g>
<path d="M492.48 644.001c78.526 99.661 76.344 197.394 4.9 293.47l-449.234-445.535 427.372-430.931 0.912 0.903c-72.872 103.694-74.266 205.389 6.136 304.138l-133.805 134.918 141.835 140.66 1.885 2.376zM924.857 506.645l-5.479 5.523 0.070-10.887 5.409 5.365z"></path>
<path d="M489.103 363.266c-78.559-99.635-76.409-197.369-4.997-293.469l449.381 445.387-427.23 431.072-0.912-0.903c72.838-103.718 74.198-205.413-6.237-304.136l133.761-134.963-141.881-140.613-1.885-2.375zM56.771 500.764l5.477-5.524-0.067 10.887-5.41-5.363z"></path>
</svg>
