<!-- Generated by IcoMoon.io -->
<svg version="1.1" xmlns="http://www.w3.org/2000/svg" width="975" height="1024" viewBox="0 0 975 1024">
<title></title>
<g id="icomoon-ignore">
</g>
<path d="M960.35 663.826c-6.928-14.775-20.111-24.953-36.656-28.877-5.538-25.266-13.183-37.665-13.878-39.526 2.915-3.318 5.74-6.659 6.368-7.443 23.361-28.988 8.116-71.429-31.813-81.45-22.464-21.613-42.799-31.769-59.502-40.132-16.008-8.004-9.618-4.865-24.639-11.636-3.99-19.528-5.313-64.949-11.658-96.83-5.694-28.675-17.173-49.458-34.885-63.112-7.084-15.335-17.017-30.804-28.988-42.171 55.691-85.374 70.353-169.695 29.572-213.861-18.16-19.662-45.131-28.988-77.393-28.988-45.422 0-101.292 18.519-157.7 52.776 0 0-36.723-29.549-37.508-30.177-157.117-123.734-601.475 423.060-444.627 542.556l40.49 30.939c-25.424 70.712 9.932 155.010 83.603 182.071 16.277 5.986 33.943 8.9 52.26 7.87 0 0 119.026 218.278 370.149 218.346 290.514 0.090 364.432-284.102 365.217-286.658 0 0.023 23.541-34.773 11.591-63.694zM49.125 538.791c-31.836-53.717 23.563-164.090 62.977-226.82 97.413-155.032 259.552-277.376 333.179-259.912l20.245-7.757c0.067 0.067 55.309 46.745 55.377 46.79 38.046-22.846 86.495-46.117 131.828-50.758-27.577 6.21-61.183 20.514-101.001 44.861-0.964 0.56-94.207 63.493-151.176 119.991-31.051 30.783-155.705 180.277-155.592 180.142 22.778-43.113 37.8-64.277 73.851-109.633 20.402-25.648 42.171-50.601 64.435-73.626 10.335-10.695 20.806-20.985 31.276-30.737 7.196-6.703 14.438-13.16 21.635-19.326 3.318-2.848 6.636-5.605 9.932-8.318l0.023-0.023-73.066-60.331 3.857 27.038 53.112 46.79s-46.991 31.634-70.375 51.588c-93.691 79.948-185.635 202.674-219.848 322.148l1.637-0.067c-17.039 9.393-33.943 24.46-48.718 44.952-0.358-0.090-38.203-27.868-43.584-36.993zM204.067 763.19c-56.116 0-101.628-47.911-101.628-106.987 0-59.099 45.489-106.987 101.628-106.987 14.55 0 28.383 3.229 40.894 9.012 0 0 21.59 10.896 27.666 62.349 6.322-16.075 9.506-29.281 9.506-29.281 7.242 22.151 10.941 45.422 9.484 68.963 6.008-7.982 12.443-23.025 12.443-23.025 11.209 65.756-36.768 125.954-99.992 125.954zM329.169 385.352s43.696-83.087 139.742-138.038c-7.152-1.144-24.639 1.076-27.711 1.435 17.442-14.999 49.862-25.020 72.259-29.572-6.547-4.17-22.173-5.224-29.908-5.426-2.287-0.067-2.264-0.045-4.977 0.067 21.074-11.77 60.129-18.698 95.62-12.443-4.462-5.919-14.573-10.246-21.68-12.353-0.628-0.179-3.408-0.874-3.408-0.874l2.668-0.628c21.388-4.125 46.386 0.337 66.138 8.273-2.242-5.201-7.735-11.277-11.86-15.111-0.426-0.404-2.892-2.174-2.892-2.174 20.671 4.282 40.49 13.317 55.399 23.541-2.018-3.923-7.040-10.515-10.515-14.102 19.751 5.65 41.947 19.751 51.453 39.952 0.224 0.449 0.83 2.107 0.897 2.309-37.441-28.786-146.715-20.626-256.123 50.265-50.063 32.464-86.786 67.976-115.102 104.879zM919.525 713.441c-1.323 2.578-15.089 77.123-93.849 139.024-99.476 78.155-230.16 70.241-279.506 26.456-26.366-24.662-37.777-59.927-37.777-59.927s-2.982 19.886-3.497 27.688c-19.886-33.831-18.205-75.151-18.205-75.151s-10.604 19.797-15.47 30.872c-14.64-37.261-7.084-75.734-7.084-75.734l-11.569 17.263s-5.426-42.171 7.891-77.281c14.259-37.53 41.88-64.793 47.328-68.201-20.962-6.659-45.108-25.761-45.154-25.805 0 0 9.595 0.628 16.277-0.897 0 0-42.373-30.356-49.816-76.809 6.143 7.578 19.035 16.164 19.035 16.164-4.17-12.151-6.703-39.212-2.802-65.824l0.023-0.023c8.026-50.848 49.929-83.961 97.392-83.558 50.534 0.449 84.41 11.053 126.783-28.025 8.968-8.273 16.12-15.403 28.719-18.182 1.323-0.291 4.618-1.681 11.367-1.681 6.838 0 13.407 1.547 19.438 5.134 22.98 13.676 27.935 49.346 30.401 75.509 9.125 97.032 5.448 79.747 44.705 99.745 18.742 9.528 39.772 18.586 63.74 44.212 0.067 0.067 0.179 0.202 0.179 0.202h0.291c20.2 0.493 30.602 16.389 21.299 27.958-67.774 80.935-162.453 119.699-267.938 122.949-4.35 0.112-14.169 0.337-14.215 0.337-42.62 1.3-56.475 56.408-29.751 89.566 16.905 20.962 49.39 27.845 76.16 27.935l0.381-0.135c115.349 2.332 231.236-79.299 251.257-124.295 0.135-0.337 1.367-3.183 1.367-3.183-4.641 5.448-116.986 111.224-253.521 107.39 0 0-14.931-0.314-28.988-3.587-18.541-4.304-32.62-12.465-38.002-30.939 11.322 2.264 25.67 3.722 42.306 3.722 98.557 0 169.56-44.794 162.162-45.4-0.291 0-0.583 0.067-1.076 0.179-11.502 2.668-129.967 48.561-204.849 25.020 0.179-2.287 0.538-4.506 1.076-6.501 6.659-22.308 18.496-19.191 37.642-20.021 68.335-2.264 123.465-19.46 164.785-39.077 44.054-20.918 77.639-47.866 89.746-61.475 15.694 26.433 15.604 60.354 15.604 60.354s6.143-2.153 14.304-2.153c25.514 0.023 30.783 22.936 11.411 46.184zM584.821 744.156c0-0.112-0.023-0.224-0.023-0.337 0.023 0.112 0.023 0.224 0.023 0.337zM584.799 743.685c-0.023-0.291-0.023-0.583-0.045-0.874-0.045-1.457-0.067-2.982 0-4.529-0.045 1.659-0.045 3.183 0 4.529 0.023 0.291 0.023 0.605 0.045 0.874zM585.068 746.958c0 0.045 0 0.090 0.023 0.135 0-0.045 0-0.090-0.023-0.135zM585.112 747.228c0.449 3.543 1.144 5.179 1.233 5.38-0.516-1.099-0.942-3.004-1.233-5.38zM438.869 71.857l6.434-19.797 10.941 39.728-13.519-4.371-3.857-15.559zM489.044 111.585l-8.116-28.226 22.353 18.742c-5.022 3.229-9.775 6.412-14.236 9.484zM584.799 743.685c-0.023-0.291-0.023-0.583-0.045-0.874 0.023 0.291 0.023 0.605 0.045 0.874zM584.776 742.811c-0.045-1.457-0.067-2.982 0-4.529-0.067 1.681-0.067 3.183 0 4.529zM584.821 744.156c0-0.112-0.023-0.224-0.023-0.337zM585.090 747.093c0-0.045 0-0.090-0.023-0.135zM585.112 747.228c0.449 3.543 1.144 5.179 1.233 5.38-0.516-1.099-0.942-3.004-1.233-5.38zM701.919 436.468c-0.157-7.533 1.054-19.998 8.138-22.308h0.023c12.129-4.215 28.204 26.859 28.944 54.435-9.595-4.798-20.85-6.838-32.441-5.829-2.915-8.9-4.304-17.263-4.664-26.298zM464.472 129.229l-30.469-25.514 46.117 14.080c-5.941 4.215-11.209 8.071-15.649 11.434zM526.575 503.503c-7.645 2.915-13.071 5.179-15.694 4.798-4.237-0.628-0.135-8.407 9.147-15.94 18.675-14.887 44.301-19.505 66.205-11.367 9.595 3.52 20.357 10.582 26.007 18.81 2.13 3.116 2.713 5.471 1.839 6.457-1.726 2.018-7.87-0.695-16.927-4.237-23.204-8.654-40.311-9.977-70.577 1.479zM559.195 536.078c-5.179 2.107-8.542 3.722-9.909 2.623-1.39-1.076-0.023-5.426 4.82-10.111 4.215-4.058 8.587-6.345 13.609-8.452 0.785-0.337 1.614-0.628 2.466-0.852 2.332-0.628 4.685-1.412 7.242-1.793 20.446-3.475 35.423 7.87 33.473 11.165-0.874 1.547-4.664 1.188-10.313 0.807-11.725-0.807-24.011-0.605-41.387 6.614zM194.943 604.683c-4.148 0.874-1.816 0.381-5.919 1.525-0.698 0.184-1.274 0.374-1.833 0.597l0.106-0.037c-1.3 0.605-2.488 1.009-3.632 1.637-0.964 0.538-9.125 4.17-15.761 12.286-8.945 11.098-12.197 25.626-11.636 39.616 0.538 13.587 4.529 21.097 5.269 22.936 3.094 6.636-4.148 8.004-10.739 0.874l-0.023-0.023c-5.269-5.582-8.654-14.102-10.313-21.657-6.681-31.276 7.264-62.708 39.481-75.263 1.793-0.718 3.901-1.144 5.605-1.637h-0.023c3.296-0.986 15.066-3.363 27.061-1.502 13.16 2.040 24.752 8.631 32.127 17.196l0.023 0.023c5.673 6.434 9.932 15.515 9.17 23.608v0.023c-0.291 3.363-1.771 8.184-4.798 9.439-1.121 0.471-2.264 0.224-3.049-0.56-2.197-2.153-0.493-6.569-5.829-14.124-7.107-10.021-23.115-19.64-45.288-14.954zM262.829 674.565c4.215 24.259-13.452 45.961-34.796 46.409-14.954 0.337-23.115-9.012-21.657-11.053 0.672-0.964 2.96-0.538 6.457-0.023 19.056 2.96 30.625-8.654 33.405-20.828 0.045-0.202 0.785-3.453 0.762-5.694 0.157-1.973-0.067-3.946-0.358-5.74-2.242-12.6-16.703-14.976-26.007-24.998-8.34-9.058-6.703-20.671-1.457-26.254 6.3-6.21 15.313-3.946 15.201-1.749 0 1.165-2.174 2.040-4.865 3.901-3.497 2.466-3.969 4.843-3.071 8.923 0.583 2.242 1.592 3.699 3.767 5.426 7.802 6.187 28.809 10.537 32.62 31.679zM740.077 491.912c5.784 0.897 9.461 8.049 8.228 15.985s-6.928 13.631-12.712 12.712c-5.784-0.897-9.461-8.049-8.228-15.985 1.256-7.914 6.928-13.609 12.712-12.712zM676.562 515.027c3.183-5.807 12.197-6.973 20.155-2.601 7.959 4.35 11.815 12.6 8.654 18.384-3.183 5.807-12.197 6.973-20.155 2.601-7.959-4.35-11.837-12.578-8.654-18.384z"></path>
</svg>
