<!-- Generated by IcoMoon.io -->
<svg version="1.1" xmlns="http://www.w3.org/2000/svg" width="975" height="1024" viewBox="0 0 975 1024">
<title>jira</title>
<g id="icomoon-ignore">
</g>
<path d="M467.954 1009.665c-29.589-6.489-64.698-17.462-78.019-24.385-48.167-25.031-116.082-82.097-147.317-123.786-22.099-29.494-42.906-45.539-67.719-52.221-73.592-19.816-116.384-78.675-116.384-160.083 0-31.629-4.491-46.879-14.992-50.909-18.691-7.172-43.522-64.977-43.522-101.314 0-108.118 82.955-258.299 208.603-377.652 80.154-76.138 104.536-91.263 174.809-108.438 39.225-9.587 55.33-8.836 97.832 4.561 46.979 14.809 55.583 14.832 112.309 0.299 75.838-19.429 106.4-19.745 149.948-1.549 61.1 25.529 71.628 103.010 26.118 192.216l-19.807 38.825 29.205 45.613c17.793 27.79 31.859 65.754 35.996 97.156 6.428 48.789 9.538 53.367 58.22 85.68 67.707 44.942 76.037 56.211 69.705 94.307-3.601 21.668 1.381 44.811 15.655 72.714 18.324 35.82 19.452 45.038 9.039 73.835-6.544 18.098-11.899 40.449-11.899 49.668 0 22.671-32.376 84.625-63.639 121.779-17.385 20.661-23.572 36.648-19.341 49.977 9.106 28.69-2.017 41.449-25.28 28.999-15.162-8.115-26.763-5.723-54.056 11.146-70.273 43.431-213.231 58.172-325.463 33.56zM797.147 861.835c41.767-25.703 117.025-116.705 105.798-127.931-2.445-2.445-19.834 7.293-38.643 21.639-39.374 30.032-109.675 58.374-169.243 68.231-76.54 12.665-139.174-24.801-139.174-83.251 0-39.449 31.481-60.436 103.695-69.13 68.61-8.26 146.462-40.18 193.465-79.323 25.598-21.317 27.377-26.046 15.281-40.62-7.529-9.072-31.119-25.387-52.422-36.254-34.903-17.806-39.596-18.218-47.461-4.163-4.801 8.578-16.41 15.596-25.798 15.596s-22.041 4.971-28.117 11.047c-14.265 14.265-41.616 3.8-41.616-15.924 0-8.382 6.583-17.297 14.629-19.811 49.912-15.593 48.584-14.072 26.065-29.844-24.599-17.23-27.525-45.099-6.56-62.497 11.671-9.686 17.586-9.686 29.257 0 12.197 10.123 14.629 8.806 14.629-7.923 0-33.632-18.116-70.096-34.825-70.096-8.691 0-28.961 9.369-45.043 20.821-20.791 14.804-47.997 21.915-94.153 24.608-81.873 4.777-106.586 25.655-115.060 97.201-5.378 45.407-3.427 51.812 25.985 85.311l31.8 36.218-26.411 52.201c-23.78 47-25.338 56.188-15.634 92.225 5.928 22.013 14.997 40.025 20.154 40.025s9.376 5.876 9.376 13.057c0 17.627 58.095 84.622 82.664 95.328 10.855 4.73 51.504 7.078 90.331 5.217 57.365-2.749 79.296-8.738 117.029-31.958zM546.133 531.505c0-8.127-8.669-14.629-19.505-14.629-21.817 0-26.024-21.459-7.26-37.031 44.702-37.1 113.717-9.64 101.192 40.262-5.513 21.965-11.83 26.026-40.48 26.026-23.674 0-33.948-4.427-33.948-14.629zM224.305 741.181c0-5.364-4.389-9.752-9.752-9.752-14.065 0-12.026-26.808 2.438-32.046 9.752-3.532 9.752-8.544 0-25.061-6.705-11.356-12.19-27.655-12.19-36.22 0-29.252-24.373-7.655-27.512 24.379-2.742 27.985-6.070 31.387-26.819 27.42-30.182-5.77-30.097 6.749 0.249 37.096 23.575 23.575 73.586 33.216 73.586 14.185zM845.162 716.389c38.776-22.724 53.134-48.899 36.144-65.889-3.388-3.388-26.428 5.439-51.2 19.615s-45.963 26.283-47.091 26.904c-4.29 2.36 9.457 44.162 14.522 44.162 2.926 0 24.357-11.156 47.624-24.792zM282.819 653.41c-6.233-11.646-13.527-18.981-16.209-16.299s0.224 14.405 6.456 26.051c6.233 11.646 13.527 18.981 16.209 16.299s-0.224-14.405-6.456-26.051zM157.239 451.219c53.106-106.053 134.030-209.979 202.827-260.481l49.222-36.133-26.663-33.417c-14.665-18.379-29.101-33.417-32.080-33.417s-34.008 23.583-68.953 52.408c-76.18 62.837-145.698 152.251-190.298 244.764-44.129 91.534-44.055 165.575 0.158 159.267 15.255-2.177 32.565-26.645 65.788-92.992zM428.959 77.746c-5.822-10.878-14.966-17.070-20.321-13.76-6.28 3.881-5.682 10.903 1.683 19.778 17.269 20.808 30.678 16.479 18.638-6.018z"></path>
<path d="M487.355 1010.164c-79.537-17.467-149.349-59.877-217.519-132.14-41.526-44.020-75.065-69.757-106.594-81.798-25.302-9.663-54.762-28.704-65.467-42.312-24.149-30.701-40.469-87.419-33.334-115.849 3.833-15.273-3.099-30.076-24.189-51.651-38.537-39.423-46.015-82.982-27.065-157.654 31.992-126.062 169.12-302.955 297.847-384.216 55.132-34.804 130.809-43.545 179.001-20.676 31.986 15.178 38.449 15.285 79.591 1.317 100.051-33.968 174.377-27.918 205.657 16.741 21.060 30.067 17.689 90.992-8.567 154.826l-22.763 55.343 27.645 42.499c16.161 24.844 30.786 64.319 35.204 95.023 7.236 50.282 10.055 54.279 66.053 93.653 56.252 39.553 58.501 42.767 58.656 83.864 0.109 29.010 7.509 53.054 23.040 74.865 21.407 30.063 22.082 35.072 10.485 77.846-17.279 63.734-50.226 127.099-92.536 177.966-86.985 104.577-230.249 146.369-385.148 112.352zM775.314 882.323c54.959-26.531 115.973-90.824 136.029-143.339 16.564-43.373 16.502-45.196-2.194-63.892-10.585-10.584-20.936-24.318-23.003-30.519-2.417-7.252-28.082 1.155-71.924 23.56-39.767 20.323-95.59 39.333-133.994 45.631-75.095 12.315-91.923 33.365-19.505 24.399 25.478-3.154 61.684-8.469 80.457-11.811 32.085-5.711 33.008-5.163 15.372 9.129-10.319 8.362-34.456 17.743-53.638 20.846-69.266 11.205-77.346 24.184-12.999 20.879 46.999-2.414 76.855-11.319 130.885-39.041 75.847-38.915 98.629-38.954 52.036-0.089-82.849 69.107-216.735 99.421-275.505 62.378-25.893-16.32-31.695-26.212-31.695-54.030 0-43.292 23.982-59.283 101.629-67.765 31.759-3.469 77.091-14.866 100.737-25.326 51.353-22.716 119.462-74.844 119.462-91.431 0-6.517-17.837-22.605-39.637-35.752-75.849-45.741-79.615-50.688-88.596-116.358-12.599-92.122-32.453-106.816-89.472-66.215-22.366 15.926-48.163 22.745-96.348 25.468-84.551 4.778-110.182 26.885-117.798 101.605-5.316 52.15 2.105 73.448 38.147 109.49 16.485 16.485 16.301 18.872-4.204 54.5-26.995 46.904-27.338 100.521-0.963 150.569 23.843 45.244 73.438 100.44 101.424 112.877 32.043 14.24 142.631 4.831 185.295-15.765zM565.638 521.752c0-9.102-9.211-14.629-24.381-14.629-29.037 0-31.864-14.814-5.517-28.914 40.403-21.623 85.758 0.939 74.322 36.971-7.608 23.972-44.424 29.418-44.424 6.571zM682.667 521.752c0-8.046 6.583-14.629 14.629-14.629s14.629 6.583 14.629 14.629c0 8.046-6.583 14.629-14.629 14.629s-14.629-6.583-14.629-14.629zM731.429 507.124c0-5.364 4.389-9.752 9.752-9.752s9.752 4.389 9.752 9.752c0 5.364-4.389 9.752-9.752 9.752s-9.752-4.389-9.752-9.752zM705.698 453.486c-6.898-17.976 2.152-43.886 15.329-43.886 13.29 0 32.196 37.168 24.906 48.963-8.986 14.54-33.914 11.394-40.234-5.078zM260.59 739.395c30.041-24.931 41.657-62.198 29.46-94.511-6.329-16.766-14.674-30.484-18.545-30.484-15.586 0-19.167 22.26-7.942 49.359 9.39 22.669 9.336 31.74-0.255 43.297-21.041 25.353-39.178 17.936-32.9-13.455 3.193-15.964 0.984-30.936-5.12-34.709-5.904-3.649-10.735-15.153-10.735-25.564s-5.705-18.929-12.678-18.929c-19.752 0-36.084 21.114-36.084 46.649 0 14.26-4.711 21.673-12.19 19.18-6.705-2.235-12.19-18.584-12.19-36.332 0-46.552 41.821-77.243 83.71-61.432 22.717 8.575 28.757 8.486 25.814-0.379-2.113-6.365-14.82-15.454-28.239-20.198-35.252-12.463-77.701 11.043-99.128 54.891-15.154 31.011-16.104 41.779-6.309 71.46 20.388 61.776 97.411 89.266 143.331 51.156zM118.775 538.819c7.987-9.387 29.897-50.032 48.688-90.322 53.428-114.554 158.975-237.585 231.16-269.454l32.909-14.529-25.594-26.715c-23.604-24.637-33.645-50.028-19.785-50.028 3.195 0 17.469 6.887 31.719 15.305 32.602 19.258 82.885 4.6 77.641-22.633-5.537-28.753-87.483-26.404-147.958 4.241-126.348 64.025-298.792 299.969-298.792 408.817 0 55.755 39.421 81.27 70.013 45.317zM551.010 218.832l68.267-24.064-48.374 5.921c-26.606 3.257-59.015 14.291-72.020 24.521s-21.957 18.394-19.892 18.143c2.064-0.251 34.473-11.285 72.020-24.521z"></path>
<path d="M497.371 1010.439c-97.199-21.611-197.324-86.423-250.727-162.296-18.407-26.152-38.642-41.84-62.514-48.467-72.091-20.013-115.864-77.431-115.864-151.98 0-25.608-8.171-44.903-29.116-68.759-16.014-18.239-31.965-44.513-35.448-58.388-15.75-62.752 54.327-216.201 149.174-326.651 131.333-152.938 267.692-219.477 337.404-164.642 26.108 20.537 51.188 25.19 59.889 11.112 9.661-15.632 124.568-42.198 156.559-36.196 17.233 3.233 41.649 16.859 54.258 30.28 29.63 31.54 29.996 100.192 0.856 160.505-25.895 53.596-25.84 54.957 3.922 97.904 13.905 20.064 29.23 61.856 35.281 96.212 9.904 56.225 13.695 62.597 50.999 85.723 74.404 46.126 85.947 61.304 78.799 103.613-5.513 32.633-2.698 41.538 20.925 66.196l27.295 28.49-21.866 60.771c-57.468 159.719-151.157 249.267-292.076 279.168-63.204 13.41-98.196 12.869-167.749-2.595zM775.417 886.394c58.099-27.31 110.411-82.046 138.63-145.055l23.951-53.48-20.39-13.538c-11.214-7.446-20.39-19.327-20.39-26.402 0-24.669-19.417-24.529-55.904 0.402-43.128 29.469-146.83 63.602-193.234 63.602-34.957 0-51.912 14.928-35.544 31.295 5.55 5.55 7.841 15.955 5.090 23.123-6.78 17.668 36.383 27.557 85.792 19.656 21.635-3.46 66.411-17.061 99.501-30.225l60.165-23.935-27.151 22.369c-38.869 32.023-110.905 55.345-170.778 55.289-41.79-0.037-56.211-4.616-75.581-23.986-50.705-50.705-23.185-84.927 81.743-101.653 39.351-6.273 89.819-20.551 112.152-31.73 46.577-23.314 103.996-74.667 103.996-93.010 0-6.846-25.234-29.105-56.076-49.465-59.097-39.011-59.786-40.491-79.404-170.414-0.579-3.834-10.356-11.95-21.727-18.036-17.105-9.154-25.945-7.138-51.2 11.675-22.721 16.926-48.775 24.261-101.911 28.69-93.246 7.773-119.842 31.063-126.449 110.73-3.925 47.335-1.25 58.467 21.088 87.754 30.766 40.337 30.763 40.288 5.445 88.857-34.629 66.431-17.776 124.556 62.46 215.423 48.163 54.545 146.951 63.79 235.725 22.062zM560.762 497.75c-23.326-5.634-25.913-8.533-12.76-14.3 21.774-9.547 49.14-3.75 54.212 11.483 4.403 13.223 2.243 13.37-41.452 2.816zM706.522 447.76c-3.604-5.831-2.051-15.104 3.451-20.605 12.304-12.304 31.208-1.913 31.208 17.155 0 16.419-25.099 18.918-34.659 3.451zM274.975 729.386c34.896-37.356 33.357-70.904-6.124-133.444-21.871-34.647-29.966-40.056-59.938-40.056-44.851 0-68.678 13.315-86.907 48.567-38.529 74.508 6.247 155.555 86.196 156.016 29.829 0.173 43.538-6.209 66.773-31.083zM238.091 689.981c-0.463-12.069-4.499-30.72-8.968-41.448-8.064-19.356-7.961-19.36 13.462-0.538 11.873 10.432 20.297 27.642 18.72 38.246-4.049 27.223-22.201 30.148-23.214 3.74zM140.803 659.962c-17.662-45.367 71.694-97.92 102.789-60.453 16.965 20.441 4.143 31.786-19.345 17.118-25.688-16.042-48.469-4.979-63.688 30.928-10.973 25.89-13.813 27.673-19.756 12.408zM106.835 556.122c9.78-5.234 37.681-50.217 62.002-99.962 56.061-114.663 136.276-212.503 206.901-252.361 29.351-16.565 55.751-33.978 58.667-38.696s-9.152-21.725-26.819-37.793c-23.422-21.302-27.691-29.291-15.762-29.5 8.997-0.157 24.989 10.686 35.537 24.095 23.817 30.278 24.687 30.249 65.316-2.169l33.274-26.55-20.867-22.212c-81.068-86.293-318.984 85.791-424.868 307.304-39.2 82.007-44.959 136.77-17.567 167.038 21.236 23.466 20.751 23.347 44.185 10.806zM513.958 238.927c16.135-8.049 57.403-20.44 91.708-27.534 51.484-10.648 58.373-14.22 39.466-20.462-47.855-15.798-177.018 23.366-177.018 53.674 0 12.663 12.079 11.167 45.844-5.678z"></path>
<path d="M501.843 1010.951c-87.777-22.315-143.371-55.998-220.487-133.588-41.033-41.285-86.473-78.042-100.978-81.683-43.893-11.016-71.070-34.391-93.245-80.198-14.202-29.337-19.202-53.080-15.294-72.619 4.716-23.579 0.143-34.93-24.35-60.442-57.434-59.824-58.064-100.972-3.32-216.706 83.477-176.479 276.275-355.962 382.369-355.962 18.007 0 45.228 9.327 60.78 20.824 29.948 22.142 30.985 22.048 121.622-10.957 68.048-24.779 112.927-20.315 147.959 14.716 27.803 27.803 30.74 85.468 7.441 146.083-26.328 68.495-26.241 78.656 1.033 119.87 15.597 23.568 28.98 61.144 33.413 93.81 4.067 29.972 9.227 56.050 11.467 57.952s29.306 19.405 60.148 38.896c59.614 37.674 59.843 38.082 56.573 100.732-1.676 32.113 2.013 42.883 17.535 51.19 36.136 19.34 33.975 44.518-12.054 140.421-72.142 150.31-171.48 223.336-319.996 235.237-35.188 2.82-82.46-0.418-110.614-7.575zM786.601 884.284c58.823-29.808 111.485-87.766 134.497-148.023l16.49-43.18-27.499-34.464c-31.914-39.997-35.2-40.726-70.442-15.632-38.914 27.709-94.632 47.847-171.61 62.022-63.839 11.756-68.101 14.128-65.713 36.563 5.351 50.269 7.106 51.149 92.703 46.469 80.272-4.388 80.279-4.387 36.4 9.045-83.548 25.575-156.038-0.938-156.038-57.072 0-33.749 17.011-43.258 90.239-50.44 30.858-3.026 79.332-16.136 107.721-29.133 56.963-26.079 123.869-79.967 123.869-99.769 0-6.985-20.846-25.952-46.324-42.151-71.63-45.54-76.894-52.692-84.135-114.302-6.73-57.259-26.412-92.142-51.989-92.142-7.499 0-29.78 10.971-49.514 24.381-27.154 18.451-48.492 24.381-87.738 24.381-89.408 0-119.711 27.977-132.836 122.636-4.673 33.701-1.048 45.808 23.848 79.661l29.358 39.92-21.052 40.39c-31.555 60.539-21.529 122.604 30.449 188.491 21.978 27.86 56.167 58.497 75.976 68.082 50.204 24.294 137.709 17.523 203.341-15.735zM711.924 442.921c0-17.222 20.995-14.223 27.022 3.86 2.123 6.37-3.088 11.581-11.581 11.581s-15.441-6.949-15.441-15.441zM275.505 730.335c30.686-32.576 33.771-64.203 10.953-112.288-36.357-76.617-99.953-90.297-152.363-32.774-49.666 54.51-31.484 142.332 35.385 170.916 40.052 17.12 73.146 9.050 106.025-25.854zM146.286 640.096c0-19.074 33.804-54.953 51.774-54.953 7.021 0 21.283 6.505 31.695 14.456 17.743 13.55 17.033 14.103-11.324 8.821-24.965-4.65-33.917-0.98-51.2 20.992-15.029 19.106-20.945 22.124-20.945 10.683zM119.681 548.571c8.485-9.387 35.212-56.598 59.393-104.915 40.984-81.891 140.697-209.6 163.654-209.6 5.23 0 6.277 5.231 2.326 11.624s31.428-22.133 78.619-63.39c47.192-41.258 89.662-75.014 94.38-75.014 15.88 0 8.747-21.113-13.366-39.56-31.684-26.432-95.126-24.204-153.529 5.391-135.067 68.444-312.147 308.104-312.147 422.46 0 57.246 48.205 88.919 80.671 53.004zM399.652 121.669c-18.845-22.707-5.399-26.986 14.77-4.7 9.738 10.761 13.174 19.565 7.636 19.565s-15.621-6.689-22.406-14.864zM538.575 234.91c30.708-11.197 73.496-20.357 95.086-20.357s39.253-4.305 39.253-9.567c0-15.71-45.547-22.34-103.629-15.083-44.019 5.5-61.351 13.385-90.033 40.959-39.434 37.912-34.48 38.25 59.323 4.048z"></path>
<path d="M536.381 1017.23c-99.255-16.748-233.196-98.953-288.917-177.321-18.214-25.617-38.284-41.61-57.292-45.655-68.268-14.527-112.056-69.374-112.116-140.433-0.031-37.052-5.439-49.008-36.608-80.932-31.137-31.891-36.417-43.546-35.532-78.43 1.158-45.641 44.184-147.588 91.014-215.653 126.658-184.092 319.726-316.428 371.184-254.425 10.394 12.524 7.283 14.629-21.629 14.629-112.897 0-313.885 188.415-384.916 360.838-30.101 73.069-29.601 126.519 1.459 155.697 23.13 21.729 24.957 21.949 49.378 5.948 13.948-9.139 34.010-37.179 44.582-62.312 36.562-86.915 62.635-129.979 109.21-180.38 25.723-27.836 41.824-40.36 35.781-27.832-20.48 42.457-2.634 31.541 54.125-33.109 31.112-35.438 87.293-88.947 124.847-118.91 65.512-52.271 67.327-54.834 44.788-63.254-21.517-8.038-17.754-11.273 44.776-38.492 37.547-16.344 87.276-30.304 110.509-31.022 36.21-1.118 46.307 3.244 70.705 30.544 35.54 39.769 36.328 71.944 3.754 153.366l-24.708 61.761 29.008 45.74c18.085 28.518 31.487 65.585 35.593 98.445 6.386 51.112 8.392 53.967 66.405 94.499 58.837 41.107 59.82 42.547 59.82 87.603 0 37.441 4.899 50.353 26.819 70.687 14.751 13.683 26.819 28.603 26.819 33.157 0 19.248-82.86 173.97-112.507 210.081-72.1 87.82-217.405 143.549-326.35 125.167zM775.314 893.725c55.623-26.017 123.744-95.222 145.88-148.201 18.716-44.794 18.896-61.89 0.859-81.544-55.316-60.275-53.311-56.106-37.699-78.396 20.207-28.849 13.069-40.698-49.561-82.269-55.465-36.815-59.232-43.539-67.75-120.917-2.533-23.007-9.925-48.241-16.428-56.076-17.037-20.529-54.545-17.53-87.744 7.015-20.731 15.327-45.384 21.992-88.325 23.881-69.898 3.074-102.52 21.129-121.876 67.456-22.041 52.751-17.12 101.748 14.401 143.377l27.672 36.547-23.591 46.349c-17.729 34.832-22.046 54.83-17.372 80.482 10.803 59.293 62.616 133.44 116.734 167.051 43.442 26.981 141.835 24.697 204.8-4.755zM581.456 762.389c-4.315-12.473-5.251-25.273-2.080-28.444 10.109-10.109 17.215 4.797 13.51 28.342l-3.585 22.78zM711.924 438.857c0-5.364 4.389-9.752 9.752-9.752s9.752 4.389 9.752 9.752c0 5.364-4.389 9.752-9.752 9.752s-9.752-4.389-9.752-9.752zM253.881 755.644c15.734-8.136 35.738-28.581 44.452-45.433 13.445-25.999 14.008-36.202 3.72-67.374-17.238-52.231-60.614-96.712-94.265-96.668-105.149 0.14-147.721 150.809-58.059 205.482 37.047 22.59 66.040 23.701 104.152 3.993zM564.97 229.986c29.134-8.488 70.265-15.433 91.404-15.433 31.777 0 36.477-2.357 27.14-13.608-17.73-21.364-76.248-27.875-129.006-14.353-33.571 8.604-62.674 25.959-96.489 57.539-26.63 24.871-48.419 48.176-48.419 51.79s23.040-6.27 51.2-21.965c28.16-15.695 75.037-35.481 104.17-43.969z"></path>
<path d="M538.819 1017.296c-17.432-2.356-31.695-8.394-31.695-13.418s-7.68-9.177-17.067-9.23c-27.826-0.155-120.412-47.092-165.058-83.676-22.832-18.71-55.573-53.595-72.757-77.523s-38.18-43.815-46.657-44.193c-8.477-0.378 1.85-7.010 22.949-14.738 49.073-17.974 70.494-37.686 83.378-76.725 11.758-35.628-2.371-78.831-40.82-124.822-44.752-53.529-129.104-37.454-165.427 31.525-10.030 19.047-17.894 26.69-17.894 17.392 0-17.154-63.409-87.113-71.565-78.957-2.529 2.529-7.541-8.802-11.139-25.18-7.999-36.42 50.481-166.832 115.961-258.594 57.154-80.094 176.283-191.422 230.067-215.001 24.132-10.58 46.546-23 49.81-27.6s18.624-6.723 34.133-4.717l28.199 3.647-24.381 11.087c-13.41 6.098-35.441 13.416-48.96 16.262-37.302 7.853-115.057 62.784-178.286 125.951-100.413 100.316-182.355 249.285-182.355 331.518 0 37.046 32.903 75.086 64.946 75.086 26.947 0 44.8-22.403 79.82-100.165 37.543-83.364 68.245-126.819 85.044-120.372 16.095 6.176 34.38-9.992 106.336-94.020 31.024-36.229 97.546-97.201 147.826-135.493s91.419-75.576 91.419-82.852c0-7.277 6.842-13.23 15.204-13.23s12.822-3.854 9.911-8.565c-6.836-11.060 48.441-22.184 75.94-15.282 29.955 7.518 64.753 62.681 64.64 102.47-0.051 18.441-11.188 57.361-24.746 86.487l-24.651 52.957 29.623 47.653c16.292 26.209 29.616 55.041 29.607 64.071-0.007 9.030-7.688 1.059-17.067-17.715-21.286-42.609-52.602-48.84-93.499-18.604-22.063 16.312-48.863 23.661-102.186 28.023-64.668 5.289-75.081 9.047-98.878 35.681-19.004 21.269-28.421 44.837-32.982 82.544-5.812 48.052-3.783 56.489 22.666 94.267l29.049 41.492-19.298 31.651c-39.009 63.98-18.414 154.65 52.31 230.3 39.213 41.943 81.245 59.79 140.821 59.79 80.228 0 136.612-25.767 204.412-93.416 33.524-33.449 60.952-57.334 60.952-53.078s-17.585 34.072-39.079 66.259c-43.889 65.724-82.409 98.561-152.196 129.743-26.212 11.712-54.693 24.747-63.292 28.966-21.753 10.675-95.104 17.479-133.090 12.345zM430.454 302.972c76.46-51.058 153.125-78.667 218.445-78.667 41.236 0 53.272-3.36 53.272-14.87 0-28.972-73.381-41.696-158.934-27.558-27.993 4.626-54.767 22.684-109.714 73.999-65.406 61.082-84.403 85.458-66.6 85.458 3.347 0 31.936-17.263 63.531-38.362zM115.785 743.619c-12.131-15.468-11.786-15.813 3.682-3.682 9.387 7.362 17.067 15.042 17.067 17.067 0 8.027-8.009 2.86-20.749-13.385zM945.981 692.113c0-10.896-6.604-22.345-14.675-25.442-23.013-8.831-49.031-70.485-35.469-84.048 22.506-22.506 9.689-43.055-52.257-83.782-62.018-40.774-63.361-42.561-62.007-82.526l1.384-40.849 5.93 38.267c5.131 33.106 13.822 43.8 64.445 79.288 57.484 40.298 58.514 41.833 58.514 87.133 0 40.173 4.118 49.551 31.966 72.81 21.681 18.107 29.974 31.887 25.776 42.828-8.635 22.502-23.608 20.168-23.608-3.68z"></path>
<path d="M546.133 1014.248c-20.627-6.606-21.378-8.044-4.876-9.343 10.728-0.844-9.021-8.99-43.886-18.103s-83.577-28.408-108.25-42.876c-41.364-24.257-155.554-136.536-154.689-152.1 0.207-3.717 14.469-15.536 31.695-26.263s39.362-35.964 49.191-56.080c17.045-34.884 17.097-38.604 1.113-80.457-9.217-24.135-20.255-43.882-24.529-43.882s-10.47-8.506-13.77-18.902c-7.195-22.67-64.668-43.677-94.014-34.363-19.039 6.043-20.351 4.073-14.145-21.237 13.028-53.13 59.753-124.164 86.353-131.278 13.934-3.727 39.85-23.682 57.591-44.345 112.167-130.639 206.132-214.019 288.29-255.814 22.796-11.597 41.448-27.213 41.448-34.703s5.486-15.831 12.19-18.537c6.76-2.728 3.501-5.635-7.314-6.527-15.319-1.263-13.777-3.333 7.183-9.644 32.802-9.877 74.304-1.578 54.594 10.916-9.74 6.174-9.947 8.288-0.824 8.399 24.242 0.297 51.2 38.784 51.2 73.095 0 31.919-25.82 112.35-36.067 112.35-2.581 0-12.084-9.129-21.119-20.286s-31.681-23.494-50.325-27.416c-45.019-9.469-150.264 10.679-177.492 33.978-68.174 58.335-144.101 142.523-144.101 159.778 0 10.855 3.313 19.736 7.362 19.736s38.899-23.725 77.445-52.723c85.457-64.288 159.377-93.563 236.25-93.563 45.501 0 58.226 3.446 63.031 17.067 3.311 9.387 8.577 22.552 11.703 29.257 3.424 7.346-1.423 12.311-12.197 12.495-9.834 0.167-35.434 11.116-56.889 24.331-28.535 17.575-52.887 24.040-90.694 24.077-92.66 0.090-129.705 34.937-142.34 133.897-5.741 44.965-3.44 55.584 19.585 90.376l26.090 39.425-17.421 38.632c-20.593 45.667-15.49 137.964 9.132 165.171 8.376 9.255 15.229 20.118 15.229 24.139 0 16.368 80.427 83.083 113.199 93.899 57.158 18.864 140.969 7.627 210.474-28.22l61.208-31.567-29.088 30.591c-39.788 41.844-104.723 78.598-164.485 93.101-27.444 6.66-41.121 13.002-30.393 14.093 14.038 1.427 11.305 4.070-9.752 9.428-37.643 9.579-52.986 9.579-82.895 0zM955.883 685.105c0.108-19.518 2.518-23.078 8.85-13.075 4.785 7.559 6.443 19.628 3.683 26.819-7.914 20.623-12.696 15.379-12.534-13.744zM6.679 515.928c-2.942-11.249-1.537-29.901 3.121-41.448 6.824-16.915 8.589-12.942 9.087 20.453 0.674 45.2-3.845 52.973-12.208 20.995z"></path>
</svg>
