<!-- Generated by IcoMoon.io -->
<svg version="1.1" xmlns="http://www.w3.org/2000/svg" width="1024" height="1024" viewBox="0 0 1024 1024">
<title></title>
<g id="icomoon-ignore">
</g>
<path d="M243.594 619.101c41.981-51.613 102.495-95.831 171.821-111.782l93.496-21.64c71.039-18.461 119.637-45.868 148.869-80.996 30.475-47.669 61.845-92.659 93.339-137.282 14.819-22.422 32.178-42.396 55.782-56.353 21.633-16.115 48.033-23.61 76.796-26.438l36.385-3.867c20.871-4.488 39.453-8.773 54.389-15.067 19.851-4.38 29.139 1.767 31.719 14.605 2.34 31.273-7.801 58.165-32.154 80.072l-39.828 32.665c-24.236 19.051-41.61 43.85-50.089 76.098-14.899 74.221-32.652 147.007-55.357 217.303l-3.885 47.99c2.605 35.676 15.319 58.168 35.835 70.487-49.482 32.523-92.355 26.713-128.619-17.43-25.148 13.829-43.938 36.15-59.866 62.29-41.627 51.621-87.071 65.093-154.041 57.038 22.685-29.817 45.915-61.298 58.911-94.856l-137.51-18.165-76.192-1.901c-38.312-0.75-78.557 14.601-120.647 45.315-45.157 36.271-97.946 54.41-159.897 50.779-9.728-1.296-19.189-3.818-28.244-8.199-10.81-3.952-12.981-10.639-4.97-20.548 11.93-8.137 22.685-16.334 31.836-24.612-20.478 5.135-37.529 2.411-48.194-14.958 14.827-19.215 40.737-28.507 74.313-30.934l42.585-2.606c60.491-2.407 95.85-64.308 93.417-67.008zM931.777 263.575c0.583 4.439 1.712 4.525 3.6-1.45 0.252-10.315 2.82-19.924 7.599-28.86l12.78-21.998c1.229-2.74 0.423-3.474-1.583-3.025-4.801 7.45-9.461 15.269-13.831 23.855-5.179 9.535-8.315 19.912-8.565 31.478zM943.833 263.209c1.618 2.986 2.842 3.339 3.397-0.768-0.501-10.256 1.625-20.418 6.175-29.092 1.289-5.765 3.73-11.17 6.958-16.329 0.954-2.83 0.208-3.777-1.76-3.372-4.071 4.625-7.045 10.72-9.52 17.483-3.85 9.993-6.227 20.933-5.25 32.078zM918.061 260.035c0.373 5.054 1.327 5.932 3.267-0.267 1.565-11.365 6.427-21.638 14.454-30.861l16.195-21.795c0.968-3.152 0.501-4.408-2.692-2.059l-16.045 21.052c-9.009 10.961-13.808 22.761-15.179 33.93zM904.868 258.645c4.044-12.003 10.19-22.919 18.218-32.862 7.087-10.591 14.758-20.377 23.879-27.72 1.289-0.327 2.038 0.224 1.719 2.512l-21.342 25.892c-9.342 10.126-14.986 21.179-18.391 32.795-2.909 3.914-4.176 3.459-4.083-0.617zM839.675 250.258l8.757 3.206c20.128 5.818 33.115-0.268 37.33-20.976l0.262-8.417c-25.093-1.294-41.271 6.678-46.349 26.187z"></path>
</svg>
