<!-- Generated by IcoMoon.io -->
<svg version="1.1" xmlns="http://www.w3.org/2000/svg" width="1278" height="1024" viewBox="0 0 1278 1024">
<title></title>
<g id="icomoon-ignore">
</g>
<path d="M169.303 230.376c5.957 101.207 25.958 189.766 67.863 258.618-8.72 69.997-10.6 135.885-2.29 195.723 12.291 82.056 57.138 160.542 103.004 198.654 23.595-119.004 4.107-264.049 1.313-393.054 27.523 22.87 54.176 29.257 80.323 26.484-8.772-37.388-28.9-64.103-60.973-79.598-9.014-26.179 3.256-41.286 30.087-48.808 34.993 7.459 70.427 23.857 106.575 56.35 43.712 18.783 82.645 17.586 117.711 0.463 7.028-26.011 20.17-42.987 36.422-55.404 25.454 18.899 39.51 36.789 43.944 53.808 36.044 13.383 69.293 12.701 100.241 0.315 38.176-28.228 79.419-48.891 122.806-64.418 42.189 7.459 59.838 27.46 60.731 56.056-38.060 6.503-69.733 30.707-95.787 70.48 30.465 8.929 59.943 5.904 88.391-9.108-9.444 126.977-9.14 254.72-2.994 382.937 57.201-33.585 82.887-98.371 103.014-168.63 6.062-86.133 6.85-169.355 3.057-250.098 20.097-9.676 35.392-40.582 41.233-113.53l13.227-98.308c4.328-16.189 13.142-26.127 27.398-28.532 11.546 1.754 18.343 8.982 20.391 21.725l4.623 83.264c-1.019 32.010 7.039 52.663 30.455 54.080 19.33-7.995 26.6-25.223 25.17-49.070 12.721-39.91 15.852-77.801 6.545-113.173 0.347-18.532-16.735-37.031-95.839-55.384-43.659-10.547-86.574-13.468-128.416-5.189l-34.783-4.402c-69.293-50.741-129.319-80.911-181.804-94.347-37.619-7.175-72.654-7.638-104.748-0.378-19.246 9.455-39.731 16.252-61.592 20.107-14.812-4.948-29.604-11.387-44.374-20.653-35.813-4.643-69.997-4.265-102.521 1.188-59.060 19.865-113.719 50.625-162.684 95.44l-30.707 28.963-31.59-34.026c-20.296-9.266-42.504-10.589-66.446-4.686-12.701 5.368-26.084 16.43-40.32 34.142l-45.687 8.068c-16.725 6.755-26.411 17.512-31.263 30.959-19.392 32.345-19.928 77.781-16.325 126.073-1.975 24.498 8.72 36.411 29.184 38.586 17.208 0.798 23.857-15.842 21.567-47.305l6.009-97.782 26.263-15.296 23.595 8.74z"></path>
<path d="M1254.357 218.042c8.835 37.556 4.454 77.318-6.965 114.255 1.009 23.353-9.108 48.114-31.61 58.22 0 0-22.292 2.647-35.088-12.092-12.102-13.972-13.594-33.89-13.247-51.518l-4.527-83.096c-1.628-9.318-8.657-12.144-14.498-7.879-5.053 3.687-7.711 9.917-9.339 15.758l-13.079 97.173c-0.252 3.299-0.556 6.566-0.861 9.832-0.315 3.236-0.662 6.45-1.019 9.676-4.454 37.22-10.222 77.959-38.754 99.222 0 0 2.816 81.395 1.040 148.218-0.84 32.093-2.458 64.166-4.643 96.197 0 0-8.856 32.566-18.479 57.842-17.88 47.021-44.867 92.12-87.613 118.677 0 0-3.372 2.637-7.049 3.236-6.629 1.082-12.585-1.135-14.025-11.377-5.642-120.748-6.304-240.643 1.334-360.445 0 0 8.236-5.883-8.687-1.145-22.166 5.883-45.698 5.368-67.833-0.725 0 0-17.933-4.738-4.391-24.446 21.871-31.232 51.78-57.442 88.38-67.475 0 0-1.334-7.238-5.368-12.932-9.193-12.869-25.538-18.069-40.214-21.136l-0.473-0.105c-41.465 15.001-80.964 35.571-116.671 61.665 0 0-21.871 8.919-40.088 10.967-22.88 2.574-46.118-0.798-67.916-8.425-12.175-4.233-14.372-21.136-24.099-32.702-6.986-8.289-18.909-18.174-18.909-18.174-11.734 10.967-19.855 25.392-24.425 40.823 0 0-2.816 8.184-12.386 12.407-37.556 16.566-81.5 14.13-120.275-1.797 0 0-29.876-25.118-56.644-38.827-14.823-7.595-30.528-13.257-46.759-17.039 0 0-26.19 4.769-20.538 27.86 31.484 16.556 53.282 48.093 62.181 83.39 0 0 3.929 16.682-19.614 17.291-20.527 0.536-40.896-5.063-58.861-15.19l-0.41-0.231c4.223 123.773 20.905 249.237-1.671 368.807 0 0-1.324 8.72-7.353 11.503-10.789 4.99-19.729-7.217-28.721-16.451-62.863-64.586-92.636-157.862-96.249-247.535-1.849-45.446 1.092-90.922 6.367-136.242 0 0 1.135-0.42-7.28-15.894-38.365-72.539-53.451-155.194-59.249-237.565l-10.967-5.672-15.726 9.16-5.557 90.555c0.168 2.237 0.284 4.507 0.357 6.744 0.053 2.396 0.073 4.769 0.042 7.165-0.284 13.373-2.416 28.543-12.827 38.050-21.967 20.065-64.901-2.647-62.601-42.872 0 0-0.483-7.826-0.798-13.174-0.242-4.56-0.242-4.527-0.463-9.087-1.397-37.944 0.168-77.665 18.794-109.401 6.503-17.334 21.262-33.238 40.109-37.672l41.286-7.29c14.634-17.324 31.484-33.364 56.056-37.199 22.765-3.541 49.060-5.368 66.089 10.652l23.29 25.087 21.914-20.653c47.578-43.282 103.613-76.090 164.218-97.090 0 0 61.413-8.677 107.332-3.12 6.85 0.83 26.683 13.363 47.19 20.633 2.217-0.42 4.402-0.893 6.608-1.366 16.861-3.835 33.228-9.591 48.765-17.165 0 0 61.907-9.266 105.063-1.923 6.692 1.135 41.223 10.663 69.492 23.301 43.030 19.214 83.033 44.553 121.146 72.076l30.508 4.328c59.344-11.483 122.743-1.366 181.331 19.855 27.093 9.812 54.080 24.099 55.436 51.959 0 0.199-0.536-2.647 0.493 1.502zM149.921 210.279l25.696 9.759c6.797 5.106 6.082 14.875 6.692 23.605 6.271 83.38 22.261 167.558 65.248 239.11 0 0-1.040 28.354-3.015 52.547-9.444 115.4 5.589 238.584 85.061 323.635l0.231 0.242c18.363-119.308 0.42-245.644-2.574-362.493-0.126-4.832-0.463-10.715 2.994-14.498 12.88-14.193 37.272 20.6 72.78 22.954 0 0-16.146-40.529-49.795-57.085 0 0-18.952-29.751-0.84-52.074 10.043-12.386 32.924-19.214 32.924-19.214 8.352-1.681 8.677 0.378 12.806 1.387 38.606 9.633 74.094 29.846 103.676 56.234 32.146 13.594 69.124 16 101.092 2.154 0.652-2.028 1.324-3.992 2.038-5.967 7.658-20.485 19.813-41.727 38.933-51.549 7.826-3.992 15.831 3.015 24.456 10.338 14.088 11.934 27.103 26.064 34.142 43.355 0 0 25.938 9.097 45.687 8.561 16.514-0.463 39.552-8.058 39.552-8.058 6.46-4.738 6.492-4.738 13.541-9.56 33.291-22.292 69.607-40.393 106.912-54.060 28.417-10.421 77.896 18.92 80.901 62.475 1.072 15.369-24.214 17.334-40.287 25.507-18.406 9.339-33.722 23.794-46.581 40.078l-0.347 0.42c21.358 2.763 43.166-1.923 62.296-11.871 0 0 17.291-3.541 17.649 11.619-8.74 119.56-8.898 238.469-4.044 357.493l0.105 2.185c43.46-34.751 63.441-91.521 79.935-148.407 5.295-77.235 6.545-154.794 3.614-232.323l-0.546-17.417c2.511-10.096 15.127-13.667 21.084-23.942 14.981-25.769 17.47-57.873 20.065-89.116l13.257-98.613c3.75-18.247 17.354-34.572 35.624-38.523 0 0 16.451-0.473 26.358 10.054 5.725 6.125 8.929 14.339 9.875 22.586l4.643 83.758c-0.116 4.097-0.116 8.184 0.116 12.281 0.116 1.912 0.284 3.835 0.493 5.715 0.168 1.387 0.368 2.763 0.619 4.139 1.502 8.247 5.778 17.953 15.001 19.74 0 0 4.265-2.29 6.608-4.57 12.228-11.808 9.108-35.75 9.108-35.75 10.852-34.363 15.401-71.54 6.367-106.492 0 0-3.33-14.329-13.016-20.663-35.528-23.238-81.080-30.412-123.038-34.363-24.73-2.333-49.784-1.429-74.167 3.299l-3.835 0.126-34.783-4.402c-3.508-0.767-11.745-6.724-18.363-11.387-50.708-35.707-104.989-67.622-164.543-83.149-3.204-0.599-3.194-0.589-6.43-1.145-32.881-5.421-68.704-9.938-98.004 3.415-23.122 10.285-52.789 20.726-66.036 16.136-14.339-4.99-28.112-11.314-41.118-19.088l-0.619-0.368c-30.024-3.782-60.552-3.74-90.534 0.526 0 0-24.813 7.479-43.765 15.842-43.345 19.151-83.486 45.562-118.584 77.476l-30.634 28.879c-8.141 6.304-10.411 5.421-17.176-0.556l-29.856-32.167c-17.46-7.27-37.283-7.816-55.436-3.246-10.663 2.7-24.184 17.165-34.751 30.234 0 0-0.546 2.469-7.29 4.286l-44.374 7.837c-13.783 5.768-24.257 25.412-24.257 25.412-20.002 34.079-17.691 77.675-14.697 119.077 0 0-4.98 23.374 15.484 27.020 9.802 1.734 12.144-18.29 11.125-34.079l6.009-99.317c0 0 1.271-6.314 5.977-9.706l26.263-15.296c3.183-1.492 6.671-1.87 10.295-0.893z"></path>
<path d="M347.020 959.554l0.231-124.634c9.329-77.287 32.629-148.387 65.732-206.964 26.904-65.301 68.21-118.468 141.842-144.384l92.845-8.478 81.583 14.749c74.472 17.565 124.424 60.279 150.194 124.908 41.359 66.592 60.342 142.126 76.384 221.829l3.256 115.106c-60.93 27.619-132.156 18.079-205.188 2.059-20.948 5.536-37.368 16.272-50.036 31.369-31.054 11.546-61.655 11.377-91.795-1.072-13.426-11.304-31.316-19.865-54.48-25.223-24.498 15.695-172.979 24.697-210.546 0.735zM483.772 968.893c28.9-73.495 64.849-141.348 111.724-200.482l112.29 0.493c52.012 57.085 86.815 123.667 114.097 194.41 10.464-15.643 13.972-34.751 11.367-56.949-12.165-58.378-42.809-114.875-87.341-170.006-24.74-12.942-49.049-19.644-72.959-20.454l-1.125-102.090c2.363-8.856 6.618-9.339 12.396-2.931l3.866 13.373 62.002-2.091c-19.498-13.257-29.856-35.14-36.064-60.878-14.203-9.203-30.055-15.779-48.808-17.933l-28.774-1.145c-19.561 2.469-35.833 8.541-47.557 19.614-4.706 23.532-12.691 45.446-34.635 60.563l65.384 0.798 1.681-14.948c5.672-4.653 10.589-4.633 13.982 4.643l-0.252 100.42c-28.553 2.3-52.736 10.368-72.728 23.952-41.737 49.311-71.867 107.952-91.742 174.818-0.903 26.6 4.517 44.006 13.174 56.781z"></path>
<path d="M649.834 463.182l81.93 14.812c3.74 0.903 3.74 0.903 7.479 1.86 67.297 18.111 125.054 65.563 151.034 129.393 1.701 2.773 1.701 2.773 3.382 5.557 39.132 66.446 58.587 143.208 74.031 219.36l0.231 2.048 3.267 115.106c-0.357 9.465-4.139 10.232-13.237 14.025-61.655 25.044-132.513 15.852-199.747 1.691l-3.929-0.84c-15.957 4.686-30.349 14.045-41.243 26.778 0 0-35.528 15.484-68.168 11.934-15.821-1.734-37.368-9.676-37.368-9.676-4.738-2.217-4.653-3.173-6.629-4.653-14.686-10.904-38.155-20.243-45.015-17.586-58.766 21.609-129.551 21.599-191.458 6.156-6.020-1.492-11.976-3.362-17.586-5.967-5.894-2.763-11.44-6.629-11.871-13.657l0.305-126.116c9.077-73.221 30.286-144.542 65.616-208.592 0 0 18.783-46.958 47.904-82.067 26.358-31.779 61.413-55.814 100.251-69.965 0 0 1.334-0.767 4.738-1.281l94.473-8.531c0.546 0.063 1.082 0.126 1.628 0.189zM600.711 781.397c-40.949 53.23-73.022 112.899-98.844 175.017l-1.125 2.7c17.89-1.943 36.548-3.246 51.886-11.335 0 0 39.867 5.179 65.669 25.759 24.393 9.581 51.78 10.106 77.308 1.671 0 0 31.894-37.745 60.847-33.281 15.59 3.372 31.232 6.545 46.969 9.15l0.619 0.105c-25.213-61.539-57.548-120.59-101.68-170.175l-101.008-0.43c-0.231 0.284-0.463 0.556-0.662 0.84zM557.43 495.496c-61.635 21.956-107.627 75.511-133.29 137.136 0 0-14.445 26.242-24.257 49.301-20.464 47.998-33.47 99.075-40.172 150.886l-0.357 2.846-0.199 116.493c32.314 13.111 70.322 11.083 107.028 9.455-19.624-45.519 6.976-104.675 35.865-157.442 14.498-26.484 31.61-51.518 51.066-74.65 0 0 17.533-11.966 31.348-17.291 12.386-4.801 25.349-7.837 38.513-9.739 0 0-0.199-67.538-0.199-67.538-1.608 0.294-1.576 0.294-3.204 0.378l-65.374-0.798c-12.711-1.040-14.15-14.875-0.347-27.093 13.489-12.323 19.644-30.36 23.28-47.998 0 0 5.61-9.034 13.552-14.256 13.237-8.677 28.721-12.837 44.258-14.918l31.358 1.072c25.895 3.183 55.573 14.498 59.554 27.083 5.011 20.286 13.352 41.485 31.2 53.871 0 0 4.464 3.498 5.106 8.362 0.893 6.734-4.527 12.942-11.576 13.678l-62.002 2.091c-0.893-0.042-1.376 0.231-4.328-0.672l0.767 68.925c18.605 1.912 53.22 5.589 70.385 24.151 41.716 51.896 75.931 110.4 89.747 175.060 0 0 3.319 29.31-5.421 51.644l-0.073 0.179c36.001 3.068 72.896 1.324 106.449-11.661l-2.29-106.082c-15.159-74.839-34.016-150.803-74.608-216.859 0 0-21.967-51.906-58.756-80.775-24.277-19.067-53.419-31.316-83.622-38.639l-79.63-14.392c-29.909 2.721-59.795 5.463-89.704 8.194zM678.88 594.55c12.165 1.513 18.237 17.344 18.237 17.344l24.876-0.84c-8.898-12.512-14.372-26.977-18.436-41.822 0 0-17.87-10.821-38.113-13.615l-28.417-1.218c-12.721 1.691-25.706 5.368-36.127 13.174 0 0-4.759 23.615-17.89 43.030 0 0 25.842 0.41 25.842 0.41s0.546-9.349 7.28-13.919c11.45-7.753 30.266-1.923 31.306 15.884l-0.252 100.43c-0.493 7.165 0.662 10.789-16.116 12.512-21.305 2.426-42.21 8.74-60.216 20.296l-0.357 0.231c-40.456 48.146-68.83 105.609-87.361 166.088 0 0-0.652 14.077 0.903 23.857 26.358-61.476 58.809-120.054 99.747-172.644 0 0 3.025-6.88 11.755-7.416l112.29 0.493c6.734 0.483 11.797 7.122 16.272 12.238 40.866 47.336 72.244 102.352 96.921 159.953 0 0 1.281-16.514-1.397-28.007-13.909-57.117-44.679-108.666-81.090-154.469l-0.463-0.556c-20.464-10.242-42.736-17.019-65.616-17.943 0 0-10.789-1.701-11.619-11.966l-1.125-102.090c0.83-22.208 15.947-19.677 19.141-19.435z"></path>
</svg>
