<!-- Generated by IcoMoon.io -->
<svg version="1.1" xmlns="http://www.w3.org/2000/svg" width="1024" height="1024" viewBox="0 0 1024 1024">
<title></title>
<g id="icomoon-ignore">
</g>
<path d="M430.375 702.356l88.53 102.816 87.5-103.142c39.924 24.946 87.080 39.367 137.573 39.367 143.54 0 260.085-116.545 260.085-260.085s-116.545-260.085-260.085-260.085c-96.237 0-180.346 52.379-225.315 130.165-44.984-77.787-129.079-130.165-225.315-130.165-143.555 0-260.085 116.545-260.085 260.085s116.531 260.085 260.085 260.085c50.274 0 97.227-14.298 137.028-39.043zM293.345 290.958c105.055 0 190.343 85.303 190.343 190.356s-85.289 190.356-190.343 190.356c-105.068 0-190.356-85.303-190.356-190.356s85.289-190.356 190.356-190.356zM743.977 290.958c105.055 0 190.356 85.303 190.356 190.356s-85.303 190.356-190.356 190.356c-105.055 0-190.356-85.303-190.356-190.356s85.303-190.356 190.356-190.356z"></path>
<path d="M431.247 483.877c0 75.686-61.357 137.042-137.042 137.042s-137.042-61.357-137.042-137.042c0-75.686 61.357-137.042 137.042-137.042s137.042 61.357 137.042 137.042z"></path>
<path d="M885.805 481.388c0 75.686-61.357 137.042-137.042 137.042s-137.042-61.357-137.042-137.042c0-75.686 61.357-137.042 137.042-137.042s137.042 61.357 137.042 137.042z"></path>
</svg>
