<!-- Generated by IcoMoon.io -->
<svg version="1.1" xmlns="http://www.w3.org/2000/svg" width="1024" height="1024" viewBox="0 0 1024 1024">
<title></title>
<g id="icomoon-ignore">
</g>
<path d="M463.88 777.817c-35.961-43.281-44.677-47.225-72.016-32.597-17.107 9.153-68.638 16.644-114.52 16.644-69.14 0-93.804-7.3-144.092-42.646-121.221-85.194-159.254-229.893-95.213-362.189 65.501-135.307 248.206-189.867 379.047-113.19 35.617 20.871 73.481 50.412 84.153 65.643 18.93 27.025 19.802 27.039 36.296 0.627 9.295-14.885 46.523-44.421 82.727-65.643 131.937-77.322 314.343-23.307 380.115 112.563 64.046 132.296 26.008 276.995-95.213 362.189-50.292 35.346-74.953 42.646-144.092 42.646-45.882 0-97.395-7.476-114.472-16.622-27.25-14.581-36.458-10.462-75.179 33.635-24.267 27.641-49.186 49.788-55.378 49.215s-29.66-23.2-52.166-50.28zM358.961 664.992c102.535-42.843 144.875-173.668 90.257-278.881-64.479-124.202-271.244-124.202-335.719 0-54.675 105.313-19.66 221.584 82.39 273.628 59.694 30.438 99.714 31.727 163.072 5.259zM210.864 607.208c-43.169-23.929-72.488-75.66-73.153-129.083-0.733-58.832 82.161-139.11 143.644-139.11 58.398 0 144.155 80.203 144.155 134.826 0 115.94-116.016 188.028-214.641 133.367zM865.524 650.041c116.497-76.33 110.133-271.793-10.888-334.372-139.114-71.938-289.51 19.595-289.706 176.313-0.188 149.084 174.28 240.823 300.593 158.059zM686.573 607.208c-43.169-23.929-72.488-75.66-73.153-129.083-0.733-58.832 82.161-139.11 143.644-139.11 58.398 0 144.155 80.203 144.155 134.826 0 115.94-116.016 188.028-214.641 133.367z"></path>
<path d="M472.199 778.303c-42.013-50.967-48.406-53.917-82.827-38.237-58.249 26.543-163.935 20.413-234.156-13.584-108.386-52.467-165.953-177.823-141.507-308.131 11.728-62.521 97.304-162.29 162.672-189.657 101.551-42.51 222.119-16.104 298.821 65.449l42.485 45.174 51.215-49.749c60.461-58.728 111.381-80.295 189.561-80.295 80.412 0 141.425 29.377 203.205 97.844 157.681 174.747 30.176 449.94-208.48 449.94-36.765 0-83.393-7.54-103.619-16.754-33.664-15.34-40.787-12.107-84.31 38.237l-47.536 54.992zM383.734 652.262c66.272-44.27 102.803-117.877 94.039-189.468-28.869-235.808-364.265-234.269-393.078 1.805-13.229 108.379 86.719 220.381 196.659 220.381 31.518 0 73.468-13.406 102.379-32.723zM191.812 585.551c-97.881-87.456-41.515-236.055 89.544-236.055 82.569 0 132.746 49.666 134.943 133.572 1.337 51.080-5.709 67.017-45.281 102.374-61.372 54.837-117.91 54.872-179.201 0.108zM859.438 652.262c66.272-44.27 102.803-117.877 94.039-189.468-28.869-235.808-364.265-234.269-393.078 1.805-13.229 108.379 86.719 220.381 196.659 220.381 31.518 0 73.468-13.406 102.379-32.723zM667.402 585.443c-39.572-35.357-46.624-51.294-45.281-102.374 2.199-83.906 52.376-133.572 134.943-133.572 131.054 0 187.424 148.594 89.544 236.055-61.291 54.764-117.829 54.729-179.201-0.108z"></path>
<path d="M474.036 778.33c-42.049-52.412-45.672-53.912-91.552-37.922-110.101 38.383-220.121 11.846-297.411-71.722-79.359-85.809-97.492-191.529-50.37-293.631 32.21-69.786 77.843-113.702 149.077-143.465 99.959-41.765 207.269-17.924 293.077 65.116l44.143 42.722 35.142-38.148c136.573-148.253 373.792-104.047 452.496 84.32 41.166 98.52 21.289 200.263-55.304 283.085-77.151 83.426-187.316 110.103-296.909 71.899-45.145-15.738-49.327-14.030-92.944 37.922l-45.67 54.401zM413.075 630.39c47.653-44.451 59.75-66.549 65.099-118.927 16.278-159.404-145.725-277.42-282.284-205.637-192.308 101.082-126.718 379.16 89.428 379.16 60.214 0 76.862-7.114 127.761-54.595zM228.838 613.577c-80.926-34.089-104.717-161.886-41.839-224.757 49.172-49.172 139.541-49.172 188.712 0 99.551 99.551-17.796 279.126-146.869 224.757zM867.822 652.547c128.49-87.411 114.948-273.009-25.295-346.722-136.56-71.782-298.562 46.234-282.284 205.637 5.348 52.378 17.445 74.477 65.099 118.927 50.63 47.228 67.723 54.595 126.668 54.595 46.924 0 82.983-10.1 115.814-32.432zM704.548 613.577c-80.926-34.089-104.717-161.886-41.839-224.757 49.172-49.172 139.541-49.172 188.712 0 99.551 99.551-17.796 279.126-146.869 224.757z"></path>
<path d="M463.931 763.51c-34.919-43.762-44.147-48.478-63.48-32.432-13.661 11.334-61.195 18.775-119.977 18.775-86.895 0-103.307-4.734-152.75-44.084-66.776-53.133-120.38-152.375-119.948-222.052 0.656-105.519 72.944-209.069 176.004-252.129 100.229-41.878 221.866-13.477 298.486 69.69l35.142 38.148 44.143-42.722c88.865-86 199.968-108.024 303.623-60.183 98.845 45.62 165.775 146.695 165.775 250.334 0 67.071-54.796 166.814-120.263 218.913-49.445 39.343-65.855 44.084-152.75 44.084-58.782 0-106.316-7.436-119.977-18.775-19.333-16.046-28.561-11.329-63.48 32.432-22.47 28.164-47.346 51.208-55.274 51.208s-32.803-23.044-55.274-51.208zM390.622 657.802c61.758-37.66 97.707-118.884 88.551-200.092-5.59-49.601-19.436-76.775-59.549-116.887-48.394-48.394-58.628-52.262-138.272-52.262s-89.878 3.868-138.272 52.262c-92.252 92.252-79.311 250.946 25.689 314.96 61.21 37.317 162.454 38.24 221.855 2.019zM228.432 606.311c-129.361-56.273-90.277-252.876 50.268-252.876 146.131 0 186.925 197.286 52.411 253.489-57.36 23.968-46.022 24.032-102.679-0.613zM869.648 655.782c104.996-64.015 117.942-222.708 25.689-314.96-48.394-48.394-58.628-52.262-138.272-52.262s-89.878 3.868-138.272 52.262c-131.037 131.037-45.425 344.054 138.272 344.054 39.689 0 83.391-11.291 112.588-29.093zM704.137 606.311c-131.417-57.167-88.401-252.876 55.577-252.876 72.776 0 127.086 53.665 127.086 125.581 0 67.856-22.542 103.905-79.982 127.907-57.36 23.968-46.022 24.032-102.679-0.613z"></path>
<path d="M470.779 766.355c-45.837-47.292-48.404-48.047-100.215-29.545-65.547 23.405-95.639 24.31-165.285 4.969-83.327-23.138-150.016-90.263-178.058-179.223-21.146-67.092-21.781-85.562-4.972-145.583 25.156-89.848 102.542-167.608 191.632-192.552 91.379-25.584 183.453-0.071 253.87 70.346l51.454 51.454 51.454-51.454c70.418-70.418 162.49-95.93 253.87-70.346 89.090 24.946 166.476 102.7 191.632 192.552 37.873 135.26-47.773 287.243-183.029 324.806-68.757 19.095-99.519 18.217-162.566-4.631-48.307-17.503-52.634-16.24-101.6 29.728l-51.15 48.010zM400.498 652.878c117.523-82.049 107.722-284.765-16.882-349.203-140.526-72.67-303.886 22.227-304.023 176.606-0.153 174.283 179.83 271.087 320.904 172.596zM187 577.526c-76.835-76.835-14.833-224.090 94.356-224.090 64.209 0 129.74 67.615 129.74 133.869 0 111.321-144.723 169.59-224.090 90.223zM876.207 652.878c117.523-82.049 107.722-284.765-16.882-349.203-140.526-72.67-303.886 22.227-304.023 176.606-0.153 174.283 179.83 271.087 320.904 172.596zM665.328 574.906c-53.306-53.306-51.684-123.514 4.134-179.332 56.65-56.65 118.548-56.65 175.203 0 86.41 86.41 35.222 217.342-84.981 217.342-41.665 0-66.254-9.907-94.356-38.004z"></path>
<path d="M475.269 766.167l-42.549-52.321-72.075 22.209c-123.535 38.059-254.351-13.194-308.211-120.762-43.235-86.348-48.144-129.54-23.24-204.512 38.982-117.366 137.134-192.162 252.166-192.162 74.707 0 135.007 27.715 195.962 90.063l42.849 43.827 40.865-43.3c147.496-156.274 380.058-103.574 448.193 101.568 24.904 74.976 19.995 118.162-23.24 204.512-53.789 107.426-184.5 158.73-308.211 120.966l-72.075-21.999-87.881 104.223zM358.173 679.738c25.884-10.815 64.597-40.504 86.031-65.975 31.381-37.297 38.956-60.827 38.914-120.886-0.101-135.492-77.175-211.522-214.433-211.522-61.218 0-79.093 6.91-121.621 47.020-115.813 109.223-87.905 287.159 55.007 350.676 55.902 24.846 97.838 25.032 156.103 0.689zM188.938 568.555c-51.162-60.805-48.956-119.21 6.596-174.763 37.941-37.941 51.173-42.76 97.302-35.417 112.657 17.933 154.325 134.192 76.122 212.396-59.106 59.106-129.143 58.243-180.019-2.216zM833.206 679.635c145.637-62.056 175.23-240.837 58.151-351.26-42.529-40.109-60.399-47.020-121.621-47.020-137.259 0-214.339 76.031-214.433 211.522-0.043 60.037 7.535 83.591 38.872 120.838 66.779 79.361 152.203 102.919 239.032 65.923zM669.457 570.772c-78.203-78.203-36.542-194.463 76.122-212.396 46.129-7.343 59.362-2.528 97.302 35.417 55.551 55.551 57.758 113.963 6.596 174.763-50.876 60.46-120.914 61.322-180.019 2.216z"></path>
<path d="M474.438 762.087c-42.74-52.809-44.666-53.539-90.788-34.434-57.419 23.784-159.208 23.868-205.279 0.17-66.559-34.24-128.459-106.941-148.498-174.421-28.308-95.317-6.126-173.776 70.906-250.808 107.578-107.578 246.954-109.894 356.26-5.907 32.807 31.208 60.779 56.743 62.166 56.743s29.359-25.535 62.166-56.743c109.311-103.981 248.682-101.67 356.26 5.907 77.032 77.032 99.213 155.491 70.906 250.808-20.038 67.479-81.938 140.181-148.497 174.421-45.948 23.637-147.809 23.632-204.888-0.007-45.565-18.873-47.86-18.011-91.892 34.434l-45.158 53.788zM381.317 671.050c72.012-36.739 123.748-136.193 111.17-213.698-17.271-106.432-105.746-183.208-211.136-183.208-161.347 0-263.759 170.987-185.65 309.959 59.988 106.734 177.006 142.356 285.616 86.946zM223.695 594.839c-90.546-47.269-89.445-169.419 1.978-218.79 45.44-24.54 56.982-25.581 97.537-8.782 84.786 35.118 110.467 150.024 46.48 207.935-35.976 32.56-103.775 41.676-145.995 19.637zM855.051 672.057c194.904-99.433 121.399-397.912-97.991-397.912-159.174 0-257.381 158.161-187.645 302.215 54.221 112.010 174.604 152.339 285.636 95.695zM713.815 603.213c-107.409-42.15-107.183-190.97 0.353-235.516 120.86-50.064 228.228 119.715 131.226 207.505-28.561 25.849-98.925 40.826-131.58 28.012z"></path>
</svg>
