<!-- Generated by IcoMoon.io -->
<svg version="1.1" xmlns="http://www.w3.org/2000/svg" width="1024" height="1024" viewBox="0 0 1024 1024">
<title></title>
<g id="icomoon-ignore">
</g>
<path d="M97.473 157.753c0 0-35.005-47.972-41.472-78.917-2.111-16.16 5.291-23.939 22.207-23.337 31.148 2.83 70.263 22.669 111.985 48.076 27.975 12.89 50.36 19.654 67.832 21.032 36.974 2.639 77.655 16.903 121.766 41.922 95.489 52.962 173.448 126.33 231.095 223.345l128.335 260.884c21.311 37.201 47.786 57.803 79.423 61.807 67.761 24.667 127.785 60.444 179.854 107.643 6.022 6.266 6.282 11.368-0.932 14.964-16.387 10.226-61.26 10.919-104.985 11.997-11.485 2.691-22.181 7.108-32.247 12.905-15.917 6.443-18.127 16.408-10.495 28.905 46.39 52.945 105.333 96.647 174.691 132.681l-118.241 2.67c-114.572-40.207-228.461-83.652-341.521-131.033-62.139-24.557-107.672-60.846-136.936-108.626-33.749-52.223-63.694-106.050-93.989-159.731-13.658-16.018-23.296-17.876-28.819-5.238l-31.205 116.424c-9.039 12.592-17.661 11.125-25.963-1.191-42.781-60.583-50.597-145.205-27.547-251.048l10.901-36.13-11.541-41.431-34.955-63.554-87.241-185.019zM253.193 219.112c-2.664 1.413 7.312 27.514 23.326 36.379 7.584 3.534 11.279-0.096 12.314-8.627 2.396-14.153-4.958-26.23-19.489-36.778-10.007-4.334-15.689-1.8-16.151 9.026z"></path>
</svg>
