<!-- Generated by IcoMoon.io -->
<svg version="1.1" xmlns="http://www.w3.org/2000/svg" width="1024" height="1024" viewBox="0 0 1024 1024">
<title></title>
<g id="icomoon-ignore">
</g>
<path d="M565.973 887.524h-127.846l50.978-263.263 19.56 10.181 4.892-112.933 148.229-52.705-123.701-28.995c0 0 365.323 1.076 366.974 1.056 39.794-0.534 84.087 21.725 76.476 66.072l-74.546 378.999c0 0-143.079 0.372-143.079 0s69.249-288.857 69.249-288.857c10.574-31.97 6.652-39.282-20.287-39.677 0 0-187.415-2.985-187.415 0s-61.316 338.278-59.483 330.122z"></path>
<path d="M908.92 435.557c4.297 0.106 8.581 0.438 12.835 1.023 3.603 0.491 7.186 1.162 10.723 2.015 24.774 5.97 50.327 22.28 54.622 50.135 0.98 6.376 0.724 12.802-0.309 19.155l-74.579 379.085c-0.704 2.345-1.408 3.912-5.213 4.297-47.821 0.117-95.823 2.463-143.411 0-7.996-0.863-3.795-11.086-1.886-19.082 18.4-76.944 36.948-154.157 55.454-231.261l10.863-45.296c0.628-1.929 1.248-3.859 1.844-5.799 3.667-12.344 13.314-26.245-15.873-27.078-61.104-1.172-122.592-4.051-183.567-0.724 0 0-2.345 11.663-3.732 19.466-18.292 102.209-37.406 204.12-55.444 306.627-1.215 6.897-4.221 5.256-6.459 4.733h-126.664c-4.839-0.469-5.649-1.919-5.234-6.343l50.988-263.263c1.408-4.829 3.358-5.479 7.685-3.72l12.141 6.322 4.669-105.61c0.608-1.694 1.727-2.963 3.39-3.752l131.151-46.638-107.028-25.189c-4.552-2.611-3.507-9.637 2.206-10.181 122.261 0.362 244.138 0.831 366.954 1.056 1.289 0 2.58-0.010 3.869 0.020zM584.766 445.278l79.236 18.676c5.948 3.464 2.686 8.401-0.426 9.872l-144.849 51.499-4.882 110.408c-1.684 4.679-3.411 5.127-7.632 3.433l-13.23-6.875-48.398 249.906h116.867c19.114-108.648 40.989-217.914 58.833-326.071 0 0-4.381-4.211 13.015-4.904 60.666-2.42 121.504-0.81 182.202 0.917 9.594 0.362 20.479 1.438 25.627 9.627 6.588 10.457 1.322 23.581-1.95 34.006l-0.896 2.772c-22.087 92.028-44.187 184.068-66.211 276.118l-1.451 6.067c38.036 0.17 76.007 0.010 113.988-0.063l17.983-0.043 73.693-374.618c1.694-10.351 0.415-21.054-4.818-30.008-13.058-22.323-41.639-29.805-65.454-29.805-106.792 0.949-214.131-0.597-321.255-0.906zM630.721 558.339c0.096-0.405 0.010-0.106 0 0z"></path>
<path d="M702.444 885.595l60.167 0.256 73.245-305.594c1.62-13.101-3.507-20.788-17.375-21.469h-192.383l-4.317 21.778h133.976c8.102 0.17 11.693 3.922 10.468 11.503l-63.78 293.526z"></path>
<path d="M819.47 553.511c7.356 0.544 14.838 3.294 18.762 9.604 4.381 7.024 2.803 18.388 2.803 18.388l-73.245 305.584c-1.119 3.507-1.79 3.849-5.203 4.094l-60.177-0.256c-4.978-0.395-5.576-3.636-5.181-6.459l63.747-293.346c0.086-0.575 0.149-1.152 0.149-1.737 0.010-2.112-2.324-3.368-5.469-3.486h-133.88c-3.474-0.256-5.756-2.058-5.224-6.363l4.307-21.778c1.023-3.646 1.747-4.029 5.234-4.297 64.461 0 129.019-3.636 193.376 0.053zM630.465 564.117l-2.195 11.118h127.58c9.445 0.331 17.046 7.888 15.628 17.78l-62.436 287.27 49.367 0.213 72.191-301.17c0.063-0.597 0.117-1.195 0.16-1.79 0.385-6.247-3.988-12.792-11.992-13.389-62.661-3.593-125.534-0.033-188.301-0.033z"></path>
<path d="M359.965 887.524l78.278 0.074 47.203-251.195-110.684 129.105-14.797 122.015z"></path>
<path d="M486.426 631.169c4.37 1.119 4.54 3.849 4.254 6.214l-47.192 251.195c-1.033 4.072-3.251 4.221-5.244 4.35l-78.278-0.074c-3.241-0.213-5.469-2.707-5.287-5.97l14.785-122.015c0.16-0.874 0.033-1.236 1.248-2.826l110.684-129.105c1.195-1.226 1.909-2.152 5.031-1.77zM379.857 767.758l-13.878 114.436 67.841 0.063 42.705-227.263c-32.215 37.588-64.441 75.174-96.666 112.763z"></path>
<path d="M434.266 88.207c3.879 0.863 6.386 1.535 8.731 7.429l102.262 333.47 109.767 32.258c7.313 4.327 7.847 15.458-0.937 19.583l-130.885 48.707-5.788 105.44c-5.393 16.96-24.189 2.175-24.189 2.175l-224.32 259.905c-7.313 7.12-20.755 0.479-18.198-10.308l101.090-306.447-296.788-135.192c-7.249-5.864-4.467-18.431 5.788-19.476 110.205-1.993 221.176-7.761 331.765-1.674 0 0 3.401-23.292 4.755-38.632 8.454-95.92 16.641-191.743 24.87-287.589 0 0 1.226-10.255 12.078-9.647zM434.106 208.219c-6.588 76.359-11.609 152.812-20.105 229.118-3.178 22.492-13.612 9.477-15.511 8.624-33.152-4.403-68.512-1.866-103.435-1.737-60.144 0.213-120.268 1.013-180.402 1.929l-6.269 0.106 262.463 119.554c5.809 4.606 5.745 5.788 4.201 12.207l-87.338 264.724c0 0 193.363-225.356 193.363-225.356 7.728-8.657 2.783-8.176 16.193-1.983l5.011-93.873c0.927-6.715 3.208-7.665 6.93-9.424l107.337-39.943-84.419-24.827c-2.558-1.514-4.434-3.667-5.565-6.482l-87.829-286.416c-1.545 17.93-3.092 35.849-4.626 53.781zM394.984 443.093c0 0-0.063-0.096 0 0zM392.745 437.816c0 0-0.106-1.62 0 0z"></path>
</svg>
