<!-- Generated by IcoMoon.io -->
<svg version="1.1" xmlns="http://www.w3.org/2000/svg" width="1024" height="1024" viewBox="0 0 1024 1024">
<title></title>
<g id="icomoon-ignore">
</g>
<path d="M334.289 198.080c-110.931-2.398-280.48 121.207-280.083 275.954 0.311 120.606 47.791 271.802 262.616 312.394 0 0 415.298-3.138 418.226-3.498 140.604-17.288 243.371-161.909 247.545-294.596 4.255-135.289-114.941-273.112-262.927-289.1l-385.376-1.154zM332.086 300.306h370.334c109.043 15.233 172.221 104.776 171.477 190.262-0.759 87.032-64.345 180.070-171.477 191.403-2.231 0.235-365.675 0-365.675 0-145.718-29.925-169.196-123.24-170.228-200.775-1.279-96.009 109.295-178.482 165.569-180.89z"></path>
</svg>
