<!-- Generated by IcoMoon.io -->
<svg version="1.1" xmlns="http://www.w3.org/2000/svg" width="1024" height="1024" viewBox="0 0 1024 1024">
<title>jira</title>
<g id="icomoon-ignore">
</g>
<path d="M510.966 944.75c-9.404-10.027-117.126-179.295-127.705-200.669-6.35-12.83-4.094-18.212 30.899-73.715 20.762-32.931 40.795-62.833 44.518-66.45 5.026-4.883 12.649-5.372 29.611-1.9 12.563 2.571 28.688 3.76 35.833 2.642s15.754-0.263 19.132 1.9c11.649 7.462 158.433 244.716 155.543 251.411-2.505 5.801-168.273 95.677-176.468 95.677-1.66 0-6.772-4.003-11.361-8.897zM181.342 787.835c-53.534-28.361-82.315-46.548-82.315-52.013 0-4.622 29.645-55.302 65.878-112.622l65.878-104.217 172.393-2.547 36.574 71.131-73.366 115.68c-82.714 130.418-81.258 128.424-93.643 128.294-4.996-0.053-46.125-19.72-91.398-43.705zM649.874 722.654c-11.195-10.198-76.487-116.546-76.487-124.583 0-3.546 5.65-12.78 12.557-20.521s16.857-21.261 22.113-30.045l9.557-15.971 315.729 2.701v193.184l-137.628 1.359c-115.136 1.137-138.97 0.136-145.841-6.123zM614.725 492.293c-4.575-10.485-13.154-27.248-19.063-37.25l-10.744-18.186 77.077-121.618c45.53-71.84 80.917-122.3 86.458-123.286 14.142-2.515 176.52 84.736 176.52 94.851 0 8.479-117.625 199.323-132.918 215.657-7.218 7.71-19.049 8.897-88.67 8.897h-80.34zM90.38 484.576c-1.53-3.633-2.094-47.707-1.253-97.942l1.529-91.337 136.034-1.363c94.221-0.944 138.348 0.387 143.563 4.329 9.774 7.389 80.359 119.328 80.359 127.439 0 3.411-4.784 10.924-10.63 16.696s-15.479 18.502-21.405 28.288l-10.775 17.793-157.32 1.35c-124.954 1.073-157.892-0.011-160.102-5.255zM528.879 419.737c-10.667-2.286-21.483-2.98-24.035-1.543s-10.408 1.294-17.458-0.318c-9.726-2.224-31.237-32.17-89.174-124.141-42.203-66.995-74.965-124.451-73.245-128.455 4.798-11.173 163.832-91.963 177.465-90.154 8.848 1.174 28.357 27.539 77.66 104.948 36.214 56.858 65.844 106.679 65.844 110.711 0 7.71-63.019 109.963-77.192 125.251-8.972 9.678-11.062 9.872-39.865 3.7z"></path>
<path d="M513.395 942.208c-12.215-13.983-129.751-203.1-129.732-208.741 0.013-3.327 17.272-33.501 38.358-67.054l38.337-61.005 38.377 1.63c29.231 1.241 40.548 3.925 47.485 11.262 5.010 5.298 41.212 60.4 80.449 122.449l71.34 112.816-12.766 9.416c-13.544 9.991-157.571 85.582-163.062 85.582-1.78 0-5.734-2.86-8.788-6.355zM184.132 784.815c-51.692-27.214-79.525-44.807-79.525-50.268 0-4.621 29.143-54.458 64.762-110.748 46.213-73.033 68.191-103.121 76.735-105.050 6.585-1.487 43.181-2.042 81.325-1.234l69.352 1.469 38.021 68.45-75.079 118.288c-51.734 81.508-78.342 118.704-85.573 119.624-5.771 0.735-46.28-17.504-90.018-40.531zM650.535 715.98c-15.973-17.136-71.567-108.693-71.567-117.862 0-5.092 3.951-12.245 8.779-15.896s13.669-15.369 19.646-26.041l10.867-19.404h155.549c136.693 0 155.96 0.975 158.937 8.041 4.414 10.478 4.414 161.538 0 172.017-2.96 7.027-20.457 8.041-138.653 8.041-121.945 0-136.082-0.876-143.558-8.897zM620.48 497.514c-1.594-4.968-8.983-20.207-16.419-33.865-10.838-19.905-12.314-26.966-7.439-35.586 36.77-65.027 147.652-231.899 154.092-231.899 4.513 0 44.312 18.774 88.442 41.72 53.512 27.825 80.236 44.58 80.236 50.307 0 4.722-29.551 55.151-65.668 112.064l-65.668 103.478-82.338 1.407c-74.855 1.28-82.601 0.586-85.237-7.626zM96.635 483.034c-7.257-6.611-8.755-22.172-8.684-90.237 0.047-45.237 2.107-85.149 4.578-88.695 3.471-4.982 35.456-6.137 140.706-5.084l136.214 1.363 37.761 58.463c20.768 32.155 37.775 62.187 37.792 66.738s-3.92 11.261-8.748 14.911c-4.828 3.65-13.511 15.087-19.295 25.414s-14.595 20.203-19.581 21.946c-4.986 1.743-72.719 3.169-150.518 3.169-121.153 0-142.712-1.147-150.223-7.989zM513.853 415.31c-18.931-1.698-35.528-4.23-36.881-5.628s-35.688-55.149-76.3-119.447c-52.94-83.816-72.412-118.967-68.794-124.192 7.665-11.069 153.292-86.66 167.103-86.738 9.882-0.056 23.92 18.597 76.735 101.964 35.552 56.118 64.531 105.875 64.399 110.572-0.385 13.677-74.428 125.296-83.553 125.956-4.559 0.33-23.778-0.789-42.709-2.487z"></path>
<path d="M513.35 937.124c-7.544-8.566-121.452-188.399-125.658-198.382-2.801-6.65 59.129-113.814 73.451-127.099 2.331-2.162 21.887-2.438 43.458-0.611l39.219 3.32 73.381 116.007c40.36 63.804 73.381 119.083 73.381 122.843 0 6.46-154.171 90.276-166.054 90.276-3.070 0-8.1-2.86-11.178-6.355zM188.448 784.106c-44.269-23.345-81.341-44.773-82.382-47.618s27.75-51.803 63.981-108.797l65.873-103.624 161.675-2.654 15.347 30.159c8.441 16.587 15.347 32.688 15.347 35.78 0 5.733-121.27 199.806-140.733 225.22-5.889 7.689-12.487 13.98-14.663 13.98s-40.176-19.101-84.445-42.446zM658.804 720.861c-7.156-4.144-79.836-115.805-79.836-122.654 0-2.261 7.376-13.004 16.39-23.874 33.951-40.938 18.13-37.556 175.688-37.556 78.018 0 145.824 1.389 150.679 3.086 7.578 2.649 8.827 15.52 8.827 90.964s-1.249 88.315-8.827 90.964c-12.85 4.492-255.038 3.635-262.921-0.93zM612.279 472.899c-10.019-19.124-15.964-36.986-13.923-41.831 6.602-15.673 143.506-229.814 148.846-232.82 6.072-3.419 166.607 78.94 170.286 87.362 2.4 5.494-114.414 194.54-130.855 211.768-7.29 7.639-18.977 8.897-82.68 8.897h-74.19zM97.166 482.549c-2.046-1.864-3.72-42.798-3.72-90.964 0-75.167 1.251-88.012 8.827-90.661 4.855-1.697 64.999-3.086 133.653-3.086h124.826l13.39 16.522c7.365 9.087 26.439 37.561 42.387 63.274l28.997 46.752-46.122 61.552h-149.259c-82.092 0-150.933-1.525-152.979-3.389zM504.679 410.266l-26.852-3.126-72.205-114.273c-39.713-62.85-72.205-117.854-72.205-122.231 0-11.524 160.87-94.455 171.409-88.365 7.882 4.555 135.613 201.84 135.44 209.192-0.050 2.109-17.084 30.143-37.855 62.298-41.783 64.684-39.384 63.297-97.731 56.505z"></path>
<path d="M516.343 934.559c-11.49-11.993-127.143-196.16-127.029-202.283 0.050-2.672 17.113-31.166 37.919-63.321l37.829-58.463 30.444 1.593c16.744 0.876 34.211 2.602 38.815 3.834 9.296 2.489 150.68 223.992 150.678 236.063-0.001 4.289-22.544 19.275-51.622 34.316-28.391 14.686-64.426 33.549-80.077 41.918-26.85 14.357-28.937 14.715-36.958 6.343zM188.392 780.77c-41.396-22.132-76.149-42.652-77.228-45.601-2.587-7.070 114.484-193.267 128.735-204.747 9.189-7.403 22.109-8.897 76.938-8.897 69.272 0 83.549 2.135 83.549 12.496 0 3.479 6.127 16.822 13.616 29.652l13.616 23.328-69.861 110.838c-75.334 119.521-78.339 123.744-87.806 123.399-3.461-0.126-40.162-18.337-81.558-40.469zM634.199 682.935c-12.865-20.272-29.299-46.209-36.521-57.639-16.16-25.577-16.399-33.411-1.397-45.778 6.453-5.32 15.307-15.969 19.676-23.665l7.943-13.992h149.939c131.576 0 150.354 0.985 153.326 8.041 4.413 10.476 4.413 151.373 0 161.849-2.958 7.022-20.265 8.041-136.481 8.041h-133.094zM625.028 490.318c-1.717-5.98-8.747-20.51-15.622-32.29l-12.501-21.418 73.736-116.105c40.555-63.858 76.558-116.962 80.008-118.009 8.25-2.505 163.162 79.557 163.162 86.432 0 6.289-115.362 190.473-127.377 203.366-7.135 7.657-18.74 8.897-83.288 8.897-71.923 0-75.125-0.445-78.118-10.872zM100.143 479.838c-7.059-6.431-9.935-153.147-3.309-168.874 2.954-7.014 19.965-8.041 133.072-8.041 116.549 0 130.546 0.901 138.189 8.897 13.055 13.657 71.355 107.973 71.355 115.436 0 3.63-4.109 9.707-9.13 13.503s-15.098 15.515-22.393 26.041l-13.263 19.139h-143.912c-104.491 0-145.747-1.671-150.609-6.101zM515.018 410.098l-33.256-2.958-74.075-116.927c-40.741-64.31-74.119-118.461-74.173-120.336-0.174-6.082 157.837-86.009 166.894-84.42 8.648 1.517 134.286 193.93 134.34 205.74 0.033 6.794-58.629 100.82-71.54 114.671-4.561 4.893-9.787 8.512-11.613 8.042s-18.286-2.186-36.576-3.813z"></path>
<path d="M509.833 919.4c-28.091-39.56-115.027-180.136-114.989-185.938 0.021-3.324 15.797-31.208 35.056-61.965 23.963-38.268 38.044-55.788 44.606-55.498 5.274 0.233 21.666 0.805 36.426 1.271l26.836 0.847 74.251 117.196c40.838 64.458 73.258 118.101 72.044 119.207-3.020 2.751-124.522 66.998-144.527 76.422-15.865 7.473-16.329 7.293-29.703-11.541zM189.713 777.558c-48.897-25.545-73.796-41.441-73.505-46.927 0.241-4.563 28.494-51.763 62.783-104.889l62.344-96.592 150.679-2.665 31.274 61.453-71.662 112.92c-39.414 62.106-75.331 113.462-79.815 114.125s-41.428-16.179-82.097-37.426zM622.023 657.516c-33.545-52.471-35.896-58.032-28.471-67.36 4.451-5.592 13.284-17.603 19.628-26.69l11.535-16.522h300.256v167.765h-266.384zM616.838 466.928l-15.146-29.285 70.953-113.583c39.024-62.471 73.969-114.718 77.656-116.104 10.881-4.093 157.998 74.481 157.49 84.113-0.242 4.571-28.494 51.778-62.783 104.904l-62.344 96.592-150.679 2.648zM102.747 477.466c-2.046-1.864-3.72-40.755-3.72-86.424v-83.035l265.084 0.174 34.879 55.189c34.866 55.167 39.982 68.259 29.073 74.401-3.194 1.798-12.015 12.228-19.602 23.177l-13.796 19.908h-144.098c-79.254 0-145.773-1.525-147.819-3.389zM512.972 405.040l-29.721-2.984-72.127-113.422c-39.67-62.382-72.127-115.157-72.127-117.276 0-6.662 149.976-82.825 159.65-81.077 9.659 1.746 130.547 187.274 130.547 200.352 0 13.981-69.416 118.965-78.13 118.163-4.604-0.424-21.745-2.114-38.092-3.755z"></path>
<path d="M457.436 833.38l-62.934-99.744 30.479-48.863c44.911-72 39.928-67.988 79.395-63.921l33.782 3.482 70.631 111.317c38.847 61.224 70.631 113.083 70.631 115.241 0 4.394-146.037 82.472-153.981 82.325-2.788-0.051-33.389-44.979-68.003-99.838zM193.899 776.366c-41.437-21.934-75.34-41.921-75.34-44.414s27.625-48.495 61.388-102.225l61.388-97.691 150.679-0.17 13.517 28.432c9.752 20.514 11.994 30.754 8.048 36.771-3.007 4.586-35.394 55.808-71.97 113.827s-67.822 105.457-69.436 105.42c-1.614-0.038-36.838-18.015-78.274-39.949zM655.158 703.27c-39.645-58.306-65.33-103.745-61.343-108.521 2.577-3.087 11.623-15.107 20.102-26.709l15.417-21.096h290.057v167.765h-128.228c-126.952 0-128.305-0.114-136.005-11.438zM621.232 467.531c-7.899-15.716-14.361-29.807-14.361-31.312 0-4.412 140.125-224.546 144.502-227.010 7.344-4.135 154.15 77.172 152.268 84.332-0.989 3.762-29.583 50.879-63.542 104.703l-61.745 97.863h-142.761zM104.607 391.889v-83.882h255.781l74.014 117.424-13.833 14.975c-7.608 8.236-15.431 19.563-17.385 25.17-3.437 9.865-8.321 10.195-151.065 10.195h-147.513zM475.868 384.263c-27.704-39.946-131.29-206.702-131.29-211.355 0-5.116 144.775-83.562 153.981-83.434 3.934 0.054 121.864 180.803 129.585 198.612 0.957 2.208-14.111 29.203-33.484 59.99l-35.225 55.975-35.613-0.997c-34.163-0.957-36.116-1.722-47.954-18.791z"></path>
<path d="M465.535 840.203c-32.516-51.203-60.712-96.875-62.658-101.493-2.237-5.311 9.458-28.832 31.825-64.001l35.363-55.603 30.734 2.692c16.904 1.481 32.427 4.118 34.496 5.86s35.183 52.829 73.587 113.526l69.826 110.359-17.78 9.708c-9.779 5.339-36.615 19.465-59.636 31.389s-49.681 25.951-59.245 31.17l-17.39 9.488zM196.689 775.061c-36.833-19.702-69.148-37.722-71.812-40.044-2.683-2.339 23.199-48.63 58.022-103.774l62.866-99.551h143.735l5.481 13.98c3.015 7.689 9.22 20.037 13.791 27.439 8.087 13.098 6.405 16.467-62.821 125.78-39.122 61.777-73.642 112.247-76.712 112.156s-35.717-16.285-72.549-35.987zM632.274 661.998c-40.401-62.534-39.928-60.877-23.104-80.97 7.944-9.488 14.444-19.895 14.444-23.126 0-4.296 39.741-5.875 147.889-5.875h147.889v157.597h-256.348zM629.018 477.042c-3.015-7.689-9.040-19.758-13.389-26.82-7.556-12.268-4.86-17.655 60.543-120.952 37.648-59.462 71.115-110.539 74.369-113.503 4.17-3.798 26.273 5.403 74.827 31.151 37.9 20.098 71.089 38.446 73.753 40.772 2.685 2.345-23.17 48.591-58.022 103.781l-62.866 99.551h-143.735zM104.607 394.431v-81.34h255.799l33.941 53.885c18.667 29.637 33.941 55.665 33.941 57.841s-3.536 6.629-7.857 9.896c-4.321 3.267-11.973 13.842-17.004 23.499l-9.147 17.559h-289.673zM514.789 400.753l-27.904-1.964-69.566-110.851c-38.261-60.968-69.080-112.85-68.486-115.293 1.347-5.542 139.454-78.203 148.317-78.033 8.109 0.155 127.977 190.563 125.492 199.34-4.567 16.132-67.874 110.543-73.563 109.706-3.513-0.517-18.944-1.824-34.291-2.904z"></path>
</svg>
