<!-- Generated by IcoMoon.io -->
<svg version="1.1" xmlns="http://www.w3.org/2000/svg" width="1024" height="1024" viewBox="0 0 1024 1024">
<title></title>
<g id="icomoon-ignore">
</g>
<path d="M395.955 247.874l111.016 192.726c18.236-1.673 36.395-0.065 54.473 5.42l58.632-101.122-99.32-171.152-124.802 74.128z"></path>
<path d="M521.141 172.279c0.238 0.097 0.485 0.133 0.93 0.703l99.32 171.156c0.206 0.501 0.214 1.002 0 1.52l-58.632 101.122c-2.15 2.773-16.769-3.496-28.639-4.644-8.993-0.873-18.022-0.8-27.018-0.028 0 0-0.934-0.061-1.443-0.752-37.005-64.242-74.019-128.48-111.016-192.726-0.069-0.117 0.542-2.057 0.542-2.057s125.562-74.342 125.562-74.342c0.133 0.016 0.263 0.032 0.396 0.048zM398.016 248.415l109.783 190.592c17.597-1.516 35.381 0.242 52.372 5.052 0 0 58.155-99.162 58.155-99.162l-98.111-169.071c-40.732 24.197-81.468 48.391-122.199 72.588z"></path>
<path d="M698.215 272.981l-114.79 190.503c10.301 15.141 17.693 31.805 21.656 50.277l116.868 2.286 101.586-169.817-125.32-73.249z"></path>
<path d="M698.383 271.483c0.163 0.011 0.298 0.071 0.452 0.115 41.49 25.003 83.645 48.88 125.468 73.324 1.097 0.82 0.849 1.391 0.537 2.087l-101.589 169.819c-0.337 0.45-0.783 0.688-1.329 0.736l-116.868-2.286c-3.366-0.446-5.058-16.345-9.816-27.302-3.594-8.289-8.033-16.152-13.068-23.648 0 0-0.399-0.846-0.042-1.626 38.263-63.501 76.521-127.004 114.79-190.503 0.325-0.54 0.923-0.802 1.466-0.715zM585.219 463.437c7.214 10.729 16.418 28.861 20.959 48.26l114.923 2.819 100.35-167.751-122.712-71.718c-37.841 62.796-75.68 125.595-113.52 188.391z"></path>
<path d="M823.496 541.493l-222.404-2.075c-7.807 16.565-18.404 31.399-32.3 44.198l57.411 101.821 197.879 1.213-0.585-145.156z"></path>
<path d="M823.511 539.978c0.779 0.102 1.32 0.618 1.491 1.347-0.454 48.439 0.399 96.879 0.595 145.321-0.084 0.757-0.166 1.375-1.525 1.523l-197.882-1.215c-0.559-0.062-0.991-0.325-1.31-0.771l-57.411-101.821c-1.326-3.125 11.508-12.661 18.528-22.327 5.314-7.307 9.83-15.126 13.728-23.271 0 0 0.407-0.764 1.38-0.862 74.135 0.692 148.27 1.384 222.404 2.075zM601.716 541.624c-7.68 15.608-17.997 29.847-30.59 41.889 0 0 55.964 100.415 55.964 100.415l195.472 1.199-0.578-142.132-219.94-2.055c-0.108 0.232-0.218 0.458-0.328 0.684z"></path>
<path d="M657.159 785.208l-112.13-192.080c-18.226 1.779-36.394 0.275-54.504-5.104l-58.046 101.46 100.309 170.574 124.371-74.85z"></path>
<path d="M490.945 586.57c3.36 0.971 3.356 0.971 6.732 1.816 15.444 3.665 31.415 4.684 47.214 3.235 0 0 0.865-0.041 1.447 0.743 37.377 64.027 74.762 128.049 112.13 192.080 0.069 0.117-0.53 2.060-0.53 2.060s-124.734 75.013-124.734 75.013c-0.687 0.101-1.274-0.114-1.726-0.689l-100.309-170.578c-0.209-0.5-0.22-1.001-0.009-1.52l58.046-101.46c0.425-0.552 0.998-0.814 1.738-0.701zM434.229 689.474l99.089 168.499 121.777-73.295-110.885-189.953c-17.661 1.626-35.39-0.042-52.4-4.749l-0.563-0.162c-19.006 33.22-38.012 66.44-57.017 99.66z"></path>
<path d="M351.875 759.81l115.938-189.806c-10.209-15.203-17.501-31.911-21.352-50.407l-116.853-2.992-102.609 169.2 124.876 74.005z"></path>
<path d="M446.498 518.080c3.363 0.466 4.959 16.375 9.651 27.361 3.544 8.311 7.935 16.2 12.925 23.726 0 0 0.446 0.742 0.032 1.627-38.646 63.269-77.287 126.539-115.938 189.806-0.398 0.655-1.355 0.934-1.992 0.544-44.32-19.48-83.304-49.353-124.953-74.036-1.092-0.827-0.841-1.397-0.524-2.090l102.613-169.202c0.34-0.448 0.787-0.683 1.334-0.728 38.951 0.998 77.903 1.997 116.853 2.992zM229.086 685.284l122.277 72.458 114.656-187.702c-7.149-10.772-16.243-28.96-20.667-48.386 0 0-114.904-3.513-114.904-3.513-33.787 55.715-67.575 111.427-101.362 167.142z"></path>
<path d="M227.751 496.462l222.412-1.001c7.577-16.671 17.968-31.651 31.686-44.64l-58.814-101.017-197.876 1.524 2.593 145.134z"></path>
<path d="M423.342 348.319c0.452 0.146 0.72 0.336 1.003 0.721l58.814 101.017c1.369 3.107-11.332 12.819-18.218 22.581-5.212 7.38-9.62 15.26-13.405 23.458 0 0-0.515 0.781-1.368 0.881-74.137 0.334-148.273 0.673-222.412 1.001-0.766 0.005-1.506-0.663-1.509-1.409-6.694-47.947-1.742-96.81-2.606-145.216 0.13-1.363 0.747-1.449 1.503-1.544 66.066-0.506 132.44-7.917 198.197-1.49zM226.698 352.83l2.544 142.11 219.947-0.987c5.413-11.741 16.116-29.031 30.325-42.996 0 0-57.347-99.632-57.347-99.632-65.157 0.503-130.312 1.002-195.47 1.505z"></path>
<path d="M517.171 51.717c-256.892 0-465.454 208.562-465.454 465.454s208.562 465.454 465.454 465.454c256.892 0 465.454-208.562 465.454-465.454s-208.562-465.454-465.454-465.454zM518.723 129.913c216.747 0 392.688 175.942 392.688 392.688 0 216.708-175.942 392.688-392.688 392.688-216.708 0-392.688-175.98-392.688-392.688 0-216.747 175.98-392.688 392.688-392.688z"></path>
</svg>
