<!-- Generated by IcoMoon.io -->
<svg version="1.1" xmlns="http://www.w3.org/2000/svg" width="1024" height="1024" viewBox="0 0 1024 1024">
<title></title>
<g id="icomoon-ignore">
</g>
<path d="M64.4 769.184c201.968-561.568 207.296-563.648 207.296-563.648l-26.528 550.992-180.768 12.656"></path>
<path d="M261.598 738.258c146.464-231.696 238.448-455.888 300.384-675.936l-34.752 667.84-265.632 8.096"></path>
<path d="M606.832 719.824l178.864-23.904c-76.336-124.752-148.96-260.528-218.944-404.128 33.712 137.376 38.192 282.368 40.080 428.032"></path>
<path d="M577.374 68.686l381.536 618.128-238.16-130.32c-21.088-11.536-69.808-87.376-68.656-116.224-3.76-126.544-24.576-250.912-74.72-371.584"></path>
<path d="M63.168 805.952l939.312-114.976c-145.12 36.432-243.712 103.696-315.904 188.448-225.888-29.264-421.568-39.44-538.624 41.84-49.184-21.888-78.8-59.264-84.784-115.312"></path>
<path d="M743.248 888.032c10.8 0.080 9.904-0.304 12.256 4.64 2.304 4.88-1.488 11.216-7.36 11.424-32.304-0.464-65.648 3.28-92.16 21.344-0.96 0.656-12.64 11.088-27.024 18.24-27.824 13.856-60.080 15.84-91.376 12.336 0 0-6.88-2.144-7.104-7.632-0.432-10.544 18.368-6.608 35.232-6.8 27.84-0.288 56.144-7.92 77.76-26.848 0 0 11.792-8.416 23.296-13.488 23.824-10.512 50.432-13.28 76.48-13.216z"></path>
<path d="M330.368 918.32c4.256 0.064 8.496 0.208 12.736 0.512s8.848 1.312 10.432 5.36c2.176 5.6 0.864 11.648-9.872 10.736-35.12-2.672-70.288 5.712-100.688 23.568-8.096 4.624-9.552 5.216-14.24 7.328-29.52 13.376-62.848 17.104-95.664 14.4 0 0-5.808-1.328-7.056-5.824-3.28-11.728 21.136-8.496 39.728-9.632 54.528-3.36 96.32-44.432 157.456-46.384 2.4-0.048 4.784-0.080 7.168-0.064z"></path>
<path d="M230.608 914.096c4.496 0.912 4.864 2.352 5.792 4.016 6.848 12.272-27.12 19.072-45.664 25.2-52.72 17.072-111.168-14.4-163.936 13.568 0 0-5.008 1.904-8.448-0.592-4.368-3.168-4.096-10.544 0.944-13.552 7.52-3.984 8.272-4.128 12.080-5.664 31.984-12.928 68.24-9.376 101.296-3.984 9.344 1.376 10.72 1.296 15.744 1.376 27.28 0.4 52.784-13.344 78.976-20.192 0 0 1.008-0.4 3.216-0.176z"></path>
</svg>
