<!-- Generated by IcoMoon.io -->
<svg version="1.1" xmlns="http://www.w3.org/2000/svg" width="1024" height="1024" viewBox="0 0 1024 1024">
<title></title>
<g id="icomoon-ignore">
</g>
<path d="M566.279 34.452c-0.711 0.108-1.415 0.344-2.060 0.743-5.161 3.19-26.189 59.203-46.743 124.464s-57.9 166.726-82.992 225.472c-53.571 125.422-174.909 349.6-183.856 339.681-1.429-1.584 3.576-97.366 11.117-212.822 18.383-281.453 18.425-327.678 0.335-327.678-7.919 0-21.271 19.596-29.684 43.532-115.864 329.613-190.265 554.236-185.917 561.272 2.964 4.795 10.989 6.973 17.849 4.864s44.718-6.5 84.142-9.775c91.872-7.632 66.401 9.411-28.822 19.286-45.848 4.755-71.701 12.267-75.397 21.898-8.837 23.029 17.051 74.227 49.043 97.007l29.133 20.772 91.042-31.266c66.744-22.917 109.843-31.289 161.503-31.361 70.51-0.099 261.708 18.408 290.639 28.127 22.523 7.566-59.173 43.060-99.858 43.389-18.304 0.148-33.278 5.277-33.278 11.404 0 14.725 76.708 2.083 117.755-19.406 16.896-8.845 49.155-19.232 71.683-23.096l40.969-7.044-81.914-3.378 28.151-15.285c15.488-8.402 28.151-18.72 28.151-22.928 0-15.552 76.762-86.018 114.88-105.465 21.654-11.047 67.693-25.818 102.302-32.823 66.484-13.456 92.991-37.39 42.239-38.142-26.979-0.4-42.298-22.375-218.452-313.399-104.192-172.136-192.857-322.015-197.033-333.045-3.654-9.651-9.949-15.756-14.926-14.998zM588.8 129.782c14.956 2.601 43.137 113.511 51.486 202.616 3.979 42.464 4.833 77.194 1.893 77.194s-19.79-25.592-37.447-56.877c-29.794-52.791-31.885-62.922-29.133-140.803 1.721-48.717 7.256-83.163 13.201-82.129zM569.13 353.29l13.608 56.302c7.483 30.976 14.902 119.689 16.483 197.129l2.875 140.803h-58.818l6.061-99.834c3.338-54.912 9.161-143.625 12.938-197.129zM736.144 581.061l44.083 25.444c24.247 13.985 65.927 33.609 92.599 43.604 44.712 16.755 77.804 41.309 68.161 50.576-2.211 2.124-33.973 6.632-70.581 10.039l-66.556 6.205-33.853-67.922zM506.91 750.183c7.304 0.117 11.614 0.449 12.147 0.982 2.132 2.132-48.122 9.44-111.67 16.268s-125.927 14.868-138.599 17.849c-15.817 3.721-23.024 0.76-23.024-9.464 0-11.93 26.784-16.269 134.694-21.73 55.566-2.812 104.541-4.256 126.452-3.905zM320.059 932.41c-18.434-1.252-44.107 4.589-67.131 16.795-18.024 9.555-58.101 23.007-89.077 29.876-50.706 11.243-52.625 12.572-19.167 13.345 20.439 0.472 63.299-11.111 95.234-25.731 38.79-17.759 66.662-24.428 83.998-20.077 16.768 4.209 23.636 2.761 19.382-4.121-3.72-6.019-12.179-9.335-23.24-10.086zM219.65 936.843c-3.655 0.205-8.993 2.105-15.669 5.678-13.627 7.293-47.726 8.99-94.707 4.72-60.094-5.462-77.155-3.596-93.917 10.278-18.394 15.225-18.554 16.337-1.605 10.949 50.35-16.007 70.344-17.386 100.218-6.972 35.371 12.331 111.31-1.436 111.31-20.173 0-3.199-1.975-4.685-5.63-4.48z"></path>
<path d="M566.279 34.452c-0.711 0.108-1.415 0.344-2.060 0.743-5.161 3.19-26.189 59.203-46.743 124.464s-57.9 166.726-82.992 225.472c-53.571 125.422-174.909 349.6-183.856 339.681-1.429-1.584 3.576-97.366 11.117-212.822 18.383-281.453 18.425-327.678 0.335-327.678-7.919 0-21.271 19.596-29.684 43.532-115.864 329.613-190.265 554.236-185.917 561.272 2.964 4.795 10.989 6.973 17.849 4.864s44.718-6.5 84.142-9.775c91.872-7.632 66.401 9.411-28.822 19.286-45.848 4.755-71.701 12.267-75.397 21.898-8.837 23.029 17.051 74.227 49.043 97.007l29.133 20.772 91.042-31.266c66.744-22.917 109.843-31.289 161.503-31.361 70.51-0.099 261.708 18.408 290.639 28.127 22.523 7.566-59.173 43.060-99.858 43.389-18.304 0.148-33.278 5.277-33.278 11.404 0 14.725 76.708 2.083 117.755-19.406 16.896-8.845 49.155-19.232 71.683-23.096l40.969-7.044-81.914-3.378 28.151-15.285c15.488-8.402 28.151-18.72 28.151-22.928 0-15.552 76.762-86.018 114.88-105.465 21.654-11.047 67.693-25.818 102.302-32.823 66.484-13.456 92.991-37.39 42.239-38.142-26.979-0.4-42.298-22.375-218.452-313.399-104.192-172.136-192.857-322.015-197.033-333.045-3.654-9.651-9.949-15.756-14.926-14.998zM548.694 123.984c2.147-0.229 1.581 10.584-0.216 29.612-2.924 30.976-10.53 130.041-16.915 220.153s-13.412 165.769-15.597 168.116c-2.185 2.347-3.977-3.728-3.977-13.489 0-13.507-15.28-6.034-63.993 31.218-35.2 26.918-86.266 71.504-113.491 99.092l-49.498 50.169 32.464-54.912c61.781-104.464 145.897-290.962 191.020-423.535 25.513-74.959 36.623-106.041 40.202-106.423zM588.8 129.782c14.956 2.601 43.137 113.511 51.486 202.616 3.979 42.464 4.833 77.194 1.893 77.194s-19.79-25.592-37.447-56.877c-29.794-52.791-31.885-62.922-29.133-140.803 1.721-48.717 7.256-83.163 13.201-82.129zM629.074 174.8c3.72-1.657 40.614 54.723 81.003 124.727 21.28 36.884 24.421 48.635 13.009 48.635-8.277 0-24.267 11.741-35.554 26.091l-20.532 26.091-6.157-49.139c-8.345-66.612-22.962-147.1-31.242-171.997-0.909-2.734-1.058-4.172-0.527-4.408zM243.321 250.149c2.535 2.535-3.596 117.787-13.608 256.115-17.48 241.505-19.051 251.515-39.483 252.233-11.703 0.411-45.469 4.198-75.037 8.409s-53.762 6.102-53.762 4.193c0-13.942 178.284-524.558 181.892-520.95zM569.13 353.29l13.608 56.302c7.483 30.976 14.902 119.689 16.483 197.129l2.875 140.803h-58.818l6.061-99.834c3.338-54.912 9.161-143.625 12.938-197.129zM598.287 373.87c2.585-1.517 8.908 9.090 19.574 31.457 9.553 20.033 13.081 33.765 7.834 30.523s-11.46-0.145-13.8 6.876c-2.34 7.021-7.206-5.398-10.805-27.576-4.242-26.138-5.388-39.763-2.803-41.28zM736.144 581.061l44.083 25.444c24.247 13.985 65.927 33.609 92.599 43.604 44.712 16.755 77.804 41.309 68.161 50.576-2.211 2.124-33.973 6.632-70.581 10.039l-66.556 6.205-33.853-67.922zM506.91 750.183c7.304 0.117 11.614 0.449 12.147 0.982 2.132 2.132-48.122 9.44-111.67 16.268s-125.927 14.868-138.599 17.849c-15.817 3.721-23.024 0.76-23.024-9.464 0-11.93 26.784-16.269 134.694-21.73 55.566-2.812 104.541-4.256 126.452-3.905zM320.059 932.41c-18.434-1.252-44.107 4.589-67.131 16.795-18.024 9.555-58.101 23.007-89.077 29.876-50.706 11.243-52.625 12.572-19.167 13.345 20.439 0.472 63.299-11.111 95.234-25.731 38.79-17.759 66.662-24.428 83.998-20.077 16.768 4.209 23.636 2.761 19.382-4.121-3.72-6.019-12.179-9.335-23.24-10.086zM219.65 936.843c-3.655 0.205-8.993 2.105-15.669 5.678-13.627 7.293-47.726 8.99-94.707 4.72-60.094-5.462-77.155-3.596-93.917 10.278-18.394 15.225-18.554 16.337-1.605 10.949 50.35-16.007 70.344-17.386 100.218-6.972 35.371 12.331 111.31-1.436 111.31-20.173 0-3.199-1.975-4.685-5.63-4.48z"></path>
<path d="M566.279 34.452c-0.711 0.108-1.415 0.344-2.060 0.743-5.161 3.19-26.189 59.203-46.743 124.464s-57.9 166.726-82.992 225.472c-53.571 125.422-174.909 349.6-183.856 339.681-1.429-1.584 3.576-97.366 11.117-212.822 18.383-281.453 18.425-327.678 0.335-327.678-7.919 0-21.271 19.596-29.684 43.532-115.864 329.613-190.265 554.236-185.917 561.272 2.964 4.795 10.989 6.973 17.849 4.864s44.718-6.5 84.142-9.775c91.872-7.632 66.401 9.411-28.822 19.286-45.848 4.755-71.701 12.267-75.397 21.898-8.837 23.029 17.051 74.227 49.043 97.007l29.133 20.772 91.042-31.266c66.744-22.917 109.843-31.289 161.503-31.361 70.51-0.099 261.708 18.408 290.639 28.127 22.523 7.566-59.173 43.060-99.858 43.389-18.304 0.148-33.278 5.277-33.278 11.404 0 14.725 76.708 2.083 117.755-19.406 16.896-8.845 49.155-19.232 71.683-23.096l40.969-7.044-81.914-3.378 28.151-15.285c15.488-8.402 28.151-18.72 28.151-22.928 0-15.552 76.762-86.018 114.88-105.465 21.654-11.047 67.693-25.818 102.302-32.823 66.484-13.456 92.991-37.39 42.239-38.142-26.979-0.4-42.298-22.375-218.452-313.399-104.192-172.136-192.857-322.015-197.033-333.045-3.654-9.651-9.949-15.756-14.926-14.998zM552.719 102.398c0.039 2.816-9.020 138.763-20.149 302.091s-20.321 302.38-20.413 309.015c-0.097 6.993-22.741 14.372-53.906 17.561-29.568 3.026-86.679 7.319-126.907 9.535l-73.145 4.025 44.826-73.864c71.275-117.399 163.738-317.275 208.437-450.608 22.657-67.584 41.217-120.571 41.256-117.755zM588.8 129.782c14.956 2.601 43.137 113.511 51.486 202.616 3.979 42.464 4.833 77.194 1.893 77.194s-19.79-25.592-37.447-56.877c-29.794-52.791-31.885-62.922-29.133-140.803 1.721-48.717 7.256-83.163 13.201-82.129zM628.283 167.037c1.157-1.157 61.6 95.572 134.31 214.954s138.747 227.414 146.769 240.086c18.177 28.716 11.41 28.519-62.196-1.749-77.501-31.87-125.809-69.685-162.174-127.027-25.898-40.837-29.664-56.522-29.804-124.104-0.088-42.545-6.653-104.973-14.591-138.719s-13.471-62.285-12.315-63.442zM243.489 257.887c0.128-0.031 0.197 0.069 0.24 0.288 1.775 9.215-3.943 119.371-12.722 244.782s-15.956 233.837-15.956 240.949c0 7.112-14.974 15.211-33.278 17.993-72.53 11.023-120.346 14.071-120.51 7.691-0.51-19.818 174.193-509.767 182.227-511.702zM586.404 352.379c1.312-1.238 46.69 76.802 100.817 173.41l98.397 175.639-52.325 7.379c-28.782 4.049-66.683 9.416-84.238 11.931l-31.936 4.576-5.606-150.171c-3.086-82.596-10.539-166.003-16.555-185.342s-9.865-36.185-8.553-37.423zM569.13 353.29l13.608 56.302c7.483 30.976 14.902 119.689 16.483 197.129l2.875 140.803h-58.818l6.061-99.834c3.338-54.912 9.161-143.625 12.938-197.129zM736.144 581.061l44.083 25.444c24.247 13.985 65.927 33.609 92.599 43.604 44.712 16.755 77.804 41.309 68.161 50.576-2.211 2.124-33.973 6.632-70.581 10.039l-66.556 6.205-33.853-67.922zM506.91 750.183c7.304 0.117 11.614 0.449 12.147 0.982 2.132 2.132-48.122 9.44-111.67 16.268s-125.927 14.868-138.599 17.849c-15.817 3.721-23.024 0.76-23.024-9.464 0-11.93 26.784-16.269 134.694-21.73 55.566-2.812 104.541-4.256 126.452-3.905zM320.059 932.41c-18.434-1.252-44.107 4.589-67.131 16.795-18.024 9.555-58.101 23.007-89.077 29.876-50.706 11.243-52.625 12.572-19.167 13.345 20.439 0.472 63.299-11.111 95.234-25.731 38.79-17.759 66.662-24.428 83.998-20.077 16.768 4.209 23.636 2.761 19.382-4.121-3.72-6.019-12.179-9.335-23.24-10.086zM219.65 936.843c-3.655 0.205-8.993 2.105-15.669 5.678-13.627 7.293-47.726 8.99-94.707 4.72-60.094-5.462-77.155-3.596-93.917 10.278-18.394 15.225-18.554 16.337-1.605 10.949 50.35-16.007 70.344-17.386 100.218-6.972 35.371 12.331 111.31-1.436 111.31-20.173 0-3.199-1.975-4.685-5.63-4.48z"></path>
<path d="M565.321 47.054c-1.112-0.158-2.045 0.137-2.803 0.91-4.511 4.6-29.45 73.272-55.416 152.615-48.321 147.653-147.791 365.345-214.762 470.039-20.64 32.265-35.518 60.675-33.062 63.13 7.087 7.087 92.762-144.335 154.435-272.957 31.056-64.768 75.316-173.053 98.373-240.637l41.927-122.882-5.75 71.683c-3.159 39.424-12.746 179.729-21.323 311.794s-17.464 242.002-19.742 244.279c-8.327 8.327-246.344 19.543-254.701 12.003-4.741-4.277-0.869-128.43 8.601-275.904s14.806-270.561 11.859-273.508c-10.688-10.688-25.608 7.874-40.585 50.48-8.412 23.929-54.846 157.899-103.189 297.706l-87.879 254.198 91.976-7.211c60.672-4.746 92-3.616 92 3.306 0 5.772-36.105 13.679-80.236 17.585s-85.937 10.64-92.91 14.95c-18.293 11.305 9.251 72.907 45.281 101.248 30.555 24.034 38.428 26.308 50.217 14.519 4.224-4.224 10.74-8.092 14.495-8.601s23.959-8.574 44.898-17.921c20.939-9.347 44.867-16.986 53.164-16.986s17.836-4.471 21.203-9.919c3.367-5.448 19.763-7.169 36.441-3.833 19.229 3.846 30.331 1.843 30.331-5.462 0-7.090 20.674-11.453 53.763-11.356 31.992 0.093 48.396 3.553 40.514 8.553-7.337 4.655 12.715 6.245 44.97 3.57 41.405-3.434 56.194-1.499 51.151 6.66-4.929 7.975 2.422 9.564 24.126 5.223 17.863-3.573 31.242-1.947 31.242 3.809 0 5.666 27.275 9.363 62.435 8.457 47.849-1.232 64.79-5.806 72.522-19.622 40.399-72.189 135.944-134.159 225.041-145.978 27.085-3.593 54.482-12.869 60.902-20.604s9.956-14.037 7.858-13.992c-2.098 0.045-58.734 6.935-125.877 15.309s-124.359 12.946-127.147 10.158c-2.788-2.788 2.616-5.055 12.003-5.055 23.273 0 22.255-4.109-19.286-78.392-19.988-35.741-33.711-64.975-30.499-64.975s23.562 11.725 45.233 26.067c21.672 14.342 63.93 35.406 93.893 46.791s60.139 28.437 67.059 37.902c6.921 9.465 15.294 14.486 18.616 11.165s-66.156-124.474-154.411-269.244c-114.844-188.384-163.179-259.457-170.008-249.957-6.851 9.529-7.875 8.096-3.618-5.079 6.615-20.472-46.641-121.663-63.322-124.032zM578.833 97.271l17.993 33.182c26.639 49.11 51.12 181.882 46.168 250.341-4.236 58.557-2.669 62.866 69.335 190.277l73.672 130.357-52.517 7.379c-28.888 4.049-67.491 9.51-85.795 12.147l-33.278 4.792-0.072-109.418c-0.054-98.545-9.338-190.046-25.492-251.227-3.202-12.127 3.866-4.354 15.717 17.298s23.71 37.216 26.354 34.572c2.644-2.644-10.916-31.888-30.14-64.975-34.903-60.074-34.928-60.287-28.439-157.43zM637.507 188.504c2.551-2.551 61.471 88.779 130.932 202.951s132.865 217.951 140.899 230.623c18.206 28.717 11.434 28.52-62.172-1.749-77.501-31.87-125.809-69.685-162.174-127.027-25.678-40.49-29.636-56.683-29.636-121.038 0-40.86-5.054-97.89-11.236-126.716s-9.163-54.494-6.613-57.045zM243.489 257.887c0.128-0.031 0.197 0.069 0.24 0.288 1.775 9.215-3.943 119.371-12.722 244.782s-15.956 233.837-15.956 240.949c0 7.112-14.974 15.211-33.278 17.993-72.53 11.023-120.346 14.071-120.51 7.691-0.51-19.818 174.193-509.767 182.227-511.702zM566.71 343.035l14.471 46.096c8.064 25.681 16.957 111.792 20.101 194.542 3.489 91.809 10.001 151.365 17.058 156.017 7.509 4.95 6.176 7.604-3.929 7.786-8.448 0.153-88.813 9.454-178.585 20.652-194.876 24.308-201.25 24.513-194.326 6.469 5.563-14.498 113.814-26.906 235.894-27.025l62.699-0.048 6.589-115.216c3.63-63.36 9.629-154.36 13.321-202.232zM705.717 728.309c3.557 0.147 6.612 1.078 8.314 2.779 3.403 3.403-2.646 5.835-13.441 5.391-11.929-0.491-14.35-2.936-6.181-6.205 3.696-1.479 7.751-2.111 11.308-1.965zM80.692 943.383c-5.568-0.069-11.526 0.547-16.507 1.845-9.963 2.596-4.27 4.894 12.626 5.103s25.045-1.915 18.112-4.72c-3.466-1.402-8.663-2.159-14.231-2.228zM250.892 952.631c-5.632 0-17.163 4.459-25.611 9.919s-10.759 9.943-5.127 9.943c5.632 0 17.163-4.483 25.611-9.943s10.759-9.919 5.127-9.919zM152.375 984.352c-5.568-0.069-11.526 0.523-16.507 1.821-9.963 2.596-4.294 4.894 12.602 5.103s25.069-1.915 18.136-4.72c-3.466-1.402-8.663-2.135-14.231-2.204z"></path>
<path d="M571.981 35.842l-15.118 20.484c-8.315 11.264-12.8 29.392-9.967 40.298 5.413 20.836-32.493 621.197-39.675 628.379-8.525 8.525-246.465 19.478-255.012 11.74-5.020-4.545-1.645-121.087 7.739-267.423 19.648-306.392 19.227-285.008 5.774-285.008-10.946 0-32.911 45.78-44.227 92.168-5.209 21.353-3.789 20.496 8.553-5.127 14.755-30.633 14.801-30.649 15.261-4.528 0.77 43.687-31.41 485.253-35.674 489.517-5.138 5.138-141.917 19.964-146.769 15.908-2.025-1.693 8.308-38.719 22.952-82.273s24.863-80.937 22.712-83.088c-2.15-2.15-17.813 37.554-34.811 88.239l-30.906 92.144 98.229-4.384c54.031-2.423 101.166-9.125 104.722-14.878 3.571-5.778 70.923-13.391 150.482-17.010l144.014-6.541 6.565-123.912c9.492-179.427 18.084-274.088 24.318-267.854 14.663 14.663 32.295 156.748 32.631 262.919l0.383 119.001 38.405 6.349c21.12 3.491 49.913 5.851 63.993 5.247 23.85-1.024 23.493-1.675-5.127-9.464-21.030-5.723-8.101-7.104 40.969-4.384 50.175 2.781 62.472 1.409 40.969-4.576-25.343-7.053-26.698-8.776-7.691-9.775 12.672-0.666 23.048-3.903 23.048-7.211s-16.531-35.568-36.728-71.683c-20.197-36.115-33.92-65.67-30.499-65.67s23.696 11.558 45.042 25.683c21.346 14.126 62.823 34.148 92.192 44.491s59.818 27.563 67.658 38.285c7.841 10.723 16.773 16.984 19.861 13.896s-66.471-124.14-154.579-269.004c-112.839-185.525-162.965-259.536-169.577-250.365-6.589 9.14-7.616 7.548-3.45-5.343 3.364-10.41-4.306-34.809-17.705-56.326-13-20.876-27.075-47.17-31.29-58.434zM579.983 97.271l21.634 46.096c11.891 25.344 26.828 76.154 33.206 112.916s10.153 89.749 8.385 117.755l-3.21 50.911-74.942-135.556 7.475-96.049zM541.77 117.899c-3.252-1.199-46.020 115.899-66.436 182.395-3.759 12.243-3.911 19.517-0.335 16.172 8.477-7.931 67.944-183.887 66.94-198.064-0.021-0.291-0.063-0.464-0.168-0.503zM637.507 188.504c2.551-2.551 61.471 88.779 130.932 202.951s132.865 217.951 140.899 230.623c18.206 28.717 11.434 28.52-62.172-1.749-77.501-31.87-125.809-69.685-162.174-127.027-25.678-40.49-29.636-56.683-29.636-121.038 0-40.86-5.054-97.89-11.236-126.716s-9.163-54.494-6.613-57.045zM469.919 332.206c-2.215-0.726-19.597 31.977-40.418 76.283-22.209 47.26-39.986 88.74-39.507 92.168 1.334 9.541 80.476-156.17 80.165-167.852-0.009-0.352-0.092-0.551-0.24-0.599zM586.404 352.379c1.312-1.238 46.69 76.802 100.817 173.41l98.397 175.639-52.325 7.379c-28.782 4.049-66.683 9.416-84.238 11.931l-31.936 4.576-5.606-150.171c-3.086-82.596-10.539-166.003-16.555-185.342s-9.865-36.185-8.553-37.423zM190.445 371.354c-2.205-2.205-16.689 34.302-32.176 81.123s-30.511 92.033-33.398 100.481c-2.887 8.448-2.168 12.617 1.605 9.272 9.446-8.375 68.942-185.903 63.969-190.876zM385.537 512.421c-3.789 2.098-20.827 28.918-45.233 73.816-22.197 40.832-50.705 91.532-63.346 112.652s-20.747 38.381-18.017 38.381c5.814 0 76.808-118.808 108.603-181.748 15.865-31.405 20.939-44.733 17.993-43.101zM998.679 702.866c-27.228-1.107-82.087 6.36-85.268 14.375-1.686 4.249-22.414 6.039-46.072 4.001-34.664-2.987-37.047-2.244-12.291 3.785l30.715 7.475-35.842 14.782c-19.712 8.132-64.898 44.165-100.409 80.069-43.546 44.027-69.799 63.267-80.644 59.105-40.573-15.57-198.363-36.536-274.898-36.536-87.472 0-195.567 25.557-235.391 55.655-11.184 8.453-25.473 15.514-31.745 15.693-20.382 0.582-65.406-53.013-65.406-77.865 0-13.312-4.598-24.198-10.23-24.198-13.347 0-12.965 4.363 3.881 44.682 7.766 18.585 26.812 43.781 42.334 55.991 31.367 24.673 41.712 27.088 51.079 11.931 11.732-18.982 92.742-49.782 163.204-62.052 77.731-13.536 187.397-7.163 292.459 16.986 36.608 8.415 76.115 12.889 87.783 9.967s40.83-28.561 64.807-56.997c46.822-55.529 115.795-96.595 180.79-107.621 58.923-9.995 76.211-15.655 76.211-24.965 0-2.565-5.994-3.896-15.070-4.265zM604.157 748.77c-6.496 0-12.993 0.653-17.921 1.941-9.856 2.576-1.791 4.672 17.921 4.672s27.777-2.096 17.921-4.672c-4.928-1.288-11.425-1.941-17.921-1.941zM522.244 759c-6.496 0-12.993 0.653-17.921 1.941-9.856 2.576-1.791 4.672 17.921 4.672s27.777-2.096 17.921-4.672c-4.928-1.288-11.425-1.941-17.921-1.941zM438.989 769.23c-7.424-0.038-15.218 0.548-21.586 1.773-12.738 2.449-4.727 4.534 17.801 4.648s32.958-1.893 23.168-4.456c-4.895-1.282-11.958-1.927-19.382-1.965zM348.162 779.484c-6.496 0-12.993 0.653-17.921 1.941-9.856 2.576-1.791 4.672 17.921 4.672s27.777-2.096 17.921-4.672c-4.928-1.288-11.425-1.941-17.921-1.941zM275.257 789.786c-5.568-0.069-11.526 0.547-16.507 1.845-9.963 2.596-4.294 4.894 12.602 5.103s25.045-1.915 18.112-4.72c-3.466-1.402-8.639-2.159-14.207-2.228zM184.311 799.969c-6.496 0-12.993 0.653-17.921 1.941-9.856 2.576-1.791 4.672 17.921 4.672s27.777-2.096 17.921-4.672c-4.928-1.288-11.425-1.941-17.921-1.941zM101.176 810.271c-5.568-0.069-11.526 0.547-16.507 1.845-9.963 2.596-4.294 4.871 12.602 5.079s25.045-1.915 18.112-4.72c-3.466-1.402-8.639-2.135-14.207-2.204zM143.367 984.376c-4.64 0-9.298 0.712-12.818 2.132-7.040 2.841-1.262 5.151 12.818 5.151s19.834-2.31 12.794-5.151c-3.52-1.42-8.154-2.132-12.794-2.132z"></path>
<path d="M571.095 41.136c-2.812-0.115-6.47 4.678-13.536 14.279-8.15 11.072-11.798 29.936-8.409 43.436 5.729 22.825-23.331 568.046-32.775 614.939-4.104 20.38-11.81 22.952-78.703 26.139l-74.151 3.522 179.208 4.073 0.192-38.405c0.389-70.891 19.939-343.794 25.995-362.873 3.295-10.381 10.745-15.93 16.555-12.339s3.495-4.412-5.151-17.777c-12.823-19.823-14.321-42.212-8.194-121.565 6.838-88.558 8.673-94.902 20.628-70.821 7.223 14.549 19.24 26.45 26.69 26.45 9.504 0 6.73-10.957-9.296-36.704-12.562-20.181-26.284-45.901-30.499-57.165-3.759-10.045-5.742-15.074-8.553-15.19zM271.831 184.455c-1.583-0.397-3.667 0.943-6.229 1.797-5.987 1.996-12.799 35.78-15.118 75.085-15.443 261.761-26.479 425.538-31.218 463.139-5.429 43.074-5.919 43.545-48.372 45.137l-42.885 1.605 51.199 6.301c35.452 4.356 54.683 2.283 62.555-6.732 6.253-7.161 33.914-13.863 61.453-14.878l50.073-1.845-49.186-3.857c-29.902-2.345-51.363-9.506-54.721-18.256-3.038-7.916 1.842-128.611 10.853-268.214 15.726-243.619 18.457-277.563 11.596-279.282zM639.664 250.484c-1.852-0.69-3.162 5.205-3.162 15.765 0 14.080 2.31 19.834 5.151 12.794s2.841-18.571 0-25.611c-0.71-1.76-1.371-2.717-1.989-2.947zM652.29 332.805l-6.445 46.072c-3.547 25.344-4.671 51.85-2.492 58.89 8.298 26.807 11.953 10.693 10.47-46.096zM587.41 392.653c-1.552-0.235-2.616 3.517-2.923 10.973-0.445 10.795 1.988 16.843 5.391 13.441s3.749-12.23 0.791-19.622c-1.226-3.063-2.327-4.651-3.258-4.792zM598.695 445.050c-1.852-0.69-3.163 5.181-3.163 15.741 0 14.080 2.334 19.858 5.175 12.818s2.841-18.571 0-25.611c-0.71-1.76-1.395-2.717-2.012-2.947zM697.786 533.025c-0.954 0.767 1.855 6.341 7.643 17.37 6.65 12.672 16.372 23.048 21.61 23.048s31.337 13.819 57.979 30.715c26.642 16.896 53.020 30.715 58.626 30.715s-17.187-16.475-50.648-36.608c-33.461-20.134-69.561-44.304-80.236-53.739-9.292-8.211-14.020-12.267-14.974-11.5zM609.835 579.744c-1.53-1.518-2.611 11.436-2.611 34.668 0 30.976 1.918 43.639 4.265 28.151s2.346-40.838 0-56.326c-0.587-3.872-1.143-5.987-1.653-6.493zM865.615 636.046c-5.221 0-4.568 3.032 4.792 9.080 8.448 5.46 22.267 9.677 30.715 9.368 10.128-0.371 8.377-3.565-5.127-9.368-14.075-6.048-25.158-9.080-30.379-9.080zM932.315 650.612c-0.724 0.013-1.386 0.202-1.989 0.575-4.824 2.981-4.001 14.354 1.845 25.276 15.687 29.312 32.055 24.502 18.424-5.415-5.543-12.165-13.215-20.533-18.28-20.436zM789.331 701.356c-1.836 0.201-3.854 0.699-5.966 1.509-8.448 3.242-15.357 7.705-15.357 9.919s6.909 4.025 15.357 4.025c8.448 0 15.357-4.464 15.357-9.919 0-4.091-3.884-6.137-9.392-5.534zM998.679 702.866c-27.228-1.107-82.087 6.36-85.268 14.375-1.686 4.249-22.414 6.039-46.072 4.001-34.664-2.987-37.047-2.244-12.291 3.785l30.715 7.475-35.842 14.782c-19.712 8.132-64.898 44.165-100.409 80.069-43.546 44.027-69.799 63.267-80.644 59.105-40.573-15.57-198.363-36.536-274.898-36.536-87.472 0-195.567 25.557-235.391 55.655-11.184 8.453-25.473 15.514-31.745 15.693-20.382 0.582-65.406-53.013-65.406-77.865 0-13.312-4.598-24.198-10.23-24.198-13.347 0-12.965 4.363 3.881 44.682 7.766 18.585 26.812 43.781 42.334 55.991 31.367 24.673 41.712 27.088 51.079 11.931 11.732-18.982 92.742-49.782 163.204-62.052 77.731-13.536 187.397-7.163 292.459 16.986 36.608 8.415 76.115 12.889 87.783 9.967s40.83-28.561 64.807-56.997c46.822-55.529 115.795-96.595 180.79-107.621 58.923-9.995 76.211-15.655 76.211-24.965 0-2.565-5.994-3.896-15.070-4.265zM731.879 721.745c-19.469-0.532-41.403 0.104-61.166 2.036-58.535 5.725-66.031 8.315-40.945 14.159 16.896 3.936 46.844 7.164 66.556 7.164h35.842l-30.739-8.361c-20.886-5.684-7.766-7.032 40.969-4.217 59.483 3.436 65.583 2.434 35.842-5.822-9.881-2.743-26.89-4.427-46.359-4.959zM604.157 748.77c-6.496 0-12.993 0.653-17.921 1.941-9.856 2.576-1.791 4.672 17.921 4.672s27.777-2.096 17.921-4.672c-4.928-1.288-11.425-1.941-17.921-1.941zM522.244 759c-6.496 0-12.993 0.653-17.921 1.941-9.856 2.576-1.791 4.672 17.921 4.672s27.777-2.096 17.921-4.672c-4.928-1.288-11.425-1.941-17.921-1.941zM438.989 769.23c-7.424-0.038-15.218 0.548-21.586 1.773-12.738 2.449-4.727 4.534 17.801 4.648s32.958-1.893 23.168-4.456c-4.895-1.282-11.958-1.927-19.382-1.965zM80.596 779.46c-7.424-0.038-15.218 0.548-21.586 1.773-12.738 2.449-4.727 4.558 17.801 4.672s32.934-1.893 23.144-4.456c-4.895-1.281-11.934-1.951-19.358-1.989zM348.162 779.485c-6.496 0-12.993 0.653-17.921 1.941-9.856 2.576-1.791 4.672 17.921 4.672s27.777-2.096 17.921-4.672c-4.928-1.288-11.425-1.941-17.921-1.941zM275.257 789.787c-5.568-0.069-11.526 0.547-16.507 1.845-9.963 2.596-4.294 4.894 12.602 5.103s25.045-1.915 18.112-4.72c-3.466-1.402-8.639-2.159-14.207-2.228zM184.311 799.969c-6.496 0-12.993 0.653-17.921 1.941-9.856 2.576-1.791 4.672 17.921 4.672s27.777-2.096 17.921-4.672c-4.928-1.288-11.425-1.941-17.921-1.941zM101.176 810.271c-5.568-0.069-11.526 0.547-16.507 1.845-9.963 2.596-4.294 4.871 12.602 5.079s25.045-1.915 18.112-4.72c-3.466-1.403-8.639-2.136-14.207-2.205zM143.367 984.376c-4.64 0-9.298 0.712-12.818 2.132-7.040 2.841-1.262 5.151 12.818 5.151s19.834-2.31 12.794-5.151c-3.52-1.42-8.154-2.132-12.794-2.132z"></path>
<path d="M569.609 42.262c-1.213 0.198-3.466 2.031-6.852 5.391-8.070 8.005-8.711 17.529-1.989 29.541 6.082 10.869 6.381 30.057 0.791 49.618-10.075 35.255-48.957 600.67-42.167 613.19 12.974 23.923 24.406-13.948 23.527-77.936-1.762-128.309 10.644-318.889 20.987-322.503 5.891-2.058 7.294-23.897 3.402-53.235-7.653-57.691 3.677-183.928 16.507-183.928 4.804 0 11.767 9.563 15.477 21.251s8.813 19.17 11.356 16.627c8.823-8.823-30.395-77.915-40.633-71.587-6.405 3.959-7.474-1.052-2.827-13.249 3.539-9.29 4.441-13.507 2.42-13.177zM259.037 188.073c-3.033 0.283-5.785 2.67-8.577 7.188-5.065 8.196-3.668 10.1 3.953 5.391 6.502-4.019 11.835-1.656 11.835 5.247s3.147 9.407 6.996 5.558c3.849-3.849 2.052-11.94-3.977-17.969-3.894-3.894-7.197-5.697-10.23-5.415zM255.947 302.234c-4.252 0.733-12.485 80.205-18.999 185.246-6.948 112.044-15.235 223.314-18.424 247.25s-1.821 43.508 3.043 43.508c4.863 0 10.009-10.376 11.452-23.048 4.047-35.541 11.679-146.481 17.082-248.304 2.69-50.688 6.892-112.896 9.344-138.24s1.235-54.81-2.707-65.478c-0.246-0.667-0.507-0.983-0.791-0.934zM699.967 535.133c-1.33 0.562-0.373 4.233 2.324 11.26 3.547 9.245 10.567 16.795 15.597 16.795 13.168 0 11.324-5.905-6.445-20.652-6.52-5.411-10.146-7.966-11.476-7.403zM930.661 655.356c-5.077 0-3.616 9.021 3.258 20.029s13.939 18.573 15.693 16.819c6.070-6.070-9.758-36.848-18.951-36.848zM789.331 701.356c-1.836 0.201-3.854 0.699-5.966 1.509-8.448 3.242-15.357 7.705-15.357 9.919s6.909 4.025 15.357 4.025c8.448 0 15.357-4.464 15.357-9.919 0-4.091-3.884-6.137-9.392-5.534zM705.333 718.103c-5.568-0.069-11.526 0.547-16.507 1.845-9.963 2.596-4.294 4.894 12.602 5.103s25.069-1.915 18.136-4.72c-3.466-1.402-8.663-2.159-14.231-2.228zM961.328 718.103c-5.568-0.069-11.502 0.547-16.483 1.845-9.963 2.596-4.294 4.894 12.602 5.103s25.045-1.915 18.113-4.72c-3.466-1.402-8.663-2.159-14.231-2.228zM911.351 727.926c-8.448-0.31-22.267 3.884-30.715 9.344-18.718 12.097-2.539 12.097 25.611 0 13.504-5.803 15.231-8.973 5.103-9.344zM624.642 728.357c-4.64 0-9.274 0.712-12.794 2.132-7.040 2.841-1.286 5.175 12.794 5.175s19.834-2.334 12.794-5.175c-3.52-1.42-8.154-2.132-12.794-2.132zM428.83 738.42c-11.136-0.018-22.638 0.538-31.841 1.677-18.405 2.279-5.833 4.183 27.959 4.241s48.857-1.808 33.47-4.145c-7.694-1.168-18.453-1.754-29.589-1.773zM852.917 747.524c-6.492 0-34.273 21.883-61.741 48.635s-33.547 34.354-13.513 16.891c20.034-17.463 47.815-39.347 61.741-48.635s20.005-16.891 13.512-16.891zM275.257 748.818c-5.568-0.069-11.526 0.547-16.507 1.845-9.963 2.596-4.294 4.894 12.602 5.103s25.045-1.915 18.112-4.72c-3.466-1.402-8.639-2.159-14.207-2.228zM163.851 769.254c-6.496 0-12.993 0.629-17.921 1.917-9.856 2.576-1.791 4.696 17.921 4.696s27.777-2.12 17.921-4.696c-4.928-1.288-11.425-1.917-17.921-1.917zM71.683 779.556c-4.64 0-9.274 0.712-12.794 2.132-7.040 2.841-1.286 5.175 12.794 5.175s19.834-2.334 12.794-5.175c-3.52-1.42-8.154-2.132-12.794-2.132zM399.361 851.048c-12.064 0-24.126 0.565-33.278 1.701-18.304 2.272-3.33 4.145 33.278 4.145s51.582-1.873 33.278-4.145c-9.152-1.136-21.214-1.701-33.278-1.701zM285.871 861.422c-3.557-0.147-7.612 0.51-11.308 1.989-8.169 3.269-5.748 5.69 6.181 6.181 10.795 0.445 16.843-1.964 13.441-5.367-1.701-1.701-4.756-2.657-8.314-2.803zM522.244 861.494c-4.64 0-9.274 0.712-12.794 2.132-7.040 2.841-1.286 5.151 12.794 5.151s19.834-2.31 12.794-5.151c-3.52-1.42-8.154-2.132-12.794-2.132zM583.673 871.724c-4.64 0-9.274 0.712-12.794 2.132-7.040 2.841-1.286 5.175 12.794 5.175s19.858-2.334 12.818-5.175c-3.52-1.42-8.178-2.132-12.818-2.132zM723.853 871.82c-0.517 0.093-1.618 0.691-3.354 1.845-6.945 4.615-25.6 12.277-41.448 17.034-23.368 7.014-24.665 8.822-6.9 9.535 12.048 0.484 30.703-7.178 41.448-17.034 8.059-7.392 11.806-11.659 10.254-11.38zM56.326 879.151l28.726 26.33c26.502 24.303 37.83 31.251 37.83 23.168 0-1.757-14.974-13.62-33.278-26.354zM634.033 881.906c-3.557-0.147-7.612 0.51-11.308 1.989-8.169 3.269-5.748 5.69 6.181 6.181 10.795 0.445 16.843-1.988 13.441-5.391-1.701-1.701-4.756-2.633-8.314-2.779zM172.452 904.403c-3.12-0.166-10.407 2.427-18.855 6.948-11.264 6.028-20.484 13.284-20.484 16.1s9.22 0.183 20.484-5.846c11.264-6.028 20.484-13.26 20.484-16.076 0-0.704-0.589-1.071-1.629-1.126z"></path>
</svg>
