<!-- Generated by IcoMoon.io -->
<svg version="1.1" xmlns="http://www.w3.org/2000/svg" width="1024" height="1024" viewBox="0 0 1024 1024">
<title>jira</title>
<g id="icomoon-ignore">
</g>
<path d="M416.914 1016.685c-20.297-1.685-44.605-7.132-70.039-15.696-145.089-48.853-256.937-152.502-315.412-292.29-24.972-59.698-31.539-100.378-31.458-194.871 0.090-104.774 9.821-154.753 44.264-227.363 69.33-146.156 233.434-267.434 378.131-279.452 48.289-4.011 126.436-3.916 171.886 0.209 64.988 5.898 156.766 44.504 221.765 93.287 38.387 28.81 94.254 86.729 118.074 122.411 35.675 53.439 64.879 121.386 77.058 179.284 8.724 41.473 7.701 190.027-1.574 228.653-27.865 116.038-96.421 219.636-193.706 292.722-64.776 48.663-156.66 87.304-221.617 93.199-41.64 3.779-131.293 3.732-177.371-0.093zM575.947 968.976c63.123-7.231 150.817-43.889 209.113-87.413 15.76-11.767 41.82-35.138 57.912-51.935l29.257-30.541-16.457-1.195c-9.051-0.657-25.422-0.087-36.378 1.267-17.38 2.149-21.811 4.497-34.743 18.41-8.152 8.771-22.411 19.153-31.687 23.071s-29.024 18.181-43.886 31.696c-40.578 36.902-76.311 49.429-94.371 33.085-15.523-14.048-10.957-26.916 32.304-91.041 36.149-53.583 40.341-61.53 44.331-84.030 2.423-13.668 3.78-25.476 3.015-26.242-2.835-2.835-64.029-2.995-79.026-0.207-9.786 1.819-21.326 1.263-31.207-1.503-12.66-3.545-23.467-3.304-56.124 1.251-66.851 9.324-89.839 2.424-140.299-42.113-24.454-21.583-30.936-25.575-38.466-23.685-15.116 3.794-32.811-6.553-49.242-28.794-15.827-21.425-28.446-30.108-38.272-26.338-14.304 5.489-0.657 36.504 29.012 65.937 16.453 16.322 20.127 22.212 20.127 32.27 0 15.664-8.607 27.945-24.132 34.432-26.107 10.908-48.617 4.102-79.749-24.111l-23.939-21.694-17.462 5.441c-35.115 10.941-57.671 16.206-69.43 16.206-7.197 0-12.024 1.837-12.014 4.571 0.030 7.745 24.957 53.661 44.969 82.834 66.651 97.161 195.959 177.046 307.927 190.231 37.329 4.396 101.2 4.46 138.918 0.139zM554.057 770.305c-24.765-10.631-27.429-12.626-27.429-20.545 0-17.441 23.368-23.475 49.165-12.696 12.737 5.322 14.202 5.194 26.347-2.312 11.606-7.173 13.411-7.396 18.519-2.288 7.652 7.652 3.571 22.61-9.823 36.005-12.877 12.877-29.786 13.424-56.78 1.836zM741.686 603.352c57.905-11.462 103.956-38.022 123.375-71.158 12.798-21.837 16.912-37.72 14.149-54.619-4.565-27.923-47.835-59.655-91.095-66.805-10.404-1.72-11.539-0.614-21.943 21.365-13.345 28.194-25.014 34.606-41.15 22.611-13.722-10.2-14.383-23.549-2.547-51.399 7.881-18.543 9.506-26.913 7.873-40.557-4.628-38.678-45.226-139.101-71.918-177.897-22.527-32.741-51.4-39.576-115.744-27.398-40.948 7.75-47.098 7.998-105.423 4.253-52.456-3.368-63.504-3.167-72.167 1.313-10.751 5.56-18.55 17.906-22.898 36.251-2.098 8.85-1.702 10.087 2.047 6.4 7.057-6.941 19.316-5.492 30.927 3.657 9.268 7.303 15.833 8.442 58.352 10.121 53.497 2.114 67.506 7.069 67.506 23.882 0 11.338-6.543 14.032-47.338 19.496-16.985 2.275-37.664 7.419-45.955 11.433s-18.517 7.297-22.726 7.297c-9.264 0-39.773-28.806-45.43-42.895-4.058-10.106-4.083-10.083-9.011 8.152-2.718 10.057-4.973 26.139-5.012 35.738-0.068 16.805 0.559 17.851 16.904 28.217 18.659 11.833 45.318 21.308 92.74 32.96 83.856 20.604 97.586 28.751 115.795 68.709 6.873 15.083 15.723 31.524 19.665 36.536 10.526 13.381 9.484 33.935-2.279 44.975-8.236 7.729-12.81 8.842-35.657 8.677-58.986-0.425-198.446-50.607-246.083-88.549-19.576-15.592-37.956-45.806-37.956-62.395v-8.897l-33.829 2.543c-54.006 4.060-73.794 17.324-66.889 44.835 3.84 15.3 58.484 67.207 97.060 92.199 83.706 54.23 191.701 98.843 288.914 119.352 63.151 13.323 145.305 13.953 207.743 1.594zM558.324 220.648c-5.805-5.804-1.657-15.284 8.533-19.505 20.478-8.482 11.915-13.729-25.313-15.509-44.873-2.146-14.482-21.826 34.455-22.312 33.827-0.336 53.595 5.31 63.739 18.205 16.040 20.392-11.851 41.559-54.761 41.559-13.319 0-25.313-1.097-26.654-2.438z"></path>
<path d="M425.955 1016.894c-33.342-3.861-75.382-15.507-114.647-31.761-158.289-65.524-282.203-218.274-306.076-377.302-6.914-46.055-6.742-144.337 0.334-191.448 24.525-163.285 150.817-316.266 314.637-381.127 65.686-26.007 87.65-29.451 188.141-29.497 86.269-0.040 90.936 0.328 125.538 9.888 98.012 27.080 177.798 74.456 246.116 146.14 68.066 71.42 112.572 158.054 130.941 254.888 8.789 46.332 7.916 154.857-1.623 201.663-19.272 94.57-60.777 172.271-131.529 246.234-66.043 69.041-147.529 117.247-241.966 143.145-30.373 8.33-42.645 9.54-109.191 10.769-41.234 0.761-86.537 0.045-100.674-1.591zM594.902 968.892c50.105-7.81 117.558-35.751 172.146-71.307 31.733-20.67 107.009-90.653 107.009-99.485 0-5.523-25.643-5.931-56.686-0.903-18.722 3.032-23.496 5.476-32.525 16.648-5.82 7.202-20.609 18.156-32.864 24.342s-33.002 21.070-46.103 33.075c-25.519 23.382-54.050 39.273-70.616 39.331-11.786 0.041-28.177-14.408-28.177-24.84 0-3.807 13.972-27.334 31.050-52.281 45.406-66.33 49.503-73.831 55.2-101.058 2.849-13.615 5.179-26.427 5.179-28.471 0-3.19-17.469-5.228-54.857-6.401-5.029-0.158-15.805 1.393-23.948 3.445-10.818 2.727-19.683 2.469-32.914-0.958-15.152-3.925-24.379-3.771-56.509 0.938-66.816 9.794-90.593 2.788-139.801-41.192-27.196-24.307-31.413-26.827-41.698-24.913-16.292 3.031-30.452-5.594-48.559-29.576-8.522-11.288-19.599-22.083-24.615-23.991-11.946-4.542-23.27 1.494-23.27 12.403 0 11.983 20.033 42.217 38.743 58.472 13.855 12.036 16.114 15.981 16.114 28.139 0 20.54-11.946 33.018-33.992 35.502-24.008 2.706-44.743-6.1-66.588-28.278-20.44-20.752-27.936-22.286-55.627-11.384-9.629 3.791-28.811 8.65-42.627 10.797s-26.075 4.858-27.241 6.025c-1.166 1.166 3.301 13.176 9.927 26.689 68.931 140.566 216.894 242.865 366.092 253.11 43.757 3.005 104.589 1.292 137.759-3.878zM565.029 771.188c-10.057-4.15-21.989-8.998-26.514-10.774s-8.229-6.226-8.229-9.89c0-15.444 15.323-19.137 45.697-11.013 14.394 3.85 17.967 3.585 27.489-2.040 17.648-10.425 23.54-1.293 12.696 19.677-4.946 9.564-22.124 22.022-29.928 21.704-1.608-0.065-11.153-3.515-21.21-7.664zM755.2 603.857c77.837-20.714 126.171-64.654 126.171-114.7 0-29.085-14.828-48.973-49.371-66.22-22.603-11.285-52.53-19.13-56.25-14.746-1.511 1.78-5.786 10.643-9.501 19.694-11.3 27.532-27.978 36.583-42.76 23.205-9.204-8.329-8.379-23.064 2.773-49.561 7.591-18.036 8.985-25.784 7.052-39.204-6.251-43.393-48.424-146.114-74.924-182.491-15.715-21.572-34.778-29.724-69.589-29.757-15.086-0.014-38.126 2.56-51.2 5.72-19.569 4.731-36.704 5.311-96.928 3.283-86.969-2.929-88.239-2.473-100.057 35.86-10.257 33.27-19.422 81.215-18.106 94.708 2.089 21.413 36.042 37.87 122.851 59.545 49.095 12.259 74.622 22.005 84.080 32.1 4.22 4.505 12.829 19.711 19.131 33.791s14.969 29.348 19.26 33.929c11.575 12.355 10.526 32.334-2.276 43.345-18.144 15.607-61.085 10.185-147.275-18.595-106.132-35.44-157.663-71.522-165.223-115.691l-2.761-16.13-30.977 1.182c-38.738 1.478-54.689 5.507-67.010 16.925-11.483 10.642-12.121 19.482-2.726 37.81 39.403 76.868 249.090 185.15 408.597 210.998 49.37 8 158.58 5.229 197.019-5.001zM373.78 273.012c-16.94-12.498-33.666-34.946-33.666-45.183 0-22.857 16.169-29.684 35.054-14.8 9.348 7.367 15.678 8.42 60.461 10.057 42.441 1.552 51.185 2.884 57.71 8.795 4.229 3.832 7.689 8.24 7.689 9.796 0 7.192-12.457 13.818-30.076 15.998-36.39 4.503-59.535 10.044-70.927 16.981-14.044 8.552-12.275 8.662-26.245-1.645zM564.114 220.885c-8.025-3.626-4.924-12.058 6.633-18.034 19.745-10.211 7.902-18.902-26.748-19.629-18.833-0.395-22.128-4.741-9.143-12.059 12.668-7.139 74.915-6.102 88.952 1.483 24.576 13.28 25.057 27.482 1.341 39.581-14.187 7.238-52.235 12.635-61.036 8.658z"></path>
<path d="M431.543 1016.668c-54.831-6.467-126.426-31.753-181.231-64.008-129.248-76.066-222.347-208.084-244.93-347.32-7.122-43.911-6.977-139.996 0.278-184.769 28.913-178.413 166.398-336.452 341.769-392.863 62.993-20.263 75.522-21.98 160.914-22.054 83.62-0.072 92.632 1.13 152.675 20.374 186.668 59.828 322.665 217.489 350.492 406.325 7.371 50.022 5.318 146.482-4.030 189.36-29.569 135.625-117.074 255.998-238.368 327.9-46.477 27.551-90.171 45.394-147.397 60.192-31.886 8.245-144.109 12.294-190.171 6.862zM583.718 972.512c64.156-8.923 148.016-45.183 207.165-89.575 30.491-22.884 86.832-78.986 86.832-86.463 0-5.042-72.226-1.953-82.43 3.526-4.102 2.203-9.817 8.41-12.698 13.794-3.184 5.95-14.679 14.543-29.311 21.912-13.24 6.667-35.331 22.326-49.093 34.798-37.365 33.862-70.216 45.379-86.751 30.416-12.537-11.345-8.115-23.263 28.338-76.388 19.264-28.075 37.32-55.398 40.124-60.718 6.606-12.535 16.33-59.014 13.073-62.487-2.205-2.351-20.491-2.933-93.708-2.983-10.057-0.007-32.274 0.267-49.371 0.61-99.975 2.001-103.398 1.8-121.556-7.142-9.53-4.693-29.516-19.916-44.413-33.829-25.587-23.896-28.041-25.295-44.36-25.295-18.358 0-23.624-3.954-55.456-41.644-9.052-10.718-13.801-13.49-21.528-12.568-5.453 0.651-12.152 4.575-14.887 8.72-4.354 6.599-3.843 9.804 4.103 25.75 4.992 10.017 18.152 26.815 29.244 37.329 24.066 22.81 26.131 34.138 9.597 52.643-9.541 10.678-12.5 11.804-30.361 11.545-24.237-0.35-31.982-4.225-58.453-29.243-11.416-10.79-23.060-19.618-25.874-19.618s-16.997 4.041-31.517 8.979c-14.52 4.939-36.24 10.093-48.265 11.453s-22.737 3.885-23.804 5.611c-3.181 5.147 31.171 68.167 53.413 97.987 27.226 36.503 78.645 85.417 115.090 109.485 57.537 37.995 127.12 65.949 182.857 73.458 32.983 4.444 121.869 4.409 154.003-0.061zM552.981 765.012c-18.704-7.634-22.817-10.792-21.943-16.844 1.795-12.424 18.266-15.591 40.963-7.876 19.058 6.478 19.957 6.474 31.166-0.148 9.808-5.794 12.028-6.032 14.778-1.583 4.068 6.582-4.137 23.22-15.309 31.046-10.924 7.651-22.21 6.607-49.655-4.595zM701.709 614.32c104.851-11.044 173.409-55.674 182.019-118.49 3.076-22.441-8.815-46.304-31.176-62.564-20.075-14.598-69.568-32.171-75.872-26.939-2.322 1.927-7.734 11.669-12.028 21.65-9.93 23.082-21.157 31.175-34.691 25.009-13.963-6.362-15.736-19.014-5.764-41.131 13.838-30.693 13.438-49.354-2.088-97.423-16.004-49.551-36.645-95.559-56.672-126.32-26.391-40.537-55.751-48.493-127.555-34.568-39.698 7.699-44.807 7.883-102.777 3.708-83.848-6.040-85.595-4.99-102.653 61.707-11.432 44.699-14.597 69.844-9.901 78.663 9.722 18.257 39.714 31.583 116.66 51.836 34.432 9.063 66.952 18.74 72.267 21.506 14.849 7.727 24.838 20.19 35.395 44.161 5.306 12.048 13.618 27.145 18.472 33.548 15.96 21.053 7.907 44.303-17.531 50.616-29.218 7.25-170.143-34.865-228.065-68.156-39.086-22.465-61.864-48.519-65.89-75.365l-2.498-16.66-35.166 2.002c-38.061 2.167-52.554 6.199-65.338 18.174-47.503 44.498 114.513 164.854 303.057 225.13 92.883 29.694 166.019 38.522 247.794 29.908zM365.166 264.229c-20.009-18.056-27-34.253-20.571-47.666 6.453-13.464 14.904-14.086 30.433-2.242 12.654 9.652 14.867 10.038 59.514 10.393 49.040 0.389 62.829 4.026 62.829 16.571 0 9.764-3.034 10.958-43.088 16.958-19.547 2.928-41.763 8.559-49.367 12.512-18.861 9.805-22.272 9.245-39.75-6.526zM561.471 215.932c-1.188-1.923 2.417-6.411 8.013-9.973s11.377-8.16 12.848-10.218c4.933-6.901-9.371-12.884-30.802-12.884-12.067 0-21.244-1.619-21.244-3.748 0-12.088 64.3-15.883 90.548-5.343 15.593 6.261 23.035 18.159 17.231 27.549-8.222 13.304-70.106 25.113-76.594 14.616z"></path>
<path d="M439.219 1016.52c-53.991-6.79-128.383-30.804-172.247-55.602-107.095-60.545-180.404-140.556-227.631-248.442-27.5-62.822-36.232-103.487-38.381-178.744-2.127-74.505 1.842-111.648 17.602-164.696 47.576-160.146 175.846-292.234 331.154-341.011 59.104-18.562 86.177-22.362 158.628-22.26 73.296 0.102 94.953 3.068 149.943 20.531 133.021 42.243 243.422 135.76 303.557 257.133 40.714 82.175 52.617 134.679 52.648 232.229 0.022 71.777-5.247 107.056-23.879 159.843-28.657 81.192-61.909 133.698-123.537 195.072-71.467 71.172-159.814 119.321-258.192 140.715-31.193 6.783-132.493 9.908-169.664 5.233zM630.857 964.14c90.961-27.699 174.162-79.395 227.657-141.452 27.525-31.93 26.531-34.377-12.8-31.498-43.279 3.168-56.046 7.419-64.941 21.624-4.597 7.341-15.259 15.519-28.522 21.878-11.65 5.585-35.021 22.254-51.936 37.043-42.302 36.983-75.994 45.67-86.626 22.337-5.392-11.835-3.7-15.244 36.254-73.042 39.863-57.667 42.528-62.894 48.080-94.327 4.981-28.202 3.645-32.775-8.675-29.683-4.795 1.203-17.162 0.377-27.483-1.836-15.066-3.231-22.53-2.93-37.866 1.529-16.938 4.924-21.138 4.94-37.081 0.142-15.974-4.807-21.87-4.775-52.849 0.291-42.383 6.932-74.462 4.986-96.903-5.877-9.235-4.47-29.989-20.246-46.121-35.057-25.981-23.853-30.562-26.683-40.109-24.774-14.6 2.92-31.321-4.643-40.754-18.433-16.368-23.929-29.593-35.174-41.368-35.174-13.284 0-20.128 5.652-20.128 16.622 0 11.017 26.048 50.081 40.037 60.042 15.898 11.321 19.798 22.812 13.145 38.735-5.798 13.877-17.041 19.916-37.080 19.916-18.975 0-35.927-8.555-57.637-29.087-10.733-10.151-22.801-18.456-26.817-18.456s-17.023 3.354-28.904 7.453c-11.881 4.099-33.533 9.236-48.115 11.416-18.473 2.761-26.514 5.523-26.514 9.108 0 8.189 21.027 48.052 42.409 80.399 63.588 96.199 174.311 171.29 290.391 196.941 17.678 3.906 44.863 4.996 106.057 4.249 77.728-0.948 84.109-1.559 115.2-11.027zM572.485 770.932c-3.945-2.288-13.819-6.122-21.943-8.521-11.919-3.519-14.771-6.049-14.771-13.101 0-11.15 10.971-13.052 37.948-6.58 17.346 4.161 20.99 3.997 30.344-1.372 9.486-5.444 10.865-5.493 12.798-0.454 3.111 8.106-6.026 23.203-17.694 29.237-11.939 6.174-17.137 6.328-26.683 0.792zM754.454 607.564c79.204-21.056 130.575-67.64 130.575-118.407 0-20.744-5.693-33.116-22.545-48.992-17.589-16.57-63.706-37.679-82.673-37.84-2.556-0.022-10.004 11.069-16.552 24.646-10.481 21.732-13.244 24.817-23.094 25.787-22.445 2.209-25.916-14.086-10.692-50.204 8.076-19.161 9.446-26.593 7.416-40.229-6.834-45.894-53.853-157.729-79.114-188.169-6.475-7.803-18.472-17.229-26.66-20.948-18.925-8.596-58.469-9.043-92.375-1.046-20.699 4.882-37.336 5.454-98.363 3.383l-73.451-2.493-11.501 9.677c-12.030 10.123-19.338 29.834-31.457 84.851-8.046 36.527-7.512 49.432 2.43 58.71 13.063 12.189 42.54 25.46 78.867 35.507 18.475 5.109 48.813 13.498 67.419 18.64 48.608 13.435 53.367 16.895 70.4 51.183 8.046 16.196 18.331 34.553 22.857 40.793 10.619 14.641 10.407 24.828-0.748 35.983-16.799 16.799-64.442 10.492-153.766-20.357-66.681-23.029-102.299-41.706-128.636-67.451-17.871-17.47-23.078-25.122-24.971-36.701-4.031-24.657-2.655-23.771-36.94-23.771-37.445 0-56.762 5.042-71.282 18.606-12.601 11.771-13.255 20.423-3.055 40.416 33.641 65.941 199.858 160.648 349.064 198.889 68.411 17.533 88.407 19.763 164.506 18.345 52.092-0.971 71.778-2.808 94.339-8.806zM363.329 258.385c-14.806-14.806-19.558-22.181-19.558-30.354 0-20.271 13.758-25.24 31.41-11.345 9.366 7.372 15.686 8.419 60.709 10.057 41.358 1.505 51.388 2.962 56.651 8.229 10.023 10.029 0.119 16.536-31.759 20.868-35.473 4.82-57.312 10.783-62.533 17.074-7.248 8.733-14.803 5.59-34.921-14.528zM565.168 215.996c-1.485-2.403-2.124-4.757-1.419-5.232s5.806-3.695 11.338-7.155c11.205-7.010 13.077-15.153 4.26-18.536-3.188-1.223-15.12-3.327-26.514-4.675l-20.717-2.45 10.971-4.695c13.301-5.691 49.887-6.364 68.279-1.256 45.408 12.612 32.275 40.448-21.747 46.094-15.084 1.577-22.577 0.934-24.45-2.095z"></path>
<path d="M437.861 1014.718c-114.044-15.544-218.53-69.549-299.811-154.961-60.586-63.665-99.906-135.803-125.762-230.729-10.018-36.777-10.455-41.724-10.346-117.029 0.112-77.203 0.329-79.41 11.973-121.744 27.86-101.286 72.58-177.865 143.006-244.885 165.024-157.042 411.778-185.815 606.54-70.726 116.283 68.714 195.79 170.911 232.76 299.186 14.075 48.837 17.887 87.693 15.863 161.691-1.512 55.271-3.335 71.881-11.147 101.555-41.772 158.678-155.959 287.215-307.755 346.432-86.261 33.651-165.942 43.391-255.322 31.208zM621.801 967.846c63.12-16.709 120.032-44.252 171.359-82.928 31.524-23.754 88.211-81.419 88.211-89.732 0-6.564-44.884-7.304-73.309-1.208-15.339 3.29-20.121 6.253-25.903 16.054-4.845 8.211-14.438 15.529-30.274 23.093-13.176 6.294-35.617 22.299-51.991 37.080-21.905 19.774-33.451 27.37-48.179 31.696-17.656 5.185-20.164 5.169-28.343-0.19-15.955-10.454-12.042-21.38 29.634-82.758 35.989-53.003 39.125-59.063 45.421-87.771 3.72-16.961 5.66-32.003 4.31-33.427-2.184-2.305-35.694-3.252-95.652-2.702-11.063 0.102-29.166-0.3-40.229-0.892s-34.103 0.845-51.2 3.195c-53.791 7.392-80.691-1.756-124.864-42.459-26.5-24.418-28.16-25.332-44.864-24.697-18.605 0.706-20.951-1.065-51.529-38.906-18.952-23.453-45.714-20.897-45.714 4.367 0 12.72 16.236 37.887 37.945 58.816 19.797 19.086 22.475 33.88 8.507 47.002-20.978 19.708-51.668 13.28-85.104-17.825-12.835-11.94-24.972-21.71-26.973-21.71s-16.442 4.205-32.092 9.344c-15.651 5.139-38.719 10.602-51.263 12.14s-23.865 3.854-25.157 5.147c-3.378 3.378 20.435 52.021 39.953 81.612 61.852 93.774 159.695 164.994 268.707 195.595 40.267 11.303 70.887 14.021 141.59 12.565 52.073-1.072 67.829-2.777 97.001-10.5zM565.029 766.328c-6.034-2.674-15.497-6.647-21.029-8.831s-10.057-6.442-10.057-9.464c0-9.191 17.867-10.948 38.836-3.82 18.192 6.184 19.884 6.207 28.75 0.398 17.213-11.279 20.138 1.304 4.374 18.817-8.444 9.381-23.789 10.47-40.875 2.9zM729.438 613.89c84.92-14.59 143.679-56.381 155.871-110.861 5.478-24.477 0.548-40.862-18.232-60.604-15.703-16.508-53.463-35.382-77.327-38.653l-16.481-2.259-8.856 19.587c-14.816 32.769-23.431 38.857-37.269 26.334-8.891-8.046-8.444-15.596 2.455-41.49 5.029-11.947 9.143-27.348 9.143-34.224 0-32.623-38.727-134.749-68.978-181.901-29.087-45.337-57.285-54.085-128.204-39.774-38.929 7.856-44.415 8.085-103.677 4.335-89.533-5.666-90.763-4.911-108.886 66.847-13.188 52.219-14.014 75.471-3.070 86.416 11.714 11.714 55.884 30.483 92.815 39.441 55.052 13.352 91.614 25.429 102.204 33.759 5.538 4.357 16.563 21.521 24.499 38.144s16.823 32.209 19.749 34.638c2.926 2.428 5.32 9.854 5.32 16.502 0 15.241-13.982 27.246-31.733 27.246-34.663 0-139.179-30.995-196.058-58.142-53.812-25.683-80.309-51.884-86.123-85.161l-2.758-15.783-37.807 1.072c-39.012 1.106-52.298 4.987-68.835 20.108-38.311 35.031 62.033 125.849 213.241 192.995 130.29 57.857 262.086 79.798 368.998 61.43zM366.152 261.446c-18.192-16.435-24.907-31.736-19.314-44.011 5.192-11.396 12.595-11.352 27.694 0.165 11.083 8.453 15.133 9.17 53.699 9.507 46.712 0.408 57.508 2.405 63.309 11.708 5.727 9.185 0.344 11.486-39.050 16.689-18.56 2.451-39.968 7.68-47.573 11.619-18.733 9.703-22.321 9.177-38.764-5.677zM566.857 212.852c0-2.146 3.293-4.947 7.318-6.225s8.928-5.33 10.895-9.005c4.778-8.927-2.603-14.839-21.726-17.404-8.125-1.090-14.772-3.256-14.772-4.814 0-5.311 34.709-7.624 53.037-3.535 33.77 7.535 44.675 22.591 25.476 35.171-10.911 7.149-60.227 11.908-60.227 5.811z"></path>
<path d="M464.457 1016.574c-9.051-1.597-29.623-4.852-45.714-7.233-83.146-12.301-177.366-57.806-248.566-120.047-84.506-73.873-146.805-188.313-166.571-305.979-3.95-23.516-4.027-98.645-0.135-131.657 10.994-93.242 57.464-197.178 121.471-271.681 71.693-83.451 190.168-150.097 293.802-165.273 16.091-2.356 38.172-5.806 49.067-7.665 34.531-5.893 62.592-4.189 133.79 8.125 33.012 5.71 87.377 23.89 124.738 41.715 140.972 67.255 243.828 197.385 276.097 349.308 9.903 46.621 11.936 152.314 3.794 197.243-13.354 73.695-45.328 147.103-89.946 206.508-66.804 88.942-153.906 151.093-257.998 184.092-68.783 21.805-146.682 30.867-193.829 22.546zM630.857 967.705c83.873-25.42 156.316-68.383 215.076-127.552 26.709-26.895 35.586-38.158 34.743-44.082-1.074-7.543-2.791-7.918-33.027-7.212-43.987 1.027-58.989 5.6-67.895 20.694-4.974 8.431-14.384 15.616-30.502 23.29-13.257 6.312-35.505 22.111-51.591 36.635-19.832 17.907-33.173 26.906-44.652 30.12-21.299 5.963-34.155 2.679-37.213-9.505-1.972-7.858 4.108-19.103 36.061-66.687 21.138-31.479 39.424-59.075 40.635-61.324s4.933-17.646 8.272-34.216c6.557-32.541 5.097-37.056-10.987-33.981-4.546 0.869-17.522-0.131-28.835-2.222-16.606-3.070-23.827-2.692-37.478 1.959-15.18 5.172-18.884 5.199-36.233 0.264-17.085-4.86-23.095-4.877-51.849-0.147-41.564 6.837-75.903 4.673-98.363-6.2-9.489-4.594-30.171-20.433-45.959-35.197-25.805-24.133-29.827-26.621-39.804-24.626-15.085 3.017-31.556-4.502-40.125-18.316-3.908-6.3-12.765-16.924-19.681-23.608-15.879-15.343-33.923-15.389-42.459-0.107-4.89 8.754-4.725 11.21 1.714 25.57 3.918 8.737 16.424 25.2 27.791 36.584 23.27 23.304 27.432 32.054 20.995 44.139-7.072 13.274-14.805 17.269-33.674 17.393-21.811 0.144-28.263-3.157-54.345-27.808-12.943-12.233-23.957-19.6-29.257-19.571-4.675 0.026-20.843 3.979-35.929 8.786s-37.022 9.929-48.748 11.382c-13.684 1.696-22.072 4.605-23.421 8.12-1.156 3.012 3.266 16.384 9.826 29.714 45.451 92.354 129.608 174.633 224.464 219.456 72.279 34.154 106.645 40.61 209.078 39.279 75.512-0.982 82.48-1.659 113.371-11.022zM565.029 764.143c-8.046-3.807-17.333-6.966-20.637-7.018s-6.98-2.628-8.168-5.722c-3.102-8.084 11.149-12.303 26.815-7.938 16.131 4.494 36.525 4.996 44.961 1.105 9.876-4.555 7.937 4.969-3.427 16.831-11.339 11.836-19.179 12.38-39.544 2.743zM753.009 610.945c76.362-19.062 128.524-62.861 134.45-112.893 2.993-25.275-0.236-35.035-17.95-54.252-16.966-18.406-38.224-30.482-69.833-39.671-25.027-7.276-27.442-5.969-39.048 21.13-8.98 20.967-12.442 24.431-24.499 24.515-12.658 0.087-16.756-11.547-10.225-29.034 3.039-8.137 8.075-21.637 11.191-29.998 4.578-12.285 4.913-18.778 1.746-33.829-12.282-58.365-53.644-154.731-79.253-184.651-7.531-8.798-20.368-19.029-28.526-22.734-18.293-8.309-53.929-8.959-88.82-1.619-32.574 6.852-46.106 7.32-114.9 3.971-66.14-3.22-74.498-0.772-86.815 25.433-7.439 15.826-26.012 93.517-26.012 108.808 0 24.38 33.648 43.804 112.514 64.949 74.615 20.006 76.382 20.576 90.217 29.127 10.729 6.631 27.669 33.314 27.669 43.584 0 1.808 5.76 11.66 12.8 21.895 14.632 21.271 15.856 30.357 5.486 40.727-10.71 10.71-42.021 9.559-92.096-3.384-126.055-32.582-211.447-83.452-211.447-125.964 0-19.365-2.157-20.596-36.048-20.575-36.888 0.024-56.27 4.544-72.723 16.96-15.821 11.939-17.887 22.443-8.563 43.522 33.142 74.924 240.231 186.407 400.17 215.426 46.219 8.386 51.368 8.711 117.622 7.43 47.828-0.925 69.26-2.971 92.894-8.871zM365.192 256.522c-13.405-13.405-17.763-20.474-17.763-28.809 0-17.827 7.325-20.603 24.007-9.1 13.505 9.313 17.484 10.039 64.5 11.77 32.983 1.215 51.668 3.407 54.674 6.417 7.551 7.557-0.24 11.094-37.654 17.092-37.735 6.049-52.182 10.308-56.016 16.511-4.772 7.722-14.319 3.548-31.748-13.881zM570.514 213.555c0-1.219 4.114-5.453 9.143-9.408s9.143-9.483 9.143-12.283c0-6.107-11.236-12.663-21.702-12.663-4.155 0-7.555-1.862-7.555-4.138 0-6.233 50.578-1.97 64.914 5.471 13.339 6.924 14.92 13.122 5.486 21.508-10.874 9.666-59.429 19.073-59.429 11.514z"></path>
<path d="M504 1017.845c2.64-1.056 5.794-0.927 7.010 0.289s-0.945 2.080-4.8 1.921c-4.26-0.176-5.127-1.042-2.21-2.209zM418.743 1007.152c-193.508-34.528-352.889-183.13-400.32-373.247-4.098-16.427-7.476-33.707-7.507-38.4-0.040-6.167-0.926-7.16-3.194-3.582-5.154 8.134-8.644-60.612-5.741-113.102 1.459-26.377 3.748-46.186 5.087-44.019s4.346-7.209 6.683-20.834c9.691-56.513 40.717-130.693 77.247-184.691 75.448-111.524 197.15-189.747 330.967-212.728 42.704-7.334 130.407-7.295 172.756 0.075 154.486 26.887 292.614 130.209 363.279 271.737 38.939 77.987 53.167 147.256 50.067 243.753-2.701 84.092-12.407 125.705-46.064 197.486-65.863 140.471-211.58 250.677-367.282 277.776-40.862 7.112-135.541 6.991-175.978-0.224zM585.896 980.080c53.93-7.8 129.529-37.76 182.275-72.236 53.152-34.741 116.858-97.126 116.858-114.434 0-6.499-2.713-7.124-30.906-7.124-16.998 0-39.371 1.815-49.717 4.034-15.609 3.348-20.084 6.191-26.285 16.7-5.24 8.88-14.189 15.839-29.944 23.283-12.359 5.839-34.624 21.563-49.479 34.942-29.365 26.448-44.176 34.412-63.997 34.412-10.632 0-13.241-1.567-15.128-9.084-2.63-10.478 2.068-18.879 47.158-84.332 28.547-41.438 30.719-45.963 36.71-76.455 3.502-17.825 5.020-33.758 3.372-35.405-2.609-2.609-25.919-3.39-101.558-3.401-10.057-0.001-33.097 0.331-51.2 0.738-92.439 2.082-101.653 1.523-118.088-7.157-8.628-4.557-27.745-19.739-42.482-33.738-25.564-24.284-27.614-25.457-44.655-25.568-20.559-0.134-24.151-2.416-42.989-27.312-7.61-10.057-17.412-20.285-21.782-22.728-17.37-9.709-33.737-3.627-40.385 15.007-3.909 10.957 11.716 38.518 35.024 61.775 11.945 11.919 21.186 24.387 21.186 28.583 0 20.51-20.356 30.949-48.168 24.7-11.54-2.593-21.554-9.201-38.271-25.253-12.453-11.958-25.866-21.742-29.806-21.742s-19.828 4.134-35.306 9.186c-15.478 5.053-39.14 10.401-52.581 11.886-31.187 3.445-31.865 6.862-9.9 49.884 45.244 88.618 121.605 162.837 215.861 209.807 35.027 17.455 91.196 35.932 123.129 40.504 31.683 4.537 131.080 4.862 161.053 0.527zM558.629 759.492c-11.566-4.347-21.029-9.037-21.029-10.422 0-6.324 16.621-6.687 33.2-0.726 14.687 5.281 20.319 5.756 29.079 2.449 13.033-4.919 13.906-1.554 2.4 9.255-10.311 9.687-16.608 9.607-43.65-0.557zM704 621.596c65.865-7.434 115.949-26.835 148.942-57.696 30.595-28.618 45.371-68.443 35.967-96.939-5.432-16.458-29.572-40.803-51.455-51.892-19.842-10.055-57.146-20.381-64.053-17.73-2.668 1.024-9.407 12.321-14.977 25.106-10.605 24.344-19.381 30.818-28.888 21.311-7.178-7.178-7.001-8.681 4.149-35.173 12.457-29.598 10.807-52.763-7.619-106.948-20.604-60.587-47.768-113.502-69.555-135.489-28.496-28.759-53.391-32.848-119.556-19.636-35.33 7.055-41.768 7.261-100.263 3.212-57.494-3.98-63.596-3.811-76.068 2.107-8.663 4.111-16.159 11.53-20.759 20.546-9.132 17.9-25.375 84.838-26.399 108.788-0.668 15.636 0.707 19.79 9.638 29.115 14.833 15.485 43.817 27.377 108.592 44.556 31.093 8.246 64.937 18.806 75.208 23.465 17.453 7.918 19.654 10.474 33.654 39.087 8.239 16.838 17.868 35.074 21.398 40.524 8.81 13.603 3.511 28.66-11.555 32.836-21.248 5.889-84.896-8.534-158.688-35.96-46.070-17.123-80.633-35.364-101.040-53.327-19.452-17.122-23.626-24.043-29.277-48.545l-4.218-18.286-40.108 0.478c-42.485 0.507-60.563 5.922-75.72 22.682-8.526 9.428-8.702 28.694-0.409 44.886 17.248 33.674 90.038 90.289 166.125 129.208 141.198 72.224 277.981 103.14 396.935 89.714zM366.019 254.481c-10.672-10.874-15.847-19.324-15.847-25.874 0-14.066 6.443-19.243 14.676-11.792 14.165 12.82 34.031 18.067 58.484 15.448 36.151-3.871 76.727 3.823 63.901 12.117-2.56 1.655-19.84 5.029-38.4 7.498-19.623 2.61-38.808 7.473-45.841 11.619-6.652 3.922-14.127 7.13-16.61 7.13s-11.646-7.266-20.362-16.147zM584.433 204.941c10.244-9.866 9.2-18.519-2.979-24.681-8.627-4.365-8.236-4.601 7.347-4.457 21.404 0.198 41.658 7.263 43.151 15.052 1.723 8.989-13.731 17.516-36.288 20.022l-19.663 2.185zM504 4.816c2.64-1.056 5.794-0.927 7.010 0.289s-0.945 2.080-4.8 1.921c-4.26-0.175-5.127-1.042-2.21-2.21z"></path>
</svg>
