<!-- Generated by IcoMoon.io -->
<svg version="1.1" xmlns="http://www.w3.org/2000/svg" width="1036" height="1024" viewBox="0 0 1036 1024">
<title>jira</title>
<g id="icomoon-ignore">
</g>
<path d="M463.637 1022.442c-76.575-4.773-163.995-35.624-234.376-82.712-52.053-34.825-101.432-83.173-136.846-133.985-42.476-60.945-72.924-134.963-84.496-205.402-1.398-8.512-2.883-17.507-3.299-19.99-1.743-10.396-3.004-74.119-2.032-102.685 1.153-33.894 3.973-54.1 12.209-87.48 35.9-145.499 133.83-269.328 266.103-336.478 57.696-29.29 127.529-48.953 184.671-51.999 48.193-2.569 112.056-0.409 139.929 4.733 86.442 15.946 164.966 52.077 232.786 107.113 95.179 77.237 160.428 187.424 181.724 306.877 6.147 34.48 7.098 46.57 7.148 90.922 0.051 45.39-1.068 59.219-7.737 95.551-29.158 158.854-135.228 297.376-281.73 367.923-46.46 22.373-96.054 37.936-141.864 44.52-30.38 4.366-89.564 5.751-132.191 3.094zM574.549 1010.64c79.629-10.763 146.249-34.784 211.506-76.262 45.359-28.831 86.656-66.644 124.993-114.448l4.896-6.105-3.685-1.598c-2.618-1.136-11.209-1.505-29.674-1.276-14.294 0.177-28.513-0.236-31.597-0.918-11.78-2.604-32.073-3.775-50.747-2.929l-19.345 0.877 0.212 5.159c0.116 2.837 0.615 8.097 1.108 11.689 0.839 6.114 0.645 6.782-3.043 10.47-2.536 2.536-9.823 6.32-20.453 10.62-31.733 12.837-33.533 14.006-55.782 36.231-26.64 26.611-39.951 35.168-57.58 37.018-9.185 0.964-9.528-1.011-2.51-14.428 11.222-21.453 27.884-45.262 61.85-88.376 18.676-23.706 19.6-25.845 23.962-55.452 0.783-5.318 3.457-16.345 5.941-24.504 5.835-19.165 8.251-30.71 8.251-39.423 0-6.892-0.063-7.009-3.781-7.009-2.080 0-8.609 1.786-14.509 3.968-9.581 3.544-12.245 3.967-24.914 3.959-9.76-0.007-18.211-0.888-27.083-2.826-20.686-4.518-29.468-4.666-43.205-0.725-14.505 4.161-19.29 4.196-31.431 0.233-15.032-4.907-30.864-5.384-66.583-2.005-23.025 2.178-34.955 2.691-49.652 2.135-37.967-1.436-51.378-8.72-78.631-42.707-17.47-21.787-25.968-30.432-35.017-35.623-8.112-4.653-11.251-4.738-16.861-0.46-6.112 4.662-10.718 5.747-15.629 3.682-6.97-2.931-16.96-13.51-27.323-28.935-11.803-17.568-20.164-25.773-31.954-31.358-7.521-3.563-10.039-4.105-18.988-4.085-12.505 0.027-18.873 2.861-27.988 12.455-8.029 8.452-11.679 17.994-11.752 30.727-0.047 8.332 0.529 10.894 4.159 18.481 10.75 22.473 34.090 51.168 48.154 59.204 7.29 4.166 11.274 10.122 11.28 16.868 0.009 9.249-3.729 13.203-13.687 14.478-8.377 1.073-18.38-0.999-28.951-5.995-11.902-5.626-15.767-8.98-25.63-22.241-12.532-16.851-17.991-21.267-32.322-26.148-6.571-2.238-11.458-2.399-66.356-2.185-67.769 0.264-62.194-0.928-59.278 12.666 2.327 10.847 2.226 17.409-0.309 20.211-1.174 1.297-2.587 2.358-3.14 2.358s-2.445 0.547-4.205 1.216l-3.199 1.216 3.851 10.068c6.031 15.77 25.525 54.937 35.821 71.973 64.591 106.865 165.914 185.874 284.462 221.817 34.338 10.411 71.087 17.328 108.977 20.512 14.039 1.18 83.903-0.448 97.37-2.268zM573.259 791.124c-4.965-1.77-14.541-4.711-21.28-6.536-13.386-3.625-16.766-5.718-16.766-10.382 0-4.215 2.984-10.895 6.11-13.678 5.095-4.536 10.635-4.199 25.306 1.537 7.49 2.928 16.113 5.666 19.164 6.084 7.778 1.066 15.759-1.438 21.705-6.81 5.97-5.393 9.694-5.201 13.168 0.68 6.506 11.013-1.946 25.864-17.317 30.428-9.651 2.866-19.558 2.43-30.091-1.324zM726.086 658.475c22.023-2.607 47.369-6.701 57.386-9.269 40.052-10.267 76.421-31.048 105.776-60.438 49.802-49.862 60.61-104.366 28.804-145.267-11.168-14.361-31.258-28.914-56.008-40.57-13.673-6.439-54.831-23.767-56.454-23.767-0.345 0-1.616 3.047-2.824 6.771-6.782 20.906-21.925 44.162-28.175 43.27-4.439-0.634-4.045-8.082 1.641-31.071 8.949-36.184 9.213-40.895 3.856-68.997-3.672-19.266-12.435-45.288-27.098-80.465-7.089-17.008-15.206-37.696-18.037-45.973-17.097-49.981-44.237-81.565-79.8-92.866-35.649-11.329-68.958-11.547-121.952-0.802-30.767 6.239-40.636 5.975-85.041-2.271-28.85-5.358-54.908-5.835-70.673-1.296-13.314 3.834-23.413 9.065-31.448 16.29-8.239 7.408-13.218 15.125-20.645 31.998-16.81 38.194-25.5 74.808-27.022 113.857-0.695 17.823-0.532 19.929 2.067 26.763 7.81 20.541 29.207 36.259 67.127 49.312 9.57 3.294 36.842 11.422 60.605 18.062 70.854 19.798 80.824 23.613 93.724 35.864 7.094 6.737 11.414 16.767 13.901 32.274 1.118 6.97 2.835 14.225 3.816 16.121s5.905 8.064 10.944 13.706c14.115 15.807 12.619 19.654-7.105 18.268-37.256-2.619-72.682-14.157-141.074-45.948-10.994-5.111-31.887-14.501-46.428-20.868-34.663-15.178-46.569-21.543-57.313-30.643-21.952-18.592-27.486-38.993-18.131-66.84 1.972-5.87 3.249-11.009 2.838-11.42s-12.245-1.314-26.298-2.008c-51.428-2.537-85.958 1.673-109.155 13.307-10.294 5.163-24.127 16.64-30.592 25.383-9.387 12.694-11.918 20.289-11.256 33.774 0.471 9.6 1.2 12.338 5.865 22.040 13.603 28.287 52.626 68.356 104.147 106.938 51.467 38.542 121.518 75.866 208.892 111.3 64.4 26.117 121.587 40.712 179.909 45.915 8.867 0.791 18.152 1.664 20.635 1.94 11.477 1.277 84.263-0.442 100.594-2.375zM383.327 258.613c-15.635-7.279-30.509-28.003-30.509-42.507 0-8.155 4.787-18.451 9.918-21.331 3.356-1.883 3.554-1.776 10.902 5.923 10.322 10.814 18.085 14.577 37.123 17.995 8.671 1.557 14.334 1.607 35.494 0.317 28.111-1.714 38.494-0.785 48.728 4.358 16.69 8.388 8.27 13.229-28.765 16.536-27.026 2.414-49.421 8.907-60.876 17.651-6.862 5.238-12.456 5.507-22.014 1.057zM608.725 174.389c0-1.625 2.305-4.579 5.822-7.46 7.128-5.841 8.042-8.965 4.781-16.338-2.689-6.079-7.134-9.042-16.038-10.69-2.635-0.488-5.454-1.687-6.266-2.665-2.737-3.298 4.64-4.689 21.374-4.031 19.305 0.76 26.744 2.995 35.17 10.572 11.487 10.328 12.048 17.521 1.87 23.977-8.579 5.442-16.876 7.594-32.849 8.52-13.451 0.78-13.864 0.724-13.864-1.886z"></path>
<path d="M463.637 1021.997c-82.821-6.55-170.507-38.736-242.803-89.123-30.893-21.531-68.397-55.211-93.119-83.625-68.551-78.789-110.873-174.459-123.231-278.569-2.825-23.798-2.844-97.041-0.032-119.503 12.091-96.565 49.396-184.369 111.417-262.24 14.949-18.769 56.421-60.606 75.001-75.659 68.572-55.559 149.146-91.789 237.753-106.907 17.845-3.045 61.17-6.31 84.020-6.332 24.882-0.024 69.394 3.439 89.941 6.997 109.621 18.984 211.492 74.378 287.511 156.34 94.184 101.546 143.17 235.431 136.404 372.805-5.149 104.535-39.569 200.336-101.858 283.498-78.806 105.212-195.259 176.156-325.789 198.47-31.608 5.403-93.338 7.16-135.217 3.848zM551.47 1013.655c44.288-3.509 80.803-10.843 121.739-24.45 93.715-31.153 176.899-89.765 237.726-167.505l6.229-7.961-4.379-1.83c-4.961-2.073-13.382-2.532-38.386-2.093-11.161 0.196-21.815-0.421-29.682-1.718-13.844-2.284-59.478-2.741-63.412-0.635-2.83 1.515-2.935 4.919-0.407 13.25 1.716 5.655 1.696 6.726-0.194 10.709-2.441 5.143-6.941 7.671-30.312 17.028-8.757 3.506-18.824 8.004-22.37 9.995-3.686 2.069-14.736 11.934-25.793 23.026-20.82 20.885-32.698 29.798-45.42 34.078-8.5 2.86-16.471 3.516-17.742 1.46-1.559-2.523 13.594-29.358 27.927-49.457 4.962-6.957 18.623-24.948 30.359-39.98s23.003-30.843 25.039-35.135c2.603-5.491 4.308-12.183 5.749-22.569 1.126-8.12 4.566-23.469 7.644-34.109 6.362-21.994 8.728-34.029 8.129-41.359-0.559-6.841-3.418-7.096-18.325-1.636-10.955 4.013-12.757 4.293-26.583 4.134-9.98-0.115-19.049-1.102-27.728-3.018-21.316-4.706-25.368-4.717-43.372-0.118l-15.952 4.075-12.897-4.013c-11.908-3.706-14.331-4.015-31.597-4.038-10.285-0.014-27.986 0.958-39.335 2.159-27.549 2.915-54.988 2.945-68.183 0.073-24.492-5.331-34.633-13.267-63.212-49.469-13.89-17.595-30.602-31.242-38.259-31.242-1.078 0-5.112 2.031-8.966 4.514-8.134 5.241-8.834 5.334-15.205 2.039-6.887-3.563-15.405-12.973-25.775-28.477-14.124-21.116-24.881-30.005-41.445-34.248-18.875-4.835-36.077 3.705-46.16 22.918-3.214 6.123-3.579 8.13-3.592 19.714-0.013 12.101 0.252 13.414 4.293 21.28 12.104 23.561 33.043 49.327 46.056 56.67 3.908 2.206 8.247 5.882 9.641 8.169 3.588 5.885 3.358 14.031-0.524 18.544-2.693 3.131-4.163 3.629-12.002 4.072-7.047 0.398-10.828-0.154-17.904-2.615-14.745-5.128-22.532-10.982-32.595-24.506-11.415-15.34-15.711-19.323-25.997-24.104-12.309-5.721-23.85-7.095-48.363-5.759-11.349 0.618-35.434 1.125-53.521 1.125h-32.887l-0.449 3.869c-0.247 2.128 0.566 8.335 1.807 13.793 2.081 9.153 2.095 10.17 0.179 13.094-1.142 1.744-4.374 3.952-7.181 4.907l-5.104 1.737 5.080 12.897c8.086 20.529 27.108 57.72 39.871 77.952 59.873 94.909 147.354 166.107 251.9 205.014 42.975 15.993 89.452 25.876 142.070 30.211 12.424 1.023 54.564 0.746 69.777-0.459zM565.521 788.003c-8.512-2.772-18.034-5.795-21.161-6.718s-6.256-2.599-6.954-3.724c-2.029-3.274 0.228-11.535 4.252-15.558 4.952-4.952 10.335-4.795 23.614 0.689 21.163 8.74 31.801 8.72 42.083-0.080 5.945-5.088 8.377-5.118 12.085-0.147 4.512 6.049 2.509 16.129-4.466 22.473-6.040 5.494-11.637 7.378-23.014 7.749-9.79 0.319-12.618-0.182-26.438-4.683zM724.796 659.759c59.401-7.014 88.857-15.849 123.464-37.031 32.121-19.66 62.431-51.523 76.501-80.421 8.957-18.397 12.044-30.426 12.078-47.073 0.080-39.014-22.963-68.447-72.148-92.157-19.112-9.213-54.901-23.914-58.218-23.914-2.17 0-3.333 1.878-6.193 9.995-6.913 19.624-19.442 39.013-25.209 39.013-4.913 0-4.749-1.264 5.858-45.139 4.658-19.266 4.703-32.337 0.187-54.166-4.502-21.761-12.432-45.379-26.578-79.153-6.499-15.516-14.747-36.38-18.33-46.364-8.532-23.778-10.881-28.931-19.502-42.786-13.937-22.399-28.534-36.462-48.011-46.256-17.063-8.58-44.457-14.026-70.932-14.101-20.895-0.059-34.271 1.536-63.839 7.613-30.529 6.275-42.338 5.955-87.053-2.354-18.27-3.395-25.041-4.070-40.625-4.046-16.633 0.025-19.98 0.418-30.279 3.55-26.79 8.148-39.31 19.914-51.69 48.576-16.445 38.073-25.453 75.633-27.217 113.482-0.686 14.719-0.456 18.585 1.459 24.504 4.481 13.851 14.398 25.666 29.83 35.538 17.415 11.14 39.222 18.89 104.335 37.078 55.245 15.431 66.326 19.082 76.736 25.281 15.806 9.413 21.911 19.276 25.329 40.921 2.286 14.477 4.029 17.878 15.667 30.562 6.333 6.903 8.062 9.632 7.758 12.252l-0.391 3.37-12.5-0.157c-35.029-0.439-69.091-11.407-146.774-47.26-14.541-6.711-36.885-16.721-49.652-22.244-42.737-18.487-56.549-28.513-67.487-48.989-3.151-5.898-3.439-7.659-3.376-20.635 0.056-11.568 0.614-15.615 3.025-21.924 1.626-4.256 3.046-9.174 3.156-10.929 0.179-2.872-0.445-3.293-6.25-4.219-3.547-0.566-22.698-1.136-42.559-1.267-29.354-0.194-38.514 0.181-48.952 2.007-33.277 5.821-56.279 18.463-71.036 39.043-21.249 29.633-12.093 57.856 34.207 105.443 55.732 57.281 130.549 105.763 232.159 150.444 96.999 42.653 155.752 58.623 243.748 66.256 14.126 1.225 82.807-0.396 99.305-2.344zM390.68 259.955c-18.526-4.727-36.372-25.847-36.58-43.29-0.102-8.511 4.415-18.806 9.209-20.99 2.892-1.318 3.672-0.883 9.185 5.123 7.485 8.152 12.408 11.491 21.83 14.802 14.346 5.042 26.837 6.399 45.671 4.963 9.457-0.721 21.86-1.313 27.563-1.315 15.909-0.005 32.853 5.307 33.876 10.619 0.815 4.231-7.369 6.366-33.283 8.683-26.811 2.397-51.85 9.354-62.271 17.301-7.293 5.562-8.361 5.85-15.2 4.104zM610.015 173.792c0-1.099 2.729-4.301 6.064-7.116 5.18-4.373 6.046-5.773 5.937-9.613-0.27-9.533-3.672-12.931-19.066-19.045-7.153-2.841-0.571-4.254 16.57-3.557 18.33 0.745 25.26 2.824 33.453 10.035 13.295 11.703 10.834 19.941-8.108 27.138-9.238 3.51-34.85 5.096-34.85 2.158z"></path>
<path d="M473.955 1022.605c-57.743-4.658-111.453-17.905-163.144-40.237-84.76-36.619-158.331-96.029-213.328-172.262-15.695-21.756-29.054-44.255-42.615-71.768-26.018-52.79-40.038-98.503-48.624-158.542-3.367-23.543-4.772-90.871-2.407-115.345 16.811-173.962 120.787-328.372 274.314-407.368 81.846-42.114 169.573-60.87 261.577-55.925 16.314 0.877 37.787 2.74 47.718 4.141 180.009 25.393 335.673 148.005 402.781 317.257 17.36 43.783 27.308 83.352 33.361 132.699 3.211 26.174 3.222 87.157 0.020 113.491-14.866 122.292-66.59 227.396-153.302 311.516-84.547 82.020-195.112 132.369-311.387 141.799-25.206 2.044-63.339 2.289-84.964 0.544zM537.149 1014.989c34.531-1.761 55.416-4.475 85.763-11.145 100.394-22.066 194.66-76.502 262.828-151.777 17.807-19.664 31.477-36.85 30.845-38.781-1.131-3.452-12.923-4.82-34.473-4-17.391 0.662-23.55 0.395-33.531-1.454-13.619-2.523-58.188-3.572-65.313-1.537-5.456 1.559-5.991 3.644-3.415 13.313 3.667 13.764 2.165 15.263-27.196 27.145-10.004 4.048-20.8 8.819-23.992 10.602s-14.799 12.057-25.793 22.832c-10.994 10.775-22.381 21.414-25.303 23.642-11.404 8.695-33.649 16.605-37.062 13.177-3.826-3.843 21.029-42.729 56.128-87.816 29.116-37.402 29.398-37.936 32.618-61.835 1.003-7.448 3.97-20.796 6.592-29.662 6.545-22.132 8.198-30.176 8.25-40.164 0.032-6.123-0.462-8.762-1.733-9.25-2.33-0.894-8.319 0.529-19.901 4.727-12.91 4.68-29.089 4.706-51.67 0.084-20.368-4.169-28.693-4.163-43.063 0.033-14.052 4.102-16.475 4.101-28.949-0.012-15.048-4.961-32.492-5.411-71.304-1.839-58.479 5.382-81.3 1.522-102.76-17.379-3.673-3.236-13.617-14.459-22.096-24.941-17.066-21.097-26.502-30.386-35.297-34.746-7.72-3.828-10.866-3.657-17.822 0.967-7.34 4.88-10.96 4.859-18.454-0.105-6.867-4.549-9.802-8.070-22.737-27.277-10.749-15.961-18.815-23.763-30.535-29.533-22.786-11.217-46.687-2.8-57.469 20.24-6.653 14.217-5.997 29.812 1.814 43.124 17.349 29.567 32.135 47.248 46.593 55.717 6.657 3.9 11.133 10.168 11.14 15.601 0.008 5.348-3.437 11.085-7.112 11.847-1.76 0.365-4.685 0.973-6.499 1.352-5.183 1.081-18.239-1.798-27.068-5.97-10.361-4.895-16.67-10.659-27.39-25.026-9.364-12.549-16.299-18.078-28.307-22.571-9.992-3.738-28.14-5.071-48.592-3.569-9.284 0.682-31.251 0.882-48.816 0.444l-31.935-0.796-1.436 3.153c-1.104 2.424-0.952 5.299 0.66 12.437 2.938 13.010 2.734 16.017-1.301 19.192-1.869 1.47-4.771 2.673-6.448 2.673s-3.050 0.758-3.050 1.684c0 5.592 22.24 53.572 35.088 75.696 86.074 148.228 240.828 243.051 410.322 251.418 10.735 0.53 20.678 1.047 22.097 1.149s13.606-0.377 27.083-1.064zM574.549 789.958c-4.965-1.812-14.541-4.798-21.28-6.636-17.384-4.741-18.928-6.566-14.258-16.853 3.203-7.054 9.555-9.389 17.482-6.426 27.791 10.386 32.268 11.303 41.999 8.6 2.529-0.703 7.009-3.341 9.955-5.863 6.138-5.254 9.080-4.776 11.856 1.925 3.585 8.656-1.546 18.763-12.163 23.957-10.587 5.18-21.766 5.611-33.591 1.296zM707.521 661.58c70.56-5.564 108.352-16.615 148.822-43.52 11.177-7.431 19.288-14.323 32.92-27.975 19.794-19.823 28.788-31.873 37.362-50.056 8.521-18.071 10.263-25.834 10.192-45.44-0.053-14.691-0.476-17.936-3.421-26.225-4.87-13.711-10.628-22.694-21.762-33.953-17.263-17.458-36.375-28.469-82.948-47.788-14.928-6.192-22.431-8.699-23.68-7.911-1.006 0.634-3.417 5.493-5.358 10.798-7.254 19.823-18.836 37.373-24.665 37.373-3.624 0-3.228-4.221 2.613-27.823 2.795-11.297 5.773-24.549 6.617-29.451 4.195-24.368-5.95-65.608-30.275-123.067-6.106-14.424-13.686-33.612-16.844-42.641-11.566-33.069-21.966-51.079-39.949-69.18-17.758-17.875-33.62-25.918-61.981-31.43-29.295-5.693-59.131-4.634-97.37 3.456-29.867 6.318-45.401 6.386-79.315 0.347-34.252-6.099-41.002-6.804-58.035-6.063-36.218 1.577-58.438 14.688-72.069 42.524-13.109 26.77-23.53 59.685-28.659 90.522-1.361 8.185-2.2 21.142-2.296 35.466-0.147 22.083-0.075 22.722 3.346 29.662 1.923 3.901 6.795 10.466 10.827 14.588 19.080 19.506 40.090 28.491 115.289 49.302 62.454 17.284 74.939 21.52 86.148 29.23 12.786 8.795 17.478 17.15 21.077 37.533 1.374 7.782 3.019 15.121 3.655 16.31s5.546 7.284 10.911 13.547c5.365 6.263 9.755 12.153 9.755 13.091 0 5.156-11.506 5.281-38.738 0.419-28.551-5.097-59.557-16.368-113.991-41.438-18.389-8.469-43.924-19.938-56.746-25.487-43.050-18.632-57.545-29.243-67.012-49.059-3.581-7.496-4-9.611-3.957-19.99 0.040-9.66 0.734-13.551 4.137-23.198 2.528-7.167 3.63-12.050 2.886-12.793-0.661-0.661-14.713-1.774-31.226-2.472-72.923-3.084-106.616 5.526-132.954 33.973-12.106 13.076-15.605 20.779-16.16 35.577-0.4 10.657-0.076 12.653 3.509 21.605 7.206 17.995 20.332 35.37 45.933 60.799 64.596 64.163 147.931 114.453 273.417 165 65.428 26.355 123.787 40.632 187.003 45.746 19.067 1.543 73.911 1.598 92.992 0.093zM389.481 259.308c-6.746-2.060-14.090-6.639-19.796-12.345-7.717-7.717-15.463-23.216-15.35-30.712 0.137-9.058 5.857-20.22 10.362-20.22 1.045 0 5.833 3.71 10.64 8.244 9.638 9.092 16.932 12.54 33.489 15.829 8.289 1.647 13.38 1.699 35.586 0.363 28.22-1.697 38.058-0.878 49.728 4.143 15.234 6.554 6.352 10.654-30.416 14.040-17.142 1.579-41.074 7.136-49.819 11.568-3.148 1.595-7.838 4.565-10.423 6.598-4.727 3.719-8.046 4.309-14.001 2.491zM610.842 174.502c-0.491-0.491 2.107-3.93 5.773-7.643 6.248-6.327 6.616-7.057 5.87-11.651-1.149-7.078-4.469-10.907-13.172-15.191l-7.681-3.781 5.159-1.164c6.633-1.497 23.949-0.327 32.252 2.178 8.721 2.632 16.376 8.517 20.026 15.398 2.869 5.408 2.913 5.855 0.876 8.963-3.265 4.983-16.75 10.886-28.421 12.44-11.678 1.556-19.409 1.724-20.682 0.451z"></path>
<path d="M476.534 1022.613c-105.681-8.405-201.529-46.214-283.063-111.66-94.101-75.532-157.982-181.258-181.833-300.938-6.733-33.784-8.31-52.265-8.363-98.015-0.053-45.054 0.639-54.535 6.4-87.698 8.485-48.839 22.21-90.594 45.149-137.35 18.184-37.064 35.633-64.563 61.785-97.37 16.583-20.803 57.43-61.626 78.427-78.381 114.956-91.729 265.437-128.941 413.111-102.156 192.124 34.847 351.040 182.242 400.97 371.903 21.447 81.466 22.617 168.881 3.342 249.702-23.208 97.316-76.629 188.989-149.023 255.735-68.767 63.402-148.701 105.498-237.945 125.312-47.329 10.508-102.893 14.58-148.957 10.916zM548.175 1014.922c67.365-5.205 125.205-20.321 182.787-47.768 34.622-16.503 68.776-37.976 99.586-62.61 27.585-22.056 73.777-69.717 85.559-88.281l2.375-3.743-3.665-1.625c-2.549-1.13-12.106-1.658-31.393-1.735-19.44-0.077-31.39-0.743-39.98-2.228-16.115-2.786-58.485-2.837-62.872-0.075-3.408 2.146-3.667 5.723-0.967 13.375 2.579 7.309 2.484 8.177-1.391 12.782-3.505 4.165-8.373 6.678-26.446 13.651-24.097 9.297-28.253 12.116-50.492 34.246-25.968 25.841-36.222 32.839-52.434 35.786-9.997 1.817-10.247 0.827-3.222-12.775 10.85-21.008 28.981-46.55 66.733-94.008 11.081-13.93 14.568-22.182 16.9-39.986 1.102-8.414 4.453-23.409 7.741-34.637 9.438-32.232 10.525-47.896 3.323-47.896-1.423 0-8.659 2.031-16.079 4.514-18.511 6.193-31.996 5.997-60.984-0.888-13.481-3.202-20.143-2.729-40.488 2.871l-11.106 3.057-10.818-3.721c-9.468-3.256-13.125-3.788-29.289-4.255-12.225-0.354-26.179 0.252-41.27 1.791-12.539 1.279-31.504 2.299-42.144 2.267-41.451-0.125-56.488-8.067-86.116-45.486-15.717-19.85-25.068-28.812-35.333-33.866l-8.48-4.175-4.033 2.395c-11.451 6.8-13.257 7.535-16.507 6.72-5.871-1.473-16.532-12.534-26.864-27.87-11.511-17.087-16.151-22.354-25.025-28.407-25.197-17.185-53.891-10.050-66.332 16.494-2.921 6.233-3.43 9.050-3.431 18.985-0.001 10.927 0.313 12.301 4.945 21.682 11.442 23.169 32.966 49.745 46.456 57.357 8.419 4.751 11.358 9.025 11.473 16.684 0.073 4.857-0.52 6.402-3.415 8.892-2.932 2.522-4.94 3.014-12.311 3.014-10.527 0-19.611-2.728-30.255-9.084-6.349-3.792-9.991-7.492-18.876-19.175-11.66-15.333-17.437-20.191-29.289-24.625-12.437-4.653-25.445-5.66-50.97-3.944-14.739 0.991-32.833 1.214-50.597 0.624-30.043-0.998-31.582-0.719-31.613 5.743-0.009 1.864 0.963 7.578 2.16 12.697 2.737 11.704 1.635 14.785-6.245 17.448-4.222 1.427-5.466 2.458-5.136 4.254 0.24 1.304 3.881 10.425 8.092 20.27 67.688 158.248 210.611 270.847 379.983 299.363 16.257 2.737 29.994 4.294 56.426 6.397 12.54 0.997 45.437 0.731 61.324-0.496zM580.997 791.503c-2.837-0.868-10.382-3.234-16.766-5.257s-14.799-4.635-18.7-5.804c-6.239-1.869-7.144-2.569-7.515-5.81-0.536-4.691 1.937-10.706 5.4-13.132 4.336-3.037 11.104-2.202 23.439 2.892 19.325 7.981 32.176 7.426 42.064-1.817 4.318-4.036 7.372-3.463 10.55 1.979 2.167 3.711 2.301 4.953 1.003 9.288-0.825 2.752-2.921 6.694-4.659 8.759-6.412 7.62-24.169 12.16-34.817 8.902zM727.375 660.409c37.443-4.427 57.73-8.565 78.083-15.926 63.356-22.915 118.737-77.489 129.925-128.032 3.525-15.923 3.795-21.579 1.635-34.266-5.866-34.452-28.198-58.899-73.613-80.582-23.87-11.396-54.673-23.931-57.68-23.472-1.88 0.287-3.483 2.974-6.149 10.302-5.307 14.588-10.954 25.411-16.866 32.324-5.319 6.22-8.423 7.598-9.688 4.302-0.385-1.003 1.943-12.755 5.174-26.116 8.048-33.284 8.713-38.885 6.496-54.684-4.011-28.581-11.19-51.653-30.271-97.286-6.525-15.605-14.162-35.047-16.97-43.204-18.803-54.614-46.345-85.669-86.167-97.156-24.685-7.121-54.859-9.392-81.249-6.116-6.739 0.837-22.408 3.584-34.821 6.106-21.441 4.356-23.504 4.551-41.27 3.896-12.646-0.466-25.59-1.953-39.98-4.593-11.704-2.147-26.793-4.572-33.531-5.388-31.006-3.758-62.171 5.428-79.283 23.368-5.577 5.847-9.067 11.373-14.812 23.454-19.415 40.828-30.078 85.003-30.276 125.427-0.080 16.251 0.044 17.032 4.025 25.437 13.183 27.829 39.194 41.113 129.374 66.070 65.643 18.167 79.784 23.529 91.292 34.619 6.244 6.017 10.033 15.24 12.943 31.508 2.853 15.947 3.91 18.003 15.948 31.028 5.152 5.574 7.494 9.161 7.494 11.478v3.37l-13.864-0.767c-36.65-2.028-71.928-13.523-143.476-46.752-10.285-4.777-32.199-14.641-48.697-21.92s-34.199-15.869-39.335-19.089c-12.116-7.595-24.096-19.623-28.807-28.921-3.467-6.842-3.743-8.446-3.716-21.578 0.025-12.298 0.518-15.547 3.702-24.407 3.405-9.474 3.514-10.337 1.492-11.816-4.853-3.549-71.686-4.976-92.276-1.971-34.196 4.991-60.397 17.859-75.21 36.937-24.573 31.648-16.149 60.627 31.99 110.054 49.872 51.206 109.822 92.113 195.88 133.663 107.884 52.086 184.216 75.112 275.511 83.106 22.475 1.968 81.212 0.648 107.043-2.407zM388.293 258.395c-12.46-4.362-22.283-13.486-29.17-27.094-5.004-9.888-5.244-20.372-0.651-28.485 4.634-8.185 7.018-8.273 13.811-0.507 9.481 10.838 29.284 18.827 48.794 19.686 3.547 0.156 17.475-0.186 30.952-0.76 25.658-1.093 33.919-0.286 43.187 4.216 2.473 1.201 4.679 3.131 4.902 4.288 0.7 3.632-6.043 5.096-40.914 8.884-24.398 2.65-46.672 9.979-57.249 18.837-4.224 3.538-5.898 3.652-13.663 0.934zM611.872 173.98c-0.49-0.792 1.833-3.908 5.254-7.049 5.913-5.428 6.108-5.838 5.474-11.461-0.894-7.93-3.877-11.986-11.368-15.457-3.478-1.611-5.949-3.305-5.49-3.764s6.106-0.827 12.549-0.819c11.489 0.015 21.609 1.871 27.895 5.115 7.282 3.758 14.127 12.434 14.127 17.905 0 2.988-6.222 8.539-12.523 11.171-8.269 3.455-34.508 6.639-35.918 4.358z"></path>
<path d="M479.113 1022.68c-162.754-13.203-303.436-95.508-392.336-229.531-57.288-86.366-86.444-188.835-83.814-294.565 1.035-41.596 5.022-71.566 14.602-109.747 42.159-168.023 167.078-305.054 328.052-359.858 84.415-28.74 168.162-35.504 255.757-20.659 124.387 21.081 237.931 89.117 316.494 189.646 65.085 83.282 103.294 187.171 107.198 291.466 3.2 85.492-11.943 162.605-46.731 237.975-25.144 54.477-58.141 101.39-102.551 145.799-42.9 42.9-87.58 74.839-139.593 99.786-53.035 25.438-106.56 40.71-167.446 47.777-21.078 2.447-70.138 3.493-89.632 1.911zM573.6 1013.124c108.43-13.682 205.006-58.423 284.032-131.585 23.254-21.529 61.373-64.792 60.213-68.341-1.217-3.725-10.649-4.998-35.139-4.744-17.649 0.183-28.193-0.337-37.401-1.843-8.999-1.473-20.295-2.059-37.88-1.968-28.696 0.149-30.539 0.723-29.297 9.115 2.545 17.2 2.542 17.275-0.786 20.382-1.735 1.62-12.383 6.729-23.66 11.353s-23.116 9.901-26.308 11.728c-3.192 1.826-15.089 12.442-26.438 23.59-21.529 21.148-28.311 26.527-39.926 31.663-8.822 3.902-20.055 5.606-20.019 3.037 0.043-3.115 12.679-25.788 22.553-40.468 5.248-7.803 20.265-27.972 33.371-44.822s25.338-33.825 27.182-37.722c2.236-4.726 4.007-11.92 5.317-21.596 1.081-7.98 4.865-24.665 8.41-37.077 6.913-24.204 9.297-40.903 6.346-44.458-2.47-2.977-7.765-2.399-19.61 2.139-9.895 3.791-11.879 4.103-25.559 4.022-11.286-0.067-18.53-0.931-30.307-3.615-17.744-4.044-27.781-3.891-41.914 0.64-11.13 3.568-18.029 3.392-29.662-0.755-8.948-3.19-11.219-3.449-30.307-3.455-11.349-0.004-29.566 0.943-40.483 2.103-24.185 2.569-51.419 2.648-65.224 0.189-12.926-2.303-26.070-8.725-35.975-17.577-4.156-3.714-14.371-15.224-22.7-25.578-16.99-21.119-25.381-29.268-35.15-34.137-8.494-4.233-10.941-4.179-17.201 0.379-7.79 5.672-10.165 5.994-16.56 2.246-7.166-4.199-11.050-8.698-23.963-27.75-12.144-17.918-18.61-24.125-32.050-30.767-8.511-4.207-10.767-4.763-19.436-4.792-7.918-0.027-11.174 0.612-16.9 3.312-22.397 10.563-32.305 37.971-22.081 61.083 3.835 8.671 17.221 29.351 25.767 39.81 9.068 11.098 15.13 16.654 21.981 20.149 7.709 3.933 11.733 9.519 11.733 16.284 0 3.93-0.78 6.484-2.507 8.212-5.996 5.996-21.563 4.958-36.828-2.454-11.537-5.602-15.224-9.003-27.555-25.414-17.461-23.24-34.925-28.537-83.357-25.283-9.93 0.667-29.953 0.853-44.494 0.413s-27.744-0.359-29.34 0.179c-3.6 1.215-3.861 7.065-0.886 19.892 1.918 8.271 1.897 8.851-0.44 11.981-1.351 1.809-4.318 3.67-6.595 4.136s-4.457 1.165-4.846 1.553c-0.902 0.902 5.253 16.845 13.536 35.058 28.633 62.963 72.65 122.456 124.007 167.608 83.15 73.104 181.3 115.26 292.756 125.743 18.18 1.71 82.849 0.564 101.58-1.799zM568.101 787.313c-7.093-2.434-16.325-5.453-20.515-6.71-9.375-2.812-10.81-4.765-8.693-11.831 1.676-5.593 6.384-9.155 12.101-9.155 1.656 0 8.089 2.070 14.295 4.6 21.43 8.737 31.182 8.709 42.752-0.122 3.227-2.463 6.429-4.478 7.115-4.478 2.896 0 5.505 6.516 4.869 12.159-1.391 12.344-11.428 19.226-28.709 19.686-8.822 0.235-12.186-0.366-23.214-4.15zM726.086 661.054c49.776-5.893 72.344-11.583 101.942-25.705 42.98-20.506 85.361-61.849 101.081-98.603 7.262-16.98 8.967-24.866 8.974-41.511 0.007-15.932-1.865-24.638-7.903-36.756-14.719-29.538-40.412-47.76-103.921-73.707-15.787-6.45-20.811-8.007-22.176-6.874-0.971 0.806-2.759 4.467-3.975 8.136-3.843 11.6-9.439 22.97-15.453 31.399-3.202 4.488-6.036 8.159-6.296 8.159s-1.392 0.352-2.514 0.783c-3.329 1.278-2.554-5.995 3.051-28.606 8.855-35.722 9.122-40.571 3.773-68.633-3.672-19.266-12.435-45.288-27.098-80.465-7.089-17.008-15.219-37.696-18.066-45.973-17.54-50.993-44.987-83.16-81.004-94.93-36.321-11.87-69.506-12.224-123.298-1.317-30.767 6.239-40.636 5.975-85.041-2.271-29.003-5.386-54.89-5.839-70.874-1.241-20.343 5.852-36.829 17.437-45.24 31.79-1.898 3.239-6.065 11.828-9.26 19.086-17.659 40.121-26.389 78.228-26.66 116.371-0.142 19.892-0.021 20.903 3.347 28.091 1.922 4.101 6.855 10.99 10.962 15.309 18.976 19.952 40.919 29.472 115.418 50.075 57.711 15.96 76.076 22.182 86.791 29.407 13.636 9.193 17.469 16.606 21.341 41.268 1.599 10.184 3.881 14.173 16.448 28.755 9.54 11.069 8.956 12.216-6.049 11.901-27.572-0.58-66.561-11.648-111.7-31.709-7.093-3.152-24.214-10.952-38.045-17.332s-33.564-15.242-43.849-19.693c-25.165-10.891-35.269-16.023-44.646-22.674-24.591-17.442-32.578-38.795-24.328-65.034 1.896-6.029 3.537-12.69 3.646-14.801 0.188-3.607-0.151-3.889-5.604-4.675-3.192-0.46-18.281-1.247-33.531-1.749-66.321-2.182-101.032 7.384-126.089 34.746-11.447 12.5-16.299 22.891-16.857 36.101-0.508 12.022 2.636 22.138 11.554 37.179 13.983 23.584 57.299 66.6 97.216 96.544 53.234 39.934 123.453 77.446 212.796 113.678 64.4 26.117 121.587 40.712 179.909 45.915 8.867 0.791 18.152 1.664 20.635 1.94 11.477 1.277 84.263-0.442 100.594-2.375zM384.967 256.774c-12.87-5.972-23.738-18.417-28.437-32.564-1.87-5.63-1.983-7.688-0.72-13.158 1.44-6.237 6.787-15.022 9.145-15.022 0.625 0 3.932 2.959 7.35 6.575 10.001 10.583 19.616 15.258 38.456 18.7 8.653 1.581 13.854 1.644 32.242 0.393 12.058-0.821 26.334-1.153 31.723-0.739 9.51 0.731 23.527 4.892 25.11 7.453 2.554 4.133-6.423 6.488-34.263 8.989-26.73 2.401-50.539 9.536-62.671 18.782-4.839 3.688-10.834 3.885-17.934 0.591zM611.922 172.86c0.564-0.913 3.243-3.663 5.953-6.111 6.016-5.435 6.856-7.811 5.086-14.386-1.409-5.231-7.87-12.112-12.861-13.696-10.186-3.233 11.603-4.558 24.609-1.496 13.592 3.199 25.603 13.101 25.603 21.106 0 3.788-8.546 10.045-17.249 12.63-9.18 2.726-32.523 4.191-31.141 1.954z"></path>
<path d="M486.851 1022.645c-126.189-8.334-240.175-58.394-328.689-144.352-94.103-91.387-149.046-214.511-154.057-345.236-2.527-65.921 5.266-121.743 25.409-181.997 25.937-77.587 66.713-143.226 125.154-201.468 27.353-27.26 46.311-42.985 75.013-62.219 66.894-44.829 147.051-74.211 224.283-82.212 7.448-0.772 16.52-1.984 20.16-2.695 8.555-1.67 67.857-1.694 77.529-0.031 4.081 0.702 14.093 1.947 22.251 2.767 53.709 5.4 116.645 24.059 168.193 49.867 98.761 49.445 179.498 129.819 228.364 227.336 61.342 122.415 71.489 262.227 28.409 391.451-55.203 165.588-192.131 292.069-361.563 333.979-50.81 12.568-104.458 17.849-150.456 14.812zM543.597 1016.242c68.040-4.288 128.289-19.761 188.676-48.455 66.049-31.384 128.327-80.62 174.849-138.232 10.425-12.911 12.453-16.107 11.186-17.634-2.986-3.598-15.179-4.974-36.45-4.112-16.809 0.681-22.974 0.387-36.111-1.721-12.175-1.954-21.34-2.492-39.604-2.325-22.494 0.205-23.94 0.369-27.077 3.067l-3.314 2.851 2.336 9.069c3.553 13.792 2.357 15.113-22.984 25.38-29.487 11.947-31.032 12.982-56.755 38.009-19.943 19.404-24.588 23.26-32.887 27.301-9.359 4.558-21.402 7.986-23.501 6.69-1.619-1 10.182-22.776 21.552-39.771 5.705-8.526 20.719-28.762 33.365-44.968s24.080-31.307 25.408-33.558c4.11-6.966 6.398-15.046 8.257-29.157 0.983-7.465 4.482-22.859 7.775-34.208s6.606-25.409 7.363-31.244c1.21-9.338 1.11-11.015-0.837-13.987-1.937-2.957-2.801-3.273-6.939-2.542-2.599 0.459-8.789 2.401-13.754 4.314-8.215 3.166-10.538 3.47-25.793 3.379-13.495-0.081-19.777-0.798-32.204-3.675-17.549-4.063-21.276-3.927-40.567 1.489l-12.156 3.412-8.479-2.336c-4.663-1.285-11.362-3.134-14.886-4.109-9.215-2.551-32.939-2.216-65.882 0.929-42.319 4.040-66.19 2.014-84.28-7.152-9.036-4.579-22.63-17.756-36.589-35.469-15.891-20.163-25.899-29.808-36.187-34.872l-8.453-4.162-4.909 2.62c-2.7 1.441-6.734 3.614-8.965 4.829-2.446 1.332-5.304 1.895-7.201 1.419-5.607-1.407-15.195-11.27-24.533-25.235-12.677-18.959-17.098-24.093-25.883-30.059-10.278-6.98-19.474-10.037-30.185-10.036-16.239 0.001-31.050 10.244-38.838 26.856-2.923 6.236-3.431 9.047-3.431 18.993 0 10.861 0.331 12.343 4.759 21.28 11.61 23.433 34.442 51.646 47.583 58.798 7.76 4.224 10.582 8.344 10.734 15.672 0.17 8.172-3.22 10.581-14.889 10.581-10.204 0-19.897-2.964-30.528-9.335-5.406-3.239-9.491-7.504-17.771-18.549-19.788-26.396-35.353-31.923-81.131-28.811-13.897 0.945-32.355 1.154-50.384 0.571-25.736-0.833-28.661-0.713-30.63 1.256-2.727 2.727-2.752 7.555-0.094 18.137 1.146 4.56 1.74 9.658 1.321 11.329-0.791 3.152-5.546 6.058-9.912 6.058-3.692 0-3.214 3.361 2.53 17.778 33.153 83.216 92.549 159.65 167.443 215.474 33.529 24.992 84.64 52.86 123.261 67.208 66.29 24.627 137.585 35.314 206.576 30.966zM569.39 786.803c-8.512-2.813-18.884-6.056-23.050-7.205l-7.574-2.090 0.675-5.993c1.325-11.752 8.979-13.411 27.337-5.927 18.94 7.722 33.82 7.194 41.978-1.49 4.021-4.28 7.21-4.027 9.691 0.771 5.977 11.559-7.024 24.989-25.585 26.428-6.853 0.531-10.207-0.111-23.472-4.495zM690.62 664.144c50.123-2.687 88.354-8.852 115.426-18.612 64.439-23.232 120.541-79.435 131.046-131.284 2.473-12.203 1.858-33.92-1.234-43.628-9.268-29.096-31.875-50.979-72.709-70.382-20.96-9.96-54.028-23.653-57.12-23.653-3.044 0-4.399 1.975-7.081 10.317-5.407 16.819-17.8 37.465-23.102 38.486-2.981 0.574-2.674-1.411 4.755-30.748 4.989-19.703 5.384-22.522 5.333-38.045-0.094-28.234-7.087-53.885-29.062-106.606-7.095-17.023-15.226-37.724-18.069-46.001-15.386-44.807-36.594-73.772-65.679-89.703-11.070-6.063-20.386-9.191-37.145-12.469-28.677-5.611-60.745-4.682-96.896 2.806-34.661 7.179-46.252 7.137-86.408-0.316-29.602-5.494-56.449-6.437-72.689-2.554-23.072 5.517-41.009 18.401-50.341 36.161-14.159 26.944-24.771 58.493-30.394 90.36-3.149 17.844-5.187 48.542-3.868 58.258 1.872 13.792 12.877 29.234 28.325 39.743 18.959 12.897 40.813 21.115 99.502 37.415 71.444 19.842 83.035 24.030 95.101 34.358 7.333 6.277 11.546 15.851 14.372 32.657 2.624 15.606 3.645 17.652 15.016 30.091 8.753 9.575 10.262 12.282 7.448 13.362-3.603 1.383-26.424-0.54-39.855-3.359-30.047-6.305-59.983-17.45-112.914-42.038-10.285-4.778-32.239-14.66-48.787-21.961-36.591-16.144-45.913-21.53-57.699-33.335-18.033-18.063-20.95-33.976-11.313-61.71 2.565-7.383 3.103-10.4 2.041-11.462-2.299-2.299-37.113-3.947-68.021-3.22-31.853 0.749-46.816 3.136-63.685 10.159-26.772 11.145-47.948 33.418-51.852 54.536-2.865 15.499 3.941 35.15 19.425 56.088 11.047 14.937 51.073 54.526 71.954 71.167 59.444 47.375 131.949 87.363 231.795 127.841 75.195 30.484 139.281 44.69 215.375 47.741 20.882 0.837 25.646 0.793 49.008-0.46zM388.191 257.226c-15.915-4.988-32.242-26.159-32.242-41.807 0-5.2 4.648-15.303 7.959-17.302 1.745-1.053 3.301-0.027 8.162 5.379 7.89 8.776 20.61 15.098 36.111 17.947 10.169 1.87 14.722 1.955 36.756 0.69 26.051-1.495 34.796-0.949 46.374 2.897 6.939 2.305 8.844 3.995 6.804 6.036-1.98 1.98-9.539 3.331-31.254 5.586-31.073 3.227-53.508 9.973-64.905 19.519-4.148 3.474-5.673 3.591-13.765 1.055zM613.553 173.345c-0.419-0.419 1.884-3.296 5.118-6.394 5.62-5.385 5.85-5.89 5.221-11.472-0.811-7.197-3.653-11.707-9.582-15.205-4.041-2.384-4.289-2.824-2.242-3.969 3.656-2.046 24.475 1.188 32.42 5.036 7.918 3.835 14.535 11.223 14.535 16.228 0 7.112-11.438 12.793-30.453 15.125-13.322 1.634-14.005 1.663-15.017 0.652z"></path>
<path d="M493.945 1022.84c-8.866-0.426-14.96-1.142-13.542-1.592 1.513-0.48-0.2-0.88-4.142-0.967-19.14-0.426-60.116-7.253-91.294-15.211-172.74-44.090-314.403-183.342-361.589-355.437-13.506-49.257-18.511-87.661-18.443-141.501 0.127-100.163 29.528-195.577 86.435-280.504 77.426-115.548 196.149-192.977 332.932-217.13 17.758-3.136 46.664-6.559 57.39-6.796 6.759-0.15 7.167-0.292 3.224-1.121-2.483-0.523 10.285-0.969 28.373-0.991s31.436 0.375 29.662 0.883c-2.097 0.601 1.737 1.253 10.962 1.866 95.299 6.324 195.342 44.811 272.121 104.686 79.122 61.703 138.16 144.101 170.916 238.544 27.376 78.932 34.096 172.193 18.538 257.29-18.197 99.533-65.49 190.387-137.182 263.543-72.060 73.53-161.377 122.376-261.17 142.828-19.957 4.090-54.278 8.807-65.725 9.032-5.201 0.102-5.871 0.338-3.302 1.161 2.071 0.663-1.85 1.083-10.962 1.172-7.803 0.077-17.088 0.338-20.635 0.58s-13.703 0.092-22.569-0.334zM539.728 1017.516c36.662-2.015 67.274-6.56 99.002-14.699 89.018-22.836 167.739-67.472 232.296-131.718 24.321-24.204 50.651-55.816 49.339-59.237-1.483-3.863-11.229-5.171-38.874-5.216-19.217-0.031-30.835-0.674-40.001-2.213-9.72-1.632-18.658-2.060-36.111-1.728-12.756 0.243-24.156 0.845-25.332 1.338-4.321 1.812-5.374 7.537-2.856 15.526 3.784 12.003 1.504 14.222-25.313 24.647-25.395 9.872-28.519 11.969-51.587 34.637-11.704 11.501-24.082 22.807-27.506 25.125-10.569 7.152-29.266 13.58-29.218 10.045 0.039-2.825 11.521-23.164 21.279-37.691 5.241-7.803 20.377-28.115 33.635-45.139s25.463-33.854 27.121-37.401c3.229-6.908 4.657-13.094 6.943-30.099 0.795-5.914 3.421-17.268 5.835-25.23 6.634-21.883 8.3-30.114 8.321-41.106 0.018-9.367-0.182-10.103-3.034-11.188-3.551-1.35-8.030-0.471-21.668 4.25-15.263 5.283-29.702 4.741-62.735-2.356-10.889-2.34-17.879-1.759-33.034 2.743-12.859 3.82-14.894 3.795-26.63-0.326-13.56-4.762-35.553-5.524-65.758-2.28-29.835 3.205-64.124 3.179-76.654-0.057-19.355-4.999-30.914-13.869-51.242-39.32-17.412-21.8-25.909-30.389-35.29-35.672-9.946-5.6-15.092-5.739-21.893-0.594-11.117 8.412-18.502 3.415-37.946-25.675-10.358-15.497-16.199-21.792-25.467-27.45-21.059-12.856-42.511-11.4-57.837 3.925-10.521 10.521-15.965 26.192-14.147 40.723 1.497 11.968 13.655 33.644 30.514 54.404 8.658 10.662 14.822 16.323 21.504 19.749 8.878 4.553 12.835 10.969 11.24 18.229-1.139 5.184-4.663 6.775-14.861 6.711-6.594-0.041-10.808-0.985-18.274-4.093-12.258-5.103-18.199-10.209-29.318-25.198-9.839-13.264-14.275-17.173-24.658-21.728-14.838-6.509-13.81-6.443-90.161-5.788l-47.023 0.403-1.945 3.465c-1.671 2.977-1.71 4.521-0.273 10.962 3.364 15.089 3.371 17.888 0.046 20.217-1.658 1.161-4.564 2.111-6.458 2.111s-3.751 0.8-4.126 1.777c-1.365 3.558 16.283 44.184 30.041 69.155 75.538 137.103 208.725 231.771 361.781 257.149 18.303 3.035 34.614 4.776 54.811 5.852 27.234 1.45 28.149 1.451 53.521 0.057zM574.549 787.281c-4.965-1.79-14.251-4.745-20.635-6.567-14.504-4.14-15.246-4.773-13.243-11.299 1.149-3.743 2.596-5.441 5.768-6.766 3.784-1.581 5.025-1.48 11.658 0.951 4.083 1.496 11.196 4.102 15.806 5.79 13.966 5.115 25.35 3.835 35.633-4.008 5.351-4.081 6.272-4.007 8.206 0.66 4.717 11.389-7.859 23.124-25.783 24.057-6.508 0.339-10.402-0.291-17.411-2.817zM729.955 662.317c45.786-5.794 67.257-11.032 93.202-22.738 27.808-12.547 46.137-25.446 69.315-48.781 30.919-31.128 45.681-59.361 47.269-90.405 1.807-35.313-12.993-61.801-47.932-85.788-16.319-11.204-80.157-39.854-86.995-39.043-2.415 0.286-3.637 1.632-5.030 5.537-5.907 16.566-10.969 27.407-16.26 34.822-5.744 8.050-8.431 10.208-8.43 6.77 0-0.887 2.616-12.349 5.812-25.471 7.209-29.593 8.128-39.919 5.209-58.509-4.217-26.856-10.548-46.964-27.889-88.566-6.998-16.789-15.122-37.429-18.052-45.866-15.349-44.188-37.039-74.44-64.415-89.845-34.162-19.224-84.041-22.483-144.417-9.438-27.988 6.047-38.112 5.776-80.601-2.159-19.056-3.559-24.793-4.1-43.849-4.135-19.448-0.036-23.017 0.3-31.597 2.98-23.038 7.193-37.855 18.778-47.303 36.982-21.435 41.301-33.083 87.405-33.229 131.532l-0.073 21.933 4.219 8.589c6.143 12.505 20.643 25.776 37.782 34.58 17.631 9.056 35.011 15.084 78.583 27.254 80.83 22.576 92.908 26.991 103.973 38.004 6.382 6.352 10.013 15.375 12.563 31.216 2.238 13.902 3.746 16.988 13.817 28.262 9.723 10.886 11.010 13.056 8.347 14.078-2.73 1.048-25.829-1.715-40.684-4.866-26.070-5.53-62.608-19.287-110.912-41.762-10.285-4.785-32.239-14.674-48.787-21.975s-34.248-15.736-39.335-18.745c-12.1-7.157-25.16-20.286-29.92-30.079-3.22-6.624-3.715-9.129-3.701-18.7 0.014-9.095 0.773-13.272 4.286-23.591 2.348-6.897 3.948-13.376 3.556-14.397-1.098-2.86-14.163-3.766-55.691-3.862-29.831-0.069-39.913 0.359-49.815 2.114-15.081 2.672-29.684 7.709-41.752 14.399-11.656 6.462-28.082 22.934-34.182 34.276-4.404 8.189-4.508 8.726-4.508 23.214v14.831l6.069 12.252c8.146 16.446 16.058 26.607 39.044 50.138 51.88 53.112 109.653 92.769 194.937 133.812 108.107 52.026 184.672 75.542 270.016 82.931 20.938 1.813 98.22 0.638 117.36-1.784zM387.242 255.607c-16.055-6.427-30.065-25.156-29.975-40.072 0.033-5.451 4.19-15.357 6.878-16.388 1.139-0.437 4.216 1.811 7.967 5.821 8.307 8.88 20.251 14.684 36.090 17.536 11.219 2.020 14.871 2.087 36.248 0.666 13.075-0.869 26.803-1.198 30.507-0.731 8.408 1.060 19.058 4.306 21.422 6.531 1.501 1.412 0.978 1.897-3.224 2.996-2.758 0.721-11.109 1.957-18.556 2.746-40.602 4.303-58.731 9.315-72.988 20.18-4.673 3.561-6.972 3.675-14.369 0.714zM620.168 167.041c3.815-4.139 5.323-6.89 5.323-9.714 0-5.739-2.945-11.877-7.563-15.763-2.224-1.872-4.044-3.814-4.044-4.316 0-1.383 16.582 0.448 23.996 2.65 8.673 2.576 16.302 8.276 19.173 14.326l2.335 4.922-4.3 3.59c-5.158 4.306-12.907 7.007-25.083 8.743-15.921 2.269-15.99 2.238-9.837-4.437z"></path>
</svg>
