<!-- Generated by IcoMoon.io -->
<svg version="1.1" xmlns="http://www.w3.org/2000/svg" width="1024" height="1024" viewBox="0 0 1024 1024">
<title></title>
<g id="icomoon-ignore">
</g>
<path d="M507.822 31.631c259.062 0 469.391 210.33 469.391 469.391s-210.33 469.391-469.391 469.391c-259.062 0-469.391-210.33-469.391-469.391s210.33-469.391 469.391-469.391zM874.957 771.594c-20.183-5.642-39.291-1.915-58.931-4.526-22.815-3.031-44.022-1.495-60.908-3.451-7.977-1.219-10.906 1.341-11.776 7.926l3.246 9.912c1.167 6.175-1.454 10.004-7.404 11.786l-44.186 20.152-40.335 39.199c-9.759 7.045-20.521 11.848-32.881 12.954 4.772-21.852 42.004-69.437 77.414-115.589 1.628-20.951 5.059-38.113 10.404-51.251 4.659-20.89 7.905-38.666 3.635-39.956-8.366-0.113-18.463 4.055-28.529 8.12-12.769 0.594-22.712-0.133-29.747-2.222l-24.873-4.69c-11.899 0.225-22.835 3.103-33.126 7.465-8.397-1.925-15.78-3.133-22.497-7.875-25.62-1.096-53.361 1.311-82.258 5.192-30.321 1.188-53.023-4.751-65.679-20.101-13.476-12.841-25.344-27.853-37.376-42.65-9.114-7.516-18.258-15.165-25.303-11.356l-7.086 6.789c-4.946 1.341-9.697 1.3-14.551-2.755-11.448-12.564-21.565-27.863-31.693-43.162-43.551-27.054-71.168-4.618-71.27 33.075 8.509 23.634 21.944 41.042 36.147 57.477l11.274 9.441c13.158 10.107 13.22 18.043 2.796 24.269-22.548 1.382-40.376-8.059-53.156-29.133-9.851-15.391-25.539-21.78-47.258-23.296-30.085 2.14-59.607 3.011-88.3 0.584-6.851-0.225-9.503 1.464-8.735 5.919l3.697 12.769c1.638 8.837 0.266 14.213-5.345 13.814l-7.997 1.884c70.308 161.382 189.665 252.918 316.682 281.098 165.601 36.731 342.804-9.452 475.904-167.813zM545.823 724.091l25.549 9.882c3.789 0.604 7.363 0.645 10.455-0.635 6.164-1.761 10.834-4.557 13.425-8.776 2.12-1.024 3.768-0.829 5.007 0.471 4.536 4.854 4.71 10.24 0.891 16.118-2.079 5.192-7.537 8.53-14.889 10.813-6.533 1.884-13.322 1.956-20.419-0.225l-30.996-9.646c-5.724-0.154-7.619-3.092-5.847-8.684 1.546-3.727 3.041-6.656 4.393-7.68 3.287-3.021 7.731-2.693 12.431-1.638zM365.189 142.879c-9.247 5.417-16.128 12.851-21.361 21.688l-13.138 28.324c-5.622 14.469-9.912 29.655-13.332 45.292-3.738 16.957-5.028 33.26-5.427 49.326-0.512 11.663 1.843 20.89 6.216 28.385 10.998 13.763 26.122 23.972 43.581 32.174l114.934 34.775c13.425 2.714 25.303 7.926 35.891 15.227 7.793 9.083 12.544 19.139 11.817 30.956 1.157 10.322 4.567 17.684 10.506 21.688l8.755 10.537c3.83 3.963 4.628 6.697 0.41 7.383-4.874 0.758-9.667 0.512-15.186-0.696-22.139-1.649-41.236-7.926-60.426-14.746l-55.030-22.661-55.634-25.887c-20.531-6.185-37.54-16.722-50.893-31.785-10.414-9.226-12.892-22.743-9.861-39.229 1.3-8.509 4.321-15.8 8.172-22.518l-76.82-1.741c-20.316 1.106-38.42 6.216-54.815 14.418-15.421 9.298-26.327 21.453-32.256 36.71-5.97 18.166-1.065 34.058 10.824 48.425 2.867 6.431 20.214 26.767 50.565 54.405 11.52 10.496 25.16 21.033 39.772 33.761 120.689 77.865 243.241 132.086 366.52 140.257 71.383 0.635 135.393-3.072 178.862-24.269 48.998-22.907 82.227-58.604 97.997-105.789 7.68-33.065-3.195-62.157-33.874-86.989-23.665-15.053-51.876-28.201-82.698-40.274-6.543 22.641-14.94 39.987-27.679 45.005-2.755-9.871 5.038-37.734 10.301-61.809-2.785-25.272-9.257-50.575-18.34-76.155l-17.203-40.663-17.664-45.65c-6.072-12.626-13.619-24.105-22.743-34.335-19.681-23.030-48.108-33.219-81.869-35.543-21.248-0.512-41.789 1.495-61.716 5.642-26.644 6.277-47.872 7.025-65.362 2.427l-46.725-6.789c-22.825-1.372-40.366 3.113-55.071 10.721z"></path>
</svg>
