<!-- Generated by IcoMoon.io -->
<svg version="1.1" xmlns="http://www.w3.org/2000/svg" width="1024" height="1024" viewBox="0 0 1024 1024">
<title></title>
<g id="icomoon-ignore">
</g>
<path d="M555.288 982.454c-56.448-31.853-85.672-46.924-120.319-67.502 76.611 8.85 187.739 21.837 264.326 30.883-40.634 21.226-97.776 31.819-144.007 36.619zM774.68 903.113c-108.049-20.713-219.405-41.929-327.007-64.85 157.086-32.63 317.909-63.552 475.407-94.138-14.332 40.976-97.706 134.672-145.449 159.411l-2.95-0.422zM434.661 762.807c180.124-101.386 372.3-208.88 544.668-305.911 9.516 86.094-1.439 170.824-34.441 244.095-166.765 20.523-343.418 41.635-510.227 61.816zM401.805 691.34c150.683-164.612 302.579-328.113 453.912-492.13 60.303 62.24 100.204 142.642 117.915 227.193-189.443 90.245-381.143 176.94-571.828 264.937zM346.447 636.621c79.806-189.356 187.906-409.313 264.455-575.261 84.808 16.66 165.016 58.767 226.459 119.598-161.128 151.279-328.959 305.267-490.913 455.663zM121.906 600.418c-24.134-41.131-46.829-83.094-70.189-124.669 4.327-50.642 17.004-100.899 38.333-147.061 10.954 90.535 21.977 181.072 31.856 271.731zM276.218 601.224c20.002-171.653 39.868-343.462 61.219-514.966 63.27-25.535 139.548-42.44 244.382-30.798-51.84 92.616-250.086 447.097-305.601 545.764zM200.062 589.502c-17.239-82.291-57.359-283.266-68.075-337.299 42.598-59.53 97.633-110.414 162.4-144.95-27.918 148.487-65.219 333.991-94.325 482.249z"></path>
</svg>
