<!-- Generated by IcoMoon.io -->
<svg version="1.1" xmlns="http://www.w3.org/2000/svg" width="1052" height="1024" viewBox="0 0 1052 1024">
<title>jira</title>
<g id="icomoon-ignore">
</g>
<path fill="#000" d="M179.901 50.849c-62.071 13.677-106.608 62.071-116.778 126.597-2.455 16.132-3.507 130.805-2.805 352.088l1.052 327.89 8.066 21.041c18.236 47.693 47.342 76.449 95.386 93.633l22.795 8.066 327.89 0.701c186.214 0.351 336.307-0.701 347.178-2.455 38.575-6.663 59.616-17.184 85.918-43.836 19.288-19.288 26.301-29.458 33.315-47.342l8.767-22.795v-704.877l-8.066-19.288c-21.392-50.499-63.123-82.060-119.934-91.529-10.521-1.753-163.068-3.156-340.164-2.805-256.351 0-325.436 1.052-342.619 4.91zM763.792 500.427l0.701 57.162-220.932 110.466c-121.688 60.668-222.685 110.466-224.438 110.466-2.104 0-3.507-22.093-3.507-57.162v-56.811l163.77-82.060 164.121-81.71-327.89-164.121v-55.408c0-30.51 1.052-56.46 2.104-57.863 1.052-1.052 101.699 48.044 223.737 109.063l221.282 111.167 1.052 56.811z"></path>
</svg>
