<!-- Generated by IcoMoon.io -->
<svg version="1.1" xmlns="http://www.w3.org/2000/svg" width="1024" height="1024" viewBox="0 0 1024 1024">
<title></title>
<g id="icomoon-ignore">
</g>
<path d="M725.327 355.314c7.332-47.558 59.215-84.466 122.044-84.466 67.847 0 122.931 43.042 122.931 96.058 0 53.012-55.084 96.055-122.931 96.055-24.293 0-46.95-5.519-66.031-15.039-10.086-34.997-29.614-66.632-56.013-92.607z"></path>
<path d="M369.251 347.481c-11.909-61.856 10.988-119.514 56.593-134.868 44.93-15.124 97.13 15.787 125.368 70.694-2.693-0.075-5.393-0.116-8.103-0.116-67.86 0-129.338 24.576-173.858 64.29z"></path>
<path d="M305.705 445.119c-4.495 0.847-9.134 1.29-13.875 1.29-41.219 0-74.684-33.464-74.684-74.684s33.464-74.687 74.684-74.687c34.516 0 63.594 23.467 72.141 55.299-27.242 25.836-47.551 57.556-58.266 92.781z"></path>
<path d="M72.96 474.781c0.331-29.71 50.562-53.777 112.384-53.777 60.972 0 110.671 23.412 112.343 52.559-2.55 27.805-2.86 29.078-2.86 60.549 0 75.998 29.734 110.845 51.067 161.29 42.025 42.26 51.961 55.658 94.385 74.349 46.773 20.61 60.092 21.716 112.538 21.716 56.887 0 59.781-7.704 105.759-25.665 39.335-28.221 54.009-28.89 92.133-79.029 8.445-25.777 32.952-46.046 45.397-62.269 12.445-16.22 37.27-17.708 64.823-17.708 23.555 0 49.609 8.919 66.499 25.361 16.889 16.445 47.111 50.367 47.111 74.813-9.974 21.719-3.673 66.048-42.308 101.065-15.333 36.222-51.173 60.324-84.064 95.215-32.887 34.888-74.889 63.222-126 84.999s-110.667 32.666-178.668 32.666c-51.555 0-99.488-12.906-141.711-22.682-42.223-9.779-77.107-30.925-111.555-51.593-34.444-20.668-62.31-43.069-91.197-76.848-25.777-30.665-53.978-55.876-72.202-93.877s-31.887-78.554-41.001-121.665c-9.11-43.114-13.667-88.89-13.667-137.335 0-28.378-0.748-15.746 0.795-42.134v0z"></path>
<path d="M246.967 454.114c0 39.716-32.196 71.912-71.912 71.912s-71.912-32.196-71.912-71.912c0-39.716 32.196-71.912 71.912-71.912s71.912 32.196 71.912 71.912z"></path>
<path d="M203.82 340.265c0 13.022-10.065 23.579-22.48 23.579s-22.48-10.557-22.48-23.579c0-13.022 10.065-23.579 22.48-23.579s22.48 10.557 22.48 23.579z"></path>
<path d="M162.563 267.448c0 16.636-13.486 30.123-30.123 30.123s-30.123-13.486-30.123-30.123c0-16.636 13.486-30.123 30.123-30.123s30.123 13.486 30.123 30.123z"></path>
<path d="M320.42 187.293c0 22.005-17.839 39.844-39.844 39.844s-39.844-17.839-39.844-39.844c0-22.005 17.839-39.844 39.844-39.844s39.844 17.839 39.844 39.844z"></path>
<path d="M374.955 222.010c0 8.378-6.791 15.169-15.169 15.169s-15.169-6.791-15.169-15.169c0-8.378 6.791-15.169 15.169-15.169s15.169 6.791 15.169 15.169z"></path>
<path d="M516.803 220.983c0 19.745-16.006 35.751-35.751 35.751s-35.751-16.006-35.751-35.751c0-19.745 16.006-35.751 35.751-35.751s35.751 16.006 35.751 35.751z"></path>
<path d="M558.725 78.568c0 17.782-14.416 32.198-32.198 32.198s-32.198-14.416-32.198-32.198c0-17.782 14.416-32.198 32.198-32.198s32.198 14.416 32.198 32.198z"></path>
<path d="M420.908 25.965c0 8.089-6.558 14.647-14.647 14.647s-14.647-6.558-14.647-14.647c0-8.089 6.558-14.647 14.647-14.647s14.647 6.558 14.647 14.647z"></path>
<path d="M819.982 309.207c0 26.965-21.859 48.824-48.824 48.824s-48.824-21.859-48.824-48.824c0-26.965 21.859-48.824 48.824-48.824s48.824 21.859 48.824 48.824z"></path>
<path d="M877.421 164.874c0 16.567-13.43 29.996-29.996 29.996s-29.996-13.43-29.996-29.996c0-16.567 13.43-29.996 29.996-29.996s29.996 13.43 29.996 29.996z"></path>
<path d="M786.878 136.038c0 23.792-18.722 43.080-41.817 43.080s-41.817-19.287-41.817-43.080c0-23.792 18.722-43.080 41.817-43.080s41.817 19.287 41.817 43.080z"></path>
<path d="M716.057 240.695c0 33.968-27.331 61.505-61.046 61.505s-61.046-27.537-61.046-61.505c0-33.968 27.331-61.505 61.046-61.505s61.046 27.537 61.046 61.505z"></path>
<path d="M806.912 235.513c0 7.418-6.013 13.431-13.431 13.431s-13.431-6.013-13.431-13.431c0-7.418 6.013-13.431 13.431-13.431s13.431 6.013 13.431 13.431z"></path>
<path d="M965.629 302.141c0 28.507-20.189 51.616-45.094 51.616s-45.094-23.109-45.094-51.616c0-28.507 20.189-51.616 45.094-51.616s45.094 23.109 45.094 51.616z"></path>
</svg>
