<!-- Generated by IcoMoon.io -->
<svg version="1.1" xmlns="http://www.w3.org/2000/svg" width="1024" height="1024" viewBox="0 0 1024 1024">
<title>jira</title>
<g id="icomoon-ignore">
</g>
<path d="M489.332 1016.292c-61.676-9.766-103.897-22.486-148.428-44.72-55.554-27.738-82.075-48.091-120.854-92.75-8.244-9.494-16.945-17.262-19.337-17.262-6 0-28.201-25.856-49.213-57.317-52.059-77.945-76.447-163.073-76.29-266.293l0.074-48.837 14.126-14.394c9.617-9.799 15.896-20.351 19.669-33.057 9.398-31.646 39.116-54.855 69.64-54.387 7.485 0.115 20.803 4.142 37.547 11.355 4.303 1.854 5.12-2.061 5.12-24.535 0-23.404 1.162-28.496 9.31-40.809 20.699-31.279 62.867-42.081 95.082-24.357 17.032 9.371 37.261 36.563 37.261 50.088 0 4.876-5.874 16.309-13.393 26.068-7.366 9.56-18.56 26.598-24.875 37.862l-11.483 20.48-19.311 1.018c-14.424 0.76-22.897-0.811-33.482-6.211-7.794-3.976-14.826-6.574-15.627-5.773-3.679 3.679 3.99 13.138 16.935 20.889 7.808 4.675 18.804 12.274 24.436 16.887l10.24 8.387 0.229 54.082c0.262 61.943 3.883 79.373 25.411 122.348 31.133 62.147 89.253 111.135 155.223 130.834 21.244 6.343 36.113 8.272 66.603 8.64 100.587 1.213 160.833-31.867 220.354-120.99 25.693-38.471 41.44-51.474 71.967-59.425 37.036-9.647 80.116 4.514 110.665 36.375 24.030 25.063 28.763 36.757 28.784 71.127 0.017 25.923-1.151 31.318-10.954 50.649-60.538 119.375-201.341 218.16-343.913 241.285-27.968 4.536-109.461 6.238-131.515 2.746zM822.567 464.015c-21.497-7.663-36.499-22.313-63.014-61.535-19.087-28.234-24.643-39.063-23.395-45.593 1.005-5.258-0.898-11.993-4.929-17.446-21.779-29.458-0.802-71.753 35.606-71.789 7.133-0.007 17.885 2.634 23.893 5.869 8.167 4.397 17.112 5.604 35.442 4.78 13.485-0.606 29.99 0.704 36.678 2.911 11.683 3.856 12.611 3.534 23.672-8.193 9.959-10.56 13.628-12.206 27.203-12.206 12.732 0 18 2.027 27.931 10.747 6.732 5.911 14.465 15.050 17.185 20.31 7.18 13.884 6.257 34.622-2.008 45.129l-6.953 8.84 10.546 20.892c9.689 19.194 10.21 21.911 6.41 33.434-6.43 19.499-41.664 52.585-65.471 61.48-23.020 8.601-58.335 9.664-78.797 2.37zM168.479 356.386c-3.755-3.755-6.827-9.899-6.827-13.653 0-9.263 11.862-20.48 21.658-20.48 16.961 0 25.768 23.811 13.060 35.311-8.393 7.596-19.591 7.123-27.891-1.178zM374.765 345.79c-5.5-8.9-5.524-46.534-0.043-67.961 9.353-36.566 28.453-56.648 59.997-63.084 6.571-1.341 15.931-6.173 20.801-10.739s14.429-9.206 21.243-10.312c10.915-1.771 13.821-0.578 24.426 10.027 7.854 7.854 12.037 15.253 12.037 21.292 0 5.723 5.019 15.295 13.154 25.088 13.992 16.842 22.462 30.848 20.090 33.221-0.793 0.793-14.358 3.054-30.143 5.025-46.651 5.823-83.331 20.798-120.576 49.228-17.556 13.401-17.737 13.472-20.985 8.217zM634.399 300.050c-17.937-6.339-27.243-17.63-32.463-39.39-5.661-23.596 0.205-51.741 13.567-65.104 33.796-33.796 99.109 5.341 99.109 59.388 0 12.824-1.998 18.146-10.411 27.727-15.614 17.783-46.733 25.531-69.803 17.378zM113.603 291.795c-12.852-12.852-13.203-26.826-0.979-39.050s26.198-11.874 39.050 0.979c6.015 6.015 9.977 13.575 9.977 19.036 0 11.974-17.039 29.013-29.013 29.013-5.461 0-13.021-3.963-19.036-9.977zM787.776 245.712c-8.212-6.005-3.939-15.619 6.942-15.619 6.838 0 8.64 1.704 8.64 8.168 0 9.896-7.4 13.434-15.583 7.451zM349.703 232.182c-5.507-6.636 0.783-19.156 9.624-19.156 9.365 0 16.092 9.488 11.698 16.499-4.734 7.554-16.084 8.968-21.322 2.657zM259.639 219.799c-4.811-3.784-10.516-12.241-12.678-18.794-3.304-10.011-2.935-13.955 2.313-24.693 22.356-45.751 86.432-14.662 65.314 31.689-8.275 18.162-38.584 24.67-54.948 11.798zM837.11 194.334c-18.637-10.297-19.945-35.296-2.487-47.524 18.626-13.046 43.829 1.459 43.829 25.226 0 8.879-13.527 23.284-23.893 25.445-4.693 0.978-12.545-0.438-17.449-3.147zM725.904 178.86c-24.194-9.746-27.676-57.536-5.465-75.007 10.609-8.345 21.686-8.722 37.385-1.272 25.778 12.232 37.639 49.464 20.787 65.25-14.18 13.284-35.853 17.819-52.708 11.030zM510.842 102.088c-24.111-16.888-1.542-57.599 25.68-46.323 18.187 7.533 22.91 29.444 9.285 43.069-9.583 9.583-24.012 10.926-34.965 3.254zM396.191 36.827c-8.406-8.406 2.857-23.806 14.669-20.057 10.884 3.455 8.111 20.116-3.576 21.479-4.764 0.556-9.756-0.084-11.093-1.422z"></path>
<path d="M489.332 1016.292c-61.676-9.766-103.897-22.486-148.428-44.72-55.554-27.738-82.075-48.091-120.854-92.75-8.244-9.494-16.945-17.262-19.337-17.262-6 0-28.201-25.856-49.213-57.317-52.059-77.945-76.447-163.073-76.29-266.293l0.074-48.837 14.126-14.394c9.617-9.799 15.896-20.351 19.669-33.057 10.443-35.166 44.336-58.383 77.49-53.082 27.259 4.359 52.647 24.813 58.126 46.83 1.422 5.713 7.609 12.257 16.778 17.745 7.989 4.781 19.134 12.468 24.766 17.081l10.24 8.387 0.229 54.082c0.262 61.943 3.883 79.373 25.411 122.348 49.177 98.165 156.672 154.497 262.786 137.71 41.787-6.611 76.175-5.357 99.581 3.63 55.704 21.389 81.46 87.535 65.382 167.92-1.725 8.626-5.338 11.842-21.228 18.901-26.678 11.851-71.343 24.419-107.794 30.332-27.968 4.536-109.461 6.238-131.515 2.746zM853.793 882.893c-23.83-27.178-23.841-70.374-0.031-114.841 11.032-20.604 60.199-71.232 84.421-86.931l17.064-11.059 5.756 7.109c9.289 11.471 14.154 41.806 9.892 61.679-6.971 32.503-32.449 73.742-76.34 123.563-23.856 27.079-31.575 30.957-40.761 20.48zM260.198 431.54c-26.016-13.917-36.131-34.927-32.917-68.375 3.672-38.219 43.308-64.754 81.401-54.496 22.961 6.183 47.529 32.628 47.529 51.161 0 3.958-4.99 13.406-11.090 20.996s-16.542 23.244-23.207 34.787l-12.117 20.987-18.607 0.783c-13.081 0.551-22.285-1.184-30.993-5.843zM168.479 356.386c-3.755-3.755-6.827-9.899-6.827-13.653 0-9.263 11.862-20.48 21.658-20.48 16.961 0 25.768 23.811 13.060 35.311-8.393 7.596-19.591 7.123-27.891-1.178zM746.371 353.123c-40.665-24.795-25.993-85.426 20.683-85.471 18.901-0.018 37.116 11.352 44.134 27.55 7.241 16.713 7.196 18.58-0.879 36.367-11.749 25.882-40.786 35.671-63.938 21.554zM890.974 346.194c-14.026-12.315-22.835-38.056-16.496-48.205 2.186-3.5 3.974-8.806 3.974-11.792s4.49-9.919 9.977-15.406c14.484-14.484 36.21-14.17 53.225 0.769 15.549 13.653 22.131 26.422 22.131 42.938 0 15.44-6.016 25.068-21.734 34.782-17.263 10.669-36.752 9.492-51.077-3.086zM374.765 345.79c-5.5-8.9-5.524-46.534-0.043-67.961 9.353-36.566 28.453-56.648 59.997-63.084 6.571-1.341 15.931-6.173 20.801-10.739s14.429-9.206 21.243-10.312c10.915-1.771 13.821-0.578 24.426 10.027 7.854 7.854 12.037 15.253 12.037 21.292 0 5.723 5.019 15.295 13.154 25.088 13.992 16.842 22.462 30.848 20.090 33.221-0.793 0.793-14.358 3.054-30.143 5.025-46.651 5.823-83.331 20.798-120.576 49.228-17.556 13.401-17.737 13.472-20.985 8.217zM634.399 300.050c-17.937-6.339-27.243-17.63-32.463-39.39-5.661-23.596 0.205-51.741 13.567-65.104 33.796-33.796 99.109 5.341 99.109 59.388 0 12.824-1.998 18.146-10.411 27.727-15.614 17.783-46.733 25.531-69.803 17.378zM113.603 291.795c-12.852-12.852-13.203-26.826-0.979-39.050s26.198-11.874 39.050 0.979c6.015 6.015 9.977 13.575 9.977 19.036 0 11.974-17.039 29.013-29.013 29.013-5.461 0-13.021-3.963-19.036-9.977zM787.776 245.712c-8.212-6.005-3.939-15.619 6.942-15.619 6.838 0 8.64 1.704 8.64 8.168 0 9.896-7.4 13.434-15.583 7.451zM349.703 232.182c-5.507-6.636 0.783-19.156 9.624-19.156 9.365 0 16.092 9.488 11.698 16.499-4.734 7.554-16.084 8.968-21.322 2.657zM259.639 219.799c-4.811-3.784-10.516-12.241-12.678-18.794-3.304-10.011-2.935-13.955 2.313-24.693 22.356-45.751 86.432-14.662 65.314 31.689-8.275 18.162-38.584 24.67-54.948 11.798zM837.11 194.334c-18.637-10.297-19.945-35.296-2.487-47.524 18.626-13.046 43.829 1.459 43.829 25.226 0 8.879-13.527 23.284-23.893 25.445-4.693 0.978-12.545-0.438-17.449-3.147zM725.904 178.86c-24.194-9.746-27.676-57.536-5.465-75.007 10.609-8.345 21.686-8.722 37.385-1.272 25.778 12.232 37.639 49.464 20.787 65.25-14.18 13.284-35.853 17.819-52.708 11.030zM510.842 102.088c-24.111-16.888-1.542-57.599 25.68-46.323 18.187 7.533 22.91 29.444 9.285 43.069-9.583 9.583-24.012 10.926-34.965 3.254zM396.191 36.827c-8.406-8.406 2.857-23.806 14.669-20.057 10.884 3.455 8.111 20.116-3.576 21.479-4.764 0.556-9.756-0.084-11.093-1.422z"></path>
<path d="M489.332 1016.292c-82.614-13.081-144.206-36.244-203.041-76.359-46.282-31.556-47.375-32.934-48.898-61.67-0.736-13.88-2.581-26.558-4.099-28.173-1.525-1.622-10.83-0.256-20.786 3.051l-18.024 5.987-11.423-13.291c-31.89-37.105-68-101.145-83.965-148.911-18.016-53.9-27.918-128.587-24.009-181.099l2.233-30 17.42-15.748c9.581-8.661 27.404-20.505 39.607-26.32 20.19-9.621 25.106-10.548 54.613-10.298 28.794 0.243 34.912 1.449 54.613 10.763 12.203 5.769 29.099 15.81 37.547 22.313l15.36 11.824 0.229 54.213c0.262 62.087 3.872 79.483 25.411 122.48 49.177 98.165 156.672 154.497 262.786 137.71 41.787-6.611 76.175-5.357 99.581 3.63 55.704 21.389 81.46 87.535 65.382 167.92-1.725 8.626-5.338 11.842-21.228 18.901-26.678 11.851-71.343 24.419-107.794 30.332-27.968 4.536-109.461 6.238-131.515 2.746zM853.793 882.893c-23.83-27.178-23.841-70.374-0.031-114.841 11.032-20.604 60.199-71.232 84.421-86.931l17.064-11.059 5.756 7.109c9.289 11.471 14.154 41.806 9.892 61.679-6.971 32.503-32.449 73.742-76.34 123.563-23.856 27.079-31.575 30.957-40.761 20.48zM260.198 431.54c-26.016-13.917-36.131-34.927-32.917-68.375 3.672-38.219 43.308-64.754 81.401-54.496 22.961 6.183 47.529 32.628 47.529 51.161 0 3.958-4.99 13.406-11.090 20.996s-16.542 23.244-23.207 34.787l-12.117 20.987-18.607 0.783c-13.081 0.551-22.285-1.184-30.993-5.843zM755.856 358.547c0.782-0.689 8.925-2.060 18.096-3.046 10.194-1.096 14.837-0.63 11.947 1.2-4.426 2.803-33.132 4.567-30.043 1.846zM900.111 353.774c-2.167-1.379 5.75-2.508 17.594-2.508s19.761 1.128 17.594 2.508c-2.167 1.379-10.085 2.508-17.594 2.508s-15.427-1.128-17.594-2.508zM798.239 346.146c3.398-3.755 6.946-6.827 7.885-6.827s-1.073 3.072-4.471 6.827c-3.398 3.755-6.946 6.827-7.885 6.827s1.073-3.072 4.471-6.827zM375.036 346.227c-8.841-14.306-3.837-68.093 8.605-92.481 8.432-16.527 27.598-32.854 43.353-36.93 31.016-8.025 63.707 1.813 91.668 27.586 14.452 13.321 30.886 35.839 28.151 38.573-0.728 0.728-13.575 2.889-28.549 4.802-48.791 6.233-90.005 22.999-123.373 50.188-15.535 12.658-16.81 13.189-19.855 8.261zM880.018 335.679c-1.237-2.002-1.518-4.372-0.623-5.267s2.536 0.743 3.648 3.64c2.308 6.015 0.341 7.073-3.025 1.627zM873.059 313.464c-1.259-6.711-0.945-13.528 0.699-15.149 1.701-1.678 3.17 3.576 3.412 12.202 0.512 18.309-1.022 19.409-4.11 2.947zM814.138 312.013c0-4.693 0.775-6.613 1.722-4.267s0.947 6.187 0 8.533c-0.947 2.347-1.722 0.427-1.722-4.267zM623.1 294.858c-14.549-8.871-22.161-26.991-22.299-53.084-0.279-53.015 42.772-76.035 83.695-44.751 28.043 21.438 39.111 61.672 22.704 82.531-16.704 21.236-61.115 29.318-84.1 15.304zM719.803 170.741c-15.754-15.754-15.469-50.806 0.516-63.38 19.058-14.991 47.886-4.21 59.609 22.291 5.090 11.507 6.049 17.775 3.771 24.656-7.549 22.804-47.302 33.029-63.897 16.434z"></path>
<path d="M500.425 1016.22c3.285-0.859 8.661-0.859 11.947 0s0.597 1.561-5.973 1.561c-6.571 0-9.259-0.702-5.973-1.561zM582.345 1016.22c3.285-0.859 8.661-0.859 11.947 0s0.597 1.561-5.973 1.561c-6.571 0-9.259-0.702-5.973-1.561zM446.665 1008.699c-70.273-15.285-144.79-51.434-196.127-95.145-11.169-9.51-11.88-11.417-13.146-35.29-0.736-13.88-2.581-26.558-4.099-28.173-1.525-1.622-10.83-0.256-20.786 3.051l-18.024 5.987-11.423-13.291c-31.89-37.105-68-101.145-83.965-148.911-18.016-53.9-27.918-128.587-24.009-181.099l2.233-30 17.42-15.748c9.581-8.661 27.404-20.505 39.607-26.32 20.19-9.621 25.106-10.548 54.613-10.298 28.794 0.243 34.912 1.449 54.613 10.763 12.203 5.769 29.099 15.81 37.547 22.313l15.36 11.824 0.229 54.213c0.169 39.877 1.75 59.628 5.98 74.693 8.303 29.567 30.78 72.622 48.467 92.842l15.295 17.484-14.151 24.972c-15.723 27.746-15.792 20.422 0.694 72.916 10.737 34.187 10.959 96.47 0.457 128-8.666 26.016-8.823 27.345-3.212 27.185 2.347-0.067 10.411-10.267 17.92-22.668 17.353-28.657 57.484-69.976 90.453-93.131 25.551-17.945 82.509-47.919 91.059-47.919 7.859 0 4.869-6.809-3.166-7.211-17.883-0.894 66.411-11.016 91.307-10.964 86.95 0.181 132.773 71.964 112.057 175.542-1.719 8.596-5.319 11.827-20.799 18.674-19.209 8.495-26.866 10.625-17.97 4.999 2.762-1.747 4.298-3.736 3.413-4.42s-9.676-6.307-19.536-12.494c-46.146-28.953-74.952-83.171-81.475-153.351-2.103-22.627-2.923-24.682-9.476-23.746-6.611 0.944-7.339 3.838-9.28 36.864-2.474 42.102-11.113 66.78-35.189 100.518-17.817 24.968-39.695 45.153-67.625 62.393-20.762 12.815-23.42 16.514-13.694 19.056 16.204 4.235-7.244 1.184-31.573-4.108zM614.985 1012.828c2.464-0.986 5.408-0.865 6.542 0.269s-0.882 1.941-4.48 1.793c-3.976-0.164-4.785-0.973-2.062-2.062zM853.793 882.893c-23.83-27.178-23.841-70.374-0.031-114.841 11.032-20.604 60.199-71.232 84.421-86.931l17.064-11.059 5.756 7.109c9.289 11.471 14.154 41.806 9.892 61.679-6.971 32.503-32.449 73.742-76.34 123.563-23.856 27.079-31.575 30.957-40.761 20.48zM514.144 794.341c3.321-0.865 7.929-0.809 10.24 0.127s-0.406 1.643-6.038 1.574c-5.632-0.070-7.523-0.835-4.202-1.7zM492.105 790.961c2.464-0.986 5.408-0.865 6.542 0.269s-0.882 1.941-4.48 1.793c-3.976-0.164-4.785-0.973-2.062-2.062zM478.452 787.548c2.464-0.986 5.408-0.865 6.542 0.269s-0.882 1.941-4.48 1.793c-3.976-0.164-4.785-0.973-2.062-2.062zM381.597 734.413l-10.025-11.093 11.093 10.025c6.101 5.514 11.093 10.506 11.093 11.093 0 2.637-2.816 0.315-12.161-10.025zM260.198 431.54c-26.016-13.917-36.131-34.927-32.917-68.375 3.672-38.219 43.308-64.754 81.401-54.496 22.961 6.183 47.529 32.628 47.529 51.161 0 3.958-4.99 13.406-11.090 20.996s-16.542 23.244-23.207 34.787l-12.117 20.987-18.607 0.783c-13.081 0.551-22.285-1.184-30.993-5.843zM755.856 358.547c0.782-0.689 8.925-2.060 18.096-3.046 10.194-1.096 14.837-0.63 11.947 1.2-4.426 2.803-33.132 4.567-30.043 1.846zM900.111 353.774c-2.167-1.379 5.75-2.508 17.594-2.508s19.761 1.128 17.594 2.508c-2.167 1.379-10.085 2.508-17.594 2.508s-15.427-1.128-17.594-2.508zM798.239 346.146c3.398-3.755 6.946-6.827 7.885-6.827s-1.073 3.072-4.471 6.827c-3.398 3.755-6.946 6.827-7.885 6.827s1.073-3.072 4.471-6.827zM375.036 346.227c-8.841-14.306-3.837-68.093 8.605-92.481 8.432-16.527 27.598-32.854 43.353-36.93 31.016-8.025 63.707 1.813 91.668 27.586 14.452 13.321 30.886 35.839 28.151 38.573-0.728 0.728-13.575 2.889-28.549 4.802-48.791 6.233-90.005 22.999-123.373 50.188-15.535 12.658-16.81 13.189-19.855 8.261zM880.018 335.679c-1.237-2.002-1.518-4.372-0.623-5.267s2.536 0.743 3.648 3.64c2.308 6.015 0.341 7.073-3.025 1.627zM873.059 313.464c-1.259-6.711-0.945-13.528 0.699-15.149 1.701-1.678 3.17 3.576 3.412 12.202 0.512 18.309-1.022 19.409-4.11 2.947zM814.138 312.013c0-4.693 0.775-6.613 1.722-4.267s0.947 6.187 0 8.533c-0.947 2.347-1.722 0.427-1.722-4.267zM623.1 294.858c-14.549-8.871-22.161-26.991-22.299-53.084-0.279-53.015 42.772-76.035 83.695-44.751 28.043 21.438 39.111 61.672 22.704 82.531-16.704 21.236-61.115 29.318-84.1 15.304zM719.803 170.741c-15.754-15.754-15.469-50.806 0.516-63.38 19.058-14.991 47.886-4.21 59.609 22.291 5.090 11.507 6.049 17.775 3.771 24.656-7.549 22.804-47.302 33.029-63.897 16.434z"></path>
<path d="M500.425 1016.22c3.285-0.859 8.661-0.859 11.947 0s0.597 1.561-5.973 1.561c-6.571 0-9.259-0.702-5.973-1.561zM582.345 1016.22c3.285-0.859 8.661-0.859 11.947 0s0.597 1.561-5.973 1.561c-6.571 0-9.259-0.702-5.973-1.561zM475.039 1012.828c2.464-0.986 5.408-0.865 6.542 0.269s-0.882 1.941-4.48 1.793c-3.976-0.164-4.785-0.973-2.062-2.062zM614.985 1012.828c2.464-0.986 5.408-0.865 6.542 0.269s-0.882 1.941-4.48 1.793c-3.976-0.164-4.785-0.973-2.062-2.062zM711.1 987.986c2.762-1.747 4.298-3.736 3.413-4.42s-9.676-6.307-19.536-12.494c-46.101-28.924-74.953-83.18-81.459-153.18-2.031-21.857-3.088-24.637-9.476-24.942-3.954-0.189-1.046-1.847 6.463-3.685 18.494-4.527 50.987-1.285 74.207 7.402 55.317 20.697 81.218 87.34 65.157 167.646-1.719 8.596-5.319 11.827-20.799 18.674-19.209 8.495-26.866 10.625-17.97 4.999zM853.793 882.893c-23.83-27.178-23.841-70.374-0.031-114.841 11.032-20.604 60.199-71.232 84.421-86.931l17.064-11.059 5.756 7.109c9.289 11.471 14.154 41.806 9.892 61.679-6.971 32.503-32.449 73.742-76.34 123.563-23.856 27.079-31.575 30.957-40.761 20.48zM236.745 827.649c0-37.129 30.707-129.93 42.993-129.93 9.952 0 49.167 55.367 49.167 69.418 0 5.803-6.566 14.448-21.789 28.689-21.003 19.647-58.66 45.253-66.55 45.253-2.171 0-3.82-5.799-3.82-13.43zM515.785 794.445c2.347-0.947 6.187-0.947 8.533 0s0.427 1.722-4.267 1.722c-4.693 0-6.613-0.775-4.267-1.722zM573.812 794.445c2.347-0.947 6.187-0.947 8.533 0s0.427 1.722-4.267 1.722c-4.693 0-6.613-0.775-4.267-1.722zM379.847 732.706l-8.275-9.387 9.387 8.275c8.773 7.734 10.952 10.498 8.275 10.498-0.611 0-4.835-4.224-9.387-9.387zM359.19 712.226c-4.246-5.414-4.125-5.534 1.289-1.289 3.285 2.577 5.973 5.265 5.973 5.973 0 2.809-2.803 1.001-7.262-4.685zM267.465 680.34c-22.243-18.212-51.344-34.705-72.66-41.18-30.156-9.16-72.4-7.82-94.245 2.988-9.889 4.893-14.871 5.905-15.763 3.202-5.062-15.333-9.596-66.27-9.559-107.384l0.044-48.819 26.554-27.193 4.743 14.629c5.961 18.385 18.58 35.477 32.427 43.92 17.644 10.759 18.462 7.378 0.909-3.754-12.437-7.887-18.254-14.69-24.812-29.013-4.711-10.291-8.069-21.399-7.462-24.684 0.638-3.453 11.152-11.014 24.916-17.92 21.967-11.021 26.208-11.947 54.724-11.947 23.327 0 34.534 1.633 45.674 6.657l14.762 6.657-1.51 18.21c-1.845 22.251-15.497 43.417-35.204 54.578-14.726 8.341-13.773 10.754 1.165 2.95 21.409-11.185 38.23-38.304 38.23-61.635 0-6.631 1.367-12.056 3.038-12.056s12.446 6.926 23.946 15.392l20.908 15.392-2.052 41.782c-2.186 44.509 2.123 77.122 14.454 109.375l6.267 16.393-19.113 20.3c-10.512 11.165-19.728 20.266-20.48 20.224s-5.207-3.22-9.9-7.063zM188.166 528.027c-5.129-0.779-14.345-0.794-20.48-0.035s-1.938 1.397 9.326 1.416c11.264 0.020 16.284-0.602 11.154-1.381zM260.198 431.54c-26.016-13.917-36.131-34.927-32.917-68.375 3.672-38.219 43.308-64.754 81.401-54.496 22.961 6.183 47.529 32.628 47.529 51.161 0 3.958-4.99 13.406-11.090 20.996s-16.542 23.244-23.207 34.787l-12.117 20.987-18.607 0.783c-13.081 0.551-22.285-1.184-30.993-5.843zM755.856 358.547c0.782-0.689 8.925-2.060 18.096-3.046 10.194-1.096 14.837-0.63 11.947 1.2-4.426 2.803-33.132 4.567-30.043 1.846zM900.111 353.774c-2.167-1.379 5.75-2.508 17.594-2.508s19.761 1.128 17.594 2.508c-2.167 1.379-10.085 2.508-17.594 2.508s-15.427-1.128-17.594-2.508zM798.239 346.146c3.398-3.755 6.946-6.827 7.885-6.827s-1.073 3.072-4.471 6.827c-3.398 3.755-6.946 6.827-7.885 6.827s1.073-3.072 4.471-6.827zM880.018 335.679c-1.237-2.002-1.518-4.372-0.623-5.267s2.536 0.743 3.648 3.64c2.308 6.015 0.341 7.073-3.025 1.627zM873.059 313.464c-1.259-6.711-0.945-13.528 0.699-15.149 1.701-1.678 3.17 3.576 3.412 12.202 0.512 18.309-1.022 19.409-4.11 2.947zM814.138 312.013c0-4.693 0.775-6.613 1.722-4.267s0.947 6.187 0 8.533c-0.947 2.347-1.722 0.427-1.722-4.267zM461.215 258.883c-10.146-5.505-19.67-20.957-19.67-31.914 0-10.182 10.897-14.597 27.065-10.964 17.312 3.89 44.615 19.724 44.615 25.875 0 2.57-4.726 8.649-10.502 13.509-11.945 10.051-27.076 11.325-41.509 3.494zM729.484 175.508c-12.427-5.015-18.285-17.091-18.285-37.691 0-21.004 6.879-32.187 22.159-36.022 20.037-5.029 49.521 21.965 49.521 45.339 0 22.268-29.578 37.986-53.395 28.374z"></path>
<path d="M853.793 882.893c-23.83-27.178-23.841-70.374-0.031-114.841 11.032-20.604 60.199-71.232 84.421-86.931l17.064-11.059 5.756 7.109c9.289 11.471 14.154 41.806 9.892 61.679-6.971 32.503-32.449 73.742-76.34 123.563-23.856 27.079-31.575 30.957-40.761 20.48zM236.745 827.649c0-37.129 30.707-129.93 42.993-129.93 9.952 0 49.167 55.367 49.167 69.418 0 5.803-6.566 14.448-21.789 28.689-21.003 19.647-58.66 45.253-66.55 45.253-2.171 0-3.82-5.799-3.82-13.43zM139.916 516.75c-12.437-7.887-18.254-14.69-24.812-29.013-4.711-10.291-8.069-21.399-7.462-24.684 0.638-3.453 11.152-11.014 24.916-17.92 21.967-11.021 26.208-11.947 54.724-11.947 23.327 0 34.534 1.633 45.674 6.657l14.762 6.657-1.51 18.21c-3.028 36.513-31.623 62.185-69.38 62.287-17.182 0.047-23.403-1.68-36.911-10.247zM260.198 431.54c-26.016-13.917-36.131-34.927-32.917-68.375 3.672-38.219 43.308-64.754 81.401-54.496 22.961 6.183 47.529 32.628 47.529 51.161 0 3.958-4.99 13.406-11.090 20.996s-16.542 23.244-23.207 34.787l-12.117 20.987-18.607 0.783c-13.081 0.551-22.285-1.184-30.993-5.843zM755.856 358.547c0.782-0.689 8.925-2.060 18.096-3.046 10.194-1.096 14.837-0.63 11.947 1.2-4.426 2.803-33.132 4.567-30.043 1.846zM900.111 353.774c-2.167-1.379 5.75-2.508 17.594-2.508s19.761 1.128 17.594 2.508c-2.167 1.379-10.085 2.508-17.594 2.508s-15.427-1.128-17.594-2.508zM798.239 346.146c3.398-3.755 6.946-6.827 7.885-6.827s-1.073 3.072-4.471 6.827c-3.398 3.755-6.946 6.827-7.885 6.827s1.073-3.072 4.471-6.827zM880.018 335.679c-1.237-2.002-1.518-4.372-0.623-5.267s2.536 0.743 3.648 3.64c2.308 6.015 0.341 7.073-3.025 1.627zM873.059 313.464c-1.259-6.711-0.945-13.528 0.699-15.149 1.701-1.678 3.17 3.576 3.412 12.202 0.512 18.309-1.022 19.409-4.11 2.947zM814.138 312.013c0-4.693 0.775-6.613 1.722-4.267s0.947 6.187 0 8.533c-0.947 2.347-1.722 0.427-1.722-4.267zM461.215 258.883c-10.146-5.505-19.67-20.957-19.67-31.914 0-10.182 10.897-14.597 27.065-10.964 17.312 3.89 44.615 19.724 44.615 25.875 0 2.57-4.726 8.649-10.502 13.509-11.945 10.051-27.076 11.325-41.509 3.494zM729.484 175.508c-12.427-5.015-18.285-17.091-18.285-37.691 0-21.004 6.879-32.187 22.159-36.022 20.037-5.029 49.521 21.965 49.521 45.339 0 22.268-29.578 37.986-53.395 28.374z"></path>
<path d="M236.745 827.649c0-37.129 30.707-129.93 42.993-129.93 9.952 0 49.167 55.367 49.167 69.418 0 5.803-6.566 14.448-21.789 28.689-21.003 19.647-58.66 45.253-66.55 45.253-2.171 0-3.82-5.799-3.82-13.43zM139.916 516.75c-12.437-7.887-18.254-14.69-24.812-29.013-4.711-10.291-8.069-21.399-7.462-24.684 0.638-3.453 11.152-11.014 24.916-17.92 21.967-11.021 26.208-11.947 54.724-11.947 23.327 0 34.534 1.633 45.674 6.657l14.762 6.657-1.51 18.21c-3.028 36.513-31.623 62.185-69.38 62.287-17.182 0.047-23.403-1.68-36.911-10.247zM461.215 258.883c-10.146-5.505-19.67-20.957-19.67-31.914 0-10.182 10.897-14.597 27.065-10.964 17.312 3.89 44.615 19.724 44.615 25.875 0 2.57-4.726 8.649-10.502 13.509-11.945 10.051-27.076 11.325-41.509 3.494zM729.484 175.508c-12.427-5.015-18.285-17.091-18.285-37.691 0-21.004 6.879-32.187 22.159-36.022 20.037-5.029 49.521 21.965 49.521 45.339 0 22.268-29.578 37.986-53.395 28.374z"></path>
</svg>
