<!-- Generated by IcoMoon.io -->
<svg version="1.1" xmlns="http://www.w3.org/2000/svg" width="1024" height="1024" viewBox="0 0 1024 1024">
<title></title>
<g id="icomoon-ignore">
</g>
<path d="M201.392 614.928c10.927 13.312 23.072 26.807 36.435 40.37-38.908 11.565-64.416 33.047-80.327 52.012-25.176 30.020-38.502 69.664-35.438 103.688h-67c13.437-28.812 67.074-112.040 146.33-196.070z"></path>
<path d="M977.561 829.047h-81.469c-186.9-96.348-350.986-164.3-525.302-179.148 0.379-23.961 4.69-51.087 12.995-81.326l-16.056-4.27c-8.53 31.078-12.995 59.197-13.507 84.357-18.166-1.198-36.434-1.782-54.897-1.782-15.616 0-29.86 1.423-42.854 3.901-16.947-16.701-31.375-32.676-43.633-47.81 21.862-22.497 47.575-44.411 75.745-64.962l38.707 26.409-12.636-44.575c11.889-7.915 24.105-15.575 36.557-22.927l57.385 28.815-26.941-45.895c7.936-4.229 15.923-8.315 23.962-12.267l80.282 53.207-26.358-77.179c27.464-10.926 54.866-19.866 81.357-26.347 32.451 106.577 102.113 179.588 186.644 228.72 6.195-3.502 12.288-7.147 18.268-11.018l14.449 15.37-24.392 37.079 41.605-18.77 24.238 25.784-40.745 30.679 56.105-14.346 76.216 81.070 6.461-0.553c40.274-3.42 63.16 18.166 69.212 24.883 4.475 4.884 7.127 9.37 8.602 12.902z"></path>
<path d="M881.828 445.458c-29.716 78.018-84.91 139.745-152.627 177.97-85.146-41.902-137.165-114.616-164.915-192.061l20.992-5.806-26.44-10.455c-2.652-8.479-5.028-16.988-7.137-25.497l40.612-2.734-46.428-24.34c-11.295-61.788-8.991-121.743 2.509-166.88 8.417 45.445 23.736 73.922 56.812 87.9 29.358-8.305 63.201-13.486 97.956-15.38l28.682 62.167 18.401-62.699c35.103 1.116 69.499 5.663 99.482 13.834 30.464-21.893 42.271-55.337 48.732-84.541 8.049 33.986 7.127 107.438 7.158 107.438 0.563 27.31-1.638 53.555-6.277 78.581l-32.973 13.844 29.112 4.352c-2.294 9.615-4.956 19.026-7.967 28.232l-28.17 8.079 22.487 7.997z"></path>
<path d="M526.955 502.972h96.883v11.813h-96.883v-11.813z"></path>
<path d="M526.955 474.604h96.883v11.817h-96.883v-11.817z"></path>
<path d="M822.79 502.972h96.879v11.813h-96.879v-11.813z"></path>
<path d="M822.79 474.604h96.879v11.817h-96.879v-11.817z"></path>
<path d="M788.644 404.546h-157.877v-10.635h49.13c6.050-25.592 7.246-50.053-0.048-62.457-3.116-5.27-7.42-7.736-13.563-7.736-28.088 0-39.695 29.349-40.178 30.596l0.007-0.007-10.078-3.735c0.576-1.532 14.637-37.489 50.248-37.489 9.937 0 17.845 4.512 22.854 13.024 8.9 15.099 7.852 41.227 1.827 67.804h86.211c11.455-33.244 35.368-48.919 75.325-48.919v10.631c-43.308 0-55.439 18.141-64.106 38.288h47.041l-0.107 10.584-46.686 0.051z"></path>
<path d="M795.721 457.072l0.070-0.011c-12.769-18.604-16.815-34.484-11.473-52.566l-10.967 0.051c-3.821 12.039-2.289 30.176 7.121 45.735h-109.545c6.663-13.188 12.843-29.268 17.357-45.735h-11.152c-4.972 17.463-11.964 34.739-19.831 48.427l-2.543 4.424 61.471 38.229-34.608 22.532 5.929 8.881 38.679-25.194 41.758 26.923 5.737-9.001-38.72-23.663c0 0 57.89-37.153 60.765-38.966-0.018-0.026-0.030-0.044-0.048-0.066zM726.099 489.196l-45.468-28.284 88.858 0.022-43.39 28.262z"></path>
<path d="M923.682 291.547c-0.070-18.491-5.899-96.649-16.612-118.167-29.048 10.905-81.91 46.242-93.878 82.382-57.336-8.461-121.974-7.458-178.594 2.221-9.461-38.879-56.941-68.632-92.76-85.394-15.109 25.187-21.802 83.593-20.1 125.020-0.063 0.044-0.133 0.088-0.199 0.131 6.645 173.969 93.025 282.289 205.981 347.937 116.215-65.608 199.237-193.506 196.021-354.207 0.048 0.026 0.096 0.047 0.14 0.077zM826.98 258.008c0.421 0.073 0.842 0.153 1.27 0.23-0.425-0.077-0.845-0.157-1.27-0.23zM819.752 256.775c1.015 0.16 2.041 0.343 3.064 0.511-1.023-0.168-2.041-0.343-3.064-0.511zM905.605 304.097c2.986 144.759-71.766 259.968-176.416 319.056-177.63-87.448-211.090-308.953-180.801-427.77 8.428 45.425 23.718 73.913 56.827 87.889 72.106-20.388 171.37-22 244.491-2.075 30.473-21.89 42.29-55.327 48.742-84.541 8.062 33.999 7.132 107.43 7.158 107.441z"></path>
<path d="M981.354 804.911c-18.24-20.161-53.981-29.706-83.822-28.998-21.182-24.91-143.983-152.677-143.983-152.677l-8.513 10.591 148.261 157.695 6.434-0.543c40.281-3.41 63.18 18.174 69.241 24.87 4.445 4.913 7.125 9.391 8.586 12.907h-81.489c-186.878-96.343-350.982-164.282-525.291-179.118 0.384-23.969 4.703-51.096 12.987-81.328l-16.032-4.293c-8.52 31.077-13.005 59.215-13.515 84.369-18.162-1.189-36.442-1.805-54.881-1.805-15.641 0-29.886 1.433-42.877 3.928-16.94-16.729-31.378-32.675-43.641-47.81 80.976-83.334 214.66-158.643 330.509-186.336l-3.747-16.036c-124.743 29.721-261.283 110.636-337.368 188.783-35.309-47.085-49.318-85.722-53.479-115.002-5.257-36.982 3.68-70.908 25.837-98.108 34.689-42.577 83.978-45.575 134.654-37.153-0.989 7.907 0.063 15.464 3.271 20.14 13.4 19.56 85.432 26.427 128.43 7.477-31.732-43.93-96.001-65.379-113.808-56.782-5.903 2.845-10.351 8.075-13.4 14.169-17.516-3.093-34.914-5.398-47.631-5.307-44.696 0.325-78.861 15.756-104.454 47.169-25.109 30.818-35.257 69.091-29.347 110.68 5.596 39.385 25.335 81.28 58.418 124.725-5.497 5.824-10.809 11.576-15.921 17.225-80.633 89.14-139.575 184.728-139.575 200.567v8.206h106.374l-1.864-9.731c-6.006-31.369 5.991-70.576 30.565-99.877 15.427-18.396 40.972-39.393 81.094-49.080 35.671 34.396 81.117 70.922 131.705 106.165h79.049v-8.206c0-9.26-4.648-17.364-13.086-22.82-12.488-8.064-31.765-9.176-49.473-3.209-16.881-18.575-26.346-43.39-28.391-74.208 171.558 15.008 335.655 83.458 520.813 179.020h101.878l1.333-6.598c1.905-9.391-3.278-21.974-13.85-33.659zM157.493 707.037c-25.161 30.001-38.498 69.639-35.442 103.666h-67.011c13.463-28.791 67.096-112.011 146.345-196.070 10.919 13.334 23.079 26.807 36.442 40.385-38.908 11.554-64.42 33.043-80.334 52.019z"></path>
<path d="M458.792 441.426l27.107 79.347-82.32-54.55 55.213-24.797z"></path>
<path d="M379.488 476.14l29.111 49.59-61.234-30.745 32.123-18.845z"></path>
<path d="M313.233 514.821l14.053 49.59-42.16-28.761 28.107-20.829z"></path>
<path d="M761.962 647.723l-26.099 39.674 46.173-20.829-20.074-18.845z"></path>
<path d="M803.118 693.349l-42.16 31.737 58.226-14.877-16.065-16.861z"></path>
<path d="M700.724 262.902l31.123 67.443 20.074-68.435-51.197 0.992z"></path>
<path d="M543.12 361.087l49.189 25.789-44.172 2.976-5.017-28.765z"></path>
<path d="M555.165 413.657l30.115 11.901-25.095 6.941-5.020-18.841z"></path>
<path d="M906.521 379.935l-40.156 16.861 33.127 4.96 7.029-21.821z"></path>
<path d="M890.459 428.533l-31.119 8.928 25.095 8.925 6.024-17.853z"></path>
</svg>
