<!-- Generated by IcoMoon.io -->
<svg version="1.1" xmlns="http://www.w3.org/2000/svg" width="1024" height="1024" viewBox="0 0 1024 1024">
<title></title>
<g id="icomoon-ignore">
</g>
<path d="M123.4 338.8l203 556c-142-68.8-239.8-214.4-239.8-382.8 0-61.8 13.2-120.2 36.8-173.2zM799.2 490.6c0-52.6-18.8-89-35-117.4-21.6-35-41.8-64.8-41.8-99.8 0-39.2 29.6-75.6 71.4-75.6 1.8 0 3.6 0.2 5.6 0.4-75.8-69.4-176.6-111.8-287.4-111.8-148.6 0-279.4 76.2-355.6 191.8 10 0.4 19.4 0.6 27.4 0.6 44.4 0 113.4-5.4 113.4-5.4 23-1.4 25.6 32.4 2.8 35 0 0-23 2.6-48.6 4l155 460.8 93.2-279.2-66.2-181.6c-23-1.4-44.6-4-44.6-4-23-1.4-20.2-36.4 2.6-35 0 0 70.2 5.4 112 5.4 44.4 0 113.4-5.4 113.4-5.4 23-1.4 25.6 32.4 2.8 35 0 0-23 2.6-48.6 4l153.8 457.4 42.4-141.8c18-58.8 32-101 32-137.4zM519.4 549.2l-127.6 371c38.2 11.2 78.4 17.4 120.2 17.4 49.6 0 97-8.6 141.2-24.2-1.2-1.8-2.2-3.8-3-5.8l-130.8-358.4zM885.4 307.8c1.8 13.6 2.8 28 2.8 43.8 0 43.2-8 91.6-32.4 152.4l-130 375.8c126.6-73.8 211.6-210.8 211.6-367.8 0-74-18.8-143.6-52-204.2zM1008 512c0 273.6-222.6 496-496 496-273.6 0-496-222.6-496-496 0-273.6 222.4-496 496-496 273.4 0 496 222.4 496 496zM985.2 512c0-261-212.4-473.2-473.2-473.2-261 0-473.2 212.2-473.2 473.2s212.4 473.2 473.2 473.2c261 0 473.2-212.2 473.2-473.2z"></path>
</svg>
