<!-- Generated by IcoMoon.io -->
<svg version="1.1" xmlns="http://www.w3.org/2000/svg" width="18" height="32" viewBox="0 0 18 32">
<title>apache</title>
<path d="M0 31.991c0-0.010 0.114-0.386 0.352-1.159 0.659-2.144 1.341-4.235 1.941-5.955 0.085-0.244 0.155-0.45 0.155-0.457 0-0.027-0.244-0.047-0.468-0.039-0.351 0.012-0.678 0.081-1.161 0.246-0.154 0.052-0.322 0.112-0.374 0.132s-0.094 0.034-0.094 0.031c0-0.010 0.348-0.259 0.529-0.378 0.429-0.282 0.794-0.443 1.114-0.489l0.112-0.016-0.104-0.033c-0.236-0.076-0.591-0.278-0.875-0.5-0.138-0.107-0.276-0.229-0.269-0.236 0.002-0.003 0.108 0.029 0.235 0.070 0.418 0.136 0.697 0.191 0.972 0.193 0.092 0.001 0.195-0.004 0.228-0.010l0.060-0.011-0.008-0.072c-0.095-0.825-0.465-1.698-1.172-2.763-0.087-0.132-0.157-0.239-0.154-0.239 0.014 0 0.276 0.17 0.413 0.268 0.432 0.309 0.753 0.606 0.908 0.84l0.038 0.057 0.008-0.075c0.004-0.041 0.018-0.189 0.030-0.327 0.131-1.482 0.519-3.244 1.089-4.951 0.632-1.892 1.479-3.774 2.69-5.979 1.868-3.4 4.322-6.92 6.241-8.95 0.527-0.557 0.965-0.93 1.265-1.078 0.403-0.198 0.816-0.131 1.245 0.203 0.25 0.194 0.551 0.553 0.694 0.825 0.164 0.313 0.278 0.74 0.321 1.2 0.024 0.261 0.010 0.879-0.028 1.157-0.127 0.939-0.406 1.758-1.022 3-0.34 0.686-0.72 1.35-1.097 1.923-0.249 0.377-0.368 0.528-0.595 0.758-0.297 0.299-0.531 0.465-1 0.707-0.156 0.081-0.233 0.127-0.203 0.121 0.525-0.090 1.188-0.316 1.445-0.493 0.035-0.024 0.067-0.044 0.071-0.044 0.016 0 0.007 0.058-0.034 0.215-0.116 0.448-0.317 0.966-0.613 1.575-0.135 0.279-0.235 0.446-0.387 0.65-0.361 0.484-0.756 0.805-1.356 1.1-0.123 0.060-0.217 0.11-0.21 0.11 0.049-0 0.287-0.051 0.424-0.090 0.298-0.086 0.629-0.234 0.919-0.41 0.076-0.046 0.141-0.083 0.143-0.080 0.007 0.007-0.071 0.155-0.18 0.344-0.327 0.563-0.702 0.996-1.16 1.34-0.196 0.147-0.373 0.254-0.618 0.372-0.102 0.050-0.18 0.090-0.172 0.090 0.034 0.001 0.332-0.056 0.438-0.083 0.183-0.047 0.389-0.118 0.548-0.189 0.081-0.036 0.155-0.069 0.164-0.073s-0.027 0.122-0.080 0.281c-0.79 2.323-1.646 3.903-2.699 4.979-0.454 0.464-0.923 0.834-1.493 1.176-0.647 0.388-1.278 0.647-1.865 0.763l-0.189 0.037 0.091 0.016c0.257 0.045 0.334 0.051 0.706 0.051 0.431 0 0.563-0.013 0.887-0.092 0.633-0.154 1.236-0.494 1.749-0.984l0.146-0.14-0.101 0.195c-0.359 0.689-0.767 1.216-1.229 1.585-0.325 0.26-0.827 0.556-1.297 0.766l-0.070 0.031 0.069 0.010c0.087 0.013 0.382-0.002 0.547-0.029 0.352-0.056 0.606-0.184 0.841-0.423l0.121-0.123-0.079 0.154c-0.419 0.818-1.18 1.39-2.188 1.643-0.491 0.123-0.91 0.17-1.517 0.17l-0.375 0 0.099 0.105c0.11 0.118 0.243 0.309 0.317 0.456 0.093 0.185 0.171 0.464 0.191 0.688 0.004 0.044 0.002 0.062-0.006 0.049-0.149-0.252-0.25-0.414-0.318-0.507-0.166-0.229-0.346-0.408-0.494-0.49l-0.079-0.044 0.158-0.462c0.42-1.229 1.056-2.985 1.615-4.455 2.505-6.587 5.157-12.080 7.61-15.762 0.479-0.719 0.842-1.225 1.235-1.72 0.167-0.211 0.123-0.166-0.144 0.147-2.607 3.055-5.516 8.499-8.435 15.784-1.638 4.087-3.303 8.825-4.588 13.048-0.055 0.181-0.12 0.366-0.144 0.411-0.063 0.118-0.187 0.236-0.31 0.295-0.104 0.050-0.12 0.055-0.12 0.040zM17.007 3.316v-0.295h-0.21v-0.099l0.511 0.008 0.009 0.091h-0.211l-0.008 0.58-0.091 0.009zM17.413 3.265v-0.343l0.119 0.009 0.111 0.227c0.061 0.125 0.115 0.227 0.12 0.227s0.059-0.102 0.12-0.227l0.111-0.227 0.119-0.009v0.687h-0.083l-0.008-0.524-0.115 0.227c-0.091 0.179-0.121 0.227-0.143 0.227s-0.052-0.049-0.143-0.227l-0.115-0.227-0.008 0.524h-0.083z"></path>
<path d="M0 31.991c0-0.010 0.114-0.386 0.352-1.159 0.659-2.144 1.341-4.235 1.941-5.955 0.085-0.244 0.155-0.45 0.155-0.457 0-0.027-0.244-0.047-0.468-0.039-0.351 0.012-0.678 0.081-1.161 0.246-0.154 0.052-0.322 0.112-0.374 0.132s-0.094 0.034-0.094 0.031c0-0.010 0.348-0.259 0.529-0.378 0.429-0.282 0.794-0.443 1.114-0.489l0.112-0.016-0.104-0.033c-0.236-0.076-0.591-0.278-0.875-0.5-0.138-0.107-0.276-0.229-0.269-0.236 0.002-0.003 0.108 0.029 0.235 0.070 0.418 0.136 0.697 0.191 0.972 0.193 0.092 0.001 0.195-0.004 0.228-0.010l0.060-0.011-0.008-0.072c-0.095-0.825-0.465-1.698-1.172-2.763-0.087-0.132-0.157-0.239-0.154-0.239 0.014 0 0.276 0.17 0.413 0.268 0.432 0.309 0.753 0.606 0.908 0.84l0.038 0.057 0.008-0.075c0.004-0.041 0.018-0.189 0.030-0.327 0.131-1.482 0.519-3.244 1.089-4.951 0.425-1.271 0.93-2.498 1.574-3.823 1.337-2.751 3.097-5.646 5-8.226 0.374-0.507 1.179-1.538 1.208-1.547 0.011-0.004 0.905 1.689 0.903 1.709-0.001 0.008-0.102 0.162-0.226 0.343-0.386 0.567-0.86 1.317-1.272 2.011-1.354 2.286-2.748 5.077-4.169 8.346-2.058 4.737-4.284 10.843-5.948 16.315-0.055 0.181-0.12 0.366-0.144 0.411-0.063 0.118-0.187 0.236-0.31 0.295-0.104 0.050-0.12 0.055-0.12 0.040zM3.984 25.661c-0.049-0.095-0.205-0.344-0.292-0.465-0.162-0.225-0.344-0.405-0.491-0.487l-0.079-0.044 0.158-0.462c0.524-1.535 1.286-3.616 1.968-5.371 2.257-5.815 4.673-10.823 6.881-14.261l0.194-0.303 0.136-0.009c0.834-0.057 1.939-0.191 3.015-0.366 0.214-0.035 0.392-0.061 0.394-0.058 0.008 0.008-0.072 0.376-0.126 0.578-0.283 1.069-1.082 2.716-1.974 4.065-0.469 0.711-0.864 1.063-1.607 1.433-0.22 0.109-0.22 0.109 0.007 0.066 0.447-0.087 1.060-0.307 1.296-0.467 0.035-0.024 0.067-0.040 0.071-0.036 0.021 0.021-0.116 0.507-0.228 0.808-0.175 0.473-0.505 1.172-0.681 1.44-0.363 0.556-0.81 0.947-1.449 1.267-0.143 0.071-0.255 0.13-0.25 0.13s0.069-0.010 0.142-0.021c0.347-0.056 0.831-0.247 1.197-0.473 0.081-0.050 0.149-0.088 0.152-0.085 0.012 0.011-0.223 0.416-0.364 0.628-0.345 0.518-0.706 0.886-1.167 1.187-0.149 0.097-0.433 0.249-0.568 0.303-0.044 0.018-0.079 0.034-0.077 0.036 0.006 0.006 0.379-0.064 0.491-0.092 0.175-0.045 0.435-0.136 0.578-0.203 0.090-0.042 0.13-0.055 0.13-0.041 0 0.025-0.228 0.683-0.357 1.028-0.535 1.435-1.122 2.579-1.772 3.448-0.603 0.807-1.29 1.429-2.147 1.943-0.647 0.388-1.278 0.647-1.865 0.763l-0.189 0.037 0.091 0.016c0.257 0.045 0.334 0.051 0.706 0.051 0.431 0 0.563-0.013 0.887-0.092 0.633-0.154 1.236-0.494 1.749-0.984l0.146-0.14-0.101 0.195c-0.359 0.689-0.767 1.216-1.229 1.585-0.325 0.26-0.827 0.556-1.297 0.766l-0.070 0.031 0.069 0.010c0.087 0.013 0.382-0.002 0.547-0.029 0.352-0.056 0.606-0.184 0.841-0.423l0.121-0.123-0.079 0.154c-0.419 0.818-1.18 1.39-2.188 1.643-0.491 0.123-0.91 0.17-1.517 0.17l-0.375 0 0.099 0.105c0.11 0.118 0.243 0.309 0.317 0.456 0.065 0.128 0.138 0.353 0.164 0.5 0.023 0.129 0.036 0.252 0.028 0.252-0.003 0-0.019-0.027-0.035-0.059zM17.007 3.316v-0.295h-0.21v-0.099l0.511 0.008 0.009 0.091h-0.211l-0.008 0.58-0.091 0.009zM17.413 3.265v-0.343l0.119 0.009 0.111 0.227c0.061 0.125 0.115 0.227 0.12 0.227s0.059-0.102 0.12-0.227l0.111-0.227 0.119-0.009v0.687h-0.083l-0.008-0.524-0.115 0.227c-0.091 0.179-0.121 0.227-0.143 0.227s-0.052-0.049-0.143-0.227l-0.115-0.227-0.008 0.524h-0.083z"></path>
<path d="M0 31.991c0-0.010 0.114-0.386 0.352-1.159 0.659-2.144 1.341-4.235 1.941-5.955 0.085-0.244 0.155-0.45 0.155-0.457 0-0.027-0.244-0.047-0.468-0.039-0.351 0.012-0.678 0.081-1.161 0.246-0.154 0.052-0.322 0.112-0.374 0.132s-0.094 0.034-0.094 0.031c0-0.010 0.348-0.259 0.529-0.378 0.429-0.282 0.794-0.443 1.114-0.489l0.112-0.016-0.104-0.033c-0.236-0.076-0.591-0.278-0.875-0.5-0.138-0.107-0.276-0.229-0.269-0.236 0.002-0.003 0.108 0.029 0.235 0.070 0.418 0.136 0.697 0.191 0.972 0.193 0.092 0.001 0.195-0.004 0.228-0.010l0.060-0.011-0.008-0.072c-0.095-0.825-0.465-1.698-1.172-2.763-0.087-0.132-0.157-0.239-0.154-0.239 0.014 0 0.276 0.17 0.413 0.268 0.432 0.309 0.753 0.606 0.908 0.84l0.038 0.057 0.008-0.075c0.004-0.041 0.018-0.189 0.030-0.327 0.119-1.345 0.447-2.902 0.959-4.549 0.171-0.55 0.478-1.399 0.747-2.066 0.771-1.91 1.886-4.088 3.214-6.278l0.211-0.348 0.034 0.068c0.019 0.037 0.040 0.070 0.046 0.072s0.009 0.010 0.004 0.017c-0.004 0.007-0.001 0.013 0.008 0.013s0.012 0.006 0.007 0.014c-0.005 0.008-0.002 0.014 0.007 0.014s0.012 0.006 0.008 0.013c-0.004 0.007-0.002 0.015 0.005 0.017s0.044 0.068 0.083 0.146l0.071 0.141 1.497 0.697-0.078 0.147c-0.043 0.081-0.218 0.424-0.39 0.762-1.823 3.594-3.671 7.967-5.507 13.028-1.008 2.78-1.98 5.684-2.765 8.266-0.055 0.181-0.12 0.366-0.144 0.411-0.063 0.118-0.187 0.236-0.31 0.295-0.104 0.050-0.12 0.055-0.12 0.040zM3.984 25.661c-0.049-0.095-0.205-0.344-0.292-0.465-0.162-0.225-0.344-0.405-0.491-0.487l-0.079-0.044 0.158-0.462c1.319-3.864 3.077-8.301 4.643-11.721 0.598-1.306 1.504-3.165 1.539-3.158 0.007 0.001 0.387 0.177 0.843 0.39l0.83 0.387 0.429-0.045c0.236-0.024 0.514-0.061 0.618-0.080 0.215-0.041 0.547-0.133 0.75-0.208 0.175-0.065 0.459-0.199 0.543-0.257 0.063-0.043 0.065-0.044 0.058-0.012-0.069 0.315-0.126 0.504-0.249 0.83-0.169 0.448-0.454 1.063-0.606 1.308-0.251 0.405-0.602 0.781-0.965 1.036-0.189 0.133-0.603 0.36-0.787 0.432-0.079 0.031-0.040 0.031 0.132-0 0.395-0.072 0.865-0.26 1.241-0.496l0.124-0.078-0.087 0.165c-0.308 0.581-0.726 1.104-1.153 1.444-0.237 0.188-0.6 0.404-0.888 0.528-0.050 0.021-0.062 0.030-0.035 0.026 0.023-0.004 0.086-0.013 0.14-0.021 0.291-0.040 0.633-0.142 0.936-0.279 0.053-0.024 0.099-0.041 0.102-0.038 0.008 0.008-0.23 0.696-0.38 1.093-0.614 1.632-1.259 2.819-2.050 3.77-0.18 0.217-0.639 0.676-0.853 0.854-0.897 0.747-1.96 1.292-2.86 1.465l-0.196 0.038 0.14 0.023c0.26 0.043 0.464 0.056 0.782 0.048 0.335-0.008 0.498-0.028 0.776-0.096 0.633-0.154 1.236-0.494 1.749-0.984l0.146-0.14-0.101 0.195c-0.359 0.689-0.767 1.216-1.229 1.585-0.325 0.26-0.827 0.556-1.297 0.766l-0.070 0.031 0.069 0.010c0.087 0.013 0.382-0.002 0.547-0.029 0.352-0.056 0.606-0.184 0.841-0.423l0.121-0.123-0.079 0.154c-0.419 0.818-1.18 1.39-2.188 1.643-0.491 0.123-0.91 0.17-1.517 0.17l-0.375 0 0.099 0.105c0.11 0.118 0.243 0.309 0.317 0.456 0.065 0.128 0.138 0.353 0.164 0.5 0.023 0.129 0.036 0.252 0.028 0.252-0.003 0-0.019-0.027-0.035-0.059zM9.311 10.299c-0.005-0.005-0.017-0.005-0.027-0.001-0.011 0.004-0.008 0.008 0.008 0.008 0.015 0.001 0.023-0.003 0.018-0.007zM9.437 10.285c-0.005-0.005-0.017-0.005-0.027-0.001-0.011 0.004-0.008 0.008 0.008 0.008 0.015 0.001 0.023-0.003 0.018-0.007zM9.563 10.271c-0.005-0.005-0.017-0.005-0.027-0.001-0.011 0.004-0.008 0.008 0.008 0.008 0.015 0.001 0.023-0.003 0.018-0.007zM9.696 10.256c-0.010-0.004-0.025-0.004-0.035 0s-0.002 0.007 0.017 0.007c0.019 0 0.027-0.003 0.017-0.007zM9.822 10.242c-0.010-0.004-0.025-0.004-0.035 0s-0.002 0.007 0.017 0.007c0.019 0 0.027-0.003 0.017-0.007zM9.948 10.229c-0.010-0.004-0.025-0.004-0.035 0s-0.002 0.007 0.017 0.007c0.019 0 0.027-0.003 0.017-0.007zM10.073 10.214c-0.010-0.004-0.025-0.004-0.035 0s-0.002 0.007 0.017 0.007c0.019 0 0.027-0.003 0.017-0.007zM10.199 10.201c-0.010-0.004-0.025-0.004-0.035 0s-0.002 0.007 0.017 0.007c0.019 0 0.027-0.003 0.017-0.007zM10.325 10.187c-0.010-0.004-0.025-0.004-0.035 0s-0.002 0.007 0.017 0.007c0.019 0 0.027-0.003 0.017-0.007zM10.451 10.173c-0.010-0.004-0.025-0.004-0.035 0s-0.002 0.007 0.017 0.007c0.019 0 0.027-0.003 0.017-0.007zM10.577 10.159c-0.010-0.004-0.025-0.004-0.035 0s-0.002 0.007 0.017 0.007c0.019 0 0.027-0.003 0.017-0.007zM10.717 10.145c-0.009-0.004-0.028-0.004-0.042-0.001s-0.006 0.007 0.017 0.007c0.023 0 0.034-0.003 0.025-0.006zM10.843 10.131c-0.009-0.004-0.028-0.004-0.042-0.001s-0.006 0.007 0.017 0.007c0.023 0 0.034-0.003 0.025-0.006zM10.969 10.117c-0.009-0.004-0.028-0.004-0.042-0.001s-0.006 0.007 0.017 0.007c0.023 0 0.034-0.003 0.025-0.006zM11.094 10.103c-0.010-0.004-0.025-0.004-0.035 0s-0.002 0.007 0.017 0.007c0.019 0 0.027-0.003 0.017-0.007zM17.007 3.316v-0.295h-0.21v-0.099l0.511 0.008 0.009 0.091h-0.211l-0.008 0.58-0.091 0.009zM17.413 3.265v-0.343l0.119 0.009 0.111 0.227c0.061 0.125 0.115 0.227 0.12 0.227s0.059-0.102 0.12-0.227l0.111-0.227 0.119-0.009v0.687h-0.083l-0.008-0.524-0.115 0.227c-0.091 0.179-0.121 0.227-0.143 0.227s-0.052-0.049-0.143-0.227l-0.115-0.227-0.008 0.524h-0.083z"></path>
<path d="M0 31.991c0-0.010 0.114-0.386 0.352-1.159 0.659-2.144 1.341-4.235 1.941-5.955 0.085-0.244 0.155-0.45 0.155-0.457 0-0.027-0.244-0.047-0.468-0.039-0.351 0.012-0.678 0.081-1.161 0.246-0.154 0.052-0.322 0.112-0.374 0.132s-0.094 0.034-0.094 0.031c0-0.010 0.348-0.259 0.529-0.378 0.429-0.282 0.794-0.443 1.114-0.489l0.112-0.016-0.104-0.033c-0.236-0.076-0.591-0.278-0.875-0.5-0.138-0.107-0.276-0.229-0.269-0.236 0.002-0.003 0.108 0.029 0.235 0.070 0.418 0.136 0.697 0.191 0.972 0.193 0.092 0.001 0.195-0.004 0.228-0.010l0.060-0.011-0.008-0.072c-0.095-0.825-0.465-1.698-1.172-2.763-0.087-0.132-0.157-0.239-0.154-0.239 0.014 0 0.276 0.17 0.413 0.268 0.432 0.309 0.753 0.606 0.908 0.84l0.038 0.057 0.008-0.075c0.004-0.041 0.018-0.189 0.030-0.327 0.119-1.345 0.447-2.902 0.959-4.549 0.228-0.735 0.609-1.757 0.97-2.603 0.184-0.432 0.424-0.969 0.439-0.984 0.006-0.006 0.495 0.216 1.086 0.492s1.081 0.499 1.086 0.496c0.006-0.004-0.021 0.065-0.060 0.151-2.095 4.685-4.558 11.376-6.32 17.172-0.055 0.181-0.12 0.366-0.144 0.411-0.063 0.118-0.187 0.236-0.31 0.295-0.104 0.050-0.12 0.055-0.12 0.040zM3.984 25.661c-0.049-0.095-0.205-0.344-0.292-0.465-0.162-0.225-0.344-0.405-0.491-0.487l-0.079-0.044 0.158-0.462c0.718-2.104 1.808-5.016 2.664-7.119 0.523-1.286 1.273-3.051 1.286-3.030 0.004 0.006 0.835 0.397 1.847 0.869s1.842 0.859 1.845 0.862c0.007 0.007-0.164 0.423-0.31 0.754-0.472 1.069-1.001 1.952-1.605 2.679-0.18 0.217-0.639 0.676-0.853 0.854-0.897 0.747-1.96 1.292-2.86 1.465l-0.196 0.038 0.14 0.023c0.26 0.043 0.464 0.056 0.782 0.048 0.335-0.008 0.498-0.028 0.776-0.096 0.633-0.154 1.236-0.494 1.749-0.984l0.146-0.14-0.101 0.195c-0.359 0.689-0.767 1.216-1.229 1.585-0.325 0.26-0.827 0.556-1.297 0.766l-0.070 0.031 0.069 0.010c0.087 0.013 0.382-0.002 0.547-0.029 0.352-0.056 0.606-0.184 0.841-0.423l0.121-0.123-0.079 0.154c-0.419 0.818-1.18 1.39-2.188 1.643-0.491 0.123-0.91 0.17-1.517 0.17l-0.375 0 0.099 0.105c0.11 0.118 0.243 0.309 0.317 0.456 0.065 0.128 0.138 0.353 0.164 0.5 0.023 0.129 0.036 0.252 0.028 0.252-0.003 0-0.019-0.027-0.035-0.059zM10.259 14.685c-0.005-0.008 0.001-0.010 0.013-0.005 0.024 0.009 0.029 0.019 0.009 0.019-0.007 0-0.017-0.006-0.022-0.014zM10.36 14.676c0.010-0.004 0.025-0.004 0.035 0s0.002 0.007-0.017 0.007c-0.019 0-0.027-0.003-0.017-0.007zM17.007 3.316v-0.295h-0.21v-0.099l0.511 0.008 0.009 0.091h-0.211l-0.008 0.58-0.091 0.009zM17.413 3.265v-0.343l0.119 0.009 0.111 0.227c0.061 0.125 0.115 0.227 0.12 0.227s0.059-0.102 0.12-0.227l0.111-0.227 0.119-0.009v0.687h-0.083l-0.008-0.524-0.115 0.227c-0.091 0.179-0.121 0.227-0.143 0.227s-0.052-0.049-0.143-0.227l-0.115-0.227-0.008 0.524h-0.083z"></path>
<path d="M0 31.991c0-0.010 0.114-0.386 0.352-1.159 0.659-2.144 1.341-4.235 1.941-5.955 0.085-0.244 0.155-0.45 0.155-0.457 0-0.027-0.244-0.047-0.468-0.039-0.351 0.012-0.678 0.081-1.161 0.246-0.154 0.052-0.322 0.112-0.374 0.132s-0.094 0.034-0.094 0.031c0-0.010 0.348-0.259 0.529-0.378 0.429-0.282 0.794-0.443 1.114-0.489l0.112-0.016-0.104-0.033c-0.236-0.076-0.591-0.278-0.875-0.5-0.138-0.107-0.276-0.229-0.269-0.236 0.002-0.003 0.108 0.029 0.235 0.070 0.418 0.136 0.697 0.191 0.972 0.193 0.092 0.001 0.195-0.004 0.228-0.010l0.060-0.011-0.008-0.072c-0.095-0.825-0.465-1.698-1.172-2.763-0.087-0.132-0.157-0.239-0.154-0.239 0.014 0 0.276 0.17 0.413 0.268 0.432 0.309 0.753 0.606 0.908 0.84l0.038 0.057 0.008-0.075c0.004-0.041 0.021-0.216 0.037-0.388 0.035-0.372 0.075-0.697 0.088-0.71 0.005-0.005 0.248 0.103 0.541 0.239l0.532 0.249 0.161 0.312c0.089 0.171 0.161 0.319 0.161 0.328s-0.088 0.255-0.196 0.547c-1.129 3.053-2.252 6.376-3.133 9.271-0.055 0.181-0.12 0.366-0.144 0.411-0.063 0.118-0.187 0.236-0.31 0.295-0.104 0.050-0.12 0.055-0.12 0.040zM3.984 25.661c-0.049-0.095-0.205-0.344-0.292-0.465-0.162-0.225-0.344-0.405-0.491-0.487l-0.079-0.044 0.158-0.462c0.248-0.727 0.875-2.489 0.891-2.504 0.005-0.005 0.922-0.107 0.976-0.109 0.019-0.001 0.111 0.011 0.203 0.026 0.236 0.038 0.875 0.040 1.112 0.003 0.214-0.033 0.474-0.098 0.66-0.163 0.083-0.029 0.148-0.049 0.145-0.043-0.007 0.011 0.571 0.285 0.601 0.285 0.011 0-0.026 0.050-0.081 0.111-0.381 0.423-1.002 0.842-1.724 1.165l-0.070 0.031 0.069 0.010c0.087 0.013 0.382-0.002 0.547-0.029 0.352-0.056 0.606-0.184 0.841-0.423l0.121-0.123-0.079 0.154c-0.419 0.818-1.18 1.39-2.188 1.643-0.491 0.123-0.91 0.17-1.517 0.17l-0.375 0 0.099 0.105c0.11 0.118 0.243 0.309 0.317 0.456 0.065 0.128 0.138 0.353 0.164 0.5 0.023 0.129 0.036 0.252 0.028 0.252-0.003 0-0.019-0.027-0.035-0.059zM7.923 21.636c0.014-0.015 0.028-0.028 0.032-0.028s-0.004 0.013-0.018 0.028c-0.014 0.015-0.028 0.028-0.032 0.028s0.004-0.013 0.018-0.028zM8.294 20.792c0-0.003 0.011-0.014 0.024-0.024 0.022-0.017 0.023-0.017 0.005 0.005-0.018 0.023-0.030 0.031-0.030 0.019zM8.392 20.708c0-0.003 0.011-0.014 0.024-0.024 0.022-0.017 0.023-0.017 0.005 0.005-0.018 0.023-0.030 0.031-0.030 0.019zM8.601 20.513c0-0.002 0.020-0.023 0.045-0.045l0.045-0.041-0.041 0.045c-0.038 0.042-0.050 0.052-0.050 0.041zM2.505 20.244c0.001-0.016 0.004-0.020 0.008-0.008 0.004 0.010 0.004 0.022-0.001 0.027s-0.008-0.004-0.007-0.018zM7.42 18.363c-0.908-0.423-1.655-0.774-1.66-0.78-0.009-0.009 0.32-0.832 0.666-1.667 0.285-0.689 0.797-1.874 0.805-1.863 0.004 0.006 0.835 0.397 1.847 0.869s1.842 0.859 1.845 0.862c0.003 0.003-0.040 0.117-0.097 0.254-0.526 1.278-1.067 2.234-1.734 3.068-0.020 0.025-0.096-0.009-1.671-0.744zM4.441 16.975c-0.546-0.255-1.007-0.47-1.024-0.478l-0.031-0.014 0.089-0.266c0.345-1.032 0.708-1.96 1.162-2.972 0.074-0.165 0.139-0.305 0.145-0.311s0.495 0.216 1.086 0.492c0.592 0.276 1.081 0.499 1.087 0.496s-0.009 0.036-0.032 0.088c-0.129 0.287-0.425 0.965-0.65 1.488-0.267 0.622-0.343 0.803-0.635 1.508-0.097 0.234-0.182 0.427-0.19 0.429s-0.46-0.205-1.007-0.46zM10.259 14.685c-0.005-0.008 0.001-0.010 0.013-0.005 0.024 0.009 0.029 0.019 0.009 0.019-0.007 0-0.017-0.006-0.022-0.014zM10.36 14.676c0.010-0.004 0.025-0.004 0.035 0s0.002 0.007-0.017 0.007c-0.019 0-0.027-0.003-0.017-0.007zM17.007 3.316v-0.295h-0.21v-0.099l0.511 0.008 0.009 0.091h-0.211l-0.008 0.58-0.091 0.009zM17.413 3.265v-0.343l0.119 0.009 0.111 0.227c0.061 0.125 0.115 0.227 0.12 0.227s0.059-0.102 0.12-0.227l0.111-0.227 0.119-0.009v0.687h-0.083l-0.008-0.524-0.115 0.227c-0.091 0.179-0.121 0.227-0.143 0.227s-0.052-0.049-0.143-0.227l-0.115-0.227-0.008 0.524h-0.083z"></path>
<path d="M0 31.991c0-0.010 0.114-0.386 0.352-1.159 0.659-2.144 1.341-4.235 1.941-5.955 0.085-0.244 0.155-0.45 0.155-0.457 0-0.027-0.244-0.047-0.468-0.039-0.351 0.012-0.678 0.081-1.161 0.246-0.154 0.052-0.322 0.112-0.374 0.132s-0.094 0.034-0.094 0.031c0-0.010 0.348-0.259 0.529-0.378 0.429-0.282 0.794-0.443 1.114-0.489l0.112-0.016-0.104-0.033c-0.236-0.076-0.591-0.278-0.875-0.5-0.138-0.107-0.276-0.229-0.269-0.236 0.002-0.003 0.108 0.029 0.235 0.070 0.418 0.136 0.697 0.191 0.972 0.193 0.092 0.001 0.195-0.004 0.228-0.010l0.060-0.011-0.008-0.072c-0.095-0.825-0.465-1.698-1.172-2.763-0.087-0.132-0.157-0.239-0.154-0.239 0.014 0 0.276 0.17 0.413 0.268 0.432 0.309 0.753 0.606 0.908 0.84l0.038 0.057 0.008-0.075c0.004-0.041 0.021-0.216 0.037-0.388 0.035-0.372 0.075-0.697 0.088-0.71 0.005-0.005 0.248 0.103 0.541 0.239l0.532 0.249 0.161 0.312c0.089 0.171 0.161 0.319 0.161 0.328s-0.088 0.255-0.196 0.547c-1.129 3.053-2.252 6.376-3.133 9.271-0.055 0.181-0.12 0.366-0.144 0.411-0.063 0.118-0.187 0.236-0.31 0.295-0.104 0.050-0.12 0.055-0.12 0.040zM3.984 25.661c-0.049-0.095-0.205-0.344-0.292-0.465-0.162-0.225-0.344-0.405-0.491-0.487l-0.079-0.044 0.158-0.462c0.248-0.727 0.875-2.489 0.891-2.504 0.005-0.005 0.922-0.107 0.976-0.109 0.019-0.001 0.111 0.011 0.203 0.026 0.236 0.038 0.875 0.040 1.112 0.003 0.214-0.033 0.474-0.098 0.66-0.163 0.083-0.029 0.148-0.049 0.145-0.043-0.007 0.011 0.571 0.285 0.601 0.285 0.011 0-0.026 0.050-0.081 0.111-0.381 0.423-1.002 0.842-1.724 1.165l-0.070 0.031 0.069 0.010c0.087 0.013 0.382-0.002 0.547-0.029 0.352-0.056 0.606-0.184 0.841-0.423l0.121-0.123-0.079 0.154c-0.419 0.818-1.18 1.39-2.188 1.643-0.491 0.123-0.91 0.17-1.517 0.17l-0.375 0 0.099 0.105c0.11 0.118 0.243 0.309 0.317 0.456 0.065 0.128 0.138 0.353 0.164 0.5 0.023 0.129 0.036 0.252 0.028 0.252-0.003 0-0.019-0.027-0.035-0.059zM7.923 21.636c0.014-0.015 0.028-0.028 0.032-0.028s-0.004 0.013-0.018 0.028c-0.014 0.015-0.028 0.028-0.032 0.028s0.004-0.013 0.018-0.028zM8.294 20.792c0-0.003 0.011-0.014 0.024-0.024 0.022-0.017 0.023-0.017 0.005 0.005-0.018 0.023-0.030 0.031-0.030 0.019zM8.392 20.708c0-0.003 0.011-0.014 0.024-0.024 0.022-0.017 0.023-0.017 0.005 0.005-0.018 0.023-0.030 0.031-0.030 0.019zM8.601 20.513c0-0.002 0.020-0.023 0.045-0.045l0.045-0.041-0.041 0.045c-0.038 0.042-0.050 0.052-0.050 0.041zM2.505 20.244c0.001-0.016 0.004-0.020 0.008-0.008 0.004 0.010 0.004 0.022-0.001 0.027s-0.008-0.004-0.007-0.018zM17.007 3.316v-0.295h-0.21v-0.099l0.511 0.008 0.009 0.091h-0.211l-0.008 0.58-0.091 0.009zM17.413 3.265v-0.343l0.119 0.009 0.111 0.227c0.061 0.125 0.115 0.227 0.12 0.227s0.059-0.102 0.12-0.227l0.111-0.227 0.119-0.009v0.687h-0.083l-0.008-0.524-0.115 0.227c-0.091 0.179-0.121 0.227-0.143 0.227s-0.052-0.049-0.143-0.227l-0.115-0.227-0.008 0.524h-0.083z"></path>
<path d="M0.021 31.927c0.011-0.033 0.099-0.321 0.196-0.64 0.304-0.999 0.879-2.832 0.895-2.85 0.002-0.002 0.069 0.026 0.15 0.062l0.146 0.066-0.034 0.106c-0.218 0.681-0.599 1.898-0.733 2.337-0.093 0.304-0.187 0.588-0.209 0.632-0.061 0.12-0.179 0.24-0.296 0.298-0.131 0.066-0.14 0.065-0.116-0.010zM17.007 3.308v-0.287h-0.21v-0.084h0.503v0.084h-0.21v0.573h-0.084zM17.413 3.266v-0.329h0.119l0.234 0.469 0.224-0.469h0.121v0.657h-0.083l-0.008-0.524-0.112 0.227c-0.148 0.3-0.138 0.3-0.29 0l-0.115-0.227-0.008 0.524h-0.083v-0.329z"></path>
</svg>
