<!-- Generated by IcoMoon.io -->
<svg version="1.1" xmlns="http://www.w3.org/2000/svg" width="32" height="32" viewBox="0 0 32 32">
<title>elasticsearch</title>
<path d="M11.752 28.506c-2.687-1.13-4.438-2.501-6.268-4.905l-1.392-1.829 10.322-0.099c10.119-0.097 10.355-0.082 11.977 0.752 0.91 0.468 1.72 1.047 1.8 1.287 0.235 0.705-2.775 3.354-5.056 4.45-1.739 0.836-2.727 1.035-5.646 1.141-3.103 0.112-3.808 0.014-5.737-0.798zM3.048 18.7c-0.347-0.846-0.347-6.044 0-6.889 0.245-0.597 1.074-0.652 9.868-0.65 8.809 0.001 9.698 0.060 10.773 0.716 2.438 1.487 2.438 5.272 0 6.758-1.075 0.656-1.964 0.715-10.773 0.716-8.794 0.001-9.623-0.053-9.868-0.65zM4.455 8.608c0-0.559 2.084-3.214 3.389-4.318 1.685-1.425 4.598-2.732 7.135-3.201 3.931-0.727 8.776 0.855 12.035 3.928 1.374 1.296 1.379 1.312 0.678 2.099-1.486 1.668-2.507 1.808-13.17 1.808-5.537 0-10.067-0.142-10.067-0.316z"></path>
<path d="M11.752 28.506c-2.687-1.13-4.438-2.501-6.268-4.905l-1.392-1.829 10.322-0.099c10.119-0.097 10.355-0.082 11.977 0.752 0.91 0.468 1.72 1.047 1.8 1.287 0.235 0.705-2.775 3.354-5.056 4.45-1.739 0.836-2.727 1.035-5.646 1.141-3.103 0.112-3.808 0.014-5.737-0.798zM3.048 18.7c-0.347-0.846-0.347-6.044 0-6.889 0.245-0.597 1.074-0.652 9.868-0.65 8.809 0.001 9.698 0.060 10.773 0.716 2.438 1.487 2.438 5.272 0 6.758-1.075 0.656-1.964 0.715-10.773 0.716-8.794 0.001-9.623-0.053-9.868-0.65zM4.455 8.585c0-0.678 2.953-4.053 4.246-4.852 1.166-0.72 1.416-0.757 2.066-0.302 0.91 0.638 2.886 3.088 3.603 4.468l0.532 1.024h-5.223c-2.89 0-5.223-0.151-5.223-0.339z"></path>
<path d="M11.752 28.506c-2.687-1.13-4.438-2.501-6.268-4.905l-1.392-1.829 10.322-0.099c10.119-0.097 10.355-0.082 11.977 0.752 0.91 0.468 1.72 1.047 1.8 1.287 0.235 0.705-2.775 3.354-5.056 4.45-1.739 0.836-2.727 1.035-5.646 1.141-3.103 0.112-3.808 0.014-5.737-0.798zM3.048 18.7c-0.347-0.846-0.347-6.044 0-6.889 0.245-0.597 1.074-0.652 9.868-0.65 8.809 0.001 9.698 0.060 10.773 0.716 2.438 1.487 2.438 5.272 0 6.758-1.075 0.656-1.964 0.715-10.773 0.716-8.794 0.001-9.623-0.053-9.868-0.65z"></path>
<path d="M7.632 25.628c-1.153-1.054-2.344-2.395-2.646-2.979l-0.55-1.063h5.223c2.873 0 5.223 0.129 5.223 0.286 0 0.968-3.896 5.673-4.698 5.673-0.251 0-1.399-0.862-2.552-1.916zM3.071 18.328c-0.363-1.319-0.363-4.826 0-6.145l0.282-1.025 8.837 0.014c4.861 0.008 9.457 0.18 10.214 0.382 2.886 0.772 3.922 4.232 1.88 6.275-1.010 1.010-1.124 1.031-6.982 1.274-3.276 0.136-7.754 0.247-9.952 0.248l-3.996 0.001z"></path>
<path d="M7.632 25.628c-1.153-1.054-2.344-2.395-2.646-2.979l-0.55-1.063h5.223c2.873 0 5.223 0.129 5.223 0.286 0 0.968-3.896 5.673-4.698 5.673-0.251 0-1.399-0.862-2.552-1.916zM3.073 18.337c-0.156-0.568-0.284-1.955-0.284-3.081s0.128-2.513 0.284-3.081l0.284-1.033 12.078 0.205 0.311 1.955c0.171 1.075 0.171 2.835 0 3.91l-0.311 1.955-12.078 0.205z"></path>
<path d="M3.071 18.328c-0.363-1.319-0.363-4.826 0-6.145l0.282-1.024h5.908c6.838 0 6.353-0.331 6.362 4.345 0.008 4.112 0.446 3.848-6.359 3.848h-5.911z"></path>
<path d="M3.201 18.141c-0.29-1.082-0.29-4.691 0-5.772 0.221-0.824 0.322-0.838 6.096-0.838 6.719 0 6.32-0.235 6.32 3.724s0.398 3.724-6.32 3.724c-5.774 0-5.875-0.014-6.096-0.838z"></path>
</svg>
