<!-- Generated by IcoMoon.io -->
<svg version="1.1" xmlns="http://www.w3.org/2000/svg" width="32" height="32" viewBox="0 0 32 32">
<title>elastic</title>
<path d="M10.077 28.767c-2.719-1.34-4.275-3.789-4.275-6.731v-1.722l3.207-2.888c3.62-3.261 3.237-3.195 7.403-1.27 2.872 1.327 4.172 2.8 4.147 4.699-0.027 2.046-0.988 5.415-1.795 6.292-1.909 2.074-6.157 2.866-8.687 1.62zM21.184 26.462c-0.517-0.394-0.529-0.689-0.122-2.817 0.25-1.308 0.535-2.458 0.633-2.555 0.24-0.24 3.864 0.576 4.415 0.994 1.547 1.174-0.835 4.819-3.15 4.819-0.659 0-1.458-0.198-1.776-0.44zM23.35 20.336c-1.693-0.445-2.052-0.691-2.562-1.761-0.71-1.49-0.803-1.351 3.144-4.702 3.194-2.711 3.33-2.735 5.079-0.866 0.751 0.803 0.879 1.273 0.879 3.224 0 2.189-0.055 2.335-1.314 3.488-1.47 1.347-2.144 1.427-5.227 0.616zM3.908 18.782c-2.808-2.209-2.515-6.663 0.551-8.383 0.827-0.464 1.21-0.454 3.539 0.095 2.421 0.571 2.656 0.709 3.217 1.885 0.498 1.044 0.524 1.349 0.145 1.717-1.518 1.476-6.092 5.421-6.287 5.421-0.128 0-0.652-0.33-1.166-0.734zM15.79 14.778c-2.862-1.356-3.257-1.66-3.746-2.881-0.497-1.242-0.493-1.629 0.038-4.288 0.512-2.562 0.743-3.068 1.866-4.097 1.275-1.169 3.188-1.926 4.865-1.926 3.918 0 7.392 3.427 7.379 7.279l-0.006 1.684-3.319 2.901c-1.825 1.596-3.445 2.888-3.598 2.872s-1.719-0.711-3.479-1.545zM7.824 9.422c-1.969-0.517-2.022-0.562-2.022-1.746 0-1.603 0.488-2.447 1.811-3.131 1.103-0.57 3.231-0.457 3.633 0.194 0.17 0.275-0.014 1.446-0.707 4.493-0.099 0.435-0.295 0.776-0.437 0.756s-1.167-0.274-2.279-0.565z"></path>
<path d="M11.426 29.034c-3.418-1.040-5.624-3.884-5.624-7.25 0-0.995 0.432-1.54 3.304-4.177l3.304-3.033 3.34 1.484c3.049 1.355 3.404 1.614 4.070 2.986 0.71 1.461 0.714 1.581 0.162 4.333-0.501 2.498-0.724 2.972-1.899 4.033-1.883 1.701-4.392 2.313-6.657 1.624zM21.714 26.539c-0.901-0.362-0.951-0.832-0.389-3.63 0.316-1.571 0.523-1.965 0.967-1.833 0.311 0.092 1.312 0.351 2.224 0.574 1.951 0.478 2.293 1.137 1.534 2.953-0.366 0.875-0.913 1.429-1.762 1.784-1.397 0.584-1.487 0.589-2.573 0.152zM23.969 20.279c-2.416-0.59-3.397-1.428-3.359-2.872 0.014-0.542 5.056-5.093 6.077-5.485 1.307-0.501 3.379 2.107 3.379 4.254 0 1.447-1.051 3.348-2.258 4.084-0.596 0.363-1.162 0.648-1.259 0.633s-1.258-0.291-2.58-0.614zM3.575 18.171c-2.047-2.137-1.91-5.113 0.326-7.077 0.716-0.629 1.507-1.031 1.841-0.936 0.323 0.091 1.513 0.364 2.645 0.606 1.814 0.388 2.126 0.583 2.629 1.638l0.571 1.197-2.981 2.767c-1.639 1.522-3.228 2.774-3.53 2.783s-0.978-0.432-1.501-0.978zM15.79 14.778c-2.862-1.356-3.257-1.66-3.746-2.881-0.497-1.242-0.493-1.629 0.038-4.288 0.512-2.562 0.743-3.068 1.866-4.097 1.275-1.169 3.188-1.926 4.865-1.926 3.918 0 7.392 3.427 7.379 7.279l-0.006 1.684-3.319 2.901c-1.825 1.596-3.445 2.888-3.598 2.872s-1.719-0.711-3.479-1.545zM7.824 9.422c-1.969-0.517-2.022-0.562-2.022-1.746 0-1.603 0.488-2.447 1.811-3.131 1.103-0.57 3.231-0.457 3.633 0.194 0.17 0.275-0.014 1.446-0.707 4.493-0.099 0.435-0.295 0.776-0.437 0.756s-1.167-0.274-2.279-0.565z"></path>
<path d="M11.426 29.034c-3.418-1.040-5.624-3.884-5.624-7.25 0-0.995 0.432-1.54 3.304-4.177l3.304-3.033 3.34 1.484c3.049 1.355 3.404 1.614 4.070 2.986 0.71 1.461 0.714 1.581 0.162 4.333-0.501 2.498-0.724 2.972-1.899 4.033-1.883 1.701-4.392 2.313-6.657 1.624zM21.714 26.539c-0.901-0.362-0.951-0.832-0.389-3.63 0.316-1.571 0.523-1.965 0.967-1.833 0.311 0.092 1.312 0.351 2.224 0.574 1.951 0.478 2.293 1.137 1.534 2.953-0.366 0.875-0.913 1.429-1.762 1.784-1.397 0.584-1.487 0.589-2.573 0.152zM23.969 20.279c-2.416-0.59-3.397-1.428-3.359-2.872 0.014-0.542 5.056-5.093 6.077-5.485 1.307-0.501 3.379 2.107 3.379 4.254 0 1.447-1.051 3.348-2.258 4.084-0.596 0.363-1.162 0.648-1.259 0.633s-1.258-0.291-2.58-0.614zM3.575 18.171c-2.047-2.137-1.91-5.113 0.326-7.077 0.716-0.629 1.507-1.031 1.841-0.936 0.323 0.091 1.513 0.364 2.645 0.606 1.814 0.388 2.126 0.583 2.629 1.638l0.571 1.197-2.981 2.767c-1.639 1.522-3.228 2.774-3.53 2.783s-0.978-0.432-1.501-0.978zM7.824 9.422c-1.969-0.517-2.022-0.562-2.022-1.746 0-1.603 0.488-2.447 1.811-3.131 1.103-0.57 3.231-0.457 3.633 0.194 0.17 0.275-0.014 1.446-0.707 4.493-0.099 0.435-0.295 0.776-0.437 0.756s-1.167-0.274-2.279-0.565z"></path>
<path d="M11.426 29.034c-3.418-1.040-5.624-3.884-5.624-7.25 0-0.995 0.432-1.54 3.304-4.177l3.304-3.033 3.34 1.484c3.049 1.355 3.404 1.614 4.070 2.986 0.71 1.461 0.714 1.581 0.162 4.333-0.501 2.498-0.724 2.972-1.899 4.033-1.883 1.701-4.392 2.313-6.657 1.624zM21.714 26.539c-0.901-0.362-0.951-0.832-0.389-3.63 0.316-1.571 0.523-1.965 0.967-1.833 0.311 0.092 1.312 0.351 2.224 0.574 1.951 0.478 2.293 1.137 1.534 2.953-0.366 0.875-0.913 1.429-1.762 1.784-1.397 0.584-1.487 0.589-2.573 0.152zM23.969 20.279c-2.416-0.59-3.397-1.428-3.359-2.872 0.014-0.542 5.056-5.093 6.077-5.485 1.307-0.501 3.379 2.107 3.379 4.254 0 1.447-1.051 3.348-2.258 4.084-0.596 0.363-1.162 0.648-1.259 0.633s-1.258-0.291-2.58-0.614zM3.575 18.171c-2.047-2.137-1.91-5.113 0.326-7.077 0.716-0.629 1.507-1.031 1.841-0.936 0.323 0.091 1.513 0.364 2.645 0.606 1.814 0.388 2.126 0.583 2.629 1.638l0.571 1.197-2.981 2.767c-1.639 1.522-3.228 2.774-3.53 2.783s-0.978-0.432-1.501-0.978z"></path>
<path d="M11.426 29.034c-3.418-1.040-5.624-3.884-5.624-7.25 0-0.995 0.432-1.54 3.304-4.177l3.304-3.033 3.34 1.484c3.049 1.355 3.404 1.614 4.070 2.986 0.71 1.461 0.714 1.581 0.162 4.333-0.501 2.498-0.724 2.972-1.899 4.033-1.883 1.701-4.392 2.313-6.657 1.624zM21.714 26.539c-0.901-0.362-0.951-0.832-0.389-3.63 0.316-1.571 0.523-1.965 0.967-1.833 0.311 0.092 1.312 0.351 2.224 0.574 1.951 0.478 2.293 1.137 1.534 2.953-0.366 0.875-0.913 1.429-1.762 1.784-1.397 0.584-1.487 0.589-2.573 0.152zM24.030 20.304c-2.088-0.472-2.414-0.662-2.989-1.746l-0.646-1.217 2.813-2.597c3.103-2.865 3.68-3.184 4.733-2.621 0.821 0.44 2.124 2.804 2.124 3.855 0 1.425-1.129 3.526-2.275 4.234-0.632 0.391-1.209 0.69-1.283 0.665s-1.189-0.283-2.478-0.574z"></path>
<path d="M11.426 29.034c-3.418-1.040-5.624-3.884-5.624-7.25 0-0.995 0.432-1.54 3.304-4.177l3.304-3.033 3.34 1.484c3.049 1.355 3.404 1.614 4.070 2.986 0.71 1.461 0.714 1.581 0.162 4.333-0.501 2.498-0.724 2.972-1.899 4.033-1.883 1.701-4.392 2.313-6.657 1.624zM24.030 20.304c-2.088-0.472-2.414-0.662-2.989-1.746l-0.646-1.217 2.813-2.597c3.103-2.865 3.68-3.184 4.733-2.621 0.821 0.44 2.124 2.804 2.124 3.855 0 1.425-1.129 3.526-2.275 4.234-0.632 0.391-1.209 0.69-1.283 0.665s-1.189-0.283-2.478-0.574z"></path>
<path d="M24.107 20.261c-1.808-0.474-2.394-0.805-2.899-1.636-0.348-0.573-0.634-1.153-0.635-1.289-0.003-0.385 6.094-5.555 6.551-5.555 0.665 0 2.504 2.325 2.76 3.489 0.337 1.533-0.365 3.334-1.786 4.581-0.672 0.59-1.335 1.057-1.473 1.038s-1.271-0.302-2.518-0.628z"></path>
</svg>
