<!-- Generated by IcoMoon.io -->
<svg version="1.1" xmlns="http://www.w3.org/2000/svg" width="37" height="32" viewBox="0 0 37 32">
<title>googlecloud</title>
<path d="M9.532 30.383c-0.495-0.465-6.446-10.465-7.801-13.108-0.686-1.338-0.66-1.403 3.563-8.701 3.019-5.219 4.024-6.817 4.483-7.126l0.591-0.399h15.984l0.576 0.393c0.59 0.403 0.874 0.862 5.966 9.658 2.643 4.565 2.753 4.89 2.095 6.174-1.355 2.643-7.306 12.643-7.801 13.108l-0.605 0.568h-16.447zM19.853 20.342c0.536-0.183 1.157-0.593 1.663-1.099 1.922-1.922 1.82-4.776-0.235-6.585-1.311-1.154-3.133-1.448-4.669-0.754-2.898 1.31-3.695 4.881-1.606 7.194 1.284 1.421 3.020 1.867 4.847 1.244z"></path>
<path d="M10.022 30.695c-0.685-0.298-0.628-0.209-4.97-7.7-3.154-5.441-3.548-6.208-3.555-6.907-0.006-0.67 0.199-1.149 1.38-3.217 0.804-1.407 1.521-2.465 1.703-2.512 0.173-0.045 0.315-0.184 0.315-0.308s1.032-2.006 2.294-4.183c1.693-2.921 2.424-4.024 2.789-4.213 0.413-0.214 1.798-0.256 8.364-0.256 5.596 0 7.998 0.059 8.314 0.203 0.472 0.215 0.848 0.758 2.461 3.557 0.554 0.962 1.149 1.906 1.321 2.098s1.302 2.073 2.51 4.178c1.902 3.314 2.197 3.932 2.197 4.599 0 0.685-0.414 1.488-3.699 7.188-2.034 3.529-3.864 6.604-4.066 6.833-0.776 0.88-0.939 0.896-9.148 0.889-6.128-0.005-7.767-0.055-8.213-0.249zM25.776 20.559c1.308-2.253 2.424-4.215 2.479-4.359 0.059-0.154-0.878-1.952-2.266-4.348-1.302-2.247-2.418-4.22-2.481-4.384-0.104-0.271-0.566-0.298-5.14-0.298-4.569 0-5.049 0.028-5.287 0.306-0.144 0.168-1.305 2.114-2.579 4.325-1.704 2.956-2.275 4.089-2.158 4.284 0.088 0.146 1.243 2.135 2.567 4.419l2.408 4.153h10.078z"></path>
<path d="M15.125 30.645c-4.777-0.048-4.908-0.059-5.363-0.44-0.256-0.215-2.169-3.342-4.25-6.948-4.511-7.818-4.317-6.97-2.366-10.317 0.701-1.202 1.381-2.31 1.512-2.462s0.238-0.361 0.238-0.464c0-0.104 1.032-1.969 2.294-4.146 1.693-2.921 2.424-4.024 2.789-4.213 0.721-0.373 16.025-0.381 16.744-0.010 0.309 0.16 0.873 0.928 1.609 2.192 0.623 1.070 1.398 2.356 1.723 2.858s1.581 2.603 2.791 4.671c2.013 3.439 2.201 3.834 2.206 4.634 0.005 0.818-0.19 1.212-3.033 6.12-4.512 7.792-4.71 8.106-5.269 8.396-0.4 0.207-1.142 0.252-3.615 0.219-1.712-0.022-5.316-0.063-8.009-0.090zM23.202 24.868c0.37-0.235 5.15-8.615 5.093-8.929-0.030-0.168-1.156-2.209-2.503-4.535l-2.448-4.229-5-0.003c-4.548-0.003-5.024 0.025-5.263 0.303-0.144 0.168-1.343 2.18-2.664 4.471l-2.401 4.165 2.396 4.141c1.318 2.278 2.517 4.279 2.664 4.447 0.243 0.278 0.713 0.306 5.093 0.303 2.654-0.001 4.919-0.062 5.033-0.134z"></path>
<path d="M9.763 30.207c-0.257-0.216-2.169-3.343-4.25-6.95-4.513-7.821-4.318-6.959-2.346-10.357 0.71-1.224 1.37-2.227 1.467-2.227 0.171-0.001 0.722 0.914 5.734 9.524 1.344 2.308 2.563 4.334 2.709 4.503 0.242 0.278 0.723 0.306 5.283 0.306 4.563 0 5.040-0.028 5.276-0.306 0.143-0.168 1.337-2.175 2.655-4.459 2.365-4.1 2.392-4.159 2.135-4.657-0.143-0.277-1.249-2.209-2.458-4.293s-2.151-3.864-2.094-3.955c0.064-0.104-1.896-0.166-5.219-0.166-4.681 0-5.35 0.034-5.556 0.282-0.129 0.155-1.264 2.063-2.524 4.24s-2.364 3.953-2.454 3.945c-0.222-0.018-3.221-5.156-3.223-5.522-0.001-0.159 1.031-2.070 2.293-4.247 1.693-2.921 2.424-4.024 2.789-4.213 0.413-0.214 1.798-0.256 8.364-0.256 5.596 0 7.998 0.059 8.314 0.203 0.245 0.112 0.672 0.564 0.949 1.005 1.246 1.985 2.494 4.246 2.397 4.343-0.058 0.058 0.041 0.269 0.221 0.469 0.305 0.338 3.801 6.27 4.481 7.604 0.194 0.382 0.273 0.823 0.218 1.224-0.112 0.818-7.124 13.016-7.924 13.786l-0.591 0.568-16.18-0.002-0.466-0.393z"></path>
<path d="M9.763 30.207c-0.257-0.216-2.169-3.343-4.25-6.95-4.513-7.821-4.318-6.959-2.346-10.357 0.71-1.224 1.37-2.227 1.467-2.227 0.171-0.001 0.722 0.914 5.734 9.524 1.344 2.308 2.563 4.334 2.709 4.503 0.242 0.278 0.723 0.306 5.283 0.306 4.563 0 5.040-0.028 5.276-0.306 0.143-0.168 1.337-2.175 2.655-4.459 2.365-4.1 2.392-4.159 2.135-4.657-0.143-0.277-1.249-2.209-2.458-4.293s-2.151-3.864-2.094-3.955c0.059-0.095 1.401-0.166 3.126-0.166 2.661 0 3.054 0.037 3.288 0.306 0.265 0.305 3.843 6.416 4.419 7.548 0.194 0.382 0.273 0.823 0.218 1.224-0.112 0.818-7.124 13.016-7.924 13.786l-0.591 0.568-16.18-0.002-0.466-0.393z"></path>
<path d="M20.284 30.494c0-0.171 3-5.364 3.322-5.751 0.16-0.192 1.369-2.219 2.686-4.503 2.364-4.1 2.391-4.159 2.134-4.657-0.143-0.277-1.249-2.209-2.458-4.293s-2.151-3.864-2.094-3.955c0.059-0.095 1.401-0.166 3.126-0.166 2.661 0 3.054 0.037 3.288 0.306 0.265 0.305 3.843 6.416 4.419 7.548 0.194 0.382 0.273 0.823 0.218 1.224-0.112 0.818-7.124 13.016-7.924 13.786l-0.591 0.568h-3.063c-1.684 0-3.063-0.048-3.063-0.107z"></path>
<path d="M20.511 30.295c1.021-1.84 2.871-4.939 3.105-5.202 0.445-0.5 5.237-8.777 5.237-9.046 0-0.123-1.063-2.073-2.362-4.332l-2.362-4.108 2.919-0.048c2.189-0.036 2.973 0.008 3.134 0.175 0.118 0.123 1.182 1.875 2.365 3.895 1.766 3.016 2.151 3.797 2.155 4.372 0.004 0.597-0.553 1.663-3.814 7.303-2.1 3.632-3.986 6.72-4.19 6.863-0.293 0.205-0.992 0.26-3.316 0.26-1.619 0-2.911-0.059-2.871-0.131z"></path>
</svg>
