<!-- Generated by IcoMoon.io -->
<svg version="1.1" xmlns="http://www.w3.org/2000/svg" width="32" height="32" viewBox="0 0 32 32">
<title>java</title>
<path d="M11.996 23.699c0 0-1.103 0.641 0.785 0.858 2.286 0.261 3.455 0.223 5.975-0.253 0 0 0.662 0.415 1.588 0.775-5.649 2.421-12.784-0.14-8.347-1.38z"></path>
<path d="M11.306 20.54c0 0-1.237 0.915 0.652 1.111 2.442 0.252 4.371 0.273 7.709-0.37 0 0 0.462 0.468 1.188 0.724-6.829 1.997-14.436 0.157-9.549-1.465z"></path>
<path d="M17.125 15.181c1.392 1.602-0.366 3.044-0.366 3.044s3.534-1.824 1.911-4.109c-1.516-2.13-2.678-3.189 3.615-6.839 0 0-9.878 2.467-5.16 7.903z"></path>
<path d="M24.596 26.036c0 0 0.816 0.672-0.899 1.192-3.26 0.988-13.57 1.286-16.434 0.039-1.030-0.448 0.901-1.069 1.508-1.2 0.633-0.137 0.995-0.112 0.995-0.112-1.145-0.807-7.401 1.584-3.178 2.268 11.517 1.868 20.994-0.841 18.007-2.189z"></path>
<path d="M12.527 17.267c0 0-5.244 1.246-1.857 1.698 1.43 0.191 4.281 0.148 6.937-0.074 2.17-0.183 4.349-0.572 4.349-0.572s-0.765 0.328-1.319 0.706c-5.325 1.401-15.613 0.749-12.651-0.684 2.505-1.211 4.541-1.073 4.541-1.073z"></path>
<path d="M21.934 22.526c5.413-2.813 2.91-5.516 1.163-5.152-0.428 0.089-0.619 0.166-0.619 0.166s0.159-0.249 0.463-0.357c3.456-1.215 6.114 3.584-1.116 5.484 0 0 0.084-0.075 0.109-0.142z"></path>
<path d="M18.67 1.385c0 0 2.998 2.999-2.844 7.611-4.684 3.699-1.068 5.809-0.002 8.219-2.734-2.467-4.741-4.639-3.395-6.66 1.976-2.967 7.45-4.406 6.24-9.169z"></path>
<path d="M13.059 30.148c5.196 0.333 13.176-0.184 13.365-2.643 0 0-0.363 0.932-4.294 1.672-4.435 0.835-9.905 0.737-13.15 0.202 0 0 0.664 0.55 4.079 0.769z"></path>
</svg>
