<!-- Generated by IcoMoon.io -->
<svg version="1.1" xmlns="http://www.w3.org/2000/svg" width="32" height="32" viewBox="0 0 32 32">
<title>java</title>
<path d="M10.112 28.254c-1.824-0.489-0.817-0.659 4.032-0.68 5.235-0.022 9.358-0.687 10.237-1.651 0.258-0.283 0.158-0.315-0.354-0.114-3.436 1.353-9.184 1.874-14.080 1.275-3.41-0.417-5.215-0.989-5.156-1.634 0.058-0.63 2.58-1.669 3.41-1.406l0.78 0.248-0.842 0.635c-0.84 0.634-0.836 0.636 1.615 0.898 2.971 0.318 10.589-0.004 12.285-0.52 0.673-0.205 1.353-0.576 1.511-0.825 0.229-0.361 0.288-0.358 0.293 0.015 0.003 0.257 0.149 0.378 0.324 0.27s0.421 0.21 0.546 0.707c0.134 0.534 0.388 0.805 0.62 0.662s0.329-0.039 0.238 0.253c-0.085 0.273-0.788 0.812-1.563 1.198-1.205 0.601-2.257 0.714-7.295 0.781-3.238 0.044-6.209-0.007-6.601-0.113zM11.823 24.090c-1.495-0.547-2.145-1.198-1.67-1.672 0.244-0.244 0.743-0.228 1.537 0.048 0.716 0.25 2.157 0.328 3.685 0.2 1.926-0.162 2.766-0.077 3.618 0.365l1.11 0.575-1.249 0.452c-1.569 0.567-5.521 0.586-7.031 0.033zM10.38 20.84c-1.215-0.549-1.528-1.411-0.635-1.753 0.289-0.111 0.783 0.056 1.098 0.372 0.483 0.483 1.169 0.54 4.381 0.361 2.906-0.162 3.961-0.098 4.454 0.27 1.060 0.79 0.074 1.065-4.214 1.174-2.863 0.073-4.239-0.042-5.085-0.424zM22.067 20.64c-0.384-0.237-0.243-0.536 0.645-1.366 1.591-1.486 1.393-3.273-0.361-3.273-0.353 0-0.642-0.161-0.642-0.357 0-0.811 2.21-0.342 3.239 0.686 1.243 1.243 1.264 1.434 0.298 2.663s-2.538 2.043-3.178 1.648zM9.011 18.186c-1.315-0.343-1.931-0.694-1.931-1.097 0-0.458 2.764-1.457 3.379-1.221 0.741 0.284 0.691 0.841-0.079 0.871-0.497 0.019-0.461 0.103 0.178 0.411 0.578 0.279 2.015 0.276 5.139-0.011 4.595-0.423 6.46-0.144 4.406 0.657-1.291 0.504-9.546 0.795-11.092 0.391zM16.408 16.396c-0.337-0.214-0.365-0.381-0.089-0.551 0.614-0.379 0.467-1.441-0.34-2.468-1.228-1.56-1.278-3.116-0.146-4.462 1.238-1.471 4.26-3.048 5.023-2.621 0.459 0.257 0.381 0.417-0.457 0.95-2.942 1.868-3.626 3.438-2.258 5.187 0.902 1.153 0.894 2.172-0.026 3.342-0.803 1.021-0.977 1.085-1.707 0.622zM14.628 15.36c-1.517-1.019-3.266-3.654-3.266-4.918 0-1.011 0.377-1.513 2.703-3.606 2.942-2.647 3.72-3.784 3.72-5.435 0-1.523 0.978-1.063 1.292 0.609 0.318 1.694-0.873 3.967-2.985 5.698-1.626 1.333-2.588 2.791-2.588 3.925 0 0.364 0.49 1.434 1.089 2.378s1.040 1.761 0.981 1.815c-0.059 0.054-0.484-0.155-0.944-0.464z"></path>
<path d="M11.005 28.158c-0.779-0.148 0.765-0.314 4.103-0.442 4.059-0.155 5.868-0.381 7.485-0.937 2.444-0.839 3.926-0.551 2.079 0.404-2.183 1.129-9.939 1.682-13.668 0.974zM8.685 26.808c-2.164-0.296-3.747-0.857-3.747-1.327 0-0.652 2.744-1.728 3.429-1.345 0.423 0.237 0.328 0.393-0.468 0.769l-0.999 0.471 1.070 0.32c1.481 0.443 10.64 0.41 12.988-0.046 1.060-0.206 2.184-0.575 2.498-0.82 0.505-0.394 0.515-0.374 0.081 0.179-0.562 0.716-0.079 0.845 0.669 0.178 0.423-0.377 0.43-0.353 0.047 0.155-0.776 1.030-4.913 1.723-9.93 1.664-2.512-0.029-5.050-0.119-5.639-0.2zM12.003 23.998c-0.923-0.284-1.786-0.692-1.919-0.907-0.363-0.587 0.608-1.026 1.368-0.619 0.365 0.196 1.98 0.316 3.587 0.267 1.961-0.059 3.217 0.073 3.815 0.403l0.892 0.491-1.427 0.438c-1.904 0.584-4.269 0.557-6.316-0.073zM10.889 20.857c-1.68-0.627-1.905-0.839-1.415-1.328 0.274-0.274 0.612-0.262 1.182 0.043 0.818 0.438 5.909 0.562 7.132 0.173 0.375-0.119 1.036-0.028 1.467 0.203 0.742 0.397 0.749 0.439 0.129 0.787-1.101 0.616-6.948 0.701-8.495 0.123zM22.161 20.404c-0.283-0.114-0.059-0.499 0.624-1.074 1.439-1.21 1.478-2.821 0.083-3.395-0.786-0.324-0.855-0.434-0.348-0.554 0.348-0.083 1.151 0.151 1.784 0.52 1.656 0.964 1.76 2.529 0.251 3.798-1.102 0.928-1.532 1.054-2.395 0.705zM10.291 18.249c-1.499-0.161-3.211-0.798-3.211-1.194 0-0.553 2.435-1.126 3.111-0.733 0.35 0.204 0.435 0.375 0.19 0.381s-0.446 0.171-0.446 0.368c0 0.415 5.296 0.44 8.117 0.038 1.030-0.147 1.873-0.14 1.873 0.015s0.281 0.194 0.624 0.087c0.563-0.175 0.566-0.157 0.039 0.186-1.236 0.801-6.624 1.248-10.297 0.853zM16.408 16.396c-0.337-0.214-0.365-0.381-0.089-0.551 0.614-0.379 0.467-1.441-0.34-2.468-1.228-1.56-1.278-3.116-0.146-4.462 1.238-1.471 4.26-3.048 5.023-2.621 0.459 0.257 0.381 0.417-0.457 0.95-2.942 1.868-3.626 3.438-2.258 5.187 0.902 1.153 0.894 2.172-0.026 3.342-0.803 1.021-0.977 1.085-1.707 0.622zM14.628 15.36c-1.517-1.019-3.266-3.654-3.266-4.918 0-1.011 0.377-1.513 2.703-3.606 2.942-2.647 3.72-3.784 3.72-5.435 0-1.523 0.978-1.063 1.292 0.609 0.318 1.694-0.873 3.967-2.985 5.698-1.626 1.333-2.588 2.791-2.588 3.925 0 0.364 0.49 1.434 1.089 2.378s1.040 1.761 0.981 1.815c-0.059 0.054-0.484-0.155-0.944-0.464z"></path>
<path d="M11.005 28.158c-0.779-0.148 0.765-0.314 4.103-0.442 4.059-0.155 5.868-0.381 7.485-0.937 2.444-0.839 3.926-0.551 2.079 0.404-2.183 1.129-9.939 1.682-13.668 0.974zM8.685 26.808c-2.164-0.296-3.747-0.857-3.747-1.327 0-0.652 2.744-1.728 3.429-1.345 0.423 0.237 0.328 0.393-0.468 0.769l-0.999 0.471 1.070 0.32c1.481 0.443 10.64 0.41 12.988-0.046 1.060-0.206 2.184-0.575 2.498-0.82 0.505-0.394 0.515-0.374 0.081 0.179-0.562 0.716-0.079 0.845 0.669 0.178 0.423-0.377 0.43-0.353 0.047 0.155-0.776 1.030-4.913 1.723-9.93 1.664-2.512-0.029-5.050-0.119-5.639-0.2zM12.003 23.998c-0.923-0.284-1.786-0.692-1.919-0.907-0.363-0.587 0.608-1.026 1.368-0.619 0.365 0.196 1.98 0.316 3.587 0.267 1.961-0.059 3.217 0.073 3.815 0.403l0.892 0.491-1.427 0.438c-1.904 0.584-4.269 0.557-6.316-0.073zM10.889 20.857c-1.68-0.627-1.905-0.839-1.415-1.328 0.274-0.274 0.612-0.262 1.182 0.043 0.818 0.438 5.909 0.562 7.132 0.173 0.375-0.119 1.036-0.028 1.467 0.203 0.742 0.397 0.749 0.439 0.129 0.787-1.101 0.616-6.948 0.701-8.495 0.123zM22.161 20.404c-0.283-0.114-0.059-0.499 0.624-1.074 1.439-1.21 1.478-2.821 0.083-3.395-0.786-0.324-0.855-0.434-0.348-0.554 0.348-0.083 1.151 0.151 1.784 0.52 1.656 0.964 1.76 2.529 0.251 3.798-1.102 0.928-1.532 1.054-2.395 0.705zM10.291 18.249c-1.499-0.161-3.211-0.798-3.211-1.194 0-0.553 2.435-1.126 3.111-0.733 0.35 0.204 0.435 0.375 0.19 0.381s-0.446 0.171-0.446 0.368c0 0.415 5.296 0.44 8.117 0.038 1.030-0.147 1.873-0.14 1.873 0.015s0.281 0.194 0.624 0.087c0.563-0.175 0.566-0.157 0.039 0.186-1.236 0.801-6.624 1.248-10.297 0.853zM17.279 16.029c0.188-0.359 0.109-0.446-0.272-0.3-0.407 0.156-0.5 0.005-0.38-0.62 0.094-0.493-0.153-1.247-0.613-1.869-0.94-1.272-1.037-2.957-0.239-4.175 0.585-0.893 4.483-3.168 3.95-2.305-0.197 0.318-0.082 0.372 0.41 0.191 0.42-0.154 0.27 0.093-0.388 0.64-0.589 0.49-1.187 0.897-1.329 0.904s-0.502 0.484-0.8 1.061c-0.548 1.060-0.444 1.901 0.357 2.877 0.944 1.151 0.935 2.039-0.028 3.087-0.514 0.559-0.814 0.788-0.668 0.51zM13.439 13.948c-2.933-3.069-2.833-3.736 1.134-7.545 2.946-2.828 3.215-3.2 3.253-4.504 0.023-0.782 0.119-1.117 0.214-0.745 0.123 0.482 0.251 0.549 0.446 0.235 0.502-0.812 0.636 1.298 0.169 2.657-0.246 0.716-1.506 2.399-2.8 3.739-2.719 2.816-2.991 3.963-1.471 6.203 1.14 1.681 0.681 1.661-0.945-0.039z"></path>
<path d="M11.183 28.157c-0.928-0.15 0.509-0.307 4.103-0.448 3.458-0.136 6.196-0.428 7.307-0.779 1.101-0.348 1.903-0.434 2.11-0.228 1.174 1.174-8.685 2.235-13.52 1.456zM10.112 26.843c-2.715-0.248-5.217-0.902-5.078-1.329 0.227-0.697 1.977-1.381 2.618-1.023 0.527 0.295 0.526 0.342-0.017 0.55-0.348 0.134-0.503 0.082-0.375-0.125 0.12-0.194 0.048-0.353-0.16-0.353-0.748 0-0.357 0.74 0.603 1.143 1.245 0.523 11.092 0.519 13.273-0.004 0.918-0.22 1.819-0.252 2.136-0.074 0.428 0.24 0.315 0.359-0.517 0.543-0.586 0.13-1.29 0.307-1.564 0.394-0.697 0.22-9.187 0.437-10.92 0.279zM11.419 23.662c-1.128-0.49-1.441-1.575-0.37-1.284 2.151 0.584 3.251 0.699 4.98 0.52 1.307-0.136 2.286-0.050 2.846 0.251 0.818 0.438 0.825 0.469 0.149 0.733-1.231 0.481-6.332 0.334-7.605-0.219zM11.568 20.976c-0.77-0.193-1.62-0.535-1.888-0.758-0.904-0.75 0.062-0.974 1.77-0.411 1.379 0.454 2.208 0.493 4.46 0.208 1.816-0.23 3.001-0.23 3.448 0.001 0.62 0.32 0.628 0.382 0.090 0.683-0.879 0.492-6.271 0.682-7.88 0.277zM22.952 20.292c0.231-0.374 0.141-0.427-0.381-0.226-0.547 0.21-0.498 0.063 0.246-0.742 1.418-1.534 1.514-2.172 0.472-3.138-0.907-0.841-0.908-0.844-0.086-0.646 0.454 0.109 1.211 0.597 1.682 1.086 1.103 1.143 0.725 2.426-1.013 3.441-0.755 0.441-1.107 0.528-0.921 0.226zM24.385 19.211c0.355-0.393 0.566-0.714 0.467-0.714s-0.469 0.321-0.824 0.714c-0.355 0.393-0.566 0.714-0.467 0.714s0.469-0.321 0.824-0.714zM8.239 17.742c-0.638-0.184-1.16-0.406-1.16-0.494 0-0.431 2.265-1.256 2.897-1.056 0.692 0.22 0.695 0.249 0.071 0.753-0.576 0.465-0.082 0.507 4.406 0.375 5.089-0.15 7.319 0.163 4.199 0.591-2.421 0.332-9.052 0.224-10.413-0.169zM17.279 16.029c0.188-0.359 0.109-0.446-0.272-0.3-0.407 0.156-0.5 0.005-0.38-0.62 0.094-0.493-0.153-1.247-0.613-1.869-0.94-1.272-1.037-2.957-0.239-4.175 0.585-0.893 4.483-3.168 3.95-2.305-0.197 0.318-0.082 0.372 0.41 0.191 0.42-0.154 0.27 0.093-0.388 0.64-0.589 0.49-1.187 0.897-1.329 0.904s-0.502 0.484-0.8 1.061c-0.548 1.060-0.444 1.901 0.357 2.877 0.944 1.151 0.935 2.039-0.028 3.087-0.514 0.559-0.814 0.788-0.668 0.51zM13.439 13.948c-2.933-3.069-2.833-3.736 1.134-7.545 2.946-2.828 3.215-3.2 3.253-4.504 0.023-0.782 0.119-1.117 0.214-0.745 0.123 0.482 0.251 0.549 0.446 0.235 0.502-0.812 0.636 1.298 0.169 2.657-0.246 0.716-1.506 2.399-2.8 3.739-2.719 2.816-2.991 3.963-1.471 6.203 1.14 1.681 0.681 1.661-0.945-0.039z"></path>
<path d="M11.183 28.157c-0.928-0.15 0.509-0.307 4.103-0.448 3.458-0.136 6.196-0.428 7.307-0.779 1.101-0.348 1.903-0.434 2.11-0.228 1.174 1.174-8.685 2.235-13.52 1.456zM10.112 26.843c-2.715-0.248-5.217-0.902-5.078-1.329 0.227-0.697 1.977-1.381 2.618-1.023 0.527 0.295 0.526 0.342-0.017 0.55-0.348 0.134-0.503 0.082-0.375-0.125 0.12-0.194 0.048-0.353-0.16-0.353-0.748 0-0.357 0.74 0.603 1.143 1.245 0.523 11.092 0.519 13.273-0.004 0.918-0.22 1.819-0.252 2.136-0.074 0.428 0.24 0.315 0.359-0.517 0.543-0.586 0.13-1.29 0.307-1.564 0.394-0.697 0.22-9.187 0.437-10.92 0.279zM11.419 23.662c-1.128-0.49-1.441-1.575-0.37-1.284 2.151 0.584 3.251 0.699 4.98 0.52 1.307-0.136 2.286-0.050 2.846 0.251 0.818 0.438 0.825 0.469 0.149 0.733-1.231 0.481-6.332 0.334-7.605-0.219zM11.568 20.976c-0.77-0.193-1.62-0.535-1.888-0.758-0.904-0.75 0.062-0.974 1.77-0.411 1.379 0.454 2.208 0.493 4.46 0.208 1.816-0.23 3.001-0.23 3.448 0.001 0.62 0.32 0.628 0.382 0.090 0.683-0.879 0.492-6.271 0.682-7.88 0.277zM22.952 20.292c0.231-0.374 0.141-0.427-0.381-0.226-0.547 0.21-0.498 0.063 0.246-0.742 1.418-1.534 1.514-2.172 0.472-3.138-0.907-0.841-0.908-0.844-0.086-0.646 0.454 0.109 1.211 0.597 1.682 1.086 1.103 1.143 0.725 2.426-1.013 3.441-0.755 0.441-1.107 0.528-0.921 0.226zM24.385 19.211c0.355-0.393 0.566-0.714 0.467-0.714s-0.469 0.321-0.824 0.714c-0.355 0.393-0.566 0.714-0.467 0.714s0.469-0.321 0.824-0.714zM8.239 17.742c-0.638-0.184-1.16-0.406-1.16-0.494 0-0.431 2.265-1.256 2.897-1.056 0.692 0.22 0.695 0.249 0.071 0.753-0.576 0.465-0.082 0.507 4.406 0.375 5.089-0.15 7.319 0.163 4.199 0.591-2.421 0.332-9.052 0.224-10.413-0.169zM17.427 15.666c0-0.232-0.16-0.322-0.357-0.201s-0.357-0.106-0.357-0.505c0-0.399-0.321-1.252-0.712-1.894-1.48-2.426-0.704-4.353 2.389-5.93 1.166-0.595 1.416-0.629 1.416-0.192 0 0.638-1.817 2.007-2.181 1.643-0.141-0.141-0.217-0.097-0.169 0.1s-0.035 0.797-0.186 1.334c-0.202 0.718-0.075 1.315 0.477 2.25 0.883 1.497 0.963 2.753 0.216 3.373-0.399 0.331-0.535 0.337-0.535 0.023zM13.035 13.413c-0.676-0.834-1.337-1.87-1.469-2.302-0.366-1.194 0.571-2.623 2.936-4.481 1.287-1.011 2.428-2.276 2.885-3.199 0.588-1.189 0.755-1.343 0.755-0.699 0 1.246-0.588 2.156-3.080 4.759-1.992 2.081-2.271 2.543-2.267 3.747 0.004 1.062 0.090 1.252 0.38 0.837 0.3-0.428 0.333-0.386 0.167 0.209-0.139 0.501 0.081 1.056 0.673 1.695 0.484 0.523 0.738 0.95 0.565 0.95s-0.869-0.682-1.545-1.516zM13.154 10.483c-0.004-0.391 0.834-1.493 1.902-2.498 2.373-2.233 3.161-3.442 3.469-5.323l0.241-1.47 0.045 1.463c0.051 1.676-1.213 3.714-3.282 5.293-0.679 0.518-1.489 1.458-1.8 2.089-0.415 0.842-0.567 0.96-0.573 0.446z"></path>
<path d="M12.075 28.128c-1.357-0.132-0.256-0.256 3.568-0.403 3.613-0.139 6.036-0.401 6.988-0.758 1.155-0.433 1.457-0.449 1.457-0.081 0 0.266-0.228 0.377-0.534 0.259-0.379-0.145-0.448-0.066-0.239 0.273 0.219 0.354 0.133 0.416-0.33 0.238-0.344-0.132-0.794-0.137-0.998-0.010-0.725 0.448-7.079 0.757-9.911 0.482zM7.446 26.297c-2.541-0.421-2.881-0.808-1.388-1.58 1.065-0.55 1.146-0.555 0.716-0.036-0.911 1.098 0.998 1.469 7.621 1.479 3.489 0.005 5.384 0.112 4.46 0.251-2.263 0.34-9.083 0.272-11.409-0.113zM12.131 23.872c-1.429-0.363-2.015-0.878-1.658-1.457 0.199-0.321 0.337-0.307 0.563 0.058 0.22 0.355 1.247 0.484 3.862 0.484 1.959 0 3.723 0.16 3.92 0.357 0.239 0.238 0.097 0.371-0.427 0.399-0.432 0.023-1.748 0.137-2.926 0.252s-2.678 0.073-3.334-0.093zM10.737 20.62c-1.146-0.355-1.467-0.82-0.833-1.212 0.179-0.111 0.394 0 0.477 0.247 0.112 0.332 1.297 0.432 4.577 0.386 3.085-0.044 4.234 0.045 3.793 0.291-0.906 0.507-6.641 0.713-8.014 0.288zM22.827 19.495c1.31-1.236 1.59-2.314 0.822-3.164-0.742-0.82-0.097-0.935 0.711-0.127 0.701 0.701 0.714 1.56 0.038 2.524-0.288 0.41-0.437 0.831-0.333 0.936s-0.006 0.311-0.246 0.459c-0.278 0.172-0.344 0.121-0.181-0.143 0.322-0.521 0.021-0.523-0.971-0.005-0.655 0.342-0.629 0.265 0.16-0.48zM24.754 19.273c0.134-0.261 0.373-0.903 0.531-1.427 0.231-0.765 0.294-0.808 0.318-0.219 0.017 0.404-0.222 1.046-0.531 1.427s-0.452 0.479-0.318 0.219zM8.589 17.709c-1.693-0.363-1.705-0.733-0.043-1.312 0.94-0.328 1.047-0.311 0.696 0.113-0.668 0.805 0.632 1.002 5.694 0.864 2.515-0.069 4.707 0.016 4.87 0.187 0.169 0.177-0.049 0.206-0.502 0.066-0.44-0.135-0.996-0.124-1.237 0.024-0.64 0.395-7.7 0.438-9.478 0.057zM17.427 15.666c0-0.232-0.16-0.322-0.357-0.201s-0.357-0.106-0.357-0.505c0-0.399-0.321-1.252-0.712-1.894-1.48-2.426-0.704-4.353 2.389-5.93 1.166-0.595 1.416-0.629 1.416-0.192 0 0.638-1.817 2.007-2.181 1.643-0.141-0.141-0.217-0.097-0.169 0.1s-0.035 0.797-0.186 1.334c-0.202 0.718-0.075 1.315 0.477 2.25 0.883 1.497 0.963 2.753 0.216 3.373-0.399 0.331-0.535 0.337-0.535 0.023zM13.035 13.413c-0.676-0.834-1.337-1.87-1.469-2.302-0.366-1.194 0.571-2.623 2.936-4.481 1.287-1.011 2.428-2.276 2.885-3.199 0.588-1.189 0.755-1.343 0.755-0.699 0 1.246-0.588 2.156-3.080 4.759-1.992 2.081-2.271 2.543-2.267 3.747 0.004 1.062 0.090 1.252 0.38 0.837 0.3-0.428 0.333-0.386 0.167 0.209-0.139 0.501 0.081 1.056 0.673 1.695 0.484 0.523 0.738 0.95 0.565 0.95s-0.869-0.682-1.545-1.516zM13.154 10.483c-0.004-0.391 0.834-1.493 1.902-2.498 2.373-2.233 3.161-3.442 3.469-5.323l0.241-1.47 0.045 1.463c0.051 1.676-1.213 3.714-3.282 5.293-0.679 0.518-1.489 1.458-1.8 2.089-0.415 0.842-0.567 0.96-0.573 0.446z"></path>
<path d="M12.075 28.128c-1.357-0.132-0.256-0.256 3.568-0.403 3.613-0.139 6.036-0.401 6.988-0.758 1.155-0.433 1.457-0.449 1.457-0.081 0 0.266-0.228 0.377-0.534 0.259-0.379-0.145-0.448-0.066-0.239 0.273 0.219 0.354 0.133 0.416-0.33 0.238-0.344-0.132-0.794-0.137-0.998-0.010-0.725 0.448-7.079 0.757-9.911 0.482zM7.446 26.297c-2.541-0.421-2.881-0.808-1.388-1.58 1.065-0.55 1.146-0.555 0.716-0.036-0.911 1.098 0.998 1.469 7.621 1.479 3.489 0.005 5.384 0.112 4.46 0.251-2.263 0.34-9.083 0.272-11.409-0.113zM12.131 23.872c-1.429-0.363-2.015-0.878-1.658-1.457 0.199-0.321 0.337-0.307 0.563 0.058 0.22 0.355 1.247 0.484 3.862 0.484 1.959 0 3.723 0.16 3.92 0.357 0.239 0.238 0.097 0.371-0.427 0.399-0.432 0.023-1.748 0.137-2.926 0.252s-2.678 0.073-3.334-0.093zM10.737 20.62c-1.146-0.355-1.467-0.82-0.833-1.212 0.179-0.111 0.394 0 0.477 0.247 0.112 0.332 1.297 0.432 4.577 0.386 3.085-0.044 4.234 0.045 3.793 0.291-0.906 0.507-6.641 0.713-8.014 0.288zM22.827 19.495c1.31-1.236 1.59-2.314 0.822-3.164-0.742-0.82-0.097-0.935 0.711-0.127 0.701 0.701 0.714 1.56 0.038 2.524-0.288 0.41-0.437 0.831-0.333 0.936s-0.006 0.311-0.246 0.459c-0.278 0.172-0.344 0.121-0.181-0.143 0.322-0.521 0.021-0.523-0.971-0.005-0.655 0.342-0.629 0.265 0.16-0.48zM24.754 19.273c0.134-0.261 0.373-0.903 0.531-1.427 0.231-0.765 0.294-0.808 0.318-0.219 0.017 0.404-0.222 1.046-0.531 1.427s-0.452 0.479-0.318 0.219zM8.589 17.709c-1.693-0.363-1.705-0.733-0.043-1.312 0.94-0.328 1.047-0.311 0.696 0.113-0.668 0.805 0.632 1.002 5.694 0.864 2.515-0.069 4.707 0.016 4.87 0.187 0.169 0.177-0.049 0.206-0.502 0.066-0.44-0.135-0.996-0.124-1.237 0.024-0.64 0.395-7.7 0.438-9.478 0.057z"></path>
</svg>
