<!-- Generated by IcoMoon.io -->
<svg version="1.1" xmlns="http://www.w3.org/2000/svg" width="32" height="32" viewBox="0 0 32 32">
<title>jenkins</title>
<path d="M16.696 0.021c-2.366 0.154-3.575 0.328-5.071 0.726-1.308 0.348-2.695 0.96-3.53 1.561-0.805 0.572-1.551 1.427-1.954 2.232-0.099 0.199-0.268 0.676-0.408 1.153-0.010 0.030-0.139 0.134-0.283 0.229-0.572 0.363-1.119 1.129-1.377 1.924-0.323 1.004-0.333 2.426-0.025 4.002l0.075 0.403-0.388 0.393c-0.8 0.815-1.168 1.73-1.173 2.908-0.005 0.86 0.134 1.447 0.517 2.188 0.587 1.138 1.954 2.108 3.147 2.232l0.288 0.030 0.119 0.472c0.204 0.8 0.467 1.541 0.895 2.501 0.119 0.264 0.219 0.512 0.219 0.547s-0.239 0.194-0.532 0.358c-2.366 1.303-5.782 3.341-6.443 3.843-0.323 0.244-0.378 0.343-0.428 0.781l-0.040 0.293 0.626 1.546c0.343 0.845 0.646 1.571 0.666 1.601 0.035 0.050 2.908 0.065 14.104 0.065 8.288 0 14.075-0.020 14.089-0.045 0.055-0.085 0.398-1.969 0.676-3.709 0.060-0.358 0.119-0.95 0.134-1.327 0.030-0.671 0.030-0.681-0.104-0.905-0.254-0.433-1.352-1.208-3.346-2.361-0.199-0.114-0.363-0.219-0.363-0.229s0.099-0.174 0.219-0.358c1.079-1.68 1.969-4.231 2.342-6.727 0.229-1.541 0.303-3.808 0.179-5.369-0.348-4.295-1.864-7.333-4.574-9.153-1.342-0.905-2.879-1.452-4.803-1.715-0.522-0.070-2.829-0.129-3.455-0.089zM19.982 1.513c1.874 0.229 3.435 0.845 4.723 1.864 0.835 0.661 1.646 1.67 2.178 2.715 0.174 0.343 0.154 0.368-0.204 0.259-0.174-0.055-0.572-0.114-0.885-0.139-0.552-0.040-1.417-0.010-1.521 0.060-0.040 0.020-0.015 0.239 0.075 0.691l0.134 0.656 0.621-0.015c0.915-0.020 1.536 0.114 2.018 0.447 0.423 0.293 0.706 0.845 0.835 1.646 0.085 0.537 0.089 0.651 0.030 0.616-0.025-0.015-0.229-0.358-0.452-0.761-0.224-0.408-0.433-0.761-0.462-0.795-0.045-0.045-0.189 0.015-0.597 0.254-0.293 0.169-0.557 0.333-0.587 0.363-0.035 0.035 0.089 0.288 0.393 0.815 0.244 0.423 0.492 0.86 0.552 0.979l0.104 0.209h-0.323c-0.184 0-0.552-0.045-0.83-0.104-0.273-0.055-0.517-0.085-0.537-0.060-0.065 0.065-0.388 1.228-0.353 1.268 0.099 0.109 1.472 0.338 2.033 0.338 0.348 0 0.93-0.119 1.084-0.224 0.065-0.040 0.129-0.075 0.144-0.075 0.055 0 0.020 1.496-0.050 2.312-0.209 2.366-0.721 4.355-1.626 6.284-0.467 1.004-0.805 1.501-1.482 2.192-0.517 0.527-0.706 0.681-1.129 0.93-0.865 0.507-1.994 0.81-3.023 0.81-0.557 0-1.725-0.129-2.287-0.254-0.95-0.209-1.844-0.517-2.734-0.94-1.835-0.865-2.754-1.834-3.207-3.381-0.060-0.204-0.119-0.383-0.124-0.388-0.025-0.030-1.134 0.139-1.253 0.189-0.104 0.045-0.104 0.055-0.040 0.333 0.174 0.751 0.602 1.67 1.069 2.297 0.487 0.651 1.288 1.337 2.128 1.825 0.085 0.050 0.159 0.104 0.159 0.119-0.005 0.015-0.119 0.080-0.264 0.144-0.283 0.134-0.661 0.457-0.706 0.607-0.040 0.119-0.283 0.124-0.9 0.020-1.059-0.189-2.014-0.636-2.744-1.293-0.661-0.592-1.327-1.944-1.815-3.679-0.263-0.92-0.268-0.79 0.055-1.138 0.383-0.403 0.756-0.94 0.756-1.074 0-0.030-0.273-0.184-0.607-0.353-0.557-0.278-0.612-0.298-0.661-0.219-0.025 0.050-0.139 0.224-0.249 0.388-0.234 0.353-0.348 0.403-0.825 0.363-0.646-0.055-1.283-0.373-1.81-0.9-0.353-0.353-0.577-0.751-0.726-1.293-0.089-0.343-0.104-0.482-0.080-0.994 0.025-0.646 0.104-0.935 0.388-1.472 0.089-0.164 0.263-0.393 0.393-0.507 0.244-0.219 0.925-0.582 1.268-0.676 0.283-0.075 0.701-0.070 0.87 0.020 0.452 0.234 0.746 1.148 0.746 2.317 0 0.363 0.020 0.592 0.050 0.592s0.656-0.303 1.397-0.676l1.352-0.671-0.030-0.482c-0.030-0.487-0.094-0.82-0.313-1.516-0.254-0.82-0.119-1.531 0.621-3.336 0.323-0.786 0.428-1.223 0.428-1.795-0.005-0.507-0.040-0.676-0.264-1.183l-0.124-0.283 0.239-0.363c0.994-1.496 2.272-2.58 3.853-3.251 0.95-0.403 1.795-0.597 3.207-0.731 0.308-0.030 1.283 0.020 1.919 0.099zM25.391 25.958c0.323 0.214 0.363 0.363 0.393 1.352 0.025 0.89-0.040 1.422-0.219 1.795-0.214 0.447-1.561 0.552-2.819 0.219-0.303-0.085-0.537-0.099-1.566-0.099-1.173 0-1.213 0.005-1.442 0.119-0.925 0.467-2.665 1.029-3.689 1.198-0.676 0.109-0.91 0.099-1.064-0.040-0.254-0.229-0.293-0.507-0.313-2.297-0.015-1.283-0.005-1.666 0.045-1.765 0.104-0.204 0.363-0.298 0.79-0.298 0.646 0 1.158 0.169 2.903 0.969l1.586 0.721h1.114l0.447-0.338c0.607-0.452 1.66-1.114 2.292-1.442l0.522-0.268 0.403 0.020c0.343 0.010 0.438 0.035 0.616 0.154zM12.361 26.933c0.239 0.055 0.532 0.119 0.656 0.139l0.224 0.045 0.015 0.383c0.010 0.308 0 0.383-0.060 0.383-0.080 0-1.198-0.825-1.347-0.994-0.089-0.104-0.089-0.114-0.010-0.085 0.045 0.020 0.283 0.075 0.522 0.129z"></path>
<path d="M15.553 6.166c-0.447 0.065-1.009 0.259-1.397 0.487-0.626 0.368-1.233 1.134-1.521 1.909-0.119 0.323-0.114 0.378 0.045 0.378 0.055 0 0.283 0.045 0.507 0.094 0.711 0.169 0.666 0.184 0.885-0.254 0.338-0.666 0.86-1.089 1.521-1.228 0.348-0.075 0.905-0.065 1.288 0.015 0.313 0.070 0.413 0.040 0.413-0.109 0-0.040 0.060-0.308 0.129-0.597 0.149-0.636 0.164-0.616-0.467-0.701-0.502-0.065-0.94-0.065-1.402 0.005z"></path>
<path d="M18.038 9.050c-0.288 0.104-0.542 0.214-0.562 0.234-0.055 0.055 0.522 1.586 0.94 2.481 0.094 0.204 0.169 0.388 0.169 0.413 0 0.109-0.86-0.015-1.332-0.194l-0.259-0.099-0.075 0.139c-0.149 0.288-0.472 1.049-0.472 1.114 0 0.094 1.039 0.418 1.576 0.487 0.771 0.099 1.442-0.055 1.8-0.413 0.224-0.219 0.303-0.428 0.303-0.781 0-0.244-0.035-0.363-0.219-0.741-0.209-0.428-0.86-2.018-1.054-2.59-0.114-0.313-0.114-0.313-0.815-0.050z"></path>
<path d="M22.219 9.726l-0.666 0.015 0.035 0.308c0.070 0.602 0.388 1.651 0.681 2.237 0.457 0.9 0.781 1.308 2.048 2.57 1.044 1.044 1.138 1.183 0.925 1.347-0.249 0.184-1.138 0.597-1.71 0.785-0.666 0.219-1.173 0.333-1.715 0.383l-0.363 0.035 0.030-0.224 0.030-0.229-0.621-0.254c-0.343-0.139-0.641-0.244-0.666-0.229-0.149 0.094-0.214 0.94-0.104 1.332 0.085 0.298 0.388 0.646 0.721 0.82 0.239 0.129 0.288 0.134 0.925 0.129 0.751-0.005 1.253-0.104 2.262-0.447 1.168-0.393 1.854-0.761 2.297-1.228 0.313-0.333 0.413-0.522 0.447-0.86 0.070-0.681-0.164-1.054-1.496-2.381-1.079-1.069-1.402-1.477-1.765-2.202-0.204-0.408-0.423-1.084-0.502-1.536-0.030-0.199-0.075-0.368-0.089-0.373-0.020-0.010-0.333-0.010-0.701 0z"></path>
<path d="M5.57 14.339c-0.547 0.611-0.86 1.616-0.726 2.307l0.035 0.159 0.254-0.030c0.139-0.020 0.442-0.075 0.676-0.119l0.423-0.089-0.015-0.229c-0.025-0.303 0.099-0.716 0.288-0.974 0.080-0.114 0.149-0.224 0.149-0.239 0-0.025-0.631-0.84-0.795-1.029-0.020-0.025-0.149 0.085-0.288 0.244z"></path>
<path d="M18.103 18.754c-0.229 0.283-0.413 0.542-0.413 0.572 0 0.070 0.537 0.442 0.994 0.691 0.815 0.442 1.815 0.746 2.819 0.855 0.537 0.060 1.472 0.055 1.531-0.010 0.035-0.030-0.030-0.552-0.129-1.084l-0.055-0.273-0.626-0.005c-0.661-0.005-1.293-0.099-1.849-0.278-0.457-0.144-1.268-0.547-1.581-0.785-0.144-0.109-0.264-0.199-0.273-0.199-0.005 0-0.194 0.234-0.418 0.517z"></path>
<path d="M25.67 18.565c-0.318 0.278-1.124 0.681-1.641 0.815-0.219 0.060-0.408 0.114-0.418 0.129-0.035 0.035 0.094 1.283 0.139 1.327 0.020 0.020 0.214 0.005 0.428-0.040 0.666-0.139 1.402-0.442 1.914-0.785 0.323-0.219 0.845-0.681 0.845-0.746 0-0.050-0.81-0.795-0.964-0.89-0.030-0.015-0.164 0.070-0.303 0.189z"></path>
<path d="M17.864 20.723c-0.055 0.025-0.328 0.104-0.607 0.184-0.368 0.094-0.512 0.159-0.512 0.214 0 0.214 0.318 0.731 0.666 1.079 0.418 0.418 0.89 0.666 1.621 0.87 0.393 0.104 0.512 0.114 1.666 0.109 1.069 0 1.322-0.015 1.81-0.109 0.313-0.060 0.577-0.119 0.592-0.134 0.025-0.025-0.234-1.153-0.293-1.273-0.040-0.075-0.075-0.075-0.353-0.020-0.626 0.134-1.357 0.189-2.103 0.159-0.616-0.020-0.815-0.045-1.153-0.154-0.547-0.179-0.85-0.388-1.024-0.716-0.149-0.273-0.154-0.278-0.308-0.209z"></path>
</svg>
