<!-- Generated by IcoMoon.io -->
<svg version="1.1" xmlns="http://www.w3.org/2000/svg" width="31" height="32" viewBox="0 0 31 32">
<title>jira</title>
<path d="M15.39 20.125c2.454 3.114 2.386 6.169 0.153 9.171l-14.039-13.923 13.355-13.467 0.028 0.028c-2.277 3.24-2.321 6.418 0.192 9.504l-4.181 4.216 4.432 4.396 0.059 0.074zM28.902 15.833l-0.171 0.173 0.002-0.34 0.169 0.168z"></path>
<path d="M15.284 11.352c-2.455-3.114-2.388-6.168-0.156-9.171l14.043 13.918-13.351 13.471-0.028-0.028c2.276-3.241 2.319-6.419-0.195-9.504l4.18-4.218-4.434-4.394-0.059-0.074zM1.774 15.649l0.171-0.173-0.002 0.34-0.169-0.168z"></path>
</svg>
