<!-- Generated by IcoMoon.io -->
<svg version="1.1" xmlns="http://www.w3.org/2000/svg" width="31" height="32" viewBox="0 0 31 32">
<title>jira</title>
<path d="M8.1 24.877c-3.804-3.782-7.196-7.263-7.538-7.736-0.443-0.611-0.563-1.1-0.416-1.692 0.197-0.798 12.467-13.482 14.388-14.874l0.841-0.609 1.313 1.171c3.623 3.23 13.485 13.241 13.804 14.012 0.286 0.69 0.281 1.040-0.021 1.604-0.652 1.219-13.962 14.593-14.732 14.803-0.629 0.172-1.623-0.698-7.639-6.679zM17.541 17.997l1.985-2.003-4.142-4.142-4.142 4.142 1.985 2.003c1.092 1.102 2.062 2.003 2.157 2.003s1.065-0.901 2.157-2.003z"></path>
<path d="M7.613 24.075c-4.187-4.19-7.613-7.808-7.613-8.040 0-0.457 13.539-14.589 14.716-15.36 0.703-0.461 0.857-0.328 8.385 7.195 4.218 4.215 7.665 7.873 7.661 8.128-0.008 0.498-14.774 15.695-15.25 15.695-0.157 0-3.711-3.428-7.898-7.618zM17.695 18.151l2.14-2.157-4.451-4.451-4.451 4.451 2.14 2.157c1.177 1.186 2.217 2.157 2.31 2.157s1.133-0.971 2.31-2.157z"></path>
<path d="M7.613 24.075c-4.187-4.19-7.613-7.825-7.613-8.079s3.462-3.921 7.692-8.149l7.692-7.688 7.692 7.688c4.231 4.228 7.692 7.89 7.692 8.137 0 0.404-14.983 15.709-15.379 15.709-0.090 0-3.59-3.428-7.777-7.618zM17.615 18.426c1.142-1.031 2.077-2.098 2.077-2.372 0-0.605-3.659-4.361-4.248-4.361-0.594 0-4.367 3.69-4.367 4.271 0 0.533 3.642 4.347 4.145 4.34 0.174-0.002 1.251-0.847 2.393-1.878z"></path>
<path d="M7.695 23.958c-4.145-4.199-7.571-7.743-7.613-7.874s3.351-3.736 7.541-8.011l7.618-7.773 7.685 7.69c4.227 4.23 7.719 7.797 7.759 7.927 0.075 0.242-15.106 15.814-15.33 15.725-0.068-0.027-3.516-3.485-7.66-7.685zM18.108 18.059c1.638-1.664 1.904-2.078 1.644-2.563-0.382-0.713-3.916-4.112-4.276-4.112-0.144 0-1.276 1.021-2.516 2.27-2.617 2.635-2.624 2.484 0.233 5.209 2.184 2.083 2.050 2.105 4.914-0.804z"></path>
<path d="M7.748 23.649c-4.174-4.122-7.621-7.502-7.659-7.511s3.304-3.452 7.428-7.651c4.124-4.199 7.647-7.585 7.829-7.523 0.656 0.223 15.115 14.863 15.115 15.303 0 0.248-0.078 0.373-0.174 0.277s-2.943 2.704-6.328 6.221c-3.385 3.517-6.71 6.841-7.388 7.386l-1.233 0.991zM18.262 18.213c2.465-2.5 2.481-2.339-0.533-5.233-1.439-1.381-2.152-1.87-2.469-1.692-0.838 0.469-4.798 4.47-4.798 4.847 0 0.207 1.032 1.377 2.294 2.6 2.674 2.593 2.411 2.617 5.507-0.522z"></path>
<path d="M16.799 29.054c0.153-0.495 0.276-1.871 0.274-3.056-0.003-1.781-0.148-2.401-0.832-3.569l-0.828-1.413 0.986-0.914c0.542-0.503 1.458-1.295 2.034-1.76l1.049-0.846 4.502 4.472-0.54 0.853c-0.816 1.289-4.861 5.666-5.957 6.447l-0.965 0.687zM8.965 11.999c-1.449-1.618-1.881-2.306-1.737-2.761 0.257-0.81 6.519-7.285 6.787-7.018 0.115 0.115 0.055 0.653-0.134 1.194-0.633 1.817-0.426 4.058 0.548 5.909l0.891 1.694-0.968 0.901c-1.407 1.309-2.691 2.235-3.101 2.235-0.197 0-1.226-0.97-2.287-2.155z"></path>
<path d="M17.65 26.549c0.031-2.106-0.080-2.656-0.827-4.096-0.81-1.562-0.83-1.687-0.323-2.058 0.297-0.217 0.621-0.395 0.72-0.395s1.137 0.964 2.307 2.143c2.476 2.495 2.476 2.504-0.294 5.239l-1.62 1.599zM11.242 9.857c-2.474-2.493-2.474-2.506 0.277-5.223l1.603-1.583-0.020 2.403c-0.017 1.99 0.117 2.679 0.775 4.009 0.739 1.493 0.759 1.639 0.281 2.071-0.283 0.256-0.576 0.465-0.652 0.465s-1.095-0.964-2.264-2.143z"></path>
</svg>
