<!-- Generated by IcoMoon.io -->
<svg version="1.1" xmlns="http://www.w3.org/2000/svg" width="32" height="32" viewBox="0 0 32 32">
<title>kibana</title>
<path d="M18.2 12.4c0.398-0.44 0.814-0.8 0.924-0.8s-0.126 0.36-0.524 0.8c-0.398 0.44-0.814 0.8-0.924 0.8s0.126-0.36 0.524-0.8zM4.088 6.1l-0.088-6.1h12.2c11.376 0 13.162 0.158 11.738 1.038-0.286 0.177-0.353 0.11-0.176-0.176 0.213-0.345-2.7-0.462-11.527-0.462h-11.813l-0.245 11.8-0.088-6.1zM20.2 10c0.398-0.44 0.814-0.8 0.924-0.8s-0.126 0.36-0.524 0.8c-0.398 0.44-0.814 0.8-0.924 0.8s0.126-0.36 0.524-0.8zM22.2 7.6c0.398-0.44 0.814-0.8 0.924-0.8s-0.126 0.36-0.524 0.8c-0.398 0.44-0.814 0.8-0.924 0.8s0.126-0.36 0.524-0.8zM24.2 5.2c0.398-0.44 0.814-0.8 0.924-0.8s-0.126 0.36-0.524 0.8c-0.398 0.44-0.814 0.8-0.924 0.8s0.126-0.36 0.524-0.8zM26.2 2.8c0.398-0.44 0.814-0.8 0.924-0.8s-0.126 0.36-0.524 0.8c-0.398 0.44-0.814 0.8-0.924 0.8s0.126-0.36 0.524-0.8z"></path>
<path d="M4.064 30.5c0.064-1.493 0.065-1.494 0.226-0.189l0.162 1.311 12.174-0.111c6.696-0.061 12.174 0.024 12.174 0.189s-5.58 0.3-12.4 0.3h-12.4l0.064-1.5zM28.032 30.167c0.019-0.466 0.114-0.561 0.242-0.242 0.116 0.289 0.101 0.634-0.032 0.767s-0.227-0.103-0.21-0.525zM21.57 18.9l-0.97-1.1 1.1 0.97c1.028 0.906 1.283 1.23 0.97 1.23-0.072 0-0.567-0.495-1.1-1.1z"></path>
<path d="M13.444 13.722c-1.296-0.543-3.861-1.192-5.7-1.443l-3.344-0.456v-11.423h11.82c9.777 0 11.765 0.093 11.5 0.536-0.645 1.082-11.448 13.862-11.68 13.818-0.132-0.025-1.3-0.49-2.596-1.033z"></path>
<path d="M18.349 31.3l9.349-0.115-0.249-1.293c-0.468-2.434-3.056-7.021-5.452-9.665-2.83-3.123-3.164-3.946-0.573-1.411 3.093 3.025 5.83 7.772 6.737 11.683l0.255 1.1-19.415-0.185 9.349-0.115z"></path>
<path d="M10.565 29.4c0.931-1.1 3.363-4.025 5.404-6.5s3.855-4.5 4.031-4.5c0.176 0 1.232 0.998 2.347 2.218 2.073 2.268 4.657 6.963 5.1 9.268l0.247 1.286-18.822 0.229 1.693-2z"></path>
<path d="M4.209 29.1c-0.14-1.375-0.195-5.83-0.122-9.9l0.132-7.4 0.181 17.475 5.456-6.537c3.001-3.596 5.641-6.831 5.866-7.189 0.363-0.576 0.634-0.491 2.344 0.738 1.064 0.764 1.934 1.471 1.934 1.571s-2.532 3.233-5.628 6.962l-5.628 6.781h-4.281l-0.254-2.5z"></path>
<path d="M4.4 20.64v-8.64l1.3 0.007c3.068 0.016 10.312 2.177 10.293 3.071-0.004 0.177-2.614 3.445-5.8 7.262l-5.793 6.94v-8.64z"></path>
</svg>
