<!-- Generated by IcoMoon.io -->
<svg version="1.1" xmlns="http://www.w3.org/2000/svg" width="32" height="32" viewBox="0 0 32 32">
<title>mariadb</title>
<path d="M1.141 25.214c-0.504-0.282-0.505-0.359-0.015-1.107 0.502-0.765 0.491-0.841-0.221-1.599-0.741-0.788-0.742-0.8-0.11-1.261 0.483-0.353 1.146-0.416 2.744-0.258l2.107 0.208 1.096-1.275c1.63-1.896 3.183-2.809 6.63-3.896 4.93-1.556 5.962-2.264 8.379-5.754 1.148-1.657 2.454-3.284 2.903-3.615s1.673-0.738 2.72-0.903c1.047-0.166 2.279-0.388 2.738-0.493 1.883-0.433 1.363 1.902-0.864 3.877-1.407 1.249-1.493 1.432-2.541 5.44-1.215 4.645-1.338 6.079-0.611 7.117 0.473 0.675 0.454 0.729-0.362 1.039-0.918 0.349-1.786 0.196-2.915-0.516-0.648-0.408-0.773-0.346-1.715 0.843-0.559 0.706-1.417 1.49-1.908 1.744-0.994 0.514-3.519 0.997-3.519 0.674 0-0.114 0.381-0.784 0.847-1.487s0.765-1.362 0.664-1.462c-0.1-0.1-1.92-0.263-4.044-0.36l-3.862-0.178-1.842 1.125c-3.316 2.024-5.27 2.675-6.299 2.099zM6.632 22.867l3.387-1.776 7.534 0.441 0.496-1.187c0.273-0.653 0.638-1.099 0.812-0.992 0.455 0.281 0.062 2.025-0.822 3.651-0.419 0.77-0.761 1.447-0.761 1.503s0.428-0.046 0.952-0.229c1.122-0.391 2.785-2.191 3.413-3.692 0.458-1.096 1.076-1.431 1.076-0.583 0 1.639 1.946-1.126 2.816-4 0.346-1.144 0.798-2.897 1.004-3.896 0.334-1.616 0.568-1.981 2.117-3.305 1.233-1.054 1.742-1.718 1.742-2.275 0-0.678-0.085-0.741-0.619-0.455-0.34 0.182-1.096 0.334-1.68 0.338-2.017 0.013-3.59 1.033-4.939 3.2-2.712 4.357-3.794 5.134-10.031 7.198-3.49 1.155-3.757 1.307-5.491 3.129l-1.822 1.915-2.269-0.224c-2.35-0.232-2.9 0.056-1.629 0.849 0.778 0.486 0.801 0.817 0.11 1.581-1.088 1.202 1.139 0.626 4.603-1.191zM25.814 8.113c-0.329-0.329 0.435-1.069 1.103-1.069 0.729 0 0.8 0.815 0.095 1.086-0.649 0.249-0.936 0.245-1.198-0.016z"></path>
<path d="M15.678 25.422c0-0.1 0.36-0.653 0.8-1.23s0.8-1.205 0.8-1.396c0-0.425-2.952-0.869-5.76-0.867-1.712 0.001-2.363 0.166-3.68 0.93-3.017 1.75-4.033 2.187-5.455 2.347-1.55 0.175-1.829-0.207-0.99-1.355 0.384-0.525 0.336-0.681-0.4-1.319-1.3-1.127-0.559-1.586 2.374-1.474l2.381 0.091 1.845-1.885c1.74-1.778 2.049-1.951 5.448-3.048 5.831-1.882 6.365-2.263 9.277-6.613 1.822-2.722 2.851-3.45 5.455-3.859 3.308-0.52 3.097-0.556 3.204 0.549 0.084 0.86-0.162 1.262-1.66 2.72l-1.758 1.711-1.008 4.143c-0.929 3.82-0.995 4.625-0.582 7.057 0.091 0.535-0.093 0.657-1.122 0.741-0.85 0.070-1.43-0.079-1.874-0.48-0.628-0.568-0.671-0.548-1.969 0.915-0.921 1.039-1.794 1.65-2.857 2-1.584 0.521-2.469 0.637-2.469 0.323zM3.558 24.471c0.77-0.271 2.401-1.097 3.624-1.835 2.192-1.323 2.261-1.341 4.8-1.233 5.872 0.249 5.398 0.317 5.988-0.864 0.818-1.638 1.008-1.631 0.829 0.031-0.095 0.885-0.518 2.061-1.007 2.8-0.897 1.356-0.713 1.559 0.734 0.811 1.152-0.596 2.66-2.315 3.224-3.677 0.426-1.029 0.451-1.041 0.711-0.338 0.265 0.716 0.28 0.718 0.937 0.123 1.070-0.967 1.866-2.827 2.84-6.633 0.682-2.664 1.097-3.704 1.655-4.142 2.092-1.644 2.505-2.13 2.505-2.954 0-0.699-0.106-0.818-0.56-0.625-0.308 0.131-1.324 0.351-2.258 0.489-2.605 0.385-3.090 0.796-5.493 4.658-1.661 2.669-2.872 3.491-7.534 5.116-5.157 1.797-5.568 2.024-7.199 3.973l-1.365 1.631-2.515-0.219c-1.383-0.121-2.515-0.114-2.515 0.016s0.366 0.523 0.814 0.876c0.766 0.602 0.785 0.686 0.32 1.395-0.841 1.283-0.667 1.355 1.466 0.604zM25.978 7.764c0.059-0.308 0.429-0.606 0.823-0.662 0.788-0.112 0.929 0.242 0.333 0.838-0.573 0.573-1.279 0.466-1.156-0.176z"></path>
<path d="M16.091 24.924c0.299-0.418 0.757-1.141 1.017-1.608l0.473-0.848-2.756-0.391c-3.74-0.531-5.471-0.277-7.768 1.141-3.979 2.456-7.263 2.831-5.606 0.641 0.432-0.571 0.399-0.685-0.382-1.307-1.35-1.076-0.748-1.459 2.197-1.396l2.576 0.055 1.478-1.623c1.666-1.83 2.28-2.173 6.118-3.419 4.842-1.572 6.19-2.469 8.141-5.416 2.817-4.256 3.429-4.631 8.819-5.399 0.308-0.044 0.516 0.247 0.581 0.813 0.081 0.702-0.262 1.263-1.688 2.757-1.782 1.868-1.794 1.895-2.898 6.277-1.067 4.238-1.148 5.524-0.404 6.47 0.8 1.018-1.547 1.49-2.854 0.574-0.87-0.609-1.422-0.393-2.153 0.845-0.594 1.005-2.299 1.936-4.33 2.362l-1.105 0.232zM6.309 23.159l3.441-1.805 7.727 0.413 0.603-1.202c0.556-1.108 0.613-1.142 0.727-0.444 0.069 0.418-0.294 1.602-0.808 2.64-0.796 1.605-0.854 1.882-0.395 1.882 1.050 0 3.097-1.841 3.95-3.554 0.568-1.14 0.843-1.463 0.843-0.989 0 0.896 0.356 0.891 1.188-0.017 1.079-1.178 1.982-3.265 2.675-6.182 0.847-3.564 1.044-3.944 2.68-5.157 0.818-0.607 1.438-1.354 1.532-1.848 0.196-1.027-0.099-1.23-1.19-0.816-0.466 0.177-1.321 0.322-1.9 0.322-1.626 0-3.053 1.201-5.146 4.33-2.26 3.379-3.097 3.928-8.758 5.746-3.598 1.156-3.788 1.264-5.717 3.236l-1.995 2.040-2.405-0.203c-2.579-0.218-3.019 0.054-1.596 0.987 0.754 0.494 0.776 0.577 0.32 1.228-1.243 1.775 0.025 1.592 4.222-0.609zM26.047 7.954c-0.116-0.188-0.013-0.468 0.23-0.621 0.634-0.402 0.921-0.353 0.921 0.157 0 0.566-0.871 0.918-1.151 0.464z"></path>
<path d="M15.864 25.238c0.146-0.239 0.605-0.935 1.019-1.547l0.753-1.113-0.899-0.246c-0.495-0.135-2.267-0.332-3.939-0.438-2.87-0.181-3.12-0.146-4.48 0.64-2.698 1.56-4.841 2.496-6.102 2.665-1.399 0.188-1.568-0.106-0.765-1.331 0.466-0.712 0.444-0.789-0.4-1.423-1.302-0.977-0.513-1.392 2.307-1.215l2.24 0.141 1.44-1.528c1.923-2.041 2.411-2.314 6.881-3.852 2.111-0.727 4.325-1.62 4.92-1.986 0.61-0.375 1.817-1.792 2.772-3.254 2.773-4.243 3.299-4.566 8.787-5.396 0.312-0.047 0.516 0.244 0.584 0.833 0.085 0.74-0.221 1.225-1.679 2.659-0.98 0.965-1.874 2.142-1.986 2.615s-0.561 2.229-0.996 3.901c-1.133 4.348-1.165 4.648-0.601 5.779 0.28 0.56 0.43 1.145 0.334 1.3-0.278 0.45-2.197 0.324-2.875-0.189-0.958-0.725-1.344-0.593-2.243 0.766-0.828 1.251-2.042 1.941-4.258 2.419-0.865 0.187-1.027 0.147-0.814-0.201zM6.32 23.165l3.438-1.799 7.819 0.428 0.546-1.215c0.497-1.108 0.557-1.148 0.678-0.457 0.075 0.429-0.273 1.576-0.8 2.64-0.796 1.605-0.854 1.882-0.395 1.882 1.050 0 3.097-1.841 3.95-3.554 0.568-1.14 0.843-1.463 0.843-0.989 0 0.97 0.434 0.88 1.423-0.296 1.123-1.335 1.694-2.758 2.485-6.201 0.629-2.737 0.746-2.96 2.351-4.482 0.929-0.881 1.794-2.019 1.922-2.53 0.217-0.866 0.181-0.913-0.534-0.704-0.422 0.123-1.615 0.353-2.651 0.511-2.272 0.347-3.113 1.062-5.212 4.43-1.846 2.961-3.067 3.766-8.389 5.526-3.899 1.289-4.104 1.403-6.038 3.347l-2.002 2.012-2.398-0.181c-2.585-0.196-3.049 0.11-1.604 1.057 0.732 0.48 0.757 0.574 0.32 1.199-1.228 1.753 0.067 1.563 4.247-0.624zM26.238 7.524c0.219-0.264 0.525-0.48 0.679-0.48s0.281 0.216 0.281 0.48c0 0.276-0.289 0.48-0.679 0.48-0.567 0-0.614-0.079-0.281-0.48z"></path>
<path d="M15.998 25.38c0-0.147 0.373-0.816 0.828-1.486s0.776-1.272 0.712-1.336c-0.253-0.253-4.361-0.789-6.064-0.791-1.409-0.002-2.178 0.207-3.52 0.954-2.964 1.652-4.497 2.312-5.767 2.482-1.369 0.184-1.534-0.117-0.737-1.334 0.466-0.712 0.444-0.789-0.4-1.423-0.751-0.564-0.817-0.721-0.413-0.991 0.264-0.177 0.696-0.307 0.96-0.289 0.34 0.023 0.317 0.075-0.080 0.179-0.78 0.204-0.699 0.634 0.236 1.246l0.796 0.522-0.667 0.846c-0.602 0.764-0.614 0.856-0.121 0.956 0.771 0.156 3.053-0.771 5.544-2.252l2.132-1.267 8.175 0.412 0.477-1.141c0.262-0.628 0.563-1.141 0.668-1.141 0.398 0-0.279 2.455-1.037 3.76-0.737 1.27-0.75 1.36-0.183 1.36 1.065 0 2.749-1.409 3.821-3.197 0.572-0.954 1.040-1.489 1.040-1.189 0 0.775 0.393 0.679 1.363-0.334 1.084-1.132 1.701-2.635 2.642-6.442 0.724-2.929 0.838-3.147 2.367-4.518 0.919-0.824 1.699-1.836 1.824-2.366 0.209-0.888 0.179-0.918-0.709-0.72-0.509 0.114-1.718 0.347-2.686 0.518-1.486 0.263-1.96 0.53-3.040 1.715-0.704 0.772-1.856 2.309-2.56 3.414-1.273 1.998-3.178 3.435-5.28 3.982-0.44 0.115 0.098-0.238 1.196-0.784 2.038-1.014 2.506-1.497 4.935-5.1 0.764-1.133 1.766-2.335 2.227-2.671 0.688-0.501 3.283-1.225 5.722-1.596 0.312-0.047 0.516 0.244 0.584 0.832 0.085 0.742-0.215 1.214-1.661 2.614-1.19 1.152-1.867 2.108-2.080 2.935-0.174 0.674-0.686 2.643-1.139 4.374-0.961 3.675-0.977 3.911-0.332 5.147 0.39 0.749 0.406 0.987 0.078 1.195-0.65 0.412-1.992 0.312-2.668-0.2-0.959-0.725-1.344-0.593-2.25 0.776-0.572 0.864-1.259 1.417-2.165 1.742-2.073 0.744-2.767 0.896-2.767 0.607zM5.278 21.315c0.528-0.233 1.425-1.007 1.994-1.721 1.040-1.305 3.542-2.754 5.366-3.107 0.528-0.102 0.052 0.164-1.057 0.591-2.074 0.799-2.925 1.378-4.053 2.762-1.23 1.507-1.772 1.923-2.49 1.911-0.632-0.011-0.603-0.064 0.24-0.436zM2.638 21.223c0.308-0.081 0.812-0.081 1.12 0s0.056 0.146-0.56 0.146c-0.616 0-0.868-0.066-0.56-0.146zM25.918 7.855c0-0.082 0.288-0.303 0.64-0.491 0.511-0.273 0.64-0.243 0.64 0.149 0 0.278-0.278 0.491-0.64 0.491-0.352 0-0.64-0.067-0.64-0.149z"></path>
<path d="M15.998 25.411c0-0.078 0.381-0.717 0.847-1.421s0.751-1.375 0.634-1.492c-0.117-0.117-0.822-0.312-1.567-0.433l-1.354-0.221 1.536-0.040c1.439-0.038 1.566-0.111 2.004-1.16 0.257-0.616 0.549-1.12 0.649-1.12 0.347 0-0.25 2.091-1.037 3.633-0.436 0.854-0.726 1.62-0.644 1.702 0.249 0.249 2.565-1.062 3.294-1.864 0.376-0.413 0.981-1.327 1.346-2.031 0.404-0.78 0.668-1.052 0.677-0.697 0.025 1.033 1.064 0.446 2.058-1.163 0.522-0.844 1.273-2.715 1.669-4.158s0.73-2.387 0.743-2.099c0.013 0.288-0.336 1.767-0.776 3.285-0.929 3.206-0.978 4.038-0.316 5.32 0.47 0.909 0.46 0.943-0.34 1.144-0.514 0.129-1.314-0.014-2.123-0.379l-1.298-0.585-1.162 1.317c-0.639 0.724-1.45 1.458-1.802 1.631-0.834 0.41-3.040 1.013-3.040 0.831zM1.17 25.069c-0.118-0.118 0.013-0.562 0.292-0.987 0.466-0.712 0.461-0.827-0.067-1.466l-0.573-0.693 0.741 0.681c0.708 0.652 0.718 0.717 0.209 1.493-0.501 0.764-0.498 0.82 0.047 0.961 0.443 0.115 0.46 0.159 0.072 0.187-0.279 0.020-0.603-0.059-0.721-0.177zM4.825 24.219c0.544-0.426 2.533-1.516 2.533-1.388 0 0.207-2.076 1.492-2.411 1.492-0.141 0-0.196-0.047-0.122-0.104zM10.471 21.533c0.568-0.071 1.576-0.072 2.24-0.003s0.199 0.127-1.033 0.129c-1.232 0.001-1.775-0.055-1.207-0.126zM6.398 20.644c0.413-0.44 0.824-0.8 0.912-0.8s-0.178 0.36-0.592 0.8c-0.413 0.44-0.824 0.8-0.912 0.8s0.178-0.36 0.592-0.8zM18.238 14.423c1.411-0.746 1.983-1.383 3.987-4.434 1.785-2.718 3.275-3.924 4.78-3.868l0.993 0.037-1.12 0.224c-1.888 0.378-2.54 0.93-4.304 3.646-2.047 3.151-4.035 5.066-5.195 5.003-0.144-0.008 0.243-0.281 0.859-0.607zM26.903 11.657c0.015-0.373 0.091-0.449 0.193-0.193 0.092 0.231 0.081 0.507-0.025 0.613s-0.182-0.083-0.168-0.42zM27.198 10.673c0-0.175 0.396-0.667 0.88-1.093l0.88-0.776-0.8 0.96c-0.44 0.528-0.836 1.020-0.88 1.093s-0.080-0.010-0.080-0.184zM29.786 8.126c0.425-0.549 0.837-0.94 0.916-0.87s-0.269 0.519-0.772 0.998l-0.916 0.87zM26.078 7.684c0.109-0.176 0.405-0.32 0.659-0.32s0.461 0.144 0.461 0.32c0 0.176-0.297 0.32-0.659 0.32s-0.57-0.144-0.461-0.32zM30.755 6.324c-0.020-0.308-0.282-0.56-0.581-0.56-0.423 0-0.459-0.085-0.16-0.384 0.512-0.512 1.139 0.101 0.931 0.91-0.136 0.528-0.157 0.532-0.19 0.034zM28.738 5.865c0.231-0.092 0.507-0.081 0.613 0.025s-0.083 0.182-0.42 0.168c-0.373-0.015-0.449-0.091-0.193-0.193z"></path>
<path d="M15.998 25.293c0-0.138 0.199-0.416 0.443-0.618 0.34-0.282 0.483-0.261 0.618 0.089 0.106 0.276-0.069 0.521-0.443 0.618-0.34 0.089-0.618 0.049-0.618-0.089zM19.255 24.075c0.961-0.634 1.841-1.685 2.604-3.111 0.347-0.648 0.518-0.778 0.527-0.4 0.007 0.308 0.144 0.56 0.304 0.56 0.424 0 1.977-1.922 2.456-3.040 0.381-0.89 0.398-0.827 0.228 0.869-0.14 1.398-0.058 2.021 0.348 2.64 0.514 0.784 0.508 0.812-0.196 0.847-1.331 0.067-2.002-0.091-2.586-0.613-0.542-0.484-0.675-0.411-2.11 1.15-0.842 0.916-1.734 1.665-1.982 1.664s-0.064-0.256 0.407-0.567zM17.267 23.385c0.554-1.035 0.384-1.299-0.869-1.346l-1.2-0.045 1.279-0.195c1.055-0.161 1.376-0.391 1.838-1.315 0.549-1.099 0.556-1.102 0.363-0.16-0.243 1.185-1.296 3.68-1.553 3.68-0.104 0-0.040-0.279 0.142-0.619zM10.643 21.534c0.486-0.074 1.206-0.072 1.6 0.004s-0.004 0.136-0.884 0.134c-0.88-0.002-1.202-0.065-0.716-0.138zM19.198 13.984c0-0.055 0.468-0.523 1.040-1.040l1.040-0.94-0.94 1.040c-0.876 0.969-1.14 1.187-1.14 0.94zM22.078 10.244c0.188-0.352 0.415-0.64 0.503-0.64s0.006 0.288-0.183 0.64c-0.188 0.352-0.415 0.64-0.503 0.64s-0.006-0.288 0.183-0.64zM27.518 10.123c0-0.066 0.252-0.318 0.56-0.56 0.508-0.398 0.519-0.387 0.121 0.121-0.418 0.533-0.681 0.703-0.681 0.439zM23.678 7.883c0-0.066 0.252-0.318 0.56-0.56 0.508-0.398 0.519-0.387 0.121 0.121-0.418 0.533-0.681 0.703-0.681 0.439zM26.078 7.684c0.109-0.176 0.414-0.32 0.678-0.32s0.391 0.144 0.282 0.32c-0.109 0.176-0.414 0.32-0.678 0.32s-0.391-0.144-0.282-0.32zM25.193 6.684c0.217-0.219 0.475-0.317 0.574-0.218s-0.079 0.277-0.395 0.398c-0.456 0.174-0.493 0.137-0.179-0.179z"></path>
</svg>
