<!-- Generated by IcoMoon.io -->
<svg version="1.1" xmlns="http://www.w3.org/2000/svg" width="40" height="32" viewBox="0 0 40 32">
<title>monit</title>
<path d="M15.72 0.064c-0.655 0.069-1.178 0.281-2.241 0.885-0.23 0.132-0.615 0.339-1.522 0.816-3.085 1.632-3.493 1.827-3.786 1.827-0.075 0-0.253-0.086-0.402-0.195-0.356-0.259-0.477-0.316-0.845-0.414-0.523-0.132-0.827-0.109-1.729 0.155-0.304 0.086-1.114 0.385-1.54 0.569-0.103 0.040-0.322 0.109-0.936 0.299-0.103 0.029-0.391 0.075-0.638 0.098-0.799 0.080-1.235 0.408-1.557 1.166-0.138 0.327-0.19 0.517-0.402 1.471-0.098 0.419-0.109 3.068-0.017 3.372 0.034 0.126 0.109 0.396 0.161 0.603 0.379 1.471 1.229 2.022 1.976 1.275 0.5-0.5 0.913-1.54 0.959-2.419 0.075-1.408 0.207-2.367 0.345-2.482 0.057-0.046 0.092 0.011 0.161 0.241 0.092 0.299 0.092 0.31-0.052 0.58-0.264 0.511-0.327 0.758-0.253 1.046 0.052 0.213 0.115 0.299 0.339 0.46 0.149 0.109 0.339 0.287 0.419 0.391 0.144 0.19 0.149 0.207 0.075 0.477-0.046 0.161-0.149 0.442-0.241 0.632-0.195 0.425-0.241 0.822-0.121 1.080 0.132 0.27 0.264 0.373 0.678 0.517 0.534 0.19 0.534 0.19 0.396 0.408-0.19 0.316-0.155 0.506 0.178 0.954 0.201 0.264 0.35 0.54 0.483 0.89 0.126 0.333 0.149 1.436 0.040 1.712-0.086 0.207-0.092 2.637-0.011 3.522 0.115 1.235 0.391 2.832 0.569 3.326 0.029 0.063 0.092 0.259 0.144 0.431 0.5 1.591 1.35 3.125 2.35 4.228 0.345 0.385 0.368 0.425 0.402 0.764 0.109 1.051 0.597 1.879 1.385 2.355 0.862 0.517 2.292 0.552 3.355 0.086l0.31-0.138 0.184 0.144c0.155 0.121 0.253 0.144 0.569 0.144 0.207 0 0.391-0.023 0.408-0.052s0.103-0.069 0.19-0.092c0.086-0.017 0.23-0.103 0.327-0.184 0.144-0.115 0.213-0.138 0.391-0.109 0.218 0.034 0.569 0.207 0.741 0.356 0.046 0.046 0.103 0.080 0.126 0.080 0.017 0 0.195 0.075 0.396 0.167 0.552 0.253 1.333 0.454 1.948 0.488 0.575 0.034 1.844-0.040 2.074-0.132 0.069-0.023 0.236-0.080 0.362-0.121s0.345-0.126 0.488-0.19c0.144-0.063 0.402-0.178 0.575-0.253s0.437-0.201 0.586-0.276c0.339-0.178 0.425-0.178 0.678-0.012 0.236 0.155 0.73 0.327 0.948 0.327 0.086 0 0.287-0.069 0.448-0.149 0.287-0.144 0.299-0.144 0.529-0.046 0.126 0.052 0.282 0.115 0.345 0.144 0.454 0.184 0.845 0.247 1.551 0.253 0.603 0 0.81-0.023 1.063-0.115 0.396-0.138 0.89-0.465 1.16-0.758 0.391-0.442 0.73-1.31 0.735-1.913 0-0.304-0.034-0.241 0.833-1.528 0.379-0.569 0.718-1.080 0.753-1.143s0.19-0.35 0.35-0.632c0.161-0.287 0.35-0.661 0.414-0.833 0.069-0.172 0.144-0.368 0.172-0.431 0.149-0.345 0.414-1.281 0.529-1.867 0.276-1.413 0.408-3.378 0.333-4.854-0.069-1.35-0.086-1.948-0.063-2.625l0.011-0.552 0.207-0.132c0.465-0.287 0.649-0.764 0.448-1.16-0.092-0.172-0.092-0.184 0.034-0.27 0.075-0.046 0.282-0.149 0.454-0.224 0.437-0.184 0.609-0.31 0.718-0.546 0.218-0.46 0.040-0.948-0.465-1.281-0.253-0.167-0.339-0.259-0.35-0.379-0.023-0.213 0.052-0.293 0.414-0.46 0.414-0.19 0.689-0.448 0.81-0.764 0.080-0.213 0.086-0.293 0.034-0.373-0.034-0.057-0.063-0.161-0.063-0.224s-0.080-0.259-0.172-0.437c-0.155-0.276-0.172-0.356-0.138-0.592-0.019 0.151 0.16 0.106 0.322-0.086 0.115 0.942 0.178 1.574 0.19 1.861 0.017 0.54 0.098 0.873 0.333 1.459 0.333 0.839 0.603 1.224 1.028 1.488 0.408 0.253 0.942 0.017 1.229-0.546 0.224-0.442 0.299-0.701 0.54-1.884 0.109-0.529 0.138-1.643 0.057-2.298-0.040-0.333-0.092-0.839-0.115-1.12-0.121-1.35-0.615-1.942-1.821-2.183-0.276-0.057-0.54-0.121-0.592-0.144-0.046-0.029-0.241-0.092-0.431-0.144s-0.408-0.115-0.488-0.144c-0.080-0.029-0.414-0.132-0.747-0.23-0.333-0.103-0.747-0.23-0.919-0.293-0.282-0.092-0.684-0.178-1.258-0.264-0.327-0.052-0.781 0.086-1.051 0.31-0.293 0.241-0.552 0.362-0.793 0.362-0.184 0-0.345-0.069-0.988-0.419-1.005-0.546-1.189-0.649-1.511-0.816-0.19-0.103-0.488-0.264-0.661-0.356-0.758-0.419-1.183-0.643-2.154-1.137-0.569-0.287-1.086-0.546-1.149-0.563s-0.218-0.080-0.345-0.132c-0.339-0.138-1.936-0.184-2.315-0.063-0.149 0.046-0.517 0.126-0.816 0.178s-0.661 0.121-0.804 0.155c-0.385 0.086-1.764 0.126-2.126 0.063-0.172-0.034-0.46-0.103-0.632-0.155-0.73-0.218-0.982-0.264-1.609-0.281-0.362-0.011-0.764-0.011-0.89 0l-0-0zM24.031 1.375c0.511 0.115 0.829 0.406 1.139 0.579 0.144 0.080 0.649 0.242 0.948 0.402 0.839 0.437 1.81 0.919 2.189 1.12 0.19 0.103 0.506 0.161 0.913 0.373 0.414 0.213 0.93 0.482 1.137 0.603 0.586 0.345 1.276 0.615 1.62 0.529 0.368-0.092 1.040-0.080 1.293-0.299 0.167-0.149 0.178-0.276 0.448-0.276 0.31 0 0.339-0.046 0.575 0.046 0.063 0.023 0.339-0.057 0.529 0 0.19 0.052 0.546 0.207 0.626 0.23 0.080 0.029 0.080 0.093 0.316 0.161s0.299 0.247 0.471 0.304c0.58 0.19 0.925 0.287 1.385 0.385 0.408 0.086 0.241 0.149 0.488 0.402 0.155 0.149 0.236 0.221 0.236 0.284 0 0.057 0.034 0.159 0.063 0.188 0.029 0.034 0.153-0.017 0.188 0.333 0.034 0.345 0.169 0.322 0.198 0.62 0.092 0.799-0.048 1.522-0.26 2.212-0.161 0.529-0.022 0.040-0.125 0.167-0.293 0.373 0.289 0.753-0.125-0.322-0.167-0.431 0.024-0.062-0.063-1.010-0.132-1.436-0.662-1.616-0.812-1.817-0.408-0.546-2.32-0.953-2.532-0.183-0.155 0.534-0.452 1.328-0.188 1.719 0.126 0.19-0.176 0.224-0.176 0.281 0 0.161 0.051 0.188-0.155 0.32-0.051 0.033 0.050 0.142-0.063 0.18-0.264 0.086-0.6 1.743-0.387 2.094 0.063 0.098 0.445 0.34 0.606 0.438 0.569 0.35 0.31 0.001-0.379 0.323-0.701 0.316-0.419 0.69-0.569 0.781-0.132 0.080-0.064 0.195 0.217 0.454 0.442 0.396-0.265 0.161-0.719 0.38-0.207 0.103-0.275 0.591-0.344 0.827-0.092 0.333 0.115 1.298 0.19 3.217 0.046 1.321 0.036 2.654-0.096 3.441-0.155 1-0.36 1.919-0.406 2.034-0.029 0.075-0.112 0.486-0.112 0.544 0 0.241-0.184 0.635-0.419 1.031-0.069 0.109-0.267 0.884-0.313 0.981-0.276 0.557-0.699 1.473-0.831 1.519-0.023 0.012-0.161 0.458-0.178 0.308s-0.057-0.195-0.092-0.448c-0.506-3.648-0.517-7.359-0.034-10.513 0.121-0.77 0.253-2.057 0.218-2.114-0.046-0.080-0.132-0.040-0.488 0.224-0.396 0.293-0.959 0.586-1.367 0.707-0.5 0.155-1.321 0.27-1.482 0.207-0.086-0.034-0.080-0.046 0.046-0.109 0.080-0.040 0.259-0.092 0.396-0.115 0.632-0.098 1.298-0.592 1.362-1.023 0.023-0.138 0.098-0.299 0.178-0.379 0.126-0.126 0.172-0.132 0.46-0.098 0.178 0.023 0.368 0.063 0.431 0.092 0.057 0.029 0.161 0.080 0.224 0.115 0.247 0.126 0.236-0.040-0.046-0.58-0.316-0.62-0.701-1.069-1.086-1.27-0.23-0.115-0.356-0.138-0.799-0.138-0.293 0-0.592 0.029-0.666 0.063-0.735 0.345-1.12 0.563-1.54 0.879-0.494 0.368-1.224 0.77-1.54 0.845-0.086 0.023-0.184 0.057-0.218 0.080-0.264 0.184-2.292 0.293-2.62 0.138-0.649-0.304-0.822-0.414-1.080-0.666-0.327-0.339-0.62-0.862-0.672-1.212-0.046-0.322-0.138-0.615-0.19-0.615-0.029 0-0.063 0.19-0.075 0.414-0.023 0.31-0.075 0.5-0.195 0.73-0.178 0.345-0.666 0.908-0.85 0.988-0.069 0.029-0.195 0.098-0.293 0.155-0.322 0.195-1.218 0.402-1.655 0.385-1.16-0.052-2.166-0.442-3.389-1.31-0.724-0.511-1.092-0.695-1.632-0.822-0.81-0.19-1.511 0.144-1.993 0.942-0.552 0.919-0.603 1.166-0.195 0.936 0.253-0.138 0.793-0.213 0.954-0.126 0.075 0.040 0.155 0.184 0.213 0.379 0.144 0.511 0.712 0.965 1.35 1.086 0.391 0.075 0.684 0.172 0.655 0.218-0.017 0.023-0.207 0.046-0.425 0.046-0.89 0-1.879-0.333-2.637-0.89-0.195-0.144-0.379-0.259-0.414-0.259-0.069 0-0.006 0.678 0.207 2.183 0.086 0.597 0.149 1.16 0.259 2.223 0.069 0.73 0.069 4.498 0 5.389-0.121 1.499-0.253 1.695-0.465 3.263-0.017 0.132 0.094-0.169 0.071-0.152-0.046 0.029-0.021-0.712-0.406-1.281-0.46-0.684-0.679-1.567-0.938-2.406-0.23-0.753-0.106-1.044-0.325-2.188-0.184-0.971-0.552-3.771-0.425-4.438 0.103-0.523 0.322-2.019 0.219-2.387-0.121-0.437-0.321-0.741-0.563-1.051-0.276-0.35-0.819-0.092-0.25-0.38 0.236-0.121 0.011-0.798 0-0.827-0.017-0.023-0.239-0.322-0.469-0.408-0.224-0.086-0.569-0.109-0.632-0.138-0.063-0.023 0.085-0.213-0.087-0.276-0.609-0.236-0.269 0.184-0.063-0.253 0.057-0.121 0.255-0.253 0.313-0.379 0.080-0.167 0-0.54 0-0.879 0-0.437-0.208-0.728-0.375-0.929-0.098-0.121-0.3-0.082-0.438-0.18s0.011-0.189 0-0.253c-0.006-0.057-0.006-0.224 0.127-0.437 0.259-0.431 0.362-0.682 0.224-1.194-0.075-0.27-0.698-1.121-0.882-1.311-0.299-0.293-1.907 0.237-2.125 0.467-0.316 0.345-0.437 1.084-0.5 2.037-0.080 1.155 0.075 1.441 0 1.619-0.034 0.092-0.133 0.499-0.156 0.563-0.115 0.327-0.018-0.167-0.156 0-0.419 0.494 0.066 0.967-0.25-0.412-0.086-0.373-0.074-0.464-0.063-1.401 0.012-1.109 0.354-2.217 0.469-2.344 0.029-0.034 0-0.255 0-0.313 0-0.178 0.262-0.192 0.394-0.313 0.144-0.126 0.242-0.29 0.512-0.29 0.178 0 0.645-0.212 0.875-0.304 0.333-0.138 1.647-0.391 1.969-0.5 0.465-0.155 0.821-0.191 1.125-0.094 0.126 0.040 0.521 0.036 0.688 0.156 0.597 0.425 1.853 0.408 3.094-0.241 1.867-0.971 2.056-1.088 3.067-1.634 2.436-1.321 1.337-1.202 2.589-1.156 0.643 0.017 1.421 0.096 1.685 0.188 0.712 0.241 1.028 0.202 1.746 0.202 0.965 0 2.424-0.108 3.499-0.389 0.414-0.109 0.126-0.285 0.586-0.188l0.515 0.188zM20.127 13.851c0.149 0.293 0.632 0.46 1.482 0.506 0.609 0.040 0.919 0.086 1.494 0.241 0.569 0.155 1.218 0.46 1.695 0.799 0.62 0.448 1.655 1.597 2.177 2.43 0.184 0.287 0.799 1.637 0.994 2.080 0.075 0.172 0.144 0.454 0.219 0.62s0.063 0.268 0.063 0.286c0 0.017 0.079 0.163 0.125 0.26 0.155 0.368 0.203 0.458 0.313 0.802 0.063 0.19 0.137 0.467 0.166 0.531 0.023 0.063 0.144 0.5 0.224 0.77 0.471 1.54 0.514 1.95 0.985 3.95 0.029 0.126 0.072 0.18 0.095 0.313 0.017 0.138-0.017 0.028 0.023 0.063 0.103 0.086-0.014 0.116-0.117 0.254-0.057 0.075-0.563 0.695-0.563 0.931 0 1.367-0.118 1.689-1.463 1.689-0.362 0-0.787 0.023-1.063-0.098-0.063-0.023-0.414-0.119-0.569-0.182-0.322-0.126-0.31 0.441-0.603-0.536-0.19-0.62-0.264-0.862-0.345-1.063-0.023-0.063-0.155-0.414-0.287-0.776-0.327-0.896-1.005-2.269-1.436-2.913-0.465-0.701-1.137-1.333-1.683-1.591-0.379-0.178-0.666-0.253-1.275-0.35-0.373-0.057-0.178-0.034-0.276-0.235-0.080-0.167 0-0.511 0-2.442l-0.327-2.275 0.171-0.086c0.161-0.23 0.242-0.704 0.156-0.796-0.115-0.126-0.908-0.121-1.069 0-0.103 0.075-0.149 0.342 0 0.595l0.247 0.287-0.147 2.275c0 1.597 0.046 2.344 0 2.442-0.075 0.161-0.025 0.264-0.312 0.264-0.304 0-0.776 0.126-1.069 0.282-0.873 0.471-1.62 1.436-2.516 3.257-0.224 0.448-0.402 0.827-0.402 0.845s-0.092 0.236-0.207 0.483c-0.115 0.247-0.322 0.747-0.46 1.109-0.259 0.672-0.281 0.724-0.448 1.109-0.052 0.121-0.18-0.242-0.18-0.196 0 0.178-0.261-0.029-0.594 0.063-0.655 0.19-0.801 0-1.157 0-0.701 0-0.842 0.047-1.249-0.344-0.419-0.402-0.451-0.507-0.451-1.156 0-0.207-0.375-0.445-0.455-0.531-0.098-0.103-0.303-0.185-0.251-0.375 0.034-0.121-0.046 0.047 0-0.16 0.046-0.213 0.268-0.672 0.314-0.879 0.195-0.89 0.479-2.246 0.531-2.292 0.023-0.023 0-0.075 0-0.126 0-0.086 0.425-1.425 0.523-1.66 0.029-0.063-0.063-0.184 0-0.373 0.063-0.195 0.144-0.425 0.184-0.517 0.034-0.098 0.086-0.224 0.109-0.287 0.867-2.246 1.988-4.119 3.068-5.13 1.155-1.080 2.264-1.545 3.912-1.655 0.885-0.052 1.356-0.218 1.465-0.517 0.069-0.178 0.149-0.178 0.241 0.011h0zM21.586 24.313c0.138 0.057 0.421 0.345 0.57 0.494 0.592 0.62 1.366 1.81 1.969 3.395 0.408 1.086 0.594 1.292 0.813 1.579 0.172 0.218 0.178-0.159 0 0.094-0.213 0.322 0.435 0.27-0.094 0-0.552-0.287-1.483-0.53-1.914-0.317-1.069 0.529-1.482 0.695-2.211 0.862-0.35 0.080-1.27 0.144-1.621 0.063-0.822-0.19-1.097-0.155-1.614-0.506-0.109-0.069-0.465-0.352-0.523-0.352-0.052 0-0.5-0.19-0.517-0.219-0.017-0.034-0.311 0-0.506 0-0.293 0-0.39 0.104-0.563 0.219-0.655 0.442-0.178 0.656-0.35 0.156-0.057-0.161-0.328 0.501-0.121 0.196 0.287-0.425 0.7-0.414 1.033-1.229 0.333-0.822 0.294-0.712 0.506-1.183 0.098-0.218 0.436-0.707 0.436-0.735s0.146-0.419 0.307-0.747c0.546-1.086 0.434-1.338 0.963-1.613 0.293-0.149 0.7-0.207 2.475-0.219 1.023-0.012 0.49-0.035 0.714 0.063h0.247z"></path>
<path d="M21.166 17.333c-0.339 0.362-0.408 0.89-0.161 1.218 0.155 0.201 0.19 0.529 0.080 0.735-0.115 0.213 0.172 0.241 0.419 0 0.304-0.299 0.414-0.317 0.816-0.317 0.35 0 0.609-0.228 0.609-0.332 0-0.046-0.092-0.19-0.322-0.161-0.35 0.040-0.425-0.046-0.557-0.195-0.040-0.052-0.109-0.207-0.161-0.454-0.052-0.264-0.436-0.46-0.5-0.517-0.098-0.103-0.109-0.103-0.224 0.023h-0z"></path>
<path d="M18.484 17.419c-0.040 0.092-0.31 0.235-0.333 0.408-0.063 0.471 0.154 0.149-0.15 0.236-0.144 0.040-0.634 0.425-0.813 0.414-0.236-0.017-0.175 0.149-0.175 0.201 0 0.092 0.121 0.121 0.672 0.161 0.483 0.034 0.592 0.080 0.919 0.396 0.259 0.247 0.373 0.253 0.247 0.017-0.098-0.19-0.046-0.488 0.144-0.776 0.138-0.201 0.149-0.27 0.115-0.5-0.046-0.322-0.287-0.712-0.437-0.712-0.057 0-0.144 0.069-0.19 0.155v-0z"></path>
</svg>
