<!-- Generated by IcoMoon.io -->
<svg version="1.1" xmlns="http://www.w3.org/2000/svg" width="40" height="32" viewBox="0 0 40 32">
<title>monit</title>
<path d="M15.72 0.064c-0.655 0.069-1.178 0.281-2.241 0.885-0.23 0.132-0.615 0.339-1.522 0.816-3.085 1.632-3.493 1.827-3.786 1.827-0.075 0-0.253-0.086-0.402-0.195-0.356-0.259-0.477-0.316-0.845-0.414-0.523-0.132-0.827-0.109-1.729 0.155-0.304 0.086-1.114 0.385-1.54 0.569-0.103 0.040-0.322 0.109-0.936 0.299-0.103 0.029-0.391 0.075-0.638 0.098-0.799 0.080-1.235 0.408-1.557 1.166-0.138 0.327-0.19 0.517-0.402 1.471-0.098 0.419-0.109 3.068-0.017 3.372 0.034 0.126 0.109 0.396 0.161 0.603 0.379 1.471 1.229 2.022 1.976 1.275 0.5-0.5 0.913-1.54 0.959-2.419 0.075-1.408 0.207-2.367 0.345-2.482 0.057-0.046 0.092 0.011 0.161 0.241 0.092 0.299 0.092 0.31-0.052 0.58-0.264 0.511-0.327 0.758-0.253 1.046 0.052 0.213 0.115 0.299 0.339 0.46 0.149 0.109 0.339 0.287 0.419 0.391 0.144 0.19 0.149 0.207 0.075 0.477-0.046 0.161-0.149 0.442-0.241 0.632-0.195 0.425-0.241 0.822-0.121 1.080 0.132 0.27 0.264 0.373 0.678 0.517 0.534 0.19 0.534 0.19 0.396 0.408-0.19 0.316-0.155 0.506 0.178 0.954 0.201 0.264 0.35 0.54 0.483 0.89 0.126 0.333 0.149 1.436 0.040 1.712-0.086 0.207-0.092 2.637-0.011 3.522 0.115 1.235 0.391 2.832 0.569 3.326 0.029 0.063 0.092 0.259 0.144 0.431 0.5 1.591 1.35 3.125 2.35 4.228 0.345 0.385 0.368 0.425 0.402 0.764 0.109 1.051 0.597 1.879 1.385 2.355 0.862 0.517 2.292 0.552 3.355 0.086l0.31-0.138 0.184 0.144c0.155 0.121 0.253 0.144 0.569 0.144 0.207 0 0.391-0.023 0.408-0.052s0.103-0.069 0.19-0.092c0.086-0.017 0.23-0.103 0.327-0.184 0.144-0.115 0.213-0.138 0.391-0.109 0.218 0.034 0.569 0.207 0.741 0.356 0.046 0.046 0.103 0.080 0.126 0.080 0.017 0 0.195 0.075 0.396 0.167 0.552 0.253 1.333 0.454 1.948 0.488 0.575 0.034 1.844-0.040 2.074-0.132 0.069-0.023 0.236-0.080 0.362-0.121s0.345-0.126 0.488-0.19c0.144-0.063 0.402-0.178 0.575-0.253s0.437-0.201 0.586-0.276c0.339-0.178 0.425-0.178 0.678-0.012 0.236 0.155 0.73 0.327 0.948 0.327 0.086 0 0.287-0.069 0.448-0.149 0.287-0.144 0.299-0.144 0.529-0.046 0.126 0.052 0.282 0.115 0.345 0.144 0.454 0.184 0.845 0.247 1.551 0.253 0.603 0 0.81-0.023 1.063-0.115 0.396-0.138 0.89-0.465 1.16-0.758 0.391-0.442 0.73-1.31 0.735-1.913 0-0.304-0.034-0.241 0.833-1.528 0.379-0.569 0.718-1.080 0.753-1.143s0.19-0.35 0.35-0.632c0.161-0.287 0.35-0.661 0.414-0.833 0.069-0.172 0.144-0.368 0.172-0.431 0.149-0.345 0.414-1.281 0.529-1.867 0.276-1.413 0.408-3.378 0.333-4.854-0.069-1.35-0.086-1.948-0.063-2.625l0.011-0.552 0.207-0.132c0.465-0.287 0.649-0.764 0.448-1.16-0.092-0.172-0.092-0.184 0.034-0.27 0.075-0.046 0.282-0.149 0.454-0.224 0.437-0.184 0.609-0.31 0.718-0.546 0.218-0.46 0.040-0.948-0.465-1.281-0.253-0.167-0.339-0.259-0.35-0.379-0.023-0.213 0.052-0.293 0.414-0.46 0.414-0.19 0.689-0.448 0.81-0.764 0.080-0.213 0.086-0.293 0.034-0.373-0.034-0.057-0.063-0.161-0.063-0.224s-0.080-0.259-0.172-0.437c-0.155-0.276-0.172-0.356-0.138-0.592 0.080-0.569 0.259-0.615 0.322-0.086 0.115 0.942 0.178 1.574 0.19 1.861 0.017 0.54 0.098 0.873 0.333 1.459 0.333 0.839 0.603 1.224 1.028 1.488 0.408 0.253 0.942 0.017 1.229-0.546 0.224-0.442 0.299-0.701 0.54-1.884 0.109-0.529 0.138-1.643 0.057-2.298-0.040-0.333-0.092-0.839-0.115-1.12-0.121-1.35-0.615-1.942-1.821-2.183-0.276-0.057-0.54-0.121-0.592-0.144-0.046-0.029-0.241-0.092-0.431-0.144s-0.408-0.115-0.488-0.144c-0.080-0.029-0.414-0.132-0.747-0.23-0.333-0.103-0.747-0.23-0.919-0.293-0.282-0.092-0.684-0.178-1.258-0.264-0.327-0.052-0.781 0.086-1.051 0.31-0.293 0.241-0.552 0.362-0.793 0.362-0.184 0-0.345-0.069-0.988-0.419-1.005-0.546-1.189-0.649-1.511-0.816-0.19-0.103-0.488-0.264-0.661-0.356-0.758-0.419-1.183-0.643-2.154-1.137-0.569-0.287-1.086-0.546-1.149-0.563s-0.218-0.080-0.345-0.132c-0.339-0.138-1.936-0.184-2.315-0.063-0.149 0.046-0.517 0.126-0.816 0.178s-0.661 0.121-0.804 0.155c-0.385 0.086-1.764 0.126-2.126 0.063-0.172-0.034-0.46-0.103-0.632-0.155-0.73-0.218-0.982-0.264-1.609-0.281-0.362-0.011-0.764-0.011-0.89 0zM24.251 0.627c0.511 0.115 1.069 0.304 1.379 0.477 0.144 0.080 0.506 0.276 0.804 0.437 0.839 0.437 1.718 0.902 2.097 1.103 0.19 0.103 0.684 0.362 1.092 0.575 0.414 0.213 0.913 0.488 1.12 0.609 0.586 0.345 0.89 0.425 1.235 0.339 0.368-0.092 0.661-0.241 0.913-0.46 0.167-0.149 0.241-0.172 0.511-0.172 0.31 0 0.81 0.080 1.046 0.172 0.063 0.023 0.27 0.086 0.46 0.144 0.19 0.052 0.408 0.121 0.488 0.144 0.080 0.029 0.339 0.103 0.575 0.172s0.575 0.172 0.747 0.23c0.58 0.19 0.885 0.276 1.344 0.373 0.408 0.086 0.483 0.126 0.73 0.379 0.155 0.149 0.282 0.322 0.282 0.385 0 0.057 0.023 0.126 0.052 0.155 0.029 0.034 0.080 0.339 0.115 0.689 0.034 0.345 0.092 0.879 0.121 1.178 0.092 0.799-0.029 2.241-0.241 2.93-0.161 0.529-0.299 0.879-0.402 1.005-0.293 0.373-0.684-0.017-1.097-1.092-0.167-0.431-0.241-0.862-0.327-1.81-0.132-1.436-0.178-1.683-0.327-1.884-0.408-0.546-1.034-0.316-1.247 0.454-0.155 0.534-0.126 0.764 0.138 1.155 0.126 0.19 0.23 0.391 0.23 0.448 0 0.201-0.471 0.523-1.046 0.712-0.264 0.086-0.373 0.936-0.161 1.287 0.063 0.098 0.241 0.264 0.402 0.362 0.569 0.35 0.529 0.546-0.161 0.867-0.701 0.316-0.994 0.46-1.143 0.552-0.132 0.080-0.126 0.080 0.155 0.339 0.442 0.396 0.437 0.597-0.017 0.816-0.207 0.103-0.259 0.155-0.327 0.391-0.092 0.333-0.109 1.43-0.034 3.349 0.046 1.321-0.006 2.832-0.138 3.619-0.155 1-0.247 1.482-0.293 1.597-0.029 0.075-0.052 0.184-0.052 0.241 0 0.241-0.534 1.672-0.77 2.068-0.069 0.109-0.161 0.276-0.207 0.373-0.276 0.557-1.534 2.442-1.666 2.488-0.023 0.012-0.057-0.109-0.075-0.259s-0.057-0.483-0.092-0.735c-0.506-3.648-0.517-7.359-0.034-10.513 0.121-0.77 0.253-2.057 0.218-2.114-0.046-0.080-0.132-0.040-0.488 0.224-0.396 0.293-0.959 0.586-1.367 0.707-0.5 0.155-1.321 0.27-1.482 0.207-0.086-0.034-0.080-0.046 0.046-0.109 0.080-0.040 0.259-0.092 0.396-0.115 0.632-0.098 1.298-0.592 1.362-1.023 0.023-0.138 0.098-0.299 0.178-0.379 0.126-0.126 0.172-0.132 0.46-0.098 0.178 0.023 0.368 0.063 0.431 0.092 0.057 0.029 0.161 0.080 0.224 0.115 0.247 0.126 0.236-0.040-0.046-0.58-0.316-0.62-0.701-1.069-1.086-1.27-0.23-0.115-0.356-0.138-0.799-0.138-0.293 0-0.592 0.029-0.666 0.063-0.735 0.345-1.12 0.563-1.54 0.879-0.494 0.368-1.224 0.77-1.54 0.845-0.086 0.023-0.184 0.057-0.218 0.080-0.264 0.184-2.292 0.293-2.62 0.138-0.649-0.304-0.822-0.414-1.080-0.666-0.327-0.339-0.62-0.862-0.672-1.212-0.046-0.322-0.138-0.615-0.19-0.615-0.029 0-0.063 0.19-0.075 0.414-0.023 0.31-0.075 0.5-0.195 0.73-0.178 0.345-0.666 0.908-0.85 0.988-0.069 0.029-0.195 0.098-0.293 0.155-0.322 0.195-1.218 0.402-1.655 0.385-1.16-0.052-2.166-0.442-3.389-1.31-0.724-0.511-1.092-0.695-1.632-0.822-0.81-0.19-1.511 0.144-1.993 0.942-0.552 0.919-0.603 1.166-0.195 0.936 0.253-0.138 0.793-0.213 0.954-0.126 0.075 0.040 0.155 0.184 0.213 0.379 0.144 0.511 0.712 0.965 1.35 1.086 0.391 0.075 0.684 0.172 0.655 0.218-0.017 0.023-0.207 0.046-0.425 0.046-0.89 0-1.879-0.333-2.637-0.89-0.195-0.144-0.379-0.259-0.414-0.259-0.069 0-0.006 0.678 0.207 2.183 0.086 0.597 0.149 1.16 0.259 2.223 0.069 0.73 0.069 4.498 0 5.389-0.121 1.499-0.172 1.953-0.385 3.522-0.017 0.132-0.052 0.253-0.075 0.27-0.046 0.029-0.758-0.85-1.143-1.419-0.46-0.684-1.040-1.907-1.298-2.746-0.23-0.753-0.333-1.183-0.551-2.327-0.184-0.971-0.287-3.987-0.161-4.653 0.103-0.523 0.103-1.528 0-1.896-0.121-0.437-0.345-0.89-0.586-1.201-0.276-0.35-0.253-0.408 0.316-0.695 0.236-0.121 0.419-0.236 0.408-0.264-0.017-0.023-0.218-0.109-0.448-0.195-0.224-0.086-0.465-0.178-0.529-0.207-0.063-0.023-0.259-0.103-0.431-0.167-0.609-0.236-0.672-0.345-0.465-0.781 0.057-0.121 0.155-0.327 0.213-0.454 0.080-0.167 0.109-0.362 0.109-0.701 0-0.437-0.011-0.483-0.178-0.684-0.098-0.121-0.293-0.304-0.431-0.402s-0.259-0.224-0.27-0.287c-0.006-0.057 0.086-0.281 0.218-0.494 0.259-0.431 0.27-0.529 0.132-1.040-0.075-0.27-0.161-0.414-0.345-0.603-0.299-0.293-0.5-0.316-0.718-0.086-0.316 0.345-0.442 0.758-0.506 1.712-0.080 1.155-0.161 1.896-0.236 2.074-0.034 0.092-0.086 0.218-0.109 0.281-0.115 0.327-0.35 0.77-0.488 0.936-0.419 0.494-0.845-0.017-1.16-1.396-0.086-0.373-0.103-0.672-0.092-1.609 0.011-1.109 0.138-2.281 0.253-2.407 0.029-0.034 0.052-0.103 0.052-0.161 0-0.178 0.287-0.833 0.419-0.954 0.144-0.126 0.684-0.299 0.954-0.299 0.178 0 0.781-0.138 1.011-0.23 0.333-0.138 1.718-0.643 2.039-0.753 0.465-0.155 1.224-0.207 1.528-0.109 0.126 0.040 0.362 0.172 0.529 0.293 0.597 0.425 1.069 0.368 2.309-0.281 1.867-0.971 2.12-1.103 3.131-1.649 2.436-1.321 2.442-1.321 3.694-1.275 0.643 0.017 0.925 0.052 1.189 0.144 0.712 0.241 1.040 0.299 1.758 0.299 0.965 0 2.367-0.195 3.441-0.477 0.414-0.109 0.862-0.115 1.321-0.017zM20.127 13.851c0.149 0.293 0.632 0.46 1.482 0.506 0.609 0.040 0.919 0.086 1.494 0.241 0.569 0.155 1.218 0.46 1.695 0.799 0.62 0.448 1.655 1.597 2.177 2.43 0.184 0.287 0.867 1.637 1.063 2.080 0.075 0.172 0.195 0.454 0.27 0.62s0.138 0.316 0.138 0.333c0 0.017 0.034 0.115 0.080 0.213 0.155 0.368 0.218 0.529 0.327 0.873 0.063 0.19 0.138 0.396 0.167 0.46 0.023 0.063 0.115 0.333 0.195 0.603 0.471 1.54 0.603 2.051 1.074 4.050 0.029 0.126 0.069 0.339 0.092 0.471 0.017 0.138 0.069 0.276 0.109 0.31 0.103 0.086 0.098 0.224-0.006 0.362-0.057 0.075-0.086 0.247-0.086 0.483 0 1.367-0.982 2.367-2.327 2.367-0.362 0-0.988-0.109-1.264-0.23-0.063-0.023-0.241-0.098-0.396-0.161-0.322-0.126-0.316-0.126-0.609-1.103-0.19-0.62-0.264-0.862-0.345-1.063-0.023-0.063-0.155-0.414-0.287-0.776-0.327-0.896-1.005-2.269-1.436-2.913-0.465-0.701-1.137-1.333-1.683-1.591-0.379-0.178-0.666-0.253-1.275-0.35-0.373-0.057-0.414-0.080-0.511-0.282-0.080-0.167-0.092-0.506-0.092-2.436v-2.235l0.167-0.253c0.161-0.23 0.167-0.259 0.080-0.35-0.115-0.126-0.575-0.144-0.735-0.023-0.103 0.075-0.103 0.086 0.046 0.339l0.155 0.264v2.298c0 1.597-0.017 2.344-0.063 2.442-0.075 0.161-0.316 0.264-0.603 0.264-0.304 0-0.776 0.126-1.069 0.282-0.873 0.471-1.62 1.436-2.516 3.257-0.224 0.448-0.402 0.827-0.402 0.845s-0.092 0.236-0.207 0.483c-0.115 0.247-0.322 0.747-0.46 1.109-0.259 0.672-0.281 0.724-0.448 1.109-0.052 0.121-0.092 0.253-0.092 0.299 0 0.178-0.281 0.408-0.615 0.5-0.655 0.19-0.799 0.218-1.155 0.218-0.701 0-1.39-0.241-1.798-0.632-0.419-0.402-0.741-1.212-0.741-1.861 0-0.207-0.034-0.322-0.115-0.408-0.098-0.103-0.103-0.149-0.052-0.339 0.034-0.121 0.098-0.391 0.144-0.597 0.046-0.213 0.121-0.552 0.167-0.758 0.195-0.89 0.511-2.114 0.563-2.16 0.023-0.023 0.040-0.080 0.040-0.132 0-0.086 0.419-1.465 0.517-1.7 0.029-0.063 0.103-0.27 0.167-0.46 0.063-0.195 0.144-0.425 0.184-0.517 0.034-0.098 0.086-0.224 0.109-0.287 0.867-2.246 1.988-4.119 3.068-5.13 1.155-1.080 2.264-1.545 3.912-1.655 0.885-0.052 1.356-0.218 1.465-0.517 0.069-0.178 0.149-0.178 0.241 0.011zM22.080 23.865c0.138 0.057 0.368 0.236 0.517 0.385 0.592 0.62 1.488 2.275 2.091 3.861 0.408 1.086 0.643 1.597 0.862 1.884 0.172 0.218 0.172 0.236-0.006 0.488-0.213 0.322-0.368 0.327-0.896 0.057-0.552-0.287-0.867-0.31-1.298-0.098-1.069 0.529-1.718 0.781-2.447 0.948-0.35 0.080-1.453 0.080-1.804 0-0.822-0.19-1.568-0.488-2.085-0.839-0.109-0.069-0.241-0.132-0.299-0.132-0.052 0-0.115-0.029-0.132-0.057-0.017-0.034-0.201-0.057-0.396-0.057-0.293 0-0.402 0.029-0.575 0.144-0.655 0.442-0.959 0.425-1.132-0.075-0.057-0.161-0.040-0.207 0.167-0.511 0.287-0.425 0.454-0.753 0.787-1.568 0.333-0.822 0.327-0.81 0.54-1.281 0.098-0.218 0.178-0.414 0.178-0.442s0.132-0.316 0.293-0.643c0.546-1.086 1.011-1.672 1.54-1.948 0.293-0.149 0.913-0.201 2.689-0.213 1.023-0.012 1.183 0 1.407 0.098z"></path>
<path d="M21.166 17.333c-0.339 0.362-0.408 0.89-0.161 1.218 0.155 0.201 0.19 0.529 0.080 0.735-0.115 0.213 0.006 0.184 0.253-0.057 0.304-0.299 0.58-0.414 0.982-0.414 0.35 0 0.609-0.075 0.609-0.178 0-0.046-0.092-0.057-0.322-0.029-0.35 0.040-0.718-0.040-0.85-0.19-0.040-0.052-0.121-0.299-0.172-0.546-0.052-0.264-0.132-0.506-0.195-0.563-0.098-0.103-0.109-0.103-0.224 0.023z"></path>
<path d="M18.484 17.419c-0.040 0.092-0.098 0.304-0.121 0.477-0.063 0.471-0.149 0.603-0.454 0.689-0.144 0.040-0.402 0.057-0.58 0.046-0.236-0.017-0.316-0.006-0.316 0.046 0 0.092 0.121 0.121 0.672 0.161 0.483 0.034 0.592 0.080 0.919 0.396 0.259 0.247 0.373 0.253 0.247 0.017-0.098-0.19-0.046-0.488 0.144-0.776 0.138-0.201 0.149-0.27 0.115-0.5-0.046-0.322-0.287-0.712-0.437-0.712-0.057 0-0.144 0.069-0.19 0.155z"></path>
</svg>
