<!-- Generated by IcoMoon.io -->
<svg version="1.1" xmlns="http://www.w3.org/2000/svg" width="32" height="32" viewBox="0 0 32 32">
<title>monyog</title>
<path d="M14.496 24.307c-1.124-1.353-1.396-1.476-2.251-1.019-0.535 0.286-2.145 0.52-3.579 0.52-2.161 0-2.931-0.228-4.503-1.333-3.788-2.662-4.977-7.184-2.975-11.318 2.047-4.228 7.756-5.933 11.845-3.537 1.113 0.652 2.296 1.575 2.63 2.051 0.592 0.845 0.619 0.845 1.134 0.020 0.29-0.465 1.454-1.388 2.585-2.051 4.123-2.416 9.823-0.728 11.879 3.518 2.001 4.134 0.813 8.656-2.975 11.318-1.572 1.105-2.342 1.333-4.503 1.333-1.434 0-3.044-0.234-3.577-0.519-0.852-0.456-1.139-0.327-2.349 1.051-0.758 0.864-1.537 1.556-1.731 1.538s-0.927-0.725-1.63-1.571zM11.218 20.781c3.204-1.339 4.527-5.427 2.821-8.715-2.015-3.881-8.476-3.881-10.491 0-1.709 3.291-0.614 6.924 2.575 8.551 1.865 0.951 3.116 0.991 5.096 0.164zM6.59 18.975c-1.349-0.748-2.265-2.364-2.286-4.034-0.023-1.838 2.568-4.347 4.489-4.347 1.825 0 4.505 2.506 4.505 4.213 0 3.623-3.626 5.876-6.708 4.168zM27.048 20.314c3.641-2.385 3.442-8.494-0.34-10.449-4.347-2.248-9.047 0.612-9.053 5.51-0.006 4.659 5.446 7.526 9.394 4.939zM21.455 18.975c-1.349-0.748-2.265-2.364-2.286-4.034-0.023-1.838 2.568-4.347 4.489-4.347 1.825 0 4.505 2.506 4.505 4.213 0 3.623-3.625 5.876-6.708 4.168z"></path>
<path d="M14.756 24.322c-1.313-1.593-1.513-1.685-2.588-1.195-1.82 0.829-5.123 0.638-7.317-0.424-3.387-1.64-5.186-5.557-4.422-9.629 0.367-1.954 3.041-5.072 5.083-5.927 3.173-1.328 6.941-0.503 9.338 2.045l1.328 1.412 1.6-1.555c1.889-1.835 3.481-2.509 5.924-2.509 2.513 0 4.42 0.918 6.35 3.058 4.928 5.461 0.943 14.061-6.515 14.061-1.149 0-2.606-0.236-3.238-0.524-1.052-0.479-1.275-0.378-2.635 1.195l-1.486 1.718zM11.992 20.383c2.071-1.383 3.213-3.684 2.939-5.921-0.902-7.369-11.383-7.321-12.284 0.056-0.413 3.387 2.71 6.887 6.146 6.887 0.985 0 2.296-0.419 3.199-1.023zM5.994 18.298c-3.059-2.733-1.297-7.377 2.798-7.377 2.58 0 4.148 1.552 4.217 4.174 0.042 1.596-0.178 2.094-1.415 3.199-1.918 1.714-3.685 1.715-5.6 0.003zM26.857 20.383c2.071-1.383 3.213-3.684 2.939-5.921-0.902-7.369-11.383-7.321-12.284 0.056-0.413 3.387 2.71 6.887 6.146 6.887 0.985 0 2.296-0.419 3.199-1.023zM20.856 18.295c-1.237-1.105-1.457-1.603-1.415-3.199 0.069-2.622 1.637-4.174 4.217-4.174 4.095 0 5.857 4.644 2.798 7.377-1.915 1.711-3.682 1.71-5.6-0.003z"></path>
<path d="M14.814 24.323c-1.314-1.638-1.427-1.685-2.861-1.185-3.441 1.199-6.879 0.37-9.294-2.241-2.48-2.682-3.047-5.985-1.574-9.176 1.007-2.181 2.433-3.553 4.659-4.483 3.124-1.305 6.477-0.56 9.159 2.035l1.379 1.335 1.098-1.192c4.268-4.633 11.681-3.251 14.14 2.635 1.286 3.079 0.665 6.258-1.728 8.846-2.411 2.607-5.854 3.441-9.278 2.247-1.411-0.492-1.541-0.438-2.904 1.185l-1.427 1.7zM12.909 19.7c1.489-1.389 1.867-2.080 2.034-3.716 0.509-4.981-4.554-8.669-8.821-6.426-6.010 3.159-3.96 11.849 2.795 11.849 1.882 0 2.402-0.222 3.993-1.706zM7.151 19.174c-2.529-1.065-3.272-5.059-1.307-7.024 1.537-1.537 4.361-1.537 5.897 0 3.111 3.111-0.556 8.723-4.59 7.024zM27.119 20.392c4.015-2.732 3.592-8.532-0.79-10.835-4.267-2.243-9.33 1.445-8.821 6.426 0.167 1.637 0.545 2.327 2.034 3.716 1.582 1.476 2.116 1.706 3.958 1.706 1.466 0 2.593-0.316 3.619-1.014zM22.017 19.174c-2.529-1.065-3.272-5.059-1.307-7.024 1.537-1.537 4.361-1.537 5.897 0 3.111 3.111-0.556 8.723-4.59 7.024z"></path>
<path d="M14.498 23.86c-1.091-1.368-1.38-1.515-1.984-1.014-0.427 0.354-1.912 0.587-3.749 0.587-2.715 0-3.228-0.148-4.773-1.378-2.087-1.66-3.762-4.762-3.748-6.939 0.021-3.297 2.28-6.533 5.5-7.879 3.132-1.309 6.933-0.421 9.328 2.178l1.098 1.192 1.379-1.335c2.777-2.688 6.249-3.376 9.488-1.881 3.089 1.426 5.18 4.584 5.18 7.823 0 2.096-1.712 5.213-3.758 6.841-1.545 1.229-2.058 1.378-4.773 1.378-1.837 0-3.322-0.232-3.749-0.587-0.604-0.501-0.893-0.354-1.984 1.014-0.702 0.88-1.48 1.6-1.727 1.6s-1.025-0.72-1.727-1.6zM12.207 20.556c1.93-1.177 3.053-3.715 2.767-6.253-0.175-1.55-0.607-2.399-1.861-3.653-1.512-1.512-1.832-1.633-4.321-1.633s-2.809 0.121-4.321 1.633c-2.883 2.883-2.478 7.842 0.803 9.842 1.913 1.166 5.077 1.195 6.933 0.063zM7.138 18.947c-4.043-1.759-2.821-7.902 1.571-7.902 4.567 0 5.841 6.165 1.638 7.922-1.793 0.749-1.438 0.751-3.209-0.019zM27.177 20.493c3.281-2 3.686-6.96 0.803-9.842-1.512-1.512-1.832-1.633-4.321-1.633s-2.809 0.121-4.321 1.633c-4.095 4.095-1.42 10.752 4.321 10.752 1.24 0 2.606-0.353 3.518-0.909zM22.004 18.947c-4.107-1.786-2.763-7.902 1.737-7.902 2.274 0 3.971 1.677 3.971 3.924 0 2.12-0.704 3.247-2.499 3.997-1.793 0.749-1.438 0.751-3.209-0.019z"></path>
<path d="M14.712 23.949c-1.432-1.478-1.513-1.501-3.132-0.923-2.048 0.731-2.989 0.76-5.165 0.155-2.604-0.723-4.688-2.821-5.564-5.601-0.661-2.097-0.681-2.674-0.155-4.549 0.786-2.808 3.204-5.238 5.989-6.017 2.856-0.8 5.733-0.002 7.933 2.198l1.608 1.608 1.608-1.608c2.201-2.201 5.078-2.998 7.933-2.198 2.784 0.78 5.202 3.209 5.988 6.017 1.184 4.227-1.493 8.976-5.72 10.15-2.149 0.597-3.11 0.569-5.080-0.145-1.51-0.547-1.645-0.508-3.175 0.929l-1.598 1.5zM12.516 20.402c3.673-2.564 3.366-8.899-0.528-10.913-4.391-2.271-9.496 0.695-9.501 5.519-0.005 5.446 5.62 8.471 10.028 5.394zM5.844 18.048c-2.401-2.401-0.464-7.003 2.949-7.003 2.007 0 4.054 2.113 4.054 4.183 0 3.479-4.523 5.3-7.003 2.819zM27.381 20.402c3.673-2.564 3.366-8.899-0.528-10.913-4.391-2.271-9.496 0.695-9.501 5.519-0.005 5.446 5.62 8.471 10.028 5.394zM20.791 17.966c-1.666-1.666-1.615-3.86 0.129-5.604 1.77-1.77 3.705-1.77 5.475 0 2.7 2.7 1.101 6.792-2.656 6.792-1.302 0-2.070-0.31-2.949-1.188z"></path>
<path d="M14.852 23.943l-1.33-1.635-2.252 0.694c-3.86 1.189-7.948-0.412-9.632-3.774-1.351-2.698-1.504-4.048-0.726-6.391 1.218-3.668 4.285-6.005 7.88-6.005 2.335 0 4.219 0.866 6.124 2.814l1.339 1.37 1.277-1.353c4.609-4.884 11.877-3.237 14.006 3.174 0.778 2.343 0.625 3.693-0.726 6.391-1.681 3.357-5.766 4.96-9.632 3.78l-2.252-0.687-2.746 3.257zM11.193 21.242c0.809-0.338 2.019-1.266 2.688-2.062 0.981-1.166 1.217-1.901 1.216-3.778-0.003-4.234-2.412-6.61-6.701-6.61-1.913 0-2.472 0.216-3.801 1.469-3.619 3.413-2.747 8.974 1.719 10.959 1.747 0.776 3.057 0.782 4.878 0.022zM5.904 17.767c-1.599-1.9-1.53-3.725 0.206-5.461 1.186-1.186 1.599-1.336 3.041-1.107 3.521 0.56 4.823 4.194 2.379 6.637-1.847 1.847-4.036 1.82-5.626-0.069zM26.038 21.239c4.551-1.939 5.476-7.526 1.817-10.977-1.329-1.253-1.887-1.469-3.801-1.469-4.289 0-6.698 2.376-6.701 6.61-0.001 1.876 0.235 2.612 1.215 3.776 2.087 2.48 4.756 3.216 7.47 2.060zM20.921 17.837c-2.444-2.444-1.142-6.077 2.379-6.637 1.442-0.229 1.855-0.079 3.041 1.107 1.736 1.736 1.805 3.561 0.206 5.461-1.59 1.889-3.779 1.916-5.626 0.069z"></path>
<path d="M14.826 23.815c-1.336-1.65-1.396-1.673-2.837-1.076-1.794 0.743-4.975 0.746-6.415 0.005-2.080-1.070-4.014-3.342-4.641-5.451-0.885-2.979-0.191-5.431 2.216-7.838 3.362-3.362 7.717-3.434 11.133-0.185 1.025 0.975 1.899 1.773 1.943 1.773s0.917-0.798 1.943-1.773c3.416-3.249 7.771-3.177 11.133 0.185 2.407 2.407 3.1 4.859 2.216 7.838-0.626 2.109-2.561 4.381-4.641 5.451-1.436 0.739-4.619 0.738-6.403-0-1.424-0.59-1.496-0.563-2.872 1.076l-1.411 1.681zM11.916 20.97c2.25-1.148 3.867-4.256 3.474-6.678-0.54-3.326-3.305-5.725-6.598-5.725-5.042 0-8.242 5.343-5.802 9.686 1.875 3.335 5.531 4.449 8.925 2.717zM6.99 18.589c-2.83-1.477-2.795-5.294 0.062-6.837 1.42-0.767 1.781-0.799 3.048-0.274 2.65 1.097 3.452 4.688 1.453 6.498-1.124 1.018-3.243 1.302-4.562 0.614zM26.72 21.002c6.091-3.107 3.794-12.435-3.062-12.435-4.974 0-8.043 4.943-5.864 9.444 1.694 3.5 5.456 4.761 8.926 2.99zM22.307 18.85c-3.357-1.317-3.349-5.968 0.011-7.36 3.777-1.565 7.132 3.741 4.101 6.485-0.893 0.808-3.091 1.276-4.112 0.875z"></path>
</svg>
