<!-- Generated by IcoMoon.io -->
<svg version="1.1" xmlns="http://www.w3.org/2000/svg" width="32" height="32" viewBox="0 0 32 32">
<title>mysql</title>
<path d="M30.062 32.774c-0.471-0.273-2.32-1.023-4.108-1.667-11.341-4.080-11.55-4.219-14.353-9.557-1.731-3.296-2.097-3.271-2.746 0.187-0.378 2.014-0.933 2.050-1.742 0.114-0.759-1.817-0.812-5.062-0.113-6.995 0.435-1.203 0.403-1.543-0.213-2.223-0.399-0.441-1.122-1.957-1.605-3.367s-1.458-3.375-2.166-4.365c-2.279-3.187-1.378-4.079 2.108-2.086 1.035 0.592 2.3 1.084 2.811 1.095 2.81 0.057 7.295 2.963 9.953 6.448 0.856 1.123 2.363 3.873 3.348 6.112 2.058 4.676 2.615 5.435 4.26 5.796 1.634 0.359 6.135 3.225 5.832 3.715-0.135 0.218-0.866 0.4-1.625 0.403-4.755 0.020-4.316 1.664 1.323 4.948 1.486 0.866 2.703 1.662 2.703 1.77 0 0.404-2.845 0.149-3.668-0.328zM8.704 6.802c-0.72-0.72-1.128-0.005-0.458 0.803 0.405 0.488 0.64 0.547 0.759 0.189 0.095-0.285-0.041-0.731-0.301-0.992z"></path>
<path d="M30.703 32.857c-0.357-0.235-2.161-0.911-4.009-1.503s-3.794-1.347-4.324-1.679c-0.53-0.332-2.278-1.031-3.883-1.553-3.305-1.075-4.892-2.654-7.109-7.078-1.090-2.173-1.342-2.43-1.819-1.855-0.305 0.367-0.664 1.487-0.799 2.488l-0.244 1.82-0.784-0.969c-1.16-1.433-1.439-3.751-0.825-6.844 0.474-2.385 0.458-2.846-0.12-3.487-0.366-0.406-1.095-1.888-1.62-3.292s-1.551-3.4-2.28-4.434c-1.94-2.753-1.16-3.237 2.411-1.497 1.524 0.742 3.201 1.35 3.727 1.35 2.547 0 8.97 5.278 10.524 8.649 0.384 0.832 1.463 3.176 2.397 5.208 1.629 3.541 1.778 3.718 3.596 4.263 1.043 0.313 2.777 1.176 3.853 1.918 1.608 1.109 1.802 1.376 1.091 1.5-2.459 0.426-4.108 1.041-4.108 1.533 0 0.789 2.083 2.632 4.137 3.661 0.967 0.484 2.013 1.187 2.323 1.561 0.487 0.586 0.423 0.679-0.461 0.674-0.564-0.004-1.318-0.199-1.675-0.434zM9.081 7.593c0-0.649-0.776-1.339-1.12-0.996-0.302 0.302 0.296 1.619 0.734 1.619 0.212 0 0.386-0.28 0.386-0.623z"></path>
<path d="M30.487 32.599c-0.951-0.363-2.995-1.056-4.541-1.539s-3.103-1.124-3.459-1.425c-0.357-0.3-1.19-0.675-1.852-0.832s-2.261-0.754-3.554-1.325c-1.918-0.848-2.638-1.49-3.916-3.487-0.861-1.346-1.843-3.111-2.182-3.922s-0.777-1.474-0.973-1.474c-0.517 0-1.361 2.024-1.361 3.264 0 1.275-0.661 1.384-1.288 0.213-0.821-1.534-0.954-4.484-0.297-6.609 0.592-1.915 0.578-2.122-0.205-3.117-0.461-0.586-1.215-2.161-1.676-3.499s-1.426-3.233-2.145-4.212c-0.72-0.978-1.308-1.935-1.308-2.126 0-0.704 1.996-0.312 3.676 0.723 0.951 0.586 2.301 1.071 2.999 1.079 2.066 0.022 5.007 1.732 7.794 4.533 2.097 2.108 2.991 3.477 4.535 6.945 2.529 5.682 2.872 6.176 4.637 6.663 0.823 0.227 2.497 1.055 3.719 1.839l2.222 1.426-2.142 0.357c-1.178 0.196-2.322 0.535-2.541 0.752-0.797 0.789 0.539 2.389 3.383 4.052 4.068 2.379 4.289 3.178 0.475 1.721zM9.081 7.351c0-0.578-0.288-0.865-0.869-0.865-0.76 0-0.801 0.108-0.328 0.865 0.297 0.476 0.688 0.865 0.869 0.865s0.328-0.389 0.328-0.865z"></path>
<path d="M30.487 32.589c-0.951-0.369-3.063-1.131-4.693-1.695s-3.187-1.201-3.459-1.416c-0.273-0.215-1.274-0.636-2.225-0.935-5.014-1.575-5.591-2.085-8.458-7.483-1.327-2.498-1.643-2.843-2.104-2.287-0.298 0.36-0.649 1.447-0.779 2.417-0.315 2.347-1.063 1.999-1.762-0.819-0.484-1.952-0.465-2.602 0.134-4.662 0.621-2.136 0.625-2.472 0.043-3.115-0.359-0.397-1.217-2.108-1.907-3.804s-1.673-3.615-2.184-4.264c-1.912-2.43-0.664-3.127 2.314-1.292 0.951 0.586 2.271 1.071 2.933 1.079 3.809 0.043 9.301 4.957 11.953 10.695 3.153 6.822 3.098 6.744 5.325 7.568 1.127 0.417 2.867 1.298 3.866 1.957 1.685 1.111 1.74 1.207 0.762 1.312-1.72 0.185-4.299 0.978-4.299 1.321 0 0.898 1.646 2.406 4.343 3.982 3.879 2.265 3.966 2.903 0.197 1.443zM9.081 7.398c0-0.8-0.983-1.514-1.446-1.051-0.286 0.286 0.661 1.87 1.117 1.87 0.181 0 0.328-0.368 0.328-0.819z"></path>
<path d="M30.919 32.596c-0.951-0.365-3.098-1.107-4.771-1.648s-3.424-1.206-3.892-1.477c-0.468-0.271-2.001-0.908-3.406-1.416-3.309-1.197-5.076-2.884-7.125-6.804-1.663-3.182-1.664-3.182-2.37-2.174-0.389 0.555-0.706 1.538-0.706 2.184 0 1.594-0.629 1.872-1.234 0.544-0.627-1.377-0.641-5.258-0.024-7.027 0.4-1.149 0.339-1.52-0.406-2.467-0.482-0.613-1.21-2.126-1.616-3.361s-1.294-3.059-1.973-4.053c-0.679-0.994-1.234-2.037-1.234-2.317 0-0.697 2.056-0.175 3.55 0.902 0.644 0.464 1.725 0.844 2.402 0.844 2.861 0 8.3 3.929 10.58 7.644 0.558 0.909 1.757 3.344 2.664 5.409 1.749 3.985 2.424 4.837 4.156 5.251 0.595 0.142 2.151 0.942 3.459 1.777 2.318 1.48 2.344 1.519 1.038 1.53-1.559 0.013-4.065 0.809-4.065 1.292 0 0.838 1.855 2.524 4.272 3.881 1.456 0.818 2.647 1.645 2.647 1.838 0 0.427 0.15 0.454-1.946-0.35zM9.106 6.965c-0.268-0.501-0.773-0.911-1.121-0.911-0.807 0-0.796 0.215 0.079 1.551 0.868 1.324 1.79 0.758 1.042-0.64z"></path>
<path d="M29.838 32.217c-0.595-0.34-2.151-0.932-3.459-1.316s-2.768-0.945-3.243-1.246c-0.476-0.301-2.197-0.989-3.824-1.528-3.833-1.27-5.433-2.729-7.438-6.788l-1.636-3.312-0.78 0.963c-0.429 0.53-0.916 1.679-1.082 2.554l-0.302 1.591-0.557-1.297c-0.702-1.634-0.75-5.134-0.096-6.943 0.43-1.189 0.378-1.556-0.372-2.625-0.479-0.684-1.198-2.24-1.598-3.458s-1.297-2.97-1.995-3.892c-2.185-2.887-1.556-3.516 1.67-1.671 1.035 0.592 2.384 1.076 2.999 1.076 1.785 0 4.718 1.654 7.498 4.228 2.557 2.367 2.835 2.835 7.059 11.859 0.6 1.283 1.15 1.733 2.776 2.273 1.115 0.37 2.8 1.202 3.745 1.849l1.718 1.175-2.113 0.308c-1.162 0.169-2.31 0.505-2.551 0.746-0.66 0.66 0.735 2.507 2.917 3.861 3.756 2.33 3.591 2.191 2.612 2.202-0.476 0.006-1.351-0.268-1.946-0.608zM9.297 7.579c0-0.814-1.284-1.898-1.725-1.457-0.399 0.399 0.741 2.567 1.259 2.394 0.256-0.085 0.466-0.507 0.466-0.937z"></path>
<path d="M31.568 32.407c0-0.252 0.195-0.338 0.432-0.191s0.432 0.353 0.432 0.458c0 0.105-0.195 0.191-0.432 0.191s-0.432-0.206-0.432-0.458zM28.108 25.78c0-0.367 2.199-0.557 2.414-0.209 0.127 0.206-0.364 0.374-1.091 0.374s-1.323-0.075-1.323-0.166zM6.953 20.072c0.021-0.504 0.123-0.606 0.261-0.261 0.125 0.312 0.11 0.685-0.034 0.829s-0.246-0.112-0.227-0.568zM6.953 16.613c0.021-0.504 0.123-0.606 0.261-0.261 0.125 0.312 0.11 0.685-0.034 0.829s-0.246-0.112-0.227-0.568zM7.818 13.586c0.021-0.504 0.123-0.606 0.261-0.261 0.125 0.312 0.11 0.685-0.034 0.829s-0.246-0.112-0.227-0.568zM15.763 8.973l-1.709-1.838 1.838 1.709c1.709 1.59 2.037 1.966 1.709 1.966-0.071 0-0.898-0.827-1.838-1.838zM6.838 4.461c0.312-0.125 0.685-0.11 0.829 0.034s-0.112 0.246-0.568 0.227c-0.504-0.021-0.606-0.123-0.261-0.261zM2.162 2.595c0-0.238 0.206-0.432 0.458-0.432s0.338 0.195 0.191 0.432c-0.147 0.238-0.353 0.432-0.458 0.432s-0.191-0.195-0.191-0.432z"></path>
</svg>
