<!-- Generated by IcoMoon.io -->
<svg version="1.1" xmlns="http://www.w3.org/2000/svg" width="32" height="32" viewBox="0 0 32 32">
<title>mysql</title>
<path d="M30.903 31.066c-0.306-0.338-1.541-1.132-2.745-1.764-2.178-1.145-3.838-2.69-3.838-3.574 0-0.545 1.207-1.065 3.148-1.358l1.388-0.209-1.532-1.079c-0.843-0.593-2.403-1.405-3.468-1.804-2.161-0.809-2.046-0.647-5.080-7.142-1.234-2.641-1.996-3.781-3.797-5.677-2.519-2.652-5.876-4.619-7.884-4.619-0.699 0-1.593-0.314-2.313-0.813-1.249-0.866-3.501-1.422-3.501-0.865 0 0.179 0.533 1.098 1.185 2.042s1.524 2.652 1.939 3.796c0.414 1.144 1.127 2.623 1.583 3.287l0.83 1.207-0.575 1.898c-0.621 2.050-0.547 4.578 0.179 6.167 0.511 1.119 0.939 1.128 0.939 0.021 0-0.922 1.178-3.621 1.58-3.621 0.134 0 0.513 0.612 0.843 1.36 0.927 2.1 2.648 4.962 3.717 6.179 0.532 0.606 0.87 1.101 0.753 1.101-0.553 0-3.508-2.876-4.269-4.156l-0.854-1.436-0.183 1.127c-0.101 0.62-0.291 1.302-0.424 1.516-0.44 0.712-1.718 0.422-2.562-0.581-1.481-1.76-1.895-4.911-1.025-7.801 0.435-1.444 0.421-1.563-0.298-2.623-0.414-0.611-1.060-2.031-1.434-3.157s-1.179-2.699-1.788-3.496c-1.453-1.903-1.697-3.111-0.809-3.999 0.37-0.37 1.038-0.673 1.484-0.673 1.007 0 2.802 0.734 3.892 1.591 0.491 0.386 1.304 0.648 2.010 0.648 2.711 0 7.936 3.805 10.587 7.709 0.693 1.021 1.261 1.94 1.261 2.043s0.733 1.73 1.629 3.618l1.629 3.431 2.131 1.026c2.256 1.087 5.491 3.689 5.491 4.417 0 0.488-0.457 0.653-2.64 0.949-0.836 0.114-1.52 0.343-1.52 0.51s0.705 0.737 1.568 1.268c1.354 0.833 3.872 3.411 3.872 3.963 0 0.384-0.56 0.165-1.097-0.428zM7.091 7.040c-0.84-1.136-0.853-1.28-0.115-1.28 0.73 0 1.344 0.605 1.344 1.325 0 0.95-0.508 0.931-1.229-0.045z"></path>
<path d="M30.689 30.776c-0.423-0.326-1.676-1.072-2.785-1.658-2.037-1.076-3.584-2.54-3.584-3.391 0-0.57 1.063-0.994 3.2-1.278l1.625-0.216-1.675-1.128c-0.921-0.62-2.475-1.438-3.452-1.816-2.070-0.802-2.57-1.435-4.334-5.489-0.68-1.563-1.903-3.85-2.718-5.082-2.422-3.662-7.037-6.88-9.867-6.88-0.693 0-1.427-0.2-1.63-0.445-0.506-0.61-3.496-1.866-3.879-1.629-0.534 0.33-0.35 0.87 0.922 2.7 0.678 0.976 1.538 2.692 1.913 3.814s1.055 2.532 1.513 3.133c0.823 1.078 0.827 1.112 0.327 2.577-0.829 2.434-0.559 5.97 0.566 7.402 0.257 0.328 0.441-0.015 0.76-1.422 0.232-1.020 0.652-2.11 0.935-2.422 0.481-0.532 0.603-0.389 1.938 2.285 0.783 1.569 2.021 3.53 2.75 4.359s1.042 1.351 0.696 1.161c-0.939-0.514-3.846-3.612-4.422-4.712-0.496-0.947-0.503-0.95-0.52-0.16-0.033 1.517-0.395 2.244-1.221 2.452-1.198 0.301-2.462-1.244-2.966-3.625-0.325-1.538-0.313-2.274 0.069-4.182l0.464-2.315-1.215-2.485c-0.668-1.366-1.216-2.71-1.218-2.987s-0.576-1.271-1.277-2.21c-1.539-2.062-1.716-2.556-1.305-3.636 0.584-1.536 2.787-1.416 5.298 0.288 0.632 0.429 1.557 0.78 2.056 0.78 2.397 0 6.407 2.447 9.298 5.674 1.526 1.703 2.484 3.419 5.073 9.081 0.857 1.874 1.125 2.179 2.351 2.669 2.65 1.060 6.884 4.542 6.27 5.156-0.089 0.089-1.076 0.308-2.195 0.489s-2.085 0.378-2.147 0.441c-0.062 0.062 0.654 0.686 1.592 1.386 1.951 1.457 3.982 3.494 3.732 3.744-0.093 0.093-0.515-0.097-0.938-0.423zM6.975 6.718c-0.52-0.914-0.518-0.958 0.041-0.958 0.755 0 1.429 0.813 1.19 1.436-0.277 0.723-0.624 0.588-1.231-0.478z"></path>
<path d="M30.4 30.518c-0.616-0.426-1.748-1.079-2.515-1.452-1.557-0.756-3.565-2.61-3.565-3.292 0-0.488 1.329-0.999 3.444-1.326l1.364-0.211-1.929-1.359c-1.061-0.747-2.568-1.537-3.348-1.756s-1.637-0.638-1.904-0.933c-0.267-0.295-1.232-2.186-2.145-4.203s-2.157-4.425-2.765-5.352c-2.309-3.519-7.067-6.795-9.869-6.795-0.753 0-1.461-0.147-1.572-0.326-0.345-0.558-3.397-1.967-3.869-1.786-0.692 0.265-0.549 0.759 0.805 2.786 0.689 1.031 1.557 2.792 1.93 3.912s1.020 2.501 1.439 3.068c0.669 0.906 0.717 1.155 0.399 2.049-0.199 0.559-0.366 2.248-0.371 3.752-0.007 2.192 0.116 2.923 0.618 3.68l0.627 0.945 0.38-1.686c0.209-0.927 0.616-2.046 0.905-2.488l0.526-0.802 1.407 2.808c0.774 1.544 1.956 3.453 2.628 4.241 1.141 1.339 1.158 1.388 0.261 0.748-1.303-0.93-2.836-2.587-3.647-3.941l-0.671-1.12-0.001 1.005c-0.001 0.552-0.272 1.339-0.604 1.748-0.528 0.653-0.704 0.698-1.427 0.368-1.848-0.842-2.776-4.499-1.995-7.866 0.478-2.061 0.474-2.111-0.306-3.506-0.435-0.779-1.075-2.24-1.422-3.248s-1.12-2.505-1.718-3.327c-1.581-2.172-1.691-2.761-0.7-3.752 1.098-1.098 2.228-0.876 5.611 1.106 0.264 0.155 1.308 0.434 2.32 0.62 2.964 0.545 6.903 3.454 9.317 6.881 0.764 1.084 2.151 3.672 3.083 5.751l1.694 3.779 1.933 0.976c3.046 1.538 5.973 3.917 5.973 4.856 0 0.084-1.008 0.322-2.24 0.53s-2.24 0.503-2.24 0.655c0 0.153 0.612 0.637 1.36 1.076 1.374 0.807 4.319 3.583 4.060 3.829-0.077 0.073-0.644-0.216-1.26-0.642zM7.091 6.865c-0.474-1.039-0.468-1.105 0.097-1.105 0.552 0 1.247 1.154 0.967 1.607-0.322 0.522-0.674 0.356-1.065-0.502z"></path>
<path d="M30.55 30.582c-0.523-0.409-1.623-1.060-2.445-1.447-1.639-0.77-3.784-2.675-3.784-3.36 0-0.484 1.573-1.124 2.848-1.158 2.12-0.057 2.118-0.435-0.010-1.808-1.121-0.723-2.648-1.494-3.393-1.712s-1.562-0.626-1.816-0.907c-0.254-0.281-1.27-2.3-2.259-4.487s-2.303-4.664-2.92-5.505c-2.449-3.337-6.911-6.359-9.387-6.359-0.673 0-1.619-0.309-2.269-0.741-2.239-1.489-3.836-1.805-3.834-0.76 0 0.21 0.579 1.233 1.286 2.274s1.506 2.65 1.775 3.575c0.269 0.925 0.899 2.293 1.401 3.040 0.875 1.303 0.894 1.409 0.465 2.626-0.851 2.413-0.386 6.994 0.784 7.717 0.203 0.125 0.414-0.272 0.53-1.001 0.232-1.445 1.002-3.289 1.374-3.289 0.146 0 0.689 0.889 1.205 1.975s1.474 2.742 2.129 3.68c0.655 0.938 1.123 1.705 1.041 1.705-0.464 0-2.858-2.55-3.434-3.658l-0.677-1.302-0.274 1.332c-0.352 1.712-0.955 2.246-2.001 1.769-1.763-0.803-2.648-4.38-1.933-7.811 0.462-2.216 0.458-2.266-0.321-3.594-0.434-0.741-1.074-2.175-1.422-3.187s-1.118-2.513-1.711-3.334c-1.356-1.88-1.58-2.505-1.171-3.27 0.804-1.502 2.597-1.447 5.112 0.157 0.616 0.393 1.804 0.807 2.641 0.921 3.904 0.529 9.468 5.178 11.556 9.658 0.41 0.88 1.3 2.8 1.978 4.267 1.167 2.528 1.325 2.714 3.009 3.565 3.096 1.563 6.57 4.478 5.859 4.916-0.195 0.12-3.752 0.852-4.142 0.852-0.056 0-0.101 0.138-0.101 0.306s0.612 0.666 1.36 1.105c1.412 0.828 4.313 3.583 4.050 3.845-0.082 0.082-0.578-0.185-1.101-0.594zM7.248 6.908c-0.648-0.988-0.656-1.148-0.059-1.148 0.617 0 1.29 1.249 0.888 1.651-0.189 0.189-0.499 0.002-0.83-0.503z"></path>
<path d="M30.721 30.657c-0.439-0.356-1.604-1.054-2.588-1.551-1.638-0.827-3.813-2.816-3.813-3.486 0-0.439 1.883-0.98 3.408-0.98 0.766 0 1.392-0.129 1.392-0.287 0-0.437-3.055-2.335-5.205-3.233-2.151-0.899-2.064-0.777-4.928-6.88-1.556-3.315-2.113-4.151-4.075-6.115-2.472-2.475-5.548-4.281-7.303-4.289-0.577-0.003-1.409-0.215-1.849-0.472-1.718-1.003-3.385-1.75-3.92-1.757-0.896-0.011-0.669 1.12 0.573 2.849 0.623 0.867 1.428 2.45 1.788 3.518s1.017 2.474 1.459 3.125c0.834 1.229 0.832 1.149 0.132 4.571-0.355 1.738-0.015 4.141 0.751 5.311 0.444 0.677 0.627 0.769 0.846 0.422 0.154-0.243 0.282-0.78 0.285-1.194 0.006-0.87 0.916-2.928 1.295-2.928 0.141 0 0.505 0.649 0.808 1.443s1.162 2.374 1.91 3.512c0.747 1.138 1.123 1.941 0.835 1.785-0.817-0.444-2.153-1.988-2.785-3.219l-0.574-1.12-0.342 1.347c-0.188 0.741-0.518 1.522-0.733 1.735-0.646 0.64-1.85-0.153-2.608-1.718-0.769-1.589-0.92-4.771-0.336-7.092 0.309-1.228 0.268-1.486-0.4-2.477-0.41-0.608-1.020-1.963-1.357-3.011s-0.997-2.409-1.468-3.025c-1.832-2.395-2.097-3.82-0.863-4.628 0.86-0.563 1.901-0.348 4.294 0.889 0.841 0.435 2.347 0.958 3.348 1.163 2.776 0.569 6.462 3.201 8.989 6.417 0.622 0.792 2.056 3.388 3.186 5.768l2.054 4.328 2.128 1.048c2.142 1.054 5.797 4.062 5.508 4.531-0.086 0.139-0.697 0.345-1.359 0.459-2.485 0.428-2.964 0.564-2.964 0.841 0 0.157 0.756 0.775 1.68 1.375 1.686 1.093 3.997 3.281 3.738 3.537-0.076 0.076-0.498-0.154-0.937-0.511zM7.224 6.871c-0.611-0.932-0.54-1.228 0.226-0.934 0.626 0.24 0.887 0.878 0.57 1.391-0.168 0.272-0.409 0.134-0.796-0.457z"></path>
<path d="M31.035 30.874c-0.222-0.267-1.393-1.006-2.602-1.641-1.971-1.036-4.113-2.907-4.113-3.594 0-0.374 2.278-1 3.637-1 0.64 0 1.163-0.147 1.163-0.327 0-0.508-3.695-2.773-5.501-3.373l-1.62-0.538-1.734-3.721c-2.695-5.782-2.699-5.789-4.954-8.182-2.575-2.732-4.942-4.219-7.453-4.683-1.032-0.191-2.622-0.768-3.533-1.282-3.085-1.741-4.020-0.996-2.107 1.681 0.67 0.938 1.607 2.785 2.081 4.105s1.164 2.721 1.531 3.113c0.663 0.708 0.664 0.731 0.1 3.129-0.601 2.553-0.52 4.141 0.314 6.137 0.619 1.483 1.224 1.209 1.493-0.676 0.12-0.838 0.463-1.794 0.762-2.125 0.524-0.579 0.579-0.529 1.453 1.319 0.499 1.056 1.361 2.578 1.914 3.383 0.863 1.254 0.909 1.41 0.32 1.095-0.61-0.326-1.7-1.659-2.798-3.419-0.326-0.523-0.399-0.429-0.603 0.776-0.311 1.844-1.074 2.243-2.306 1.206-1.569-1.321-2.139-4.791-1.319-8.044 0.334-1.328 0.291-1.561-0.601-3.262-0.529-1.007-1.144-2.408-1.366-3.112s-0.96-2.059-1.639-3.012c-1.25-1.755-1.551-3.103-0.85-3.804 0.81-0.81 3.433-0.27 5.056 1.041 0.264 0.213 1.398 0.55 2.519 0.749 4.31 0.764 9.224 5.188 11.709 10.539 2.685 5.784 2.796 5.958 4.252 6.693 2.217 1.119 4.329 2.564 5.472 3.744 1.179 1.216 1.191 1.2-1.232 1.65-2.824 0.524-2.85 0.682-0.38 2.359 1.023 0.695 2.254 1.78 2.736 2.412 0.852 1.116 1.008 1.638 0.199 0.663zM7.253 6.916c-0.321-0.49-0.497-0.979-0.391-1.085 0.333-0.333 1.205 0.785 1.087 1.395-0.095 0.492-0.202 0.444-0.696-0.31z"></path>
<path d="M30.24 30.211c-0.352-0.269-1.477-0.937-2.5-1.485-1.837-0.983-3.1-2.194-3.1-2.97 0-0.443 2.303-1.115 3.822-1.115 0.538 0 0.978-0.109 0.978-0.243 0-0.44-3.971-2.938-5.488-3.452-0.818-0.277-1.703-0.747-1.966-1.045s-1.297-2.341-2.298-4.541c-1.001-2.2-2.405-4.76-3.121-5.69-2.399-3.117-6.231-5.656-9.129-6.049-0.835-0.113-2.059-0.562-2.72-0.997-1.242-0.818-3.438-1.131-3.653-0.52-0.067 0.19 0.458 1.198 1.166 2.24s1.586 2.79 1.95 3.883c0.364 1.093 1.027 2.525 1.473 3.181l0.81 1.194-0.558 1.844c-0.639 2.111-0.509 4.723 0.316 6.317 0.745 1.441 1.345 1.269 1.537-0.439 0.089-0.789 0.416-1.824 0.728-2.299l0.566-0.863 0.596 1.517c0.328 0.834 1.116 2.337 1.751 3.339l1.155 1.822-1.026-0.96c-0.564-0.528-1.323-1.536-1.687-2.24-0.649-1.256-0.666-1.265-0.903-0.48-0.133 0.44-0.329 1.196-0.436 1.68-0.144 0.652-0.387 0.88-0.938 0.88-2.17 0-3.446-4.672-2.308-8.451 0.435-1.444 0.421-1.563-0.298-2.623-0.414-0.611-1.051-2.005-1.416-3.098s-1.238-2.835-1.942-3.871c-1.391-2.048-1.548-2.762-0.777-3.534 0.885-0.885 2.797-0.48 5.097 1.081 0.528 0.358 1.472 0.653 2.097 0.654 3.088 0.006 9.492 5.174 11.305 9.122 0.242 0.528 1.126 2.432 1.963 4.23l1.523 3.27 1.956 0.939c2.006 0.963 5.636 3.658 5.636 4.184 0 0.334-0.565 0.524-2.407 0.809-2.059 0.319-2.273 0.605-1.109 1.482 1.245 0.939 4.376 3.793 4.156 3.788-0.088-0.002-0.448-0.223-0.8-0.492zM7.418 7.020c-0.232-0.375-0.338-0.766-0.235-0.869 0.309-0.309 0.885 0.462 0.767 1.027-0.092 0.439-0.179 0.414-0.532-0.157z"></path>
</svg>
