<!-- Generated by IcoMoon.io -->
<svg version="1.1" xmlns="http://www.w3.org/2000/svg" width="32" height="32" viewBox="0 0 32 32">
<title>oracle</title>
<path d="M6.361 25.608c-8.129-3.675-8.245-14.899-0.193-18.712 1.837-0.87 2.308-0.913 10.024-0.913s8.187 0.043 10.024 0.913c8.052 3.813 7.936 15.037-0.193 18.712-1.568 0.709-2.515 0.784-9.831 0.784s-8.263-0.076-9.831-0.784zM25.13 21.555c3.828-2.839 3.827-7.888-0.001-10.724-1.021-0.756-1.577-0.807-8.936-0.807s-7.915 0.050-8.936 0.807c-3.466 2.568-3.854 7.244-0.836 10.062 1.599 1.492 2.565 1.639 10.226 1.553 6.827-0.077 7.478-0.146 8.482-0.89z"></path>
<path d="M6.768 25.744c-3.603-1.272-6.575-5.589-6.575-9.551 0-4.067 2.972-8.293 6.733-9.574 2.732-0.931 15.803-0.931 18.534 0 3.761 1.282 6.733 5.507 6.733 9.574s-2.972 8.293-6.733 9.574c-2.638 0.899-16.128 0.882-18.692-0.023zM24.747 21.916c4.459-2.116 4.459-9.33 0-11.446-1.975-0.937-15.134-0.937-17.109 0-4.446 2.11-4.485 9.252-0.063 11.43 1.904 0.938 15.202 0.95 17.172 0.015z"></path>
<path d="M7.518 25.962c-4.571-1.246-7.951-6.66-7.143-11.442 0.369-2.184 2.439-5.437 4.252-6.681 2.387-1.639 4.576-1.949 12.723-1.802 6.901 0.124 7.434 0.187 9.197 1.088 3.506 1.791 5.425 4.988 5.442 9.068 0.010 2.312-0.159 3.003-1.178 4.819-1.292 2.304-3.817 4.321-6.261 5-1.764 0.49-15.197 0.451-17.032-0.050zM24.873 21.84c5.038-2.677 4.237-10.177-1.262-11.81-2.712-0.805-12.126-0.805-14.838 0-4.285 1.273-5.976 6.105-3.455 9.878 1.595 2.387 2.652 2.644 10.881 2.645 6.396 0.001 7.503-0.090 8.675-0.713z"></path>
<path d="M7.261 25.696c-2.861-0.989-4.538-2.43-5.783-4.97-2.822-5.756-0.103-12.131 6.045-14.173 1.528-0.508 3.262-0.601 9.351-0.504 7.444 0.119 7.484 0.124 9.724 1.276 4.020 2.068 6.237 6.71 5.222 10.937-0.9 3.75-3.483 6.503-7.113 7.581-2.934 0.871-14.787 0.771-17.445-0.148zM23.833 22.381c6.22-2.218 5.795-10.853-0.62-12.58-0.928-0.25-4.128-0.366-7.95-0.288-7.122 0.145-8.048 0.407-9.864 2.788-2.637 3.457-1.059 8.609 3.083 10.063 2.113 0.742 13.283 0.754 15.351 0.017z"></path>
<path d="M7.834 25.887c-4.976-1.381-8.35-6.781-7.235-11.578 0.587-2.524 1.562-4.122 3.555-5.829 2.446-2.093 4.419-2.504 12.038-2.504 8.363 0 9.884 0.388 12.75 3.254 2.869 2.869 3.678 6.147 2.519 10.198-0.615 2.148-3.918 5.553-6.052 6.24-2.186 0.703-15.244 0.865-17.575 0.219zM25.413 21.642c0.796-0.608 1.779-1.649 2.184-2.313 0.882-1.447 0.981-4.448 0.196-5.95-0.816-1.563-2.628-3.13-4.109-3.555-1.711-0.491-13.272-0.491-14.983 0-1.481 0.425-3.293 1.992-4.109 3.555-0.785 1.503-0.686 4.504 0.196 5.95 0.815 1.337 2.885 3.036 4.080 3.349 0.424 0.111 3.995 0.172 7.935 0.136l7.164-0.066z"></path>
<path d="M8.572 26.008c-3.532-0.876-5.857-2.782-7.257-5.947-2.201-4.978 0.075-10.628 5.239-13.005 1.808-0.832 2.407-0.887 9.639-0.887 7.237 0 7.832 0.055 9.684 0.893 5.091 2.304 7.357 7.998 5.187 13.032-1.043 2.42-2.696 4.071-5.233 5.227-1.75 0.798-2.568 0.887-8.867 0.963-3.817 0.046-7.593-0.078-8.392-0.276zM24.751 22.132c4.766-2.307 4.766-9.57 0-11.878-1.504-0.728-2.352-0.808-8.558-0.808s-7.055 0.080-8.558 0.808c-4.75 2.3-4.769 9.524-0.030 11.869 1.494 0.74 2.298 0.816 8.563 0.817 6.232 0 7.079-0.079 8.584-0.808z"></path>
<path d="M6.051 25.025c-2.405-1.198-4.090-3.134-4.93-5.663-0.783-2.358-0.783-3.982 0-6.34 0.862-2.596 2.559-4.496 5.152-5.769 2.198-1.080 2.246-1.085 9.92-1.085s7.721 0.005 9.92 1.085c7.48 3.673 7.611 14.090 0.222 17.772-1.966 0.98-2.159 0.999-10.142 0.999s-8.176-0.019-10.142-0.999zM24.598 22.316c1.976-0.998 2.9-2.055 3.576-4.090 1.071-3.225-0.272-6.462-3.327-8.021-1.325-0.676-2.285-0.76-8.654-0.76s-7.329 0.084-8.654 0.76c-1.878 0.958-2.864 2.204-3.477 4.395-0.41 1.463-0.387 2.008 0.15 3.625 0.664 1.998 1.574 3.058 3.499 4.072 1.717 0.905 15.102 0.919 16.887 0.017z"></path>
</svg>
