<!-- Generated by IcoMoon.io -->
<svg version="1.1" xmlns="http://www.w3.org/2000/svg" width="32" height="32" viewBox="0 0 32 32">
<title>oracle</title>
<path d="M8 23.975c-6.747-3.051-6.843-12.366-0.16-15.531 1.525-0.722 1.916-0.758 8.32-0.758s6.795 0.036 8.32 0.758c6.683 3.165 6.587 12.48-0.16 15.531-1.301 0.588-2.087 0.651-8.16 0.651s-6.859-0.063-8.16-0.651zM23.578 20.611c3.177-2.357 3.176-6.547-0.001-8.901-0.847-0.628-1.309-0.669-7.417-0.669s-6.569 0.042-7.417 0.669c-2.876 2.131-3.199 6.012-0.694 8.351 1.327 1.239 2.129 1.361 8.488 1.289 5.666-0.064 6.207-0.121 7.040-0.739z"></path>
<path d="M8.337 24.087c-2.991-1.056-5.457-4.639-5.457-7.927 0-3.376 2.466-6.883 5.588-7.947 2.267-0.773 13.116-0.773 15.383 0 3.122 1.064 5.588 4.571 5.588 7.947s-2.466 6.883-5.588 7.947c-2.19 0.746-13.386 0.732-15.515-0.019zM23.26 20.91c3.701-1.756 3.701-7.744 0-9.5-1.639-0.778-12.561-0.778-14.2 0-3.69 1.751-3.722 7.679-0.052 9.487 1.58 0.779 12.618 0.789 14.252 0.013z"></path>
<path d="M8.96 24.268c-3.794-1.034-6.599-5.528-5.929-9.497 0.306-1.812 2.024-4.512 3.529-5.545 1.981-1.36 3.798-1.618 10.56-1.496 5.727 0.103 6.17 0.155 7.633 0.903 2.91 1.486 4.503 4.14 4.517 7.527 0.008 1.919-0.132 2.492-0.977 4-1.073 1.913-3.168 3.586-5.196 4.15-1.464 0.407-12.614 0.374-14.137-0.041zM23.365 20.847c4.182-2.222 3.517-8.447-1.047-9.802-2.251-0.668-10.065-0.668-12.316 0-3.557 1.056-4.96 5.067-2.868 8.199 1.324 1.981 2.201 2.195 9.031 2.195 5.308 0 6.227-0.075 7.2-0.592z"></path>
<path d="M8.746 24.048c-2.375-0.821-3.766-2.017-4.8-4.125-2.342-4.778-0.086-10.069 5.017-11.764 1.268-0.421 2.708-0.499 7.761-0.418 6.178 0.099 6.212 0.103 8.071 1.059 3.337 1.716 5.176 5.569 4.335 9.078-0.747 3.112-2.891 5.397-5.904 6.292-2.435 0.723-12.273 0.64-14.48-0.122zM22.501 21.296c5.163-1.841 4.81-9.008-0.514-10.441-0.771-0.207-3.426-0.304-6.598-0.239-5.911 0.12-6.68 0.337-8.187 2.314-2.189 2.87-0.879 7.146 2.559 8.353 1.754 0.616 11.025 0.626 12.741 0.014z"></path>
<path d="M9.223 24.206c-4.13-1.146-6.931-5.628-6.005-9.61 0.487-2.095 1.296-3.422 2.951-4.838 2.030-1.738 3.668-2.078 9.991-2.078 6.941 0 8.204 0.322 10.583 2.701 2.381 2.381 3.053 5.102 2.090 8.464-0.51 1.783-3.252 4.609-5.024 5.179-1.814 0.583-12.653 0.718-14.587 0.182zM23.813 20.683c0.661-0.504 1.477-1.368 1.813-1.92 0.732-1.201 0.814-3.692 0.163-4.939-0.678-1.297-2.181-2.598-3.411-2.95-1.42-0.407-11.016-0.407-12.436 0-1.229 0.353-2.733 1.653-3.411 2.95-0.652 1.247-0.57 3.738 0.163 4.939 0.676 1.109 2.395 2.52 3.386 2.779 0.352 0.092 3.316 0.143 6.586 0.113l5.946-0.055z"></path>
<path d="M9.835 24.307c-2.931-0.727-4.862-2.309-6.024-4.936-1.827-4.131 0.063-8.822 4.349-10.794 1.501-0.691 1.998-0.736 8-0.736 6.007 0 6.501 0.046 8.038 0.741 4.225 1.912 6.106 6.638 4.305 10.817-0.866 2.008-2.238 3.379-4.343 4.339-1.452 0.662-2.132 0.736-7.36 0.799-3.168 0.038-6.302-0.065-6.965-0.229zM23.264 21.089c3.956-1.915 3.956-7.944 0-9.859-1.248-0.604-1.952-0.671-7.104-0.671s-5.855 0.066-7.104 0.671c-3.943 1.909-3.958 7.905-0.025 9.851 1.24 0.614 1.907 0.677 7.108 0.678 5.173 0 5.876-0.066 7.125-0.67z"></path>
<path d="M7.742 23.491c-1.996-0.995-3.395-2.601-4.092-4.7-0.65-1.957-0.65-3.305 0-5.262 0.716-2.154 2.124-3.732 4.276-4.788 1.825-0.896 1.864-0.9 8.233-0.9s6.409 0.004 8.233 0.9c6.209 3.049 6.317 11.695 0.184 14.751-1.632 0.813-1.792 0.829-8.418 0.829s-6.786-0.016-8.418-0.829zM23.136 21.243c1.64-0.829 2.407-1.706 2.968-3.394 0.889-2.676-0.226-5.363-2.761-6.657-1.1-0.561-1.897-0.631-7.183-0.631s-6.083 0.070-7.183 0.631c-1.558 0.795-2.377 1.83-2.886 3.648-0.34 1.214-0.321 1.667 0.125 3.009 0.551 1.658 1.307 2.538 2.904 3.38 1.425 0.751 12.535 0.763 14.016 0.014z"></path>
</svg>
