<!-- Generated by IcoMoon.io -->
<svg version="1.1" xmlns="http://www.w3.org/2000/svg" width="32" height="32" viewBox="0 0 32 32">
<title>pivotaltracker</title>
<path d="M15.968 29.523c-0.294-0.313-3.66-5.603-3.991-6.271-0.198-0.401-0.128-0.569 0.966-2.304 0.649-1.029 1.275-1.964 1.391-2.077 0.157-0.153 0.395-0.168 0.925-0.059 0.393 0.080 0.896 0.117 1.12 0.083s0.492-0.008 0.598 0.059c0.364 0.233 4.951 7.647 4.861 7.857-0.078 0.181-5.259 2.99-5.515 2.99-0.052 0-0.212-0.125-0.355-0.278zM5.667 24.62c-1.673-0.886-2.572-1.455-2.572-1.625 0-0.144 0.926-1.728 2.059-3.519l2.059-3.257 5.387-0.080 1.143 2.223-2.293 3.615c-2.585 4.076-2.539 4.013-2.926 4.009-0.156-0.002-1.441-0.616-2.856-1.366zM20.309 22.583c-0.35-0.319-2.39-3.642-2.39-3.893 0-0.111 0.177-0.399 0.392-0.641s0.527-0.664 0.691-0.939l0.299-0.499 9.867 0.084v6.037l-4.301 0.042c-3.598 0.036-4.343 0.004-4.558-0.191zM19.21 15.384c-0.143-0.328-0.411-0.851-0.596-1.164l-0.336-0.568 2.409-3.801c1.423-2.245 2.529-3.822 2.702-3.853 0.442-0.079 5.516 2.648 5.516 2.964 0 0.265-3.676 6.229-4.154 6.739-0.226 0.241-0.595 0.278-2.771 0.278h-2.511zM2.824 15.143c-0.048-0.114-0.065-1.491-0.039-3.061l0.048-2.854 4.251-0.043c2.944-0.030 4.323 0.012 4.486 0.135 0.305 0.231 2.511 3.729 2.511 3.982 0 0.107-0.149 0.341-0.332 0.522s-0.484 0.578-0.669 0.884l-0.337 0.556-4.916 0.042c-3.905 0.034-4.934-0-5.003-0.164zM16.527 13.117c-0.333-0.071-0.671-0.093-0.751-0.048s-0.325 0.040-0.546-0.010c-0.304-0.069-0.976-1.005-2.787-3.879-1.319-2.094-2.343-3.889-2.289-4.014 0.15-0.349 5.12-2.874 5.546-2.817 0.277 0.037 0.886 0.861 2.427 3.28 1.132 1.777 2.058 3.334 2.058 3.46 0 0.241-1.969 3.436-2.412 3.914-0.28 0.302-0.346 0.309-1.246 0.116z"></path>
<path d="M16.044 29.444c-0.382-0.437-4.055-6.347-4.054-6.523 0-0.104 0.54-1.047 1.199-2.095l1.198-1.906 1.199 0.051c0.913 0.039 1.267 0.123 1.484 0.352 0.157 0.166 1.288 1.887 2.514 3.827l2.229 3.526-0.399 0.294c-0.423 0.312-4.924 2.674-5.096 2.674-0.056 0-0.179-0.089-0.275-0.199zM5.754 24.525c-1.615-0.85-2.485-1.4-2.485-1.571 0-0.144 0.911-1.702 2.024-3.461 1.444-2.282 2.131-3.223 2.398-3.283 0.206-0.046 1.349-0.064 2.541-0.039l2.167 0.046 1.188 2.139-2.346 3.697c-1.617 2.547-2.448 3.709-2.674 3.738-0.18 0.023-1.446-0.547-2.813-1.267zM20.329 22.374c-0.499-0.535-2.236-3.397-2.236-3.683 0-0.159 0.123-0.383 0.274-0.497s0.427-0.48 0.614-0.814l0.34-0.606h4.861c4.272 0 4.874 0.030 4.967 0.251 0.138 0.327 0.138 5.048 0 5.376-0.093 0.22-0.639 0.251-4.333 0.251-3.811 0-4.253-0.027-4.486-0.278zM19.39 15.547c-0.050-0.155-0.281-0.631-0.513-1.058-0.339-0.622-0.385-0.843-0.232-1.112 1.149-2.032 4.614-7.247 4.815-7.247 0.141 0 1.385 0.587 2.764 1.304 1.672 0.87 2.507 1.393 2.507 1.572 0 0.148-0.923 1.723-2.052 3.502l-2.052 3.234-2.573 0.044c-2.339 0.040-2.581 0.018-2.664-0.238zM3.020 15.095c-0.227-0.207-0.274-0.693-0.271-2.82 0.001-1.414 0.066-2.661 0.143-2.772 0.108-0.156 1.108-0.192 4.397-0.159l4.257 0.043 1.18 1.827c0.649 1.005 1.18 1.943 1.181 2.086s-0.123 0.352-0.273 0.466c-0.151 0.114-0.422 0.471-0.603 0.794s-0.456 0.631-0.612 0.686c-0.156 0.054-2.272 0.099-4.704 0.099-3.786 0-4.46-0.036-4.694-0.25zM16.058 12.978c-0.592-0.053-1.11-0.132-1.153-0.176s-1.115-1.723-2.384-3.733c-1.654-2.619-2.263-3.718-2.15-3.881 0.24-0.346 4.79-2.708 5.222-2.711 0.309-0.002 0.747 0.581 2.398 3.186 1.111 1.754 2.017 3.309 2.012 3.455-0.012 0.427-2.326 3.915-2.611 3.936-0.142 0.010-0.743-0.025-1.335-0.078z"></path>
<path d="M16.042 29.285c-0.236-0.268-3.795-5.887-3.927-6.199-0.088-0.208 1.848-3.557 2.295-3.972 0.073-0.068 0.684-0.076 1.358-0.019l1.226 0.104 2.293 3.625c1.261 1.994 2.293 3.721 2.293 3.839 0 0.202-4.818 2.821-5.189 2.821-0.096 0-0.253-0.089-0.349-0.199zM5.889 24.503c-1.383-0.73-2.542-1.399-2.574-1.488s0.867-1.619 1.999-3.4l2.059-3.238 5.052-0.083 0.48 0.942c0.264 0.518 0.48 1.021 0.48 1.118 0 0.179-3.79 6.244-4.398 7.038-0.184 0.24-0.39 0.437-0.458 0.437s-1.255-0.597-2.639-1.326zM20.588 22.527c-0.224-0.13-2.495-3.619-2.495-3.833 0-0.071 0.23-0.406 0.512-0.746 1.061-1.279 0.567-1.174 5.49-1.174 2.438 0 4.557 0.043 4.709 0.096 0.237 0.083 0.276 0.485 0.276 2.843s-0.039 2.76-0.276 2.843c-0.402 0.14-7.97 0.114-8.216-0.029zM19.134 14.778c-0.313-0.598-0.499-1.156-0.435-1.307 0.206-0.49 4.485-7.182 4.651-7.276 0.19-0.107 5.206 2.467 5.321 2.73 0.075 0.172-3.575 6.079-4.089 6.618-0.228 0.239-0.593 0.278-2.584 0.278h-2.318zM3.036 15.080c-0.064-0.058-0.116-1.337-0.116-2.843 0-2.349 0.039-2.75 0.276-2.833 0.152-0.053 2.031-0.096 4.177-0.096h3.901l0.418 0.516c0.23 0.284 0.826 1.174 1.325 1.977l0.906 1.461-1.441 1.924h-4.664c-2.565 0-4.717-0.048-4.781-0.106zM15.771 12.821l-0.839-0.098-2.256-3.571c-1.241-1.964-2.256-3.683-2.256-3.82 0-0.36 5.027-2.952 5.357-2.761 0.246 0.142 4.238 6.308 4.233 6.537-0.002 0.066-0.534 0.942-1.183 1.947-1.306 2.021-1.231 1.978-3.054 1.766z"></path>
<path d="M16.136 29.205c-0.359-0.375-3.973-6.13-3.97-6.321 0.002-0.084 0.535-0.974 1.185-1.979l1.182-1.827 0.951 0.050c0.523 0.027 1.069 0.081 1.213 0.12 0.291 0.078 4.709 7 4.709 7.377-0 0.134-0.704 0.602-1.613 1.072-0.887 0.459-2.013 1.048-2.502 1.31-0.839 0.449-0.904 0.46-1.155 0.198zM5.887 24.399c-1.294-0.692-2.38-1.333-2.413-1.425-0.081-0.221 3.578-6.040 4.023-6.398 0.287-0.231 0.691-0.278 2.404-0.278 2.165 0 2.611 0.067 2.611 0.39 0 0.109 0.191 0.526 0.425 0.927l0.425 0.729-2.183 3.464c-2.354 3.735-2.448 3.867-2.744 3.856-0.108-0.004-1.255-0.573-2.549-1.265zM19.819 21.342c-0.402-0.634-0.916-1.444-1.141-1.801-0.505-0.799-0.512-1.044-0.044-1.431 0.202-0.166 0.478-0.499 0.615-0.74l0.248-0.437h4.686c4.112 0 4.699 0.031 4.791 0.251 0.138 0.327 0.138 4.73 0 5.058-0.092 0.219-0.633 0.251-4.265 0.251h-4.159zM19.532 15.322c-0.054-0.187-0.273-0.641-0.488-1.009l-0.391-0.669 2.304-3.628c1.267-1.996 2.392-3.655 2.5-3.688 0.258-0.078 5.099 2.486 5.099 2.701 0 0.197-3.605 5.952-3.981 6.355-0.223 0.239-0.586 0.278-2.603 0.278-2.248 0-2.348-0.014-2.441-0.34zM3.129 14.995c-0.221-0.201-0.31-4.786-0.103-5.277 0.092-0.219 0.624-0.251 4.159-0.251 3.642 0 4.080 0.028 4.318 0.278 0.408 0.427 2.23 3.374 2.23 3.607 0 0.113-0.128 0.303-0.285 0.422s-0.472 0.485-0.7 0.814l-0.414 0.598h-4.497c-3.265 0-4.555-0.052-4.707-0.191zM16.094 12.816l-1.039-0.092-2.315-3.654c-1.273-2.010-2.316-3.702-2.318-3.761-0.005-0.19 4.932-2.688 5.215-2.638 0.27 0.047 4.196 6.060 4.198 6.429 0.001 0.212-1.832 3.151-2.236 3.583-0.143 0.153-0.306 0.266-0.363 0.251s-0.571-0.068-1.143-0.119z"></path>
<path d="M15.932 28.731c-0.878-1.236-3.595-5.629-3.593-5.811 0.001-0.104 0.494-0.975 1.095-1.936 0.749-1.196 1.189-1.743 1.394-1.734 0.165 0.007 0.677 0.025 1.138 0.040l0.839 0.026 2.32 3.662c1.276 2.014 2.289 3.691 2.251 3.725-0.094 0.086-3.891 2.094-4.516 2.388-0.496 0.234-0.51 0.228-0.928-0.361zM5.929 24.299c-1.528-0.798-2.306-1.295-2.297-1.466 0.008-0.143 0.89-1.618 1.962-3.278l1.948-3.018 4.709-0.083 0.977 1.92-2.239 3.529c-1.232 1.941-2.354 3.546-2.494 3.566s-1.295-0.506-2.566-1.17zM19.438 20.547c-1.048-1.64-1.122-1.814-0.89-2.105 0.139-0.175 0.415-0.55 0.613-0.834l0.36-0.516h9.383v5.243h-8.325zM19.276 14.591l-0.473-0.915 2.217-3.549c1.22-1.952 2.312-3.585 2.427-3.628 0.34-0.128 4.937 2.328 4.922 2.629-0.008 0.143-0.89 1.618-1.962 3.278l-1.948 3.018-4.709 0.083zM3.211 14.921c-0.064-0.058-0.116-1.274-0.116-2.701v-2.595l8.284 0.005 1.090 1.725c1.090 1.724 1.249 2.133 0.909 2.325-0.1 0.056-0.375 0.382-0.613 0.724l-0.431 0.622h-4.503c-2.477 0-4.555-0.048-4.619-0.106zM16.030 12.658l-0.929-0.093-2.254-3.544c-1.24-1.949-2.254-3.599-2.254-3.665 0-0.208 4.687-2.588 4.989-2.534s4.080 5.852 4.080 6.261c0 0.437-2.169 3.718-2.442 3.693-0.144-0.013-0.68-0.066-1.19-0.117z"></path>
<path d="M14.295 26.043l-1.967-3.117 0.952-1.527c1.403-2.25 1.248-2.125 2.481-1.998l1.056 0.109 2.207 3.479c1.214 1.913 2.207 3.534 2.207 3.601 0 0.137-4.564 2.577-4.812 2.573-0.087-0.002-1.043-1.406-2.125-3.12zM6.059 24.261c-1.295-0.685-2.354-1.31-2.354-1.388s0.863-1.515 1.918-3.195l1.918-3.053 4.709-0.005 0.422 0.889c0.305 0.641 0.375 0.961 0.252 1.149-0.094 0.143-1.106 1.744-2.249 3.557s-2.119 3.296-2.17 3.294c-0.050-0.001-1.151-0.563-2.446-1.248zM20.474 21.977c-1.239-1.822-2.042-3.242-1.917-3.391 0.081-0.096 0.363-0.472 0.628-0.835l0.482-0.659h9.064v5.243h-4.007c-3.967 0-4.010-0.004-4.25-0.357zM19.413 14.61c-0.247-0.491-0.449-0.931-0.449-0.979 0-0.138 4.379-7.017 4.516-7.094 0.23-0.129 4.817 2.412 4.758 2.635-0.031 0.118-0.924 1.59-1.986 3.272l-1.93 3.058h-4.461zM3.269 12.247v-2.621h7.993l2.313 3.67-0.432 0.468c-0.238 0.257-0.482 0.611-0.543 0.787-0.107 0.308-0.26 0.319-4.721 0.319h-4.61zM14.871 12.008c-0.866-1.248-4.103-6.459-4.103-6.605 0-0.16 4.524-2.611 4.812-2.607 0.123 0.002 3.808 5.65 4.050 6.207 0.030 0.069-0.441 0.913-1.046 1.875l-1.101 1.749-1.113-0.031c-1.068-0.030-1.129-0.054-1.499-0.587z"></path>
<path d="M14.548 26.256c-1.016-1.6-1.897-3.027-1.958-3.172-0.070-0.166 0.296-0.901 0.995-2l1.105-1.738 0.96 0.084c0.528 0.046 1.013 0.129 1.078 0.183s1.099 1.651 2.3 3.548l2.182 3.449-0.556 0.303c-0.306 0.167-1.144 0.608-1.864 0.981s-1.553 0.811-1.851 0.974l-0.543 0.296zM6.147 24.221c-1.151-0.616-2.161-1.179-2.244-1.251s0.725-1.52 1.813-3.243l1.965-3.111h4.492l0.171 0.437c0.094 0.24 0.288 0.626 0.431 0.857 0.253 0.409 0.2 0.515-1.963 3.931-1.223 1.931-2.301 3.508-2.397 3.505s-1.116-0.509-2.267-1.125zM19.759 20.687c-1.263-1.954-1.248-1.902-0.722-2.53 0.248-0.297 0.451-0.622 0.451-0.723 0-0.134 1.242-0.184 4.622-0.184h4.622v4.925h-8.011zM19.657 14.908c-0.094-0.24-0.282-0.617-0.418-0.838-0.236-0.383-0.152-0.552 1.892-3.78 1.177-1.858 2.222-3.454 2.324-3.547 0.13-0.119 0.821 0.169 2.338 0.973 1.184 0.628 2.222 1.201 2.305 1.274s-0.724 1.518-1.813 3.243l-1.965 3.111h-4.492zM3.269 12.326v-2.542h7.994l1.061 1.684c0.583 0.926 1.061 1.74 1.061 1.808s-0.111 0.207-0.246 0.309c-0.135 0.102-0.374 0.433-0.531 0.734l-0.286 0.549h-9.052zM16.087 12.524l-0.872-0.061-2.174-3.464c-1.196-1.905-2.159-3.527-2.14-3.603 0.042-0.173 4.358-2.444 4.635-2.439 0.253 0.005 3.999 5.955 3.922 6.229-0.143 0.504-2.121 3.454-2.299 3.428-0.11-0.016-0.592-0.057-1.072-0.091z"></path>
</svg>
