<!-- Generated by IcoMoon.io -->
<svg version="1.1" xmlns="http://www.w3.org/2000/svg" width="32" height="32" viewBox="0 0 32 32">
<title>pivotaltracker</title>
<path d="M12.374 7.746l3.469 6.023c0.57-0.052 1.137-0.002 1.702 0.169l1.832-3.16-3.104-5.348-3.9 2.316z"></path>
<path d="M16.286 5.384c0.007 0.003 0.015 0.004 0.029 0.022l3.104 5.349c0.006 0.016 0.007 0.031 0 0.047l-1.832 3.16c-0.067 0.087-0.524-0.109-0.895-0.145-0.281-0.027-0.563-0.025-0.844-0.001 0 0-0.029-0.002-0.045-0.024-1.156-2.008-2.313-4.015-3.469-6.023-0.002-0.004 0.017-0.064 0.017-0.064s3.924-2.323 3.924-2.323c0.004 0 0.008 0.001 0.012 0.002zM12.438 7.763l3.431 5.956c0.55-0.047 1.106 0.008 1.637 0.158 0 0 1.817-3.099 1.817-3.099l-3.066-5.283c-1.273 0.756-2.546 1.512-3.819 2.268z"></path>
<path d="M21.819 8.531l-3.587 5.953c0.322 0.473 0.553 0.994 0.677 1.571l3.652 0.071 3.175-5.307-3.916-2.289z"></path>
<path d="M21.824 8.484c0.005 0 0.009 0.002 0.014 0.004 1.297 0.781 2.614 1.527 3.921 2.291 0.034 0.026 0.027 0.043 0.017 0.065l-3.175 5.307c-0.011 0.014-0.024 0.021-0.042 0.023l-3.652-0.071c-0.105-0.014-0.158-0.511-0.307-0.853-0.112-0.259-0.251-0.505-0.408-0.739 0 0-0.012-0.026-0.001-0.051 1.196-1.984 2.391-3.969 3.587-5.953 0.010-0.017 0.029-0.025 0.046-0.022zM18.288 14.482c0.225 0.335 0.513 0.902 0.655 1.508l3.591 0.088 3.136-5.242-3.835-2.241c-1.183 1.962-2.365 3.925-3.547 5.887z"></path>
<path d="M25.734 16.922l-6.95-0.065c-0.244 0.518-0.575 0.981-1.009 1.381l1.794 3.182 6.184 0.038-0.018-4.536z"></path>
<path d="M25.735 16.874c0.024 0.003 0.041 0.019 0.047 0.042-0.014 1.514 0.012 3.027 0.019 4.541-0.003 0.024-0.005 0.043-0.048 0.048l-6.184-0.038c-0.017-0.002-0.031-0.010-0.041-0.024l-1.794-3.182c-0.041-0.098 0.36-0.396 0.579-0.698 0.166-0.228 0.307-0.473 0.429-0.727 0 0 0.013-0.024 0.043-0.027 2.317 0.022 4.633 0.043 6.95 0.065zM18.804 16.926c-0.24 0.488-0.562 0.933-0.956 1.309 0 0 1.749 3.138 1.749 3.138l6.108 0.037-0.018-4.442-6.873-0.064c-0.003 0.007-0.007 0.014-0.010 0.021z"></path>
<path d="M20.536 24.538l-3.504-6.003c-0.57 0.056-1.137 0.009-1.703-0.16l-1.814 3.171 3.135 5.33 3.887-2.339z"></path>
<path d="M15.342 18.33c0.105 0.030 0.105 0.030 0.21 0.057 0.483 0.115 0.982 0.146 1.475 0.101 0 0 0.027-0.001 0.045 0.023 1.168 2.001 2.336 4.002 3.504 6.003 0.002 0.004-0.017 0.064-0.017 0.064s-3.898 2.344-3.898 2.344c-0.021 0.003-0.040-0.004-0.054-0.022l-3.135-5.331c-0.007-0.016-0.007-0.031-0-0.047l1.814-3.171c0.013-0.017 0.031-0.025 0.054-0.022zM13.57 21.546l3.097 5.266 3.806-2.29-3.465-5.936c-0.552 0.051-1.106-0.001-1.637-0.148l-0.018-0.005c-0.594 1.038-1.188 2.076-1.782 3.114z"></path>
<path d="M10.996 23.744l3.623-5.931c-0.319-0.475-0.547-0.997-0.667-1.575l-3.652-0.093-3.207 5.287 3.902 2.313z"></path>
<path d="M13.953 16.19c0.105 0.015 0.155 0.512 0.302 0.855 0.111 0.26 0.248 0.506 0.404 0.741 0 0 0.014 0.023 0.001 0.051-1.208 1.977-2.415 3.954-3.623 5.931-0.012 0.020-0.042 0.029-0.062 0.017-1.385-0.609-2.603-1.542-3.905-2.314-0.034-0.026-0.026-0.044-0.016-0.065l3.207-5.288c0.011-0.014 0.025-0.021 0.042-0.023 1.217 0.031 2.434 0.062 3.652 0.093zM7.159 21.415l3.821 2.264 3.583-5.866c-0.223-0.337-0.508-0.905-0.646-1.512 0 0-3.591-0.11-3.591-0.11-1.056 1.741-2.112 3.482-3.168 5.223z"></path>
<path d="M7.117 15.514l6.95-0.031c0.237-0.521 0.562-0.989 0.99-1.395l-1.838-3.157-6.184 0.048 0.081 4.535z"></path>
<path d="M13.229 10.885c0.014 0.005 0.023 0.011 0.031 0.023l1.838 3.157c0.043 0.097-0.354 0.401-0.569 0.706-0.163 0.231-0.301 0.477-0.419 0.733 0 0-0.016 0.024-0.043 0.028-2.317 0.010-4.634 0.021-6.95 0.031-0.024 0-0.047-0.021-0.047-0.044-0.209-1.498-0.054-3.025-0.081-4.538 0.004-0.043 0.023-0.045 0.047-0.048 2.065-0.016 4.139-0.247 6.194-0.047zM7.084 11.026l0.080 4.441 6.873-0.031c0.169-0.367 0.504-0.907 0.948-1.344 0 0-1.792-3.114-1.792-3.114-2.036 0.016-4.072 0.031-6.108 0.047z"></path>
<path d="M16.162 1.616c-8.028 0-14.545 6.518-14.545 14.545s6.518 14.545 14.545 14.545c8.028 0 14.545-6.518 14.545-14.545s-6.518-14.545-14.545-14.545zM16.21 4.060c6.773 0 12.271 5.498 12.271 12.271 0 6.772-5.498 12.271-12.271 12.271-6.772 0-12.271-5.499-12.271-12.271 0-6.773 5.499-12.271 12.271-12.271z"></path>
</svg>
