<!-- Generated by IcoMoon.io -->
<svg version="1.1" xmlns="http://www.w3.org/2000/svg" width="32" height="32" viewBox="0 0 32 32">
<title>pma</title>
<path d="M2.013 24.037c6.311-17.549 6.478-17.614 6.478-17.614l-0.829 17.218-5.649 0.395"></path>
<path d="M8.175 23.071c4.577-7.241 7.452-14.246 9.387-21.123l-1.086 20.87-8.301 0.253"></path>
<path d="M18.963 22.494l5.59-0.747c-2.386-3.898-4.655-8.142-6.842-12.629 1.053 4.293 1.194 8.824 1.253 13.376"></path>
<path d="M18.043 2.146l11.923 19.317-7.442-4.072c-0.659-0.36-2.181-2.73-2.146-3.632-0.117-3.954-0.768-7.841-2.335-11.612"></path>
<path d="M1.974 25.186l29.354-3.593c-4.535 1.139-7.616 3.241-9.872 5.889-7.059-0.915-13.174-1.233-16.832 1.308-1.537-0.684-2.462-1.852-2.65-3.604"></path>
<path d="M23.227 27.751c0.337 0.003 0.309-0.009 0.383 0.145 0.072 0.152-0.047 0.351-0.23 0.357-1.009-0.015-2.052 0.102-2.88 0.667-0.030 0.020-0.395 0.346-0.845 0.57-0.869 0.433-1.878 0.495-2.855 0.386 0 0-0.215-0.067-0.222-0.238-0.014-0.329 0.574-0.206 1.101-0.212 0.87-0.009 1.755-0.247 2.43-0.839 0 0 0.369-0.263 0.728-0.421 0.744-0.328 1.576-0.415 2.39-0.413z"></path>
<path d="M10.324 28.698c0.133 0.002 0.265 0.006 0.398 0.016s0.277 0.041 0.326 0.168c0.068 0.175 0.027 0.364-0.309 0.335-1.098-0.084-2.197 0.178-3.146 0.736-0.253 0.145-0.298 0.163-0.445 0.229-0.923 0.418-1.964 0.535-2.989 0.45 0 0-0.181-0.041-0.22-0.182-0.103-0.366 0.661-0.265 1.241-0.301 1.704-0.105 3.010-1.389 4.92-1.45 0.075-0.002 0.149-0.003 0.224-0.002z"></path>
<path d="M7.207 28.566c0.141 0.029 0.152 0.073 0.181 0.125 0.214 0.384-0.848 0.596-1.427 0.788-1.647 0.534-3.474-0.45-5.123 0.424 0 0-0.156 0.059-0.264-0.018-0.137-0.099-0.128-0.329 0.029-0.424 0.235-0.125 0.259-0.129 0.378-0.177 1-0.404 2.133-0.293 3.166-0.125 0.292 0.043 0.335 0.041 0.492 0.043 0.853 0.012 1.649-0.417 2.468-0.631 0 0 0.032-0.012 0.101-0.006z"></path>
</svg>
