<!-- Generated by IcoMoon.io -->
<svg version="1.1" xmlns="http://www.w3.org/2000/svg" width="32" height="32" viewBox="0 0 32 32">
<title>pma</title>
<path d="M17.696 1.077c-0.022 0.003-0.044 0.011-0.064 0.023-0.161 0.1-0.818 1.85-1.461 3.889s-1.809 5.21-2.594 7.046c-1.674 3.919-5.466 10.925-5.745 10.615-0.045-0.049 0.112-3.043 0.347-6.651 0.574-8.795 0.576-10.24 0.010-10.24-0.247 0-0.665 0.612-0.928 1.36-3.621 10.3-5.946 17.32-5.81 17.54 0.093 0.15 0.343 0.218 0.558 0.152s1.397-0.203 2.629-0.305c2.871-0.238 2.075 0.294-0.901 0.603-1.433 0.149-2.241 0.383-2.356 0.684-0.276 0.72 0.533 2.32 1.533 3.031l0.91 0.649 2.845-0.977c2.086-0.716 3.433-0.978 5.047-0.98 2.203-0.003 8.178 0.575 9.082 0.879 0.704 0.236-1.849 1.346-3.121 1.356-0.572 0.005-1.040 0.165-1.040 0.356 0 0.46 2.397 0.065 3.68-0.606 0.528-0.276 1.536-0.601 2.24-0.722l1.28-0.22-2.56-0.106 0.88-0.478c0.484-0.263 0.88-0.585 0.88-0.716 0-0.486 2.399-2.688 3.59-3.296 0.677-0.345 2.115-0.807 3.197-1.026 2.078-0.421 2.906-1.168 1.32-1.192-0.843-0.012-1.322-0.699-6.827-9.794-3.256-5.379-6.027-10.063-6.157-10.408-0.114-0.302-0.311-0.492-0.466-0.469zM18.4 4.056c0.467 0.081 1.348 3.547 1.609 6.332 0.124 1.327 0.151 2.412 0.059 2.412s-0.618-0.8-1.17-1.777c-0.931-1.65-0.996-1.966-0.91-4.4 0.054-1.522 0.227-2.599 0.413-2.567zM17.785 11.040l0.425 1.759c0.234 0.968 0.466 3.74 0.515 6.16l0.090 4.4h-1.838l0.189-3.12c0.104-1.716 0.286-4.488 0.404-6.16zM23.005 18.158l1.378 0.795c0.758 0.437 2.060 1.050 2.894 1.363 1.397 0.524 2.431 1.291 2.13 1.581-0.069 0.066-1.062 0.207-2.206 0.314l-2.080 0.194-1.058-2.123zM15.841 23.443c0.228 0.004 0.363 0.014 0.38 0.031 0.067 0.067-1.504 0.295-3.49 0.508s-3.935 0.465-4.331 0.558c-0.494 0.116-0.72 0.024-0.72-0.296 0-0.373 0.837-0.508 4.209-0.679 1.736-0.088 3.267-0.133 3.952-0.122zM10.002 29.138c-0.576-0.039-1.378 0.143-2.098 0.525-0.563 0.299-1.816 0.719-2.784 0.934-1.585 0.351-1.645 0.393-0.599 0.417 0.639 0.015 1.978-0.347 2.976-0.804 1.212-0.555 2.083-0.763 2.625-0.627 0.524 0.132 0.739 0.086 0.606-0.129-0.116-0.188-0.381-0.292-0.726-0.315zM6.864 29.276c-0.114 0.006-0.281 0.066-0.49 0.177-0.426 0.228-1.491 0.281-2.96 0.148-1.878-0.171-2.411-0.112-2.935 0.321-0.575 0.476-0.58 0.511-0.050 0.342 1.573-0.5 2.198-0.543 3.132-0.218 1.105 0.385 3.478-0.045 3.478-0.63 0-0.1-0.062-0.146-0.176-0.14z"></path>
<path d="M17.696 1.077c-0.022 0.003-0.044 0.011-0.064 0.023-0.161 0.1-0.818 1.85-1.461 3.889s-1.809 5.21-2.594 7.046c-1.674 3.919-5.466 10.925-5.745 10.615-0.045-0.049 0.112-3.043 0.347-6.651 0.574-8.795 0.576-10.24 0.010-10.24-0.247 0-0.665 0.612-0.928 1.36-3.621 10.3-5.946 17.32-5.81 17.54 0.093 0.15 0.343 0.218 0.558 0.152s1.397-0.203 2.629-0.305c2.871-0.238 2.075 0.294-0.901 0.603-1.433 0.149-2.241 0.383-2.356 0.684-0.276 0.72 0.533 2.32 1.533 3.031l0.91 0.649 2.845-0.977c2.086-0.716 3.433-0.978 5.047-0.98 2.203-0.003 8.178 0.575 9.082 0.879 0.704 0.236-1.849 1.346-3.121 1.356-0.572 0.005-1.040 0.165-1.040 0.356 0 0.46 2.397 0.065 3.68-0.606 0.528-0.276 1.536-0.601 2.24-0.722l1.28-0.22-2.56-0.106 0.88-0.478c0.484-0.263 0.88-0.585 0.88-0.716 0-0.486 2.399-2.688 3.59-3.296 0.677-0.345 2.115-0.807 3.197-1.026 2.078-0.421 2.906-1.168 1.32-1.192-0.843-0.012-1.322-0.699-6.827-9.794-3.256-5.379-6.027-10.063-6.157-10.408-0.114-0.302-0.311-0.492-0.466-0.469zM17.147 3.874c0.067-0.007 0.049 0.331-0.007 0.925-0.091 0.968-0.329 4.064-0.529 6.88s-0.419 5.18-0.487 5.254c-0.068 0.073-0.124-0.116-0.124-0.422 0-0.422-0.477-0.189-2 0.976-1.1 0.841-2.696 2.235-3.547 3.097l-1.547 1.568 1.014-1.716c1.931-3.265 4.559-9.093 5.969-13.235 0.797-2.342 1.144-3.314 1.256-3.326zM18.4 4.056c0.467 0.081 1.348 3.547 1.609 6.332 0.124 1.327 0.151 2.412 0.059 2.412s-0.618-0.8-1.17-1.777c-0.931-1.65-0.996-1.966-0.91-4.4 0.054-1.522 0.227-2.599 0.413-2.567zM19.659 5.463c0.116-0.052 1.269 1.71 2.531 3.898 0.665 1.153 0.763 1.52 0.407 1.52-0.259 0-0.758 0.367-1.111 0.815l-0.642 0.815-0.192-1.536c-0.261-2.082-0.718-4.597-0.976-5.375-0.028-0.085-0.033-0.13-0.016-0.138zM7.604 7.817c0.079 0.079-0.112 3.681-0.425 8.004-0.546 7.547-0.595 7.86-1.234 7.882-0.366 0.013-1.421 0.131-2.345 0.263s-1.68 0.191-1.68 0.131c0-0.436 5.571-16.392 5.684-16.28zM17.785 11.040l0.425 1.759c0.234 0.968 0.466 3.74 0.515 6.16l0.090 4.4h-1.838l0.189-3.12c0.104-1.716 0.286-4.488 0.404-6.16zM18.696 11.683c0.081-0.047 0.278 0.284 0.612 0.983 0.299 0.626 0.409 1.055 0.245 0.954s-0.358-0.005-0.431 0.215c-0.073 0.219-0.225-0.169-0.338-0.862-0.133-0.817-0.168-1.243-0.088-1.29zM23.005 18.158l1.378 0.795c0.758 0.437 2.060 1.050 2.894 1.363 1.397 0.524 2.431 1.291 2.13 1.581-0.069 0.066-1.062 0.207-2.206 0.314l-2.080 0.194-1.058-2.123zM15.841 23.443c0.228 0.004 0.363 0.014 0.38 0.031 0.067 0.067-1.504 0.295-3.49 0.508s-3.935 0.465-4.331 0.558c-0.494 0.116-0.72 0.024-0.72-0.296 0-0.373 0.837-0.508 4.209-0.679 1.736-0.088 3.267-0.133 3.952-0.122zM10.002 29.138c-0.576-0.039-1.378 0.143-2.098 0.525-0.563 0.299-1.816 0.719-2.784 0.934-1.585 0.351-1.645 0.393-0.599 0.417 0.639 0.015 1.978-0.347 2.976-0.804 1.212-0.555 2.083-0.763 2.625-0.627 0.524 0.132 0.739 0.086 0.606-0.129-0.116-0.188-0.381-0.292-0.726-0.315zM6.864 29.276c-0.114 0.006-0.281 0.066-0.49 0.177-0.426 0.228-1.491 0.281-2.96 0.148-1.878-0.171-2.411-0.112-2.935 0.321-0.575 0.476-0.58 0.511-0.050 0.342 1.573-0.5 2.198-0.543 3.132-0.218 1.105 0.385 3.478-0.045 3.478-0.63 0-0.1-0.062-0.146-0.176-0.14z"></path>
<path d="M17.696 1.077c-0.022 0.003-0.044 0.011-0.064 0.023-0.161 0.1-0.818 1.85-1.461 3.889s-1.809 5.21-2.594 7.046c-1.674 3.919-5.466 10.925-5.745 10.615-0.045-0.049 0.112-3.043 0.347-6.651 0.574-8.795 0.576-10.24 0.010-10.24-0.247 0-0.665 0.612-0.928 1.36-3.621 10.3-5.946 17.32-5.81 17.54 0.093 0.15 0.343 0.218 0.558 0.152s1.397-0.203 2.629-0.305c2.871-0.238 2.075 0.294-0.901 0.603-1.433 0.149-2.241 0.383-2.356 0.684-0.276 0.72 0.533 2.32 1.533 3.031l0.91 0.649 2.845-0.977c2.086-0.716 3.433-0.978 5.047-0.98 2.203-0.003 8.178 0.575 9.082 0.879 0.704 0.236-1.849 1.346-3.121 1.356-0.572 0.005-1.040 0.165-1.040 0.356 0 0.46 2.397 0.065 3.68-0.606 0.528-0.276 1.536-0.601 2.24-0.722l1.28-0.22-2.56-0.106 0.88-0.478c0.484-0.263 0.88-0.585 0.88-0.716 0-0.486 2.399-2.688 3.59-3.296 0.677-0.345 2.115-0.807 3.197-1.026 2.078-0.421 2.906-1.168 1.32-1.192-0.843-0.012-1.322-0.699-6.827-9.794-3.256-5.379-6.027-10.063-6.157-10.408-0.114-0.302-0.311-0.492-0.466-0.469zM17.272 3.2c0.001 0.088-0.282 4.336-0.63 9.44s-0.635 9.449-0.638 9.657c-0.003 0.219-0.711 0.449-1.685 0.549-0.924 0.095-2.709 0.229-3.966 0.298l-2.286 0.126 1.401-2.308c2.227-3.669 5.117-9.915 6.514-14.082 0.708-2.112 1.288-3.768 1.289-3.68zM18.4 4.056c0.467 0.081 1.348 3.547 1.609 6.332 0.124 1.327 0.151 2.412 0.059 2.412s-0.618-0.8-1.17-1.777c-0.931-1.65-0.996-1.966-0.91-4.4 0.054-1.522 0.227-2.599 0.413-2.567zM19.634 5.22c0.036-0.036 1.925 2.987 4.197 6.717s4.336 7.107 4.587 7.503c0.568 0.897 0.357 0.891-1.944-0.055-2.422-0.996-3.932-2.178-5.068-3.97-0.809-1.276-0.927-1.766-0.931-3.878-0.003-1.33-0.208-3.28-0.456-4.335s-0.421-1.946-0.385-1.983zM7.609 8.059c0.004-0.001 0.006 0.002 0.008 0.009 0.055 0.288-0.123 3.73-0.398 7.649s-0.499 7.307-0.499 7.53c0 0.222-0.468 0.475-1.040 0.562-2.267 0.344-3.761 0.44-3.766 0.24-0.016-0.619 5.444-15.93 5.695-15.991zM18.325 11.012c0.041-0.039 1.459 2.4 3.151 5.419l3.075 5.489-1.635 0.231c-0.899 0.127-2.084 0.294-2.632 0.373l-0.998 0.143-0.175-4.693c-0.096-2.581-0.329-5.188-0.517-5.792s-0.308-1.131-0.267-1.169zM17.785 11.040l0.425 1.759c0.234 0.968 0.466 3.74 0.515 6.16l0.090 4.4h-1.838l0.189-3.12c0.104-1.716 0.286-4.488 0.404-6.16zM23.005 18.158l1.378 0.795c0.758 0.437 2.060 1.050 2.894 1.363 1.397 0.524 2.431 1.291 2.13 1.581-0.069 0.066-1.062 0.207-2.206 0.314l-2.080 0.194-1.058-2.123zM15.841 23.443c0.228 0.004 0.363 0.014 0.38 0.031 0.067 0.067-1.504 0.295-3.49 0.508s-3.935 0.465-4.331 0.558c-0.494 0.116-0.72 0.024-0.72-0.296 0-0.373 0.837-0.508 4.209-0.679 1.736-0.088 3.267-0.133 3.952-0.122zM10.002 29.138c-0.576-0.039-1.378 0.143-2.098 0.525-0.563 0.299-1.816 0.719-2.784 0.934-1.585 0.351-1.645 0.393-0.599 0.417 0.639 0.015 1.978-0.347 2.976-0.804 1.212-0.555 2.083-0.763 2.625-0.627 0.524 0.132 0.739 0.086 0.606-0.129-0.116-0.188-0.381-0.292-0.726-0.315zM6.864 29.276c-0.114 0.006-0.281 0.066-0.49 0.177-0.426 0.228-1.491 0.281-2.96 0.148-1.878-0.171-2.411-0.112-2.935 0.321-0.575 0.476-0.58 0.511-0.050 0.342 1.573-0.5 2.198-0.543 3.132-0.218 1.105 0.385 3.478-0.045 3.478-0.63 0-0.1-0.062-0.146-0.176-0.14z"></path>
<path d="M17.666 1.47c-0.035-0.005-0.064 0.004-0.088 0.028-0.141 0.144-0.92 2.29-1.732 4.769-1.51 4.614-4.618 11.417-6.711 14.689-0.645 1.008-1.11 1.896-1.033 1.973 0.221 0.221 2.899-4.51 4.826-8.53 0.97-2.024 2.354-5.408 3.074-7.52l1.31-3.84-0.18 2.24c-0.099 1.232-0.398 5.617-0.666 9.744s-0.546 7.563-0.617 7.634c-0.26 0.26-7.698 0.611-7.959 0.375-0.148-0.134-0.027-4.013 0.269-8.622s0.463-8.455 0.371-8.547c-0.334-0.334-0.8 0.246-1.268 1.577-0.263 0.748-1.714 4.934-3.225 9.303l-2.746 7.944 2.874-0.225c1.896-0.148 2.875-0.113 2.875 0.103 0 0.18-1.128 0.427-2.507 0.55s-2.686 0.332-2.903 0.467c-0.572 0.353 0.289 2.278 1.415 3.164 0.955 0.751 1.201 0.822 1.569 0.454 0.132-0.132 0.336-0.253 0.453-0.269s0.749-0.268 1.403-0.56c0.654-0.292 1.402-0.531 1.661-0.531s0.557-0.14 0.663-0.31c0.105-0.17 0.618-0.224 1.139-0.12 0.601 0.12 0.948 0.058 0.948-0.171 0-0.222 0.646-0.358 1.68-0.355 1 0.003 1.512 0.111 1.266 0.267-0.229 0.145 0.397 0.195 1.405 0.112 1.294-0.107 1.756-0.047 1.598 0.208-0.154 0.249 0.076 0.299 0.754 0.163 0.558-0.112 0.976-0.061 0.976 0.119 0 0.177 0.852 0.293 1.951 0.264 1.495-0.038 2.025-0.181 2.266-0.613 1.262-2.256 4.248-4.192 7.033-4.562 0.846-0.112 1.703-0.402 1.903-0.644s0.311-0.439 0.246-0.437c-0.066 0.001-1.835 0.217-3.934 0.478s-3.886 0.405-3.973 0.317c-0.087-0.087 0.082-0.158 0.375-0.158 0.727 0 0.695-0.128-0.603-2.45-0.625-1.117-1.053-2.030-0.953-2.030s0.736 0.366 1.414 0.815c0.677 0.448 1.998 1.106 2.934 1.462s1.879 0.889 2.096 1.184c0.216 0.296 0.478 0.453 0.582 0.349s-2.067-3.89-4.825-8.414c-3.589-5.887-5.099-8.108-5.313-7.811s-0.246 0.253-0.113-0.159c0.207-0.64-1.458-3.802-1.979-3.876zM18.089 3.040l0.562 1.037c0.832 1.535 1.598 5.684 1.443 7.823-0.132 1.83-0.083 1.965 2.167 5.946l2.302 4.074-1.641 0.231c-0.903 0.127-2.109 0.297-2.681 0.38l-1.040 0.15-0.002-3.419c-0.002-3.080-0.292-5.939-0.797-7.851-0.1-0.379 0.121-0.136 0.491 0.541s0.741 1.163 0.824 1.080c0.083-0.083-0.341-0.996-0.942-2.030-1.091-1.877-1.091-1.884-0.889-4.92zM19.922 5.891c0.080-0.080 1.921 2.774 4.092 6.342s4.152 6.811 4.403 7.207c0.569 0.897 0.357 0.891-1.943-0.055-2.422-0.996-3.932-2.178-5.068-3.97-0.802-1.265-0.926-1.771-0.926-3.782 0-1.277-0.158-3.059-0.351-3.96s-0.286-1.703-0.207-1.783zM7.609 8.059c0.004-0.001 0.006 0.002 0.008 0.009 0.055 0.288-0.123 3.73-0.398 7.649s-0.499 7.307-0.499 7.53c0 0.222-0.468 0.475-1.040 0.562-2.267 0.344-3.761 0.44-3.766 0.24-0.016-0.619 5.444-15.93 5.695-15.991zM17.71 10.72l0.452 1.441c0.252 0.803 0.53 3.493 0.628 6.079 0.109 2.869 0.313 4.73 0.533 4.876 0.235 0.155 0.193 0.238-0.123 0.243-0.264 0.005-2.775 0.295-5.581 0.645-6.090 0.76-6.289 0.766-6.073 0.202 0.174-0.453 3.557-0.841 7.372-0.845l1.959-0.002 0.206-3.601c0.113-1.98 0.301-4.824 0.416-6.32zM22.054 22.76c0.111 0.005 0.207 0.034 0.26 0.087 0.106 0.106-0.083 0.182-0.42 0.168-0.373-0.015-0.448-0.092-0.193-0.194 0.116-0.046 0.242-0.066 0.353-0.061zM2.522 29.481c-0.174-0.002-0.36 0.017-0.516 0.058-0.311 0.081-0.133 0.153 0.395 0.159s0.783-0.060 0.566-0.148c-0.108-0.044-0.271-0.067-0.445-0.070zM7.84 29.77c-0.176 0-0.536 0.139-0.8 0.31s-0.336 0.311-0.16 0.311c0.176 0 0.536-0.14 0.8-0.311s0.336-0.31 0.16-0.31zM4.762 30.761c-0.174-0.002-0.36 0.016-0.516 0.057-0.311 0.081-0.134 0.153 0.394 0.159s0.783-0.060 0.567-0.148c-0.108-0.044-0.271-0.067-0.445-0.069z"></path>
<path d="M17.874 1.12l-0.472 0.64c-0.26 0.352-0.4 0.919-0.311 1.259 0.169 0.651-1.015 19.412-1.24 19.637-0.266 0.266-7.702 0.609-7.969 0.367-0.157-0.142-0.051-3.784 0.242-8.357 0.614-9.575 0.601-8.906 0.18-8.906-0.342 0-1.028 1.431-1.382 2.88-0.163 0.667-0.118 0.64 0.267-0.16 0.461-0.957 0.463-0.958 0.477-0.142 0.024 1.365-0.982 15.164-1.115 15.297-0.161 0.161-4.435 0.624-4.587 0.497-0.063-0.053 0.26-1.21 0.717-2.571s0.777-2.529 0.71-2.596c-0.067-0.067-0.557 1.174-1.088 2.757l-0.966 2.88 3.070-0.137c1.688-0.076 3.161-0.285 3.273-0.465s2.216-0.418 4.703-0.532l4.5-0.204 0.205-3.872c0.297-5.607 0.565-8.565 0.76-8.37 0.458 0.458 1.009 4.898 1.020 8.216l0.012 3.719 1.2 0.198c0.66 0.109 1.56 0.183 2 0.164 0.745-0.032 0.734-0.052-0.16-0.296-0.657-0.179-0.253-0.222 1.28-0.137 1.568 0.087 1.952 0.044 1.28-0.143-0.792-0.22-0.834-0.274-0.24-0.305 0.396-0.021 0.72-0.122 0.72-0.225s-0.517-1.111-1.148-2.24c-0.631-1.129-1.060-2.052-0.953-2.052s0.741 0.361 1.408 0.803c0.667 0.441 1.963 1.067 2.881 1.39s1.869 0.861 2.114 1.196c0.245 0.335 0.524 0.531 0.621 0.434s-2.077-3.879-4.831-8.406c-3.526-5.798-5.093-8.111-5.299-7.824s-0.238 0.236-0.108-0.167c0.105-0.325-0.135-1.088-0.553-1.76-0.406-0.652-0.846-1.474-0.978-1.826zM18.124 3.040l0.676 1.44c0.372 0.792 0.838 2.38 1.038 3.529s0.317 2.805 0.262 3.68l-0.1 1.591-2.342-4.236 0.234-3.002zM16.93 3.684c-0.102-0.037-1.438 3.622-2.076 5.7-0.117 0.383-0.122 0.61-0.010 0.505 0.265-0.248 2.123-5.746 2.092-6.189-0.001-0.009-0.002-0.014-0.005-0.016zM19.922 5.891c0.080-0.080 1.921 2.774 4.092 6.342s4.152 6.811 4.403 7.207c0.569 0.897 0.357 0.891-1.943-0.055-2.422-0.996-3.932-2.178-5.068-3.97-0.802-1.265-0.926-1.771-0.926-3.782 0-1.277-0.158-3.059-0.351-3.96s-0.286-1.703-0.207-1.783zM14.685 10.381c-0.069-0.023-0.612 0.999-1.263 2.384-0.694 1.477-1.25 2.773-1.235 2.88 0.042 0.298 2.515-4.88 2.505-5.245-0-0.011-0.003-0.017-0.008-0.019zM18.325 11.012c0.041-0.039 1.459 2.4 3.151 5.419l3.075 5.489-1.635 0.231c-0.899 0.127-2.084 0.294-2.632 0.373l-0.998 0.143-0.175-4.693c-0.096-2.581-0.329-5.188-0.517-5.792s-0.308-1.131-0.267-1.169zM5.951 11.605c-0.069-0.069-0.522 1.072-1.005 2.535s-0.953 2.876-1.044 3.14c-0.090 0.264-0.068 0.394 0.050 0.29 0.295-0.262 2.154-5.809 1.999-5.965zM12.048 16.013c-0.118 0.066-0.651 0.904-1.414 2.307-0.694 1.276-1.585 2.86-1.98 3.52s-0.648 1.199-0.563 1.199c0.182 0 2.4-3.713 3.394-5.68 0.496-0.981 0.654-1.398 0.562-1.347zM31.209 21.965c-0.851-0.035-2.565 0.199-2.665 0.449-0.053 0.133-0.7 0.189-1.44 0.125-1.083-0.093-1.158-0.070-0.384 0.118l0.96 0.234-1.12 0.462c-0.616 0.254-2.028 1.38-3.138 2.502-1.361 1.376-2.181 1.977-2.52 1.847-1.268-0.487-6.199-1.142-8.591-1.142-2.733 0-6.111 0.799-7.356 1.739-0.349 0.264-0.796 0.485-0.992 0.49-0.637 0.018-2.044-1.657-2.044-2.433 0-0.416-0.144-0.756-0.32-0.756-0.417 0-0.405 0.136 0.121 1.396 0.243 0.581 0.838 1.368 1.323 1.75 0.98 0.771 1.304 0.846 1.596 0.373 0.367-0.593 2.898-1.556 5.1-1.939 2.429-0.423 5.856-0.224 9.139 0.531 1.144 0.263 2.379 0.403 2.743 0.311s1.276-0.893 2.025-1.781c1.463-1.735 3.619-3.019 5.65-3.363 1.841-0.312 2.382-0.489 2.382-0.78 0-0.080-0.187-0.122-0.471-0.133zM18.88 23.399c-0.203 0-0.406 0.020-0.56 0.061-0.308 0.081-0.056 0.146 0.56 0.146s0.868-0.066 0.56-0.146c-0.154-0.040-0.357-0.061-0.56-0.061zM16.32 23.719c-0.203 0-0.406 0.020-0.56 0.061-0.308 0.081-0.056 0.146 0.56 0.146s0.868-0.066 0.56-0.146c-0.154-0.040-0.357-0.061-0.56-0.061zM13.718 24.038c-0.232-0.001-0.476 0.017-0.675 0.055-0.398 0.077-0.148 0.142 0.556 0.145s1.030-0.059 0.724-0.139c-0.153-0.040-0.374-0.060-0.606-0.061zM10.88 24.359c-0.203 0-0.406 0.020-0.56 0.061-0.308 0.081-0.056 0.146 0.56 0.146s0.868-0.066 0.56-0.146c-0.154-0.040-0.357-0.061-0.56-0.061zM8.602 24.681c-0.174-0.002-0.36 0.017-0.516 0.058-0.311 0.081-0.134 0.153 0.394 0.159s0.783-0.060 0.566-0.148c-0.108-0.044-0.27-0.067-0.444-0.070zM5.76 24.999c-0.203 0-0.406 0.020-0.56 0.061-0.308 0.081-0.056 0.146 0.56 0.146s0.868-0.066 0.56-0.146c-0.154-0.040-0.357-0.061-0.56-0.061zM3.162 25.321c-0.174-0.002-0.36 0.017-0.516 0.058-0.311 0.081-0.134 0.152 0.394 0.159s0.783-0.060 0.566-0.148c-0.108-0.044-0.27-0.067-0.444-0.069zM4.48 30.762c-0.145 0-0.291 0.022-0.401 0.067-0.22 0.089-0.039 0.161 0.401 0.161s0.62-0.072 0.4-0.161c-0.11-0.044-0.255-0.067-0.4-0.067z"></path>
<path d="M17.847 1.286c-0.088-0.004-0.202 0.146-0.423 0.446-0.255 0.346-0.369 0.935-0.263 1.357 0.179 0.713-0.729 17.751-1.024 19.217-0.128 0.637-0.369 0.717-2.459 0.817l-2.317 0.11 5.6 0.127 0.006-1.2c0.012-2.215 0.623-10.744 0.812-11.34 0.103-0.324 0.336-0.498 0.517-0.386s0.109-0.138-0.161-0.556c-0.401-0.619-0.448-1.319-0.256-3.799 0.214-2.767 0.271-2.966 0.645-2.213 0.226 0.455 0.601 0.827 0.834 0.827 0.297 0 0.21-0.342-0.291-1.147-0.393-0.631-0.821-1.434-0.953-1.786-0.117-0.314-0.179-0.471-0.267-0.475zM8.495 5.764c-0.049-0.012-0.115 0.029-0.195 0.056-0.187 0.062-0.4 1.118-0.472 2.346-0.483 8.18-0.827 13.298-0.976 14.473-0.17 1.346-0.185 1.361-1.512 1.411l-1.34 0.050 1.6 0.197c1.108 0.136 1.709 0.071 1.955-0.21 0.195-0.224 1.060-0.433 1.92-0.465l1.565-0.058-1.537-0.121c-0.934-0.073-1.605-0.297-1.71-0.57-0.095-0.247 0.058-4.019 0.339-8.382 0.491-7.613 0.577-8.674 0.362-8.728zM19.989 7.828c-0.058-0.022-0.099 0.163-0.099 0.493 0 0.44 0.072 0.62 0.161 0.4s0.089-0.58 0-0.8c-0.022-0.055-0.043-0.085-0.062-0.092zM20.384 10.4l-0.201 1.44c-0.111 0.792-0.146 1.62-0.078 1.84 0.259 0.838 0.374 0.334 0.327-1.441zM18.357 12.27c-0.049-0.007-0.082 0.11-0.091 0.343-0.014 0.337 0.062 0.526 0.168 0.42s0.117-0.382 0.025-0.613c-0.038-0.096-0.073-0.145-0.102-0.15zM18.709 13.908c-0.058-0.022-0.099 0.162-0.099 0.492 0 0.44 0.073 0.621 0.162 0.401s0.089-0.58 0-0.8c-0.022-0.055-0.044-0.085-0.063-0.092zM21.806 16.657c-0.030 0.024 0.058 0.198 0.239 0.543 0.208 0.396 0.512 0.72 0.675 0.72s0.979 0.432 1.812 0.96c0.833 0.528 1.657 0.96 1.832 0.96s-0.537-0.515-1.583-1.144c-1.046-0.629-2.174-1.384-2.507-1.679-0.29-0.257-0.438-0.383-0.468-0.359zM19.057 18.117c-0.048-0.047-0.082 0.357-0.082 1.083 0 0.968 0.060 1.364 0.133 0.88s0.073-1.276 0-1.76c-0.018-0.121-0.036-0.187-0.052-0.203zM27.050 19.876c-0.163 0-0.143 0.095 0.15 0.284 0.264 0.171 0.696 0.302 0.96 0.293 0.317-0.012 0.262-0.111-0.16-0.293-0.44-0.189-0.786-0.284-0.949-0.284zM29.135 20.332c-0.023 0-0.043 0.006-0.062 0.018-0.151 0.093-0.125 0.449 0.058 0.79 0.49 0.916 1.002 0.766 0.576-0.169-0.173-0.38-0.413-0.642-0.571-0.639zM24.667 21.917c-0.057 0.006-0.12 0.022-0.186 0.047-0.264 0.101-0.48 0.241-0.48 0.31s0.216 0.126 0.48 0.126c0.264 0 0.48-0.14 0.48-0.31 0-0.128-0.121-0.192-0.294-0.173zM31.209 21.965c-0.851-0.035-2.565 0.199-2.665 0.449-0.053 0.133-0.7 0.189-1.44 0.125-1.083-0.093-1.158-0.070-0.384 0.118l0.96 0.234-1.12 0.462c-0.616 0.254-2.028 1.38-3.138 2.502-1.361 1.376-2.181 1.977-2.52 1.847-1.268-0.487-6.199-1.142-8.591-1.142-2.733 0-6.111 0.799-7.356 1.739-0.349 0.264-0.796 0.485-0.992 0.49-0.637 0.018-2.044-1.657-2.044-2.433 0-0.416-0.144-0.756-0.32-0.756-0.417 0-0.405 0.136 0.121 1.396 0.243 0.581 0.838 1.368 1.323 1.75 0.98 0.771 1.304 0.846 1.596 0.373 0.367-0.593 2.898-1.556 5.1-1.939 2.429-0.423 5.856-0.224 9.139 0.531 1.144 0.263 2.379 0.403 2.743 0.311s1.276-0.893 2.025-1.781c1.463-1.735 3.619-3.019 5.65-3.363 1.841-0.312 2.382-0.489 2.382-0.78 0-0.080-0.187-0.122-0.471-0.133zM22.871 22.555c-0.608-0.017-1.294 0.003-1.911 0.064-1.829 0.179-2.063 0.26-1.28 0.442 0.528 0.123 1.464 0.224 2.080 0.224h1.12l-0.961-0.261c-0.653-0.178-0.243-0.22 1.28-0.132 1.859 0.107 2.049 0.076 1.12-0.182-0.309-0.086-0.84-0.138-1.449-0.155zM18.88 23.399c-0.203 0-0.406 0.020-0.56 0.061-0.308 0.081-0.056 0.146 0.56 0.146s0.868-0.066 0.56-0.146c-0.154-0.040-0.357-0.061-0.56-0.061zM16.32 23.719c-0.203 0-0.406 0.020-0.56 0.061-0.308 0.081-0.056 0.146 0.56 0.146s0.868-0.066 0.56-0.146c-0.154-0.040-0.357-0.061-0.56-0.061zM13.718 24.038c-0.232-0.001-0.476 0.017-0.675 0.055-0.398 0.077-0.148 0.142 0.556 0.145s1.030-0.059 0.724-0.139c-0.153-0.040-0.374-0.060-0.606-0.061zM2.519 24.358c-0.232-0.001-0.476 0.017-0.675 0.055-0.398 0.077-0.148 0.142 0.556 0.146s1.029-0.059 0.723-0.139c-0.153-0.040-0.373-0.061-0.605-0.062zM10.88 24.359c-0.203 0-0.406 0.020-0.56 0.061-0.308 0.081-0.056 0.146 0.56 0.146s0.868-0.066 0.56-0.146c-0.154-0.040-0.357-0.061-0.56-0.061zM8.602 24.681c-0.174-0.002-0.36 0.017-0.516 0.058-0.311 0.081-0.134 0.153 0.394 0.159s0.783-0.060 0.566-0.148c-0.108-0.044-0.27-0.067-0.444-0.070zM5.76 24.999c-0.203 0-0.406 0.020-0.56 0.061-0.308 0.081-0.056 0.146 0.56 0.146s0.868-0.066 0.56-0.146c-0.154-0.040-0.357-0.061-0.56-0.061zM3.162 25.321c-0.174-0.002-0.36 0.017-0.516 0.058-0.311 0.081-0.134 0.152 0.394 0.159s0.783-0.060 0.566-0.148c-0.108-0.044-0.27-0.067-0.444-0.069zM4.48 30.762c-0.145 0-0.291 0.022-0.401 0.067-0.22 0.089-0.039 0.161 0.401 0.161s0.62-0.072 0.4-0.161c-0.11-0.044-0.255-0.067-0.4-0.067z"></path>
<path d="M17.8 1.321c-0.038 0.006-0.108 0.063-0.214 0.168-0.252 0.25-0.272 0.548-0.062 0.923 0.19 0.34 0.199 0.939 0.025 1.551-0.315 1.102-1.53 18.771-1.318 19.162 0.405 0.748 0.763-0.436 0.735-2.436-0.055-4.010 0.333-9.965 0.656-10.078 0.184-0.064 0.228-0.747 0.106-1.664-0.239-1.803 0.115-5.748 0.516-5.748 0.15 0 0.368 0.299 0.484 0.664s0.275 0.599 0.355 0.52c0.276-0.276-0.95-2.435-1.27-2.237-0.2 0.124-0.234-0.033-0.088-0.414 0.111-0.29 0.139-0.422 0.076-0.412zM8.095 5.877c-0.095 0.009-0.181 0.083-0.268 0.225-0.158 0.256-0.115 0.316 0.124 0.168 0.203-0.126 0.37-0.052 0.37 0.164s0.098 0.294 0.219 0.174c0.12-0.12 0.064-0.373-0.124-0.562-0.122-0.122-0.225-0.178-0.32-0.169zM7.998 9.445c-0.133 0.023-0.39 2.506-0.594 5.789-0.217 3.501-0.476 6.979-0.576 7.727s-0.057 1.36 0.095 1.36c0.152 0 0.313-0.324 0.358-0.72 0.126-1.111 0.365-4.578 0.534-7.759 0.084-1.584 0.215-3.528 0.292-4.32s0.039-1.713-0.085-2.046c-0.008-0.021-0.016-0.031-0.025-0.029zM21.874 16.723c-0.042 0.018-0.012 0.132 0.073 0.352 0.111 0.289 0.33 0.525 0.487 0.525 0.412 0 0.354-0.185-0.201-0.645-0.204-0.169-0.317-0.249-0.359-0.231zM29.083 20.48c-0.159 0-0.113 0.282 0.102 0.626s0.436 0.58 0.49 0.526c0.19-0.19-0.305-1.151-0.592-1.151zM24.667 21.917c-0.057 0.006-0.12 0.022-0.186 0.047-0.264 0.101-0.48 0.241-0.48 0.31s0.216 0.126 0.48 0.126c0.264 0 0.48-0.14 0.48-0.31 0-0.128-0.121-0.192-0.294-0.173zM22.042 22.441c-0.174-0.002-0.36 0.017-0.516 0.058-0.311 0.081-0.134 0.153 0.394 0.159s0.783-0.060 0.567-0.148c-0.108-0.044-0.271-0.067-0.445-0.070zM30.041 22.441c-0.174-0.002-0.359 0.017-0.515 0.058-0.311 0.081-0.134 0.153 0.394 0.159s0.783-0.060 0.566-0.148c-0.108-0.044-0.271-0.067-0.445-0.070zM28.48 22.748c-0.264-0.010-0.696 0.121-0.96 0.292-0.585 0.378-0.079 0.378 0.8 0 0.422-0.181 0.476-0.28 0.159-0.292zM19.52 22.761c-0.145 0-0.29 0.022-0.4 0.067-0.22 0.089-0.040 0.162 0.4 0.162s0.62-0.073 0.4-0.162c-0.11-0.044-0.255-0.067-0.4-0.067zM13.401 23.076c-0.348-0.001-0.707 0.017-0.995 0.052-0.575 0.071-0.182 0.131 0.874 0.133s1.527-0.056 1.046-0.13c-0.24-0.037-0.577-0.055-0.925-0.055zM26.654 23.36c-0.203 0-1.071 0.684-1.929 1.52s-1.048 1.074-0.422 0.528c0.626-0.546 1.494-1.23 1.929-1.52s0.625-0.528 0.422-0.528zM8.602 23.401c-0.174-0.002-0.36 0.017-0.516 0.058-0.311 0.081-0.134 0.153 0.394 0.159s0.783-0.060 0.566-0.148c-0.108-0.044-0.27-0.067-0.444-0.070zM5.12 24.039c-0.203 0-0.406 0.020-0.56 0.060-0.308 0.081-0.056 0.147 0.56 0.147s0.868-0.066 0.56-0.147c-0.154-0.040-0.357-0.060-0.56-0.060zM2.24 24.361c-0.145 0-0.29 0.022-0.4 0.067-0.22 0.089-0.040 0.162 0.4 0.162s0.62-0.073 0.4-0.162c-0.11-0.044-0.255-0.067-0.4-0.067zM12.48 26.595c-0.377 0-0.754 0.018-1.040 0.053-0.572 0.071-0.104 0.13 1.040 0.13s1.612-0.059 1.040-0.13c-0.286-0.035-0.663-0.053-1.040-0.053zM8.933 26.919c-0.111-0.005-0.238 0.016-0.353 0.062-0.255 0.102-0.18 0.178 0.193 0.193 0.337 0.014 0.526-0.061 0.42-0.168-0.053-0.053-0.149-0.083-0.26-0.088zM16.32 26.922c-0.145 0-0.29 0.022-0.4 0.067-0.22 0.089-0.040 0.161 0.4 0.161s0.62-0.072 0.4-0.161c-0.11-0.044-0.255-0.067-0.4-0.067zM18.24 27.241c-0.145 0-0.29 0.022-0.4 0.067-0.22 0.089-0.040 0.162 0.4 0.162s0.621-0.073 0.401-0.162c-0.11-0.044-0.256-0.067-0.401-0.067zM22.62 27.244c-0.016 0.003-0.051 0.022-0.105 0.058-0.217 0.144-0.8 0.384-1.295 0.532-0.73 0.219-0.771 0.276-0.216 0.298 0.377 0.015 0.959-0.224 1.295-0.532 0.252-0.231 0.369-0.364 0.32-0.356zM1.76 27.473l0.898 0.823c0.828 0.759 1.182 0.977 1.182 0.724 0-0.055-0.468-0.426-1.040-0.824zM19.814 27.56c-0.111-0.005-0.238 0.016-0.353 0.062-0.255 0.102-0.18 0.178 0.193 0.193 0.337 0.014 0.526-0.062 0.42-0.168-0.053-0.053-0.149-0.082-0.26-0.087zM5.389 28.263c-0.098-0.005-0.325 0.076-0.589 0.217-0.352 0.188-0.64 0.415-0.64 0.503s0.288 0.006 0.64-0.183c0.352-0.188 0.64-0.414 0.64-0.502 0-0.022-0.018-0.033-0.051-0.035z"></path>
</svg>
