<!-- Generated by IcoMoon.io -->
<svg version="1.1" xmlns="http://www.w3.org/2000/svg" width="32" height="32" viewBox="0 0 32 32">
<title>redhat</title>
<path d="M14.489 31.951c-2.393-0.149-5.125-1.113-7.324-2.585-1.627-1.088-3.17-2.599-4.276-4.187-1.327-1.905-2.279-4.218-2.64-6.419-0.044-0.266-0.090-0.547-0.103-0.625-0.054-0.325-0.094-2.316-0.064-3.209 0.036-1.059 0.124-1.691 0.382-2.734 1.122-4.547 4.182-8.416 8.316-10.515 1.803-0.915 3.985-1.53 5.771-1.625 1.506-0.080 3.502-0.013 4.373 0.148 2.701 0.498 5.155 1.627 7.275 3.347 2.974 2.414 5.013 5.857 5.679 9.59 0.192 1.078 0.222 1.455 0.223 2.841 0.002 1.418-0.033 1.851-0.242 2.986-0.911 4.964-4.226 9.293-8.804 11.498-1.452 0.699-3.002 1.186-4.433 1.391-0.949 0.136-2.799 0.18-4.131 0.097zM17.955 31.582c2.488-0.336 4.57-1.087 6.61-2.383 1.417-0.901 2.708-2.083 3.906-3.576l0.153-0.191-0.115-0.050c-0.082-0.035-0.35-0.047-0.927-0.040-0.447 0.006-0.891-0.007-0.987-0.029-0.368-0.081-1.002-0.118-1.586-0.092l-0.605 0.027 0.007 0.161c0.004 0.089 0.019 0.253 0.035 0.365 0.026 0.191 0.020 0.212-0.095 0.327-0.079 0.079-0.307 0.198-0.639 0.332-0.992 0.401-1.048 0.438-1.743 1.132-0.832 0.832-1.248 1.099-1.799 1.157-0.287 0.030-0.298-0.032-0.078-0.451 0.351-0.67 0.871-1.414 1.933-2.762 0.584-0.741 0.613-0.808 0.749-1.733 0.024-0.166 0.108-0.511 0.186-0.766 0.182-0.599 0.258-0.96 0.258-1.232 0-0.215-0.002-0.219-0.118-0.219-0.065 0-0.269 0.056-0.453 0.124-0.299 0.111-0.383 0.124-0.779 0.124-0.305-0-0.569-0.028-0.846-0.088-0.646-0.141-0.921-0.146-1.35-0.023-0.453 0.13-0.603 0.131-0.982 0.007-0.47-0.153-0.965-0.168-2.081-0.063-0.72 0.068-1.092 0.084-1.552 0.067-1.186-0.045-1.606-0.273-2.457-1.335-0.546-0.681-0.812-0.951-1.094-1.113-0.254-0.145-0.352-0.148-0.527-0.014-0.191 0.146-0.335 0.18-0.488 0.115-0.218-0.092-0.53-0.422-0.854-0.904-0.369-0.549-0.63-0.805-0.999-0.98-0.235-0.111-0.314-0.128-0.593-0.128-0.391 0.001-0.59 0.089-0.875 0.389-0.251 0.264-0.365 0.562-0.367 0.96-0.001 0.26 0.017 0.34 0.13 0.578 0.336 0.702 1.065 1.599 1.505 1.85 0.228 0.13 0.352 0.316 0.352 0.527 0 0.289-0.117 0.413-0.428 0.452-0.262 0.034-0.574-0.031-0.905-0.187-0.372-0.176-0.493-0.281-0.801-0.695-0.392-0.527-0.562-0.665-1.010-0.817-0.205-0.070-0.358-0.075-2.074-0.068-2.118 0.008-1.944-0.029-1.852 0.396 0.073 0.339 0.070 0.544-0.010 0.632-0.037 0.041-0.081 0.074-0.098 0.074s-0.076 0.017-0.131 0.038l-0.1 0.038 0.12 0.315c0.188 0.493 0.798 1.717 1.119 2.249 2.018 3.34 5.185 5.809 8.889 6.932 1.073 0.325 2.221 0.541 3.406 0.641 0.439 0.037 2.622-0.014 3.043-0.071zM17.914 24.723c-0.155-0.055-0.454-0.147-0.665-0.204-0.418-0.113-0.524-0.179-0.524-0.324 0-0.132 0.093-0.34 0.191-0.427 0.159-0.142 0.332-0.131 0.791 0.048 0.234 0.091 0.504 0.177 0.599 0.19 0.243 0.033 0.492-0.045 0.678-0.213s0.303-0.163 0.412 0.021c0.203 0.344-0.061 0.808-0.541 0.951-0.302 0.090-0.611 0.076-0.94-0.041zM22.69 20.577c0.688-0.081 1.48-0.209 1.793-0.29 1.252-0.321 2.388-0.97 3.305-1.889 1.556-1.558 1.894-3.261 0.9-4.54-0.349-0.449-0.977-0.904-1.75-1.268-0.427-0.201-1.713-0.743-1.764-0.743-0.011 0-0.050 0.095-0.088 0.212-0.212 0.653-0.685 1.38-0.88 1.352-0.139-0.020-0.126-0.253 0.051-0.971 0.28-1.131 0.288-1.278 0.12-2.156-0.115-0.602-0.389-1.415-0.847-2.515-0.222-0.532-0.475-1.178-0.564-1.437-0.534-1.562-1.382-2.549-2.494-2.902-1.114-0.354-2.155-0.361-3.811-0.025-0.961 0.195-1.27 0.187-2.658-0.071-0.902-0.167-1.716-0.182-2.209-0.041-0.416 0.12-0.732 0.283-0.983 0.509-0.257 0.231-0.413 0.473-0.645 1-0.525 1.194-0.797 2.338-0.844 3.558-0.022 0.557-0.017 0.623 0.065 0.836 0.244 0.642 0.913 1.133 2.098 1.541 0.299 0.103 1.151 0.357 1.894 0.564 2.214 0.619 2.526 0.738 2.929 1.121 0.222 0.211 0.357 0.524 0.434 1.009 0.035 0.218 0.089 0.445 0.119 0.504s0.185 0.252 0.342 0.428c0.441 0.494 0.394 0.614-0.222 0.571-1.164-0.082-2.271-0.442-4.409-1.436-0.344-0.16-0.996-0.453-1.451-0.652-1.083-0.474-1.455-0.673-1.791-0.958-0.686-0.581-0.859-1.219-0.567-2.089 0.062-0.183 0.102-0.344 0.089-0.357s-0.383-0.041-0.822-0.063c-1.607-0.079-2.686 0.052-3.411 0.416-0.322 0.161-0.754 0.52-0.956 0.793-0.293 0.397-0.372 0.634-0.352 1.055 0.015 0.3 0.038 0.386 0.183 0.689 0.425 0.884 1.645 2.136 3.255 3.342 1.608 1.204 3.797 2.371 6.528 3.478 2.012 0.816 3.8 1.272 5.622 1.435 0.277 0.025 0.567 0.052 0.645 0.061 0.359 0.040 2.633-0.014 3.144-0.074zM11.979 8.082c-0.489-0.227-0.953-0.875-0.953-1.328 0-0.255 0.15-0.577 0.31-0.667 0.105-0.059 0.111-0.056 0.341 0.185 0.323 0.338 0.565 0.456 1.16 0.562 0.271 0.049 0.448 0.050 1.109 0.010 0.878-0.054 1.203-0.025 1.523 0.136 0.522 0.262 0.258 0.413-0.899 0.517-0.845 0.075-1.544 0.278-1.902 0.552-0.214 0.164-0.389 0.172-0.688 0.033zM19.023 5.45c0-0.051 0.072-0.143 0.182-0.233 0.223-0.183 0.251-0.28 0.149-0.511-0.084-0.19-0.223-0.283-0.501-0.334-0.082-0.015-0.17-0.053-0.196-0.083-0.086-0.103 0.145-0.147 0.668-0.126 0.603 0.024 0.836 0.094 1.099 0.33 0.359 0.323 0.377 0.548 0.058 0.749-0.268 0.17-0.527 0.237-1.027 0.266-0.42 0.024-0.433 0.023-0.433-0.059z"></path>
<path d="M14.489 31.937c-2.588-0.205-5.328-1.21-7.588-2.785-0.965-0.673-2.137-1.725-2.91-2.613-2.142-2.462-3.465-5.452-3.851-8.705-0.088-0.744-0.089-3.033-0.001-3.734 0.378-3.018 1.544-5.762 3.482-8.195 0.467-0.587 1.763-1.894 2.344-2.364 2.143-1.736 4.661-2.868 7.43-3.341 0.558-0.095 1.912-0.197 2.626-0.198 0.778-0.001 2.169 0.107 2.811 0.219 3.426 0.593 6.609 2.324 8.985 4.886 2.943 3.173 4.474 7.357 4.263 11.65-0.161 3.267-1.237 6.261-3.183 8.859-2.463 3.288-6.102 5.505-10.181 6.202-0.988 0.169-2.917 0.224-4.226 0.12zM17.233 31.677c1.384-0.11 2.525-0.339 3.804-0.764 2.929-0.974 5.528-2.805 7.429-5.235l0.195-0.249-0.137-0.057c-0.155-0.065-0.418-0.079-1.2-0.065-0.349 0.006-0.682-0.013-0.928-0.054-0.433-0.071-1.859-0.086-1.982-0.020-0.088 0.047-0.092 0.154-0.013 0.414 0.054 0.177 0.053 0.21-0.006 0.335-0.076 0.161-0.217 0.24-0.947 0.532-0.274 0.11-0.588 0.25-0.699 0.312-0.115 0.065-0.46 0.373-0.806 0.72-0.651 0.653-1.022 0.931-1.419 1.065-0.266 0.089-0.515 0.11-0.554 0.046-0.049-0.079 0.425-0.917 0.873-1.546 0.155-0.217 0.582-0.78 0.949-1.249s0.719-0.964 0.782-1.098c0.081-0.172 0.135-0.381 0.18-0.705 0.035-0.254 0.143-0.733 0.239-1.066 0.199-0.687 0.273-1.063 0.254-1.292-0.017-0.214-0.107-0.222-0.573-0.051-0.342 0.125-0.399 0.134-0.831 0.129-0.312-0.004-0.595-0.034-0.866-0.094-0.666-0.147-0.793-0.147-1.355-0.004l-0.498 0.127-0.403-0.125c-0.372-0.116-0.448-0.125-0.987-0.126-0.321-0-0.875 0.030-1.229 0.067-0.861 0.091-1.718 0.092-2.131 0.002-0.765-0.167-1.082-0.415-1.975-1.546-0.434-0.55-0.956-0.976-1.196-0.976-0.034 0-0.16 0.063-0.28 0.141-0.254 0.164-0.276 0.167-0.475 0.064-0.215-0.111-0.481-0.405-0.805-0.89-0.441-0.66-0.778-0.938-1.295-1.070-0.59-0.151-1.127 0.116-1.442 0.716-0.1 0.191-0.112 0.254-0.112 0.616-0 0.378 0.008 0.419 0.134 0.665 0.378 0.736 1.033 1.541 1.439 1.771 0.122 0.069 0.258 0.184 0.301 0.255 0.112 0.184 0.105 0.438-0.016 0.579-0.084 0.098-0.13 0.113-0.375 0.127-0.22 0.012-0.338-0.005-0.559-0.082-0.461-0.16-0.704-0.343-1.019-0.766-0.357-0.479-0.491-0.604-0.812-0.753-0.385-0.179-0.745-0.222-1.511-0.18-0.355 0.019-1.107 0.035-1.673 0.035h-1.028l-0.014 0.121c-0.008 0.067 0.018 0.26 0.056 0.431 0.065 0.286 0.065 0.318 0.006 0.409-0.036 0.055-0.137 0.123-0.224 0.153l-0.159 0.054 0.159 0.403c0.253 0.642 0.847 1.804 1.246 2.436 1.871 2.966 4.605 5.191 7.872 6.407 1.343 0.5 2.795 0.809 4.44 0.944 0.388 0.032 1.705 0.023 2.181-0.014zM17.673 24.625c-0.266-0.087-0.564-0.181-0.661-0.21s-0.195-0.081-0.217-0.116c-0.063-0.102 0.007-0.36 0.133-0.486 0.155-0.155 0.323-0.15 0.738 0.022 0.661 0.273 0.994 0.273 1.315-0.003 0.186-0.159 0.262-0.16 0.378-0.005 0.141 0.189 0.078 0.504-0.14 0.702-0.189 0.172-0.364 0.231-0.719 0.242-0.306 0.010-0.394-0.006-0.826-0.146zM22.65 20.617c1.856-0.219 2.777-0.495 3.858-1.157 1.004-0.614 1.951-1.61 2.391-2.513 0.28-0.575 0.376-0.951 0.377-1.471 0.003-1.219-0.718-2.139-2.255-2.88-0.597-0.288-1.716-0.747-1.819-0.747-0.068 0-0.104 0.059-0.194 0.312-0.216 0.613-0.608 1.219-0.788 1.219-0.154 0-0.148-0.040 0.183-1.411 0.146-0.602 0.147-1.011 0.006-1.693-0.141-0.68-0.389-1.418-0.831-2.474-0.203-0.485-0.461-1.137-0.573-1.449-0.267-0.743-0.34-0.904-0.609-1.337-0.436-0.7-0.892-1.139-1.5-1.446-0.533-0.268-1.389-0.438-2.217-0.441-0.653-0.002-1.071 0.048-1.995 0.238-0.954 0.196-1.323 0.186-2.72-0.074-0.571-0.106-0.783-0.127-1.27-0.126-0.52 0.001-0.624 0.013-0.946 0.111-0.837 0.255-1.228 0.622-1.615 1.518-0.514 1.19-0.795 2.364-0.851 3.546-0.021 0.46-0.014 0.581 0.046 0.766 0.14 0.433 0.45 0.802 0.932 1.111 0.544 0.348 1.226 0.59 3.26 1.159 1.726 0.482 2.073 0.596 2.398 0.79 0.494 0.294 0.685 0.602 0.792 1.279 0.071 0.452 0.126 0.559 0.49 0.955 0.198 0.216 0.252 0.301 0.242 0.383l-0.012 0.105-0.391-0.005c-1.095-0.014-2.159-0.356-4.587-1.477-0.454-0.21-1.153-0.523-1.552-0.695-1.336-0.578-1.767-0.891-2.109-1.531-0.098-0.184-0.107-0.239-0.105-0.645 0.002-0.361 0.019-0.488 0.095-0.685 0.051-0.133 0.095-0.287 0.099-0.342 0.006-0.090-0.014-0.103-0.195-0.132-0.111-0.018-0.709-0.036-1.33-0.040-0.917-0.006-1.204 0.006-1.53 0.063-1.040 0.182-1.759 0.577-2.22 1.22-0.664 0.926-0.378 1.808 1.069 3.295 1.742 1.79 4.080 3.305 7.255 4.701 3.031 1.333 4.867 1.832 7.617 2.070 0.441 0.038 2.588-0.012 3.103-0.073zM12.209 8.124c-0.579-0.148-1.137-0.808-1.143-1.353-0.003-0.266 0.138-0.588 0.288-0.656 0.090-0.041 0.115-0.028 0.287 0.16 0.234 0.255 0.388 0.359 0.682 0.463 0.448 0.158 0.839 0.2 1.427 0.155 0.296-0.023 0.683-0.041 0.861-0.041 0.497-0 1.027 0.166 1.059 0.332 0.025 0.132-0.23 0.199-1.040 0.271-0.838 0.075-1.62 0.292-1.946 0.541-0.228 0.174-0.261 0.183-0.475 0.128zM19.063 5.431c0-0.034 0.085-0.134 0.189-0.222 0.162-0.137 0.189-0.18 0.186-0.3-0.008-0.298-0.115-0.404-0.596-0.595-0.224-0.089-0.018-0.133 0.518-0.111 0.573 0.023 0.789 0.088 1.045 0.314 0.415 0.366 0.339 0.623-0.253 0.848-0.289 0.11-1.089 0.159-1.089 0.067z"></path>
<path d="M14.811 31.956c-1.804-0.146-3.483-0.56-5.098-1.257-2.649-1.144-4.948-3.001-6.667-5.383-0.49-0.68-0.908-1.383-1.332-2.243-0.813-1.65-1.251-3.078-1.52-4.954-0.105-0.736-0.149-2.84-0.075-3.605 0.525-5.436 3.775-10.262 8.572-12.73 2.558-1.316 5.299-1.902 8.174-1.748 0.51 0.027 1.181 0.086 1.491 0.129 5.625 0.794 10.49 4.625 12.587 9.914 0.543 1.368 0.853 2.605 1.043 4.147 0.1 0.818 0.101 2.724 0.001 3.547-0.465 3.822-2.081 7.106-4.791 9.735-2.642 2.563-6.097 4.137-9.731 4.431-0.788 0.064-1.979 0.072-2.655 0.017zM16.786 31.718c1.079-0.055 1.732-0.14 2.68-0.348 3.137-0.69 6.083-2.391 8.213-4.743 0.556-0.614 0.984-1.152 0.964-1.212-0.035-0.108-0.404-0.151-1.077-0.125-0.543 0.021-0.736 0.012-1.048-0.045-0.426-0.079-1.818-0.112-2.041-0.048-0.171 0.049-0.187 0.114-0.107 0.416 0.115 0.43 0.068 0.477-0.85 0.848-0.313 0.127-0.65 0.276-0.75 0.331s-0.462 0.377-0.806 0.713c-0.344 0.337-0.699 0.669-0.791 0.739-0.356 0.272-1.052 0.519-1.158 0.412-0.12-0.12 0.657-1.335 1.754-2.744 0.91-1.169 0.919-1.186 1.019-1.932 0.031-0.233 0.124-0.65 0.206-0.927 0.205-0.692 0.256-0.943 0.258-1.255 0.001-0.191-0.014-0.274-0.054-0.289-0.073-0.028-0.26 0.017-0.622 0.148-0.403 0.146-0.909 0.147-1.615 0.003-0.637-0.13-0.897-0.13-1.346 0.001-0.439 0.128-0.515 0.128-0.905-0-0.47-0.155-1.015-0.169-2.228-0.057-1.827 0.168-2.541 0.048-3.211-0.543-0.115-0.101-0.426-0.452-0.691-0.779-0.533-0.659-0.828-0.95-1.103-1.086-0.241-0.12-0.34-0.114-0.557 0.030-0.229 0.152-0.342 0.152-0.577-0.003-0.215-0.142-0.306-0.252-0.711-0.852-0.336-0.499-0.588-0.743-0.954-0.923-0.712-0.351-1.459-0.087-1.796 0.633-0.208 0.444-0.187 0.932 0.057 1.348 0.542 0.924 1.004 1.477 1.456 1.741 0.208 0.122 0.348 0.318 0.348 0.488 0 0.167-0.107 0.346-0.222 0.37-0.055 0.011-0.146 0.030-0.203 0.042-0.162 0.034-0.57-0.056-0.846-0.187-0.324-0.153-0.521-0.333-0.856-0.782-0.293-0.392-0.509-0.565-0.885-0.705-0.312-0.117-0.879-0.158-1.519-0.112-0.29 0.021-0.977 0.028-1.526 0.014l-0.998-0.025-0.045 0.099c-0.034 0.076-0.030 0.166 0.021 0.389 0.092 0.407 0.085 0.501-0.041 0.6-0.058 0.046-0.149 0.084-0.202 0.084s-0.095 0.024-0.095 0.053c0 0.175 0.695 1.674 1.097 2.366 2.69 4.632 7.526 7.595 12.823 7.857 0.335 0.017 0.646 0.033 0.691 0.036s0.425-0.012 0.846-0.033zM17.955 24.686c-0.155-0.057-0.454-0.15-0.665-0.207-0.543-0.148-0.591-0.205-0.446-0.527 0.1-0.22 0.299-0.293 0.546-0.201 0.868 0.325 1.008 0.353 1.312 0.269 0.079-0.022 0.219-0.104 0.311-0.183 0.192-0.164 0.284-0.149 0.37 0.060 0.112 0.27-0.048 0.586-0.38 0.749s-0.68 0.175-1.050 0.041zM22.11 20.674c2.205-0.174 3.386-0.519 4.651-1.36 0.349-0.232 0.603-0.448 1.029-0.874 0.619-0.619 0.9-0.996 1.168-1.564 0.266-0.565 0.321-0.807 0.319-1.42-0.002-0.459-0.015-0.56-0.107-0.82-0.152-0.428-0.332-0.709-0.68-1.061-0.539-0.546-1.137-0.89-2.592-1.493-0.466-0.194-0.701-0.272-0.74-0.247-0.031 0.020-0.107 0.172-0.167 0.337-0.227 0.619-0.589 1.168-0.771 1.168-0.113 0-0.101-0.132 0.082-0.869 0.087-0.353 0.18-0.767 0.207-0.92 0.131-0.761-0.186-2.050-0.946-3.846-0.191-0.451-0.428-1.050-0.526-1.333-0.361-1.033-0.686-1.596-1.248-2.162-0.555-0.559-1.051-0.81-1.937-0.982-0.915-0.178-1.848-0.145-3.043 0.108-0.933 0.197-1.419 0.2-2.479 0.011-1.070-0.191-1.281-0.213-1.814-0.189-1.132 0.049-1.826 0.459-2.252 1.329-0.41 0.837-0.735 1.865-0.896 2.829-0.043 0.256-0.069 0.661-0.072 1.108-0.005 0.69-0.002 0.71 0.105 0.927 0.060 0.122 0.212 0.327 0.338 0.456 0.596 0.61 1.253 0.89 3.603 1.541 1.952 0.54 2.342 0.672 2.692 0.913 0.4 0.275 0.546 0.536 0.659 1.173 0.043 0.243 0.094 0.473 0.114 0.51s0.173 0.228 0.341 0.423c0.168 0.196 0.305 0.38 0.305 0.409 0 0.161-0.36 0.165-1.211 0.013-0.892-0.159-1.861-0.511-3.562-1.295-0.575-0.265-1.373-0.623-1.773-0.796-1.345-0.582-1.798-0.914-2.094-1.533-0.112-0.234-0.125-0.3-0.124-0.625 0.001-0.302 0.023-0.423 0.129-0.725 0.079-0.224 0.113-0.377 0.090-0.4-0.021-0.021-0.46-0.055-0.976-0.077-2.279-0.096-3.332 0.173-4.155 1.062-0.378 0.409-0.488 0.649-0.505 1.112-0.013 0.333-0.002 0.395 0.11 0.675 0.225 0.562 0.635 1.105 1.435 1.9 2.019 2.005 4.623 3.577 8.544 5.156 2.045 0.824 3.868 1.27 5.844 1.43 0.596 0.048 2.31 0.050 2.906 0.003zM12.171 8.103c-0.211-0.064-0.44-0.207-0.619-0.386-0.241-0.241-0.483-0.726-0.48-0.96 0.004-0.283 0.183-0.632 0.324-0.632 0.033 0 0.182 0.116 0.332 0.258 0.301 0.284 0.529 0.392 1.047 0.495 0.259 0.051 0.418 0.053 1.112 0.011 0.882-0.053 1.189-0.027 1.554 0.129 0.476 0.205 0.198 0.333-0.95 0.439-0.536 0.049-1.284 0.223-1.557 0.362-0.098 0.050-0.245 0.143-0.326 0.206-0.148 0.116-0.251 0.135-0.438 0.078zM19.089 5.453c-0.015-0.015 0.066-0.123 0.18-0.239 0.195-0.198 0.207-0.221 0.183-0.364-0.036-0.221-0.14-0.341-0.412-0.475l-0.24-0.118 0.161-0.036c0.207-0.047 0.748-0.010 1.008 0.068 0.273 0.082 0.512 0.266 0.626 0.481 0.090 0.169 0.091 0.183 0.027 0.28-0.102 0.156-0.523 0.34-0.888 0.389s-0.607 0.054-0.646 0.014z"></path>
<path d="M14.892 31.957c-3.303-0.263-6.298-1.444-8.846-3.489-2.941-2.36-4.937-5.664-5.682-9.404-0.21-1.056-0.26-1.633-0.261-3.063-0.002-1.408 0.020-1.704 0.2-2.741 0.265-1.526 0.694-2.831 1.411-4.292 0.568-1.158 1.114-2.018 1.931-3.043 0.518-0.65 1.795-1.926 2.451-2.449 3.592-2.867 8.295-4.029 12.91-3.192 6.004 1.089 10.97 5.695 12.53 11.622 0.67 2.546 0.707 5.278 0.104 7.803-0.725 3.041-2.395 5.906-4.657 7.992-2.149 1.981-4.647 3.297-7.436 3.916-1.479 0.328-3.215 0.456-4.655 0.341zM17.13 31.716c2.105-0.163 3.913-0.635 5.712-1.493 1.082-0.516 2.149-1.187 3.112-1.957 0.862-0.689 2.306-2.179 2.674-2.759l0.074-0.117-0.115-0.051c-0.080-0.035-0.378-0.052-0.981-0.054-0.608-0.002-0.981-0.023-1.249-0.070-0.504-0.087-1.828-0.089-1.965-0.002-0.107 0.067-0.115 0.179-0.030 0.418 0.081 0.228 0.078 0.256-0.043 0.399-0.11 0.13-0.262 0.209-0.826 0.427-0.753 0.291-0.883 0.379-1.578 1.070-0.811 0.808-1.132 1.026-1.639 1.118-0.312 0.057-0.32 0.026-0.101-0.399 0.339-0.657 0.906-1.455 2.085-2.938 0.346-0.435 0.455-0.693 0.528-1.25 0.034-0.263 0.139-0.732 0.242-1.082 0.295-1.007 0.329-1.497 0.104-1.497-0.044 0-0.271 0.063-0.502 0.141-0.578 0.194-1 0.187-1.906-0.028-0.421-0.1-0.629-0.085-1.265 0.090l-0.347 0.096-0.338-0.116c-0.296-0.102-0.41-0.118-0.915-0.133-0.382-0.011-0.818 0.008-1.29 0.056-0.392 0.040-0.985 0.072-1.317 0.071-1.295-0.004-1.765-0.252-2.691-1.421-0.491-0.62-0.783-0.9-1.104-1.058l-0.265-0.13-0.126 0.075c-0.358 0.212-0.414 0.235-0.516 0.21-0.183-0.046-0.517-0.392-0.839-0.871-0.36-0.534-0.505-0.699-0.782-0.888-0.787-0.537-1.684-0.314-2.073 0.515-0.091 0.195-0.107 0.283-0.107 0.593-0 0.341 0.010 0.384 0.155 0.678 0.358 0.724 1.030 1.555 1.452 1.792 0.263 0.148 0.355 0.282 0.359 0.521 0.002 0.152-0.016 0.2-0.107 0.278-0.092 0.079-0.154 0.094-0.385 0.094-0.329 0-0.613-0.085-0.945-0.284-0.198-0.119-0.312-0.234-0.59-0.599-0.364-0.479-0.545-0.631-0.915-0.77-0.389-0.145-0.795-0.177-1.593-0.123-0.461 0.031-1.026 0.038-1.581 0.020-0.939-0.031-0.987-0.022-0.988 0.179-0 0.058 0.030 0.237 0.067 0.397 0.086 0.366 0.051 0.462-0.195 0.545-0.132 0.045-0.171 0.077-0.161 0.133 0.008 0.041 0.121 0.326 0.253 0.633 2.115 4.945 6.582 8.464 11.874 9.355 0.508 0.086 0.937 0.134 1.763 0.2 0.392 0.031 1.42 0.023 1.916-0.015zM18.156 24.734c-0.089-0.027-0.324-0.101-0.524-0.164s-0.462-0.145-0.584-0.181c-0.195-0.058-0.223-0.080-0.235-0.182-0.017-0.147 0.061-0.335 0.169-0.41 0.136-0.095 0.347-0.069 0.732 0.090 0.604 0.249 1.006 0.232 1.314-0.057 0.135-0.126 0.23-0.108 0.33 0.062 0.068 0.116 0.072 0.155 0.031 0.29-0.026 0.086-0.091 0.209-0.146 0.274-0.2 0.238-0.755 0.38-1.088 0.278zM22.73 20.638c1.17-0.138 1.804-0.268 2.44-0.498 1.98-0.716 3.711-2.422 4.060-4.001 0.11-0.498 0.119-0.674 0.051-1.071-0.183-1.077-0.881-1.841-2.3-2.518-0.746-0.356-1.709-0.748-1.802-0.733-0.059 0.009-0.109 0.093-0.192 0.322-0.166 0.456-0.342 0.794-0.527 1.010-0.166 0.194-0.263 0.237-0.303 0.134-0.012-0.031 0.061-0.399 0.162-0.816 0.252-1.040 0.272-1.215 0.203-1.709-0.125-0.893-0.35-1.614-0.946-3.040-0.204-0.488-0.443-1.095-0.53-1.35-0.588-1.707-1.448-2.677-2.693-3.036-0.771-0.223-1.714-0.293-2.539-0.191-0.211 0.026-0.7 0.112-1.088 0.191-0.67 0.136-0.735 0.142-1.29 0.122-0.395-0.015-0.8-0.061-1.249-0.144-0.366-0.067-0.837-0.143-1.048-0.168-0.969-0.117-1.943 0.17-2.478 0.73-0.174 0.183-0.283 0.355-0.463 0.733-0.607 1.276-0.94 2.656-0.946 3.92-0.002 0.508 0.001 0.532 0.126 0.795 0.412 0.87 1.225 1.285 4.043 2.065 2.051 0.568 2.493 0.735 2.853 1.082 0.195 0.188 0.314 0.476 0.404 0.985 0.089 0.498 0.122 0.563 0.498 0.97 0.161 0.174 0.234 0.286 0.234 0.359v0.105l-0.433-0.024c-1.145-0.063-2.248-0.423-4.484-1.461-0.321-0.149-1.006-0.458-1.522-0.685s-1.069-0.496-1.229-0.597c-0.379-0.237-0.753-0.613-0.9-0.904-0.108-0.214-0.117-0.264-0.116-0.674 0.001-0.384 0.016-0.486 0.116-0.763 0.106-0.296 0.11-0.323 0.047-0.369-0.152-0.111-2.24-0.155-2.884-0.062-1.069 0.156-1.887 0.558-2.35 1.154-0.768 0.989-0.505 1.895 1 3.439 1.558 1.6 3.432 2.879 6.121 4.177 3.371 1.628 5.757 2.347 8.61 2.597 0.702 0.061 2.538 0.020 3.345-0.075zM12.134 8.075c-0.389-0.136-0.696-0.421-0.912-0.847-0.156-0.309-0.164-0.637-0.020-0.89 0.145-0.256 0.219-0.259 0.432-0.016 0.296 0.339 0.915 0.588 1.525 0.615 0.111 0.005 0.546-0.006 0.967-0.024 0.802-0.034 1.060-0.009 1.35 0.132 0.077 0.038 0.146 0.098 0.153 0.134 0.022 0.114-0.189 0.159-1.279 0.278-0.762 0.083-1.459 0.312-1.789 0.589-0.132 0.111-0.184 0.114-0.427 0.029zM19.121 5.437c-0.015-0.025 0.057-0.122 0.164-0.22 0.185-0.17 0.191-0.182 0.171-0.358-0.028-0.248-0.121-0.375-0.355-0.483-0.109-0.050-0.186-0.103-0.172-0.118s0.191-0.026 0.392-0.026c0.359 0 0.675 0.058 0.872 0.16 0.228 0.117 0.441 0.389 0.441 0.56 0 0.093-0.194 0.267-0.391 0.349-0.258 0.108-1.078 0.207-1.122 0.136z"></path>
<path d="M14.972 31.959c-5.086-0.413-9.482-2.985-12.261-7.173-1.79-2.699-2.701-5.901-2.619-9.205 0.032-1.3 0.157-2.236 0.456-3.43 1.317-5.251 5.221-9.533 10.252-11.246 2.638-0.898 5.255-1.109 7.992-0.646 3.887 0.659 7.435 2.785 9.89 5.926 2.034 2.603 3.228 5.849 3.35 9.108 0.1 2.672-0.373 5.081-1.46 7.437-0.786 1.702-1.817 3.168-3.205 4.556-1.341 1.341-2.737 2.339-4.362 3.118-1.657 0.795-3.33 1.272-5.233 1.493-0.659 0.076-2.192 0.109-2.801 0.060zM17.925 31.66c3.388-0.428 6.406-1.826 8.876-4.112 0.727-0.673 1.918-2.025 1.882-2.136-0.038-0.116-0.333-0.156-1.098-0.148-0.552 0.006-0.881-0.011-1.169-0.058-0.281-0.046-0.634-0.064-1.184-0.061-0.897 0.005-0.954 0.023-0.916 0.285 0.080 0.538 0.079 0.54-0.025 0.637-0.054 0.051-0.387 0.21-0.739 0.355s-0.722 0.309-0.822 0.366c-0.1 0.057-0.472 0.389-0.826 0.737-0.673 0.661-0.885 0.829-1.248 0.989-0.276 0.122-0.627 0.175-0.626 0.095 0.001-0.097 0.396-0.806 0.705-1.265 0.164-0.244 0.633-0.874 1.043-1.401s0.792-1.057 0.849-1.179c0.070-0.148 0.125-0.372 0.166-0.675 0.034-0.249 0.152-0.771 0.263-1.159 0.216-0.756 0.291-1.278 0.198-1.389-0.077-0.093-0.243-0.075-0.613 0.067-0.309 0.118-0.371 0.128-0.799 0.126-0.353-0.002-0.579-0.029-0.947-0.113-0.555-0.126-0.868-0.122-1.31 0.020-0.348 0.111-0.563 0.106-0.927-0.024-0.28-0.1-0.351-0.108-0.947-0.108-0.355-0-0.924 0.029-1.265 0.066-0.756 0.080-1.607 0.083-2.038 0.006-0.404-0.072-0.815-0.273-1.124-0.549-0.13-0.116-0.449-0.476-0.709-0.799-0.531-0.66-0.793-0.915-1.098-1.067-0.265-0.132-0.342-0.131-0.538 0.012-0.243 0.177-0.318 0.187-0.518 0.070-0.224-0.131-0.345-0.272-0.749-0.867-0.38-0.56-0.582-0.754-1.002-0.961-0.266-0.131-0.336-0.149-0.607-0.15-0.247-0.001-0.349 0.019-0.528 0.104-0.7 0.33-1.010 1.187-0.69 1.909 0.12 0.271 0.538 0.917 0.805 1.244 0.283 0.347 0.473 0.52 0.687 0.63 0.241 0.123 0.367 0.297 0.367 0.509 0 0.123-0.024 0.203-0.078 0.257-0.187 0.187-0.674 0.155-1.151-0.077-0.361-0.175-0.476-0.281-0.861-0.794-0.546-0.726-1.091-0.892-2.605-0.79-0.31 0.021-0.936 0.027-1.39 0.013s-0.867-0.011-0.917 0.006c-0.113 0.038-0.121 0.221-0.028 0.622 0.060 0.258 0.059 0.277-0.014 0.374-0.042 0.057-0.135 0.115-0.206 0.129s-0.139 0.036-0.151 0.049c-0.028 0.028 0.164 0.526 0.423 1.096 0.895 1.968 2.27 3.827 3.875 5.238 2.598 2.285 5.666 3.602 9.149 3.929 0.568 0.053 2.589 0.018 3.174-0.056zM17.753 24.604c-0.222-0.076-0.51-0.17-0.641-0.21-0.293-0.088-0.338-0.149-0.272-0.37 0.052-0.175 0.2-0.286 0.378-0.286 0.052 0 0.253 0.065 0.447 0.144 0.67 0.273 0.974 0.272 1.336-0.004 0.101-0.077 0.201-0.14 0.222-0.14 0.090 0 0.172 0.204 0.152 0.38-0.043 0.386-0.357 0.601-0.897 0.615-0.276 0.007-0.381-0.011-0.725-0.13zM22.69 20.658c1.555-0.184 2.261-0.362 3.186-0.803 1.343-0.641 2.668-1.933 3.159-3.081 0.227-0.531 0.28-0.777 0.28-1.297 0-0.498-0.058-0.77-0.247-1.149-0.46-0.923-1.263-1.492-3.248-2.303-0.493-0.202-0.65-0.25-0.693-0.215-0.030 0.025-0.086 0.14-0.124 0.254-0.12 0.363-0.295 0.718-0.483 0.981-0.1 0.14-0.189 0.255-0.197 0.255s-0.044 0.011-0.079 0.024c-0.104 0.040-0.080-0.187 0.095-0.894 0.277-1.116 0.285-1.268 0.118-2.145-0.115-0.602-0.389-1.415-0.847-2.515-0.222-0.532-0.476-1.178-0.565-1.437-0.548-1.594-1.406-2.599-2.531-2.967-1.135-0.371-2.172-0.382-3.853-0.041-0.961 0.195-1.27 0.187-2.658-0.071-0.906-0.168-1.715-0.182-2.215-0.039-0.636 0.183-1.151 0.545-1.414 0.993-0.059 0.101-0.19 0.37-0.289 0.596-0.552 1.254-0.825 2.445-0.833 3.637-0.004 0.622-0.001 0.653 0.105 0.878 0.060 0.128 0.214 0.343 0.343 0.478 0.593 0.623 1.279 0.921 3.607 1.565 1.803 0.499 2.377 0.693 2.712 0.919 0.426 0.287 0.546 0.519 0.667 1.29 0.050 0.318 0.121 0.443 0.514 0.899 0.298 0.346 0.28 0.382-0.189 0.372-0.862-0.018-2.080-0.364-3.491-0.991-0.222-0.098-0.757-0.342-1.189-0.542s-1.049-0.476-1.37-0.615c-0.786-0.34-1.102-0.501-1.395-0.709-0.768-0.545-1.018-1.212-0.76-2.032 0.059-0.188 0.111-0.397 0.114-0.463 0.006-0.113-0.005-0.122-0.175-0.146-0.1-0.014-0.571-0.039-1.048-0.055-2.073-0.068-3.157 0.231-3.94 1.086-0.358 0.391-0.509 0.715-0.527 1.128-0.016 0.376 0.082 0.692 0.361 1.162 0.437 0.737 1.791 2.081 3.038 3.017 1.664 1.248 3.858 2.42 6.65 3.552 2.013 0.816 3.8 1.272 5.622 1.435 0.277 0.025 0.567 0.052 0.645 0.061 0.359 0.040 2.633-0.014 3.144-0.074zM12.030 8.024c-0.402-0.187-0.742-0.576-0.889-1.018-0.058-0.176-0.062-0.24-0.023-0.411 0.045-0.195 0.212-0.469 0.286-0.469 0.020 0 0.123 0.092 0.23 0.205 0.313 0.331 0.613 0.477 1.202 0.584 0.27 0.049 0.433 0.051 1.008 0.012 0.377-0.026 0.823-0.036 0.991-0.023 0.297 0.023 0.735 0.153 0.785 0.233 0.080 0.129-0.201 0.203-1.071 0.281-0.835 0.075-1.579 0.298-1.958 0.587-0.151 0.115-0.339 0.121-0.56 0.018zM19.123 5.402c0.018-0.029 0.101-0.114 0.186-0.191 0.188-0.17 0.214-0.244 0.159-0.45-0.044-0.163-0.246-0.378-0.402-0.428-0.318-0.101 0.363-0.142 0.769-0.047 0.425 0.1 0.8 0.409 0.8 0.66 0 0.118-0.267 0.314-0.539 0.395-0.287 0.085-1.016 0.131-0.973 0.061z"></path>
<path d="M15.214 31.958c-3.943-0.26-7.505-1.825-10.272-4.511-2.941-2.856-4.658-6.703-4.814-10.789-0.079-2.060 0.165-3.804 0.794-5.687 0.811-2.425 2.085-4.476 3.911-6.296 0.855-0.852 1.447-1.343 2.344-1.944 2.090-1.401 4.595-2.319 7.009-2.569 0.233-0.024 0.516-0.062 0.63-0.084 0.267-0.052 2.121-0.053 2.423-0.001 0.128 0.022 0.44 0.061 0.695 0.086 1.678 0.169 3.645 0.752 5.256 1.558 3.086 1.545 5.609 4.057 7.136 7.104 1.917 3.825 2.234 8.195 0.888 12.233-1.725 5.175-6.004 9.127-11.299 10.437-1.588 0.393-3.264 0.558-4.702 0.463zM16.987 31.758c2.126-0.134 4.009-0.618 5.896-1.514 2.064-0.981 4.010-2.519 5.464-4.32 0.326-0.403 0.389-0.503 0.35-0.551-0.093-0.112-0.474-0.155-1.139-0.128-0.525 0.021-0.718 0.012-1.128-0.054-0.38-0.061-0.667-0.078-1.238-0.073-0.703 0.006-0.748 0.012-0.846 0.096l-0.104 0.089 0.073 0.283c0.111 0.431 0.074 0.472-0.718 0.793-0.921 0.373-0.97 0.406-1.774 1.188-0.623 0.606-0.768 0.727-1.028 0.853-0.292 0.142-0.669 0.25-0.734 0.209-0.051-0.031 0.318-0.712 0.674-1.243 0.178-0.266 0.647-0.899 1.043-1.405s0.753-0.978 0.794-1.049c0.128-0.218 0.2-0.47 0.258-0.911 0.031-0.233 0.14-0.714 0.243-1.069s0.206-0.794 0.23-0.976c0.038-0.292 0.035-0.344-0.026-0.437s-0.088-0.102-0.217-0.079c-0.081 0.014-0.275 0.075-0.43 0.135-0.257 0.099-0.329 0.108-0.806 0.106-0.422-0.003-0.618-0.025-1.006-0.115-0.548-0.127-0.665-0.123-1.268 0.047l-0.38 0.107-0.265-0.073c-0.146-0.040-0.355-0.098-0.465-0.128-0.288-0.080-1.029-0.069-2.059 0.029-1.322 0.126-2.068 0.063-2.634-0.224-0.282-0.143-0.707-0.555-1.143-1.108-0.497-0.63-0.809-0.931-1.131-1.090l-0.264-0.13-0.153 0.082c-0.084 0.045-0.21 0.113-0.28 0.151-0.076 0.042-0.166 0.059-0.225 0.044-0.175-0.044-0.475-0.352-0.767-0.789-0.396-0.592-0.534-0.753-0.809-0.939-0.321-0.218-0.609-0.314-0.943-0.314-0.507 0-0.97 0.32-1.214 0.839-0.091 0.195-0.107 0.283-0.107 0.594 0 0.339 0.010 0.386 0.149 0.665 0.363 0.732 1.076 1.614 1.487 1.837 0.242 0.132 0.331 0.261 0.335 0.49 0.005 0.255-0.101 0.331-0.465 0.331-0.319 0-0.622-0.093-0.954-0.292-0.169-0.101-0.297-0.235-0.555-0.58-0.618-0.825-1.105-0.998-2.535-0.9-0.434 0.030-1.011 0.036-1.575 0.018-0.804-0.026-0.896-0.022-0.957 0.039-0.085 0.085-0.086 0.236-0.003 0.567 0.036 0.142 0.054 0.302 0.041 0.354-0.025 0.099-0.173 0.189-0.31 0.189-0.115 0-0.1 0.105 0.079 0.556 1.036 2.601 2.892 4.989 5.233 6.734 1.048 0.781 2.645 1.652 3.852 2.1 2.072 0.77 4.3 1.104 6.456 0.968zM17.793 24.588c-0.266-0.088-0.59-0.189-0.72-0.225l-0.237-0.065 0.021-0.187c0.041-0.367 0.281-0.419 0.854-0.185 0.592 0.241 1.057 0.225 1.312-0.047 0.126-0.134 0.225-0.126 0.303 0.024 0.187 0.361-0.22 0.781-0.8 0.826-0.214 0.017-0.319-0.003-0.733-0.14zM21.582 20.755c1.566-0.084 2.761-0.277 3.607-0.582 2.014-0.726 3.767-2.482 4.095-4.103 0.077-0.381 0.058-1.060-0.039-1.363-0.29-0.909-0.996-1.593-2.272-2.199-0.655-0.311-1.688-0.739-1.785-0.739-0.095 0-0.137 0.062-0.221 0.322-0.169 0.526-0.556 1.171-0.722 1.203-0.093 0.018-0.084-0.044 0.149-0.961 0.156-0.616 0.168-0.704 0.167-1.189-0.003-0.882-0.221-1.684-0.908-3.331-0.222-0.532-0.476-1.179-0.565-1.438-0.481-1.4-1.144-2.305-2.052-2.803-0.346-0.189-0.637-0.287-1.161-0.39-0.896-0.175-1.898-0.146-3.028 0.088-1.083 0.224-1.445 0.223-2.7-0.010-0.925-0.172-1.764-0.201-2.272-0.080-0.721 0.172-1.282 0.575-1.573 1.13-0.442 0.842-0.774 1.828-0.95 2.824-0.098 0.558-0.162 1.517-0.121 1.821 0.059 0.431 0.402 0.914 0.885 1.242 0.592 0.403 1.275 0.66 3.109 1.169 2.233 0.62 2.595 0.751 2.972 1.074 0.229 0.196 0.361 0.495 0.449 1.021 0.082 0.488 0.114 0.552 0.469 0.94 0.274 0.299 0.321 0.384 0.233 0.418-0.113 0.043-0.826-0.017-1.245-0.105-0.939-0.197-1.874-0.545-3.529-1.314-0.321-0.149-1.007-0.458-1.525-0.686-1.143-0.505-1.435-0.673-1.803-1.042-0.564-0.564-0.655-1.062-0.354-1.928 0.080-0.231 0.097-0.325 0.064-0.358-0.072-0.072-1.16-0.123-2.126-0.101-0.995 0.023-1.463 0.098-1.99 0.317-0.837 0.348-1.498 1.044-1.62 1.704-0.090 0.484 0.123 1.098 0.607 1.753 0.345 0.467 1.596 1.704 2.249 2.224 1.858 1.48 4.123 2.73 7.244 3.995 2.35 0.953 4.353 1.397 6.73 1.492 0.653 0.026 0.801 0.025 1.532-0.014zM12.131 8.038c-0.497-0.156-1.008-0.817-1.008-1.306 0-0.162 0.145-0.478 0.249-0.541 0.055-0.033 0.103-0.001 0.255 0.168 0.247 0.274 0.644 0.472 1.128 0.561 0.318 0.058 0.46 0.061 1.149 0.022 0.814-0.047 1.087-0.030 1.449 0.091 0.217 0.072 0.276 0.125 0.213 0.189-0.062 0.062-0.298 0.104-0.977 0.175-0.971 0.101-1.672 0.312-2.028 0.61-0.13 0.109-0.177 0.112-0.43 0.033zM19.174 5.417c-0.013-0.013 0.059-0.103 0.16-0.2 0.176-0.168 0.183-0.184 0.163-0.359-0.025-0.225-0.114-0.366-0.299-0.475-0.126-0.074-0.134-0.088-0.070-0.124 0.114-0.064 0.765 0.037 1.013 0.157s0.454 0.351 0.454 0.507c0 0.222-0.357 0.4-0.952 0.473-0.416 0.051-0.438 0.052-0.469 0.020z"></path>
<path d="M15.436 31.964c-0.277-0.013-0.467-0.036-0.423-0.050 0.047-0.015-0.006-0.027-0.129-0.030-0.598-0.013-1.879-0.227-2.853-0.475-5.398-1.378-9.825-5.729-11.3-11.107-0.422-1.539-0.578-2.739-0.576-4.422 0.004-3.13 0.923-6.112 2.701-8.766 2.42-3.611 6.13-6.031 10.404-6.785 0.555-0.098 1.458-0.205 1.793-0.212 0.211-0.005 0.224-0.009 0.101-0.035-0.078-0.016 0.321-0.030 0.887-0.031s0.982 0.012 0.927 0.028c-0.066 0.019 0.054 0.039 0.343 0.058 2.978 0.198 6.104 1.4 8.504 3.271 2.473 1.928 4.317 4.503 5.341 7.455 0.855 2.467 1.066 5.381 0.579 8.040-0.569 3.11-2.047 5.95-4.287 8.236-2.252 2.298-5.043 3.824-8.162 4.463-0.624 0.128-1.696 0.275-2.054 0.282-0.163 0.003-0.183 0.011-0.103 0.036 0.065 0.021-0.058 0.034-0.343 0.037-0.244 0.002-0.534 0.011-0.645 0.018s-0.428 0.003-0.705-0.010zM16.866 31.797c1.146-0.063 2.102-0.205 3.094-0.459 2.782-0.714 5.242-2.108 7.259-4.116 0.76-0.756 1.583-1.744 1.542-1.851-0.046-0.121-0.351-0.162-1.215-0.163-0.601-0.001-0.964-0.021-1.25-0.069-0.304-0.051-0.583-0.064-1.128-0.054-0.399 0.008-0.755 0.026-0.792 0.042-0.135 0.057-0.168 0.236-0.089 0.485 0.118 0.375 0.047 0.444-0.791 0.77-0.794 0.308-0.891 0.374-1.612 1.082-0.366 0.359-0.753 0.713-0.86 0.785-0.33 0.224-0.915 0.424-0.913 0.314 0.001-0.088 0.36-0.724 0.665-1.178 0.164-0.244 0.637-0.879 1.051-1.411s0.796-1.058 0.848-1.169c0.101-0.216 0.146-0.409 0.217-0.941 0.025-0.185 0.107-0.54 0.182-0.788 0.207-0.684 0.259-0.941 0.26-1.285 0.001-0.293-0.006-0.316-0.095-0.35-0.111-0.042-0.251-0.015-0.677 0.133-0.477 0.165-0.928 0.148-1.96-0.074-0.34-0.073-0.559-0.055-1.032 0.086-0.402 0.119-0.465 0.119-0.832-0.010-0.424-0.149-1.111-0.173-2.055-0.071-0.932 0.1-2.004 0.099-2.395-0.002-0.605-0.156-0.966-0.433-1.601-1.229-0.544-0.681-0.81-0.95-1.103-1.115-0.311-0.175-0.472-0.179-0.684-0.019-0.347 0.263-0.578 0.107-1.186-0.802-0.324-0.484-0.506-0.681-0.796-0.858-0.658-0.402-1.328-0.356-1.807 0.123-0.329 0.329-0.499 0.819-0.442 1.273 0.047 0.374 0.427 1.051 0.954 1.7 0.271 0.333 0.463 0.51 0.672 0.617 0.277 0.142 0.401 0.343 0.351 0.57-0.036 0.162-0.146 0.212-0.464 0.21-0.206-0.001-0.338-0.031-0.571-0.128-0.383-0.159-0.569-0.319-0.916-0.787-0.307-0.415-0.446-0.537-0.771-0.679-0.464-0.203-0.432-0.201-2.818-0.181l-1.469 0.013-0.061 0.108c-0.052 0.093-0.053 0.141-0.009 0.343 0.105 0.472 0.105 0.559 0.001 0.632-0.052 0.036-0.143 0.066-0.202 0.066s-0.117 0.025-0.129 0.056c-0.043 0.111 0.509 1.381 0.939 2.161 2.361 4.284 6.523 7.243 11.306 8.036 0.572 0.095 1.082 0.149 1.713 0.183 0.851 0.045 0.88 0.045 1.673 0.002zM17.955 24.603c-0.155-0.056-0.445-0.148-0.645-0.205-0.453-0.129-0.476-0.149-0.414-0.353 0.036-0.117 0.081-0.17 0.18-0.211 0.118-0.049 0.157-0.046 0.364 0.030 0.128 0.047 0.35 0.128 0.494 0.181 0.436 0.16 0.792 0.12 1.114-0.125 0.167-0.128 0.196-0.125 0.256 0.021 0.147 0.356-0.246 0.723-0.806 0.752-0.203 0.011-0.325-0.009-0.544-0.088zM22.811 20.697c1.431-0.181 2.102-0.345 2.913-0.711 0.869-0.392 1.442-0.795 2.166-1.524 0.966-0.973 1.428-1.855 1.477-2.825 0.056-1.104-0.406-1.931-1.498-2.681-0.51-0.35-2.505-1.245-2.719-1.22-0.075 0.009-0.114 0.051-0.157 0.173-0.185 0.518-0.343 0.856-0.508 1.088-0.18 0.252-0.263 0.319-0.263 0.212 0-0.028 0.082-0.386 0.182-0.796 0.225-0.925 0.254-1.247 0.163-1.828-0.132-0.839-0.33-1.468-0.872-2.768-0.219-0.525-0.473-1.17-0.564-1.433-0.48-1.381-1.157-2.326-2.013-2.808-1.068-0.601-2.626-0.703-4.513-0.295-0.875 0.189-1.191 0.18-2.519-0.067-0.595-0.111-0.775-0.128-1.37-0.129-0.608-0.001-0.719 0.009-0.987 0.093-0.72 0.225-1.183 0.587-1.478 1.156-0.67 1.291-1.034 2.731-1.038 4.11l-0.002 0.685 0.132 0.268c0.192 0.391 0.645 0.806 1.181 1.081 0.551 0.283 1.094 0.471 2.456 0.852 2.526 0.706 2.903 0.843 3.249 1.188 0.199 0.198 0.313 0.48 0.393 0.976 0.070 0.434 0.117 0.531 0.432 0.883 0.304 0.34 0.344 0.408 0.261 0.44-0.085 0.033-0.807-0.054-1.271-0.152-0.815-0.173-1.957-0.603-3.466-1.305-0.321-0.15-1.007-0.459-1.525-0.687s-1.070-0.492-1.229-0.586c-0.378-0.224-0.786-0.634-0.935-0.94-0.101-0.207-0.116-0.285-0.116-0.584 0-0.284 0.024-0.415 0.134-0.737 0.073-0.216 0.123-0.418 0.111-0.45-0.034-0.089-0.443-0.118-1.74-0.121-0.932-0.002-1.247 0.011-1.557 0.066-0.471 0.084-0.928 0.241-1.305 0.45-0.364 0.202-0.878 0.717-1.068 1.071-0.138 0.256-0.141 0.273-0.141 0.725v0.463l0.19 0.383c0.255 0.514 0.502 0.831 1.22 1.567 1.621 1.66 3.427 2.899 6.092 4.182 3.378 1.626 5.771 2.361 8.438 2.592 0.654 0.057 3.069 0.020 3.668-0.056zM12.101 7.988c-0.502-0.201-0.94-0.786-0.937-1.252 0.001-0.17 0.131-0.48 0.215-0.512 0.036-0.014 0.132 0.057 0.249 0.182 0.26 0.277 0.633 0.459 1.128 0.548 0.351 0.063 0.465 0.065 1.133 0.021 0.409-0.027 0.838-0.037 0.953-0.023 0.263 0.033 0.596 0.135 0.669 0.204 0.047 0.044 0.031 0.059-0.101 0.094-0.086 0.023-0.347 0.061-0.58 0.086-1.269 0.134-1.835 0.291-2.281 0.631-0.146 0.111-0.218 0.115-0.449 0.022zM19.38 5.22c0.119-0.129 0.166-0.215 0.166-0.304 0-0.179-0.092-0.371-0.236-0.493-0.070-0.059-0.126-0.119-0.126-0.135 0-0.043 0.518 0.014 0.75 0.083 0.271 0.080 0.509 0.259 0.599 0.448l0.073 0.154-0.134 0.112c-0.161 0.135-0.403 0.219-0.784 0.273-0.498 0.071-0.5 0.070-0.307-0.139z"></path>
</svg>
