<!-- Generated by IcoMoon.io -->
<svg version="1.1" xmlns="http://www.w3.org/2000/svg" width="32" height="32" viewBox="0 0 32 32">
<title>redhat</title>
<path d="M13.029 31.771c-0.634-0.053-1.394-0.223-2.189-0.491-4.534-1.527-8.029-4.766-9.857-9.134-0.78-1.866-0.986-3.137-0.983-6.090 0.003-3.274 0.307-4.836 1.383-7.105 2.167-4.567 7.295-8.357 11.817-8.733 1.509-0.125 3.951-0.122 5.371 0.007 2.031 0.184 4.899 1.391 6.93 2.915 1.2 0.9 2.945 2.71 3.69 3.825 1.115 1.67 2.027 3.793 2.408 5.603 0.273 1.296 0.241 5.938-0.049 7.145-0.871 3.626-3.013 6.864-6.053 9.148-2.024 1.521-4.896 2.728-6.926 2.912-1.301 0.118-4.103 0.117-5.543-0.003zM17.998 30.28c1.973-0.226 4.713-1.372 6.535-2.732 0.492-0.368 1.307-1.098 1.81-1.623l0.914-0.954-0.514-0.037c-0.283-0.021-0.794-0.003-1.137 0.040-0.543 0.067-0.682 0.141-1.086 0.575-0.255 0.274-0.7 0.599-0.99 0.721s-0.907 0.568-1.371 0.991c-1.268 1.153-2.385 1.545-2.949 1.034-0.485-0.439-0.342-0.841 1.009-2.845 1.13-1.674 1.261-1.923 1.385-2.626 0.076-0.427 0.118-0.796 0.094-0.82-0.089-0.089-2.001-0.094-2.47-0.006-0.306 0.057-0.666 0.039-0.975-0.047-0.396-0.111-0.733-0.103-1.754 0.039-2.089 0.291-2.807 0.076-4.384-1.316-0.764-0.674-0.967-0.799-1.202-0.74-0.472 0.119-1.025-0.205-1.539-0.9-0.495-0.67-0.889-0.941-1.196-0.823-0.447 0.172-0.021 1.141 0.907 2.061 0.514 0.51 0.629 0.694 0.629 1.008 0 0.489-0.269 0.873-0.754 1.076-0.816 0.341-1.519 0.128-2.492-0.753l-0.748-0.678-0.546 0.17c-1.097 0.342-1.802 0.506-2.17 0.506-0.225 0-0.376 0.057-0.375 0.143 0.001 0.242 0.78 1.677 1.405 2.589 2.083 3.036 6.124 5.533 9.623 5.945 1.167 0.137 3.163 0.139 4.341 0.004zM17.314 24.072c-0.774-0.332-0.857-0.395-0.857-0.642 0-0.545 0.73-0.734 1.536-0.397 0.398 0.166 0.444 0.162 0.823-0.072 0.363-0.224 0.419-0.231 0.579-0.072 0.239 0.239 0.112 0.707-0.307 1.125-0.402 0.402-0.931 0.419-1.774 0.057zM23.178 18.855c1.81-0.358 3.249-1.188 3.855-2.224 0.4-0.682 0.529-1.179 0.442-1.707-0.143-0.873-1.495-1.864-2.847-2.088-0.325-0.054-0.361-0.019-0.686 0.668-0.417 0.881-0.782 1.081-1.286 0.707-0.429-0.319-0.449-0.736-0.080-1.606 0.246-0.579 0.297-0.841 0.246-1.267-0.145-1.209-1.413-4.347-2.247-5.559-0.704-1.023-1.606-1.237-3.617-0.856-1.28 0.242-1.472 0.25-3.294 0.133-1.639-0.105-1.985-0.099-2.255 0.041-0.336 0.174-0.58 0.56-0.716 1.133-0.066 0.277-0.053 0.315 0.064 0.2 0.221-0.217 0.604-0.172 0.966 0.114 0.29 0.228 0.495 0.264 1.823 0.316 1.672 0.066 2.11 0.221 2.11 0.746 0 0.354-0.204 0.438-1.479 0.609-0.531 0.071-1.177 0.232-1.436 0.357s-0.579 0.228-0.71 0.228c-0.29 0-1.243-0.9-1.42-1.34-0.127-0.316-0.128-0.315-0.282 0.255-0.085 0.314-0.155 0.817-0.157 1.117-0.002 0.525 0.017 0.558 0.528 0.882 0.583 0.37 1.416 0.666 2.898 1.030 2.621 0.644 3.050 0.898 3.619 2.147 0.215 0.471 0.491 0.985 0.615 1.142 0.329 0.418 0.296 1.060-0.071 1.405-0.257 0.242-0.4 0.276-1.114 0.271-1.843-0.013-6.201-1.581-7.69-2.767-0.612-0.487-1.186-1.431-1.186-1.95v-0.278l-1.057 0.079c-1.688 0.127-2.306 0.541-2.090 1.401 0.12 0.478 1.828 2.1 3.033 2.881 2.616 1.695 5.991 3.089 9.029 3.73 1.973 0.416 4.541 0.436 6.492 0.050zM17.448 6.895c-0.181-0.181-0.052-0.478 0.267-0.61 0.64-0.265 0.372-0.429-0.791-0.485-1.402-0.067-0.453-0.682 1.077-0.697 1.057-0.011 1.675 0.166 1.992 0.569 0.501 0.637-0.37 1.299-1.711 1.299-0.416 0-0.791-0.034-0.833-0.076z"></path>
<path d="M13.311 31.778c-1.042-0.121-2.356-0.485-3.583-0.993-4.947-2.048-8.819-6.821-9.565-11.791-0.216-1.439-0.211-4.511 0.010-5.983 0.766-5.103 4.713-9.883 9.832-11.91 2.053-0.813 2.739-0.92 5.879-0.922 2.696-0.001 2.842 0.010 3.923 0.309 3.063 0.846 5.556 2.327 7.691 4.567 2.127 2.232 3.518 4.939 4.092 7.965 0.275 1.448 0.247 4.839-0.051 6.302-0.602 2.955-1.899 5.383-4.11 7.695-2.064 2.158-4.61 3.664-7.561 4.473-0.949 0.26-1.333 0.298-3.412 0.337-1.289 0.024-2.704 0.001-3.146-0.050zM18.591 30.278c1.566-0.244 3.674-1.117 5.38-2.228 0.992-0.646 3.344-2.833 3.344-3.109 0-0.173-0.801-0.185-1.771-0.028-0.585 0.095-0.734 0.171-1.016 0.52-0.182 0.225-0.644 0.567-1.027 0.761s-1.031 0.658-1.441 1.034c-0.797 0.731-1.689 1.227-2.207 1.229-0.368 0.001-0.881-0.45-0.881-0.776 0-0.119 0.437-0.854 0.97-1.634 1.419-2.073 1.547-2.307 1.725-3.158 0.089-0.425 0.162-0.826 0.162-0.89 0-0.1-0.546-0.163-1.714-0.2-0.157-0.005-0.494 0.044-0.748 0.108-0.338 0.085-0.615 0.077-1.029-0.030-0.474-0.123-0.762-0.118-1.766 0.029-2.088 0.306-2.831 0.087-4.369-1.287-0.85-0.76-0.982-0.838-1.303-0.779-0.509 0.095-0.952-0.175-1.517-0.924-0.266-0.353-0.612-0.69-0.769-0.75-0.373-0.142-0.727 0.047-0.727 0.388 0 0.374 0.626 1.319 1.211 1.827 0.433 0.376 0.504 0.499 0.504 0.879 0 0.642-0.373 1.032-1.062 1.109-0.75 0.085-1.398-0.191-2.081-0.884-0.639-0.648-0.873-0.696-1.738-0.356-0.301 0.118-0.9 0.27-1.332 0.337s-0.815 0.152-0.851 0.188c-0.036 0.036 0.103 0.412 0.31 0.834 2.154 4.393 6.778 7.59 11.44 7.91 1.367 0.094 3.268 0.040 4.305-0.121zM17.657 24.1c-0.314-0.13-0.687-0.281-0.829-0.337s-0.257-0.195-0.257-0.309c0-0.483 0.479-0.598 1.428-0.344 0.45 0.12 0.561 0.112 0.859-0.064 0.552-0.326 0.736-0.040 0.397 0.615-0.155 0.299-0.691 0.688-0.935 0.678-0.050-0.002-0.349-0.11-0.663-0.239zM23.6 18.871c2.432-0.647 3.943-2.020 3.943-3.584 0-0.909-0.463-1.53-1.543-2.069-0.706-0.353-1.642-0.598-1.758-0.461-0.047 0.056-0.181 0.333-0.297 0.615-0.353 0.86-0.874 1.143-1.336 0.725-0.288-0.26-0.262-0.721 0.087-1.549 0.237-0.564 0.281-0.806 0.22-1.225-0.195-1.356-1.513-4.566-2.341-5.703-0.491-0.674-1.087-0.929-2.175-0.93-0.471-0-1.191 0.080-1.6 0.179-0.612 0.148-1.147 0.166-3.029 0.103-2.718-0.092-2.757-0.077-3.127 1.121-0.321 1.040-0.607 2.538-0.566 2.96 0.065 0.669 1.126 1.183 3.839 1.861 1.534 0.383 2.332 0.688 2.628 1.003 0.132 0.141 0.401 0.616 0.598 1.056s0.468 0.917 0.602 1.060c0.362 0.386 0.329 1.010-0.071 1.355-0.567 0.488-1.909 0.318-4.602-0.581-3.317-1.107-4.927-2.235-5.163-3.615l-0.086-0.504-0.968 0.037c-1.211 0.046-1.709 0.172-2.094 0.529-0.359 0.333-0.379 0.609-0.085 1.182 1.231 2.402 7.784 5.786 12.769 6.594 1.543 0.25 4.956 0.163 6.157-0.156zM11.681 8.532c-0.529-0.391-1.052-1.092-1.052-1.412 0-0.714 0.505-0.928 1.095-0.463 0.292 0.23 0.49 0.263 1.889 0.314 1.326 0.048 1.6 0.090 1.803 0.275 0.132 0.12 0.24 0.258 0.24 0.306 0 0.225-0.389 0.432-0.94 0.5-1.137 0.141-1.86 0.314-2.216 0.531-0.439 0.267-0.384 0.271-0.82-0.051zM17.629 6.903c-0.251-0.113-0.154-0.377 0.207-0.564 0.617-0.319 0.247-0.591-0.836-0.613-0.589-0.012-0.692-0.148-0.286-0.377 0.396-0.223 2.341-0.191 2.78 0.046 0.768 0.415 0.783 0.859 0.042 1.237-0.443 0.226-1.632 0.395-1.907 0.271z"></path>
<path d="M13.486 31.771c-1.713-0.202-3.951-0.992-5.663-2-4.039-2.377-6.948-6.503-7.654-10.854-0.223-1.372-0.218-4.375 0.009-5.774 0.904-5.575 5.2-10.514 10.68-12.277 1.969-0.633 2.36-0.687 5.029-0.689 2.613-0.002 2.895 0.035 4.771 0.637 5.833 1.87 10.083 6.797 10.953 12.698 0.23 1.563 0.166 4.578-0.126 5.918-0.924 4.238-3.659 8-7.449 10.247-1.452 0.861-2.818 1.419-4.606 1.881-0.996 0.258-4.503 0.384-5.943 0.214zM18.241 30.391c2.005-0.279 4.625-1.412 6.474-2.799 0.953-0.715 2.713-2.468 2.713-2.702 0-0.158-2.257-0.061-2.576 0.11-0.128 0.069-0.307 0.263-0.397 0.431-0.099 0.186-0.459 0.454-0.916 0.685-0.414 0.208-1.104 0.698-1.534 1.087-1.168 1.058-2.194 1.418-2.711 0.951-0.392-0.355-0.254-0.727 0.886-2.387 0.602-0.877 1.166-1.731 1.254-1.897 0.206-0.392 0.51-1.844 0.409-1.953-0.069-0.073-0.64-0.092-2.928-0.093-0.314-0-1.009 0.008-1.543 0.019-3.124 0.063-3.231 0.056-3.799-0.223-0.298-0.147-0.922-0.622-1.388-1.057-0.8-0.747-0.876-0.79-1.386-0.79-0.574 0-0.738-0.124-1.733-1.301-0.283-0.335-0.431-0.422-0.673-0.393-0.17 0.020-0.38 0.143-0.465 0.273-0.136 0.206-0.12 0.306 0.128 0.805 0.156 0.313 0.567 0.838 0.914 1.167 0.752 0.713 0.817 1.067 0.3 1.645-0.298 0.334-0.391 0.369-0.949 0.361-0.757-0.011-0.999-0.132-1.827-0.914-0.357-0.337-0.721-0.613-0.809-0.613s-0.531 0.126-0.985 0.281c-0.454 0.154-1.133 0.315-1.508 0.358s-0.711 0.121-0.744 0.175c-0.099 0.161 0.974 2.13 1.669 3.062 0.851 1.141 2.458 2.669 3.597 3.421 1.798 1.187 3.973 2.061 5.714 2.296 1.031 0.139 3.808 0.138 4.813-0.002zM17.281 23.907c-0.584-0.239-0.713-0.337-0.686-0.526 0.056-0.388 0.571-0.487 1.28-0.246 0.596 0.202 0.624 0.202 0.974-0.005 0.306-0.181 0.376-0.189 0.462-0.049 0.127 0.206-0.129 0.726-0.478 0.97-0.341 0.239-0.694 0.206-1.552-0.144zM21.928 19.198c3.277-0.345 5.419-1.74 5.688-3.703 0.096-0.701-0.275-1.447-0.974-1.955-0.627-0.456-2.174-1.005-2.371-0.842-0.073 0.060-0.242 0.365-0.376 0.677-0.31 0.721-0.661 0.974-1.084 0.782-0.436-0.199-0.492-0.594-0.18-1.285 0.432-0.959 0.42-1.542-0.065-3.044-0.5-1.548-1.145-2.986-1.771-3.947-0.825-1.267-1.742-1.515-3.986-1.080-1.241 0.241-1.4 0.246-3.212 0.116-2.62-0.189-2.675-0.156-3.208 1.928-0.357 1.397-0.456 2.183-0.309 2.458 0.304 0.571 1.241 0.987 3.646 1.62 1.076 0.283 2.092 0.586 2.258 0.672 0.464 0.241 0.776 0.631 1.106 1.38 0.166 0.377 0.426 0.848 0.577 1.048 0.499 0.658 0.247 1.384-0.548 1.582-0.913 0.227-5.317-1.090-7.127-2.13-1.221-0.702-1.933-1.516-2.059-2.355l-0.078-0.521-1.099 0.063c-1.189 0.068-1.642 0.194-2.042 0.568-1.484 1.391 3.579 5.152 9.471 7.035 2.903 0.928 5.188 1.204 7.744 0.935zM11.411 8.257c-0.625-0.564-0.844-1.070-0.643-1.49 0.202-0.421 0.466-0.44 0.951-0.070 0.395 0.302 0.465 0.314 1.86 0.325 1.533 0.012 1.963 0.126 1.963 0.518 0 0.305-0.095 0.342-1.347 0.53-0.611 0.091-1.305 0.267-1.543 0.391-0.589 0.306-0.696 0.289-1.242-0.204zM17.546 6.748c-0.037-0.060 0.076-0.2 0.25-0.312s0.356-0.255 0.401-0.319c0.154-0.216-0.293-0.403-0.963-0.403-0.377 0-0.664-0.051-0.664-0.117 0-0.378 2.009-0.496 2.83-0.167 0.487 0.196 0.72 0.567 0.538 0.861-0.257 0.416-2.191 0.785-2.394 0.457z"></path>
<path d="M13.726 31.766c-1.687-0.212-4.012-0.963-5.383-1.738-3.347-1.892-5.638-4.392-7.113-7.764-0.859-1.963-1.132-3.234-1.199-5.586-0.066-2.328 0.058-3.489 0.55-5.147 1.487-5.005 5.495-9.132 10.349-10.657 1.847-0.58 2.693-0.699 4.957-0.696 2.291 0.003 2.967 0.096 4.686 0.642 4.157 1.32 7.607 4.242 9.486 8.035 1.272 2.568 1.644 4.209 1.645 7.257 0.001 2.243-0.164 3.346-0.746 4.995-0.896 2.537-1.935 4.178-3.861 6.096-2.233 2.224-4.994 3.729-8.069 4.397-0.975 0.212-4.14 0.31-5.302 0.164zM19.714 30.129c2.843-0.866 5.443-2.481 7.114-4.42 0.86-0.998 0.829-1.074-0.4-0.984-1.352 0.099-1.751 0.232-2.029 0.676-0.144 0.229-0.477 0.485-0.891 0.684-0.364 0.175-1.094 0.695-1.623 1.158-1.322 1.156-2.375 1.427-2.707 0.698-0.169-0.37-0.116-0.476 1.133-2.283 1.246-1.802 1.329-1.965 1.503-2.948 0.156-0.881 0.114-1.024-0.271-0.928-0.15 0.038-0.536 0.012-0.859-0.057-0.471-0.101-0.704-0.092-1.183 0.048-0.529 0.154-0.661 0.154-1.159 0.004s-0.683-0.149-1.652 0.009c-1.324 0.217-2.327 0.156-3.028-0.184-0.289-0.14-0.937-0.633-1.441-1.096-0.812-0.745-0.955-0.834-1.253-0.774-0.456 0.091-0.979-0.145-1.274-0.576-0.511-0.748-0.925-1.099-1.293-1.099-0.415 0-0.629 0.177-0.629 0.519 0 0.344 0.814 1.565 1.251 1.876 0.497 0.354 0.619 0.713 0.411 1.21-0.181 0.434-0.533 0.622-1.159 0.622-0.593 0-1.123-0.267-1.801-0.909-0.335-0.317-0.713-0.577-0.838-0.577s-0.532 0.105-0.903 0.233c-0.371 0.128-1.048 0.289-1.504 0.357-0.577 0.086-0.829 0.173-0.829 0.285 0 0.256 0.657 1.502 1.325 2.512 1.987 3.006 5.447 5.353 9.075 6.154 0.552 0.122 1.402 0.156 3.314 0.133 2.429-0.030 2.628-0.049 3.6-0.345zM17.89 24.092c-0.123-0.072-0.432-0.191-0.686-0.266-0.372-0.11-0.462-0.189-0.462-0.409 0-0.348 0.343-0.408 1.186-0.206 0.542 0.13 0.656 0.125 0.948-0.043 0.296-0.17 0.34-0.172 0.4-0.014 0.097 0.253-0.188 0.725-0.553 0.914-0.373 0.193-0.536 0.198-0.834 0.025zM23.577 18.986c2.475-0.658 4.080-2.114 4.080-3.7 0-0.648-0.178-1.035-0.705-1.531-0.55-0.518-1.991-1.177-2.584-1.183-0.080-0.001-0.313 0.346-0.517 0.77-0.328 0.679-0.414 0.776-0.722 0.806-0.701 0.069-0.81-0.44-0.334-1.569 0.252-0.599 0.295-0.831 0.232-1.257-0.214-1.434-1.683-4.929-2.472-5.88-0.202-0.244-0.577-0.538-0.833-0.655-0.591-0.269-1.827-0.283-2.887-0.033-0.647 0.153-1.167 0.17-3.074 0.106l-2.295-0.078-0.359 0.302c-0.376 0.316-0.604 0.932-0.983 2.652-0.251 1.141-0.235 1.545 0.076 1.835 0.408 0.381 1.329 0.796 2.465 1.11 0.577 0.16 1.525 0.422 2.107 0.582 1.519 0.42 1.668 0.528 2.2 1.599 0.251 0.506 0.573 1.080 0.714 1.275 0.332 0.458 0.325 0.776-0.023 1.124-0.525 0.525-2.014 0.328-4.805-0.636-2.084-0.72-3.197-1.303-4.020-2.108-0.558-0.546-0.721-0.785-0.78-1.147-0.126-0.771-0.083-0.743-1.154-0.743-1.17 0-1.774 0.158-2.228 0.581-0.394 0.368-0.414 0.638-0.095 1.263 1.051 2.061 6.246 5.020 10.908 6.215 2.138 0.548 2.763 0.618 5.141 0.573 1.628-0.030 2.243-0.088 2.948-0.275zM11.354 8.075c-0.463-0.463-0.611-0.693-0.611-0.949 0-0.633 0.43-0.789 0.982-0.355 0.293 0.23 0.49 0.263 1.897 0.314 1.292 0.047 1.606 0.093 1.77 0.257 0.313 0.313 0.004 0.517-0.992 0.652-1.109 0.151-1.791 0.337-1.954 0.534-0.226 0.273-0.463 0.175-1.091-0.454zM17.662 6.75c-0.046-0.075-0.066-0.149-0.044-0.163s0.181-0.115 0.354-0.224c0.35-0.219 0.409-0.474 0.133-0.579-0.1-0.038-0.473-0.104-0.829-0.146l-0.647-0.077 0.343-0.147c0.416-0.178 1.559-0.199 2.134-0.039 1.419 0.394 1.009 1.264-0.68 1.44-0.471 0.049-0.706 0.029-0.764-0.065z"></path>
<path d="M13.683 31.71c-3.564-0.486-6.829-2.173-9.369-4.843-1.893-1.99-3.122-4.244-3.93-7.21-0.313-1.149-0.327-1.304-0.323-3.657 0.004-2.413 0.010-2.482 0.374-3.805 0.871-3.165 2.268-5.558 4.469-7.653 5.157-4.908 12.868-5.807 18.954-2.21 3.634 2.147 6.118 5.341 7.274 9.35 0.44 1.526 0.559 2.74 0.496 5.053-0.047 1.727-0.104 2.246-0.348 3.174-1.305 4.959-4.874 8.975-9.617 10.826-2.696 1.052-5.186 1.356-7.979 0.975zM19.431 30.245c1.973-0.522 3.751-1.383 5.355-2.591 0.985-0.742 2.757-2.544 2.757-2.804 0-0.205-1.403-0.228-2.291-0.038-0.479 0.103-0.629 0.195-0.809 0.502-0.151 0.257-0.451 0.485-0.946 0.722-0.412 0.197-1.113 0.697-1.625 1.159-0.685 0.618-1.045 0.855-1.506 0.991-0.552 0.162-0.63 0.162-0.886-0.006-0.499-0.327-0.376-0.668 0.926-2.586 1.125-1.656 1.223-1.846 1.419-2.743 0.116-0.53 0.177-1 0.135-1.045-0.068-0.072-1.115-0.102-2.989-0.084-0.346 0.003-0.911-0.009-1.257-0.028s-1.066 0.026-1.6 0.1c-1.681 0.231-2.522-0.055-3.902-1.327-0.828-0.763-0.88-0.792-1.402-0.772-0.581 0.022-0.655-0.033-1.61-1.216-0.592-0.733-1.429-0.653-1.429 0.136 0 0.398 0.507 1.184 1.186 1.838 0.619 0.596 0.702 1.059 0.266 1.469-0.656 0.616-1.615 0.415-2.659-0.557-0.401-0.373-0.78-0.678-0.843-0.678s-0.514 0.131-1.003 0.292c-0.489 0.161-1.21 0.331-1.602 0.379s-0.746 0.12-0.786 0.161c-0.106 0.106 0.639 1.626 1.249 2.55 1.933 2.93 4.99 5.156 8.397 6.112 1.258 0.353 2.215 0.438 4.425 0.393 1.627-0.034 2.12-0.087 3.031-0.328zM17.657 23.948c-0.189-0.084-0.484-0.208-0.657-0.276s-0.314-0.201-0.314-0.296c0-0.287 0.558-0.342 1.214-0.119 0.569 0.193 0.621 0.194 0.898 0.012 0.538-0.352 0.629 0.041 0.137 0.588-0.264 0.293-0.743 0.327-1.277 0.091zM22.795 19.184c2.654-0.456 4.49-1.762 4.871-3.464 0.171-0.765 0.017-1.277-0.57-1.894-0.491-0.516-1.671-1.106-2.416-1.208l-0.515-0.071-0.277 0.612c-0.463 1.024-0.732 1.214-1.165 0.823-0.278-0.251-0.264-0.487 0.077-1.297 0.157-0.373 0.286-0.855 0.286-1.069 0-1.019-1.21-4.211-2.156-5.684-0.909-1.417-1.79-1.69-4.006-1.243-1.217 0.245-1.388 0.253-3.24 0.135-2.798-0.177-2.836-0.153-3.403 2.089-0.412 1.632-0.438 2.358-0.096 2.7 0.366 0.366 1.746 0.953 2.9 1.233 1.72 0.417 2.863 0.795 3.194 1.055 0.173 0.136 0.518 0.673 0.766 1.192s0.526 1.007 0.617 1.082c0.091 0.076 0.166 0.308 0.166 0.516 0 0.476-0.437 0.851-0.992 0.851-1.083 0-4.349-0.969-6.127-1.817-1.682-0.803-2.51-1.621-2.691-2.661l-0.086-0.493-1.181 0.034c-1.219 0.035-1.634 0.156-2.151 0.628-1.197 1.095 1.939 3.933 6.664 6.031 4.072 1.808 8.19 2.494 11.531 1.92zM11.442 8.17c-0.569-0.514-0.778-0.992-0.604-1.375 0.162-0.356 0.394-0.355 0.865 0.005 0.346 0.264 0.473 0.287 1.678 0.297 1.46 0.013 1.797 0.075 1.978 0.366 0.179 0.287 0.011 0.359-1.22 0.522-0.58 0.077-1.249 0.24-1.487 0.363-0.585 0.303-0.698 0.287-1.211-0.177zM17.714 6.652c0-0.067 0.103-0.155 0.229-0.195s0.279-0.167 0.34-0.281c0.149-0.279-0.081-0.464-0.679-0.544-0.254-0.034-0.462-0.102-0.462-0.15 0-0.166 1.085-0.238 1.657-0.11 1.055 0.235 1.396 0.706 0.796 1.099-0.341 0.223-1.882 0.372-1.882 0.182z"></path>
<path d="M14.514 31.768c-0.283-0.050-0.926-0.152-1.429-0.226-2.598-0.384-5.543-1.806-7.768-3.751-2.641-2.309-4.588-5.885-5.205-9.562-0.123-0.735-0.126-3.083-0.004-4.114 0.344-2.914 1.796-6.162 3.796-8.49 2.24-2.608 5.943-4.691 9.181-5.165 0.503-0.074 1.193-0.181 1.533-0.24 1.079-0.184 1.956-0.131 4.181 0.254 1.032 0.178 2.731 0.747 3.898 1.304 4.405 2.102 7.62 6.168 8.628 10.916 0.309 1.457 0.373 4.76 0.119 6.164-0.417 2.303-1.416 4.597-2.811 6.453-2.088 2.779-4.81 4.722-8.062 5.753-2.149 0.681-4.584 0.965-6.057 0.705zM19.714 30.241c2.621-0.794 4.885-2.137 6.721-3.986 0.835-0.84 1.112-1.192 1.086-1.378-0.034-0.236-0.087-0.247-1.032-0.225-1.375 0.032-1.843 0.175-2.122 0.647-0.155 0.263-0.45 0.488-0.953 0.728-0.414 0.197-1.11 0.691-1.612 1.145-0.62 0.56-1.037 0.841-1.395 0.941-0.666 0.186-1.067 0.084-1.163-0.297-0.062-0.246 0.128-0.597 1.127-2.084 0.661-0.984 1.232-1.846 1.27-1.916s0.154-0.551 0.259-1.069c0.205-1.017 0.159-1.158-0.343-1.062-0.142 0.027-0.548-0.004-0.901-0.069-0.519-0.096-0.745-0.084-1.171 0.061-0.474 0.162-0.59 0.162-1.132 0.008-0.534-0.152-0.722-0.152-1.62-0.005-1.299 0.214-2.372 0.146-3.074-0.194-0.297-0.144-0.943-0.639-1.436-1.1-0.806-0.754-0.932-0.832-1.244-0.77-0.471 0.094-0.986-0.141-1.254-0.572-0.122-0.197-0.399-0.529-0.615-0.738-0.496-0.479-1.060-0.481-1.327-0.003-0.153 0.274-0.148 0.35 0.054 0.799 0.122 0.273 0.513 0.788 0.868 1.143 0.727 0.728 0.857 1.002 0.656 1.379-0.221 0.415-0.463 0.54-1.052 0.544-0.682 0.005-0.883-0.099-1.698-0.869-0.404-0.382-0.749-0.613-0.914-0.612-0.146 0.001-0.651 0.124-1.123 0.275s-1.157 0.31-1.523 0.356c-0.428 0.053-0.69 0.144-0.732 0.254-0.036 0.094 0.102 0.512 0.307 0.929 1.42 2.886 4.050 5.457 7.015 6.858 2.259 1.067 3.333 1.269 6.534 1.227 2.36-0.031 2.578-0.052 3.543-0.344zM17.657 23.879c-0.251-0.119-0.542-0.218-0.645-0.219s-0.218-0.082-0.255-0.179c-0.097-0.253 0.348-0.384 0.838-0.248 0.504 0.14 1.141 0.156 1.405 0.035 0.309-0.142 0.248 0.155-0.107 0.526s-0.599 0.387-1.236 0.086zM23.532 19.092c2.386-0.596 4.016-1.964 4.202-3.528 0.094-0.79-0.007-1.095-0.561-1.695-0.53-0.575-1.195-0.953-2.182-1.24-0.782-0.227-0.858-0.187-1.22 0.66-0.281 0.655-0.389 0.763-0.766 0.766-0.396 0.003-0.524-0.361-0.32-0.907 0.095-0.254 0.252-0.676 0.35-0.937 0.143-0.384 0.154-0.587 0.055-1.057-0.384-1.824-1.676-4.835-2.477-5.77-0.235-0.275-0.637-0.595-0.891-0.71-0.572-0.26-1.685-0.28-2.776-0.051-1.018 0.214-1.441 0.229-3.591 0.124-2.067-0.101-2.328-0.024-2.713 0.795-0.232 0.495-0.813 2.922-0.813 3.4 0 0.762 1.052 1.369 3.516 2.030 2.332 0.625 2.387 0.643 2.819 0.91 0.335 0.207 0.865 1.041 0.865 1.362 0 0.056 0.18 0.364 0.4 0.684 0.457 0.665 0.495 0.949 0.171 1.273-0.335 0.335-1.313 0.299-2.878-0.106-3.939-1.018-6.608-2.608-6.608-3.936 0-0.605-0.067-0.644-1.127-0.643-1.153 0.001-1.758 0.142-2.273 0.53-0.494 0.373-0.559 0.701-0.268 1.36 1.036 2.341 7.507 5.825 12.505 6.732 1.444 0.262 1.605 0.272 3.676 0.232 1.495-0.029 2.164-0.093 2.903-0.277zM11.412 8.016c-0.419-0.419-0.555-0.64-0.555-0.9 0-0.557 0.229-0.644 0.75-0.284 0.422 0.291 0.546 0.314 2.016 0.368 1.031 0.038 1.615 0.106 1.709 0.201 0.236 0.236-0.008 0.347-1.177 0.534-1.179 0.189-1.631 0.322-1.751 0.516-0.149 0.241-0.447 0.111-0.992-0.434zM17.829 6.674c0-0.038 0.129-0.17 0.286-0.294s0.286-0.296 0.286-0.384c0-0.191-0.351-0.396-0.678-0.396-0.13 0-0.236-0.058-0.236-0.129 0-0.195 1.581-0.062 2.029 0.171 0.417 0.216 0.466 0.41 0.171 0.672-0.34 0.302-1.857 0.596-1.857 0.36z"></path>
<path d="M15.75 31.808c0.082-0.033 0.181-0.029 0.219 0.009s-0.030 0.065-0.15 0.060c-0.133-0.006-0.16-0.033-0.069-0.069zM13.086 31.474c-6.047-1.079-11.028-5.723-12.51-11.664-0.128-0.513-0.234-1.053-0.235-1.2-0.001-0.193-0.029-0.224-0.1-0.112-0.161 0.254-0.27-1.894-0.179-3.534 0.046-0.824 0.117-1.443 0.159-1.376s0.136-0.225 0.209-0.651c0.303-1.766 1.272-4.084 2.414-5.772 2.358-3.485 6.161-5.93 10.343-6.648 1.335-0.229 4.075-0.228 5.399 0.002 4.828 0.84 9.144 4.069 11.352 8.492 1.217 2.437 1.661 4.602 1.565 7.617-0.084 2.628-0.388 3.928-1.439 6.171-2.058 4.39-6.612 7.834-11.478 8.68-1.277 0.222-4.236 0.218-5.499-0.007zM18.309 30.628c1.685-0.244 4.048-1.18 5.696-2.257 1.661-1.086 3.652-3.035 3.652-3.576 0-0.203-0.085-0.223-0.966-0.223-0.531 0-1.23 0.057-1.554 0.126-0.488 0.105-0.628 0.193-0.821 0.522-0.164 0.277-0.443 0.495-0.936 0.728-0.386 0.182-1.082 0.674-1.546 1.092-0.918 0.826-1.381 1.075-2 1.075-0.332 0-0.414-0.049-0.473-0.284-0.082-0.327 0.065-0.59 1.474-2.635 0.892-1.295 0.96-1.436 1.147-2.389 0.109-0.557 0.157-1.055 0.105-1.106-0.082-0.082-0.81-0.106-3.174-0.106-0.314-0-1.034 0.010-1.6 0.023-2.889 0.065-3.177 0.048-3.69-0.224-0.27-0.142-0.867-0.617-1.328-1.054-0.799-0.759-0.863-0.796-1.395-0.799-0.642-0.004-0.755-0.076-1.343-0.854-0.238-0.314-0.544-0.634-0.681-0.71-0.543-0.303-1.054-0.113-1.262 0.469-0.122 0.342 0.366 1.204 1.095 1.93 0.373 0.372 0.662 0.762 0.662 0.893 0 0.641-0.636 0.967-1.505 0.772-0.361-0.081-0.674-0.288-1.196-0.789-0.389-0.374-0.808-0.679-0.931-0.679s-0.62 0.129-1.103 0.287c-0.484 0.158-1.223 0.325-1.643 0.371-0.975 0.108-0.996 0.214-0.309 1.559 1.414 2.769 3.8 5.089 6.746 6.556 1.095 0.545 2.85 1.123 3.848 1.266 0.99 0.142 4.096 0.152 5.033 0.016zM17.457 23.734c-0.361-0.136-0.657-0.282-0.657-0.326 0-0.198 0.519-0.209 1.038-0.023 0.459 0.165 0.635 0.18 0.909 0.077 0.407-0.154 0.435-0.049 0.075 0.289-0.322 0.303-0.519 0.3-1.364-0.017zM22 19.425c2.058-0.232 3.623-0.839 4.654-1.803 0.956-0.894 1.418-2.139 1.124-3.029-0.17-0.514-0.924-1.275-1.608-1.622-0.62-0.314-1.786-0.637-2.002-0.554-0.083 0.032-0.294 0.385-0.468 0.785-0.331 0.761-0.606 0.963-0.903 0.666-0.224-0.224-0.219-0.271 0.13-1.099 0.389-0.925 0.338-1.649-0.238-3.342-0.644-1.893-1.493-3.547-2.174-4.234-0.89-0.899-1.668-1.026-3.736-0.614-1.104 0.22-1.305 0.227-3.133 0.1-1.797-0.124-1.987-0.119-2.377 0.066-0.271 0.128-0.505 0.36-0.649 0.642-0.285 0.559-0.793 2.651-0.825 3.4-0.021 0.489 0.022 0.618 0.301 0.91 0.464 0.484 1.369 0.856 3.393 1.392 0.972 0.258 2.029 0.588 2.35 0.733 0.545 0.247 0.614 0.327 1.052 1.221 0.257 0.526 0.558 1.096 0.669 1.266 0.275 0.425 0.11 0.896-0.361 1.026-0.664 0.184-2.653-0.267-4.959-1.124-1.44-0.535-2.52-1.105-3.158-1.666-0.608-0.535-0.738-0.751-0.915-1.517l-0.132-0.571-1.253 0.015c-1.328 0.016-1.893 0.185-2.366 0.709-0.266 0.295-0.272 0.897-0.013 1.403 0.539 1.052 2.814 2.822 5.191 4.038 4.412 2.257 8.687 3.223 12.404 2.804zM11.438 7.953c-0.334-0.34-0.495-0.604-0.495-0.809 0-0.44 0.201-0.601 0.459-0.369 0.443 0.401 1.063 0.565 1.828 0.483 1.13-0.121 2.398 0.119 1.997 0.379-0.080 0.052-0.62 0.157-1.2 0.234-0.613 0.082-1.213 0.234-1.433 0.363-0.208 0.123-0.441 0.223-0.519 0.223s-0.364-0.227-0.636-0.505zM18.264 6.404c0.32-0.308 0.288-0.579-0.093-0.771-0.27-0.136-0.257-0.144 0.23-0.139 0.669 0.006 1.302 0.227 1.348 0.47 0.054 0.281-0.429 0.547-1.134 0.626l-0.614 0.068zM15.75 0.15c0.082-0.033 0.181-0.029 0.219 0.009s-0.030 0.065-0.15 0.060c-0.133-0.005-0.16-0.033-0.069-0.069z"></path>
</svg>
