<!-- Generated by IcoMoon.io -->
<svg version="1.1" xmlns="http://www.w3.org/2000/svg" width="32" height="32" viewBox="0 0 32 32">
<title>solr</title>
<path d="M17.353 30.702c-1.764-0.995-2.677-1.466-3.76-2.109 2.394 0.277 5.867 0.682 8.26 0.965-1.27 0.663-3.055 0.994-4.5 1.144zM24.209 28.222c-3.377-0.647-6.856-1.31-10.219-2.027 4.909-1.020 9.935-1.986 14.856-2.942-0.448 1.28-3.053 4.209-4.545 4.982l-0.092-0.013zM13.583 23.838c5.629-3.168 11.634-6.527 17.021-9.56 0.297 2.69-0.045 5.338-1.076 7.628-5.211 0.641-10.732 1.301-15.945 1.932zM12.556 21.604c4.709-5.144 9.456-10.254 14.185-15.379 1.884 1.945 3.131 4.458 3.685 7.1-5.92 2.82-11.911 5.529-17.87 8.279zM10.826 19.894c2.494-5.917 5.872-12.791 8.264-17.977 2.65 0.521 5.157 1.836 7.077 3.737-5.035 4.727-10.28 9.54-15.341 14.239zM3.81 18.763c-0.754-1.285-1.463-2.597-2.193-3.896 0.135-1.583 0.531-3.153 1.198-4.596 0.342 2.829 0.687 5.659 0.995 8.492zM8.632 18.788c0.625-5.364 1.246-10.733 1.913-16.093 1.977-0.798 4.361-1.326 7.637-0.962-1.62 2.894-7.815 13.972-9.55 17.055zM6.252 18.422c-0.539-2.572-1.792-8.852-2.127-10.541 1.331-1.86 3.051-3.45 5.075-4.53-0.872 4.64-2.038 10.437-2.948 15.070z"></path>
</svg>
