<!-- Generated by IcoMoon.io -->
<svg version="1.1" xmlns="http://www.w3.org/2000/svg" width="32" height="32" viewBox="0 0 32 32">
<title>solr</title>
<path d="M15.705 29.296c-1.030-0.597-1.805-1.153-1.723-1.235 0.231-0.231 7.761 0.619 8.094 0.914 0.319 0.283-1.304 0.88-3.273 1.205-0.968 0.16-1.62-0.027-3.098-0.884zM19.361 26.829c-2.68-0.557-4.949-1.089-5.042-1.183-0.271-0.271 0.392-0.427 7.9-1.862 5.603-1.071 7.094-1.255 7.094-0.874 0 0.566-4.252 5.018-4.745 4.967-0.184-0.019-2.528-0.491-5.207-1.048zM13.905 23.122c0.006-0.236 16.080-9.462 17.189-9.866 0.53-0.193 0.361 3.779-0.253 5.967-0.672 2.394 0.136 2.102-8.536 3.082-3.565 0.403-6.915 0.817-7.445 0.92s-0.96 0.057-0.957-0.103zM19.734 13.016c3.996-4.339 7.431-7.837 7.634-7.773 1.030 0.322 4.306 6.885 3.672 7.357-0.447 0.333-17.948 8.305-18.232 8.305-0.186 0 2.931-3.55 6.927-7.889zM13.059 14.187c1.264-2.76 3.184-6.956 4.266-9.323l1.967-4.304 1.069 0.225c1.45 0.306 4.87 2.14 5.764 3.091l0.727 0.774-7.738 7.163c-4.256 3.94-7.877 7.215-8.046 7.278s0.726-2.144 1.99-4.905zM2.936 16.641c-1.612-2.828-1.591-2.73-1.068-4.969 0.832-3.565 1.020-3.335 1.69 2.062 0.283 2.283 0.454 4.213 0.379 4.288s-0.525-0.546-1-1.38zM8.821 16c0.132-1.252 0.579-5.036 0.994-8.408l0.755-6.131 1.752-0.598c1.99-0.679 6.131-0.844 6.131-0.245 0 0.406-8.992 16.71-9.546 17.308-0.2 0.216-0.232-0.525-0.085-1.927zM6.068 17.165c-0.103-0.352-0.614-2.816-1.137-5.476l-0.95-4.837 0.7-0.944c0.385-0.519 1.552-1.641 2.594-2.494 1.415-1.158 1.92-1.412 1.999-1.004 0.106 0.548-2.624 14.998-2.882 15.256-0.076 0.076-0.222-0.15-0.324-0.502z"></path>
<path d="M15.722 29.255c-1.020-0.593-1.8-1.133-1.734-1.199 0.18-0.18 7.583 0.756 7.815 0.988 0.216 0.216-1.485 0.807-3.176 1.105-0.769 0.135-1.548-0.104-2.906-0.893zM19.407 26.754c-2.847-0.574-5.098-1.122-5.001-1.219 0.268-0.267 14.907-3.090 14.907-2.874 0 0.645-3.215 4.37-4.204 4.87-0.289 0.146-2.855-0.204-5.702-0.778zM14.33 22.817c0.741-0.671 16.276-9.269 16.748-9.269 0.333 0 0.386 0.636 0.217 2.628-0.185 2.183-0.938 5.025-1.352 5.098-0.058 0.010-3.695 0.452-8.081 0.982-5.203 0.628-7.822 0.823-7.532 0.562zM12.847 20.795c0-0.265 13.991-15.46 14.352-15.587 0.863-0.306 4.316 6.653 3.623 7.303-0.156 0.146-4.067 2.028-8.691 4.182-9.824 4.576-9.284 4.337-9.284 4.103zM11.095 18.888c0-0.267 7.989-17.912 8.263-18.25 0.055-0.068 0.862 0.13 1.793 0.439 2.075 0.689 5.441 2.904 5.292 3.483-0.14 0.543-15.348 14.742-15.348 14.329zM8.821 16.519c0.123-0.96 0.571-4.741 0.997-8.402l0.773-6.656 1.391-0.462c1.901-0.631 5.962-0.954 6.244-0.497 0.173 0.28-8.746 16.861-9.463 17.593-0.091 0.093-0.065-0.617 0.058-1.576zM2.527 15.828c-1-1.854-1.022-1.992-0.618-3.918 0.435-2.072 1.118-3.282 1.142-2.023 0.007 0.376 0.212 2.299 0.456 4.274s0.356 3.59 0.25 3.59c-0.106-0.001-0.659-0.866-1.23-1.923zM6.069 16.815c-0.102-0.352-0.602-2.746-1.112-5.321l-0.927-4.681 0.993-1.223c1.135-1.399 3.865-3.474 4.17-3.169 0.181 0.181-2.56 14.638-2.829 14.921-0.060 0.063-0.192-0.174-0.294-0.526z"></path>
<path d="M15.714 29.223c-1.025-0.567-1.813-1.081-1.752-1.142 0.16-0.158 7.666 0.786 7.87 0.99 0.094 0.094-0.352 0.329-0.992 0.523-2.45 0.744-3.212 0.688-5.127-0.372zM18.821 26.588c-3.097-0.638-4.163-0.979-3.678-1.175 0.742-0.301 13.005-2.759 13.752-2.757 0.701 0.002-0.537 1.915-2.289 3.536s-1.828 1.625-7.785 0.397zM14.278 22.86c0.656-0.656 16.544-9.287 16.802-9.127 0.184 0.114 0.335 0.618 0.335 1.121 0 1.562-0.744 5.276-1.175 5.865-0.312 0.427-2.127 0.768-7.588 1.423-7.22 0.866-8.644 0.989-8.373 0.718zM13.381 20.166c2.221-2.545 13.625-14.868 13.838-14.954 0.755-0.303 4.225 6.731 3.597 7.292-0.153 0.137-3.116 1.557-6.584 3.156-12.324 5.682-11.624 5.391-10.852 4.506zM11.425 18.014c0.716-1.809 7.767-16.906 8-17.129 0.615-0.587 7.085 2.662 7.085 3.558 0 0.304-14.885 14.36-15.207 14.36-0.104 0-0.050-0.355 0.122-0.788zM2.527 15.764c-0.974-1.859-1.001-2.033-0.61-3.898 0.225-1.074 0.549-2.092 0.72-2.263 0.181-0.181 0.494 1.393 0.749 3.759 0.241 2.238 0.376 4.132 0.299 4.209s-0.598-0.736-1.158-1.807zM8.777 17.051c0.101-0.482 0.514-3.871 0.917-7.532s0.801-6.985 0.884-7.387c0.173-0.834 1.689-1.392 4.763-1.752 3.613-0.424 3.636-0.556-1.483 8.624-4.765 8.545-5.395 9.543-5.081 8.046zM6.191 17.339c0-0.098-0.47-2.5-1.045-5.336l-1.045-5.157 0.768-1.039c1.168-1.58 4.474-4.040 4.474-3.329 0 0.478-2.884 14.771-3.004 14.892-0.082 0.082-0.149 0.068-0.149-0.030z"></path>
<path d="M16.026 29.263c-0.978-0.558-1.777-1.063-1.777-1.121s1.537 0.097 3.416 0.345c1.879 0.248 3.652 0.466 3.941 0.485 0.662 0.044-0.766 0.624-2.492 1.011-1.118 0.251-1.571 0.145-3.087-0.721zM18.978 26.51c-2.505-0.537-4.464-0.994-4.354-1.014s3.331-0.667 7.157-1.438c3.826-0.771 7.092-1.401 7.257-1.401 0.54 0-0.485 1.494-2.206 3.215-1.102 1.102-1.969 1.676-2.494 1.652-0.443-0.020-2.854-0.477-5.359-1.014zM14.774 22.586c16.239-9.26 16.631-9.436 16.629-7.462-0.001 1.066-0.994 5.525-1.298 5.829-0.226 0.226-14.348 2.074-15.608 2.043-0.233-0.006-0.108-0.19 0.277-0.41zM13.747 19.788c0.591-0.638 3.024-3.289 5.406-5.89 8.44-9.216 8.071-8.867 8.628-8.16 1.085 1.38 2.328 3.694 2.766 5.151l0.463 1.538-5.315 2.461c-2.924 1.354-7.050 3.271-9.169 4.261l-3.854 1.799zM12.108 16.635c2.613-5.764 6.807-14.887 7.094-15.431 0.302-0.573 0.425-0.568 2.133 0.081 1.781 0.677 5.173 2.772 5.175 3.196 0.001 0.219-13.126 12.563-14.602 13.731-0.777 0.614-0.77 0.565 0.2-1.576zM9.743 9.656c0.529-4.453 1.033-8.167 1.12-8.254 0.4-0.4 5.863-1.237 6.701-1.026l0.94 0.236-0.852 1.476c-0.469 0.812-2.622 4.668-4.785 8.57s-3.967 7.094-4.009 7.094c-0.042 0 0.357-3.643 0.886-8.096zM2.523 15.607c-0.931-1.711-0.958-1.888-0.558-3.674 0.231-1.032 0.539-1.951 0.685-2.041 0.268-0.165 1.244 7.12 0.989 7.375-0.076 0.076-0.578-0.672-1.116-1.66zM6.025 16.175c-0.148-0.771-0.633-3.214-1.079-5.43l-0.81-4.029 1.465-1.517c1.619-1.676 3.349-3.022 3.584-2.786 0.083 0.083-0.533 3.53-1.37 7.658-1.353 6.672-1.552 7.35-1.79 6.105z"></path>
<path d="M15.825 29.111l-1.401-0.88 2.55 0.237c1.402 0.13 3.058 0.348 3.678 0.484l1.129 0.247-1.401 0.406c-2.049 0.593-2.987 0.492-4.554-0.493zM19.399 26.614c-2.466-0.489-4.423-0.949-4.349-1.023 0.112-0.112 13.747-2.935 14.174-2.935 0.075 0-0.211 0.487-0.635 1.082-1.183 1.662-3.559 3.826-4.165 3.793-0.298-0.016-2.56-0.429-5.026-0.918zM14.685 22.821c0.144-0.153 3.849-2.296 8.233-4.76 8.752-4.92 8.642-4.897 8.273-1.71-0.1 0.867-0.411 2.302-0.691 3.188l-0.508 1.612-6.558 0.767c-3.607 0.422-7.11 0.86-7.784 0.975s-1.108 0.082-0.965-0.071zM14.599 18.95c8.464-9.267 12.408-13.46 12.659-13.46 1.079 0 4.005 6.267 3.259 6.979-0.269 0.256-15.171 7.28-16.969 7.998-0.289 0.115 0.184-0.567 1.051-1.516zM14.83 10.842c2.029-4.389 3.847-8.413 4.040-8.943 0.224-0.615 0.606-0.963 1.055-0.963 1.029 0 4.896 1.927 5.801 2.89l0.779 0.829-6.191 5.76c-3.405 3.168-6.862 6.356-7.682 7.084l-1.492 1.323zM2.566 15.624c-0.926-1.647-0.956-1.839-0.58-3.653 0.219-1.053 0.517-1.988 0.662-2.078 0.223-0.138 1.181 7.183 0.968 7.396-0.040 0.040-0.513-0.709-1.050-1.665zM8.999 16.849c0.012-1.305 1.723-14.893 1.915-15.203 0.361-0.584 5.427-1.516 6.465-1.19l0.969 0.305-4.678 8.381c-2.573 4.61-4.675 8.078-4.672 7.707zM5.912 15.423c-0.219-0.992-0.673-3.396-1.009-5.342l-0.61-3.539 1.472-1.5c0.81-0.825 1.944-1.779 2.52-2.119l1.048-0.619-0.235 1.155c-0.129 0.635-0.809 3.993-1.511 7.461l-1.276 6.306z"></path>
<path d="M16 29.107l-1.576-0.874 1.226 0.17c0.674 0.094 2.33 0.286 3.678 0.427l2.452 0.257-1.401 0.436c-2.005 0.623-2.607 0.566-4.379-0.416zM19.532 26.532l-4.701-0.948 7.066-1.412c3.886-0.777 7.066-1.272 7.066-1.101 0 0.449-4 4.497-4.396 4.449-0.183-0.022-2.449-0.467-5.034-0.988zM14.643 22.856c0.072-0.067 3.284-1.891 7.138-4.054s7.543-4.258 8.2-4.656l1.193-0.722-0.194 2.831c-0.107 1.557-0.409 3.28-0.672 3.828-0.478 0.997-0.483 0.998-6.955 1.764-3.562 0.421-7.008 0.848-7.658 0.948s-1.123 0.128-1.051 0.061zM19.044 14.193c3.239-3.492 6.381-6.915 6.982-7.607 0.948-1.091 1.168-1.196 1.659-0.788 0.711 0.59 3.028 5.181 3.028 6 0 0.588-1.84 1.52-14.472 7.325l-3.087 1.418zM12.254 16.662c4.087-9.158 7.13-15.486 7.518-15.635 0.568-0.218 5.329 2.086 6.118 2.961 0.531 0.589 0.266 0.904-4.4 5.223-2.731 2.528-6.116 5.663-7.522 6.968l-2.557 2.372zM2.675 15.73c-0.465-0.911-0.813-1.972-0.772-2.357 0.181-1.731 0.488-2.978 0.734-2.978 0.227 0 1.147 6.682 0.952 6.911-0.037 0.044-0.449-0.666-0.914-1.576zM9.105 16c0.113-0.674 0.54-4.143 0.95-7.707s0.853-6.594 0.985-6.731c0.778-0.811 7.062-1.466 7.062-0.736 0 0.208-8.772 15.989-9.018 16.225-0.101 0.096-0.091-0.377 0.022-1.051zM5.343 11.891c-0.923-4.623-0.954-5.046-0.44-5.832 0.496-0.757 2.94-2.911 3.951-3.482 0.224-0.127-0.167 2.544-0.927 6.339-0.722 3.607-1.376 6.873-1.452 7.258s-0.586-1.542-1.133-4.284z"></path>
<path d="M17.576 29.519l-1.051-0.438 1.051-0.208c1.136-0.224 1.943 0.22 1.384 0.761-0.203 0.197-0.742 0.152-1.384-0.116zM24.058 27.194c0-0.254-0.34-0.35-0.876-0.248-0.482 0.092-0.876 0.013-0.876-0.175s-0.394-0.267-0.876-0.175-0.876 0.020-0.876-0.159c0-0.18-0.355-0.292-0.788-0.25s-1.057-0.039-1.385-0.181c-0.328-0.142-0.762-0.156-0.963-0.031s-0.367 0.077-0.367-0.106c0-0.386 0.078-0.406 6.249-1.635 2.57-0.512 4.747-0.856 4.839-0.765 0.232 0.232-1.853 2.554-3.071 3.422-0.607 0.432-1.010 0.554-1.010 0.304zM17 22.35c-0.487-0.185-0.502-0.289-0.095-0.665 0.265-0.245 0.604-0.437 0.752-0.427 0.526 0.036 4.999-2.58 4.999-2.924 0-0.192 0.103-0.247 0.229-0.121 0.198 0.198 2.422-0.94 2.924-1.495 0.096-0.106 0.356-0.228 0.578-0.269s1.218-0.556 2.214-1.144c0.997-0.588 1.957-0.978 2.135-0.868 0.313 0.194 0.241 2.244-0.117 3.314-0.097 0.289-0.356 1.191-0.577 2.003-0.377 1.389-0.463 1.466-1.431 1.272-0.566-0.113-1.31-0.091-1.653 0.048s-1.176 0.299-1.85 0.355c-0.674 0.055-1.936 0.191-2.803 0.301s-2.105 0.2-2.751 0.199c-0.646-0.001-1.355 0.143-1.576 0.319s-0.662 0.222-0.979 0.101zM16.201 17.695c1.463-1.539 9.691-10.492 10.716-11.66 0.175-0.2 0.506-0.060 0.831 0.35 0.939 1.185 2.885 5.328 2.658 5.659-0.12 0.175-0.73 0.525-1.356 0.778s-1.139 0.599-1.139 0.768c0 0.169-0.118 0.271-0.263 0.226-0.458-0.143-4.292 1.55-4.292 1.895 0 0.182-0.158 0.233-0.35 0.114s-0.35-0.076-0.35 0.096c0 0.172-0.197 0.315-0.438 0.318-0.656 0.008-4.116 1.561-4.116 1.848 0 0.137-0.197 0.257-0.438 0.267s-1.069 0.287-1.839 0.614l-1.401 0.596zM12.528 16.834c0.928-2.521 7.188-15.548 7.472-15.548 0.543 0 4.452 1.919 5.284 2.594 0.681 0.552 0.612 0.653-2.486 3.629-5.278 5.070-10.424 9.742-10.27 9.325zM2.53 14.656c-0.132-0.417-0.407-0.758-0.61-0.758-0.231 0-0.208-0.195 0.063-0.521 0.238-0.287 0.345-0.748 0.239-1.025s0.006-0.67 0.249-0.872c0.344-0.286 0.409-0.135 0.289 0.678-0.084 0.575 0.035 1.272 0.265 1.55 0.282 0.34 0.309 0.699 0.082 1.105-0.304 0.543-0.359 0.528-0.577-0.157zM6.051 14.809c0.111-0.29 0.075-0.732-0.081-0.982s-0.237-0.809-0.181-1.243c0.056-0.434-0.045-0.788-0.225-0.788s-0.252-0.394-0.159-0.876c0.092-0.482 0.013-0.876-0.175-0.876s-0.267-0.394-0.175-0.876c0.092-0.482 0.013-0.876-0.175-0.876s-0.261-0.429-0.16-0.953c0.24-1.257 3.564-4.536 3.955-3.903 0.154 0.249 0.113 0.653-0.090 0.898s-0.28 0.679-0.17 0.964c0.11 0.285 0.035 0.62-0.166 0.745s-0.288 0.523-0.193 0.887c0.095 0.363 0.016 0.758-0.175 0.876s-0.27 0.512-0.175 0.876c0.095 0.363 0.016 0.758-0.175 0.876s-0.27 0.512-0.175 0.876c0.095 0.363 0.016 0.758-0.175 0.876s-0.27 0.512-0.175 0.876c0.095 0.363 0.030 0.749-0.145 0.857s-0.317 0.572-0.317 1.031c0 0.459-0.156 0.931-0.346 1.049-0.196 0.121-0.259-0.014-0.144-0.313zM9.654 14.424c-0.024-0.578 0.008-1.209 0.069-1.401s0.125-0.902 0.14-1.576c0.015-0.674 0.147-1.417 0.292-1.65s0.268-0.942 0.274-1.576c0.022-2.532 0.172-4.103 0.413-4.344 0.14-0.14 0.254-0.699 0.254-1.242 0-0.883 0.15-1.012 1.409-1.214 0.775-0.124 1.495-0.365 1.601-0.535s0.353-0.21 0.551-0.088c0.198 0.122 0.743 0.017 1.212-0.234 0.713-0.382 0.933-0.374 1.34 0.046 0.419 0.432-0.076 1.515-3.512 7.684-3.227 5.793-4.008 6.979-4.043 6.131z"></path>
</svg>
