<!-- Generated by IcoMoon.io -->
<svg version="1.1" xmlns="http://www.w3.org/2000/svg" width="33" height="32" viewBox="0 0 33 32">
<title>splunk</title>
<path d="M5.622 1.589c-1.94 0.427-3.332 1.94-3.649 3.956-0.077 0.504-0.11 4.088-0.088 11.003l0.033 10.247 0.252 0.658c0.57 1.49 1.479 2.389 2.981 2.926l0.712 0.252 10.247 0.022c5.819 0.011 10.51-0.022 10.849-0.077 1.205-0.208 1.863-0.537 2.685-1.37 0.603-0.603 0.822-0.921 1.041-1.479l0.274-0.712v-22.027l-0.252-0.603c-0.669-1.578-1.973-2.564-3.748-2.86-0.329-0.055-5.096-0.099-10.63-0.088-8.011 0-10.17 0.033-10.707 0.153zM23.869 15.638l0.022 1.786-6.904 3.452c-3.803 1.896-6.959 3.452-7.014 3.452-0.066 0-0.11-0.69-0.11-1.786v-1.775l5.118-2.564 5.129-2.553-10.247-5.129v-1.732c0-0.953 0.033-1.764 0.066-1.808 0.033-0.033 3.178 1.501 6.992 3.408l6.915 3.474 0.033 1.775z"></path>
</svg>
