<!-- Generated by IcoMoon.io -->
<svg version="1.1" xmlns="http://www.w3.org/2000/svg" width="32" height="32" viewBox="0 0 32 32">
<title>statuscake</title>
<path d="M15.292 31.759c-1.927-0.305-3.247-0.703-4.638-1.398-1.736-0.867-2.565-1.503-3.777-2.898-0.258-0.297-0.53-0.539-0.604-0.539-0.188 0-0.881-0.808-1.538-1.791-1.627-2.436-2.389-5.096-2.384-8.322l0.002-1.526 0.441-0.45c0.301-0.306 0.497-0.636 0.615-1.033 0.294-0.989 1.222-1.714 2.176-1.7 0.234 0.004 0.65 0.129 1.173 0.355 0.134 0.058 0.16-0.064 0.16-0.767 0-0.731 0.036-0.89 0.291-1.275 0.647-0.977 1.965-1.315 2.971-0.761 0.532 0.293 1.164 1.143 1.164 1.565 0 0.152-0.184 0.51-0.419 0.815-0.23 0.299-0.58 0.831-0.777 1.183l-0.359 0.64-0.603 0.032c-0.451 0.024-0.716-0.025-1.046-0.194-0.244-0.124-0.463-0.205-0.488-0.18-0.115 0.115 0.125 0.411 0.529 0.653 0.244 0.146 0.588 0.384 0.764 0.528l0.32 0.262 0.007 1.69c0.008 1.936 0.121 2.48 0.794 3.823 0.973 1.942 2.789 3.473 4.851 4.089 0.664 0.198 1.129 0.259 2.081 0.27 3.143 0.038 5.026-0.996 6.886-3.781 0.803-1.202 1.295-1.609 2.249-1.857 1.157-0.301 2.504 0.141 3.458 1.137 0.751 0.783 0.899 1.149 0.899 2.223 0.001 0.81-0.036 0.979-0.342 1.583-1.892 3.73-6.292 6.817-10.747 7.54-0.874 0.142-3.421 0.195-4.11 0.086zM25.705 14.5c-0.672-0.239-1.141-0.697-1.969-1.923-0.596-0.882-0.77-1.221-0.731-1.425 0.031-0.164-0.028-0.375-0.154-0.545-0.681-0.921-0.025-2.242 1.113-2.243 0.223-0 0.559 0.082 0.747 0.183 0.255 0.137 0.535 0.175 1.108 0.149 0.421-0.019 0.937 0.022 1.146 0.091 0.365 0.12 0.394 0.11 0.74-0.256 0.311-0.33 0.426-0.381 0.85-0.381 0.398 0 0.563 0.063 0.873 0.336 0.21 0.185 0.452 0.47 0.537 0.635 0.224 0.434 0.196 1.082-0.063 1.41l-0.217 0.276 0.33 0.653c0.303 0.6 0.319 0.685 0.2 1.045-0.201 0.609-1.302 1.643-2.046 1.921-0.719 0.269-1.823 0.302-2.462 0.074zM5.265 11.137c-0.117-0.117-0.213-0.309-0.213-0.427 0-0.289 0.371-0.64 0.677-0.64 0.53 0 0.805 0.744 0.408 1.103-0.262 0.237-0.612 0.223-0.872-0.037zM11.711 10.806c-0.172-0.278-0.173-1.454-0.001-2.124 0.292-1.143 0.889-1.77 1.875-1.971 0.205-0.042 0.498-0.193 0.65-0.336s0.451-0.288 0.664-0.322c0.341-0.055 0.432-0.018 0.763 0.313 0.245 0.245 0.376 0.477 0.376 0.665 0 0.179 0.157 0.478 0.411 0.784 0.437 0.526 0.702 0.964 0.628 1.038-0.025 0.025-0.449 0.095-0.942 0.157-1.458 0.182-2.604 0.65-3.768 1.538-0.549 0.419-0.554 0.421-0.656 0.257zM19.825 9.377c-0.561-0.198-0.851-0.551-1.014-1.231-0.177-0.737 0.006-1.617 0.424-2.034 1.056-1.056 3.097 0.167 3.097 1.856 0 0.401-0.062 0.567-0.325 0.866-0.488 0.556-1.46 0.798-2.181 0.543zM3.55 9.119c-0.402-0.402-0.413-0.838-0.031-1.22s0.819-0.371 1.22 0.031c0.188 0.188 0.312 0.424 0.312 0.595 0 0.374-0.532 0.907-0.907 0.907-0.171 0-0.407-0.124-0.595-0.312zM24.618 7.678c-0.257-0.188-0.123-0.488 0.217-0.488 0.214 0 0.27 0.053 0.27 0.255 0 0.309-0.231 0.42-0.487 0.233zM10.928 7.256c-0.172-0.207 0.024-0.599 0.301-0.599 0.293 0 0.503 0.296 0.366 0.516-0.148 0.236-0.503 0.28-0.666 0.083zM8.114 6.869c-0.15-0.118-0.329-0.383-0.396-0.587-0.103-0.313-0.092-0.436 0.072-0.772 0.699-1.43 2.701-0.458 2.041 0.99-0.259 0.568-1.206 0.771-1.717 0.369zM26.16 6.073c-0.582-0.322-0.623-1.103-0.078-1.485 0.582-0.408 1.37 0.046 1.37 0.788 0 0.277-0.423 0.728-0.747 0.795-0.147 0.031-0.392-0.014-0.545-0.098zM22.684 5.589c-0.756-0.305-0.865-1.798-0.171-2.344 0.332-0.261 0.678-0.273 1.168-0.040 0.806 0.382 1.176 1.546 0.65 2.039-0.443 0.415-1.12 0.557-1.647 0.345zM15.964 3.19c-0.753-0.528-0.048-1.8 0.802-1.448 0.568 0.235 0.716 0.92 0.29 1.346-0.299 0.299-0.75 0.341-1.093 0.102zM12.381 1.151c-0.263-0.263 0.089-0.744 0.458-0.627 0.34 0.108 0.253 0.629-0.112 0.671-0.149 0.017-0.305-0.003-0.347-0.044z"></path>
<path d="M15.292 31.759c-1.927-0.305-3.247-0.703-4.638-1.398-1.736-0.867-2.565-1.503-3.777-2.898-0.258-0.297-0.53-0.539-0.604-0.539-0.188 0-0.881-0.808-1.538-1.791-1.627-2.436-2.389-5.096-2.384-8.322l0.002-1.526 0.441-0.45c0.301-0.306 0.497-0.636 0.615-1.033 0.326-1.099 1.385-1.824 2.422-1.659 0.852 0.136 1.645 0.775 1.816 1.463 0.044 0.179 0.238 0.383 0.524 0.555 0.25 0.149 0.598 0.39 0.774 0.534l0.32 0.262 0.007 1.69c0.008 1.936 0.121 2.48 0.794 3.823 1.537 3.068 4.896 4.828 8.212 4.303 1.306-0.207 2.38-0.167 3.112 0.113 1.741 0.668 2.546 2.735 2.043 5.247-0.054 0.27-0.167 0.37-0.663 0.591-0.834 0.37-2.229 0.763-3.369 0.948-0.874 0.142-3.421 0.195-4.11 0.086zM26.681 27.59c-0.745-0.849-0.745-2.199-0.001-3.589 0.345-0.644 1.881-2.226 2.638-2.717l0.533-0.346 0.18 0.222c0.29 0.358 0.442 1.306 0.309 1.927-0.218 1.016-1.014 2.304-2.386 3.861-0.745 0.846-0.987 0.967-1.274 0.64zM8.131 13.486c-0.813-0.435-1.129-1.091-1.029-2.137 0.115-1.194 1.353-2.024 2.544-1.703 0.718 0.193 1.485 1.020 1.485 1.599 0 0.124-0.156 0.419-0.347 0.656s-0.517 0.726-0.725 1.087l-0.379 0.656-0.581 0.024c-0.409 0.017-0.696-0.037-0.969-0.183zM5.265 11.137c-0.117-0.117-0.213-0.309-0.213-0.427 0-0.289 0.371-0.64 0.677-0.64 0.53 0 0.805 0.744 0.408 1.103-0.262 0.237-0.612 0.223-0.872-0.037zM23.324 11.035c-1.271-0.775-0.812-2.67 0.646-2.671 0.591-0.001 1.16 0.355 1.379 0.861 0.226 0.522 0.225 0.581-0.027 1.136-0.367 0.809-1.275 1.115-1.998 0.674zM27.843 10.819c-0.438-0.385-0.714-1.189-0.515-1.506 0.068-0.109 0.124-0.275 0.124-0.368s0.14-0.31 0.312-0.481c0.453-0.453 1.132-0.443 1.663 0.024 0.486 0.427 0.692 0.826 0.692 1.342 0 0.482-0.188 0.783-0.679 1.087-0.539 0.333-1.148 0.297-1.596-0.096zM11.711 10.806c-0.172-0.278-0.173-1.454-0.001-2.124 0.292-1.143 0.889-1.77 1.875-1.971 0.205-0.042 0.498-0.193 0.65-0.336s0.451-0.288 0.664-0.322c0.341-0.055 0.432-0.018 0.763 0.313 0.245 0.245 0.376 0.477 0.376 0.665 0 0.179 0.157 0.478 0.411 0.784 0.437 0.526 0.702 0.964 0.628 1.038-0.025 0.025-0.449 0.095-0.942 0.157-1.458 0.182-2.604 0.65-3.768 1.538-0.549 0.419-0.554 0.421-0.656 0.257zM19.825 9.377c-0.561-0.198-0.851-0.551-1.014-1.231-0.177-0.737 0.006-1.617 0.424-2.034 1.056-1.056 3.097 0.167 3.097 1.856 0 0.401-0.062 0.567-0.325 0.866-0.488 0.556-1.46 0.798-2.181 0.543zM3.55 9.119c-0.402-0.402-0.413-0.838-0.031-1.22s0.819-0.371 1.22 0.031c0.188 0.188 0.312 0.424 0.312 0.595 0 0.374-0.532 0.907-0.907 0.907-0.171 0-0.407-0.124-0.595-0.312zM24.618 7.678c-0.257-0.188-0.123-0.488 0.217-0.488 0.214 0 0.27 0.053 0.27 0.255 0 0.309-0.231 0.42-0.487 0.233zM10.928 7.256c-0.172-0.207 0.024-0.599 0.301-0.599 0.293 0 0.503 0.296 0.366 0.516-0.148 0.236-0.503 0.28-0.666 0.083zM8.114 6.869c-0.15-0.118-0.329-0.383-0.396-0.587-0.103-0.313-0.092-0.436 0.072-0.772 0.699-1.43 2.701-0.458 2.041 0.99-0.259 0.568-1.206 0.771-1.717 0.369zM26.16 6.073c-0.582-0.322-0.623-1.103-0.078-1.485 0.582-0.408 1.37 0.046 1.37 0.788 0 0.277-0.423 0.728-0.747 0.795-0.147 0.031-0.392-0.014-0.545-0.098zM22.684 5.589c-0.756-0.305-0.865-1.798-0.171-2.344 0.332-0.261 0.678-0.273 1.168-0.040 0.806 0.382 1.176 1.546 0.65 2.039-0.443 0.415-1.12 0.557-1.647 0.345zM15.964 3.19c-0.753-0.528-0.048-1.8 0.802-1.448 0.568 0.235 0.716 0.92 0.29 1.346-0.299 0.299-0.75 0.341-1.093 0.102zM12.381 1.151c-0.263-0.263 0.089-0.744 0.458-0.627 0.34 0.108 0.253 0.629-0.112 0.671-0.149 0.017-0.305-0.003-0.347-0.044z"></path>
<path d="M15.292 31.759c-2.582-0.409-4.506-1.133-6.345-2.386-1.446-0.986-1.48-1.029-1.528-1.927-0.023-0.434-0.081-0.83-0.128-0.88s-0.338-0.008-0.65 0.095l-0.563 0.187-0.357-0.415c-0.997-1.16-2.125-3.161-2.624-4.653-0.563-1.684-0.872-4.018-0.75-5.659l0.070-0.938 0.544-0.492c0.299-0.271 0.856-0.641 1.238-0.822 0.631-0.301 0.785-0.33 1.707-0.322 0.9 0.008 1.091 0.045 1.707 0.336 0.381 0.18 0.909 0.494 1.173 0.697l0.48 0.37 0.007 1.694c0.008 1.94 0.121 2.484 0.794 3.828 1.537 3.068 4.896 4.828 8.212 4.303 1.306-0.207 2.38-0.167 3.112 0.113 1.741 0.668 2.546 2.735 2.043 5.247-0.054 0.27-0.167 0.37-0.663 0.591-0.834 0.37-2.229 0.763-3.369 0.948-0.874 0.142-3.421 0.195-4.11 0.086zM26.681 27.59c-0.745-0.849-0.745-2.199-0.001-3.589 0.345-0.644 1.881-2.226 2.638-2.717l0.533-0.346 0.18 0.222c0.29 0.358 0.442 1.306 0.309 1.927-0.218 1.016-1.014 2.304-2.386 3.861-0.745 0.846-0.987 0.967-1.274 0.64zM8.131 13.486c-0.813-0.435-1.129-1.091-1.029-2.137 0.115-1.194 1.353-2.024 2.544-1.703 0.718 0.193 1.485 1.020 1.485 1.599 0 0.124-0.156 0.419-0.347 0.656s-0.517 0.726-0.725 1.087l-0.379 0.656-0.581 0.024c-0.409 0.017-0.696-0.037-0.969-0.183zM23.62 11.205c0.024-0.022 0.279-0.064 0.566-0.095 0.319-0.034 0.464-0.020 0.373 0.037-0.138 0.088-1.035 0.143-0.939 0.058zM28.128 11.055c-0.068-0.043 0.18-0.078 0.55-0.078s0.618 0.035 0.55 0.078c-0.068 0.043-0.315 0.078-0.55 0.078s-0.482-0.035-0.55-0.078zM24.945 10.817c0.106-0.117 0.217-0.213 0.246-0.213s-0.034 0.096-0.14 0.213c-0.106 0.117-0.217 0.213-0.246 0.213s0.034-0.096 0.14-0.213zM11.72 10.82c-0.276-0.447-0.12-2.128 0.269-2.89 0.264-0.516 0.862-1.027 1.355-1.154 0.969-0.251 1.991 0.057 2.865 0.862 0.452 0.416 0.965 1.12 0.88 1.205-0.023 0.023-0.424 0.090-0.892 0.15-1.525 0.195-2.813 0.719-3.855 1.568-0.485 0.396-0.525 0.412-0.62 0.258zM27.501 10.49c-0.039-0.063-0.047-0.137-0.019-0.165s0.079 0.023 0.114 0.114c0.072 0.188 0.011 0.221-0.095 0.051zM27.283 9.796c-0.039-0.21-0.030-0.423 0.022-0.473 0.053-0.052 0.099 0.112 0.107 0.381 0.016 0.572-0.032 0.607-0.128 0.092zM25.442 9.75c0-0.147 0.024-0.207 0.054-0.133s0.030 0.193 0 0.267c-0.030 0.073-0.054 0.013-0.054-0.133zM19.472 9.214c-0.455-0.277-0.693-0.843-0.697-1.659-0.009-1.657 1.337-2.376 2.615-1.398 0.876 0.67 1.222 1.927 0.709 2.579-0.522 0.664-1.91 0.916-2.628 0.478zM22.494 5.336c-0.492-0.492-0.483-1.588 0.016-1.981 0.596-0.468 1.496-0.132 1.863 0.697 0.159 0.36 0.189 0.555 0.118 0.771-0.236 0.713-1.478 1.032-1.997 0.514z"></path>
<path d="M15.638 31.757c0.103-0.027 0.271-0.027 0.373 0s0.019 0.049-0.187 0.049c-0.205 0-0.289-0.022-0.187-0.049zM18.198 31.757c0.103-0.027 0.271-0.027 0.373 0s0.019 0.049-0.187 0.049c-0.205 0-0.289-0.022-0.187-0.049zM13.958 31.522c-2.196-0.478-4.525-1.607-6.129-2.973-0.349-0.297-0.371-0.357-0.411-1.103-0.023-0.434-0.081-0.83-0.128-0.88s-0.338-0.008-0.65 0.095l-0.563 0.187-0.357-0.415c-0.997-1.16-2.125-3.161-2.624-4.653-0.563-1.684-0.872-4.018-0.75-5.659l0.070-0.938 0.544-0.492c0.299-0.271 0.856-0.641 1.238-0.822 0.631-0.301 0.785-0.33 1.707-0.322 0.9 0.008 1.091 0.045 1.707 0.336 0.381 0.18 0.909 0.494 1.173 0.697l0.48 0.37 0.007 1.694c0.005 1.246 0.055 1.863 0.187 2.334 0.259 0.924 0.962 2.269 1.515 2.901l0.478 0.546-0.442 0.78c-0.491 0.867-0.493 0.638 0.022 2.279 0.336 1.068 0.342 3.015 0.014 4-0.271 0.813-0.276 0.855-0.1 0.85 0.073-0.002 0.325-0.321 0.56-0.708 0.542-0.896 1.796-2.187 2.827-2.91 0.798-0.561 2.578-1.497 2.846-1.497 0.246 0 0.152-0.213-0.099-0.225-0.559-0.028 2.075-0.344 2.853-0.343 2.717 0.006 4.149 2.249 3.502 5.486-0.054 0.269-0.166 0.37-0.65 0.584-0.6 0.265-0.84 0.332-0.562 0.156 0.086-0.055 0.134-0.117 0.107-0.138s-0.302-0.197-0.61-0.39c-1.442-0.905-2.342-2.599-2.546-4.792-0.066-0.707-0.091-0.771-0.296-0.742-0.207 0.029-0.229 0.12-0.29 1.152-0.077 1.316-0.347 2.087-1.1 3.141-0.557 0.78-1.24 1.411-2.113 1.95-0.649 0.4-0.732 0.516-0.428 0.596 0.506 0.132-0.226 0.037-0.987-0.128zM19.218 31.651c0.077-0.031 0.169-0.027 0.204 0.008s-0.028 0.061-0.14 0.056c-0.124-0.005-0.15-0.030-0.064-0.064zM26.681 27.59c-0.745-0.849-0.745-2.199-0.001-3.589 0.345-0.644 1.881-2.226 2.638-2.717l0.533-0.346 0.18 0.222c0.29 0.358 0.442 1.306 0.309 1.927-0.218 1.016-1.014 2.304-2.386 3.861-0.745 0.846-0.987 0.967-1.274 0.64zM16.067 24.823c0.104-0.027 0.248-0.025 0.32 0.004s-0.013 0.051-0.189 0.049c-0.176-0.002-0.235-0.026-0.131-0.053zM15.378 24.718c0.077-0.031 0.169-0.027 0.204 0.008s-0.028 0.061-0.14 0.056c-0.124-0.005-0.15-0.030-0.064-0.064zM14.952 24.611c0.077-0.031 0.169-0.027 0.204 0.008s-0.028 0.061-0.14 0.056c-0.124-0.005-0.15-0.030-0.064-0.064zM11.925 22.95l-0.313-0.347 0.347 0.313c0.191 0.172 0.347 0.328 0.347 0.347 0 0.082-0.088 0.010-0.38-0.313zM8.131 13.486c-0.813-0.435-1.129-1.091-1.029-2.137 0.115-1.194 1.353-2.024 2.544-1.703 0.718 0.193 1.485 1.020 1.485 1.599 0 0.124-0.156 0.419-0.347 0.656s-0.517 0.726-0.725 1.087l-0.379 0.656-0.581 0.024c-0.409 0.017-0.696-0.037-0.969-0.183zM23.62 11.205c0.024-0.022 0.279-0.064 0.566-0.095 0.319-0.034 0.464-0.020 0.373 0.037-0.138 0.088-1.035 0.143-0.939 0.058zM28.128 11.055c-0.068-0.043 0.18-0.078 0.55-0.078s0.618 0.035 0.55 0.078c-0.068 0.043-0.315 0.078-0.55 0.078s-0.482-0.035-0.55-0.078zM24.945 10.817c0.106-0.117 0.217-0.213 0.246-0.213s-0.034 0.096-0.14 0.213c-0.106 0.117-0.217 0.213-0.246 0.213s0.034-0.096 0.14-0.213zM11.72 10.82c-0.276-0.447-0.12-2.128 0.269-2.89 0.264-0.516 0.862-1.027 1.355-1.154 0.969-0.251 1.991 0.057 2.865 0.862 0.452 0.416 0.965 1.12 0.88 1.205-0.023 0.023-0.424 0.090-0.892 0.15-1.525 0.195-2.813 0.719-3.855 1.568-0.485 0.396-0.525 0.412-0.62 0.258zM27.501 10.49c-0.039-0.063-0.047-0.137-0.019-0.165s0.079 0.023 0.114 0.114c0.072 0.188 0.011 0.221-0.095 0.051zM27.283 9.796c-0.039-0.21-0.030-0.423 0.022-0.473 0.053-0.052 0.099 0.112 0.107 0.381 0.016 0.572-0.032 0.607-0.128 0.092zM25.442 9.75c0-0.147 0.024-0.207 0.054-0.133s0.030 0.193 0 0.267c-0.030 0.073-0.054 0.013-0.054-0.133zM19.472 9.214c-0.455-0.277-0.693-0.843-0.697-1.659-0.009-1.657 1.337-2.376 2.615-1.398 0.876 0.67 1.222 1.927 0.709 2.579-0.522 0.664-1.91 0.916-2.628 0.478zM22.494 5.336c-0.492-0.492-0.483-1.588 0.016-1.981 0.596-0.468 1.496-0.132 1.863 0.697 0.159 0.36 0.189 0.555 0.118 0.771-0.236 0.713-1.478 1.032-1.997 0.514z"></path>
<path d="M15.638 31.757c0.103-0.027 0.271-0.027 0.373 0s0.019 0.049-0.187 0.049c-0.205 0-0.289-0.022-0.187-0.049zM18.198 31.757c0.103-0.027 0.271-0.027 0.373 0s0.019 0.049-0.187 0.049c-0.205 0-0.289-0.022-0.187-0.049zM14.845 31.651c0.077-0.031 0.169-0.027 0.204 0.008s-0.028 0.061-0.14 0.056c-0.124-0.005-0.15-0.030-0.064-0.064zM19.218 31.651c0.077-0.031 0.169-0.027 0.204 0.008s-0.028 0.061-0.14 0.056c-0.124-0.005-0.15-0.030-0.064-0.064zM22.222 30.875c0.086-0.055 0.134-0.117 0.107-0.138s-0.302-0.197-0.61-0.39c-1.441-0.904-2.342-2.599-2.546-4.787-0.063-0.683-0.096-0.77-0.296-0.779-0.124-0.006-0.033-0.058 0.202-0.115 0.578-0.141 1.593-0.040 2.319 0.231 1.729 0.647 2.538 2.729 2.036 5.239-0.054 0.269-0.166 0.37-0.65 0.584-0.6 0.265-0.84 0.332-0.562 0.156zM26.681 27.59c-0.745-0.849-0.745-2.199-0.001-3.589 0.345-0.644 1.881-2.226 2.638-2.717l0.533-0.346 0.18 0.222c0.29 0.358 0.442 1.306 0.309 1.927-0.218 1.016-1.014 2.304-2.386 3.861-0.745 0.846-0.987 0.967-1.274 0.64zM7.398 25.864c0-1.16 0.96-4.060 1.344-4.060 0.311 0 1.536 1.73 1.536 2.169 0 0.181-0.205 0.451-0.681 0.897-0.656 0.614-1.833 1.414-2.080 1.414-0.068 0-0.119-0.181-0.119-0.42zM16.118 24.826c0.073-0.030 0.193-0.030 0.267 0s0.013 0.054-0.133 0.054c-0.147 0-0.207-0.024-0.133-0.054zM17.932 24.826c0.073-0.030 0.193-0.030 0.267 0s0.013 0.054-0.133 0.054c-0.147 0-0.207-0.024-0.133-0.054zM11.87 22.897l-0.259-0.293 0.293 0.259c0.274 0.242 0.342 0.328 0.259 0.328-0.019 0-0.151-0.132-0.293-0.293zM11.225 22.257c-0.133-0.169-0.129-0.173 0.040-0.040 0.103 0.081 0.187 0.165 0.187 0.187 0 0.088-0.088 0.031-0.227-0.146zM8.358 21.261c-0.695-0.569-1.604-1.085-2.271-1.287-0.942-0.286-2.263-0.244-2.945 0.093-0.309 0.153-0.465 0.185-0.493 0.1-0.158-0.479-0.3-2.071-0.299-3.356l0.001-1.526 0.83-0.85 0.148 0.457c0.186 0.575 0.581 1.109 1.013 1.373 0.551 0.336 0.577 0.231 0.028-0.117-0.389-0.246-0.57-0.459-0.775-0.907-0.147-0.322-0.252-0.669-0.233-0.771 0.020-0.108 0.349-0.344 0.779-0.56 0.686-0.344 0.819-0.373 1.71-0.373 0.729 0 1.079 0.051 1.427 0.208l0.461 0.208-0.047 0.569c-0.058 0.695-0.484 1.357-1.1 1.706-0.46 0.261-0.43 0.336 0.036 0.092 0.669-0.35 1.195-1.197 1.195-1.926 0-0.207 0.043-0.377 0.095-0.377s0.389 0.216 0.748 0.481l0.653 0.481-0.064 1.306c-0.068 1.391 0.066 2.41 0.452 3.418l0.196 0.512-0.597 0.634c-0.329 0.349-0.617 0.633-0.64 0.632s-0.163-0.101-0.309-0.221zM5.88 16.501c-0.16-0.024-0.448-0.025-0.64-0.001s-0.061 0.044 0.291 0.044c0.352 0.001 0.509-0.019 0.349-0.043zM8.131 13.486c-0.813-0.435-1.129-1.091-1.029-2.137 0.115-1.194 1.353-2.024 2.544-1.703 0.718 0.193 1.485 1.020 1.485 1.599 0 0.124-0.156 0.419-0.347 0.656s-0.517 0.726-0.725 1.087l-0.379 0.656-0.581 0.024c-0.409 0.017-0.696-0.037-0.969-0.183zM23.62 11.205c0.024-0.022 0.279-0.064 0.566-0.095 0.319-0.034 0.464-0.020 0.373 0.037-0.138 0.088-1.035 0.143-0.939 0.058zM28.128 11.055c-0.068-0.043 0.18-0.078 0.55-0.078s0.618 0.035 0.55 0.078c-0.068 0.043-0.315 0.078-0.55 0.078s-0.482-0.035-0.55-0.078zM24.945 10.817c0.106-0.117 0.217-0.213 0.246-0.213s-0.034 0.096-0.14 0.213c-0.106 0.117-0.217 0.213-0.246 0.213s0.034-0.096 0.14-0.213zM27.501 10.49c-0.039-0.063-0.047-0.137-0.019-0.165s0.079 0.023 0.114 0.114c0.072 0.188 0.011 0.221-0.095 0.051zM27.283 9.796c-0.039-0.21-0.030-0.423 0.022-0.473 0.053-0.052 0.099 0.112 0.107 0.381 0.016 0.572-0.032 0.607-0.128 0.092zM25.442 9.75c0-0.147 0.024-0.207 0.054-0.133s0.030 0.193 0 0.267c-0.030 0.073-0.054 0.013-0.054-0.133zM14.413 8.090c-0.317-0.172-0.615-0.655-0.615-0.997 0-0.318 0.341-0.456 0.846-0.343 0.541 0.122 1.394 0.616 1.394 0.809 0 0.080-0.148 0.27-0.328 0.422-0.373 0.314-0.846 0.354-1.297 0.109zM22.796 5.485c-0.388-0.157-0.571-0.534-0.571-1.178 0-0.656 0.215-1.006 0.692-1.126 0.626-0.157 1.548 0.686 1.548 1.417 0 0.696-0.924 1.187-1.669 0.887z"></path>
<path d="M26.681 27.59c-0.745-0.849-0.745-2.199-0.001-3.589 0.345-0.644 1.881-2.226 2.638-2.717l0.533-0.346 0.18 0.222c0.29 0.358 0.442 1.306 0.309 1.927-0.218 1.016-1.014 2.304-2.386 3.861-0.745 0.846-0.987 0.967-1.274 0.64zM7.398 25.864c0-1.16 0.96-4.060 1.344-4.060 0.311 0 1.536 1.73 1.536 2.169 0 0.181-0.205 0.451-0.681 0.897-0.656 0.614-1.833 1.414-2.080 1.414-0.068 0-0.119-0.181-0.119-0.42zM4.372 16.148c-0.389-0.246-0.57-0.459-0.775-0.907-0.147-0.322-0.252-0.669-0.233-0.771 0.020-0.108 0.349-0.344 0.779-0.56 0.686-0.344 0.819-0.373 1.71-0.373 0.729 0 1.079 0.051 1.427 0.208l0.461 0.208-0.047 0.569c-0.095 1.141-0.988 1.943-2.168 1.946-0.537 0.001-0.731-0.052-1.153-0.32zM8.131 13.486c-0.813-0.435-1.129-1.091-1.029-2.137 0.115-1.194 1.353-2.024 2.544-1.703 0.718 0.193 1.485 1.020 1.485 1.599 0 0.124-0.156 0.419-0.347 0.656s-0.517 0.726-0.725 1.087l-0.379 0.656-0.581 0.024c-0.409 0.017-0.696-0.037-0.969-0.183zM23.62 11.205c0.024-0.022 0.279-0.064 0.566-0.095 0.319-0.034 0.464-0.020 0.373 0.037-0.138 0.088-1.035 0.143-0.939 0.058zM28.128 11.055c-0.068-0.043 0.18-0.078 0.55-0.078s0.618 0.035 0.55 0.078c-0.068 0.043-0.315 0.078-0.55 0.078s-0.482-0.035-0.55-0.078zM24.945 10.817c0.106-0.117 0.217-0.213 0.246-0.213s-0.034 0.096-0.14 0.213c-0.106 0.117-0.217 0.213-0.246 0.213s0.034-0.096 0.14-0.213zM27.501 10.49c-0.039-0.063-0.047-0.137-0.019-0.165s0.079 0.023 0.114 0.114c0.072 0.188 0.011 0.221-0.095 0.051zM27.283 9.796c-0.039-0.21-0.030-0.423 0.022-0.473 0.053-0.052 0.099 0.112 0.107 0.381 0.016 0.572-0.032 0.607-0.128 0.092zM25.442 9.75c0-0.147 0.024-0.207 0.054-0.133s0.030 0.193 0 0.267c-0.030 0.073-0.054 0.013-0.054-0.133zM14.413 8.090c-0.317-0.172-0.615-0.655-0.615-0.997 0-0.318 0.341-0.456 0.846-0.343 0.541 0.122 1.394 0.616 1.394 0.809 0 0.080-0.148 0.27-0.328 0.422-0.373 0.314-0.846 0.354-1.297 0.109zM22.796 5.485c-0.388-0.157-0.571-0.534-0.571-1.178 0-0.656 0.215-1.006 0.692-1.126 0.626-0.157 1.548 0.686 1.548 1.417 0 0.696-0.924 1.187-1.669 0.887z"></path>
<path d="M7.398 25.864c0-1.16 0.96-4.060 1.344-4.060 0.311 0 1.536 1.73 1.536 2.169 0 0.181-0.205 0.451-0.681 0.897-0.656 0.614-1.833 1.414-2.080 1.414-0.068 0-0.119-0.181-0.119-0.42zM4.372 16.148c-0.389-0.246-0.57-0.459-0.775-0.907-0.147-0.322-0.252-0.669-0.233-0.771 0.020-0.108 0.349-0.344 0.779-0.56 0.686-0.344 0.819-0.373 1.71-0.373 0.729 0 1.079 0.051 1.427 0.208l0.461 0.208-0.047 0.569c-0.095 1.141-0.988 1.943-2.168 1.946-0.537 0.001-0.731-0.052-1.153-0.32zM14.413 8.090c-0.317-0.172-0.615-0.655-0.615-0.997 0-0.318 0.341-0.456 0.846-0.343 0.541 0.122 1.394 0.616 1.394 0.809 0 0.080-0.148 0.27-0.328 0.422-0.373 0.314-0.846 0.354-1.297 0.109zM22.796 5.485c-0.388-0.157-0.571-0.534-0.571-1.178 0-0.656 0.215-1.006 0.692-1.126 0.626-0.157 1.548 0.686 1.548 1.417 0 0.696-0.924 1.187-1.669 0.887z"></path>
</svg>
