<!-- Generated by IcoMoon.io -->
<svg version="1.1" xmlns="http://www.w3.org/2000/svg" width="32" height="32" viewBox="0 0 32 32">
<title>statuscake</title>
<path d="M22.666 11.104c0.229-1.486 1.85-2.64 3.814-2.64 2.12 0 3.842 1.345 3.842 3.002s-1.721 3.002-3.842 3.002c-0.759 0-1.467-0.172-2.063-0.47-0.315-1.094-0.925-2.082-1.75-2.894z"></path>
<path d="M11.539 10.859c-0.372-1.933 0.343-3.735 1.769-4.215 1.404-0.473 3.035 0.493 3.918 2.209-0.084-0.002-0.169-0.004-0.253-0.004-2.121 0-4.042 0.768-5.433 2.009z"></path>
<path d="M9.553 13.91c-0.14 0.026-0.285 0.040-0.434 0.040-1.288 0-2.334-1.046-2.334-2.334s1.046-2.334 2.334-2.334c1.079 0 1.987 0.733 2.254 1.728-0.851 0.807-1.486 1.799-1.821 2.899z"></path>
<path d="M2.28 14.837c0.010-0.928 1.58-1.681 3.512-1.681 1.905 0 3.458 0.732 3.511 1.642-0.080 0.869-0.089 0.909-0.089 1.892 0 2.375 0.929 3.464 1.596 5.040 1.313 1.321 1.624 1.739 2.95 2.323 1.462 0.644 1.878 0.679 3.517 0.679 1.778 0 1.868-0.241 3.305-0.802 1.229-0.882 1.688-0.903 2.879-2.47 0.264-0.806 1.030-1.439 1.419-1.946s1.165-0.553 2.026-0.553c0.736 0 1.55 0.279 2.078 0.793s1.472 1.574 1.472 2.338c-0.312 0.679-0.115 2.064-1.322 3.158-0.479 1.132-1.599 1.885-2.627 2.975s-2.34 1.976-3.938 2.656-3.458 1.021-5.583 1.021c-1.611 0-3.109-0.403-4.428-0.709s-2.41-0.966-3.486-1.612c-1.076-0.646-1.947-1.346-2.85-2.401-0.806-0.958-1.687-1.746-2.256-2.934s-0.996-2.455-1.281-3.802c-0.285-1.347-0.427-2.778-0.427-4.292 0-0.887-0.023-0.492 0.025-1.317v0z"></path>
<path d="M7.718 14.191c0 1.241-1.006 2.247-2.247 2.247s-2.247-1.006-2.247-2.247c0-1.241 1.006-2.247 2.247-2.247s2.247 1.006 2.247 2.247z"></path>
<path d="M6.369 10.633c0 0.407-0.315 0.737-0.702 0.737s-0.702-0.33-0.702-0.737c0-0.407 0.315-0.737 0.702-0.737s0.702 0.33 0.702 0.737z"></path>
<path d="M5.080 8.358c0 0.52-0.421 0.941-0.941 0.941s-0.941-0.421-0.941-0.941c0-0.52 0.421-0.941 0.941-0.941s0.941 0.421 0.941 0.941z"></path>
<path d="M10.013 5.853c0 0.688-0.557 1.245-1.245 1.245s-1.245-0.557-1.245-1.245c0-0.688 0.557-1.245 1.245-1.245s1.245 0.557 1.245 1.245z"></path>
<path d="M11.717 6.938c0 0.262-0.212 0.474-0.474 0.474s-0.474-0.212-0.474-0.474c0-0.262 0.212-0.474 0.474-0.474s0.474 0.212 0.474 0.474z"></path>
<path d="M16.15 6.906c0 0.617-0.5 1.117-1.117 1.117s-1.117-0.5-1.117-1.117c0-0.617 0.5-1.117 1.117-1.117s1.117 0.5 1.117 1.117z"></path>
<path d="M17.46 2.455c0 0.556-0.451 1.006-1.006 1.006s-1.006-0.45-1.006-1.006c0-0.556 0.45-1.006 1.006-1.006s1.006 0.451 1.006 1.006z"></path>
<path d="M13.153 0.811c0 0.253-0.205 0.458-0.458 0.458s-0.458-0.205-0.458-0.458c0-0.253 0.205-0.458 0.458-0.458s0.458 0.205 0.458 0.458z"></path>
<path d="M25.624 9.663c0 0.843-0.683 1.526-1.526 1.526s-1.526-0.683-1.526-1.526c0-0.843 0.683-1.526 1.526-1.526s1.526 0.683 1.526 1.526z"></path>
<path d="M27.419 5.152c0 0.518-0.42 0.937-0.937 0.937s-0.937-0.42-0.937-0.937c0-0.518 0.42-0.937 0.937-0.937s0.937 0.42 0.937 0.937z"></path>
<path d="M24.59 4.251c0 0.744-0.585 1.346-1.307 1.346s-1.307-0.603-1.307-1.346c0-0.744 0.585-1.346 1.307-1.346s1.307 0.603 1.307 1.346z"></path>
<path d="M22.377 7.522c0 1.062-0.854 1.922-1.908 1.922s-1.908-0.861-1.908-1.922c0-1.062 0.854-1.922 1.908-1.922s1.908 0.861 1.908 1.922z"></path>
<path d="M25.216 7.36c0 0.232-0.188 0.42-0.42 0.42s-0.42-0.188-0.42-0.42c0-0.232 0.188-0.42 0.42-0.42s0.42 0.188 0.42 0.42z"></path>
<path d="M30.176 9.442c0 0.891-0.631 1.613-1.409 1.613s-1.409-0.722-1.409-1.613c0-0.891 0.631-1.613 1.409-1.613s1.409 0.722 1.409 1.613z"></path>
</svg>
