<!-- Generated by IcoMoon.io -->
<svg version="1.1" xmlns="http://www.w3.org/2000/svg" width="32" height="32" viewBox="0 0 32 32">
<title>tomcat</title>
<path d="M24.358 24.56c-3.984-1.891-6.379-2.783-9.187-3.422-3.392-0.772-3.654-0.736-3.245 0.437 0.235 0.675 0.544 0.96 1.039 0.96 0.701 0 1.473 0.536 1.473 1.024 0 0.141-0.603 0.256-1.339 0.256-1.076 0-1.627-0.237-2.8-1.203-2.656-2.188-2.435-2.089-3.47-1.554-1.226 0.634-2 1.856-2.052 3.24l-0.042 1.116h-1.708c-0.939 0-1.708-0.132-1.708-0.293 0-0.465 3.058-4.908 3.959-5.751l0.816-0.764-0.771-1.316c-1.104-1.884-1.324-3.677-0.631-5.139 0.757-1.595 1.642-2.105 4.216-2.43 1.825-0.23 2.349-0.182 3.291 0.301 0.616 0.316 1.167 0.813 1.223 1.104 0.167 0.852-2.998 0.752-3.538-0.111-0.824-1.32-3.821-0.391-4.577 1.418-0.258 0.617-0.468 1.351-0.468 1.632 0 0.689 1.298 3.67 1.598 3.67 0.131 0 0.942-0.554 1.801-1.23 2.062-1.625 4.166-2.824 6.227-3.55l1.682-0.592 0.026-3.217c0.015-1.836 0.174-3.366 0.371-3.563 0.247-0.247 0.762 0.022 1.809 0.944 1.432 1.26 1.517 1.289 3.863 1.289 2.315 0 2.438-0.039 3.519-1.12 1.933-1.933 2.452-1.42 2.46 2.429 0.002 1.16-0.21 2.816-0.472 3.68s-0.478 1.596-0.48 1.627c-0.002 0.031 0.249 0.124 0.557 0.206 0.453 0.121 0.408 0.198-0.24 0.405l-0.8 0.256 0.8 0.226c0.741 0.209 0.723 0.229-0.24 0.258-0.572 0.018-1.040 0.165-1.040 0.327s-0.67 0.965-1.488 1.783l-1.488 1.488 2.2 2.217c1.322 1.332 2.466 2.217 2.868 2.217 0.785 0 2.069 1.1 2.069 1.772 0 0.348-0.388 0.461-1.52 0.441-1.101-0.019-2.357-0.424-4.56-1.469z"></path>
<path d="M24.358 24.56c-3.984-1.891-6.379-2.783-9.187-3.422-3.392-0.772-3.654-0.736-3.245 0.437 0.235 0.675 0.544 0.96 1.039 0.96 0.701 0 1.473 0.536 1.473 1.024 0 0.141-0.603 0.256-1.339 0.256-1.076 0-1.627-0.237-2.8-1.203-2.656-2.188-2.435-2.089-3.47-1.554-1.226 0.634-2 1.856-2.052 3.24l-0.042 1.116h-1.708c-0.939 0-1.708-0.132-1.708-0.293 0-0.465 3.058-4.908 3.959-5.751l0.816-0.764-0.771-1.316c-1.104-1.884-1.324-3.677-0.631-5.139 0.757-1.595 1.642-2.105 4.216-2.43 1.825-0.23 2.349-0.182 3.291 0.301 0.616 0.316 1.167 0.813 1.223 1.104 0.167 0.852-2.998 0.752-3.538-0.111-0.824-1.32-3.821-0.391-4.577 1.418-0.258 0.617-0.468 1.351-0.468 1.632 0 0.689 1.298 3.67 1.598 3.67 0.131 0 0.942-0.554 1.801-1.23 2.062-1.625 4.166-2.824 6.227-3.55l1.682-0.592 0.026-3.217c0.015-1.836 0.174-3.366 0.371-3.563 0.247-0.247 0.762 0.022 1.809 0.944 1.432 1.26 1.517 1.289 3.863 1.289 2.315 0 2.438-0.039 3.519-1.12 1.933-1.933 2.452-1.42 2.46 2.429 0.002 1.16-0.21 2.816-0.472 3.68s-0.478 1.596-0.48 1.627c-0.002 0.031 0.249 0.124 0.557 0.206 0.453 0.121 0.408 0.198-0.24 0.405l-0.8 0.256 0.8 0.226c0.741 0.209 0.723 0.229-0.24 0.258-0.572 0.018-1.040 0.165-1.040 0.327s-0.67 0.965-1.488 1.783l-1.488 1.488 2.2 2.217c1.322 1.332 2.466 2.217 2.868 2.217 0.785 0 2.069 1.1 2.069 1.772 0 0.348-0.388 0.461-1.52 0.441-1.101-0.019-2.357-0.424-4.56-1.469zM24.215 17.543c1.179-1.145 1.416-1.535 1.069-1.755s-0.308-0.283 0.175-0.287c0.615-0.005 0.615-0.010 0-0.475-0.594-0.449-0.581-0.47 0.282-0.48 0.688-0.008 0.876-0.144 0.788-0.57-0.063-0.308 0.106-0.737 0.377-0.954 0.402-0.322 0.414-0.445 0.065-0.675-0.345-0.227-0.329-0.319 0.080-0.476 0.403-0.154 0.506-0.707 0.505-2.685l-0.002-2.49-0.586 0.96c-0.535 0.876-0.737 0.96-2.318 0.96-1.553 0-1.743 0.075-1.834 0.72-0.135 0.953-0.508 0.911-0.973-0.109-0.354-0.777-0.476-0.816-1.935-0.615-1.606 0.221-1.712 0.172-2.75-1.276-0.418-0.583-0.46-0.464-0.469 1.348-0.008 1.64 0.112 2.101 0.69 2.64 0.385 0.359 0.529 0.652 0.32 0.652s-0.38 0.216-0.38 0.48c0 0.264 0.119 0.48 0.265 0.48s0.254 0.324 0.24 0.72c-0.018 0.513 0.182 0.749 0.695 0.822 0.756 0.107 1.009 0.68 0.32 0.723-0.318 0.020-0.317 0.059 0.002 0.187 0.221 0.089 0.317 0.3 0.212 0.469s0.003 0.54 0.238 0.826c0.52 0.631 2.829 2.333 3.166 2.333 0.133 0 0.924-0.663 1.758-1.473zM21.17 15.641c0.343-0.414 0.293-0.576-0.306-0.996-0.53-0.371-0.667-0.701-0.525-1.266 0.155-0.616 0.067-0.764-0.454-0.764-0.355 0-0.646-0.144-0.646-0.32s0.36-0.32 0.8-0.32c0.625 0 0.8-0.164 0.8-0.747 0-1.061-0.319-1.248-1.174-0.687-0.782 0.513-1.019 0.236-0.362-0.422 0.963-0.963 2.176-0.271 2.176 1.242 0 0.868 1.928 0.849 2.72-0.026 0.319-0.352 0.953-0.634 1.41-0.627 0.781 0.012 0.764 0.044-0.29 0.536-1.010 0.472-1.049 0.536-0.4 0.65 0.994 0.175 0.907 0.722-0.115 0.722-0.728 0-0.809 0.101-0.636 0.79 0.155 0.616 0.020 0.907-0.611 1.321-0.758 0.497-0.774 0.557-0.244 0.96 0.519 0.394 0.521 0.43 0.025 0.439-0.298 0.006-0.63-0.134-0.739-0.311-0.133-0.214-0.397-0.214-0.798 0-0.862 0.462-1.102 0.396-0.63-0.173zM22.918 14.536c0.113-0.182-0.163-0.32-0.64-0.32s-0.753 0.138-0.64 0.32c0.109 0.176 0.397 0.32 0.64 0.32s0.531-0.144 0.64-0.32zM23.718 13.762c0-0.734-0.531-1.146-1.474-1.146-0.597 0-1.086 0.060-1.086 0.134s-0.087 0.362-0.194 0.64c-0.16 0.416 0.067 0.506 1.28 0.506 0.811 0 1.474-0.060 1.474-0.134z"></path>
<path d="M24.608 24.601c-3.452-1.772-6.921-3.052-9.995-3.689-1.576-0.326-2.935-0.524-3.020-0.439s-0.017 0.547 0.152 1.026c0.216 0.614 0.587 0.92 1.256 1.036 0.561 0.097 0.993 0.392 1.056 0.722 0.085 0.441-0.118 0.558-0.972 0.558-0.817 0-1.562-0.389-3.065-1.6-1.092-0.88-2.181-1.6-2.421-1.6-1.218 0-3.082 2.409-3.082 3.984 0 0.754-0.11 0.816-1.44 0.816-0.939 0-1.44-0.139-1.439-0.4 0.002-0.566 1.102-2.314 2.91-4.622l1.552-1.982-0.788-1.378c-1.159-2.027-1.108-4.378 0.124-5.757 0.779-0.872 1.231-1.069 2.96-1.286 2.934-0.369 3.201-0.349 4.074 0.303 1.085 0.81 0.92 1.185-0.571 1.3-0.942 0.072-1.437-0.072-1.926-0.56-0.933-0.933-2.605-0.862-3.822 0.162-1.568 1.319-1.7 3.612-0.338 5.853l0.636 1.046 1.243-1.059c1.771-1.509 4.529-3.113 6.705-3.901 1.030-0.373 1.897-0.822 1.928-0.998s-0.035-1.051-0.147-1.944c-0.228-1.828 0.163-4.345 0.704-4.525 0.196-0.065 0.914 0.41 1.595 1.056 1.229 1.167 1.255 1.175 3.783 1.112 2.411-0.060 2.61-0.121 3.761-1.161 0.668-0.604 1.339-1.098 1.491-1.098 0.291 0 0.683 2.28 0.683 3.977 0 0.554-0.221 1.855-0.49 2.89-0.354 1.359-0.391 1.943-0.133 2.103 0.217 0.134 0.065 0.312-0.39 0.454l-0.747 0.233 1.6 0.519-0.8 0.050c-0.53 0.033-1.323 0.637-2.347 1.789l-1.547 1.739 1.942 2.186c1.418 1.595 2.258 2.266 3.112 2.483 0.643 0.164 1.383 0.622 1.644 1.018 0.474 0.719 0.472 0.72-1.405 0.704-1.494-0.012-2.32-0.242-4.029-1.119zM24.266 17.56c1.232-1.181 1.43-1.512 1.046-1.755-0.389-0.246-0.363-0.3 0.148-0.304 0.615-0.005 0.615-0.010 0-0.475-0.594-0.449-0.581-0.47 0.282-0.48 0.688-0.008 0.876-0.144 0.788-0.57-0.063-0.308 0.106-0.737 0.377-0.954 0.402-0.322 0.414-0.445 0.065-0.675-0.345-0.227-0.329-0.319 0.080-0.476 0.406-0.156 0.507-0.721 0.507-2.84v-2.645l-0.599 1.115c-0.57 1.061-0.683 1.115-2.32 1.115-1.541 0-1.731 0.075-1.823 0.72-0.135 0.951-0.508 0.912-0.97-0.103-0.343-0.752-0.517-0.814-2.031-0.72-1.571 0.097-1.694 0.047-2.397-0.985l-0.741-1.087v2.248c0 1.969 0.089 2.311 0.72 2.751 0.604 0.422 0.63 0.505 0.16 0.519-0.651 0.020-0.74 0.51-0.16 0.881 0.22 0.141 0.4 0.544 0.4 0.896 0 0.42 0.247 0.675 0.72 0.742 0.848 0.12 0.97 0.681 0.16 0.735-0.511 0.034-0.512 0.050-0.018 0.18 0.298 0.079 0.47 0.331 0.382 0.56-0.178 0.464 2.6 3.063 3.275 3.063 0.236 0 1.113-0.655 1.949-1.456zM21.17 15.641c0.343-0.414 0.293-0.576-0.306-0.996-0.53-0.371-0.667-0.701-0.525-1.266 0.155-0.616 0.067-0.764-0.454-0.764-0.355 0-0.646-0.144-0.646-0.32s0.36-0.32 0.8-0.32c0.625 0 0.8-0.164 0.8-0.747 0-1.061-0.319-1.248-1.174-0.687-0.782 0.513-1.019 0.236-0.362-0.422 0.963-0.963 2.176-0.271 2.176 1.242 0 0.868 1.928 0.849 2.72-0.026 0.319-0.352 0.953-0.634 1.41-0.627 0.781 0.012 0.764 0.044-0.29 0.536-1.010 0.472-1.049 0.536-0.4 0.65 0.994 0.175 0.907 0.722-0.115 0.722-0.728 0-0.809 0.101-0.636 0.79 0.155 0.616 0.020 0.907-0.611 1.321-0.758 0.497-0.774 0.557-0.244 0.96 0.519 0.394 0.521 0.43 0.025 0.439-0.298 0.006-0.63-0.134-0.739-0.311-0.133-0.214-0.397-0.214-0.798 0-0.862 0.462-1.102 0.396-0.63-0.173zM22.918 14.536c0.113-0.182-0.163-0.32-0.64-0.32s-0.753 0.138-0.64 0.32c0.109 0.176 0.397 0.32 0.64 0.32s0.531-0.144 0.64-0.32zM23.718 13.762c0-0.734-0.531-1.146-1.474-1.146-0.597 0-1.086 0.060-1.086 0.134s-0.087 0.362-0.194 0.64c-0.16 0.416 0.067 0.506 1.28 0.506 0.811 0 1.474-0.060 1.474-0.134z"></path>
<path d="M24.608 24.601c-3.452-1.772-6.921-3.052-9.995-3.689-1.576-0.326-2.935-0.524-3.020-0.439s-0.017 0.547 0.152 1.026c0.216 0.614 0.587 0.92 1.256 1.036 0.561 0.097 0.993 0.392 1.056 0.722 0.085 0.441-0.118 0.558-0.972 0.558-0.817 0-1.562-0.389-3.065-1.6-1.092-0.88-2.181-1.6-2.421-1.6-1.218 0-3.082 2.409-3.082 3.984 0 0.754-0.11 0.816-1.44 0.816-0.939 0-1.44-0.139-1.439-0.4 0.002-0.566 1.102-2.314 2.91-4.622l1.552-1.982-0.788-1.378c-1.159-2.027-1.108-4.378 0.124-5.757 0.779-0.872 1.231-1.069 2.96-1.286 2.934-0.369 3.201-0.349 4.074 0.303 1.085 0.81 0.92 1.185-0.571 1.3-0.942 0.072-1.437-0.072-1.926-0.56-0.933-0.933-2.605-0.862-3.822 0.162-1.568 1.319-1.7 3.612-0.338 5.853l0.636 1.046 1.243-1.059c1.771-1.509 4.529-3.113 6.705-3.901 1.030-0.373 1.897-0.822 1.928-0.998s-0.035-1.051-0.147-1.944c-0.228-1.828 0.163-4.345 0.704-4.525 0.196-0.065 0.914 0.41 1.595 1.056 1.229 1.167 1.255 1.175 3.783 1.112 2.411-0.060 2.61-0.121 3.761-1.161 0.668-0.604 1.339-1.098 1.491-1.098 0.291 0 0.683 2.28 0.683 3.977 0 0.554-0.221 1.855-0.49 2.89-0.354 1.359-0.391 1.943-0.133 2.103 0.217 0.134 0.065 0.312-0.39 0.454l-0.747 0.233 1.6 0.519-0.8 0.050c-0.53 0.033-1.323 0.637-2.347 1.789l-1.547 1.739 1.942 2.186c1.418 1.595 2.258 2.266 3.112 2.483 0.643 0.164 1.383 0.622 1.644 1.018 0.474 0.719 0.472 0.72-1.405 0.704-1.494-0.012-2.32-0.242-4.029-1.119zM29.478 25.13c0-0.336-0.783-0.674-1.561-0.674-0.302 0-1.108-0.572-1.791-1.272-1.014-1.038-1.393-1.235-2.065-1.072-0.799 0.194-0.807 0.181-0.262-0.434 0.688-0.778 0.418-1.114-0.688-0.855-0.684 0.161-0.761 0.119-0.433-0.23 0.54-0.574 0.506-1.047-0.058-0.83-0.557 0.214-3.072-1.654-4.019-2.983-0.501-0.703-0.962-0.975-1.705-1.002l-1.018-0.038 0.96-0.244c0.746-0.19 0.804-0.253 0.259-0.282-0.8-0.043-1.359-0.678-0.598-0.678 0.538 0 0.645-0.554 0.233-1.204-0.396-0.625-2.402 0.152-2.181 0.844 0.091 0.286 0.268 0.859 0.393 1.275l0.227 0.755-1.333-0.882c-1.413-0.935-2.033-0.852-1.385 0.186 0.442 0.708 0.302 0.774-0.608 0.288-0.347-0.186-0.914-0.248-1.26-0.138-0.495 0.157-0.586 0.382-0.427 1.058 0.166 0.705 0.126 0.787-0.223 0.458-0.603-0.567-0.972-0.49-2.007 0.421-0.843 0.741-0.875 0.853-0.441 1.515 0.396 0.604 0.698 0.697 1.941 0.598 1.39-0.111 1.484-0.178 1.677-1.206 0.273-1.457 0.848-1.395 0.721 0.078l-0.101 1.167 2.716 0.558c3.295 0.677 6.967 2.007 10.396 3.764 2.371 1.215 4.64 1.733 4.64 1.058zM4.29 23.192c0.372-1.046 0.913-1.825 1.595-2.296 0.568-0.392 1.082-0.749 1.142-0.793s-0.028-0.324-0.195-0.624c-0.259-0.463-0.549-0.25-1.95 1.434-0.905 1.088-1.865 2.402-2.133 2.92-0.471 0.911-0.463 0.942 0.246 0.942 0.59 0 0.843-0.31 1.295-1.583zM24.266 17.56c1.232-1.181 1.43-1.512 1.046-1.755-0.389-0.246-0.363-0.3 0.148-0.304 0.615-0.005 0.615-0.010 0-0.475-0.594-0.449-0.581-0.47 0.282-0.48 0.688-0.008 0.876-0.144 0.788-0.57-0.063-0.308 0.106-0.737 0.377-0.954 0.402-0.322 0.414-0.445 0.065-0.675-0.345-0.227-0.329-0.319 0.080-0.476 0.406-0.156 0.507-0.721 0.507-2.84v-2.645l-0.602 1.115c-0.582 1.078-0.656 1.111-2.237 1.006-1.543-0.103-1.654-0.058-1.984 0.8l-0.349 0.909-0.476-0.901c-0.44-0.834-0.598-0.893-2.114-0.8-1.55 0.095-1.678 0.043-2.379-0.986l-0.741-1.087v2.248c0 1.969 0.089 2.311 0.72 2.751 0.604 0.422 0.63 0.505 0.16 0.519-0.651 0.020-0.74 0.51-0.16 0.881 0.22 0.141 0.4 0.537 0.4 0.881 0 0.403 0.285 0.694 0.8 0.817 0.773 0.185 0.778 0.204 0.16 0.565-0.548 0.32-0.561 0.375-0.090 0.383 0.331 0.006 0.483 0.183 0.382 0.447-0.186 0.484 2.569 3.083 3.267 3.083 0.236 0 1.113-0.655 1.949-1.456zM21.244 15.722c0.533-0.438 0.517-0.497-0.268-1.012-0.648-0.425-0.791-0.719-0.64-1.321 0.159-0.633 0.073-0.774-0.471-0.774-0.366 0-0.576-0.144-0.467-0.32s0.477-0.32 0.819-0.32c0.477 0 0.621-0.223 0.621-0.96 0-1.074-0.46-1.222-1.335-0.43-0.64 0.579-0.823 0.156-0.201-0.466 0.683-0.684 1.824-0.461 2.040 0.398 0.108 0.43 0.102 0.934-0.013 1.12-0.41 0.663 2.249 0.383 2.869-0.302 0.319-0.352 0.881-0.634 1.25-0.627 0.572 0.011 0.529 0.092-0.29 0.552-0.911 0.512-0.923 0.545-0.24 0.649 0.997 0.153 0.907 0.706-0.115 0.706-0.72 0-0.808 0.105-0.643 0.765 0.148 0.589 0.003 0.889-0.632 1.305-0.789 0.517-0.799 0.561-0.237 1.021s0.56 0.472-0.053 0.257c-0.352-0.123-0.784-0.224-0.96-0.224s-0.608 0.101-0.96 0.224c-0.602 0.211-0.606 0.196-0.074-0.241zM22.918 14.536c0.113-0.182-0.163-0.32-0.64-0.32s-0.753 0.138-0.64 0.32c0.109 0.176 0.397 0.32 0.64 0.32s0.531-0.144 0.64-0.32zM23.713 13.656c-0.023-1.149-2.603-1.442-2.816-0.32-0.088 0.467 0.137 0.56 1.357 0.56 0.805 0 1.461-0.108 1.459-0.24z"></path>
<path d="M24.608 24.601c-3.452-1.772-6.921-3.052-9.995-3.689-1.576-0.326-2.935-0.524-3.020-0.439s-0.017 0.547 0.152 1.026c0.216 0.614 0.587 0.92 1.256 1.036 0.561 0.097 0.993 0.392 1.056 0.722 0.085 0.441-0.118 0.558-0.972 0.558-0.817 0-1.562-0.389-3.065-1.6-1.092-0.88-2.181-1.6-2.421-1.6-1.218 0-3.082 2.409-3.082 3.984 0 0.754-0.11 0.816-1.44 0.816-0.939 0-1.44-0.139-1.439-0.4 0.002-0.566 1.102-2.314 2.91-4.622l1.552-1.982-0.788-1.378c-1.159-2.027-1.108-4.378 0.124-5.757 0.779-0.872 1.231-1.069 2.96-1.286 2.934-0.369 3.201-0.349 4.074 0.303 1.085 0.81 0.92 1.185-0.571 1.3-0.942 0.072-1.437-0.072-1.926-0.56-0.933-0.933-2.605-0.862-3.822 0.162-1.568 1.319-1.7 3.612-0.338 5.853l0.636 1.046 1.243-1.059c1.771-1.509 4.529-3.113 6.705-3.901 1.030-0.373 1.897-0.822 1.928-0.998s-0.035-1.051-0.147-1.944c-0.228-1.828 0.163-4.345 0.704-4.525 0.196-0.065 0.914 0.41 1.595 1.056 1.229 1.167 1.255 1.175 3.783 1.112 2.411-0.060 2.61-0.121 3.761-1.161 0.668-0.604 1.339-1.098 1.491-1.098 0.291 0 0.683 2.28 0.683 3.977 0 0.554-0.221 1.855-0.49 2.89-0.354 1.359-0.391 1.943-0.133 2.103 0.217 0.134 0.065 0.312-0.39 0.454l-0.747 0.233 1.6 0.519-0.8 0.050c-0.53 0.033-1.323 0.637-2.347 1.789l-1.547 1.739 1.942 2.186c1.418 1.595 2.258 2.266 3.112 2.483 0.643 0.164 1.383 0.622 1.644 1.018 0.474 0.719 0.472 0.72-1.405 0.704-1.494-0.012-2.32-0.242-4.029-1.119zM29.485 24.944c-0.215-0.259-0.887-0.564-1.492-0.678-0.735-0.138-1.381-0.575-1.946-1.315-0.638-0.837-1.027-1.073-1.587-0.966-0.754 0.144-1.054-0.252-0.365-0.482 0.209-0.070 0.268-0.301 0.133-0.52-0.14-0.227-0.516-0.308-0.888-0.19-0.532 0.169-0.61 0.094-0.445-0.425 0.16-0.504 0.019-0.666-0.702-0.81-0.531-0.106-1.595-0.914-2.586-1.962-1.172-1.239-1.947-1.795-2.547-1.825-0.754-0.038-0.772-0.061-0.142-0.182 0.396-0.076 0.72-0.273 0.72-0.436s-0.324-0.308-0.72-0.32c-0.559-0.017-0.603-0.071-0.2-0.24 0.398-0.166 0.454-0.395 0.238-0.972-0.235-0.628-0.429-0.718-1.16-0.537-1.279 0.316-1.481 0.638-1.094 1.747 0.397 1.14 0.207 1.213-0.904 0.344-1.138-0.89-1.717-0.829-1.47 0.155 0.187 0.746 0.151 0.773-0.585 0.438-1.049-0.478-1.906-0.129-1.692 0.689 0.138 0.526 0.043 0.604-0.553 0.454-0.497-0.125-1.037 0.087-1.746 0.684l-1.027 0.864 0.726 0.773c0.596 0.635 0.985 0.756 2.176 0.678 1.35-0.088 1.458-0.161 1.555-1.055 0.058-0.528 0.252-1.104 0.433-1.28 0.224-0.218 0.262 0.091 0.119 0.972l-0.21 1.292 2.303 0.395c2.966 0.509 6.362 1.687 10.37 3.599 1.998 0.953 3.665 1.537 4.439 1.554 1.057 0.023 1.182-0.042 0.848-0.444zM4.315 23.53c0.191-1.194 1.657-2.917 2.812-3.306 0.36-0.121 0.358-0.233-0.008-0.677-0.242-0.293-0.555-0.532-0.696-0.532-0.316 0-4.145 5.043-4.145 5.46 0 0.165 0.414 0.3 0.919 0.3 0.821 0 0.94-0.134 1.118-1.245zM24.219 17.682c0.805-0.742 1.374-1.523 1.283-1.76-0.091-0.236 0.046-0.427 0.306-0.427 0.67 0 0.585-0.633-0.090-0.672-0.358-0.020-0.272-0.115 0.24-0.262 0.476-0.137 0.782-0.448 0.756-0.768-0.024-0.296 0.1-0.538 0.277-0.538s0.247-0.288 0.154-0.64c-0.092-0.352-0.037-0.72 0.123-0.819s0.286-1.359 0.28-2.8c-0.008-2.095-0.081-2.493-0.365-1.981-0.824 1.485-1.166 1.668-2.687 1.437-1.408-0.214-1.469-0.188-1.861 0.771l-0.406 0.992-0.233-0.923c-0.228-0.904-0.267-0.919-1.949-0.746-1.804 0.186-2.258-0.052-2.917-1.531-0.208-0.468-0.312-0.037-0.385 1.6-0.088 1.977-0.019 2.306 0.592 2.8 0.546 0.442 0.583 0.56 0.176 0.56-0.611 0-0.664 0.363-0.131 0.896 0.211 0.211 0.278 0.384 0.149 0.384-0.596 0 0.533 1.284 1.159 1.317 0.542 0.028 0.577 0.072 0.149 0.183-0.679 0.177-0.747 0.739-0.090 0.739 0.26 0 0.397 0.19 0.306 0.427-0.194 0.504 2.505 3.093 3.224 3.093 0.272 0 1.145-0.6 1.941-1.333zM21.158 15.855c0-0.198 0.162-0.359 0.359-0.359 0.242 0 0.223-0.164-0.056-0.5-0.363-0.437-0.312-0.474 0.406-0.294 0.508 0.127 0.914 0.056 1.065-0.189 0.184-0.298-0.080-0.351-1.085-0.216-1.477 0.198-1.844-0.079-1.344-1.012 0.28-0.524 0.218-0.647-0.385-0.763-0.693-0.133-0.694-0.14-0.037-0.182 0.743-0.047 1.181-1.28 0.719-2.023-0.211-0.34-0.386-0.344-0.907-0.021-0.868 0.538-1.139 0.505-0.654-0.080 0.877-1.057 2.269-0.214 2.136 1.293-0.092 1.041 1.87 1.047 2.832 0.009 0.419-0.452 1.021-0.82 1.337-0.817 0.449 0.004 0.405 0.092-0.199 0.4-0.984 0.502-1.189 1.098-0.443 1.291 0.435 0.113 0.391 0.159-0.18 0.187-0.621 0.030-0.731 0.176-0.61 0.81 0.109 0.572-0.047 0.877-0.603 1.174-0.895 0.479-0.944 0.789-0.19 1.228 0.748 0.436 0.212 0.439-0.602 0.003-0.465-0.249-0.764-0.238-1.099 0.039-0.327 0.271-0.46 0.277-0.46 0.022zM23.718 13.237c0-0.576-0.169-0.646-1.357-0.56-0.99 0.072-1.386 0.25-1.463 0.658-0.089 0.467 0.136 0.56 1.357 0.56 1.264 0 1.463-0.090 1.463-0.658z"></path>
<path d="M25.318 24.773c-3.855-2.042-11.159-4.478-13.427-4.478-0.439 0-0.423 0.733 0.038 1.745 0.271 0.595 0.617 0.815 1.28 0.815 0.5 0 0.909 0.144 0.909 0.32s-0.542 0.32-1.205 0.32c-0.966 0-1.59-0.312-3.146-1.571-1.931-1.563-1.947-1.568-2.953-1.081-1.19 0.576-2.296 2.219-2.296 3.41 0 0.785-0.098 0.842-1.44 0.842-0.792 0-1.44-0.121-1.44-0.27 0-0.258 2.47-3.788 3.859-5.514l0.663-0.824-0.821-1.544c-1.316-2.474-0.914-5.39 0.863-6.26l0.717-0.351-0.683 0.581c-1.443 1.23-1.817 3.341-0.939 5.312 0.897 2.015 0.891 2.014 3.099 0.373 2.016-1.498 6.828-3.983 7.712-3.983 0.369 0 0.429-0.512 0.314-2.702-0.078-1.486-0.048-3.076 0.067-3.533l0.208-0.831 0.988 0.573c0.544 0.315 1.126 0.869 1.294 1.232 0.275 0.592 0.583 0.657 3.030 0.64 2.709-0.019 2.731-0.026 4.016-1.244 0.86-0.815 1.399-1.118 1.611-0.905 0.507 0.507 0.377 5.788-0.18 7.301-0.269 0.732-0.405 1.416-0.301 1.52s0.021 0.189-0.184 0.189c-0.205 0-0.373 0.197-0.373 0.437s-0.794 1.263-1.763 2.272l-1.763 1.835 2.095 2.16c1.432 1.477 2.495 2.28 3.358 2.539 0.695 0.208 1.415 0.661 1.6 1.007 0.315 0.589 0.229 0.628-1.355 0.614-1.231-0.011-2.17-0.269-3.451-0.947zM29.485 24.944c-0.215-0.259-0.887-0.564-1.492-0.678-0.735-0.138-1.381-0.575-1.946-1.315-0.638-0.837-1.027-1.073-1.587-0.966-0.754 0.144-1.054-0.252-0.365-0.482 0.209-0.070 0.268-0.301 0.133-0.52-0.14-0.227-0.516-0.308-0.888-0.19-0.532 0.169-0.61 0.094-0.445-0.425 0.16-0.504 0.019-0.666-0.702-0.81-0.531-0.106-1.595-0.914-2.586-1.962-1.172-1.239-1.947-1.795-2.547-1.825-0.754-0.038-0.772-0.061-0.142-0.182 0.396-0.076 0.72-0.273 0.72-0.436s-0.324-0.308-0.72-0.32c-0.559-0.017-0.603-0.071-0.2-0.24 0.398-0.166 0.454-0.395 0.238-0.972-0.235-0.628-0.429-0.718-1.16-0.537-1.279 0.316-1.481 0.638-1.094 1.747 0.397 1.14 0.207 1.213-0.904 0.344-1.138-0.89-1.717-0.829-1.47 0.155 0.187 0.746 0.151 0.773-0.585 0.438-1.049-0.478-1.906-0.129-1.692 0.689 0.138 0.526 0.043 0.604-0.553 0.454-0.497-0.125-1.037 0.087-1.746 0.684l-1.027 0.864 0.726 0.773c0.596 0.635 0.985 0.756 2.176 0.678 1.35-0.088 1.458-0.161 1.555-1.055 0.058-0.528 0.252-1.104 0.433-1.28 0.224-0.218 0.262 0.091 0.119 0.972l-0.21 1.292 2.303 0.395c2.966 0.509 6.362 1.687 10.37 3.599 1.998 0.953 3.665 1.537 4.439 1.554 1.057 0.023 1.182-0.042 0.848-0.444zM4.315 23.53c0.191-1.194 1.657-2.917 2.812-3.306 0.36-0.121 0.358-0.233-0.008-0.677-0.242-0.293-0.555-0.532-0.696-0.532-0.316 0-4.145 5.043-4.145 5.46 0 0.165 0.414 0.3 0.919 0.3 0.821 0 0.94-0.134 1.118-1.245zM24.219 17.682c0.805-0.742 1.374-1.523 1.283-1.76-0.091-0.236 0.046-0.427 0.306-0.427 0.67 0 0.585-0.633-0.090-0.672-0.358-0.020-0.272-0.115 0.24-0.262 0.476-0.137 0.782-0.448 0.756-0.768-0.024-0.296 0.1-0.538 0.277-0.538s0.247-0.288 0.154-0.64c-0.092-0.352-0.037-0.72 0.123-0.819s0.286-1.359 0.28-2.8c-0.008-2.095-0.081-2.493-0.365-1.981-0.824 1.485-1.166 1.668-2.687 1.437-1.408-0.214-1.469-0.188-1.861 0.771l-0.406 0.992-0.233-0.923c-0.228-0.904-0.267-0.919-1.949-0.746-1.804 0.186-2.258-0.052-2.917-1.531-0.208-0.468-0.312-0.037-0.385 1.6-0.088 1.977-0.019 2.306 0.592 2.8 0.546 0.442 0.583 0.56 0.176 0.56-0.611 0-0.664 0.363-0.131 0.896 0.211 0.211 0.278 0.384 0.149 0.384-0.596 0 0.533 1.284 1.159 1.317 0.542 0.028 0.577 0.072 0.149 0.183-0.679 0.177-0.747 0.739-0.090 0.739 0.26 0 0.397 0.19 0.306 0.427-0.194 0.504 2.505 3.093 3.224 3.093 0.272 0 1.145-0.6 1.941-1.333zM21.158 15.855c0-0.198 0.162-0.359 0.359-0.359 0.242 0 0.223-0.164-0.056-0.5-0.363-0.437-0.312-0.474 0.406-0.294 0.508 0.127 0.914 0.056 1.065-0.189 0.184-0.298-0.080-0.351-1.085-0.216-1.477 0.198-1.844-0.079-1.344-1.012 0.28-0.524 0.218-0.647-0.385-0.763-0.693-0.133-0.694-0.14-0.037-0.182 0.743-0.047 1.181-1.28 0.719-2.023-0.211-0.34-0.386-0.344-0.907-0.021-0.868 0.538-1.139 0.505-0.654-0.080 0.877-1.057 2.269-0.214 2.136 1.293-0.092 1.041 1.87 1.047 2.832 0.009 0.419-0.452 1.021-0.82 1.337-0.817 0.449 0.004 0.405 0.092-0.199 0.4-0.984 0.502-1.189 1.098-0.443 1.291 0.435 0.113 0.391 0.159-0.18 0.187-0.621 0.030-0.731 0.176-0.61 0.81 0.109 0.572-0.047 0.877-0.603 1.174-0.895 0.479-0.944 0.789-0.19 1.228 0.748 0.436 0.212 0.439-0.602 0.003-0.465-0.249-0.764-0.238-1.099 0.039-0.327 0.271-0.46 0.277-0.46 0.022zM23.718 13.237c0-0.576-0.169-0.646-1.357-0.56-0.99 0.072-1.386 0.25-1.463 0.658-0.089 0.467 0.136 0.56 1.357 0.56 1.264 0 1.463-0.090 1.463-0.658zM10.758 11.423c-0.352-0.087-0.755-0.358-0.896-0.603-0.153-0.266-0.786-0.444-1.573-0.444-1.872 0-1.403-0.198 1.029-0.435 1.785-0.174 2.239-0.106 3.2 0.482 1.023 0.626 1.065 0.707 0.48 0.937-0.716 0.281-1.295 0.298-2.24 0.064z"></path>
<path d="M25.318 24.773c-2.863-1.516-7.98-3.429-10.627-3.972-3.115-0.639-3.133-0.638-3.133 0.155 0 1.189 0.603 1.899 1.611 1.899 0.522 0 0.949 0.144 0.949 0.32s-0.55 0.32-1.222 0.32c-0.939 0-1.551-0.273-2.64-1.179-0.78-0.648-1.636-1.36-1.902-1.581-1.123-0.933-3.835 1.555-3.835 3.518 0 0.785-0.098 0.842-1.44 0.842-0.792 0-1.44-0.121-1.44-0.27 0-0.259 2.456-3.768 3.887-5.552 0.665-0.83 0.67-0.893 0.137-1.708-0.305-0.465-0.471-0.93-0.369-1.032s0.19-0.054 0.196 0.108c0.006 0.161 0.208 0.555 0.451 0.874 0.414 0.546 0.561 0.492 2.47-0.915 2.086-1.537 4.935-3.098 6.349-3.478 0.771-0.207 0.775-0.2 0.122 0.198-0.508 0.31-0.614 0.574-0.422 1.053 0.515 1.291 0.307 1.478-0.748 0.673-1.129-0.861-2.012-0.715-1.634 0.27 0.193 0.504 0.135 0.527-0.49 0.192-0.857-0.459-1.628 0.026-1.628 1.023 0 0.54-0.077 0.576-0.493 0.231-0.415-0.344-0.668-0.24-1.598 0.662l-1.105 1.071 0.694 0.739c0.539 0.574 1.039 0.739 2.238 0.739 1.47 0 1.544-0.042 1.549-0.88 0.003-0.484 0.137-1.089 0.298-1.343 0.192-0.304 0.234-0.021 0.121 0.823l-0.173 1.287 2.802 0.551c3.071 0.603 7.055 2.044 10.627 3.843 1.601 0.806 2.721 1.157 3.671 1.149l1.368-0.011-0.8-0.682c-0.559-0.477-0.623-0.618-0.214-0.469 0.322 0.117 0.641 0.213 0.709 0.213s0.277 0.288 0.465 0.64c0.323 0.603 0.245 0.639-1.349 0.625-1.231-0.011-2.17-0.269-3.451-0.947zM4.199 24.056c0.002-1.038 1.073-2.642 2.214-3.316 0.541-0.32 0.984-0.677 0.984-0.793 0-0.403-0.933-0.985-1.258-0.784-0.363 0.224-2.78 3.366-3.642 4.734l-0.555 0.88h1.127c0.955 0 1.128-0.11 1.129-0.72zM26.278 23.016c-0.597-0.616-1.329-1.12-1.627-1.12-0.319 0-0.523-0.23-0.497-0.56 0.030-0.379-0.177-0.553-0.643-0.538-0.443 0.014-0.63-0.128-0.526-0.4 0.256-0.667 0.487-0.532 2.344 1.368 0.962 0.984 2.037 1.911 2.389 2.060 0.452 0.191 0.494 0.276 0.143 0.29-0.273 0.011-0.986-0.484-1.583-1.1zM20.903 18.706c-0.721-0.522-1.634-1.386-2.028-1.92-0.508-0.688-1.003-0.982-1.697-1.008l-0.98-0.038 0.96-0.232c0.937-0.226 0.887-0.306-0.48-0.762-0.354-0.118-0.324-0.167 0.114-0.185 0.406-0.017 0.533-0.186 0.4-0.531-0.107-0.278-0.194-0.638-0.194-0.8s-0.324-0.311-0.72-0.331c-0.443-0.023-0.527-0.089-0.218-0.172 0.42-0.113 0.479-0.574 0.361-2.825-0.078-1.479-0.047-3.064 0.067-3.52l0.208-0.831 0.988 0.573c0.544 0.315 1.138 0.897 1.322 1.293s0.635 0.737 1.003 0.758c0.469 0.027 0.381 0.105-0.291 0.263-1.265 0.297-1.92-0.061-2.44-1.334-0.415-1.018-0.43-0.977-0.528 1.468-0.085 2.118-0.010 2.583 0.473 2.95 0.344 0.261 0.414 0.439 0.174 0.446-0.483 0.012-0.544 0.97-0.061 0.97 0.186 0 0.258 0.131 0.159 0.291-0.329 0.532 0.201 1.309 0.896 1.314 0.562 0.004 0.599 0.062 0.206 0.32-0.427 0.28-0.427 0.35 0 0.63 0.264 0.173 0.369 0.317 0.233 0.32-0.535 0.011 0.9 1.693 2.218 2.6l1.393 0.958 1.768-1.672c1.272-1.203 1.653-1.745 1.358-1.932-0.3-0.19-0.26-0.261 0.151-0.265 0.308-0.003 0.56-0.138 0.56-0.301s-0.252-0.362-0.56-0.443c-0.417-0.109-0.374-0.156 0.168-0.183 0.769-0.039 1.519-1.38 1.215-2.172-0.090-0.234-0.024-0.425 0.147-0.425s0.327-0.396 0.347-0.88c0.026-0.61 0.084-0.697 0.191-0.282 0.085 0.329-0.037 1.265-0.269 2.080s-0.39 1.59-0.351 1.722c0.040 0.132-0.072 0.24-0.248 0.24s-0.32 0.203-0.32 0.452c0 0.484-3.652 4.348-4.11 4.348-0.151 0-0.864-0.427-1.585-0.949zM4.712 15.629c-0.629-1.64 0.16-4.275 1.489-4.969 0.608-0.318 0.586-0.251-0.15 0.443-1.030 0.971-1.353 2.056-1.123 3.771 0.179 1.333 0.105 1.591-0.216 0.755zM21.659 15.396c0.092-0.239 0.376-0.434 0.633-0.434 0.627 0 0.587 0.126-0.167 0.529-0.496 0.266-0.597 0.245-0.466-0.095zM20.697 14.365c-0.503-0.381-0.525-0.47-0.114-0.47 0.279 0 0.59 0.216 0.691 0.48 0.223 0.582 0.205 0.581-0.577-0.010zM22.438 14.196l-1.12-0.216 1.173-0.042c0.645-0.023 1.246-0.222 1.335-0.442 0.099-0.246 0.171-0.192 0.187 0.141 0.034 0.719-0.241 0.816-1.575 0.559zM10.711 11.338c-0.378-0.152-0.783-0.431-0.899-0.62s-0.803-0.342-1.526-0.342c-1.869 0-1.399-0.198 1.032-0.435 1.794-0.175 2.234-0.107 3.2 0.492l1.12 0.695-0.8 0.232c-1.062 0.308-1.316 0.305-2.127-0.022zM20.358 10.056c-0.522-0.224-0.54-0.279-0.099-0.297 0.298-0.012 0.63 0.121 0.739 0.297 0.227 0.368 0.216 0.368-0.64 0zM27.94 9.256c0.007-0.528 0.078-0.705 0.159-0.394s0.076 0.743-0.012 0.96c-0.088 0.217-0.154-0.038-0.148-0.566zM22.118 9.434c0-0.186-0.288-0.627-0.64-0.979l-0.64-0.64 1.68 0.020c1.331 0.016 1.531 0.080 0.96 0.31-0.396 0.159-0.72 0.502-0.72 0.761s-0.144 0.56-0.32 0.669c-0.176 0.109-0.32 0.045-0.32-0.141zM25.74 7.031c0.848-0.806 1.676-1.383 1.84-1.282s0.275 0.716 0.247 1.365l-0.051 1.181-0.277-2.24-0.531 1.12c-0.437 0.921-0.729 1.138-1.65 1.221l-1.119 0.101z"></path>
</svg>
