<!-- Generated by IcoMoon.io -->
<svg version="1.1" xmlns="http://www.w3.org/2000/svg" width="32" height="32" viewBox="0 0 32 32">
<title>ansible</title>
<path d="M12.428 0.373c-5.753 1.228-10.607 6.009-11.999 11.816-0.458 1.905-0.495 5.056-0.073 7.072 1.173 5.716 5.716 10.424 11.615 12.055 1.704 0.476 6.009 0.476 7.786 0 7.474-1.979 12.421-8.775 11.945-16.396-0.146-2.217-0.531-3.719-1.429-5.661-2.125-4.58-6.247-7.896-11.157-8.922-1.649-0.348-4.983-0.33-6.687 0.037zM16.989 6.694c0.256 0.421 6.375 15.077 6.614 15.847 0.146 0.495-0.605 1.337-1.191 1.337-0.201 0-2.162-1.429-4.543-3.352-2.29-1.85-4.25-3.407-4.378-3.481-0.128-0.091-0.641 0.989-1.557 3.261l-1.337 3.389h-2.473l0.293-0.678c0.146-0.385 1.722-4.177 3.499-8.445s3.334-7.878 3.481-8.024c0.421-0.403 1.283-0.33 1.594 0.146z"></path>
<path d="M15.121 12.336c-0.531 1.319-0.953 2.455-0.953 2.546 0 0.183 5.679 4.672 5.789 4.562 0.073-0.091-3.536-9.123-3.756-9.361-0.073-0.073-0.568 0.934-1.081 2.253z"></path>
</svg>
