<!-- Generated by IcoMoon.io -->
<svg version="1.1" xmlns="http://www.w3.org/2000/svg" width="32" height="32" viewBox="0 0 32 32">
<title>apache</title>
<path d="M9.375 17.391c-0.389 0.748-0.732 1.506-1.018 2.275-0.010 0.027-0.021 0.053-0.031 0.081-0.209-0.743-1.080-1.662-1.079-1.656 0.434 1.309 0.688 2.557 0.464 3.644-0.427-0.035-0.943-0.315-1.512-0.735 0.486 0.804 0.936 1.118 1.116 1.22-0.621-0.14-1.379 0.094-2.16 0.39 1.048-0.109 1.848-0.039 2.354 0.242-1.569 2.182-3.214 4.615-4.907 7.215 0.287-0.001 0.496-0.132 0.655-0.347 0.304-0.471 2.311-3.561 5.206-7.547 0.082-0.113 0.165-0.227 0.249-0.342 0.023-0.032 0.047-0.064 0.070-0.095 0.305-0.418 0.619-0.843 0.941-1.276 0.074-0.099 0.147-0.197 0.221-0.296 0.002-0.002 0.003-0.004 0.004-0.006l-0.532-2.849c-0.014 0.026-0.028 0.056-0.042 0.083l0-0z"></path>
<path d="M26.674 0.782c-0.735 0.218-1.393 0.628-2.045 1.019-0.381 0.236-0.755 0.482-1.124 0.735 0.144 0.698 0.288 1.396 0.432 2.094 0.924-0.741 1.886-1.439 2.908-2.038-0.997 0.61-1.903 1.356-2.793 2.111 1.276 0.291 2.573 0.475 3.872 0.63 0.436-0.889 0.742-1.901 0.569-2.897-0.142-0.579-0.418-1.171-0.923-1.517-0.262-0.174-0.593-0.218-0.895-0.136l-0 0z"></path>
<path d="M19.004 15.070c-0.129-0.013-0.262-0.029-0.398-0.044-0.001-0-0.002 0-0.003 0 0.068 0.009 0.135 0.019 0.202 0.026s0.132 0.014 0.198 0.018v0z"></path>
<path d="M19.004 15.070c-0.129-0.013-0.262-0.029-0.398-0.044-0.001-0-0.002 0-0.003 0 0.068 0.009 0.135 0.019 0.202 0.026s0.132 0.014 0.198 0.018v0z"></path>
<path d="M19.788 13.578c0 0-0.001-0-0.001 0.001-0.001-0-0.001 0.001-0.002 0 0.021 0.004 0.042 0.005 0.063 0.009 0.085 0.012 0.17 0.021 0.253 0.027-0.102-0.013-0.207-0.024-0.313-0.037v0z"></path>
<path d="M19.788 13.578c0 0-0.001-0-0.001 0.001-0.001-0-0.001 0.001-0.002 0 0.021 0.004 0.042 0.005 0.063 0.009 0.085 0.012 0.17 0.021 0.253 0.027-0.102-0.013-0.207-0.024-0.313-0.037v0z"></path>
<path d="M19.737 8.49c0.451-0.46 0.903-0.908 1.353-1.34 0.468-0.449 0.934-0.88 1.399-1.292 0.027-0.024 0.055-0.049 0.082-0.074 0.458-0.405 0.914-0.79 1.366-1.153l-0.432-2.094c-0.098 0.067-0.197 0.136-0.297 0.206-0.378 0.264-0.774 0.552-1.184 0.859-0.462 0.347-0.942 0.721-1.435 1.117-0.455 0.366-0.92 0.753-1.391 1.156-0.401 0.343-0.806 0.699-1.213 1.066-0.015 0.014-0.030 0.027-0.045 0.040 0.105 0.967 0.353 1.89 0.53 2.834 0.422-0.451 0.844-0.893 1.267-1.325l0 0z"></path>
<path d="M11.114 18.616c0.383-0.501 0.775-1.006 1.174-1.516 0.382-0.487 0.772-0.976 1.167-1.467s0.796-0.98 1.202-1.469c0.413-0.497 0.831-0.993 1.252-1.483 0.417-0.485 0.838-0.966 1.261-1.441 0.153-0.171 0.306-0.341 0.459-0.511 0.265-0.293 0.531-0.582 0.797-0.868 0.014-0.016 0.029-0.030 0.044-0.046l-0.53-2.834c-0.030 0.027-0.060 0.055-0.090 0.082-0.43 0.391-0.862 0.793-1.292 1.207-0.434 0.418-0.866 0.847-1.293 1.285-0.361 0.37-0.717 0.744-1.068 1.125-0.071 0.078-0.141 0.154-0.211 0.231-0.436 0.481-0.84 0.951-1.215 1.407-0.424 0.517-0.811 1.016-1.161 1.494-0.231 0.314-0.446 0.62-0.648 0.915-0.169 0.253-0.334 0.508-0.493 0.762-0.378 0.6-0.729 1.206-1.051 1.818 0.165 0.942 0.327 1.903 0.532 2.849 0.296-0.395 0.598-0.797 0.905-1.201 0.085-0.112 0.172-0.226 0.259-0.339l0-0z"></path>
<path d="M18.603 10.081c-0.057 0.063-0.114 0.126-0.173 0.19-0.173 0.192-0.35 0.387-0.529 0.588-0.194 0.217-0.39 0.44-0.589 0.668-0.101 0.115-0.201 0.23-0.304 0.348-0.306 0.352-0.617 0.717-0.936 1.094-0.392 0.464-0.794 0.947-1.206 1.451-0.393 0.48-0.795 0.978-1.205 1.495-0.39 0.49-0.788 0.998-1.194 1.523-0.362 0.468-0.729 0.95-1.104 1.446-0.018 0.024-0.036 0.048-0.054 0.072-0.372 0.493-0.749 1.001-1.133 1.522-0.009 0.012-0.018 0.024-0.026 0.036l1.043 0.184c-0.019-0.010-0.039-0.018-0.057-0.028 1.253 0.202 3.123-0.232 4.487-1.044 0.629-0.374 1.24-0.854 1.849-1.446 0.453-0.441 0.905-0.944 1.361-1.514 0.399-0.498 0.802-1.046 1.213-1.648-0.32 0.065-0.67 0.080-1.042 0.052-0.065-0.005-0.132-0.011-0.198-0.018s-0.134-0.016-0.202-0.026c0.001 0 0.002-0 0.003-0 1.254-0.105 2.209-0.735 3.025-1.609-0.356 0.115-0.915 0.24-1.53 0.198-0.084-0.005-0.168-0.015-0.253-0.027-0.022-0.003-0.042-0.005-0.063-0.009 0.001 0 0.001-0.001 0.002-0s0.001 0 0.001-0.001c0.439-0.050 0.823-0.136 1.172-0.269 0.075-0.028 0.148-0.059 0.22-0.092 0.11-0.050 0.216-0.105 0.319-0.166 0.066-0.038 0.132-0.079 0.196-0.122 0.151-0.101 0.298-0.214 0.442-0.342 0.044-0.039 0.088-0.079 0.132-0.12 0.059-0.062 0.115-0.122 0.17-0.182 0.25-0.271 0.458-0.516 0.631-0.735 0.086-0.11 0.163-0.211 0.232-0.307 0.027-0.038 0.054-0.075 0.079-0.111 0.075-0.108 0.138-0.204 0.191-0.29 0.079-0.128 0.134-0.232 0.17-0.308-0.047 0.019-0.099 0.037-0.157 0.052-0.4 0.104-1.037 0.118-1.534 0.068v0c-0.008-0-0.015-0.002-0.023-0.002-0.049-0.006-0.099-0.013-0.149-0.018 0.010-0.001 0.017-0.005 0.027-0.005l-3.276-0.577c-0.009 0.009-0.018 0.019-0.027 0.029l0-0z"></path>
<path d="M24.052 4.704c-0.409 0.351-0.861 0.753-1.356 1.214-0.026 0.024-0.052 0.049-0.078 0.073-0.427 0.399-0.886 0.84-1.376 1.327-0.423 0.42-0.868 0.874-1.336 1.365-0.408 0.427-0.834 0.884-1.276 1.368l3.249 0.583c1.049-0.156 1.604-0.424 2.168-0.864 0.151-0.122 0.306-0.252 0.461-0.387 0.475-0.414 0.958-0.881 1.407-1.355 0.433-0.458 0.832-0.921 1.16-1.347 0.208-0.272 0.386-0.528 0.525-0.759 0.122-0.203 0.229-0.399 0.322-0.589-1.298-0.15-2.872-0.39-3.871-0.629l0-0z"></path>
<path d="M18.805 15.052c-0.067-0.007-0.134-0.016-0.202-0.026 0.068 0.010 0.135 0.019 0.202 0.026z"></path>
<path d="M18.805 15.052c-0.067-0.007-0.134-0.016-0.202-0.026 0.068 0.010 0.135 0.019 0.202 0.026z"></path>
<path d="M18.805 15.052c-0.067-0.007-0.134-0.016-0.202-0.026 0.068 0.010 0.135 0.019 0.202 0.026z"></path>
<path d="M19.784 13.579c0.021 0.004 0.042 0.005 0.063 0.009-0.021-0.003-0.041-0.006-0.063-0.009z"></path>
<path d="M19.784 13.579c0.021 0.004 0.042 0.005 0.063 0.009-0.021-0.003-0.041-0.006-0.063-0.009z"></path>
<path d="M19.784 13.579c0.021 0.004 0.042 0.005 0.063 0.009-0.021-0.003-0.041-0.006-0.063-0.009z"></path>
<path d="M19.786 13.579c0 0 0.001 0 0.001-0.001s-0.001-0-0.001 0.001z"></path>
<path d="M19.786 13.579c0 0 0.001 0 0.001-0.001s-0.001-0-0.001 0.001z"></path>
<path d="M19.786 13.579c0 0 0.001 0 0.001-0.001s-0.001-0-0.001 0.001z"></path>
<path d="M9.982 20.743c-0.298 0.407-0.6 0.821-0.905 1.246-0.004 0.007-0.009 0.012-0.013 0.019-0.043 0.060-0.086 0.12-0.129 0.18-0.205 0.286-0.387 0.545-0.801 1.133 0.319 0.275 0.486 0.804 0.62 1.387 0.122-0.528 0.049-1.079-0.249-1.576 1.792 0.612 3.49 0.609 4.687-0.482 0.107-0.097 0.209-0.202 0.308-0.318-0.504 0.359-1.017 0.424-1.861 0.125-0.002 0-0.004 0-0.006 0.001 0.002-0 0.004-0 0.006-0.001 1.428-0.197 2.22-0.554 3.043-1.291 0.195-0.174 0.392-0.37 0.599-0.59-1.436 0.812-2.81 0.761-4.087 0.123l-0.057-0.027-0.986-0.157c-0.057 0.076-0.112 0.152-0.169 0.229l0 0z"></path>
</svg>
