<!-- Generated by IcoMoon.io -->
<svg version="1.1" xmlns="http://www.w3.org/2000/svg" width="32" height="32" viewBox="0 0 32 32">
<title>box</title>
<path d="M17.193 12.384c-2.379 0-4.445 1.338-5.489 3.301-1.044-1.964-3.11-3.301-5.489-3.301-1.398 0-2.689 0.462-3.727 1.242v-5.234h-0c-0.015-0.675-0.565-1.217-1.243-1.217s-1.228 0.543-1.243 1.217h-0.001v10.309h0.003c0.055 3.384 2.814 6.111 6.212 6.111 2.379 0 4.445-1.338 5.489-3.302 1.044 1.964 3.11 3.302 5.489 3.302 3.432 0 6.214-2.782 6.214-6.214s-2.782-6.214-6.214-6.214zM6.215 22.325c-2.059 0-3.727-1.669-3.727-3.727s1.669-3.727 3.727-3.727 3.727 1.668 3.727 3.727c0 2.058-1.668 3.727-3.727 3.727zM17.193 22.325c-2.059 0-3.727-1.669-3.727-3.727s1.668-3.727 3.727-3.727c2.059 0 3.727 1.668 3.727 3.727s-1.669 3.727-3.727 3.727z"></path>
<path d="M31.766 22.856l-3.182-4.254 3.182-4.254c0.394-0.548 0.28-1.313-0.263-1.72s-1.308-0.304-1.724 0.227h-0l-2.747 3.671-2.747-3.671c-0.417-0.531-1.182-0.635-1.725-0.227s-0.656 1.172-0.262 1.72l-0.001 0 3.182 4.254-3.182 4.254c-0.394 0.548-0.28 1.312 0.262 1.72s1.308 0.304 1.725-0.227l0 0 2.747-3.672 2.747 3.672c0.417 0.531 1.182 0.634 1.724 0.227s0.656-1.172 0.263-1.72l0.001-0.001z"></path>
</svg>
