<!-- Generated by IcoMoon.io -->
<svg version="1.1" xmlns="http://www.w3.org/2000/svg" width="32" height="32" viewBox="0 0 32 32">
<title>centos</title>
<path d="M12.78 14.956h-7.789v-2.937l2.426-2.426 5.363 5.363zM4.991 11.032v-5.837h5.837l-2.426 2.426 6.349 6.349v0.986h-0.986l-6.349-6.349-2.426 2.426zM14.752 12.984l-5.363-5.363 2.426-2.426h2.937v7.789z"></path>
<path d="M26.604 11.032l-2.426-2.426-6.349 6.349h-0.986v-0.986l6.349-6.349-2.426-2.426h5.837v5.837zM26.604 12.018v2.937h-7.789l5.363-5.363 2.426 2.426zM22.207 7.621l-5.363 5.363v-7.789h2.937l2.426 2.426z"></path>
<path d="M19.781 26.808h-2.937v-7.789l5.363 5.363-2.426 2.426zM24.178 23.396l2.426-2.426v5.837h-5.837l2.426-2.426-6.349-6.349v-0.986h0.986l6.349 6.349zM26.604 19.985l-2.426 2.426-5.363-5.363h7.789v2.937z"></path>
<path d="M13.766 17.047h0.986v0.986l-6.349 6.349 2.426 2.426h-5.837v-5.837l2.426 2.426 6.349-6.349zM14.752 26.808h-2.937l-2.426-2.426 5.363-5.363v7.789zM7.417 22.41l-2.426-2.426v-2.937h7.789l-5.363 5.363z"></path>
<path d="M5.189 20.344c-0.036 0.283-0.399 0.445-0.632 0.23l-4.421-4.491c-0.135-0.15-0.134-0.376 0.006-0.525l4.554-4.415c0.289-0.255 0.877 0.145 0.515 0.531l-4.286 4.155 4.183 4.252c0.050 0.068 0.087 0.104 0.082 0.262z"></path>
<path d="M14.809 16.112c-0.009 0.102-0.058 0.196-0.136 0.263-0.494 0.38-1.006 0.737-1.51 1.105-0.302 0.209-0.875-0.26-0.437-0.597l1.104-0.808c0 0-1.092-0.866-1.092-0.866-0.274-0.252 0.061-0.849 0.459-0.579 0.501 0.377 0.982 0.778 1.474 1.167 0.094 0.078 0.146 0.152 0.139 0.315z"></path>
<path d="M11.383 5.514c-0.283-0.035-0.447-0.397-0.233-0.631l4.471-4.441c0.15-0.135 0.376-0.136 0.525 0.004l4.435 4.533c0.256 0.288-0.141 0.878-0.529 0.517l-4.175-4.267-4.232 4.202c-0.068 0.051-0.104 0.087-0.262 0.083z"></path>
<path d="M15.659 15.114c-0.103-0.009-0.196-0.057-0.263-0.135-0.383-0.493-0.742-1.003-1.112-1.505-0.211-0.301 0.256-0.876 0.595-0.44l0.812 1.1c0 0 0.861-1.096 0.861-1.096 0.251-0.275 0.849 0.058 0.581 0.456-0.375 0.502-0.773 0.986-1.16 1.479-0.078 0.095-0.152 0.147-0.314 0.141z"></path>
<path d="M26.22 11.447c0.032-0.283 0.393-0.451 0.629-0.24l4.487 4.425c0.137 0.148 0.139 0.374 0.002 0.525l-4.488 4.482c-0.285 0.259-0.879-0.132-0.523-0.524l4.224-4.218-4.245-4.189c-0.051-0.067-0.088-0.103-0.086-0.261z"></path>
<path d="M16.664 15.822c0.008-0.103 0.055-0.197 0.133-0.265 0.489-0.388 0.995-0.752 1.493-1.127 0.299-0.214 0.879 0.247 0.446 0.591l-1.092 0.824c0 0 1.105 0.85 1.105 0.85 0.278 0.248-0.049 0.85-0.45 0.586-0.506-0.369-0.994-0.763-1.491-1.145-0.095-0.077-0.149-0.15-0.144-0.313z"></path>
<path d="M20.243 26.424c0.283 0.032 0.452 0.392 0.24 0.629l-4.422 4.49c-0.148 0.137-0.374 0.14-0.525 0.002l-4.485-4.485c-0.26-0.285 0.131-0.879 0.523-0.523l4.221 4.221 4.186-4.248c0.067-0.051 0.103-0.088 0.261-0.086z"></path>
<path d="M15.863 16.871c0.103 0.008 0.197 0.055 0.265 0.132 0.388 0.488 0.752 0.995 1.129 1.493 0.214 0.298-0.246 0.879-0.59 0.446l-0.824-1.091c0 0-0.849 1.106-0.849 1.106-0.248 0.278-0.85-0.048-0.586-0.45 0.369-0.506 0.763-0.994 1.144-1.491 0.077-0.096 0.15-0.149 0.313-0.144z"></path>
</svg>
