<!-- Generated by IcoMoon.io -->
<svg version="1.1" xmlns="http://www.w3.org/2000/svg" width="1024" height="1024" viewBox="0 0 1024 1024">
<title></title>
<g id="icomoon-ignore">
</g>
<path d="M424.536 958.516c-284.635-69.151-435.677-387.401-307.218-647.32 48.766-98.672 116.627-166.057 217.369-215.847 77.147-38.128 81.597-39.029 192.673-39.029s115.526 0.902 192.673 39.029c100.743 49.79 168.603 117.175 217.369 215.847 130.954 264.968-28.875 588.759-320.946 650.191-67.514 14.2-125.207 13.337-191.92-2.87zM691.733 777.743c54.572-27.038 64.561-45.030 42.073-75.783-13.994-19.138-15.505-19.034-69.416 4.781-141.734 62.61-296.622 2.273-313.297-122.046-6.903-51.464-4.827-51.902 246.789-52.075l203.642-0.14-5.311-66.166c-10.169-126.69-93.888-227.706-208.42-251.483-134.26-27.872-256.63 29.032-319.751 148.689-23.368 44.298-27.035 63.712-27.205 144.026-0.176 83.273 2.989 99.080 30.754 153.6 22.664 44.504 44.225 69.687 80.535 94.066 67.84 45.549 99.653 53.503 201.368 50.35 68.591-2.126 98.555-8.156 138.24-27.818zM344.328 455.344c-7.852-20.461 18.342-83.997 47.841-116.044 73.29-79.622 227.673-66.387 283.735 24.324 12.434 20.119 23.267 51.366 24.072 69.438l1.464 32.858-175.454 2.797c-152.096 2.424-176.28 0.644-181.658-13.372z"></path>
<path d="M409.6 946.144c-219.981-58.856-372.431-301.406-324.062-515.588 22.597-100.062 53.189-158.614 120.43-230.494 69.031-73.795 137.639-111.476 245.641-134.913 72.321-15.694 83.053-15.684 153.553 0.144 107.104 24.046 175.316 61.785 243.59 134.77 101.111 108.088 146.093 242.681 124.296 371.91-46.025 272.869-303.36 443.759-563.448 374.172zM670.72 797.871c47.899-21.069 87.040-50.422 87.040-65.274 0-7.441-8.707-24.281-19.349-37.423l-19.349-23.895-54.131 25.32c-40.588 18.985-71.172 25.314-122.239 25.294-86.1-0.034-139.738-31.49-173.85-101.957-37.014-76.461-34.837-77.217 222.614-77.217h220.308l-5.188-64.627c-13.582-169.207-123.724-276.195-284.336-276.195-121.080 0-218.029 63.133-269.854 175.729-16.762 36.418-21.809 67.406-21.886 134.373-0.086 74.821 3.945 95.276 28.711 145.711 33.118 67.443 82.38 112.226 155.509 141.37 41.025 16.35 68.498 19.6 138.24 16.353 47.872-2.228 100.864-10.132 117.76-17.564zM357.545 454.65c-11.517-13.878-9.748-23.654 11.546-63.786 34.828-65.639 80.144-93.904 150.555-93.904 74.055 0 120.291 23.35 151.422 76.472 29.048 49.566 32.307 82.469 9.053 91.392-8.909 3.419-82.072 6.216-162.586 6.216-121.718 0-148.681-2.762-159.991-16.39z"></path>
<path d="M383.139 932.293c-201.064-71.567-328.849-283.278-293.951-487.010 37.819-220.787 223.795-383.6 438.172-383.6s400.352 162.813 438.172 383.6c28.186 164.55-56.724 351.134-201.565 442.925-102.245 64.796-268.553 84.049-380.828 44.085zM677.866 798.892c54.313-20.637 90.38-47.058 89.765-65.759-0.203-6.167-11.257-24.529-24.566-40.804l-24.198-29.591-54.245 27.031c-127.512 63.542-291.583 6.825-299.16-103.416l-1.943-28.273 450.56-10.24-1.885-65.485c-3.739-129.865-89.353-245.718-205.672-278.316-91.315-25.59-209.147 1.631-285.627 65.984-71.543 60.199-111.295 187.521-93.659 299.98 11.005 70.179 30.345 109.697 78.532 160.464 89.977 94.796 233.322 121.155 372.098 68.424zM358.4 436.714c0-29.136 36.152-84.439 73.070-111.779 90.019-66.663 254.429 2.895 254.572 107.704l0.038 28.16h-327.68z"></path>
<path d="M445.44 946.206c-196.891-48.44-326.586-192.849-358.258-398.903-8.375-54.485 16.686-172.272 51.104-240.194 81.571-160.973 279.937-264.909 448.759-235.132 193.013 34.044 331.494 168.239 371.472 359.972 42.126 202.036-79.012 413.82-282.677 494.203-45.024 17.77-188.811 30.285-230.4 20.053zM686.080 801.744c90.508-41.636 101.873-69.154 51.078-123.676l-21.394-22.964-45.079 26.418c-63.268 37.078-141.611 43.789-201.568 17.267-54.104-23.933-103.588-82.644-98.703-117.106l3.346-23.603 445.44-5.519v-55.736c0-116.274-72.347-235.050-171.987-282.362-34.918-16.58-67.896-23.051-119.853-23.519-125.864-1.133-226.866 62.772-280.75 177.634-36.386 77.563-37.652 205.582-2.785 281.662 37.512 81.853 104.777 140.118 196.495 170.207 47.453 15.568 195.805 4.278 245.76-18.703zM369.768 451.474c-21.561-13.654 22.27-97.118 64.807-123.408 48.205-29.792 134.551-28.603 180.87 2.491 40.39 27.113 77.047 88.521 67.576 113.202-5.681 14.804-25.733 17.020-152.78 16.884-80.433-0.086-152.646-4.212-160.473-9.169z"></path>
<path d="M377.775 918.433c-83.47-35.008-126.169-63.849-172.571-116.565-229.277-260.472-83.873-663.921 260.54-722.917 129.915-22.253 276.867 29.289 372.847 130.774 203.856 215.548 144.44 558.146-119.435 688.672-72.441 35.833-85.25 38.759-180.957 41.341-88.933 2.399-110.84-0.51-160.423-21.305zM667.263 813.493c61.917-21.846 110.977-54.946 110.977-74.875 0-9.609-13.031-33.081-28.958-52.159l-28.958-34.687-54.972 27.394c-71.017 35.389-157.832 37.696-214.75 5.707-35.3-19.84-81.961-82.616-81.961-110.267 0-8.025 64.879-11.406 218.906-11.406 183.123 0 221.012-2.538 231.791-15.525 18.804-22.658 4.837-119.311-27.728-191.875-105.576-235.255-442.225-227.639-549.967 12.443-52.869 117.809-33.087 268.885 47.714 364.388 32.53 38.449 115.22 84.471 173.722 96.686 54.028 11.281 148.003 3.998 204.184-15.824zM368.64 431.594c0-55.754 84.337-124.347 152.927-124.378 74.349-0.034 154.273 63.11 154.273 121.884 0 20.833-4.488 21.46-153.6 21.46-142.685 0-153.6-1.348-153.6-18.966z"></path>
<path d="M424.96 927.887c-115.393-28.061-231.43-122.003-281.025-227.512-38.399-81.69-54.258-179.565-41.023-253.181 33.497-186.33 165.127-322.785 348.191-360.955 228.508-47.645 456.842 116.959 500.706 360.955 21.117 117.464-23.464 257.683-113.113 355.773-103.747 113.516-262.958 161.586-413.736 124.92zM692.752 809.899c29.014-12.691 62.967-33.947 75.452-47.237l22.7-24.163-21.816-35.299c-36.616-59.247-43.705-61.553-99.769-32.466-105.552 54.762-223.307 38.291-269.648-37.718-42.892-70.352-46.394-69.1 201.929-72.177l222.72-2.76 3.137-54.957c6.805-119.235-61.302-239.198-166.281-292.887-121.23-61.999-278.314-33.158-369.573 67.855-52.976 58.639-79.027 123.391-84.662 210.439-10.234 158.081 75.5 290.813 218.011 337.525 62.735 20.563 203.23 12.087 267.801-16.157zM376.303 444.569c-11.136-11.136 13.633-62.64 44.216-91.94 40.524-38.824 140.244-47.49 189.581-16.474 32.962 20.721 71.342 86.818 60.55 104.278-6.633 10.733-283.855 14.629-294.347 4.136z"></path>
<path d="M398.428 912.421c-150.906-48.282-257.046-174.182-286.691-340.063-14.987-83.86-3.212-156.754 40.314-249.567 76.13-162.336 267.536-263.325 439.151-231.704 182.843 33.69 314.753 165.725 352.287 352.62 22.607 112.566-20.943 258.809-103.858 348.761-113.528 123.163-285.248 169.85-441.203 119.953zM675.137 824.85c57.498-20.644 113.343-62.876 113.343-85.714 0-26.141-49.431-94.016-68.468-94.016-9.092 0-41.205 12.072-71.363 26.827-102.171 49.988-228.453 16.955-257.879-67.456l-10.824-31.051h218.373c183.146 0 220.463-2.517 231.325-15.606 21.842-26.318 5.056-143.26-31.108-216.72-35.555-72.222-73.485-108.254-151.901-144.3-47.683-21.919-65.664-24.623-138.367-20.807-133.784 7.022-225.329 68.508-278.487 187.045-89.819 200.289 12.842 424.563 218.060 476.377 51.948 13.116 171.52 5.446 227.296-14.579zM378.88 431.594c0-21.403 49.701-79.98 82.124-96.79 41.613-21.575 107.84-17.317 148.877 9.571 25.193 16.507 55.719 63.182 55.719 85.196 0 6.993-50.092 10.749-143.36 10.749-78.848 0-143.36-3.927-143.36-8.726z"></path>
</svg>
