<!-- Generated by IcoMoon.io -->
<svg version="1.1" xmlns="http://www.w3.org/2000/svg" width="32" height="32" viewBox="0 0 32 32">
<title>f5</title>
<path d="M3.865 25.227c-1.939-2.56-3.089-5.748-3.089-9.203 0-8.424 6.84-15.264 15.264-15.264 4.85 0 9.175 2.267 11.971 5.797-1.090-0.143-2.134-0.398-3.291-0.525-1.584-0.208-3.232-0.344-5.016-0.416-1.192 3.32-2.568 7.512-4.016 11.912 7.496 0.616 10.384 2.68 10.24 5.496-0.136 1.512-1.584 2.96-3.44 3.096-2.2 0.136-3.232-0.76-3.848-1.72-0.552-0.896-1.168-1.784-1.784-2.752-0.136-0.272-0.416-0.072-0.616 0.072-0.48 0.416-0.896 0.896-1.304 1.304-0.272 0.272-0.208 0.48-0.136 0.688 0.416 0.96 0.824 1.928 1.24 2.816 0.688 0.416 3.784 0.96 6.048 0.76 1.584-0.136 3.504-0.76 5.16-1.928 1.584-1.24 2.752-2.888 2.96-5.568 0.072-1.648-0.208-3.368-1.648-4.952s-3.92-2.888-8.936-3.232c0.272-0.824 0.48-1.584 0.76-2.336 3.024 0.136 5.704 0.344 7.976 0.616 0.185-0.798 0.256-1.54 0.417-2.274 1.597 2.412 2.527 5.303 2.527 8.41 0 8.424-6.84 15.264-15.264 15.264-4.43 0-8.422-1.892-11.212-4.91 2.57 0.454 5.758 0.777 9.14 0.846v-1.032c-2.064-0.136-3.024-0.416-3.16-0.824-0.136-0.344-0.136-0.824-0.208-1.304-0.136-3.16-0.208-6.6-0.136-10.104 1.168 0 2.336 0 3.504-0.072 0.616-0.272 1.168-0.552 1.72-0.824v-1.168c-1.784 0-3.504 0.072-5.224 0.072 0.072-1.44 0.136-2.816 0.208-4.128 0.064-0.896 0.688-1.52 1.24-1.52 0.96-0.072 1.856 0.344 2.752 0.76 0.48 0.208 0.96 0.48 1.44 0.688 0.208 0.072 0.48 0.136 0.688-0.072 0.272-0.344 0.552-0.688 0.824-0.96 0.136-0.208 0.072-0.344 0-0.416-0.616-0.48-1.168-0.896-1.784-1.376-0.344-0.272-0.96-0.272-1.512-0.272-0.208-0.064-0.416 0-0.624 0-0.552 0-1.304 0.136-2.544 0.416-2.68 0.76-5.984 2.616-6.328 5.704-0.072 0.48-0.072 1.032-0.136 1.512-0.76 0.072-1.44 0.136-2.128 0.208-0.072 0.616-0.072 1.168-0.136 1.784 0.688-0.072 1.376-0.072 2.128-0.136-0.136 3.232 0 6.464 0.272 9.488 0.072 0.48 0.072 0.896 0.072 1.168-0.064 0.244-0.456 0.384-1.031 0.411z"></path>
</svg>
