<!-- Generated by IcoMoon.io -->
<svg version="1.1" xmlns="http://www.w3.org/2000/svg" width="1024" height="1024" viewBox="0 0 1024 1024">
<title></title>
<g id="icomoon-ignore">
</g>
<path d="M534.273 0.683c-75.727 4.932-114.386 10.5-162.272 23.228-41.841 11.136-86.227 30.704-112.955 49.955-25.772 18.296-49.636 45.659-62.522 71.431-3.182 6.363-8.59 21.636-13.045 36.909-0.319 0.955-4.455 4.296-9.068 7.318-18.296 11.614-35.795 36.114-44.068 61.569-10.341 32.137-10.659 77.636-0.795 128.068l2.386 12.886-12.409 12.569c-25.614 26.091-37.386 55.363-37.545 93.068-0.159 27.522 4.296 46.295 16.546 70 18.773 36.431 62.522 67.454 100.705 71.431l9.228 0.955 3.818 15.113c6.523 25.614 14.955 49.319 28.636 80.023 3.818 8.432 7 16.386 7 17.5s-7.637 6.204-17.023 11.455c-75.727 41.682-185.022 106.909-206.181 122.977-10.341 7.795-12.091 10.978-13.682 24.977l-1.272 9.387 20.045 49.477c10.978 27.046 20.682 50.272 21.318 51.227 1.114 1.591 93.068 2.068 451.341 2.068 265.204 0 450.386-0.636 450.863-1.432 1.75-2.705 12.727-63 21.636-118.682 1.909-11.455 3.818-30.387 4.296-42.477 0.955-21.478 0.955-21.795-3.341-28.955-8.114-13.841-43.273-38.659-107.068-75.568-6.363-3.66-11.614-7-11.614-7.318s3.182-5.568 7-11.455c34.523-53.773 63-135.386 74.932-215.25 7.318-49.319 9.704-121.864 5.727-171.818-11.136-137.455-59.659-234.658-146.364-292.886-42.954-28.955-92.113-46.454-153.682-54.887-16.705-2.227-90.523-4.136-110.569-2.863zM639.432 48.409c59.978 7.318 109.931 27.046 151.136 59.659 26.727 21.159 52.659 53.454 69.682 86.864 5.568 10.978 4.932 11.773-6.523 8.273-5.568-1.75-18.296-3.66-28.318-4.455-17.659-1.272-45.34-0.319-48.681 1.909-1.272 0.636-0.477 7.637 2.386 22.114l4.296 21 19.887-0.477c29.273-0.636 49.159 3.66 64.591 14.318 13.522 9.387 22.591 27.046 26.727 52.659 2.705 17.182 2.863 20.84 0.955 19.727-0.795-0.477-7.318-11.455-14.477-24.341-7.159-13.045-13.841-24.341-14.796-25.455-1.432-1.432-6.046 0.477-19.091 8.114-9.387 5.409-17.818 10.659-18.773 11.614-1.114 1.114 2.863 9.228 12.569 26.091 7.795 13.522 15.75 27.522 17.659 31.341l3.341 6.682h-10.341c-5.887 0-17.659-1.432-26.568-3.341-8.75-1.75-16.546-2.705-17.182-1.909-2.068 2.068-12.409 39.296-11.295 40.568 3.182 3.5 47.091 10.818 65.068 10.818 11.136 0 29.749-3.818 34.681-7.159 2.068-1.272 4.136-2.386 4.613-2.386 1.75 0 0.636 47.886-1.591 73.977-6.682 75.727-23.068 139.363-52.022 201.091-14.955 32.137-25.772 48.045-47.409 70.159-16.546 16.863-22.591 21.795-36.114 29.749-27.682 16.227-63.796 25.932-96.727 25.932-17.818 0-55.204-4.136-73.181-8.114-30.387-6.682-59.023-16.546-87.5-30.068-58.704-27.682-88.136-58.704-102.613-108.181-1.909-6.523-3.818-12.25-3.977-12.409-0.795-0.955-36.273 4.455-40.091 6.046-3.341 1.432-3.341 1.75-1.272 10.659 5.568 24.023 19.25 53.454 34.204 73.5 15.591 20.84 41.204 42.796 68.091 58.386 2.705 1.591 5.091 3.341 5.091 3.818-0.159 0.477-3.818 2.546-8.432 4.613-9.068 4.296-21.159 14.636-22.591 19.409-1.272 3.818-9.068 3.977-28.796 0.636-33.886-6.046-64.432-20.364-87.818-41.363-21.159-18.932-42.477-62.205-58.068-117.727-8.432-29.432-8.59-25.295 1.75-36.431 12.25-12.886 24.181-30.068 24.181-34.364 0-0.955-8.75-5.887-19.409-11.295-17.818-8.909-19.568-9.545-21.159-7-0.795 1.591-4.455 7.159-7.954 12.409-7.477 11.295-11.136 12.886-26.409 11.614-20.682-1.75-41.046-11.931-57.909-28.796-11.295-11.295-18.454-24.023-23.228-41.363-2.863-10.978-3.341-15.432-2.546-31.818 0.795-20.682 3.341-29.909 12.409-47.091 2.863-5.25 8.432-12.569 12.569-16.227 7.795-7 29.591-18.613 40.568-21.636 9.068-2.386 22.431-2.227 27.841 0.636 14.477 7.477 23.864 36.75 23.864 74.136 0 11.614 0.636 18.932 1.591 18.932s21-9.704 44.704-21.636l43.273-21.478-0.955-15.432c-0.955-15.591-3.022-26.25-10.023-48.523-8.114-26.25-3.818-49 19.887-106.75 10.341-25.136 13.682-39.136 13.682-57.432-0.159-16.227-1.272-21.636-8.432-37.864l-3.977-9.068 7.637-11.614c31.818-47.886 72.705-82.568 123.295-104.045 30.387-12.886 57.432-19.091 102.613-23.386 9.864-0.955 41.046 0.636 61.409 3.182zM812.523 830.658c10.341 6.841 11.614 11.614 12.569 43.273 0.795 28.477-1.272 45.5-7 57.432-6.841 14.318-49.955 17.659-90.204 7-9.704-2.705-17.182-3.182-50.114-3.182-37.545 0-38.818 0.159-46.136 3.818-29.591 14.955-85.272 32.932-118.045 38.341-21.636 3.5-29.113 3.182-34.045-1.272-8.114-7.318-9.387-16.227-10.023-73.5-0.477-41.046-0.159-53.296 1.432-56.477 3.341-6.523 11.614-9.545 25.295-9.545 20.682 0 37.069 5.409 92.909 31.023l50.75 23.068h35.636l14.318-10.818c19.409-14.477 53.136-35.636 73.341-46.136l16.705-8.59 12.886 0.636c10.978 0.319 14 1.114 19.727 4.932zM395.546 861.84c7.637 1.75 17.023 3.818 21 4.455l7.159 1.432 0.477 12.25c0.319 9.864 0 12.25-1.909 12.25-2.546 0-38.341-26.409-43.113-31.818-2.863-3.341-2.863-3.66-0.319-2.705 1.432 0.636 9.068 2.386 16.705 4.136z"></path>
<path d="M497.682 197.319c-14.318 2.068-32.295 8.273-44.704 15.591-20.045 11.773-39.455 36.273-48.681 61.091-3.818 10.341-3.66 12.091 1.432 12.091 1.75 0 9.068 1.432 16.227 3.022 22.75 5.409 21.318 5.887 28.318-8.114 10.818-21.318 27.522-34.841 48.681-39.296 11.136-2.386 28.955-2.068 41.204 0.477 10.023 2.227 13.205 1.272 13.205-3.5 0-1.272 1.909-9.864 4.136-19.091 4.773-20.364 5.25-19.727-14.955-22.431-16.068-2.068-30.068-2.068-44.864 0.159z"></path>
<path d="M577.227 289.592c-9.228 3.341-17.341 6.841-17.977 7.477-1.75 1.75 16.705 50.75 30.068 79.387 3.022 6.523 5.409 12.409 5.409 13.205 0 3.5-27.522-0.477-42.637-6.204l-8.273-3.182-2.386 4.455c-4.773 9.228-15.113 33.568-15.113 35.636 0 3.022 33.25 13.364 50.432 15.591 24.659 3.182 46.136-1.75 57.59-13.205 7.159-7 9.704-13.682 9.704-24.977 0-7.795-1.114-11.614-7-23.705-6.682-13.682-27.522-64.591-33.728-82.886-3.66-10.023-3.66-10.023-26.091-1.591z"></path>
<path d="M711.022 311.227l-21.318 0.477 1.114 9.864c2.227 19.25 12.409 52.818 21.795 71.591 14.636 28.796 24.977 41.841 65.546 82.25 33.409 33.409 36.431 37.864 29.591 43.113-7.954 5.887-36.431 19.091-54.727 25.136-21.318 7-37.545 10.659-54.887 12.25l-11.614 1.114 0.955-7.159 0.955-7.318-19.887-8.114c-10.978-4.455-20.523-7.795-21.318-7.318-4.773 3.022-6.841 30.068-3.341 42.637 2.705 9.545 12.409 20.682 23.068 26.25 7.637 4.136 9.228 4.296 29.591 4.136 24.023-0.159 40.091-3.341 72.386-14.318 37.386-12.569 59.341-24.341 73.5-39.296 10.023-10.659 13.205-16.705 14.318-27.522 2.227-21.795-5.25-33.728-47.886-76.205-34.523-34.204-44.864-47.25-56.477-70.478-6.523-13.045-13.522-34.681-16.068-49.159-0.955-6.363-2.386-11.773-2.863-11.931-0.636-0.319-10.659-0.319-22.431 0z"></path>
<path d="M178.228 458.864c-17.5 19.568-27.522 51.705-23.228 73.819l1.114 5.091 8.114-0.955c4.455-0.636 14.159-2.386 21.636-3.818l13.522-2.863-0.477-7.318c-0.795-9.704 3.182-22.909 9.228-31.182 2.546-3.66 4.773-7.159 4.773-7.637 0-0.795-20.204-26.886-25.455-32.932-0.636-0.795-4.773 2.705-9.228 7.795z"></path>
<path d="M579.296 600.136c-7.318 9.068-13.205 17.341-13.205 18.296 0 2.227 17.182 14.159 31.818 22.114 26.091 14.159 58.068 23.864 90.204 27.363 17.182 1.909 47.091 1.75 49-0.319 1.114-0.955-0.955-17.659-4.136-34.681l-1.75-8.75-20.045-0.159c-21.159-0.159-41.363-3.182-59.181-8.909-14.636-4.613-40.568-17.5-50.591-25.136-4.613-3.5-8.432-6.363-8.75-6.363-0.159 0-6.204 7.477-13.364 16.546z"></path>
<path d="M821.432 594.090c-10.181 8.909-35.955 21.795-52.5 26.091-7 1.909-13.045 3.66-13.364 4.136-1.114 1.114 3.022 41.046 4.455 42.477 0.636 0.636 6.841 0.159 13.682-1.272 21.318-4.455 44.864-14.159 61.25-25.136 10.341-7 27.046-21.795 27.046-23.864 0-1.591-25.932-25.455-30.863-28.477-0.955-0.477-5.25 2.227-9.704 6.046z"></path>
<path d="M571.659 663.136c-1.75 0.795-10.5 3.341-19.409 5.887-11.773 3.022-16.386 5.091-16.386 6.841 0 6.841 10.181 23.386 21.318 34.523 13.364 13.364 28.477 21.318 51.863 27.841 12.569 3.341 16.386 3.66 53.296 3.5 34.204 0 42.318-0.477 57.909-3.5 10.023-1.909 18.454-3.818 18.932-4.296 0.795-0.795-7.477-36.909-9.387-40.727-1.272-2.386-2.386-2.386-11.295-0.636-20.045 4.296-43.432 6.046-67.296 5.091-19.727-0.636-26.091-1.432-36.909-4.932-17.5-5.727-27.205-12.409-32.773-22.909-4.773-8.75-4.932-8.909-9.864-6.682z"></path>
</svg>
