<!-- Generated by IcoMoon.io -->
<svg version="1.1" xmlns="http://www.w3.org/2000/svg" width="1024" height="1024" viewBox="0 0 1024 1024">
<title>kibana</title>
<g id="icomoon-ignore">
</g>
<path d="M582.4 396.8c12.743-14.080 26.048-25.6 29.568-25.6s-4.025 11.52-16.768 25.6c-12.743 14.080-26.048 25.6-29.568 25.6s4.025-11.52 16.768-25.6zM130.83 195.2l-2.83-195.2h390.4c364.029 0 421.196 5.056 375.623 33.223-9.156 5.659-11.304 3.511-5.645-5.645 6.825-11.043-86.404-14.778-368.88-14.778h-378.014l-7.824 377.6-2.83-195.2zM646.4 320c12.743-14.080 26.048-25.6 29.568-25.6s-4.025 11.52-16.768 25.6c-12.743 14.080-26.048 25.6-29.568 25.6s4.025-11.52 16.768-25.6zM710.4 243.2c12.743-14.080 26.048-25.6 29.568-25.6s-4.025 11.52-16.768 25.6c-12.743 14.080-26.048 25.6-29.568 25.6s4.025-11.52 16.768-25.6zM774.4 166.4c12.743-14.080 26.048-25.6 29.568-25.6s-4.025 11.52-16.768 25.6c-12.743 14.080-26.048 25.6-29.568 25.6s4.025-11.52 16.768-25.6zM838.4 89.6c12.743-14.080 26.048-25.6 29.568-25.6s-4.025 11.52-16.768 25.6c-12.743 14.080-26.048 25.6-29.568 25.6s4.025-11.52 16.768-25.6z"></path>
<path d="M130.049 976c2.039-47.768 2.074-47.796 7.238-6.040l5.189 41.96 389.569-3.56c214.263-1.958 389.566 0.76 389.563 6.040s-178.568 9.6-396.808 9.6h-396.8l2.049-48zM897.010 965.334c0.614-14.911 3.648-17.944 7.734-7.734 3.698 9.24 3.243 20.28-1.011 24.534s-7.279-3.306-6.723-16.8zM690.231 604.8l-31.031-35.2 35.2 31.031c32.9 29.004 41.070 39.369 31.031 39.369-2.293 0-18.133-15.84-35.2-35.2z"></path>
<path d="M430.206 439.105c-41.466-17.376-123.546-38.16-182.4-46.185l-107.006-14.591v-365.528h378.236c312.851 0 376.466 2.968 368 17.166-20.644 34.621-366.328 443.588-373.76 442.183-4.221-0.798-41.603-15.668-83.069-33.045z"></path>
<path d="M587.153 1001.608l299.153-3.688-7.96-41.36c-14.988-77.873-97.798-224.659-174.479-309.274-90.56-99.929-101.245-126.26-18.324-45.151 98.974 96.809 186.558 248.698 215.584 373.865l8.163 35.2-621.288-5.905 299.153-3.688z"></path>
<path d="M338.087 940.8c29.791-35.2 107.605-128.8 172.919-208s123.359-144 128.989-144c5.63 0 39.429 31.941 75.108 70.98 66.321 72.566 149.009 222.826 163.198 296.561l7.916 41.143-602.295 7.316 54.166-64z"></path>
<path d="M134.696 931.2c-4.478-44-6.238-186.56-3.911-316.8l4.23-236.8 5.785 559.195 174.591-209.198c96.025-115.059 180.498-218.584 187.716-230.056 11.608-18.448 20.28-15.719 75.009 23.601 34.036 24.453 61.884 47.076 61.884 50.275s-81.038 103.459-180.084 222.799l-180.084 216.983h-136.994l-8.141-80z"></path>
<path d="M140.8 660.465v-276.465l41.6 0.221c98.18 0.524 329.986 69.675 329.381 98.258-0.12 5.676-83.64 110.249-185.6 232.385l-185.381 222.065v-276.465z"></path>
</svg>
