<!-- Generated by IcoMoon.io -->
<svg version="1.1" xmlns="http://www.w3.org/2000/svg" width="1024" height="1024" viewBox="0 0 1024 1024">
<title>oracle</title>
<g id="icomoon-ignore">
</g>
<path d="M36.518 806.834c-16.14-9.032-16.173-11.474-0.485-35.418 16.050-24.495 15.714-26.926-7.062-51.171-23.702-25.23-23.733-25.585-3.52-40.365 15.465-11.309 36.683-13.306 87.82-8.267l67.428 6.644 35.060-40.786c52.15-60.668 101.859-89.879 212.175-124.684 157.774-49.779 190.784-72.448 268.117-184.127 36.723-53.032 78.532-105.093 92.91-115.692s53.546-23.606 87.040-28.906c33.494-5.299 72.919-12.402 87.611-15.785 60.25-13.871 43.602 60.868-27.636 124.071-45.032 39.953-47.774 45.822-81.324 174.080-38.879 148.632-42.821 194.542-19.554 227.76 15.131 21.603 14.53 23.327-11.592 33.259-29.378 11.17-57.151 6.258-93.277-16.497-20.721-13.052-24.721-11.085-54.865 26.974-17.883 22.579-45.357 47.694-61.055 55.811-31.798 16.443-112.61 31.911-112.61 21.554 0-3.657 12.194-25.075 27.099-47.597s24.47-43.577 21.257-46.79c-3.213-3.213-61.452-8.403-129.421-11.535l-123.58-5.694-58.957 35.988c-106.102 64.766-168.639 85.604-201.578 67.17zM212.209 731.759l108.383-56.843 241.096 14.102 15.871-37.985c8.729-20.892 20.425-35.171 25.99-31.731 14.548 8.991 1.989 64.79-26.295 116.83-13.395 24.645-24.355 46.294-24.355 48.107s13.706-1.481 30.459-7.32c35.897-12.514 89.132-70.104 109.2-118.132 14.655-35.075 34.422-45.793 34.422-18.665 0 52.436 62.287-36.037 90.115-128 11.077-36.608 25.541-92.715 32.142-124.682 10.675-51.7 18.161-63.384 67.752-105.752 39.468-33.718 55.751-54.981 55.751-72.798 0-21.71-2.722-23.712-19.807-14.568-10.894 5.83-35.086 10.701-53.76 10.825-64.529 0.427-114.89 33.056-158.044 102.396-86.773 139.428-121.417 164.287-320.977 230.325-111.667 36.952-120.23 41.832-175.7 100.126l-58.312 61.28-72.62-7.156c-75.185-7.409-92.812 1.781-52.14 27.181 24.909 15.556 25.648 26.14 3.533 50.577-34.805 38.459 36.445 20.021 147.297-38.117zM826.054 259.624c-10.518-10.518 13.931-34.222 35.298-34.222 23.34 0 25.613 26.078 3.029 34.744-20.771 7.97-29.96 7.845-38.327-0.522z"></path>
<path d="M501.699 813.519c0-3.192 11.52-20.907 25.6-39.367s25.6-38.557 25.6-44.66c0-13.596-94.454-27.814-184.32-27.744-54.792 0.042-75.612 5.302-117.76 29.748-96.534 55.99-129.049 69.98-174.571 75.111-49.608 5.592-58.531-6.631-31.664-43.374 12.277-16.79 10.763-21.783-12.8-42.205-41.593-36.048-17.889-50.76 75.981-47.156l76.187 2.925 59.034-60.324c55.685-56.902 65.574-62.435 174.322-97.535 186.595-60.226 203.679-72.405 296.849-211.617 58.292-87.098 91.244-110.414 174.545-123.503 105.867-16.634 99.101-17.793 102.533 17.562 2.672 27.524-5.18 40.392-53.112 87.040l-56.248 54.74-32.25 132.586c-29.731 122.228-31.856 148.008-18.612 225.814 2.914 17.117-2.984 21.012-35.918 23.718-27.194 2.235-45.774-2.525-59.959-15.36-20.105-18.191-21.483-17.551-62.996 29.27-29.47 33.239-57.415 52.798-91.438 64-50.679 16.686-79.002 20.389-79.002 10.329zM113.851 783.068c24.644-8.676 76.831-35.104 115.971-58.729 70.134-42.334 72.355-42.905 153.6-39.464 187.907 7.958 172.751 10.144 191.62-27.643 26.171-52.407 32.249-52.179 26.536 0.998-3.041 28.306-16.586 65.964-32.228 89.6-28.707 43.379-22.814 49.884 23.497 25.936 36.865-19.063 85.108-74.094 103.158-117.671 13.642-32.934 14.43-33.31 22.745-10.831 8.48 22.924 8.945 22.986 29.991 3.952 34.233-30.959 59.705-90.45 90.884-212.263 21.819-85.245 35.119-118.528 52.964-132.548 66.959-52.606 80.149-68.164 80.149-94.533 0-22.38-3.4-26.174-17.92-20.001-9.856 4.19-42.367 11.232-72.247 15.649-83.346 12.321-98.869 25.483-175.784 149.054-53.159 85.404-91.899 111.711-241.095 163.714-165.010 57.515-178.18 64.783-230.379 127.128l-43.691 52.184-80.482-7.021c-44.265-3.861-80.482-3.633-80.482 0.508s11.725 16.751 26.056 28.024c24.5 19.272 25.111 21.937 10.24 44.633-26.908 41.067-21.359 43.354 46.897 19.324zM831.293 248.442c1.879-9.856 13.736-19.392 26.351-21.192 25.21-3.597 29.716 7.756 10.647 26.824-18.344 18.344-40.913 14.909-36.998-5.632z"></path>
<path d="M514.915 797.556c9.573-13.373 24.221-36.527 32.55-51.454l15.145-27.14-88.191-12.519c-119.685-16.989-175.064-8.852-248.58 36.524-127.336 78.596-232.404 90.602-179.393 20.499 13.817-18.272 12.753-21.914-12.217-41.825-43.202-34.448-23.935-46.693 70.306-44.682l82.435 1.76 47.285-51.934c53.313-58.554 72.967-69.538 195.765-109.409 154.954-50.311 198.094-79.013 260.508-173.323 90.135-136.198 109.734-148.198 282.212-172.783 9.854-1.405 16.523 7.92 18.604 26.013 2.585 22.47-8.396 40.407-54.020 88.239-57.014 59.773-57.42 60.652-92.732 200.86-34.16 135.632-36.726 176.764-12.918 207.050 25.598 32.563-49.513 47.669-91.343 18.371-27.845-19.503-45.492-12.576-68.897 27.045-18.997 32.16-73.581 61.939-138.549 75.588l-35.375 7.432zM201.895 741.092l110.119-57.75 247.275 13.219 19.301-38.459c17.787-35.441 19.613-36.555 23.277-14.197 2.193 13.382-9.409 51.268-25.87 84.48-25.459 51.365-27.318 60.217-12.649 60.217 33.6 0 99.107-58.928 126.407-113.713 18.178-36.479 26.983-46.809 26.983-31.658 0 28.663 11.406 28.499 38.019-0.55 34.53-37.688 63.436-104.488 85.602-197.815 27.089-114.058 33.396-126.195 85.766-165.033 26.179-19.415 46.020-43.336 49.038-59.124 6.285-32.879-3.179-39.367-38.072-26.101-14.919 5.672-42.272 10.313-60.785 10.313-52.026 0-97.705 38.432-164.688 138.559-72.326 108.114-99.108 125.685-280.263 183.879-115.121 36.981-121.229 40.438-182.949 103.552l-63.852 65.294-76.948-6.505c-82.528-6.976-96.616 1.738-51.064 31.586 24.135 15.814 24.827 18.47 10.24 39.296-39.79 56.808 0.786 50.954 135.112-19.491zM833.515 254.53c-3.718-6.016-0.409-14.96 7.352-19.876 20.298-12.856 29.472-11.296 29.472 5.012 0 18.123-27.859 29.368-36.824 14.863z"></path>
<path d="M507.656 807.617c4.686-7.642 19.365-29.925 32.621-49.517l24.102-35.622-28.78-7.861c-15.829-4.323-72.556-10.627-126.060-14.007-91.855-5.804-99.85-4.661-143.36 20.494-86.325 49.907-154.917 79.864-195.251 85.274-44.754 6.003-50.161-3.398-24.49-42.577 14.918-22.768 14.22-25.25-12.8-45.526-41.653-31.257-16.412-44.547 73.822-38.866l71.68 4.512 46.080-48.891c61.545-65.3 77.162-74.042 220.19-123.27 67.567-23.255 138.409-51.856 157.426-63.556 19.524-12.013 58.146-57.337 88.719-104.117 88.745-135.788 105.562-146.116 281.185-172.68 9.981-1.51 16.522 7.821 18.678 26.641 2.713 23.688-7.073 39.191-53.72 85.099-31.371 30.874-59.975 68.528-63.566 83.676s-17.939 71.317-31.886 124.821c-36.271 139.145-37.269 148.744-19.219 184.925 8.945 17.931 13.762 36.651 10.704 41.599-8.904 14.408-70.289 10.378-91.994-6.038-30.656-23.187-43.014-18.968-71.782 24.503-26.493 40.034-65.335 62.103-136.256 77.418-27.692 5.98-32.868 4.702-26.042-6.432zM202.226 741.269l110.032-57.573 250.207 13.7 17.458-38.877c15.92-35.452 17.831-36.739 21.689-14.614 2.393 13.722-8.735 50.423-25.616 84.48-25.459 51.365-27.318 60.217-12.649 60.217 33.6 0 99.107-58.928 126.407-113.713 18.178-36.479 26.983-46.809 26.983-31.658 0 31.041 13.894 28.154 45.549-9.466 35.943-42.716 54.194-88.27 79.504-198.444 20.121-87.583 23.857-94.705 75.236-143.416 29.735-28.191 57.417-64.618 61.516-80.949 6.952-27.699 5.803-29.213-17.096-22.543-13.502 3.933-51.672 11.299-84.822 16.368-72.706 11.119-99.607 33.984-166.775 141.75-59.064 94.764-98.143 120.506-268.438 176.82-124.766 41.259-131.329 44.897-193.202 107.106l-64.049 64.396-76.751-5.805c-82.733-6.257-97.568 3.52-51.319 33.823 23.427 15.35 24.235 18.375 10.24 38.355-39.299 56.108 2.153 50.019 135.895-19.96zM839.619 240.762c7.011-8.448 16.791-15.36 21.734-15.36s8.986 6.912 8.986 15.36c0 8.829-9.242 15.36-21.734 15.36-18.158 0-19.636-2.527-8.986-15.36z"></path>
<path d="M511.939 812.149c0-4.704 11.93-26.109 26.51-47.566s24.832-40.692 22.781-42.743c-8.091-8.091-139.567-25.247-194.042-25.32-45.102-0.060-69.712 6.613-112.64 30.543-94.858 52.878-143.893 73.987-184.536 79.438-43.796 5.874-49.103-3.739-23.575-42.7 14.918-22.768 14.22-25.25-12.8-45.526-24.033-18.035-26.136-23.080-13.218-31.722 8.448-5.652 22.272-9.812 30.72-9.245 10.883 0.731 10.137 2.396-2.56 5.714-24.965 6.524-22.358 20.281 7.559 39.884l25.479 16.695-21.336 27.062c-19.277 24.45-19.652 27.402-3.884 30.587 24.682 4.986 97.683-24.668 177.408-72.065l68.214-40.554 261.592 13.185 15.261-36.525c8.394-20.089 18.016-36.525 21.384-36.525 12.73 0-8.939 78.551-33.191 120.32-23.599 40.644-23.987 43.52-5.872 43.52 34.088 0 87.979-45.086 122.266-102.29 18.304-30.538 33.28-47.664 33.28-38.057 0 24.798 12.58 21.715 43.621-10.693 34.693-36.22 54.417-84.326 84.529-206.157 23.163-93.717 26.828-100.713 75.734-144.563 29.402-26.362 54.372-58.762 58.355-75.717 6.673-28.408 5.732-29.363-22.679-23.024-16.302 3.637-54.985 11.092-85.961 16.568-47.539 8.403-62.706 16.962-97.28 54.896-22.528 24.718-59.392 73.88-81.92 109.25-40.721 63.933-101.701 109.927-168.96 127.437-14.080 3.666 3.144-7.627 38.277-25.094 65.232-32.433 80.197-47.898 157.923-163.201 24.442-36.259 56.506-74.722 71.254-85.474 22.001-16.040 105.048-39.201 183.106-51.066 9.985-1.518 16.521 7.803 18.678 26.634 2.719 23.736-6.879 38.846-53.143 83.654-38.073 36.876-59.751 67.461-66.562 93.912-5.556 21.574-21.961 84.565-36.457 139.978-30.765 117.607-31.251 125.139-10.624 164.692 12.494 23.959 12.992 31.584 2.497 38.243-20.8 13.199-63.732 9.98-85.391-6.403-30.693-23.215-43.017-18.964-72.003 24.836-18.305 27.661-40.289 45.357-69.265 55.756-66.343 23.809-88.529 28.678-88.529 19.429zM168.899 682.089c16.896-7.454 45.605-32.234 63.798-55.067 33.276-41.764 113.338-88.115 171.722-99.418 16.896-3.271 1.673 5.241-33.829 18.915-66.378 25.567-93.589 44.108-129.697 88.375-39.346 48.236-56.691 61.547-79.674 61.148-20.236-0.352-19.302-2.050 7.68-13.953zM84.419 679.143c9.856-2.576 25.984-2.576 35.84 0s1.792 4.683-17.92 4.683c-19.712 0-27.776-2.107-17.92-4.683zM829.379 251.362c0-2.618 9.216-9.692 20.48-15.72 16.346-8.748 20.48-7.787 20.48 4.76 0 8.894-8.894 15.72-20.48 15.72-11.264 0-20.48-2.142-20.48-4.76z"></path>
<path d="M511.939 813.157c0-2.483 12.194-22.941 27.099-45.463s24.035-44.012 20.29-47.757c-3.745-3.745-26.307-9.986-50.139-13.87l-43.33-7.061 49.163-1.282c46.050-1.201 50.111-3.551 64.137-37.122 8.236-19.712 17.583-35.84 20.771-35.84 11.107 0-7.999 66.91-33.196 116.256-13.957 27.333-23.226 51.846-20.598 54.474 7.957 7.957 82.080-33.987 105.422-59.654 12.022-13.22 31.403-42.469 43.067-64.997 12.927-24.966 21.385-33.669 21.661-22.289 0.801 33.056 34.033 14.286 65.865-37.2 16.704-27.017 40.732-86.893 53.397-133.057s23.369-76.386 23.789-67.16c0.419 9.226-10.758 56.528-24.838 105.115-29.728 102.584-31.307 129.212-10.097 170.228 15.047 29.099 14.728 30.175-10.874 36.601-16.434 4.125-42.040-0.442-67.924-12.115l-41.547-18.735-37.179 42.131c-20.449 23.172-46.395 46.662-57.659 52.199-26.683 13.117-97.28 32.418-97.28 26.596zM37.45 802.22c-3.774-3.774 0.427-17.988 9.337-31.586 14.926-22.78 14.757-26.466-2.144-46.897l-18.343-22.174 23.703 21.808c22.67 20.857 22.962 22.939 6.691 47.772-16.021 24.451-15.933 26.244 1.517 30.764 14.185 3.675 14.728 5.079 2.316 5.988-8.917 0.654-19.301-1.9-23.076-5.675zM154.392 775.020c17.401-13.629 81.067-48.505 81.067-44.409 0 6.63-66.443 47.75-77.155 47.75-4.498 0-6.258-1.504-3.911-3.342zM335.071 689.052c18.178-2.262 50.434-2.299 71.68-0.083s6.372 4.068-33.052 4.113c-39.424 0.045-56.807-1.768-38.628-4.030zM204.739 660.602c13.227-14.080 26.354-25.6 29.17-25.6s-5.702 11.52-18.93 25.6c-13.227 14.080-26.354 25.6-29.17 25.6s5.702-11.52 18.93-25.6zM583.63 461.533c45.15-23.883 63.468-44.258 127.575-141.898 57.111-86.985 104.786-125.561 152.969-123.775l31.766 1.178-35.84 7.166c-60.413 12.080-81.28 29.755-137.726 116.657-65.489 100.823-129.12 162.1-166.24 160.089-4.594-0.249 7.78-8.986 27.498-19.417zM860.907 373.029c0.492-11.929 2.918-14.355 6.187-6.187 2.958 7.392 2.594 16.224-0.808 19.627s-5.823-2.645-5.378-13.44zM870.339 341.534c0-5.589 12.672-21.333 28.16-34.987l28.16-24.825-25.6 30.72c-14.080 16.896-26.752 32.64-28.16 34.987s-2.56-0.306-2.56-5.895zM953.139 260.032c13.596-17.562 26.779-30.094 29.296-27.85s-8.606 16.613-24.719 31.931l-29.296 27.85zM834.499 245.882c3.481-5.632 12.969-10.24 21.084-10.24s14.756 4.608 14.756 10.24c0 5.632-9.488 10.24-21.084 10.24s-18.236-4.608-14.756-10.24zM984.167 202.362c-0.654-9.856-9.021-17.92-18.596-17.92-13.54 0-14.677-2.731-5.12-12.288 16.396-16.396 36.464 3.216 29.796 29.12-4.352 16.907-5.024 17.027-6.080 1.088zM919.619 187.687c7.392-2.958 16.224-2.594 19.627 0.808s-2.645 5.823-13.44 5.378c-11.929-0.491-14.355-2.918-6.187-6.187z"></path>
<path d="M511.939 809.377c0-4.415 6.374-13.317 14.164-19.783 10.867-9.019 15.469-8.354 19.771 2.857 3.389 8.831-2.215 16.658-14.164 19.783-10.874 2.844-19.771 1.558-19.771-2.857zM616.147 770.391c30.75-20.28 58.899-53.909 83.328-99.549 11.091-20.72 16.577-24.887 16.853-12.8 0.225 9.856 4.608 17.92 9.74 17.92 13.571 0 63.265-61.512 78.59-97.28 12.205-28.486 12.736-26.463 7.303 27.824-4.477 44.738-1.851 64.66 11.135 84.48 16.447 25.101 16.245 25.974-6.282 27.115-42.602 2.158-64.062-2.928-82.742-19.608-17.34-15.484-21.595-13.166-67.523 36.792-26.959 29.325-55.496 53.287-63.414 53.25s-2.063-8.202 13.012-18.144zM552.539 748.315c17.726-33.121 12.275-41.57-27.8-43.086l-38.4-1.453 40.912-6.227c33.751-5.137 44.046-12.5 58.82-42.067 17.574-35.171 17.791-35.267 11.613-5.12-7.773 37.933-41.456 117.76-49.689 117.76-3.331 0-1.286-8.913 4.544-19.807zM340.56 689.094c15.565-2.354 38.605-2.291 51.2 0.14s-0.141 4.356-28.301 4.279c-28.16-0.077-38.465-2.066-22.899-4.419zM614.339 447.478c0-1.762 14.976-16.738 33.28-33.28l33.28-30.076-30.076 33.28c-28.035 31.022-36.484 37.987-36.484 30.076zM706.499 327.802c6.028-11.264 13.265-20.48 16.081-20.48s0.188 9.216-5.841 20.48c-6.028 11.264-13.265 20.48-16.081 20.48s-0.188-9.216 5.841-20.48zM880.579 323.936c0-2.126 8.064-10.19 17.92-17.92 16.241-12.737 16.603-12.375 3.866 3.866-13.377 17.057-21.786 22.482-21.786 14.054zM757.699 252.256c0-2.126 8.064-10.19 17.92-17.92 16.241-12.737 16.603-12.375 3.866 3.866-13.377 17.057-21.786 22.482-21.786 14.054zM834.499 245.882c3.481-5.632 13.241-10.24 21.689-10.24s12.512 4.608 9.031 10.24c-3.481 5.632-13.241 10.24-21.689 10.24s-12.512-4.608-9.031-10.24zM806.168 213.891c6.946-6.998 15.209-10.144 18.362-6.992s-2.53 8.879-12.629 12.724c-14.594 5.557-15.77 4.381-5.732-5.732z"></path>
</svg>
