<!-- Generated by IcoMoon.io -->
<svg version="1.1" xmlns="http://www.w3.org/2000/svg" width="32" height="32" viewBox="0 0 32 32">
<title>mariadb</title>
<path d="M7.612 19.347c1.312-1.613 3.203-2.995 5.369-3.493l2.922-0.676c2.22-0.577 3.739-1.433 4.652-2.531 0.952-1.49 1.933-2.896 2.917-4.29 0.463-0.701 1.006-1.325 1.743-1.761 0.676-0.504 1.501-0.738 2.4-0.826l1.137-0.121c0.652-0.14 1.233-0.274 1.7-0.471 0.62-0.137 0.911 0.055 0.991 0.456 0.073 0.977-0.244 1.818-1.005 2.502l-1.245 1.021c-0.757 0.595-1.3 1.37-1.565 2.378-0.466 2.319-1.020 4.594-1.73 6.791l-0.121 1.5c0.081 1.115 0.479 1.818 1.12 2.203-1.546 1.016-2.886 0.835-4.019-0.545-0.786 0.432-1.373 1.13-1.871 1.947-1.301 1.613-2.721 2.034-4.814 1.782 0.709-0.932 1.435-1.916 1.841-2.964l-4.297-0.568-2.381-0.059c-1.197-0.023-2.455 0.456-3.77 1.416-1.411 1.133-3.061 1.7-4.997 1.587-0.304-0.041-0.6-0.119-0.883-0.256-0.338-0.123-0.406-0.332-0.155-0.642 0.373-0.254 0.709-0.51 0.995-0.769-0.64 0.16-1.173 0.075-1.506-0.467 0.463-0.6 1.273-0.891 2.322-0.967l1.331-0.081c1.89-0.075 2.995-2.010 2.919-2.094zM29.118 8.237c0.018 0.139 0.053 0.141 0.113-0.045 0.008-0.322 0.088-0.623 0.237-0.902l0.399-0.687c0.038-0.086 0.013-0.109-0.049-0.095-0.15 0.233-0.296 0.477-0.432 0.745-0.162 0.298-0.26 0.622-0.268 0.984zM29.495 8.225c0.051 0.093 0.089 0.104 0.106-0.024-0.016-0.321 0.051-0.638 0.193-0.909 0.040-0.18 0.117-0.349 0.217-0.51 0.030-0.088 0.006-0.118-0.055-0.105-0.127 0.145-0.22 0.335-0.297 0.546-0.12 0.312-0.195 0.654-0.164 1.002zM28.689 8.126c0.012 0.158 0.041 0.185 0.102-0.008 0.049-0.355 0.201-0.676 0.452-0.964l0.506-0.681c0.030-0.098 0.016-0.138-0.084-0.064l-0.501 0.658c-0.282 0.343-0.431 0.711-0.474 1.060zM28.277 8.083c0.126-0.375 0.318-0.716 0.569-1.027 0.221-0.331 0.461-0.637 0.746-0.866 0.040-0.010 0.064 0.007 0.054 0.079l-0.667 0.809c-0.292 0.316-0.468 0.662-0.575 1.025-0.091 0.122-0.131 0.108-0.128-0.019zM26.24 7.821l0.274 0.1c0.629 0.182 1.035-0.008 1.167-0.655l0.008-0.263c-0.784-0.040-1.29 0.209-1.448 0.818z"></path>
</svg>
