<?xml version="1.0" standalone="no"?><!-- Generator: Gravit.io --><svg xmlns="http://www.w3.org/2000/svg" xmlns:xlink="http://www.w3.org/1999/xlink" style="isolation:isolate" viewBox="0 0 1278 1024" width="1278" height="1024"><defs><clipPath id="_clipPath_2E1tCJw5DKu3RiOANRH7JfjxZnNnarML"><rect width="1278" height="1024"/></clipPath></defs><g clip-path="url(#_clipPath_2E1tCJw5DKu3RiOANRH7JfjxZnNnarML)"><path d=" M 503.047 2.036 C 482.089 4.242 465.36 11.044 431.351 30.347 C 423.998 34.576 411.68 41.194 382.634 56.452 C 283.914 108.661 270.861 114.913 261.485 114.913 C 259.095 114.913 253.396 112.155 248.616 108.663 C 237.218 100.39 233.358 98.552 221.592 95.426 C 204.863 91.197 195.12 91.933 166.257 100.389 C 156.514 103.147 130.593 112.706 116.988 118.589 C 113.679 119.876 106.693 122.082 87.022 128.149 C 83.713 129.068 74.521 130.539 66.616 131.275 C 41.063 133.849 27.091 144.328 16.797 168.594 C 12.384 179.073 10.731 185.139 3.928 215.656 C 0.802 229.077 0.435 313.825 3.376 323.568 C 4.479 327.613 6.869 336.253 8.523 342.871 C 20.657 389.933 47.864 407.582 71.763 383.682 C 87.757 367.688 100.993 334.413 102.464 306.287 C 104.854 261.247 109.082 230.546 113.494 226.87 C 115.333 225.399 116.436 227.238 118.641 234.591 C 121.583 244.151 121.583 244.518 116.986 253.159 C 108.53 269.52 106.507 277.425 108.897 286.617 C 110.552 293.419 112.574 296.177 119.744 301.324 C 124.523 304.817 130.591 310.516 133.165 313.825 C 137.76 319.891 137.944 320.443 135.555 329.083 C 134.084 334.23 130.776 343.238 127.834 349.305 C 121.584 362.908 120.113 375.594 123.973 383.866 C 128.202 392.506 132.429 395.816 145.666 400.411 C 162.763 406.477 162.763 406.477 158.351 413.464 C 152.285 423.575 153.388 429.641 164.05 443.981 C 170.484 452.437 175.264 461.262 179.492 472.476 C 183.537 483.139 184.271 518.435 180.779 527.259 C 178.021 533.877 177.837 611.64 180.411 639.951 C 184.088 679.476 192.912 730.583 198.611 746.392 C 199.53 748.414 201.553 754.665 203.206 760.179 C 219.2 811.101 246.407 860.186 278.396 895.483 C 289.426 907.8 290.162 909.086 291.265 919.933 C 294.758 953.575 310.384 980.047 335.57 995.306 C 363.146 1011.851 408.921 1012.954 442.931 998.064 L 452.858 993.651 L 458.74 998.246 C 463.703 1002.107 466.829 1002.841 476.94 1002.841 C 483.558 1002.841 489.441 1002.106 489.993 1001.186 C 490.545 1000.266 493.302 998.98 496.059 998.244 C 498.817 997.692 503.412 994.935 506.538 992.362 C 511.133 988.685 513.34 987.949 519.039 988.869 C 526.025 989.972 537.239 995.487 542.754 1000.267 C 544.225 1001.738 546.063 1002.841 546.799 1002.841 C 547.351 1002.841 553.049 1005.231 559.484 1008.172 C 577.132 1016.261 602.134 1022.695 621.805 1023.798 C 640.189 1024.901 680.816 1022.511 688.17 1019.569 C 690.376 1018.834 695.707 1016.995 699.752 1015.708 C 703.797 1014.421 710.782 1011.663 715.378 1009.642 C 719.973 1007.62 728.247 1003.943 733.762 1001.553 C 739.277 999.163 747.733 995.119 752.513 992.729 C 763.36 987.03 766.116 987.03 774.206 992.361 C 781.743 997.324 797.553 1002.84 804.539 1002.84 C 807.297 1002.84 813.731 1000.634 818.878 998.061 C 828.07 993.466 828.438 993.466 835.791 996.59 C 839.836 998.245 844.799 1000.267 846.821 1001.185 C 861.344 1007.067 873.845 1009.09 896.457 1009.274 C 915.76 1009.274 922.378 1008.539 930.467 1005.597 C 943.152 1001.184 958.962 990.707 967.602 981.331 C 980.103 967.176 990.949 939.417 991.133 920.114 C 991.133 910.371 990.03 912.393 1017.789 871.213 C 1029.923 853.013 1040.768 836.652 1041.871 834.629 C 1042.974 832.606 1047.937 823.415 1053.085 814.407 C 1058.232 805.215 1064.299 793.265 1066.322 787.751 C 1068.528 782.236 1070.917 775.985 1071.837 773.964 C 1076.616 762.934 1085.074 732.969 1088.75 714.217 C 1097.574 668.993 1101.803 606.121 1099.413 558.875 C 1097.207 515.674 1096.655 496.554 1097.391 474.861 L 1097.759 457.213 L 1104.377 452.984 C 1119.267 443.792 1125.151 428.534 1118.716 415.849 C 1115.774 410.334 1115.774 409.967 1119.819 407.209 C 1122.209 405.738 1128.827 402.43 1134.342 400.04 C 1148.313 394.158 1153.829 390.113 1157.321 382.576 C 1164.307 367.869 1158.608 352.243 1142.431 341.581 C 1134.342 336.25 1131.584 333.308 1131.217 329.447 C 1130.482 322.645 1132.872 320.071 1144.454 314.74 C 1157.691 308.674 1166.515 300.401 1170.375 290.29 C 1172.949 283.488 1173.133 280.914 1171.478 278.34 C 1170.375 276.501 1169.456 273.193 1169.456 271.171 C 1169.456 269.149 1166.882 262.898 1163.941 257.2 C 1158.978 248.376 1158.426 245.802 1159.528 238.265 C 1158.925 243.107 1164.634 241.646 1169.823 235.507 C 1173.5 265.657 1175.522 285.878 1175.889 295.07 C 1176.441 312.351 1179.015 323.013 1186.552 341.765 C 1197.215 368.605 1205.855 380.923 1219.458 389.379 C 1232.511 397.468 1249.608 389.931 1258.799 371.915 C 1265.968 357.76 1268.359 349.486 1276.08 311.617 C 1279.573 294.704 1280.493 259.04 1277.919 238.082 C 1276.632 227.419 1274.977 211.242 1274.242 202.234 C 1270.381 159.033 1254.571 140.097 1215.965 132.376 C 1207.141 130.537 1198.684 128.515 1197.03 127.781 C 1195.559 126.862 1189.309 124.839 1183.243 123.186 C 1177.177 121.533 1170.19 119.509 1167.617 118.591 C 1165.043 117.672 1154.38 114.362 1143.719 111.238 C 1133.056 107.929 1119.821 103.885 1114.305 101.862 C 1105.297 98.92 1092.428 96.163 1074.044 93.406 C 1063.565 91.751 1049.042 96.164 1040.402 103.333 C 1031.026 111.054 1022.754 114.915 1015.033 114.915 C 1009.151 114.915 1004.003 112.709 983.414 101.494 C 951.243 84.03 945.36 80.72 935.065 75.389 C 928.999 72.08 919.439 66.933 913.923 63.991 C 889.657 50.57 876.052 43.401 844.985 27.591 C 826.785 18.399 810.24 10.127 808.218 9.575 C 806.196 9.023 801.232 7.001 797.188 5.346 C 786.341 0.933 735.235 -0.536 723.102 3.324 C 718.323 4.795 706.557 7.369 696.997 9.023 C 687.437 10.677 675.855 12.884 671.26 13.986 C 658.943 16.744 614.822 18.031 603.241 16.008 C 597.726 14.905 588.534 12.699 583.019 11.045 C 559.672 4.059 551.582 2.589 531.545 2.037 C 519.963 1.669 507.095 1.669 503.05 2.037 L 503.047 2.036 Z  M 769 44 C 785.361 47.677 795.53 56.998 805.458 62.513 C 810.053 65.087 826.231 70.242 835.791 75.389 C 862.631 89.36 893.7 104.804 905.834 111.238 C 911.9 114.547 922.013 116.384 935.065 123.186 C 948.302 129.988 964.84 138.62 971.458 142.481 C 990.209 153.511 1012.275 162.15 1023.305 159.394 C 1035.071 156.452 1056.577 156.82 1064.665 149.834 C 1069.996 145.055 1070.36 141 1079 141 C 1088.927 141 1089.854 139.54 1097.391 142.481 C 1099.413 143.216 1108.238 140.644 1114.305 142.481 C 1120.371 144.136 1131.769 149.1 1134.342 149.834 C 1136.916 150.753 1136.917 152.794 1144.454 155 C 1151.991 157.206 1154.014 162.893 1159.528 164.731 C 1178.096 170.797 1189.125 173.922 1203.832 177.048 C 1216.885 179.806 1211.553 181.822 1219.458 189.911 C 1224.421 194.69 1227 196.978 1227 199 C 1227 200.839 1228.08 204.082 1229 205 C 1229.919 206.103 1233.897 204.442 1235 215.656 C 1236.103 226.686 1240.415 225.947 1241.334 235.507 C 1244.276 261.06 1239.802 284.226 1233 306.287 C 1227.853 323.2 1232.309 307.573 1229 311.617 C 1219.624 323.567 1238.236 335.701 1225 301.324 C 1219.669 287.537 1225.758 299.333 1223 269 C 1218.771 223.041 1201.81 217.301 1197.03 210.867 C 1183.977 193.403 1122.803 180.366 1116 205 C 1111.037 222.097 1101.542 247.499 1110 260 C 1114.045 266.066 1104.377 267.162 1104.377 269 C 1104.377 274.163 1106.012 275.028 1099.413 279.254 C 1097.788 280.295 1101.023 283.802 1097.391 285 C 1088.935 287.758 1078.197 340.787 1085 352 C 1087.022 355.126 1099.229 362.874 1104.377 366 C 1122.577 377.214 1114.303 366.027 1092.243 376.322 C 1069.814 386.433 1078.825 398.386 1074.044 401.327 C 1069.815 403.901 1071.992 407.576 1081 415.849 C 1095.155 428.534 1072.523 421.014 1058 428 C 1051.382 431.309 1049.206 446.918 1047 454.456 C 1044.058 465.119 1050.695 496.006 1053.085 557.408 C 1054.556 599.69 1054.229 642.341 1050 667.526 C 1045.037 699.513 1038.471 728.929 1037 732.605 C 1036.081 734.995 1033.413 748.161 1033.413 750 C 1033.413 757.721 1027.537 770.314 1020 783 C 1017.794 786.493 1011.471 811.281 1010 814.407 C 1001.176 832.239 987.642 861.529 983.414 863 C 982.679 863.368 978.261 877.652 977.71 872.872 C 977.159 868.092 975.871 866.619 974.768 858.53 C 958.591 741.794 958.223 623.035 973.665 522.108 C 977.526 497.474 981.754 456.294 980.651 454.456 C 979.18 451.882 976.422 453.169 965.025 461.625 C 952.34 471.001 934.324 480.376 921.272 484.236 C 905.278 489.199 878.99 492.876 873.842 490.854 C 871.084 489.751 871.268 489.383 875.313 487.361 C 877.887 486.074 883.586 484.419 887.998 483.684 C 908.22 480.558 929.545 464.749 931.567 450.961 C 932.302 446.548 934.693 441.401 937.266 438.827 C 941.311 434.782 942.781 434.598 951.973 435.701 C 957.672 436.436 963.739 437.723 965.76 438.643 C 967.599 439.562 970.907 441.217 972.929 442.32 C 980.834 446.365 980.466 441.033 971.458 423.752 C 961.347 403.897 949.029 389.559 936.713 383.124 C 929.36 379.447 925.315 378.711 911.16 378.711 C 901.784 378.711 892.225 379.63 889.835 380.733 C 866.304 391.763 853.987 398.749 840.566 408.86 C 824.756 420.626 801.408 433.494 791.297 435.884 C 788.539 436.619 785.415 437.723 784.311 438.458 C 775.855 444.34 710.96 447.834 700.481 442.871 C 679.707 433.128 674.192 429.634 665.92 421.546 C 655.441 410.699 646.065 393.97 644.411 382.756 C 642.94 372.461 639.998 363.085 638.345 363.085 C 637.426 363.085 636.323 369.151 635.955 376.322 C 635.22 386.249 633.565 392.316 629.705 399.669 C 624.006 410.699 608.38 428.715 602.497 431.288 C 600.291 432.207 596.247 434.414 593.121 436.251 C 582.826 442.501 554.147 449.12 540.176 448.568 C 503.041 446.913 470.87 434.413 431.712 406.654 C 408.549 390.293 396.783 384.409 379.503 380.365 C 353.582 374.299 331.154 384.96 315.712 410.515 C 298.064 439.929 296.409 447.834 309.462 440.481 C 317.551 436.068 334.831 433.679 339.979 436.436 C 342.369 437.723 344.942 442.318 346.781 448.57 C 351.376 464.931 369.576 479.455 389.982 483.315 C 402.483 485.705 411.859 488.83 410.94 490.301 C 410.388 491.036 404.322 491.772 397.337 491.772 C 368.842 491.772 337.223 481.109 312.956 463.277 C 306.706 458.682 300.822 455.004 299.719 455.004 C 297.513 455.004 299.535 476.697 306.337 524.862 C 309.095 543.981 311.116 561.997 314.61 596.007 C 316.816 619.354 316.816 739.951 314.61 768.446 C 310.749 816.428 306.521 822.684 299.719 872.872 C 299.167 877.101 302.735 867.449 302 868 C 300.529 868.919 301.318 845.2 289 827 C 274.293 805.123 267.273 776.84 259 750 C 251.647 725.918 255.601 716.583 248.616 680 C 242.734 648.931 230.955 559.325 235 538 C 238.309 521.271 245.309 473.39 242 461.625 C 238.139 447.654 231.721 437.927 224 428 C 215.176 416.786 197.8 425.041 216 415.849 C 223.537 411.988 216.368 390.298 216 389.379 C 215.448 388.644 208.353 379.079 201 376.322 C 193.831 373.564 182.802 372.834 180.779 371.915 C 178.757 371.18 183.514 365.107 178 363.085 C 158.513 355.548 169.381 368.972 176 355 C 177.839 351.139 184.161 346.915 186 342.871 C 188.574 337.54 186 325.587 186 314.74 C 186 300.769 179.331 291.435 174 285 C 170.874 281.139 164.411 282.38 160 279.254 C 155.589 276.128 160.367 273.194 160 271.171 C 159.816 269.332 159.822 264.002 164.05 257.2 C 172.323 243.413 175.636 235.361 171.225 219 C 168.835 210.36 148.883 183.114 143 177.048 C 133.44 167.672 81.985 184.647 75 192 C 64.889 203.03 61.022 226.683 59 257.2 C 56.426 294.151 61.39 303.301 59 309 C 57.897 311.942 54.735 324.978 54 327 C 50.323 337.479 53.412 321.668 49 327 C 35.579 342.81 51.111 357.945 41 313.825 C 38.242 301.875 38.633 298.965 39 269 C 39.368 233.52 50.324 198.044 54 194 C 54.919 192.897 54 185.838 54 184 C 54 178.301 62.387 177.861 66.616 174 C 71.211 169.955 74.36 164.731 83 164.731 C 88.699 164.731 103.647 157.94 111 155 C 121.663 150.587 163.705 142.492 174 139 C 188.89 134.037 200.257 132.875 210 136 C 214.045 137.287 226.669 137.139 232 141 C 251.119 154.603 291.29 154.07 331 133.296 C 390.747 102.227 396.789 98.464 429.145 81 C 507.091 38.718 471.923 42.529 512 44 C 532.59 44.552 557.463 47.06 565.919 50 C 588.714 57.721 598.825 56.452 621.805 56.452 C 652.69 56.452 699.385 53.008 733.762 44 C 746.999 40.507 737.807 34.875 752.513 38 L 769 44 Z  M 644.05 443.245 C 648.829 452.621 664.272 457.952 691.48 459.422 C 710.967 460.709 720.894 462.18 739.278 467.143 C 757.478 472.106 778.252 481.85 793.51 492.696 C 813.365 507.035 846.455 543.802 863.184 570.459 C 869.066 579.651 888.749 622.852 895 637.008 C 897.39 642.523 899.61 651.531 902 656.863 C 904.39 662.195 904 665.448 904 666 C 904 666.552 906.529 671.203 908 674.328 C 912.963 686.094 914.507 688.97 918 700 C 920.022 706.066 922.382 714.956 923.3 716.978 C 924.035 719 927.894 732.973 930.467 741.613 C 945.541 790.882 946.926 804.025 962 868 C 962.919 872.045 964.289 873.773 965.025 878 C 965.577 882.413 964.473 878.897 965.76 880 C 969.069 882.758 965.31 883.716 962 888.129 C 960.161 890.519 944 910.374 944 917.911 C 944 961.664 940.211 971.955 897.194 971.955 C 885.612 971.955 872.01 972.694 863.184 968.834 C 861.162 968.099 849.949 965.021 844.985 963 C 834.69 958.955 835.056 977.107 825.68 945.855 C 819.614 926 817.224 918.279 814.65 911.845 C 813.915 909.823 809.687 898.608 805.458 887.027 C 794.979 858.348 773.287 814.411 759.499 793.821 C 744.609 771.392 723.099 751.171 705.635 742.899 C 693.501 737.2 684.31 734.81 664.824 731.685 C 652.874 729.846 659.124 730.583 656 724.149 C 653.426 718.818 656 707.788 656 646.019 L 645.521 573.219 L 651 570.459 C 656.147 563.106 658.757 547.941 656 545 C 652.323 540.955 626.952 541.14 621.805 545 C 618.496 547.39 617.025 555.939 621.805 564.028 L 629.705 573.219 L 625 646.019 C 625 697.125 626.47 721.025 625 724.149 C 622.61 729.296 624.196 732.605 615.004 732.605 C 605.261 732.605 590.186 736.65 580.811 741.613 C 552.868 756.687 528.969 787.572 500.291 845.848 C 493.122 860.187 487.422 872.32 487.422 872.872 C 487.422 873.424 484.48 880.409 480.804 888.314 C 477.127 896.219 470.509 912.212 466.097 923.794 C 457.824 945.303 457.089 946.957 451.758 959.274 C 450.103 963.135 446 951.529 446 953 C 446 958.699 437.663 952.059 427 955 C 406.042 961.066 401.38 955 389.982 955 C 367.553 955 363.053 956.501 350 944 C 336.579 931.131 335.57 927.773 335.57 907 C 335.57 900.382 323.574 892.758 321 890 C 317.874 886.691 311.302 884.068 312.956 878 C 314.059 874.139 311.487 879.49 312.956 872.872 C 314.427 866.07 321.53 851.362 323 844.744 C 329.25 816.249 338.324 772.863 339.979 771.393 C 340.714 770.658 339.979 769.001 339.979 767.346 C 339.979 764.588 353.587 721.754 356.711 714.217 C 357.63 712.195 354.689 708.337 356.711 702.27 C 358.733 696.02 361.306 688.667 362.593 685.725 C 363.696 682.599 365.351 678.556 366.086 676.533 C 393.845 604.653 429.694 544.722 464.255 512.367 C 501.206 477.806 536.687 462.914 589.448 459.422 C 617.759 457.767 632.833 452.436 636.327 442.877 C 638.533 437.178 641.106 437.178 644.048 443.245 L 644.05 443.245 Z  M 690.746 778 C 695.159 779.839 704.221 789.041 709 793.821 C 727.935 813.676 752.697 851.73 772 902.469 C 785.053 937.214 791.014 943.808 798 953 C 803.515 959.986 803.699 947.911 798 956 C 791.198 966.295 811.913 964.64 795 956 C 777.352 946.808 747.55 939.054 733.762 945.855 C 699.569 962.768 686.347 968.097 663 973.428 C 651.786 976.002 622.357 978.025 611.143 975.451 C 584.854 969.385 576.03 970.488 559.484 959.274 C 555.991 957.068 544.593 948 542.754 948 C 541.099 948 526.76 941.92 526.208 941 C 525.656 939.897 516.251 941 510 941 C 500.624 941 497.515 944.324 492 948 C 471.042 962.155 486.319 968.993 480.804 953 C 478.965 947.853 470.322 969.017 476.94 959.274 C 486.132 945.671 499.338 946.038 510 919.933 C 520.663 893.644 519.406 897.135 526.208 882.061 C 529.334 875.075 540.176 859.448 540.176 858.53 C 540.176 857.612 544.853 845.108 550 834.629 C 567.464 799.884 563.897 791.825 580.811 783 C 590.187 778.221 603.195 776.368 660 776 C 692.723 775.632 675.671 774.874 682.84 778 L 690.746 778 Z " fill="rgb(0,0,0)"/><path d=" M 677.324 554.65 C 666.477 566.232 664.271 583.145 672.177 593.624 C 677.14 600.058 678.243 610.537 674.751 617.155 C 671.074 623.957 680.265 624.876 688.17 617.155 C 697.913 607.595 701.408 607 714.277 607 C 725.491 607 733.764 599.689 733.764 596.38 C 733.764 594.909 730.822 590.315 723.469 591.235 C 712.255 592.522 709.864 589.779 705.635 585 C 704.348 583.345 702.135 578.363 700.481 570.459 C 698.826 562.003 686.517 555.754 684.496 553.915 C 681.37 550.606 681.003 550.606 677.327 554.65 L 677.324 554.65 Z " fill="rgb(0,0,0)"/><path d=" M 591.473 557.408 C 590.186 560.35 581.546 564.944 580.811 570.459 C 578.789 585.533 585.744 575.242 576 578 C 571.405 579.287 555.699 591.603 550 591.235 C 542.463 590.683 544.41 596.014 544.41 597.669 C 544.41 600.611 548.271 601.53 565.919 602.816 C 581.361 603.919 584.854 605.39 595.333 615.501 C 603.606 623.406 607.283 623.59 603.238 616.053 C 600.112 609.987 601.767 600.427 607.833 591.235 C 612.246 584.801 612.612 582.595 611.51 575.241 C 610.039 564.946 602.318 552.446 597.539 552.446 C 595.7 552.446 592.944 554.652 591.473 557.409 L 591.473 557.408 Z " fill="rgb(0,0,0)"/></g></svg>