<!-- Generated by IcoMoon.io -->
<svg version="1.1" xmlns="http://www.w3.org/2000/svg" width="1278" height="1024" viewBox="0 0 1278 1024">
<title></title>
<g id="icomoon-ignore">
</g>
<path d="M503.047 2.036c-20.958 2.206-37.687 9.008-71.696 28.311-7.353 4.229-19.671 10.847-48.717 26.105-98.72 52.209-111.773 58.461-121.149 58.461-2.39 0-8.089-2.758-12.869-6.25-11.398-8.273-15.258-10.111-27.024-13.237-16.729-4.229-26.472-3.493-55.335 4.963-9.743 2.758-35.664 12.317-49.269 18.2-3.309 1.287-10.295 3.493-29.966 9.56-3.309 0.919-12.501 2.39-20.406 3.126-25.553 2.574-39.525 13.053-49.819 37.319-4.413 10.479-6.066 16.545-12.869 47.062-3.126 13.421-3.493 98.169-0.552 107.912 1.103 4.045 3.493 12.685 5.147 19.303 12.134 47.062 39.341 64.711 63.24 40.811 15.994-15.994 29.23-49.269 30.701-77.395 2.39-45.040 6.618-75.741 11.030-79.417 1.839-1.471 2.942 0.368 5.147 7.721 2.942 9.56 2.942 9.927-1.655 18.568-8.456 16.361-10.479 24.266-8.089 33.458 1.655 6.802 3.677 9.56 10.847 14.707 4.779 3.493 10.847 9.192 13.421 12.501 4.595 6.066 4.779 6.618 2.39 15.258-1.471 5.147-4.779 14.155-7.721 20.222-6.25 13.603-7.721 26.289-3.861 34.561 4.229 8.64 8.456 11.95 21.693 16.545 17.097 6.066 17.097 6.066 12.685 13.053-6.066 10.111-4.963 16.177 5.699 30.517 6.434 8.456 11.214 17.281 15.442 28.495 4.045 10.663 4.779 45.959 1.287 54.783-2.758 6.618-2.942 84.381-0.368 112.692 3.677 39.525 12.501 90.632 18.2 106.441 0.919 2.022 2.942 8.273 4.595 13.787 15.994 50.922 43.201 100.007 75.19 135.304 11.030 12.317 11.766 13.603 12.869 24.45 3.493 33.642 19.119 60.114 44.305 75.373 27.576 16.545 73.351 17.648 107.361 2.758l9.927-4.413 5.882 4.595c4.963 3.861 8.089 4.595 18.2 4.595 6.618 0 12.501-0.735 13.053-1.655s3.309-2.206 6.066-2.942c2.758-0.552 7.353-3.309 10.479-5.882 4.595-3.677 6.802-4.413 12.501-3.493 6.986 1.103 18.2 6.618 23.715 11.398 1.471 1.471 3.309 2.574 4.045 2.574 0.552 0 6.25 2.39 12.685 5.331 17.648 8.089 42.65 14.523 62.321 15.626 18.384 1.103 59.011-1.287 66.365-4.229 2.206-0.735 7.537-2.574 11.582-3.861s11.030-4.045 15.626-6.066c4.595-2.022 12.869-5.699 18.384-8.089s13.971-6.434 18.751-8.824c10.847-5.699 13.603-5.699 21.693-0.368 7.537 4.963 23.347 10.479 30.333 10.479 2.758 0 9.192-2.206 14.339-4.779 9.192-4.595 9.56-4.595 16.913-1.471 4.045 1.655 9.008 3.677 11.030 4.595 14.523 5.882 27.024 7.905 49.636 8.089 19.303 0 25.921-0.735 34.010-3.677 12.685-4.413 28.495-14.89 37.135-24.266 12.501-14.155 23.347-41.914 23.531-61.217 0-9.743-1.103-7.721 26.656-48.901 12.134-18.2 22.979-34.561 24.082-36.584s6.066-11.214 11.214-20.222c5.147-9.192 11.214-21.142 13.237-26.656 2.206-5.515 4.595-11.766 5.515-13.787 4.779-11.030 13.237-40.995 16.913-59.747 8.824-45.224 13.053-108.096 10.663-155.342-2.206-43.201-2.758-62.321-2.022-84.014l0.368-17.648 6.618-4.229c14.89-9.192 20.774-24.45 14.339-37.135-2.942-5.515-2.942-5.882 1.103-8.64 2.39-1.471 9.008-4.779 14.523-7.169 13.971-5.882 19.487-9.927 22.979-17.464 6.986-14.707 1.287-30.333-14.89-40.995-8.089-5.331-10.847-8.273-11.214-12.134-0.735-6.802 1.655-9.376 13.237-14.707 13.237-6.066 22.061-14.339 25.921-24.45 2.574-6.802 2.758-9.376 1.103-11.95-1.103-1.839-2.022-5.147-2.022-7.169s-2.574-8.273-5.515-13.971c-4.963-8.824-5.515-11.398-4.413-18.935 2.574-18.2 8.273-19.671 10.295-2.758 3.677 30.15 5.699 50.371 6.066 59.563 0.552 17.281 3.126 27.943 10.663 46.695 10.663 26.84 19.303 39.158 32.906 47.614 13.053 8.089 30.15 0.552 39.341-17.464 7.169-14.155 9.56-22.429 17.281-60.298 3.493-16.913 4.413-52.577 1.839-73.535-1.287-10.663-2.942-26.84-3.677-35.848-3.861-43.201-19.671-62.137-58.277-69.858-8.824-1.839-17.281-3.861-18.935-4.595-1.471-0.919-7.721-2.942-13.787-4.595s-13.053-3.677-15.626-4.595c-2.574-0.919-13.237-4.229-23.898-7.353-10.663-3.309-23.898-7.353-29.414-9.376-9.008-2.942-21.877-5.699-40.261-8.456-10.479-1.655-25.002 2.758-33.642 9.927-9.376 7.721-17.648 11.582-25.369 11.582-5.882 0-11.030-2.206-31.619-13.421-32.171-17.464-38.054-20.774-48.349-26.105-6.066-3.309-15.626-8.456-21.142-11.398-24.266-13.421-37.871-20.59-68.938-36.4-18.2-9.192-34.745-17.464-36.767-18.016s-6.986-2.574-11.030-4.229c-10.847-4.413-61.953-5.882-74.086-2.022-4.779 1.471-16.545 4.045-26.105 5.699s-21.142 3.861-25.737 4.963c-12.317 2.758-56.438 4.045-68.019 2.022-5.515-1.103-14.707-3.309-20.222-4.963-23.347-6.986-31.437-8.456-51.474-9.008-11.582-0.368-24.45-0.368-28.495 0zM776.044 20.052c16.361 3.677 34.193 9.743 44.121 15.258 4.595 2.574 16.177 8.824 25.737 13.971 26.84 13.971 54.967 28.863 67.101 35.297 6.066 3.309 21.877 11.582 34.929 18.384 13.237 6.802 29.23 15.626 35.848 19.487 18.751 11.030 28.495 13.603 39.525 10.847 11.766-2.942 21.142-7.721 29.23-14.707 5.331-4.779 7.721-5.515 16.361-5.515 9.927 0 25.921 2.574 33.458 5.515 2.022 0.735 8.64 2.758 14.707 4.595 6.066 1.655 13.053 3.861 15.626 4.595 2.574 0.919 10.847 3.309 18.384 5.515s18.384 5.515 23.898 7.353c18.568 6.066 28.311 8.824 43.018 11.95 13.053 2.758 15.442 4.045 23.347 12.134 4.963 4.779 9.008 10.295 9.008 12.317 0 1.839 0.735 4.045 1.655 4.963 0.919 1.103 2.574 10.847 3.677 22.061 1.103 11.030 2.942 28.127 3.861 37.687 2.942 25.553-0.919 71.696-7.721 93.757-5.147 16.913-9.56 28.127-12.869 32.171-9.376 11.95-21.877-0.552-35.113-34.929-5.331-13.787-7.721-27.576-10.479-57.909-4.229-45.959-5.699-53.864-10.479-60.298-13.053-17.464-33.090-10.111-39.893 14.523-4.963 17.097-4.045 24.45 4.413 36.951 4.045 6.066 7.353 12.501 7.353 14.339 0 6.434-15.074 16.729-33.458 22.795-8.456 2.758-11.95 29.966-5.147 41.179 2.022 3.126 7.721 8.456 12.869 11.582 18.2 11.214 16.913 17.464-5.147 27.759-22.429 10.111-31.803 14.707-36.584 17.648-4.229 2.574-4.045 2.574 4.963 10.847 14.155 12.685 13.971 19.119-0.552 26.105-6.618 3.309-8.273 4.963-10.479 12.501-2.942 10.663-3.493 45.775-1.103 107.177 1.471 42.282-0.184 90.632-4.413 115.817-4.963 31.987-7.905 47.43-9.376 51.106-0.919 2.39-1.655 5.882-1.655 7.721 0 7.721-17.097 53.496-24.634 66.182-2.206 3.493-5.147 8.824-6.618 11.95-8.824 17.832-49.085 78.13-53.313 79.601-0.735 0.368-1.839-3.493-2.39-8.273s-1.839-15.442-2.942-23.531c-16.177-116.736-16.545-235.495-1.103-336.422 3.861-24.634 8.089-65.814 6.986-67.652-1.471-2.574-4.229-1.287-15.626 7.169-12.685 9.376-30.701 18.751-43.753 22.611-15.994 4.963-42.282 8.64-47.43 6.618-2.758-1.103-2.574-1.471 1.471-3.493 2.574-1.287 8.273-2.942 12.685-3.677 20.222-3.126 41.547-18.935 43.569-32.723 0.735-4.413 3.126-9.56 5.699-12.134 4.045-4.045 5.515-4.229 14.707-3.126 5.699 0.735 11.766 2.022 13.787 2.942 1.839 0.919 5.147 2.574 7.169 3.677 7.905 4.045 7.537-1.287-1.471-18.568-10.111-19.855-22.429-34.193-34.745-40.628-7.353-3.677-11.398-4.413-25.553-4.413-9.376 0-18.935 0.919-21.325 2.022-23.531 11.030-35.848 18.016-49.269 28.127-15.81 11.766-39.158 24.634-49.269 27.024-2.758 0.735-5.882 1.839-6.986 2.574-8.456 5.882-73.351 9.376-83.83 4.413-20.774-9.743-26.289-13.237-34.561-21.325-10.479-10.847-19.855-27.576-21.509-38.79-1.471-10.295-4.413-19.671-6.066-19.671-0.919 0-2.022 6.066-2.39 13.237-0.735 9.927-2.39 15.994-6.25 23.347-5.699 11.030-21.325 29.046-27.208 31.619-2.206 0.919-6.25 3.126-9.376 4.963-10.295 6.25-38.974 12.869-52.945 12.317-37.135-1.655-69.306-14.155-108.464-41.914-23.163-16.361-34.929-22.245-52.209-26.289-25.921-6.066-48.349 4.595-63.791 30.15-17.648 29.414-19.303 37.319-6.25 29.966 8.089-4.413 25.369-6.802 30.517-4.045 2.39 1.287 4.963 5.882 6.802 12.134 4.595 16.361 22.795 30.885 43.201 34.745 12.501 2.39 21.877 5.515 20.958 6.986-0.552 0.735-6.618 1.471-13.603 1.471-28.495 0-60.114-10.663-84.381-28.495-6.25-4.595-12.134-8.273-13.237-8.273-2.206 0-0.184 21.693 6.618 69.858 2.758 19.119 4.779 37.135 8.273 71.145 2.206 23.347 2.206 143.944 0 172.439-3.861 47.982-5.515 62.504-12.317 112.692-0.552 4.229-1.655 8.089-2.39 8.64-1.471 0.919-24.266-27.208-36.584-45.408-14.707-21.877-33.274-61.034-41.547-87.874-7.353-24.082-10.663-37.871-17.648-74.454-5.882-31.069-9.192-127.583-5.147-148.908 3.309-16.729 3.309-48.901 0-60.666-3.861-13.971-11.030-28.495-18.751-38.422-8.824-11.214-8.089-13.053 10.111-22.245 7.537-3.861 13.421-7.537 13.053-8.456-0.552-0.735-6.986-3.493-14.339-6.25-7.169-2.758-14.89-5.699-16.913-6.618-2.022-0.735-8.273-3.309-13.787-5.331-19.487-7.537-21.509-11.030-14.89-25.002 1.839-3.861 4.963-10.479 6.802-14.523 2.574-5.331 3.493-11.582 3.493-22.429 0-13.971-0.368-15.442-5.699-21.877-3.126-3.861-9.376-9.743-13.787-12.869s-8.273-7.169-8.64-9.192c-0.184-1.839 2.758-9.008 6.986-15.81 8.273-13.787 8.64-16.913 4.229-33.274-2.39-8.64-5.147-13.237-11.030-19.303-9.56-9.376-15.994-10.111-22.979-2.758-10.111 11.030-14.155 24.266-16.177 54.783-2.574 36.951-5.147 60.666-7.537 66.365-1.103 2.942-2.758 6.986-3.493 9.008-3.677 10.479-11.214 24.634-15.626 29.966-13.421 15.81-27.024-0.552-37.135-44.672-2.758-11.95-3.309-21.509-2.942-51.474 0.368-35.48 4.413-72.983 8.089-77.027 0.919-1.103 1.655-3.309 1.655-5.147 0-5.699 9.192-26.656 13.421-30.517 4.595-4.045 21.877-9.56 30.517-9.56 5.699 0 25.002-4.413 32.355-7.353 10.663-4.413 54.967-20.59 65.262-24.082 14.89-4.963 39.158-6.618 48.901-3.493 4.045 1.287 11.582 5.515 16.913 9.376 19.119 13.603 34.193 11.766 73.903-9.008 59.747-31.069 67.835-35.297 100.191-52.761 77.946-42.282 78.13-42.282 118.207-40.811 20.59 0.552 29.598 1.655 38.054 4.595 22.795 7.721 33.274 9.56 56.254 9.56 30.885 0 75.741-6.25 110.118-15.258 13.237-3.493 27.576-3.677 42.282-0.552zM644.050 443.245c4.779 9.376 20.222 14.707 47.43 16.177 19.487 1.287 29.414 2.758 47.798 7.721 18.2 4.963 38.974 14.707 54.232 25.553 19.855 14.339 52.945 51.106 69.674 77.763 5.882 9.192 27.759 52.393 34.010 66.549 2.39 5.515 6.25 14.523 8.64 19.855s4.413 10.111 4.413 10.663c0 0.552 1.103 3.677 2.574 6.802 4.963 11.766 6.986 16.913 10.479 27.943 2.022 6.066 4.413 12.685 5.331 14.707 0.735 2.022 3.677 10.663 6.25 19.303 15.074 49.269 19.303 65.63 34.377 129.605 0.919 4.045 2.206 10.847 2.942 15.074 0.552 4.413 2.206 8.824 3.493 9.927 3.309 2.758 3.126 7.169-0.184 11.582-1.839 2.39-2.758 7.905-2.758 15.442 0 43.753-31.437 75.741-74.454 75.741-11.582 0-31.619-3.493-40.445-7.353-2.022-0.735-7.721-3.126-12.685-5.147-10.295-4.045-10.111-4.045-19.487-35.297-6.066-19.855-8.456-27.576-11.030-34.010-0.735-2.022-4.963-13.237-9.192-24.818-10.479-28.679-32.171-72.616-45.959-93.206-14.89-22.429-36.4-42.65-53.864-50.922-12.134-5.699-21.325-8.089-40.811-11.214-11.95-1.839-13.237-2.574-16.361-9.008-2.574-5.331-2.942-16.177-2.942-77.946v-71.512l5.331-8.089c5.147-7.353 5.331-8.273 2.574-11.214-3.677-4.045-18.384-4.595-23.531-0.735-3.309 2.39-3.309 2.758 1.471 10.847l4.963 8.456v73.535c0 51.106-0.552 75.006-2.022 78.13-2.39 5.147-10.111 8.456-19.303 8.456-9.743 0-24.818 4.045-34.193 9.008-27.943 15.074-51.842 45.959-80.52 104.235-7.169 14.339-12.869 26.472-12.869 27.024s-2.942 7.537-6.618 15.442c-3.677 7.905-10.295 23.898-14.707 35.48-8.273 21.509-9.008 23.163-14.339 35.48-1.655 3.861-2.942 8.089-2.942 9.56 0 5.699-9.008 13.053-19.671 15.994-20.958 6.066-25.553 6.986-36.951 6.986-22.429 0-44.488-7.721-57.541-20.222-13.421-12.869-23.715-38.79-23.715-59.563 0-6.618-1.103-10.295-3.677-13.053-3.126-3.309-3.309-4.779-1.655-10.847 1.103-3.861 3.126-12.501 4.595-19.119 1.471-6.802 3.861-17.648 5.331-24.266 6.25-28.495 16.361-67.652 18.016-69.122 0.735-0.735 1.287-2.574 1.287-4.229 0-2.758 13.421-46.879 16.545-54.416 0.919-2.022 3.309-8.64 5.331-14.707 2.022-6.25 4.595-13.603 5.882-16.545 1.103-3.126 2.758-7.169 3.493-9.192 27.759-71.88 63.608-131.811 98.169-164.166 36.951-34.561 72.432-49.453 125.193-52.945 28.311-1.655 43.385-6.986 46.879-16.545 2.206-5.699 4.779-5.699 7.721 0.368zM706.554 763.672c4.413 1.839 11.766 7.537 16.545 12.317 18.935 19.855 47.614 72.799 66.917 123.538 13.053 34.745 20.59 51.106 27.576 60.298 5.515 6.986 5.515 7.537-0.184 15.626-6.802 10.295-11.766 10.479-28.679 1.839-17.648-9.192-27.759-9.927-41.547-3.126-34.193 16.913-54.967 25.002-78.314 30.333-11.214 2.574-46.511 2.574-57.725 0-26.289-6.066-50.187-15.626-66.733-26.84-3.493-2.206-7.721-4.229-9.56-4.229-1.655 0-3.677-0.919-4.229-1.839-0.552-1.103-6.434-1.839-12.685-1.839-9.376 0-12.869 0.919-18.384 4.595-20.958 14.155-30.701 13.603-36.216-2.39-1.839-5.147-1.287-6.618 5.331-16.361 9.192-13.603 14.523-24.082 25.185-50.187 10.663-26.289 10.479-25.921 17.281-40.995 3.126-6.986 5.699-13.237 5.699-14.155s4.229-10.111 9.376-20.59c17.464-34.745 32.355-53.496 49.269-62.321 9.376-4.779 29.23-6.434 86.035-6.802 32.723-0.368 37.871 0 45.040 3.126z"></path>
<path d="M677.324 554.65c-10.847 11.582-13.053 28.495-5.147 38.974 4.963 6.434 6.066 16.913 2.574 23.531-3.677 6.802 0.184 5.882 8.089-1.839 9.743-9.56 18.568-13.237 31.437-13.237 11.214 0 19.487-2.39 19.487-5.699 0-1.471-2.942-1.839-10.295-0.919-11.214 1.287-22.979-1.287-27.208-6.066-1.287-1.655-3.861-9.56-5.515-17.464-1.655-8.456-4.229-16.177-6.25-18.016-3.126-3.309-3.493-3.309-7.169 0.735z"></path>
<path d="M591.473 557.408c-1.287 2.942-3.126 9.743-3.861 15.258-2.022 15.074-4.779 19.303-14.523 22.061-4.595 1.287-12.869 1.839-18.568 1.471-7.537-0.552-10.111-0.184-10.111 1.471 0 2.942 3.861 3.861 21.509 5.147 15.442 1.103 18.935 2.574 29.414 12.685 8.273 7.905 11.95 8.089 7.905 0.552-3.126-6.066-1.471-15.626 4.595-24.818 4.413-6.434 4.779-8.64 3.677-15.994-1.471-10.295-9.192-22.795-13.971-22.795-1.839 0-4.595 2.206-6.066 4.963z"></path>
</svg>
