<!-- Generated by IcoMoon.io -->
<svg version="1.1" xmlns="http://www.w3.org/2000/svg" width="1024" height="1024" viewBox="0 0 1024 1024">
<title>oracle</title>
<g id="icomoon-ignore">
</g>
<path d="M988.91 994.108c-9.781-10.808-49.308-36.217-87.837-56.463-69.708-36.631-122.832-86.092-122.832-114.364 0-17.429 38.621-34.094 100.723-43.463l44.403-6.698-49.030-34.525c-26.966-18.989-76.9-44.962-110.963-57.717-69.154-25.895-65.459-20.701-162.564-228.546-39.484-84.512-63.885-120.991-121.506-181.651-80.616-84.867-188.039-147.8-252.289-147.8-22.383 0-50.976-10.050-74.013-26.015-39.972-27.701-112.041-45.502-112.041-27.674 0 5.737 17.065 35.14 37.923 65.34s48.774 84.861 62.036 121.469c13.262 36.608 36.063 83.943 50.669 105.19l26.556 38.63-18.392 60.746c-19.86 65.593-17.518 146.489 5.714 197.355 16.353 35.803 30.054 36.11 30.054 0.673 0-29.49 37.691-115.873 50.558-115.873 4.274 0 16.414 19.584 26.977 43.52 29.66 67.211 84.745 158.791 118.933 197.729 17.013 19.377 27.855 35.231 24.093 35.231-17.71 0-112.246-92.047-136.6-133.004l-27.332-45.964-5.863 36.072c-3.225 19.839-9.326 41.675-13.559 48.524-14.075 22.773-54.986 13.498-81.983-18.586-47.393-56.323-60.647-157.158-32.813-249.643 13.909-46.216 13.476-50.029-9.535-83.937-13.258-19.537-33.914-64.996-45.902-101.020s-37.73-86.366-57.206-111.872c-46.498-60.897-54.312-99.546-25.875-127.983 11.851-11.851 33.215-21.547 47.476-21.547 32.209 0 89.651 23.491 124.531 50.928 15.717 12.363 41.722 20.752 64.326 20.752 86.745 0 253.959 121.747 338.795 246.674 22.187 32.671 40.339 62.087 40.339 65.369s23.454 55.374 52.12 115.762l52.12 109.795 68.2 32.846c72.208 34.776 175.72 118.035 175.72 141.338 0 15.631-14.631 20.893-84.48 30.383-26.752 3.634-48.64 10.976-48.64 16.315s22.574 23.597 50.164 40.573c43.326 26.659 123.916 109.143 123.916 126.828 0 12.276-17.914 5.284-35.090-13.695zM226.908 225.293c-26.866-36.339-27.282-40.973-3.676-40.973 23.375 0 43.008 19.358 43.008 42.404 0 30.389-16.243 29.798-39.332-1.431z"></path>
<path d="M982.043 984.841c-13.532-10.431-53.64-34.304-89.129-53.051-65.177-34.429-114.674-81.265-114.674-108.51 0-18.232 34.017-31.816 102.387-40.886l51.989-6.897-53.6-36.097c-29.48-19.853-79.191-46.008-110.468-58.121-66.239-25.654-82.247-45.928-138.675-175.632-21.757-50.011-60.893-123.184-86.968-162.608-77.503-117.179-225.19-220.16-315.736-220.16-22.187 0-45.658-6.407-52.157-14.238-16.204-19.525-111.864-59.706-124.116-52.134-17.088 10.561-11.19 27.835 29.504 86.407 21.691 31.221 49.232 86.141 61.201 122.045s33.761 81.012 48.428 100.24c26.322 34.51 26.457 35.573 10.479 82.464-26.538 77.885-17.883 191.038 18.12 236.875 8.239 10.49 14.101-0.476 24.329-45.511 7.411-32.632 20.873-67.506 29.915-77.497 15.407-17.025 19.303-12.432 62.009 73.12 25.063 50.208 64.658 112.973 87.99 139.479s33.347 43.222 22.256 37.146c-30.034-16.453-123.059-115.592-141.496-150.797-15.878-30.318-16.096-30.385-16.639-5.12-1.043 48.546-12.636 71.823-39.078 78.46-38.349 9.625-78.781-39.8-94.903-116.012-10.412-49.218-10.021-72.766 2.222-133.823l14.857-74.095-38.882-79.505c-21.385-43.727-38.918-86.736-38.964-95.575s-18.433-40.667-40.863-70.729c-49.24-65.997-54.908-81.787-41.762-116.362 18.682-49.137 89.182-45.299 169.534 9.229 20.239 13.735 49.838 24.972 65.776 24.972 76.699 0 205.014 78.303 297.549 181.576 48.823 54.488 79.497 109.404 162.323 290.605 27.41 59.964 36.007 69.725 75.233 85.416 84.793 33.916 220.284 145.34 200.63 164.994-2.833 2.833-34.445 9.869-70.248 15.635s-66.724 12.11-68.712 14.098c-1.988 1.988 20.935 21.944 50.941 44.346 62.448 46.623 127.419 111.801 119.419 119.801-2.979 2.979-16.488-3.118-30.020-13.549zM223.196 214.975c-16.637-29.237-16.576-30.655 1.306-30.655 24.162 0 45.731 26.023 38.085 45.95-8.876 23.129-19.98 18.818-39.391-15.294z"></path>
<path d="M972.8 976.576c-19.712-13.635-55.923-34.539-80.469-46.454-49.831-24.188-114.091-83.524-114.091-105.349 0-15.601 42.515-31.975 110.195-42.44l43.635-6.747-61.737-43.473c-33.955-23.91-82.161-49.191-107.122-56.18s-52.373-20.428-60.913-29.865c-8.54-9.437-39.423-69.959-68.628-134.493s-69.026-141.602-88.491-171.262c-73.903-112.608-226.155-217.433-315.809-217.433-24.112 0-46.742-4.696-50.289-10.435-11.032-17.85-108.704-62.936-123.796-57.144-22.134 8.494-17.572 24.292 25.746 89.162 22.038 33.003 49.828 89.329 61.755 125.169s32.647 80.021 46.045 98.181c21.398 29.003 22.95 36.974 12.769 65.563-6.375 17.9-11.718 71.93-11.874 120.066-0.227 70.133 3.703 93.529 19.785 117.76l20.068 30.239 12.15-53.936c6.682-29.665 19.719-65.488 28.969-79.607l16.82-25.67 45.016 89.847c24.759 49.416 62.596 110.484 84.082 135.707 36.497 42.844 37.046 44.418 8.347 23.931-41.689-29.76-90.758-82.785-116.702-126.111l-21.461-35.84-0.038 32.146c-0.022 17.68-8.713 42.858-19.315 55.952-16.911 20.884-22.515 22.331-45.663 11.784-59.144-26.947-88.828-143.974-63.845-251.699 15.293-65.941 15.153-67.536-9.804-112.19-13.925-24.914-34.398-71.69-45.496-103.947s-35.844-80.168-54.991-106.468c-50.596-69.497-54.114-88.36-22.395-120.078 35.148-35.148 71.281-28.026 179.55 35.392 8.448 4.948 41.863 13.874 74.255 19.835 94.849 17.455 220.888 110.538 298.142 220.186 24.447 34.698 68.842 117.508 98.656 184.022l54.207 120.935 61.846 31.22c97.467 49.201 191.136 125.354 191.136 155.393 0 2.677-32.256 10.309-71.68 16.958s-71.68 16.088-71.68 20.974c0 4.886 19.584 20.376 43.52 34.424 43.983 25.812 138.194 114.651 129.921 122.512-2.465 2.342-20.609-6.898-40.321-20.533zM226.924 219.678c-15.154-33.259-14.969-35.358 3.116-35.358 17.663 0 39.897 36.934 30.949 51.412-10.32 16.697-21.556 11.402-34.066-16.053z"></path>
<path d="M977.59 978.626c-16.734-13.096-51.948-33.928-78.254-46.293-52.434-24.647-121.096-85.603-121.096-107.504 0-15.49 50.339-35.966 91.128-37.069 67.855-1.834 67.791-13.907-0.307-57.853-35.872-23.149-84.731-47.795-108.576-54.769s-49.996-20.037-58.112-29.029c-8.117-8.992-40.648-73.606-72.293-143.587s-73.694-149.251-93.444-176.155c-78.377-106.77-221.143-203.486-300.374-203.486-21.534 0-51.823-9.892-72.604-23.712-71.638-47.639-122.74-57.772-122.673-24.324 0.013 6.708 18.537 39.448 41.162 72.756s48.18 84.784 56.787 114.391c8.607 29.607 28.781 73.383 44.83 97.28 27.999 41.69 28.602 45.094 14.869 84.017-27.245 77.22-12.354 223.807 25.085 246.946 6.489 4.010 13.234-8.717 16.974-32.030 7.421-46.25 32.073-105.245 43.979-105.245 4.688 0 22.042 28.441 38.566 63.202s47.179 87.753 68.124 117.76c20.945 30.007 35.934 54.558 33.31 54.558-14.852 0-91.463-81.616-109.882-117.061l-21.648-41.659-8.754 42.618c-11.251 54.774-30.575 71.857-64.037 56.611-56.424-25.708-84.742-140.155-61.849-249.955 14.784-70.905 14.641-72.509-10.266-115.009-13.893-23.706-34.376-69.599-45.518-101.985s-35.779-80.402-54.747-106.702c-43.389-60.159-50.554-80.175-37.458-104.645 25.725-48.067 83.11-46.3 163.569 5.035 19.712 12.577 57.743 25.833 84.513 29.458 124.939 16.918 302.975 165.71 369.797 309.054 13.127 28.16 41.605 89.61 63.284 136.555 37.352 80.884 42.396 86.859 96.296 114.068 99.072 50.012 210.243 143.287 187.5 157.319-6.237 3.848-120.075 27.258-132.551 27.258-1.782 0-3.239 4.414-3.239 9.808s19.584 21.302 43.52 35.349c45.172 26.51 138.009 114.647 129.609 123.047-2.637 2.637-18.485-5.922-35.219-19.018zM231.922 221.046c-20.725-31.631-20.987-36.726-1.882-36.726 19.759 0 41.276 39.98 28.431 52.825-6.062 6.062-15.962 0.058-26.549-16.099z"></path>
<path d="M983.071 981.029c-14.063-11.4-51.326-33.73-82.807-49.622-52.409-26.456-122.024-90.102-122.024-111.562 0-14.035 60.253-31.365 109.048-31.365 24.504 0 44.552-4.128 44.552-9.172 0-13.972-97.76-74.706-166.546-103.468-68.838-28.783-66.036-24.87-157.697-220.16-49.793-106.087-67.613-132.831-130.396-195.694-79.099-79.2-177.523-137.004-233.709-137.257-18.465-0.083-45.092-6.875-59.172-15.093-54.975-32.088-108.33-55.996-125.44-56.211-28.683-0.36-21.402 35.841 18.335 91.152 19.94 27.755 45.694 78.415 57.231 112.577s32.546 79.162 46.687 100c26.693 39.335 26.619 36.776 4.236 146.27-11.368 55.61-0.493 132.51 24.032 169.94 14.205 21.68 20.059 24.599 27.084 13.507 4.929-7.783 9.033-24.974 9.119-38.203 0.181-27.842 29.307-93.708 41.437-93.708 4.524 0 16.161 20.777 25.859 46.172s37.2 75.962 61.114 112.373c23.915 36.411 35.945 62.11 26.734 57.11-26.151-14.196-68.912-63.631-89.108-103.014l-18.379-35.84-10.95 43.115c-6.022 23.713-16.585 48.702-23.472 55.53-20.668 20.492-59.204-4.898-83.449-54.982-24.62-50.858-29.441-152.681-10.745-226.93 9.893-39.29 8.561-47.541-12.8-79.251-13.114-19.467-32.649-62.828-43.412-96.358s-31.903-77.092-46.978-96.804c-58.615-76.645-67.117-122.228-27.622-148.105 27.516-18.029 60.819-11.137 137.395 28.434 26.914 13.908 75.119 30.657 107.124 37.219 88.834 18.215 206.799 102.42 287.656 205.332 19.913 25.344 65.784 108.408 101.937 184.587l65.733 138.507 68.095 33.523c68.537 33.741 185.52 129.98 176.243 144.991-2.743 4.438-22.318 11.054-43.5 14.701-79.509 13.69-94.833 18.038-94.833 26.91 0 5.011 24.192 24.805 53.76 43.987 53.937 34.99 127.895 104.978 119.62 113.199-2.431 2.416-15.926-4.936-29.989-16.336zM231.16 219.883c-19.551-29.838-17.267-39.289 7.223-29.892 20.018 7.681 28.389 28.1 18.248 44.509-5.384 8.712-13.078 4.297-25.471-14.617z"></path>
<path d="M993.132 987.982c-7.093-8.546-44.565-32.18-83.272-52.52-63.067-33.141-131.62-93.036-131.62-114.997 0-11.953 72.894-31.985 116.388-31.985 20.467 0 37.212-4.708 37.212-10.463 0-16.242-118.242-88.75-176.029-107.944l-51.856-17.224-55.491-119.065c-86.238-185.037-86.374-185.261-158.536-261.81-82.398-87.408-158.152-135.006-238.505-149.86-33.033-6.107-83.906-24.56-113.050-41.008-98.728-55.719-128.626-31.866-67.412 53.781 21.445 30.004 51.417 89.113 66.606 131.353s37.241 87.070 49.005 99.623c21.227 22.65 21.251 23.407 3.185 100.124-19.239 81.695-16.637 132.508 10.058 196.398 19.823 47.444 39.16 38.686 47.789-21.644 3.836-26.816 14.814-57.42 24.396-68.008 16.759-18.518 18.528-16.912 46.481 42.194 15.983 33.795 43.549 82.506 61.259 108.247 27.617 40.139 29.073 45.128 10.228 35.042-19.504-10.438-54.4-53.079-89.533-109.404-10.442-16.74-12.781-13.727-19.288 24.841-9.957 59.016-34.367 71.782-73.804 38.598-50.222-42.259-68.436-153.314-42.221-257.424 10.697-42.482 9.317-49.966-19.246-104.374-16.923-32.236-36.6-77.043-43.726-99.571s-30.721-65.902-52.434-96.387c-39.991-56.148-49.627-99.288-27.189-121.725 25.91-25.91 109.872-8.625 161.792 33.307 8.448 6.823 44.722 17.612 80.609 23.976 137.914 24.457 295.179 166.015 374.682 337.259 85.923 185.073 89.469 190.655 136.058 214.175 70.951 35.819 138.526 82.051 175.117 119.807 37.725 38.927 38.117 38.403-39.425 52.788-90.377 16.767-91.192 21.827-12.158 75.498 32.737 22.231 72.14 56.963 87.561 77.182 27.248 35.723 32.257 52.416 6.369 21.222zM232.1 221.318c-10.283-15.694-15.915-31.317-12.515-34.717 10.666-10.666 38.557 25.11 34.797 44.635-3.030 15.736-6.478 14.201-22.282-9.918z"></path>
<path d="M967.68 966.738c-11.264-8.608-47.27-29.996-80.013-47.529-58.774-31.472-99.187-70.201-99.187-95.054 0-14.175 73.703-35.675 122.294-35.675 17.218 0 31.306-3.493 31.306-7.761 0-14.081-127.076-94.008-175.605-110.45-26.183-8.871-54.492-23.918-62.909-33.439s-41.515-74.91-73.551-145.31c-32.036-70.4-76.972-152.332-99.857-182.072-76.759-99.748-199.389-180.995-292.141-193.555-26.717-3.618-65.881-17.978-87.031-31.912-39.747-26.186-110.017-36.182-116.906-16.631-2.137 6.066 14.657 38.322 37.321 71.68s50.748 89.275 62.408 124.26c11.661 34.986 32.866 80.798 47.122 101.806l25.921 38.196-17.866 59.009c-20.457 67.565-16.282 151.13 10.099 202.146 23.838 46.097 43.027 40.613 49.19-14.060 2.847-25.263 13.324-58.366 23.281-73.562l18.104-27.63 19.068 48.544c10.487 26.699 35.698 74.778 56.024 106.842l36.955 58.298-32.831-30.72c-18.057-16.896-42.352-49.152-53.989-71.68-20.764-40.197-21.303-40.483-28.886-15.36-4.25 14.080-10.523 38.272-13.939 53.76-4.603 20.869-12.378 28.16-30.029 28.16-69.425 0-110.257-149.507-73.861-270.441 13.909-46.216 13.476-50.029-9.535-83.937-13.258-19.537-33.646-64.146-45.307-99.132s-39.626-90.728-62.145-123.872c-44.524-65.532-49.548-88.391-24.852-113.086 28.328-28.328 89.513-15.348 163.109 34.603 16.896 11.468 47.095 20.881 67.109 20.918 98.82 0.183 303.759 165.556 361.75 291.907 7.755 16.896 36.023 77.812 62.819 135.369l48.72 104.649 62.601 30.048c64.176 30.804 180.361 117.042 180.361 133.873 0 10.694-18.094 16.778-77.009 25.895-65.878 10.195-72.732 19.356-35.489 47.432 39.853 30.044 140.033 121.371 132.978 121.226-2.816-0.061-14.336-7.148-25.6-15.756zM237.37 224.627c-7.43-12.002-10.809-24.522-7.509-27.822 9.893-9.893 28.326 14.785 24.539 32.851-2.948 14.062-5.716 13.245-17.030-5.029z"></path>
</svg>
