<!-- Generated by IcoMoon.io -->
<svg version="1.1" xmlns="http://www.w3.org/2000/svg" width="32" height="32" viewBox="0 0 32 32">
<title>netezza</title>
<path d="M13.584 0.555c-6.243 0.98-11.246 5.812-12.539 12.082-0.405 1.933-0.327 4.95 0.17 6.831 0.392 1.45 1.345 3.566 2.181 4.806 2.142 3.148 5.773 5.551 9.561 6.309 6.060 1.228 12.291-1.332 15.726-6.465 1.776-2.665 2.534-5.172 2.534-8.425 0-2.011-0.235-3.487-0.797-5.094-2.442-6.975-9.509-11.193-16.836-10.044zM18.077 2.135c5.917 0.954 10.501 5.525 11.442 11.455 0.235 1.411 0.105 4.036-0.261 5.381-1.032 3.827-3.54 6.988-6.922 8.738-3.997 2.064-8.294 2.116-12.343 0.144-3.605-1.763-6.126-4.846-7.21-8.816-0.313-1.097-0.353-1.489-0.353-3.396 0-1.946 0.026-2.273 0.353-3.435 1.894-6.857 8.438-11.167 15.295-10.070z"></path>
<path d="M9.143 15.706v7.771l2.26-0.026 2.247-0.039 0.039-4.18 0.026-4.166 2.338 4.166 2.338 4.18h4.663l0.039-7.745 0.026-7.732h-4.571l-0.026 4.075-0.039 4.088-2.22-4.088-2.22-4.075h-4.898v7.771z"></path>
</svg>
