<!-- Generated by IcoMoon.io -->
<svg version="1.1" xmlns="http://www.w3.org/2000/svg" width="32" height="32" viewBox="0 0 32 32">
<title>nginx</title>
<path d="M29 7.396l-12.050-6.957c-0.589-0.339-1.313-0.339-1.902 0l-12.050 6.957c-0.587 0.341-0.949 0.968-0.95 1.647v13.916c0.001 0.679 0.363 1.307 0.951 1.647l12.050 6.956c0.589 0.339 1.313 0.339 1.902 0l12.050-6.956c0.587-0.341 0.949-0.968 0.95-1.647v-13.916c-0.001-0.679-0.363-1.307-0.951-1.647zM8.995 21.559l-0.039-10.949c0.212-1.096 0.999-1.434 1.825-1.529 0.861-0.099 1.603 0.252 2.141 0.977l6.952 8.352-0.003-8.041c0.222-0.89 0.935-1.283 1.54-1.283 0.601-0.001 1.32 0.373 1.569 1.322l0.025 11.090c-0.254 0.98-0.962 1.413-2.084 1.349-0.704-0.028-1.323-0.344-1.851-0.964l-6.936-8.264-0.034 7.963c-0.214 0.952-1.051 1.349-1.598 1.355-0.53 0.006-1.189-0.392-1.507-1.378z"></path>
</svg>
