<!-- Generated by IcoMoon.io -->
<svg version="1.1" xmlns="http://www.w3.org/2000/svg" width="32" height="32" viewBox="0 0 32 32">
<title>nutch</title>
<path d="M17.687 27.735h-3.995l1.593-8.227 0.611 0.318 0.153-3.529 4.632-1.647-3.866-0.906c0 0 11.416 0.034 11.468 0.033 1.244-0.017 2.628 0.679 2.39 2.065l-2.33 11.844c0 0-4.471 0.012-4.471 0s2.164-9.027 2.164-9.027c0.33-0.999 0.208-1.228-0.634-1.24 0 0-5.857-0.093-5.857 0s-1.916 10.571-1.859 10.316z"></path>
<path d="M28.404 13.611c0.134 0.003 0.268 0.014 0.401 0.032 0.113 0.015 0.225 0.036 0.335 0.063 0.774 0.187 1.573 0.696 1.707 1.567 0.031 0.199 0.023 0.4-0.010 0.599l-2.331 11.846c-0.022 0.073-0.044 0.122-0.163 0.134-1.494 0.004-2.994 0.077-4.482 0-0.25-0.027-0.119-0.346-0.059-0.596 0.575-2.404 1.155-4.817 1.733-7.227l0.339-1.416c0.020-0.060 0.039-0.121 0.058-0.181 0.115-0.386 0.416-0.82-0.496-0.846-1.91-0.037-3.831-0.127-5.736-0.023 0 0-0.073 0.364-0.117 0.608-0.572 3.194-1.169 6.379-1.733 9.582-0.038 0.216-0.132 0.164-0.202 0.148h-3.958c-0.151-0.015-0.177-0.060-0.164-0.198l1.593-8.227c0.044-0.151 0.105-0.171 0.24-0.116l0.379 0.198 0.146-3.3c0.019-0.053 0.054-0.093 0.106-0.117l4.098-1.457-3.345-0.787c-0.142-0.082-0.11-0.301 0.069-0.318 3.821 0.011 7.629 0.026 11.467 0.033 0.040 0 0.081-0 0.121 0.001zM18.274 13.915l2.476 0.584c0.186 0.108 0.084 0.263-0.013 0.309l-4.527 1.609-0.153 3.45c-0.053 0.146-0.107 0.16-0.239 0.107l-0.413-0.215-1.512 7.81h3.652c0.597-3.395 1.281-6.81 1.839-10.19 0 0-0.137-0.132 0.407-0.153 1.896-0.076 3.797-0.025 5.694 0.029 0.3 0.011 0.64 0.045 0.801 0.301 0.206 0.327 0.041 0.737-0.061 1.063l-0.028 0.087c-0.69 2.876-1.381 5.752-2.069 8.629l-0.045 0.19c1.189 0.005 2.375 0 3.562-0.002l0.562-0.001 2.303-11.707c0.053-0.323 0.013-0.658-0.151-0.938-0.408-0.698-1.301-0.931-2.045-0.931-3.337 0.030-6.692-0.019-10.039-0.028zM19.71 17.448c0.003-0.013 0-0.003 0 0z"></path>
<path d="M21.951 27.675l1.88 0.008 2.289-9.55c0.051-0.409-0.11-0.65-0.543-0.671h-6.012l-0.135 0.681h4.187c0.253 0.005 0.365 0.123 0.327 0.359l-1.993 9.173z"></path>
<path d="M25.608 17.297c0.23 0.017 0.464 0.103 0.586 0.3 0.137 0.22 0.088 0.575 0.088 0.575l-2.289 9.549c-0.035 0.11-0.056 0.12-0.163 0.128l-1.881-0.008c-0.156-0.012-0.174-0.114-0.162-0.202l1.992-9.167c0.003-0.018 0.005-0.036 0.005-0.054 0-0.066-0.073-0.105-0.171-0.109h-4.184c-0.109-0.008-0.18-0.064-0.163-0.199l0.135-0.681c0.032-0.114 0.055-0.126 0.164-0.134 2.014 0 4.032-0.114 6.043 0.002zM19.702 17.629l-0.069 0.347h3.987c0.295 0.010 0.533 0.247 0.488 0.556l-1.951 8.977 1.543 0.007 2.256-9.412c0.002-0.019 0.004-0.037 0.005-0.056 0.012-0.195-0.125-0.4-0.375-0.418-1.958-0.112-3.923-0.001-5.884-0.001z"></path>
<path d="M11.249 27.735l2.446 0.002 1.475-7.85-3.459 4.035-0.462 3.813z"></path>
<path d="M15.201 19.724c0.137 0.035 0.142 0.12 0.133 0.194l-1.475 7.85c-0.032 0.127-0.102 0.132-0.164 0.136l-2.446-0.002c-0.101-0.007-0.171-0.085-0.165-0.187l0.462-3.813c0.005-0.027 0.001-0.039 0.039-0.088l3.459-4.035c0.037-0.038 0.060-0.067 0.157-0.055zM11.871 23.992l-0.434 3.576 2.12 0.002 1.335-7.102c-1.007 1.175-2.014 2.349-3.021 3.524z"></path>
<path d="M13.571 2.756c0.121 0.027 0.2 0.048 0.273 0.232l3.196 10.421 3.43 1.008c0.229 0.135 0.245 0.483-0.029 0.612l-4.090 1.522-0.181 3.295c-0.169 0.53-0.756 0.068-0.756 0.068l-7.010 8.122c-0.229 0.223-0.649 0.015-0.569-0.322l3.159-9.576-9.275-4.225c-0.227-0.183-0.14-0.576 0.181-0.609 3.444-0.062 6.912-0.243 10.368-0.052 0 0 0.106-0.728 0.149-1.207 0.264-2.998 0.52-5.992 0.777-8.987 0 0 0.038-0.32 0.377-0.301zM13.566 6.507c-0.206 2.386-0.363 4.775-0.628 7.16-0.099 0.703-0.425 0.296-0.485 0.27-1.036-0.138-2.141-0.058-3.232-0.054-1.88 0.007-3.758 0.032-5.638 0.060l-0.196 0.003 8.202 3.736c0.182 0.144 0.18 0.181 0.131 0.381l-2.729 8.273c0 0 6.043-7.042 6.043-7.042 0.242-0.271 0.087-0.256 0.506-0.062l0.157-2.934c0.029-0.21 0.1-0.24 0.217-0.294l3.354-1.248-2.638-0.776c-0.080-0.047-0.139-0.115-0.174-0.203l-2.745-8.95c-0.048 0.56-0.097 1.12-0.145 1.681zM12.343 13.847c0 0-0.002-0.003 0 0zM12.273 13.682c0 0-0.003-0.051 0 0z"></path>
</svg>
