<!-- Generated by IcoMoon.io -->
<svg version="1.1" xmlns="http://www.w3.org/2000/svg" width="1024" height="1024" viewBox="0 0 1024 1024">
<title>oracle</title>
<g id="icomoon-ignore">
</g>
<path d="M256 767.196c-215.907-97.62-218.978-395.716-5.12-496.99 48.793-23.106 61.309-24.246 266.24-24.246s217.447 1.14 266.24 24.246c213.858 101.273 210.787 399.37-5.12 496.99-41.643 18.828-66.786 20.834-261.12 20.834s-219.477-2.006-261.12-20.834zM754.483 659.538c101.659-75.412 101.643-209.499-0.034-284.837-27.109-20.087-41.897-21.422-237.329-21.422s-210.22 1.335-237.329 21.422c-92.044 68.2-102.361 192.399-22.199 267.243 42.456 39.64 68.133 43.538 271.61 41.237 181.315-2.051 198.621-3.867 225.28-23.643z"></path>
<path d="M266.789 770.788c-95.699-33.788-174.629-148.442-174.629-253.668 0-108.018 78.924-220.249 178.824-254.288 72.553-24.721 419.718-24.721 492.271 0 99.9 34.039 178.824 146.27 178.824 254.288s-78.924 220.249-178.824 254.288c-70.072 23.876-428.353 23.428-496.467-0.62zM744.326 669.12c118.433-56.2 118.433-247.799 0-303.999-52.446-24.887-401.966-24.887-454.412 0-118.075 56.030-119.115 245.72-1.666 303.588 50.573 24.917 403.764 25.236 456.078 0.412z"></path>
<path d="M286.72 776.591c-121.403-33.101-211.176-176.898-189.721-303.89 9.799-57.999 64.78-144.4 112.921-177.451 63.402-43.53 121.537-51.765 337.92-47.871 183.278 3.298 197.442 4.973 244.264 28.888 93.126 47.565 144.092 132.484 144.552 240.853 0.26 61.402-4.224 79.755-31.277 128-34.32 61.204-101.39 114.763-166.283 132.787-46.844 13.011-403.638 11.973-452.376-1.316zM747.68 667.119c133.821-71.113 112.544-270.299-33.507-313.671-72.036-21.392-322.070-21.392-394.106 0-113.822 33.802-158.717 162.15-91.774 262.367 42.353 63.404 70.436 70.231 288.986 70.248 169.864 0.015 199.274-2.404 230.4-18.945z"></path>
<path d="M279.884 769.525c-75.993-26.261-120.526-64.531-153.602-132-74.951-152.884-2.736-322.207 160.55-376.442 40.592-13.482 86.65-15.963 248.363-13.377 197.7 3.161 198.78 3.303 258.262 33.895 106.774 54.914 165.643 178.206 138.705 290.497-23.892 99.592-92.502 172.712-188.93 201.348-77.928 23.142-392.745 20.479-463.347-3.92zM720.038 681.484c165.207-58.92 153.912-288.251-16.456-334.126-24.659-6.64-109.626-9.721-211.143-7.657-189.154 3.847-213.75 10.799-261.998 74.056-70.038 91.824-28.119 228.661 81.88 267.283 56.131 19.708 352.798 20.031 407.718 0.444z"></path>
<path d="M295.122 774.589c-132.161-36.672-221.785-180.099-192.157-307.51 15.589-67.037 41.485-109.491 94.434-154.813 64.958-55.602 117.378-66.506 319.721-66.506 222.118 0 262.53 10.314 338.648 86.432 76.188 76.188 97.693 163.267 66.894 270.862-16.33 57.047-104.068 147.497-160.754 165.724-58.064 18.67-404.884 22.987-466.785 5.811zM762.018 661.854c21.145-16.14 47.252-43.788 58.015-61.44 23.427-38.419 26.050-118.133 5.201-158.042-21.682-41.503-69.804-83.132-109.137-94.413-45.446-13.034-352.507-13.034-397.954 0-39.334 11.281-87.455 52.91-109.137 94.413-20.85 39.909-18.226 119.623 5.201 158.042 21.647 35.501 76.631 80.635 108.354 88.944 11.264 2.95 106.1 4.572 210.746 3.603l190.266-1.761z"></path>
<path d="M314.721 777.815c-93.804-23.259-155.575-73.878-192.755-157.958-58.462-132.207 2.001-282.288 139.154-345.412 48.019-22.101 63.923-23.565 256-23.565 192.216 0 208.020 1.458 257.211 23.721 135.214 61.197 195.406 212.414 137.776 346.13-27.696 64.263-71.603 108.123-138.987 138.838-46.473 21.184-68.217 23.545-235.52 25.572-101.376 1.229-201.672-2.069-222.879-7.327zM744.432 674.856c126.589-61.281 126.589-254.192 0-315.473-39.944-19.336-62.472-21.464-227.312-21.464s-187.368 2.127-227.312 21.464c-126.166 61.076-126.655 252.947-0.804 315.242 39.683 19.643 61.039 21.679 227.442 21.686 165.533 0.007 188.020-2.109 227.985-21.455z"></path>
<path d="M247.754 751.716c-63.872-31.829-108.632-83.241-130.938-150.397-20.8-62.623-20.8-105.775 0-168.398 22.898-68.94 67.972-119.415 136.833-153.23 58.388-28.672 59.66-28.811 263.471-28.811s205.083 0.139 263.471 28.811c198.681 97.564 202.136 374.234 5.895 472.025-52.215 26.020-57.336 26.524-269.366 26.524s-217.151-0.505-269.366-26.524zM740.349 679.762c52.479-26.515 77.030-54.594 94.976-108.623 28.446-85.644-7.221-171.629-88.364-213.025-35.193-17.954-60.689-20.194-229.84-20.194s-194.647 2.24-229.84 20.194c-49.87 25.442-76.062 58.548-92.353 116.733-10.879 38.857-10.28 53.334 3.988 96.292 17.624 53.061 41.817 81.223 92.924 108.165 45.601 24.040 401.116 24.403 448.509 0.457z"></path>
</svg>
