<!-- Generated by IcoMoon.io -->
<svg version="1.1" xmlns="http://www.w3.org/2000/svg" width="1024" height="1024" viewBox="0 0 1024 1024">
<title></title>
<g id="icomoon-ignore">
</g>
<path fill="#000" d="M92.136 267.554c-14.766 2.188-43.202 7.11-62.888 9.844-49.764 8.202-44.296 26.796 7.656 26.796 25.156 0 64.53 11.484 94.606 27.342 28.436 14.766 57.966 27.342 66.17 27.342 19.14 0 18.594 8.75-1.64 28.984-10.938 10.938-16.406 38.826-16.406 86.404 0 39.92-4.922 70.544-10.938 70.544s-10.938 14.218-10.938 31.718c0 32.264-15.858 44.842-55.78 44.842-11.484 0-20.78-7.11-20.78-16.406 0-25.156-33.906-103.904-44.842-103.904-5.468 0-9.844 39.92-9.844 88.044 0 86.95 12.030 119.762 43.202 119.762 6.016 0 11.484 4.374 11.484 9.844 0 4.922 21.874 13.124 49.218 16.952 26.796 3.828 51.404 12.030 55.232 17.5 7.656 13.124 103.356 13.672 103.356 0.546 0-4.922 21.874-13.124 49.218-16.952 26.796-3.828 51.404-12.030 55.232-17.5 3.282-6.016 15.858-10.39 27.342-10.39 12.030 0 21.328-4.922 21.328-10.39 0-6.016 17.5-13.672 38.28-17.5 21.328-4.374 38.28-11.484 38.28-16.406 0-12.030-149.292-83.122-194.134-92.42-19.686-3.828-35.546-12.578-35.546-18.594 0-14.766 118.668-3.828 135.074 12.578 6.016 6.016 20.234 11.484 31.17 11.484s19.686 4.374 19.686 9.844c0 23.514 123.044 32.264 159.682 11.484 167.338-94.060 177.182-108.824 71.638-108.824-48.67 0-90.778-4.374-94.060-9.844-3.282-4.922-32.812-13.124-65.624-16.952-33.358-4.374-63.436-12.030-66.716-17.5-3.282-6.016-20.234-10.39-37.734-10.39s-34.452-4.922-38.28-10.938c-3.828-6.016-28.436-10.938-55.232-10.938-42.654 0-71.638-19.686-34.998-22.968 37.186-3.828 135.074 4.374 144.918 12.030 6.016 4.922 33.358 11.484 60.154 14.766 27.342 2.734 78.748 10.39 114.84 16.406 170.62 27.342 219.29 24.062 270.694-19.14 100.076-84.764 132.34-132.34 90.232-132.34-8.75 0-16.406 4.922-16.406 10.938s-26.796 10.938-60.154 10.938c-32.812 0-60.154 4.374-60.154 9.296 0 9.296-65.076 8.202-232.414-4.374-52.498-3.828-95.7-10.938-95.7-15.858 0-4.374-69.998-11.484-155.854-15.312-85.856-4.374-177.728-9.296-205.072-11.484-26.796-1.64-61.248-1.64-76.56 1.094zM826.020 396.066c-13.124 15.312-55.78 31.17-55.78 20.234 0-9.844 37.186-34.998 53.046-34.998 12.030-0.546 12.578 2.734 2.734 14.766zM628.058 533.328c0 14.218-59.608 44.842-84.216 43.202-18.046-1.094-18.046-1.64-0.546-6.562 10.39-2.734 19.14-9.296 19.14-14.766 0-6.016 9.844-10.39 21.874-10.39s21.874-4.922 21.874-10.938c0-6.016 4.922-10.938 10.938-10.938s10.938 4.922 10.938 10.39zM404.94 663.48c-10.39 16.406-127.418 57.966-147.652 52.498-10.938-2.734-8.75-4.922 7.11-6.016 13.672-0.546 24.608-6.016 24.608-11.484 0-6.016 17.5-13.672 38.28-17.5 21.328-4.374 38.28-11.484 38.28-16.406 0-8.202 33.906-20.234 42.108-14.766 2.188 1.64 0.546 7.656-2.734 13.672z"></path>
</svg>
