<!-- Generated by IcoMoon.io -->
<svg version="1.1" xmlns="http://www.w3.org/2000/svg" width="1024" height="1024" viewBox="0 0 1024 1024">
<title></title>
<g id="icomoon-ignore">
</g>
<path fill="#000" d="M495.104 119.296c-6.656 7.168-27.648 16.384-52.224 23.552-100.864 28.672-174.592 87.040-217.6 171.008-20.992 41.472-22.528 48.64-24.576 92.16-1.024 26.112 1.536 74.752 5.632 108.544 12.8 104.448 12.8 104.448-72.704 232.448-40.448 59.904-75.264 115.712-77.824 123.392-11.264 31.744 13.824 56.32 47.104 46.592 18.944-5.632 66.048-51.2 66.048-64 0.512-14.336 8.192-18.944 23.552-12.8 8.192 3.072 48.128 15.872 89.088 28.672 154.624 47.616 250.368 33.28 332.8-49.152 37.376-37.888 117.248-153.6 148.48-215.552 14.848-29.696 25.6-44.544 39.936-53.76 22.016-14.848 88.064-39.424 137.216-51.712l33.792-8.704-3.072-19.456c-7.168-45.056-40.96-143.872-67.072-196.608-31.232-62.976-54.784-94.72-91.648-122.368-41.472-30.72-64.512-35.84-170.496-36.352-51.712-0.512-95.232-2.56-97.28-4.096-8.192-8.192-38.4-3.072-49.152 8.192z"></path>
</svg>
