<!-- Generated by IcoMoon.io -->
<svg version="1.1" xmlns="http://www.w3.org/2000/svg" width="1024" height="1024" viewBox="0 0 1024 1024">
<title></title>
<g id="icomoon-ignore">
</g>
<path d="M113.709 846.088c-8.213-9.897-10.864-88.138-8.934-263.68l2.745-249.608 74.322-3.010c71.995-2.916 74.643-2.168 84.55 23.891l10.228 26.901 30.951-26.044c34.039-28.642 97.874-45.349 113.514-29.71 5.475 5.475 8.587 43.575 6.915 84.666l-3.040 74.711-44.614 13.139c-90.366 26.614-114.106 79.605-114.106 254.702 0 108.954 0.675 108.112-86.624 108.112-33.505 0-58.692-5.378-65.907-14.072zM451.629 846.088c-8.213-9.897-10.864-88.138-8.934-263.68l2.745-249.608 23.858-3.379c13.332-1.888 41.472 8.277 63.78 23.040 47.688 31.558 45.594 31.372 79.741 7.095 108.105-76.856 262.415-35.775 296.808 79.018 16.557 55.262 16.297 392.686-0.315 409.298-12.745 12.745-106.952 16.971-135.355 6.072-13.682-5.25-16.356-29.498-17.218-156.16-0.561-82.469-4.209-161.395-8.105-175.391-9.415-33.815-50.969-56.482-86.978-47.444-46.181 11.591-57.496 55.882-57.496 225.066 0 167.331 3.887 160.144-86.624 160.144-33.505 0-58.692-5.378-65.907-14.072zM126.244 282.687c-22.554-19.4-28.498-33.273-28.498-66.508 0-57.048 30.665-87.713 87.713-87.713 83.335 0 120.17 89.722 61.089 148.802-37.439 37.439-80.808 39.392-120.304 5.419zM479.806 292.086c-61.829-34.534-55.007-131.329 11.189-158.748 64.359-26.659 133.379 33.463 118.128 102.9-12.242 55.738-78.378 84.3-129.316 55.849zM802.376 297.046c-29.417-11.871-54.856-49.9-54.856-82.006 0-35.046 23.155-66.062 61.032-81.751 97.866-40.537 165.676 110.155 71.486 158.862-32.622 16.87-45.914 17.707-77.663 4.895z"></path>
<path d="M113.709 846.088c-8.213-9.897-10.864-88.138-8.934-263.68l2.745-249.608 74.322-3.010c71.995-2.916 74.643-2.168 84.55 23.891l10.228 26.901 30.951-26.044c34.039-28.642 97.874-45.349 113.514-29.71 5.475 5.475 8.587 43.575 6.915 84.666l-3.040 74.711-44.614 13.139c-90.366 26.614-114.106 79.605-114.106 254.702 0 108.954 0.675 108.112-86.624 108.112-33.505 0-58.692-5.378-65.907-14.072zM457.82 833.286c-3.993-3.993-7.26-114.924-7.26-246.514 0-197.381 2.548-240.233 14.56-244.842 17.047-6.542 52.57 10.216 85.74 40.447 19.25 17.544 26.658 19.184 40.96 9.068 80.732-57.105 170.867-70.275 237.263-34.666 63.325 33.962 76.093 75.895 80.655 264.912 2.206 91.366 1.027 178.007-2.62 192.535-6.349 25.296-9.328 26.287-70.314 23.375l-63.684-3.040-5.12-167.328c-4.911-160.509-6.105-168.125-29.294-186.88-24.089-19.483-66.838-25.244-98.153-13.227-33.378 12.808-41.484 49.089-46.633 208.715l-5.12 158.72-61.86 2.993c-34.023 1.646-65.127-0.273-69.12-4.267zM126.244 282.687c-22.554-19.4-28.498-33.273-28.498-66.508 0-57.048 30.665-87.713 87.713-87.713 83.335 0 120.17 89.722 61.089 148.802-37.439 37.439-80.808 39.392-120.304 5.419zM471.040 266.24c-11.378-11.378-20.48-34.133-20.48-51.2 0-60.512 68.553-92.195 120.602-55.739 29.285 20.512 31.656 85.473 4.032 110.472-25.765 23.317-79.113 21.507-104.154-3.533zM784.947 267.994c-25.358-28.020-22.089-89.151 5.811-108.693 52.048-36.456 120.602-4.772 120.602 55.739 0 17.067-9.102 39.822-20.48 51.2-26.148 26.148-83.004 27.090-105.933 1.754z"></path>
<path d="M123.942 835.84c-8.2-9.881-10.865-85.476-8.934-253.44l2.752-239.36h66.56c64.999 0 66.636 0.66 69.8 28.16 3.496 30.388 26.575 38.15 36.503 12.278 7.732-20.149 95.035-59.317 115.074-51.628 11.646 4.469 14.394 21.344 12.054 74.013l-3.031 68.224-46.865 13.629c-86.12 25.044-110.735 78.247-111.406 240.789-0.503 121.996-0.136 121.416-76.833 121.416-24.832 0-49.078-6.132-55.674-14.080zM457.82 833.286c-3.993-3.993-7.26-114.924-7.26-246.514 0-197.381 2.548-240.233 14.56-244.842 17.047-6.542 52.57 10.216 85.74 40.447 19.25 17.544 26.658 19.184 40.96 9.068 80.732-57.105 170.867-70.275 237.263-34.666 63.325 33.962 76.093 75.895 80.655 264.912 2.206 91.366 1.027 178.007-2.62 192.535-6.349 25.296-9.328 26.287-70.314 23.375l-63.684-3.040-5.12-167.328c-4.911-160.509-6.105-168.125-29.294-186.88-24.089-19.483-66.838-25.244-98.153-13.227-33.378 12.808-41.484 49.089-46.633 208.715l-5.12 158.72-61.86 2.993c-34.023 1.646-65.127-0.273-69.12-4.267zM137.104 272.981c-51.253-44.086-29.681-118.307 39.278-135.14 22.493-5.491 33.908-0.805 58.88 24.167 38.888 38.888 39.167 66.899 1.045 105.021-36.192 36.192-62.232 37.754-99.203 5.953zM471.040 266.24c-11.378-11.378-20.48-34.133-20.48-51.2 0-60.512 68.553-92.195 120.602-55.739 29.285 20.512 31.656 85.473 4.032 110.472-25.765 23.317-79.113 21.507-104.154-3.533zM784.947 267.994c-25.358-28.020-22.089-89.151 5.811-108.693 52.048-36.456 120.602-4.772 120.602 55.739 0 17.067-9.102 39.822-20.48 51.2-26.148 26.148-83.004 27.090-105.933 1.754z"></path>
<path d="M123.942 835.84c-8.2-9.881-10.865-85.476-8.934-253.44l2.752-239.36h66.56c64.999 0 66.636 0.66 69.8 28.16 3.496 30.388 26.575 38.15 36.503 12.278 7.732-20.149 95.035-59.317 115.074-51.628 11.646 4.469 14.394 21.344 12.054 74.013l-3.031 68.224-46.865 13.629c-86.12 25.044-110.735 78.247-111.406 240.789-0.503 121.996-0.136 121.416-76.833 121.416-24.832 0-49.078-6.132-55.674-14.080zM471.040 594.455c0-263.351-0.238-262.611 65.938-204.508l35.93 31.547 46.61-33.473c88.827-63.791 213.482-48.14 253.426 31.818 15.086 30.198 17.907 65.342 17.92 223.255l0.015 187.415-107.52-6.19-1.933-142.724c-1.063-78.498-4.636-153.495-7.941-166.66-21.835-86.997-164.325-87.068-184.632-0.092-2.922 12.516-6.434 87.269-7.804 166.117l-2.491 143.36-107.52 6.19zM137.104 272.981c-51.253-44.086-29.681-118.307 39.278-135.14 22.493-5.491 33.908-0.805 58.88 24.167 38.888 38.888 39.167 66.899 1.045 105.021-36.192 36.192-62.232 37.754-99.203 5.953zM476.741 253.722c-21.455-30.631-20.063-55.039 4.539-79.642 40.014-40.014 102.4-13.976 102.4 42.739 0 54.961-75.936 81.165-106.939 36.902zM795.187 257.754c-53.885-59.542 28.709-140.417 85.453-83.674 24.603 24.603 25.994 49.011 4.539 79.642-19.681 28.099-66.321 30.189-89.992 4.032z"></path>
<path d="M123.942 835.84c-8.2-9.881-10.865-85.476-8.934-253.44l2.752-239.36h66.56c64.999 0 66.636 0.66 69.8 28.16 3.496 30.388 26.575 38.15 36.503 12.278 7.732-20.149 95.035-59.317 115.074-51.628 11.646 4.469 14.394 21.344 12.054 74.013l-3.031 68.224-46.865 13.629c-86.12 25.044-110.735 78.247-111.406 240.789-0.503 121.996-0.136 121.416-76.833 121.416-24.832 0-49.078-6.132-55.674-14.080zM137.104 272.981c-51.253-44.086-29.681-118.307 39.278-135.14 22.493-5.491 33.908-0.805 58.88 24.167 38.888 38.888 39.167 66.899 1.045 105.021-36.192 36.192-62.232 37.754-99.203 5.953z"></path>
<path d="M127.683 827.187c-2.864-7.464-3.965-117.147-2.445-243.739l2.762-230.168 117.76-6.142v30.627c0 44.427 17.77 48.698 54.645 13.135 34.505-33.277 84.326-56.901 99.815-47.328 5.159 3.189 9.381 32.661 9.381 65.494v59.696l-34.801 6.529c-19.141 3.591-46.881 16.030-61.645 27.644-47.866 37.651-60.194 76.302-66.585 208.747l-5.929 122.88-53.875 3.099c-37.6 2.163-55.448-1-59.082-10.472zM136.794 260.605c-20.322-20.322-24.612-32.248-19.341-53.76 3.726-15.205 12.231-33.101 18.901-39.771s24.566-15.175 39.771-18.901c21.512-5.272 33.438-0.981 53.76 19.341 32.839 32.839 33.142 61.91 0.981 94.072s-61.233 31.858-94.072-0.981z"></path>
<path d="M133.12 593.92v-235.52h102.4v36.161c0 51.393 25.699 58.052 59.14 15.323 21.594-27.592 76.478-61.724 99.251-61.724 2.997 0 5.449 25.344 5.449 56.32 0 36.562-4.254 56.32-12.127 56.32-35.321 0-98.452 44.003-121.2 84.478-20.943 37.263-25.074 60.805-28.747 163.839l-4.29 120.323h-99.876zM143.36 256c-36.198-36.198-20.006-84.988 32.393-97.607 20.029-4.823 32.948-0.893 48.64 14.8 26.91 26.91 27.227 56.468 0.887 82.807-11.264 11.264-29.696 20.48-40.96 20.48s-29.696-9.216-40.96-20.48z"></path>
</svg>
