<!-- Generated by IcoMoon.io -->
<svg version="1.1" xmlns="http://www.w3.org/2000/svg" width="32" height="32" viewBox="0 0 32 32">
<title>shrine</title>
<path d="M13.42 9.476h0.020v0.033l3.977 6.794-3.977 6.795v0.082h-8.314v-0.022l-3.983-6.832 3.983-6.832v-0.019h0.011l0.005-0.009v0.009h8.261v-0.030l0.018 0.030z"></path>
<path d="M13.44 9.29c0.19 0.067 0.142 0.011 0.158 0.173l3.956 6.759c0.025 0.053 0.026 0.108 0 0.162l-3.955 6.757c0 0 0.014 0.182-0.16 0.199l-8.304 0.006c-0.101-0.014-0.074 0.098-0.158-0.104-0.006-0.015-0.010-0.036-0.010-0.036l-3.975-6.825c-0.012-0.046-0.009-0.092 0.012-0.136l3.973-6.831c0.059-0.11 0.136-0.12 0.216-0.099l8.152-0.020c0.036-0.010 0.013-0.017 0.095-0.006zM13.328 9.636h-8.1l-3.9 6.691 3.902 6.694 8.072-0.003 3.93-6.714-3.903-6.668z"></path>
<path d="M26.445 2.201h0.020v0.033l3.977 6.794-3.977 6.795v0.082h-8.315v-0.022l-3.982-6.832 3.982-6.832v-0.019h0.011l0.005-0.009v0.009h8.261v-0.030l0.018 0.030z"></path>
<path d="M26.465 2.015c0.19 0.067 0.142 0.011 0.158 0.173l3.956 6.759c0.025 0.053 0.026 0.108 0 0.162l-3.955 6.757c0 0 0.014 0.182-0.16 0.199l-8.304 0.006c-0.101-0.014-0.074 0.098-0.158-0.104-0.006-0.015-0.010-0.036-0.010-0.036l-3.975-6.825c-0.012-0.046-0.009-0.092 0.012-0.136l3.973-6.831c0.059-0.11 0.136-0.121 0.217-0.099l8.151-0.020c0.036-0.010 0.013-0.017 0.095-0.006zM26.353 2.361h-8.1l-3.9 6.691 3.902 6.694 8.071-0.003 3.93-6.714-3.903-6.668z"></path>
<path d="M26.486 16.795h0.020v0.033l3.977 6.794-3.977 6.795v0.082h-8.315v-0.022l-3.982-6.833 3.982-6.832v-0.019h0.011l0.005-0.009v0.009h8.261v-0.030l0.018 0.030z"></path>
<path d="M26.506 16.61c0.19 0.067 0.142 0.011 0.158 0.173l3.956 6.759c0.025 0.053 0.026 0.108 0 0.162l-3.955 6.757c0 0 0.014 0.182-0.16 0.199l-8.304 0.005c-0.101-0.014-0.074 0.098-0.158-0.104-0.006-0.015-0.010-0.036-0.010-0.036l-3.975-6.825c-0.012-0.046-0.009-0.092 0.012-0.136l3.973-6.831c0.059-0.11 0.136-0.121 0.217-0.099l8.151-0.020c0.036-0.010 0.013-0.017 0.095-0.006zM26.394 16.955h-8.1l-3.9 6.691 3.902 6.694 8.071-0.003 3.93-6.714-3.903-6.668z"></path>
</svg>
