<!-- Generated by IcoMoon.io -->
<svg version="1.1" xmlns="http://www.w3.org/2000/svg" width="1024" height="1024" viewBox="0 0 1024 1024">
<title></title>
<g id="icomoon-ignore">
</g>
<path d="M448.581 910.522c-170.9-24.978-320.762-176.86-344.942-349.591-39.754-283.992 193.78-517.526 477.772-477.772 175.377 24.55 324.639 173.812 349.189 349.189 40.010 285.818-196.028 519.973-482.019 478.174zM516.577 594.205c5.93 0.157 28.853 13.958 50.94 30.67s41.602 28.939 43.369 27.173c1.767-1.767-2.316-29.567-9.072-61.78l-12.285-58.567 91.431-80.267-47.802-0.437c-68.207-0.623-77.162-6.493-95.881-62.85-17.9-53.893-29.062-57.204-40.196-11.924-14.501 58.974-32.628 74.337-87.717 74.337-28.030 0-50.964 2.316-50.964 5.147s18.829 22.158 41.842 42.949c35.327 31.916 40.908 42.275 35.84 66.533-3.301 15.802-9.075 43.519-12.831 61.594l-6.828 32.862 44.686-32.862c24.577-18.074 49.538-32.734 55.468-32.577z"></path>
<path d="M409.848 894.944c-73.335-19.707-129.859-53.612-188.442-113.034-231.144-234.456-100.526-630.869 228.003-691.965 270.931-50.385 524.79 203.475 474.405 474.405-45.23 243.214-279.171 393.689-513.967 330.594zM465.184 634.595c22.123-16.739 44.333-30.435 49.355-30.435s29.869 14.268 55.215 31.707c25.347 17.439 48.803 28.989 52.126 25.666s0.695-23.885-5.84-45.695c-20.754-69.272-16.002-86.703 33.808-124.025 25.129-18.828 43.289-38.117 40.356-42.863s-30.134-8.63-60.445-8.63c-60.171 0-63.85-2.908-87.040-68.819-8.448-24.011-19.968-44.147-25.6-44.748s-19.665 23.555-31.185 53.678l-20.945 54.77-63.535 3.049c-34.944 1.677-63.535 6.035-63.535 9.686s21.872 25.883 48.604 49.406l48.604 42.769-16.812 62.745c-19.511 72.818-13.131 77.138 46.869 31.74z"></path>
<path d="M391.717 886.732c-102.88-33.477-194.505-115.677-246.144-220.821-25.14-51.188-27.813-67.459-27.813-169.271 0-103.908 2.335-117.403 30.122-174.080 38.441-78.408 116.75-156.717 195.158-195.158 56.677-27.787 70.172-30.122 174.080-30.122s117.403 2.335 174.080 30.122c78.408 38.441 156.717 116.75 195.158 195.158 27.787 56.677 30.122 70.172 30.122 174.080s-2.335 117.403-30.122 174.080c-38.421 78.367-116.794 156.767-194.816 194.885-52.433 25.616-74.945 30.234-158.72 32.563-62.358 1.733-113.328-2.398-141.104-11.436zM455.68 645.12c24.557-16.896 51.749-30.72 60.426-30.72s36.577 14.662 62 32.582c25.423 17.92 48.78 30.026 51.904 26.902s-2.279-34.308-12.007-69.298l-17.687-63.618 111.365-99.762-61.44-0.6c-33.792-0.33-67.177-4.243-74.188-8.695s-21.184-32.914-31.495-63.248c-10.311-30.334-23.287-56.666-28.836-58.516s-18.094 22.031-27.878 53.068c-20.603 65.359-37.099 77.105-108.29 77.105-28.53 0-51.873 3.752-51.873 8.337s20.505 23.701 45.567 42.479c25.062 18.778 47.915 40.26 50.784 47.737s-1.458 35.594-9.617 62.481c-15.855 52.254-18.607 74.486-9.22 74.486 3.209 0 25.927-13.824 50.485-30.72z"></path>
<path d="M397.684 882.080c-79.107-26.129-121.195-53.913-181.314-119.694-71.914-78.685-97.722-148.869-97.722-265.746 0-128.948 26.202-192.803 115.936-282.536 78.046-78.046 149.143-110.953 257.704-119.277 236.916-18.165 444.811 189.729 426.645 426.645-8.324 108.562-41.23 179.658-119.277 257.704-50.466 50.466-82.999 73.417-128.936 90.961-84.496 32.269-196.644 37.175-273.036 11.942zM456.405 650.24c27.725-19.712 54.415-35.84 59.311-35.84s31.623 16.679 59.394 37.065c27.771 20.386 53.441 34.117 57.045 30.514s-0.644-36.624-9.438-73.378l-15.989-66.827 50.165-42.3c27.591-23.265 48.541-47.244 46.557-53.287s-33.201-13.291-69.369-16.107l-65.76-5.12-21.573-60.951c-19.109-53.99-44.987-87.381-44.987-58.047 0 5.89-9.547 36.226-21.216 67.413l-21.216 56.704h-65.22c-35.871 0-67.806 4.184-70.967 9.299s18.214 29.942 47.499 55.173l53.246 45.874-12.019 49.787c-6.61 27.383-14.97 60.155-18.578 72.827-9.024 31.698 4.338 28.988 63.114-12.8z"></path>
<path d="M389.12 874.53c-116.019-41.586-215.343-143.643-251.477-258.397-26.646-84.62-17.003-214.35 21.781-293.020 38.010-77.101 106.166-145.517 184.17-184.874 56.648-28.581 68.727-30.72 173.526-30.72s116.879 2.139 173.526 30.72c77.543 39.124 145.749 107.33 184.874 184.874 28.581 56.648 30.72 68.727 30.72 173.526s-2.139 116.879-30.72 173.526c-39.318 77.928-107.7 146.093-184.874 184.288-52.071 25.771-74.97 30.601-158.166 33.364-70.452 2.339-109.988-1.325-143.36-13.287zM450.56 660.48c26.853-19.712 55.079-35.84 62.723-35.84s38.254 16.774 68.020 37.274c29.766 20.501 57.225 34.17 61.019 30.377s-0.937-36.3-10.512-72.235c-9.575-35.936-17.41-69.394-17.41-74.353s23.040-26.586 51.2-48.061c70.649-53.877 67.66-67.563-14.756-67.563-73.469 0-72.949 0.409-103.004-81.132-11.264-30.56-25.787-57.296-32.273-59.413-6.778-2.213-21.159 24.297-33.819 62.339-12.114 36.404-29.073 68.893-37.685 72.198s-39.857 6.009-69.434 6.009c-29.577 0-57.148 3.372-61.269 7.493s18.372 30.617 49.984 58.88l57.477 51.387-15.74 51.2c-16.269 52.922-20.671 97.28-9.654 97.28 3.469 0 28.279-16.128 55.132-35.84z"></path>
<path d="M419.84 876.227c-144.238-40.135-244.061-141.505-283.040-287.427-34.195-128.012 6.061-271.399 103.571-368.909s240.897-137.766 368.909-103.571c148.292 39.612 248.548 139.868 288.16 288.16 74.595 279.252-198.822 549.318-477.6 471.747zM463.715 657.719l48.995-35.344 62.954 42.272c38.199 25.65 66.648 38.578 72.35 32.876s2.954-31.557-6.988-65.756c-24.404-83.947-22.154-92.685 35.117-136.36 70.032-53.407 64.639-69.085-25.995-75.567l-71.586-5.12-24.421-69.605c-30.848-87.923-47.854-87.258-77.947 3.045l-22.181 66.56-68.791 3.039c-77.663 3.431-98.455 22.209-59.511 53.744 12.059 9.764 36.339 29.882 53.956 44.706l32.032 26.953-17.37 70.881c-25.541 104.221-19.667 107.918 69.387 43.676z"></path>
<path d="M414.72 866.888c-118.497-39.327-194.197-104.416-244.211-209.979-28.763-60.709-32.269-78.121-32.269-160.269s3.506-99.56 32.269-160.269c40.951-86.434 99.908-145.391 186.342-186.342 60.709-28.763 78.121-32.269 160.269-32.269s99.56 3.506 160.269 32.269c86.434 40.951 145.391 99.908 186.342 186.342 28.763 60.709 32.269 78.121 32.269 160.269s-3.506 99.56-32.269 160.269c-63.369 133.751-184.040 214.204-330.467 220.328-45.961 1.922-94.279-2.296-118.544-10.349zM453.226 675.84c31.46-22.528 60.347-40.96 64.193-40.96s23.785 13.157 44.307 29.238c94.011 73.666 116.069 66.047 88.919-30.713-9.878-35.203-19.984-69.283-22.459-75.733s21.059-31.445 52.297-55.545c31.77-24.51 56.797-51.969 56.797-62.316 0-18.347-7.252-20.106-137.42-33.334-14.494-1.473-25.485-19.486-41.832-68.558-30.538-91.676-52.68-91.38-85.141 1.135l-23.752 67.695-72.553 6.083c-103.060 8.64-107.059 18.375-34.23 83.335l60.752 54.188-18.352 67.799c-17.566 64.894-16.752 98.646 2.379 98.646 4.892 0 34.634-18.432 66.094-40.96z"></path>
</svg>
