<!-- Generated by IcoMoon.io -->
<svg version="1.1" xmlns="http://www.w3.org/2000/svg" width="32" height="32" viewBox="0 0 32 32">
<title>stonebranch</title>
<path d="M17.245 0.334l11.649 6.745c0.778 0.453 1.257 1.288 1.256 2.188v13.465c0.001 0.9-0.478 1.735-1.256 2.188l-11.649 6.745c-0.769 0.446-1.721 0.446-2.49 0l-11.649-6.745c-0.778-0.453-1.257-1.288-1.256-2.188v-13.465c-0.001-0.9 0.478-1.735 1.256-2.188l11.649-6.745c0.769-0.446 1.721-0.446 2.49 0zM10.791 20.661c0 1.146 0.316 1.425 1.45 1.68 0.527 0.127 1.74 0.331 3.322 0.331 4.087 0 5.669-1.247 5.669-3.844 0-2.139-1.081-3.081-3.032-3.819l-2.742-1.044c-0.791-0.306-1.081-0.458-1.081-0.866 0-0.458 0.369-0.687 1.951-0.687 1.45 0 2.268 0.178 2.821 0.306 1.16 0.28 1.477 0 1.477-1.146v-0.255c0-1.145-0.29-1.426-1.45-1.68-0.316-0.076-1.214-0.305-2.796-0.305-3.902 0-5.378 1.272-5.378 3.742 0 2.088 1.055 2.928 2.742 3.615l2.452 0.993c1.345 0.534 1.661 0.713 1.661 1.171 0 0.585-0.501 0.738-2.030 0.738-1.872 0-2.927-0.229-3.586-0.407-1.16-0.305-1.45 0.051-1.45 1.197v0.28z"></path>
</svg>
