<!-- Generated by IcoMoon.io -->
<svg version="1.1" xmlns="http://www.w3.org/2000/svg" width="32" height="32" viewBox="0 0 32 32">
<title>tomcat</title>
<path d="M6.293 19.216c0.341 0.416 0.721 0.838 1.139 1.262-1.216 0.361-2.013 1.033-2.51 1.625-0.787 0.938-1.203 2.177-1.107 3.24h-2.094c0.42-0.9 2.096-3.501 4.573-6.127z"></path>
<path d="M30.549 25.908h-2.546c-5.841-3.011-10.968-5.134-16.416-5.598 0.012-0.749 0.147-1.596 0.406-2.541l-0.502-0.133c-0.267 0.971-0.406 1.85-0.422 2.636-0.568-0.037-1.139-0.056-1.716-0.056-0.488 0-0.933 0.044-1.339 0.122-0.53-0.522-0.98-1.021-1.364-1.494 0.683-0.703 1.487-1.388 2.367-2.030l1.21 0.825-0.395-1.393c0.372-0.247 0.753-0.487 1.142-0.716l1.793 0.9-0.842-1.434c0.248-0.132 0.498-0.26 0.749-0.383l2.509 1.663-0.824-2.412c0.858-0.341 1.715-0.621 2.542-0.823 1.014 3.331 3.191 5.612 5.833 7.148 0.194-0.109 0.384-0.223 0.571-0.344l0.452 0.48-0.762 1.159 1.3-0.587 0.757 0.806-1.273 0.959 1.753-0.448 2.382 2.533 0.202-0.017c1.259-0.107 1.974 0.568 2.163 0.778 0.14 0.153 0.223 0.293 0.269 0.403z"></path>
<path d="M27.557 13.921c-0.929 2.438-2.653 4.367-4.77 5.562-2.661-1.309-4.286-3.582-5.154-6.002l0.656-0.181-0.826-0.327c-0.083-0.265-0.157-0.531-0.223-0.797l1.269-0.085-1.451-0.761c-0.353-1.931-0.281-3.804 0.078-5.215 0.263 1.42 0.742 2.31 1.775 2.747 0.917-0.26 1.975-0.421 3.061-0.481l0.896 1.943 0.575-1.959c1.097 0.035 2.172 0.177 3.109 0.432 0.952-0.684 1.321-1.729 1.523-2.642 0.252 1.062 0.223 3.357 0.224 3.357 0.018 0.853-0.051 1.674-0.196 2.456l-1.030 0.433 0.91 0.136c-0.072 0.3-0.155 0.595-0.249 0.882l-0.88 0.252 0.703 0.25z"></path>
<path d="M16.467 15.718h3.028v0.369h-3.028v-0.369z"></path>
<path d="M16.467 14.831h3.028v0.369h-3.028v-0.369z"></path>
<path d="M25.712 15.718h3.027v0.369h-3.027v-0.369z"></path>
<path d="M25.712 14.831h3.027v0.369h-3.027v-0.369z"></path>
<path d="M24.645 12.642h-4.934v-0.332h1.535c0.189-0.8 0.226-1.564-0.002-1.952-0.097-0.165-0.232-0.242-0.424-0.242-0.878 0-1.24 0.917-1.256 0.956l0-0-0.315-0.117c0.018-0.048 0.457-1.172 1.57-1.172 0.311 0 0.558 0.141 0.714 0.407 0.278 0.472 0.245 1.288 0.057 2.119h2.694c0.358-1.039 1.105-1.529 2.354-1.529v0.332c-1.353 0-1.732 0.567-2.003 1.197h1.47l-0.003 0.331-1.459 0.002z"></path>
<path d="M24.866 14.284l0.002-0c-0.399-0.581-0.525-1.078-0.359-1.643l-0.343 0.002c-0.119 0.376-0.072 0.943 0.223 1.429h-3.423c0.208-0.412 0.401-0.915 0.542-1.429h-0.349c-0.155 0.546-0.374 1.086-0.62 1.513l-0.079 0.138 1.921 1.195-1.081 0.704 0.185 0.278 1.209-0.787 1.305 0.841 0.179-0.281-1.21-0.739c0 0 1.809-1.161 1.899-1.218-0.001-0.001-0.001-0.001-0.002-0.002zM22.691 15.287l-1.421-0.884 2.777 0.001-1.356 0.883z"></path>
<path d="M28.865 9.111c-0.002-0.578-0.184-3.020-0.519-3.693-0.908 0.341-2.56 1.445-2.934 2.574-1.792-0.264-3.812-0.233-5.581 0.069-0.296-1.215-1.779-2.145-2.899-2.669-0.472 0.787-0.681 2.612-0.628 3.907-0.002 0.001-0.004 0.003-0.006 0.004 0.208 5.437 2.907 8.822 6.437 10.873 3.632-2.050 6.226-6.047 6.126-11.069 0.002 0.001 0.003 0.001 0.004 0.002zM25.843 8.063c0.013 0.002 0.026 0.005 0.040 0.007-0.013-0.002-0.026-0.005-0.040-0.007zM25.617 8.024c0.032 0.005 0.064 0.011 0.096 0.016-0.032-0.005-0.064-0.011-0.096-0.016zM28.3 9.503c0.093 4.524-2.243 8.124-5.513 9.971-5.551-2.733-6.597-9.655-5.65-13.368 0.263 1.42 0.741 2.31 1.776 2.747 2.253-0.637 5.355-0.688 7.64-0.065 0.952-0.684 1.322-1.729 1.523-2.642 0.252 1.062 0.223 3.357 0.224 3.358z"></path>
<path d="M30.667 25.153c-0.57-0.63-1.687-0.928-2.619-0.906-0.662-0.778-4.499-4.771-4.499-4.771l-0.266 0.331 4.633 4.928 0.201-0.017c1.259-0.107 1.974 0.568 2.164 0.777 0.139 0.154 0.223 0.293 0.268 0.403h-2.547c-5.84-3.011-10.968-5.134-16.415-5.597 0.012-0.749 0.147-1.597 0.406-2.541l-0.501-0.134c-0.266 0.971-0.406 1.85-0.422 2.637-0.568-0.037-1.139-0.056-1.715-0.056-0.489 0-0.934 0.045-1.34 0.123-0.529-0.523-0.981-1.021-1.364-1.494 2.53-2.604 6.708-4.958 10.328-5.823l-0.117-0.501c-3.898 0.929-8.165 3.457-10.543 5.899-1.103-1.471-1.541-2.679-1.671-3.594-0.164-1.156 0.115-2.216 0.807-3.066 1.084-1.331 2.624-1.424 4.208-1.161-0.031 0.247 0.002 0.483 0.102 0.629 0.419 0.611 2.67 0.826 4.013 0.234-0.992-1.373-3-2.043-3.556-1.774-0.184 0.089-0.323 0.252-0.419 0.443-0.547-0.097-1.091-0.169-1.488-0.166-1.397 0.010-2.464 0.492-3.264 1.474-0.785 0.963-1.102 2.159-0.917 3.459 0.175 1.231 0.792 2.54 1.826 3.898-0.172 0.182-0.338 0.362-0.498 0.538-2.52 2.786-4.362 5.773-4.362 6.268v0.256h3.324l-0.058-0.304c-0.188-0.98 0.187-2.206 0.955-3.121 0.482-0.575 1.28-1.231 2.534-1.534 1.115 1.075 2.535 2.216 4.116 3.318h2.47v-0.256c0-0.289-0.145-0.543-0.409-0.713-0.39-0.252-0.993-0.287-1.546-0.1-0.528-0.58-0.823-1.356-0.887-2.319 5.361 0.469 10.489 2.608 16.275 5.594h3.184l0.042-0.206c0.060-0.293-0.102-0.687-0.433-1.052zM4.922 22.095c-0.786 0.938-1.203 2.176-1.108 3.24h-2.094c0.421-0.9 2.097-3.5 4.573-6.127 0.341 0.417 0.721 0.838 1.139 1.262-1.216 0.361-2.013 1.033-2.51 1.626z"></path>
<path d="M14.337 13.795l0.847 2.48-2.572-1.705 1.725-0.775z"></path>
<path d="M11.859 14.879l0.91 1.55-1.914-0.961 1.004-0.589z"></path>
<path d="M9.789 16.088l0.439 1.55-1.318-0.899 0.878-0.651z"></path>
<path d="M23.811 20.241l-0.816 1.24 1.443-0.651-0.627-0.589z"></path>
<path d="M25.097 21.667l-1.317 0.992 1.82-0.465-0.502-0.527z"></path>
<path d="M21.898 8.216l0.973 2.108 0.627-2.139-1.6 0.031z"></path>
<path d="M16.973 11.284l1.537 0.806-1.38 0.093-0.157-0.899z"></path>
<path d="M17.349 12.927l0.941 0.372-0.784 0.217-0.157-0.589z"></path>
<path d="M28.329 11.873l-1.255 0.527 1.035 0.155 0.22-0.682z"></path>
<path d="M27.827 13.392l-0.972 0.279 0.784 0.279 0.188-0.558z"></path>
</svg>
