<!-- Generated by IcoMoon.io -->
<svg version="1.1" xmlns="http://www.w3.org/2000/svg" width="32" height="32" viewBox="0 0 32 32">
<title>twilio</title>
<path d="M15.982 27.788c-6.501 0-11.771-5.27-11.771-11.77s5.27-11.77 11.771-11.77c6.501 0 11.77 5.27 11.77 11.77s-5.27 11.77-11.77 11.77zM15.982 0.035c-8.827 0-15.982 7.156-15.982 15.982s7.156 15.982 15.982 15.982c8.827 0 15.982-7.155 15.982-15.982s-7.156-15.982-15.982-15.982h0z"></path>
<path d="M16.64 12.037c0-1.835 1.488-3.323 3.323-3.323s3.323 1.488 3.323 3.323c0 1.835-1.488 3.323-3.323 3.323s-3.323-1.488-3.323-3.323zM16.64 19.998c0-1.835 1.488-3.323 3.323-3.323s3.323 1.488 3.323 3.323c0 1.835-1.488 3.323-3.323 3.323s-3.323-1.488-3.323-3.323zM8.679 19.998c0-1.835 1.488-3.323 3.323-3.323s3.323 1.488 3.323 3.323c0 1.835-1.488 3.323-3.323 3.323s-3.323-1.488-3.323-3.323zM8.679 12.037c0-1.835 1.488-3.323 3.323-3.323s3.323 1.488 3.323 3.323c0 1.835-1.488 3.323-3.323 3.323s-3.323-1.488-3.323-3.323z"></path>
</svg>
