<!-- Generated by IcoMoon.io -->
<svg version="1.1" xmlns="http://www.w3.org/2000/svg" width="1245" height="1024" viewBox="0 0 1245 1024">
<title></title>
<g id="icomoon-ignore">
</g>
<path fill="#000" d="M561.455 66.327v-66.327h-558.429c-0.233 21.993-0.349 43.869-0.582 65.862 32.582 3.956 68.771 1.745 96.233 22.691 29.556 23.040 45.964 58.298 60.509 91.811 109.847 280.32 220.044 560.64 330.356 840.844 39.866-0.151 79.721-0.151 119.587-0.128l34.164 0.023c39.866 0.023 79.721 0.023 119.587-0.128 112.175-284.858 220.975-571.113 334.895-855.273 21.178-62.022 80.524-105.542 147.316-96.931v-68.771h-555.753c0.116 22.109 0.116 44.335 0 66.444 29.44 0.815 59.462-0.116 88.204 7.331 17.222 4.538 32.349 21.295 24.087 39.68-22.458 42.473-65.745 73.309-76.684 121.949-5.585 21.644 3.258 55.040 32.116 47.011 39.68-21.062 70.982-56.669 114.618-70.4 19.665 4.655 32.698 24.087 30.255 43.985-11.636 84.713-127.535 120.32-113.222 212.945 35.258 11.869 60.16-21.527 92.625-25.484 26.531 9.542 18.036 42.589 8.727 61.905-30.022 57.135-92.858 93.324-110.662 157.673-11.52 42.007 11.171 81.92 23.156 120.902-9.891-0.698-29.673-2.211-39.564-3.025-18.618-36.655-27.578-77.265-44.335-114.735-9.542-29.789-43.869-36.887-70.051-45.033-38.749-8.727-60.393 46.895-97.862 39.447-18.618-18.153 8.145-41.309 11.753-61.556 19.316-31.069 1.745-82.036 41.425-97.513 14.545 24.902 23.971 52.364 36.189 78.545 13.149 16.291 38.167 15.36 56.087 24.32-18.153-46.429-30.953-95.535-57.018-138.356-45.847-65.164-138.705-66.676-187.695-127.651-17.571-19.2-22.924-58.182 5.935-69.585 46.313-13.382 88.32 33.862 134.633 25.833 19.084-14.778 7.447-39.68-1.745-56.553-33.513-48.873-97.164-69.469-124.044-123.927-9.193-14.196-1.28-35.607 14.778-40.029 25.949-8.145 53.644-6.633 80.407-7.796zM444.858 579.142c-13.731-33.629 13.382-68.655 45.149-77.615 23.855-1.862 46.895 6.749 70.167 11.055-1.047 43.636-16.524 84.596-36.538 122.764-28.625-13.615-69.935-20.364-78.778-56.204z"></path>
</svg>
