<!-- Generated by IcoMoon.io -->
<svg version="1.1" xmlns="http://www.w3.org/2000/svg" width="32" height="32" viewBox="0 0 32 32">
<title>wordpress</title>
<path d="M3.856 10.588l6.344 17.375c-4.438-2.15-7.494-6.7-7.494-11.963 0-1.931 0.413-3.756 1.15-5.412zM24.975 15.331c0-1.644-0.587-2.781-1.094-3.669-0.675-1.094-1.306-2.025-1.306-3.119 0-1.225 0.925-2.362 2.231-2.362 0.056 0 0.113 0.006 0.175 0.013-2.369-2.169-5.519-3.494-8.981-3.494-4.644 0-8.731 2.381-11.113 5.994 0.313 0.012 0.606 0.019 0.856 0.019 1.388 0 3.544-0.169 3.544-0.169 0.719-0.044 0.8 1.012 0.088 1.094 0 0-0.719 0.081-1.519 0.125l4.844 14.4 2.912-8.725-2.069-5.675c-0.719-0.044-1.394-0.125-1.394-0.125-0.719-0.044-0.631-1.137 0.081-1.094 0 0 2.194 0.169 3.5 0.169 1.387 0 3.544-0.169 3.544-0.169 0.719-0.044 0.8 1.012 0.087 1.094 0 0-0.719 0.081-1.519 0.125l4.806 14.294 1.325-4.431c0.563-1.837 1-3.156 1-4.294zM16.231 17.163l-3.988 11.594c1.194 0.35 2.45 0.544 3.756 0.544 1.55 0 3.031-0.269 4.412-0.756-0.038-0.056-0.069-0.119-0.094-0.181l-4.088-11.2zM27.669 9.619c0.056 0.425 0.087 0.875 0.087 1.369 0 1.35-0.25 2.863-1.012 4.762l-4.063 11.744c3.956-2.306 6.613-6.587 6.613-11.494 0-2.313-0.587-4.487-1.625-6.381zM31.5 16c0 8.55-6.956 15.5-15.5 15.5-8.55 0-15.5-6.956-15.5-15.5 0-8.55 6.95-15.5 15.5-15.5 8.544 0 15.5 6.95 15.5 15.5zM30.788 16c0-8.156-6.637-14.787-14.788-14.787-8.156 0-14.787 6.631-14.787 14.787s6.638 14.788 14.787 14.788c8.156 0 14.788-6.631 14.788-14.788z"></path>
</svg>
