<!-- Generated by IcoMoon.io -->
<svg version="1.1" xmlns="http://www.w3.org/2000/svg" width="32" height="32" viewBox="0 0 32 32">
<title>xmatters</title>
<path d="M5.426 30.189c-3.223-3.921-4.835-8.326-4.835-13.241 0-6.661 2.954-12.033 8.863-16.088l0.322 0.483c-4.754 3.733-7.144 8.568-7.144 14.53 0 4.727 1.477 8.917 4.458 12.65l-1.665 1.665z"></path>
<path d="M14.853 18.034l-0.46-1.228c-0.338-0.859-0.522-1.351-0.553-1.412l-0.706-1.596c-0.522-1.136-1.013-1.719-1.473-1.719-0.706 0-1.258 0.645-1.688 1.995-0.307-0.123-0.43-0.276-0.43-0.491 0-0.614 0.338-1.32 1.074-2.118 0.706-0.798 1.351-1.197 1.934-1.197 1.105 0 2.271 1.596 3.469 4.819l0.307 0.798 0.338-0.553c2.118-3.377 3.929-5.065 5.372-5.065 0.399 0 0.829 0.092 1.351 0.307l-1.811 1.903c-0.246-0.061-0.43-0.092-0.522-0.092-1.105 0-2.394 1.258-3.929 3.806l-0.43 0.706 0.338 0.921c1.32 3.622 2.425 5.464 3.254 5.464 0.798 0 1.381-0.583 1.78-1.688 0.276 0.184 0.43 0.368 0.43 0.553 0 0.491-0.399 1.105-1.197 1.811-0.798 0.675-1.504 1.044-2.057 1.044-1.166 0-2.364-1.658-3.561-4.911l-0.43-1.105-0.43 0.767c-2.026 3.499-3.99 5.249-5.832 5.249-0.706 0-1.32-0.184-1.811-0.522l1.75-1.719c0.307 0.307 0.645 0.46 1.044 0.46 1.136 0 2.394-1.166 3.806-3.438l0.798-1.259 0.276-0.491z"></path>
<path d="M25.983 0.86c3.223 3.948 4.835 8.353 4.835 13.241 0 6.661-2.954 12.033-8.863 16.088l-0.322-0.483c4.781-3.706 7.144-8.541 7.144-14.504 0-4.727-1.477-8.944-4.459-12.65l1.665-1.692z"></path>
</svg>
